<svg xmlns="http://www.w3.org/2000/svg" fill="none" viewBox="0 0 200 200" height="400" width="400"><g id="coding-3--development-coding-3"><g id="color"><g id="group"><path id="vector" fill="#c0c195" d="M109.964 115.28C109.7 115.116 109.402 115.017 109.093 114.988C108.784 114.96 108.472 115.004 108.183 115.117L34.317 143.938C33.939 144.082 33.6121 144.334 33.3777 144.664C33.1432 144.993 33.0118 145.385 33 145.789V160.823C32.9888 161.158 33.0637 161.49 33.2176 161.788C33.3715 162.085 33.5993 162.338 33.879 162.523L70.823 186.093C71.0888 186.263 71.391 186.367 71.7049 186.398C72.0188 186.428 72.3354 186.384 72.629 186.269L147.176 157.023C147.552 156.878 147.876 156.623 148.107 156.293C148.337 155.962 148.464 155.57 148.47 155.167V140.271C148.476 139.931 148.394 139.596 148.232 139.297C148.071 138.998 147.835 138.745 147.548 138.564L109.964 115.28Z"></path><path id="vector_2" fill="#6596e1" d="M108.424 132.9C105.801 130.643 100.024 125.381 96.079 121.891C96.941 123.278 97.6235 124.768 98.11 126.327C100.515 127.823 107.409 132.259 108.424 132.9Z"></path><path id="vector_3" fill="#000000" d="M173.363 13.717C172.976 15.436 169.763 28.248 169.622 28.893C169.503 29.425 170.304 29.639 170.422 29.107C170.809 27.387 174.022 14.575 174.163 13.93C174.284 13.4 173.483 13.185 173.363 13.717Z"></path><path id="vector_4" fill="#000000" d="M189.288 18.259C187.471 19.809 173.688 31.352 172.988 31.939C172.56 32.26 173.148 32.848 173.576 32.527C175.393 30.977 189.176 19.435 189.876 18.847C190.3 18.526 189.715 17.938 189.288 18.259Z"></path><path id="vector_5" fill="#000000" d="M178.333 35.039C177.797 35.139 178.013 35.95 178.547 35.839C180.312 35.476 193.672 32.804 194.311 32.686C194.847 32.586 194.631 31.775 194.097 31.886C193.283 32.054 179.611 34.8 178.333 35.039Z"></path><path id="vector_6" fill="#ffaaaa" d="M194.953 58.552C194.899 58.232 194.685 58.125 194.472 57.964C193.818 57.602 148.972 29.05 148.353 28.68C148.172 28.602 149.699 28.626 127.081 28.626C130.813 31.093 172.448 57.448 173.47 58.178C173.633 58.014 172.42 58.071 194.151 58.071C194.261 58.0763 194.364 58.1237 194.44 58.2032C194.516 58.2828 194.558 58.3885 194.558 58.4985C194.558 58.6084 194.516 58.7141 194.44 58.7937C194.364 58.8733 194.261 58.9207 194.151 58.926H173.71C173.71 135.885 173.91 133.848 173.363 133.848C195.923 133.848 194.633 133.901 194.792 133.741H194.846C194.913 133.668 194.95 133.573 194.952 133.474C194.952 109.758 194.966 58.653 194.953 58.552Z"></path><path id="vector_7" fill="#b6dbff" d="M194.151 58.071C172.243 58.071 173.678 58.034 173.516 58.141C173.416 58.061 129.3 30.068 127.138 28.626C126.964 28.452 126.497 28.726 126.497 29.054C126.497 108.992 126.347 103.987 126.764 104.296C126.864 104.373 172.155 133.153 172.664 133.474C173.149 133.797 173.706 133.911 173.706 133.367V58.926H194.147C194.257 58.9212 194.361 58.8743 194.437 58.7951C194.513 58.7159 194.556 58.6103 194.556 58.5004C194.557 58.3904 194.515 58.2845 194.44 58.2046C194.364 58.1246 194.261 58.0768 194.151 58.071V58.071Z"></path><path id="vector_8" fill="#6596e1" d="M166.256 138.337C165.388 137.768 154.634 130.575 153.323 129.686V124.336C153.323 123.748 152.468 123.748 152.468 124.283V129.139C151.591 128.568 140.337 121.023 140.017 120.809C140.01 120.809 140.003 120.808 139.996 120.805C139.99 120.803 139.984 120.799 139.979 120.794C139.974 120.789 139.97 120.783 139.967 120.777C139.964 120.77 139.963 120.763 139.963 120.756C139.536 120.435 139.114 121.174 139.536 121.45C139.636 121.516 165.828 138.932 165.828 139.032C166.256 139.353 166.677 138.614 166.256 138.337Z"></path><path id="vector_9" fill="#6596e1" d="M136.436 63.843C136.757 63.415 136.011 62.989 135.742 63.415C134.894 64.756 132.108 68.973 131.573 69.774C131.36 70.042 131.045 70.414 131.146 70.79C131.365 71.608 134.846 81.807 135.746 84.684C135.911 85.217 136.708 84.951 136.546 84.47C135.072 80.048 132.119 70.941 132.004 70.683C133.283 68.706 136.276 64.11 136.436 63.843Z"></path><path id="vector_10" fill="#6596e1" d="M163.9 88.1C157.43 98.712 159.991 94.632 159.358 95.582C159.305 95.674 159.29 95.7832 159.316 95.8862C159.342 95.9892 159.407 96.0779 159.498 96.1336C159.588 96.1892 159.697 96.2073 159.801 96.1841C159.904 96.1608 159.995 96.098 160.053 96.009C161.59 93.549 162.42 91.987 164.541 88.635C164.967 87.961 165.148 89.389 160.053 74.687C159.887 74.208 159.091 74.42 159.253 74.901C159.932 76.566 163.586 87.388 163.9 88.1Z"></path><path id="vector_11" fill="#6596e1" d="M137.131 88.1C136.757 88.474 137.34 89.111 137.719 88.688C138.299 88.04 154.713 69.503 154.766 69.45C155.14 69.076 154.557 68.439 154.178 68.862C154.088 68.966 137.374 87.861 137.131 88.1Z"></path><path id="vector_12" fill="#6596e1" d="M157.385 75.332V73.462C157.38 73.3522 157.332 73.2487 157.253 73.1728C157.173 73.097 157.067 73.0547 156.958 73.0547C156.848 73.0547 156.742 73.097 156.662 73.1728C156.583 73.2487 156.535 73.3522 156.53 73.462V75.332C156.535 75.4418 156.583 75.5454 156.662 75.6212C156.742 75.697 156.848 75.7393 156.958 75.7393C157.067 75.7393 157.173 75.697 157.253 75.6212C157.332 75.5454 157.38 75.4418 157.385 75.332Z"></path><path id="vector_13" fill="#6596e1" d="M157.224 94.784C157.238 94.25 156.424 94.25 156.369 94.784C156.361 95.2075 156.267 95.625 156.093 96.011C155.918 96.397 155.667 96.7434 155.354 97.029C154.972 97.394 155.561 97.984 155.942 97.616C156.727 96.8785 157.188 95.8603 157.224 94.784V94.784Z"></path><path id="vector_14" fill="#6596e1" d="M54.621 138.177C50.2715 140.286 45.5067 141.4 40.673 141.437C40.612 141.467 33.26 144.322 33.191 144.322C33.117 144.35 33.0525 144.398 33.0052 144.462C32.9579 144.525 32.9298 144.601 32.9242 144.679C32.9186 144.758 32.9358 144.837 32.9737 144.907C33.0116 144.976 33.0686 145.033 33.138 145.071C33.653 145.328 71.3 169.389 71.401 169.439C71.74 169.778 70.809 169.748 91.573 161.763C91.472 161.706 57.328 139.869 54.621 138.177Z"></path><path id="vector_15" fill="#6596e1" d="M98.227 127.649C98.2775 128.039 98.2775 128.435 98.227 128.825C97.907 131.409 96.227 132.562 94.219 132.245C91.395 131.732 89.913 128.94 88.819 127.382C87.9551 126.083 86.9514 124.882 85.826 123.802L71.558 129.351C78.686 133.94 110.679 154.385 110.704 154.402C113.677 153.223 125.918 148.466 129.036 147.251C124.983 144.772 111.257 135.941 98.227 127.649Z"></path><path id="vector_16" fill="#6596e1" d="M148.46 139.192C148.114 138.846 135.413 130.847 134.993 130.592C133.967 131.412 132.638 131.266 131.334 131.192C126.369 130.891 121.512 129.613 117.041 127.432C118.567 129.317 118.685 129.759 121.687 133.261C122.261 133.955 122.73 134.73 123.076 135.561C123.949 138.083 121.985 140.313 118.641 139.676C121.259 141.359 127.941 145.576 129.941 146.901C148.087 139.783 147.983 139.883 148.083 139.783C148.211 139.754 148.322 139.675 148.392 139.565C148.463 139.454 148.487 139.32 148.46 139.192Z"></path><path id="vector_17" fill="#6596e1" d="M70.707 129.679C68.516 130.534 66.324 131.39 64.186 132.245C61.5081 134.387 58.6054 136.231 55.529 137.745C55.81 137.917 88.078 158.438 92.654 161.438C94.316 160.783 109.407 154.893 109.824 154.738C102.6 150.086 108.054 153.5 70.707 129.679Z"></path><path id="vector_18" fill="#6596e1" d="M115.624 161.706C115.249 159.745 113.837 158.206 112.124 158.644C109.177 159.395 108.84 165.233 111.697 166.607C114.243 167.832 116.125 164.323 115.624 161.706Z"></path><path id="vector_19" fill="#6596e1" d="M124.648 158.252C124.438 156.043 122.937 154.275 121.099 154.743C118.152 155.494 117.815 161.332 120.672 162.706C122.584 163.625 124.976 161.714 124.648 158.252Z"></path><path id="vector_20" fill="#ffaaaa" d="M68.248 155.758C68.0269 155.925 67.8422 156.135 67.7054 156.376C67.5686 156.617 67.4826 156.883 67.4525 157.159C67.4224 157.434 67.449 157.713 67.5306 157.977C67.6122 158.242 67.7471 158.487 67.927 158.698C69.679 160.73 74.5 159.99 74.5 157.362C74.5 154.93 70.287 154.061 68.248 155.758Z"></path><path id="vector_21" fill="#000000" d="M49.17 143.841C49.597 144.109 49.97 144.429 50.399 144.696C50.826 145.017 51.254 144.269 50.826 144.002C50.398 143.735 50.026 143.414 49.597 143.147C49.17 142.826 48.742 143.574 49.17 143.841Z"></path><path id="vector_22" fill="#000000" d="M54.247 146.353C53.819 146.032 53.391 146.781 53.819 147.048C54.247 147.315 54.619 147.636 55.048 147.903C55.476 148.224 55.903 147.475 55.476 147.208C55.0455 146.954 54.6346 146.668 54.247 146.353V146.353Z"></path><path id="vector_23" fill="#000000" d="M87.272 151.27C87.806 149.77 88.357 148.229 88.872 146.727C89.038 146.248 88.242 145.982 88.072 146.513C87.518 148.235 86.915 149.887 86.255 151.59C86.2382 151.654 86.2366 151.722 86.2504 151.787C86.2641 151.852 86.2929 151.913 86.3344 151.965C86.3758 152.016 86.4288 152.058 86.4892 152.086C86.5496 152.114 86.6156 152.127 86.682 152.125H94.645C94.7548 152.12 94.8584 152.072 94.9342 151.993C95.0101 151.913 95.0523 151.807 95.0523 151.697C95.0523 151.588 95.0101 151.482 94.9342 151.402C94.8584 151.323 94.7548 151.275 94.645 151.27H87.272Z"></path><path id="vector_24" fill="#000000" d="M122.115 158.43C121.682 158.117 121.26 158.858 121.687 159.125C143.449 174.952 135.129 169.152 142.261 174.569C142.687 174.892 143.27 174.31 142.849 173.981C124.145 159.377 135.533 168.155 122.115 158.43Z"></path><path id="vector_25" fill="#000000" d="M113.03 162.438C112.605 162.061 112.019 162.647 112.442 163.026C116.588 166.739 125.321 172.673 125.321 175.21C125.321 176.725 122.991 177.537 121.58 178.043C120.403 178.465 119.28 178.951 118.107 179.379C117.626 179.592 117.835 180.385 118.32 180.179C121.95 178.647 125.005 178.095 125.909 176.225C126.087 175.834 126.165 175.405 126.137 174.976C126.109 174.547 125.975 174.132 125.748 173.767C124.799 172.422 123.686 171.202 122.435 170.133C120.359 168.217 116.7 165.7 113.03 162.438Z"></path><path id="vector_26" fill="#6596e1" d="M71.24 171.79V183.44C71.2453 183.55 71.2927 183.653 71.3723 183.729C71.4518 183.805 71.5576 183.847 71.6675 183.847C71.7774 183.847 71.8831 183.805 71.9627 183.729C72.0423 183.653 72.0897 183.55 72.095 183.44V171.79C72.0897 171.68 72.0423 171.577 71.9627 171.501C71.8831 171.425 71.7774 171.383 71.6675 171.383C71.5576 171.383 71.4518 171.425 71.3723 171.501C71.2927 171.577 71.2453 171.68 71.24 171.79V171.79Z"></path><path id="vector_27" fill="#000000" d="M36.344 51.712C36.344 48.581 32.186 47.3 29.344 49.574C27.375 51.232 26.887 54.232 27.313 56.789C20.19 55.6 13.775 60.782 14.808 67.9C15.025 69.4545 15.6731 70.9171 16.679 72.122C8.025 73.748 5.386 82.179 9.251 86.768C7.99712 87.4057 6.94254 88.3756 6.20238 89.5719C5.46221 90.7681 5.06493 92.1448 5.05389 93.5514C5.04285 94.9581 5.41847 96.3408 6.13977 97.5485C6.86106 98.7563 7.90029 99.7427 9.144 100.4C9.34255 98.6732 9.64577 96.96 10.052 95.27C12.175 86.647 15.582 81.187 21.381 75.177C23.246 73.2312 25.2852 71.4601 27.473 69.886C30.1712 67.9775 33.1971 66.581 36.4 65.766C36.327 64.206 36.344 64.032 36.344 51.712Z"></path><path id="vector_28" fill="#ffaaaa" d="M39.843 67.6C39.1727 66.8211 38.3988 66.1378 37.543 65.569C37.292 65.41 37.286 65.355 37.063 65.355C34.9791 65.7634 32.9637 66.4654 31.077 67.44C31.0159 67.475 30.9652 67.5255 30.9299 67.5865C30.8946 67.6474 30.876 67.7166 30.876 67.787C30.876 67.8574 30.8946 67.9266 30.9299 67.9875C30.9652 68.0484 31.0159 68.099 31.077 68.134C34.877 69.971 36.158 73.461 38.719 73.745C41.182 74.014 42.353 70.732 39.843 67.6Z"></path><g id="group_2"><path id="vector_29" fill="#ffc431" d="M72.575 123.824C72.6248 123.772 72.6618 123.71 72.683 123.641C72.6512 123.704 72.6151 123.766 72.575 123.824V123.824Z"></path><path id="vector_30" fill="#ffc431" d="M72.1 123.8C71.9 123.6 46.014 94.663 45.817 94.438C51.54 88.2059 57.5821 82.2747 63.919 76.668C64.019 76.58 65.595 75.184 65.896 74.958C57.055 66.45 45.696 63.608 37.039 65.339C37.1299 65.3372 37.2202 65.3555 37.3033 65.3925C37.3864 65.4295 37.4604 65.4843 37.52 65.553C37.7991 65.7315 38.0663 65.9279 38.32 66.141C42.653 69.608 41.68 74.055 38.747 73.729C36.119 73.437 35.171 70.151 31.105 68.118C31.0437 68.083 30.9927 68.0325 30.9572 67.9714C30.9218 67.9104 30.9031 67.8411 30.9031 67.7705C30.9031 67.6999 30.9218 67.6306 30.9572 67.5695C30.9927 67.5085 31.0437 67.4579 31.105 67.423C24.081 70.935 16.87 79.028 13.739 84.951C7.18299 97.429 6.51799 114.813 14.862 127.436C17.2735 131.008 20.3813 134.056 23.9993 136.397C27.6173 138.739 31.6709 140.326 35.917 141.063C42.729 142.237 51.26 140.742 60.071 135.077C64.1944 132.409 67.9343 129.191 71.187 125.512C71.472 125.186 72.418 124.062 72.575 123.824C72.5446 123.858 72.507 123.885 72.4649 123.903C72.4228 123.92 72.3773 123.928 72.3317 123.926C72.2862 123.924 72.2417 123.911 72.2016 123.889C72.1615 123.867 72.1267 123.837 72.1 123.8V123.8Z"></path></g><path id="vector_31" fill="#ffaaaa" d="M44.36 137.91C44.895 137.963 44.895 137.1 44.36 137.055C42.512 136.899 36.589 136.52 36.398 136.52C35.863 136.467 35.863 137.33 36.398 137.375C38.246 137.531 44.169 137.91 44.36 137.91Z"></path><path id="vector_32" fill="#ffaaaa" d="M36.291 52.353C35.6741 51.9054 34.9091 51.7114 34.1534 51.811C33.3978 51.9105 32.709 52.296 32.229 52.888C31.8377 53.3716 31.6026 53.9627 31.5549 54.5829C31.5072 55.2032 31.6492 55.8233 31.962 56.361C32.3047 56.9423 32.8375 57.3874 33.4705 57.6212C34.1035 57.855 34.7978 57.863 35.436 57.644C35.9729 57.4848 36.4538 57.1772 36.8236 56.7568C37.1934 56.3363 37.437 55.82 37.5263 55.2672C37.6156 54.7144 37.5471 54.1477 37.3285 53.6321C37.11 53.1166 36.7504 52.6732 36.291 52.353V52.353Z"></path><path id="vector_33" fill="#6596e1" d="M54.247 47.651C54.071 47.3308 53.7781 47.0909 53.4296 46.9814C53.081 46.8718 52.7036 46.9011 52.376 47.063C50.341 47.953 48.335 52.363 47.833 54.17H45.178C45.69 52.59 46.601 48.58 45.803 47.223C45.627 46.9031 45.3343 46.6634 44.986 46.5538C44.6376 46.4443 44.2605 46.4734 43.933 46.635C40.855 47.981 37.457 57.354 38.749 60.423C38.8513 60.7753 39.0878 61.0733 39.4076 61.253C39.7274 61.4327 40.1049 61.4798 40.459 61.384C41.4489 60.9642 42.2745 60.2324 42.81 59.3C43.7291 57.9828 44.4602 56.544 44.982 55.025H47.57C47.3105 55.8796 47.1304 56.7563 47.032 57.644C46.7901 58.743 46.8457 59.8866 47.193 60.957C47.2951 61.3094 47.5315 61.6077 47.8513 61.7876C48.1711 61.9676 48.5488 62.0147 48.903 61.919C52.041 61.093 56.01 50.648 54.247 47.651ZM40.673 60.316C40.4721 60.4738 40.228 60.567 39.973 60.583C39.8788 60.5753 39.7886 60.5411 39.7131 60.4843C39.6375 60.4275 39.5796 60.3504 39.546 60.262C38.161 58.012 40.968 49.724 43.607 47.651C43.963 47.384 44.536 47.066 44.783 47.437C45.866 48.52 44.848 52.547 44.318 54.17H42.757C42.6472 54.1753 42.5437 54.2227 42.4678 54.3022C42.392 54.3818 42.3497 54.4876 42.3497 54.5975C42.3497 54.7074 42.392 54.8131 42.4678 54.8927C42.5437 54.9723 42.6472 55.0197 42.757 55.025H44.072C43.464 56.61 42.106 59.4 40.673 60.316ZM49.223 60.904C49.0238 61.0607 48.7819 61.1538 48.529 61.171C48.4346 61.1635 48.3442 61.1294 48.2685 61.0725C48.1927 61.0157 48.1346 60.9385 48.101 60.85C47.315 59.573 48.014 56.469 48.426 55.025H50.4C50.5098 55.0197 50.6134 54.9723 50.6892 54.8927C50.765 54.8131 50.8073 54.7074 50.8073 54.5975C50.8073 54.4876 50.765 54.3818 50.6892 54.3022C50.6134 54.2227 50.5098 54.1753 50.4 54.17H48.7C49.317 52.505 51.22 48.214 52.966 47.864C53.045 47.8369 53.1309 47.8381 53.209 47.8675C53.2871 47.8969 53.3525 47.9526 53.394 48.025C55.058 49.691 52.124 59.038 49.223 60.9V60.904Z"></path><path id="vector_34" fill="#ffaaaa" d="M138.36 124.229C138.36 122.303 133.966 119.981 130.077 117.389C122.827 112.557 120.139 110.415 111.961 107.556C108.59 106.397 105.144 105.468 101.647 104.777C97.585 103.954 86.747 102.959 82.93 103.305C77.165 117.718 76.264 118.286 76.25 118.322C79.0294 118.907 81.644 120.103 83.905 121.822C90.014 126.606 90.093 131.389 94.38 132.136C96.28 132.468 98.057 131.38 98.387 128.716C98.661 126.507 97.238 123.86 96.143 121.983C103.5 128.5 111.95 136.942 118 139.3C121.633 140.716 124.315 138.151 123.29 135.452C122.548 133.498 120.79 131.985 117.198 127.543C121.701 129.609 126.529 130.875 131.466 131.284C132.768 131.447 134.086 131.165 135.207 130.484C135.261 130.43 135.314 130.43 135.368 130.377C135.858 129.918 136.166 129.298 136.235 128.63C136.304 127.962 136.129 127.292 135.742 126.743C136.336 126.779 136.928 126.649 137.452 126.369C137.75 126.1 137.986 125.769 138.143 125.399C138.299 125.03 138.374 124.63 138.36 124.229V124.229Z"></path><path id="vector_35" fill="#ffaaaa" d="M120.832 120.7C120.778 120.682 120.721 120.675 120.665 120.679C120.608 120.684 120.553 120.7 120.503 120.727C120.452 120.753 120.408 120.79 120.373 120.835C120.338 120.879 120.312 120.931 120.297 120.986C120.282 121.04 120.279 121.098 120.288 121.154C120.296 121.21 120.316 121.264 120.346 121.312C120.376 121.361 120.416 121.402 120.462 121.434C120.509 121.467 120.562 121.489 120.618 121.5C124.568 122.707 127.155 123.662 131.418 125.187C132.46 125.489 133.438 125.978 134.304 126.63C134.678 127.004 135.319 126.416 134.892 126.042C134.838 125.989 134.785 125.989 134.731 125.935C133.896 125.296 132.955 124.808 131.952 124.492C128.489 123.152 123.462 121.489 120.832 120.7Z"></path><path id="vector_36" fill="#ffaaaa" d="M108.274 118.03C107.9 117.656 107.316 118.24 107.686 118.618C108.733 119.686 111.978 123.2 112.286 123.428C112.66 123.802 113.244 123.218 112.874 122.84C111.875 121.826 108.524 118.218 108.274 118.03Z"></path><path id="vector_37" fill="#ffaaaa" d="M116.61 119.152C116.979 119.532 117.572 118.939 117.198 118.565C116.29 117.549 115.381 116.587 114.473 115.572C114.099 115.198 113.511 115.786 113.885 116.16C114.793 117.175 115.688 118.2 116.61 119.152Z"></path><path id="vector_38" fill="#ffaaaa" d="M117.626 78.325C116.617 76.7352 115.219 75.4293 113.564 74.531C109.957 72.385 100.605 66.075 92.99 63.682C85.29 61.33 79.431 64.168 72.737 69.347C66.6562 74.179 60.8237 79.3155 55.262 84.737C50.032 89.879 39.118 101.448 35.751 105.13C35.7054 105.163 35.6672 105.205 35.6391 105.254C35.6109 105.303 35.5933 105.357 35.5875 105.413C35.5817 105.469 35.5878 105.526 35.6054 105.579C35.623 105.633 35.6516 105.682 35.6895 105.723C35.7274 105.765 35.7737 105.798 35.8253 105.821C35.8769 105.843 35.9327 105.855 35.989 105.854C36.0453 105.854 36.1008 105.841 36.152 105.818C36.2032 105.794 36.2489 105.76 36.286 105.718C39.621 102.25 42.925 98.655 46.299 95.175C46.388 95.275 71.687 123.501 72.042 123.855C72.0864 123.896 72.1389 123.927 72.1961 123.947C72.2532 123.967 72.3139 123.975 72.3742 123.97C72.4345 123.965 72.4931 123.947 72.5462 123.918C72.5994 123.889 72.646 123.85 72.683 123.802C78.163 116.496 83.731 103.936 85.776 92.002C86.5151 95.8315 87.4784 99.6144 88.661 103.331C89.647 106.117 92.49 107.472 94.593 104.667C95.793 102.667 95.82 98.36 95.769 96.01C95.652 90.61 94.714 90.451 98.013 100.82C98.3192 101.891 98.8665 102.878 99.613 103.705C99.9461 104.086 100.359 104.388 100.823 104.591C101.287 104.793 101.79 104.89 102.296 104.874C102.802 104.859 103.298 104.732 103.749 104.502C104.199 104.272 104.594 103.945 104.903 103.545C106.27 101.495 105.493 96.773 105.17 93.873C107.539 96.637 111.878 101.494 115.163 100.018C115.588 99.7916 115.943 99.4524 116.188 99.0377C116.433 98.6229 116.56 98.1487 116.553 97.667C116.529 96.5178 116.256 95.3875 115.753 94.354C114.83 92.172 113.478 88.654 110.142 81.854C111.114 82.3714 112.113 82.8351 113.135 83.243C117.059 84.331 119.145 81.026 117.626 78.325Z"></path><path id="vector_39" fill="#ffaaaa" d="M104.8 90.349C104.285 84.849 103.6 79.388 102.556 73.996C102.456 73.461 101.65 73.675 101.756 74.21C102.797 79.549 103.437 84.954 103.947 90.349C104 90.883 104.85 90.883 104.8 90.349Z"></path><path id="vector_40" fill="#ffaaaa" d="M93.685 83.4C93.797 83.934 94.598 83.72 94.485 83.187C93.923 80.509 93.067 77.887 92.294 75.224C92.283 75.1682 92.2607 75.1153 92.2284 75.0685C92.1962 75.0217 92.1546 74.982 92.1064 74.952C92.0582 74.9219 92.0043 74.902 91.948 74.8936C91.8918 74.8853 91.8345 74.8885 91.7796 74.9032C91.7246 74.9179 91.6733 74.9437 91.6288 74.979C91.5843 75.0144 91.5475 75.0585 91.5207 75.1086C91.4939 75.1588 91.4778 75.2139 91.4732 75.2706C91.4686 75.3272 91.4757 75.3842 91.494 75.438C92.267 78.1 93.123 80.724 93.685 83.4Z"></path><path id="vector_41" fill="#000000" d="M76.108 139.685C76.0907 139.622 76.061 139.562 76.0207 139.51C75.9804 139.458 75.9302 139.415 75.8731 139.382C75.816 139.35 75.753 139.329 75.6878 139.321C75.6226 139.313 75.5564 139.318 75.493 139.335L71.426 140.454L66.965 137.335L70.053 136.435C70.1805 136.398 70.2879 136.311 70.3516 136.195C70.4154 136.078 70.4303 135.941 70.393 135.814C70.3558 135.687 70.2694 135.579 70.1529 135.515C70.0365 135.452 69.8995 135.437 69.772 135.474L65.683 136.666C65.5923 136.692 65.5108 136.744 65.4481 136.814C65.3854 136.885 65.344 136.972 65.3287 137.065C65.3134 137.159 65.3249 137.254 65.3618 137.341C65.3986 137.428 65.4594 137.503 65.537 137.557C71.484 141.716 71.137 141.567 71.465 141.479L75.759 140.299C75.8866 140.264 75.995 140.179 76.0605 140.064C76.1259 139.949 76.143 139.813 76.108 139.685Z"></path></g></g><g id="line"><g id="group_3"><path id="vector_42" fill="#000000" d="M44.36 137.108C44.26 137.101 36.666 136.574 36.398 136.574C35.863 136.52 35.863 137.384 36.398 137.429C38.246 137.584 44.169 137.963 44.36 137.963C44.4698 137.958 44.5734 137.91 44.6492 137.831C44.725 137.751 44.7673 137.645 44.7673 137.535C44.7673 137.426 44.725 137.32 44.6492 137.24C44.5734 137.161 44.4698 137.113 44.36 137.108V137.108Z"></path><path id="vector_43" fill="#000000" d="M52.376 47.063C50.343 47.952 48.5 52.055 47.839 54.17H45.182C46.206 50.986 46.964 45.236 43.933 46.635C40.875 47.973 37.433 57.297 38.749 60.423C38.8513 60.7752 39.0877 61.0733 39.4075 61.253C39.7273 61.4327 40.1049 61.4798 40.459 61.384C41.4488 60.9642 42.2744 60.2323 42.81 59.3C43.7291 57.9828 44.4601 56.544 44.982 55.025H47.56C47.307 55.8807 47.1303 56.7571 47.032 57.644C46.7901 58.743 46.8456 59.8866 47.193 60.957C47.2951 61.3094 47.5314 61.6077 47.8513 61.7876C48.1711 61.9676 48.5487 62.0147 48.903 61.919C49.8923 61.4983 50.7176 60.7667 51.254 59.835C53.0641 57.1079 54.2166 53.998 54.621 50.75C54.886 48.358 54.144 46.247 52.376 47.063ZM40.676 60.316C40.254 60.632 39.79 60.734 39.554 60.262C38.026 57.779 41.688 47.812 44.363 47.276C45.233 46.987 45.835 49.55 44.33 54.17H42.76C42.6502 54.1753 42.5466 54.2226 42.4708 54.3022C42.3949 54.3818 42.3526 54.4875 42.3526 54.5975C42.3526 54.7074 42.3949 54.8131 42.4708 54.8927C42.5466 54.9723 42.6502 55.0197 42.76 55.025H44.075C43.464 56.61 42.106 59.4 40.673 60.316H40.676ZM49.226 60.904C48.806 61.219 48.34 61.323 48.104 60.85C47.324 59.582 48.015 56.459 48.42 55.025H50.4C50.5098 55.0197 50.6133 54.9723 50.6891 54.8927C50.765 54.8131 50.8073 54.7074 50.8073 54.5975C50.8073 54.4875 50.765 54.3818 50.6891 54.3022C50.6133 54.2226 50.5098 54.1753 50.4 54.17H48.72C49.398 52.397 51.21 48.215 52.965 47.864C53.0439 47.8369 53.1298 47.8381 53.2079 47.8675C53.286 47.8969 53.3515 47.9526 53.393 48.025C55.058 49.691 52.124 59.038 49.223 60.9L49.226 60.904Z"></path><path id="vector_44" fill="#000000" d="M166.256 138.337C165.388 137.768 155.314 131.028 153.365 129.737V124.152C153.365 123.564 152.51 123.564 152.51 124.099V129.169C151.034 128.188 140.337 121.026 140.017 120.812C140.01 120.812 140.003 120.811 139.996 120.808C139.99 120.806 139.984 120.802 139.979 120.797C139.974 120.792 139.97 120.786 139.967 120.78C139.964 120.773 139.963 120.766 139.963 120.759C139.536 120.438 139.114 121.177 139.536 121.453C139.636 121.519 165.828 138.935 165.828 139.035C166.256 139.353 166.677 138.614 166.256 138.337Z"></path><path id="vector_45" fill="#000000" d="M173.363 13.717C172.976 15.436 169.763 28.248 169.622 28.893C169.503 29.425 170.304 29.639 170.422 29.107C170.809 27.387 174.022 14.575 174.163 13.93C174.284 13.4 173.483 13.185 173.363 13.717Z"></path><path id="vector_46" fill="#000000" d="M189.288 18.259C187.471 19.809 173.688 31.352 172.988 31.939C172.56 32.26 173.148 32.848 173.576 32.527C175.393 30.977 189.176 19.435 189.876 18.847C190.3 18.526 189.715 17.938 189.288 18.259Z"></path><path id="vector_47" fill="#000000" d="M178.333 35.039C177.797 35.139 178.013 35.95 178.547 35.839C180.312 35.476 193.672 32.804 194.311 32.686C194.847 32.586 194.631 31.775 194.097 31.886C193.283 32.054 179.611 34.8 178.333 35.039Z"></path><path id="vector_48" fill="#000000" d="M194.952 58.659C194.899 58.338 194.685 58.232 194.472 58.071C193.983 57.8 153.672 32.023 148.828 28.929C148.249 28.559 148.448 28.621 147.937 28.613C145.932 28.584 136.968 28.573 127.219 28.573C126.719 28.573 126.497 28.816 126.497 29.054C126.497 44.276 126.426 104.046 126.764 104.296C127.464 104.818 132.375 107.877 134.032 108.896C163.69 127.796 170.886 132.437 172.862 133.539C173.662 133.986 173.607 133.852 173.842 133.852C189.166 133.852 193.227 133.881 194.336 133.842C194.656 133.831 194.952 133.824 194.952 133.478C194.952 108.539 194.966 58.76 194.952 58.659ZM172.882 132.673C172.782 132.606 127.464 103.813 127.352 103.762V29.855C127.452 29.92 172.728 58.72 172.829 58.766C172.854 59.044 172.882 78.05 172.882 132.673ZM173.426 58.092C173.326 58.016 128.503 29.497 128.402 29.433H148.033C148.033 29.433 189.764 55.933 193.077 58.071C186.892 58.071 173.5 58.068 173.426 58.092V58.092ZM194.151 132.992H173.737V58.926H194.151V132.992Z"></path><path id="vector_49" fill="#000000" d="M136.436 63.843C136.757 63.415 136.011 62.989 135.742 63.415C134.894 64.756 132.108 68.973 131.573 69.774C131.36 70.042 131.045 70.414 131.146 70.79C131.365 71.608 134.846 81.807 135.746 84.684C135.911 85.217 136.708 84.951 136.546 84.47C135.072 80.048 132.119 70.941 132.004 70.683C133.283 68.706 136.276 64.11 136.436 63.843Z"></path><path id="vector_50" fill="#000000" d="M160.057 74.637C159.891 74.158 159.09 74.372 159.257 74.851C159.775 76.351 163.639 87.57 163.857 88.051C157.386 98.662 159.947 94.583 159.314 95.532C159.257 95.6242 159.239 95.7351 159.264 95.8404C159.29 95.9457 159.355 96.0367 159.448 96.0935C159.54 96.1502 159.651 96.1681 159.756 96.143C159.861 96.118 159.952 96.0522 160.009 95.96C161.547 93.5 162.376 91.938 164.498 88.585C164.611 88.4464 164.685 88.2804 164.712 88.104C164.651 87.7529 164.543 87.4116 164.391 87.089C163.5 84.223 162.857 82.718 160.057 74.637Z"></path><path id="vector_51" fill="#000000" d="M154.178 68.919C153.997 69.109 137.138 88.15 137.131 88.158C136.757 88.532 137.34 89.169 137.719 88.745C138.299 88.097 154.713 69.561 154.766 69.507C155.14 69.133 154.544 68.537 154.178 68.919Z"></path><path id="vector_52" fill="#000000" d="M156.53 73.462V75.332C156.535 75.4418 156.583 75.5453 156.662 75.6212C156.742 75.697 156.848 75.7393 156.957 75.7393C157.067 75.7393 157.173 75.697 157.253 75.6212C157.332 75.5453 157.38 75.4418 157.385 75.332V73.462C157.331 72.927 156.53 72.927 156.53 73.462Z"></path><path id="vector_53" fill="#000000" d="M156.369 94.784C156.361 95.2075 156.267 95.625 156.093 96.011C155.918 96.397 155.667 96.7433 155.354 97.029C154.972 97.394 155.561 97.984 155.942 97.616C156.335 97.2544 156.651 96.8172 156.872 96.3306C157.092 95.844 157.212 95.318 157.224 94.784C157.219 94.6742 157.171 94.5706 157.092 94.4948C157.012 94.4189 156.906 94.3766 156.796 94.3766C156.687 94.3766 156.581 94.4189 156.501 94.4948C156.422 94.5706 156.374 94.6742 156.369 94.784Z"></path><path id="vector_54" fill="#000000" d="M50.4 144.75C50.827 145.071 51.255 144.322 50.827 144.055C50.399 143.788 50.027 143.467 49.598 143.2C49.171 142.88 48.743 143.628 49.171 143.9C49.599 144.172 49.971 144.429 50.4 144.75Z"></path><path id="vector_55" fill="#000000" d="M55 147.956C55.427 148.277 55.855 147.529 55.427 147.262C54.999 146.995 54.627 146.674 54.198 146.407C53.771 146.086 53.343 146.834 53.771 147.101C54.2012 147.355 54.612 147.641 55 147.956Z"></path><path id="vector_56" fill="#000000" d="M86.684 152.125H94.647C94.7568 152.12 94.8603 152.072 94.9362 151.993C95.012 151.913 95.0543 151.807 95.0543 151.697C95.0543 151.588 95.012 151.482 94.9362 151.402C94.8603 151.323 94.7568 151.275 94.647 151.27H87.272C87.806 149.77 88.357 148.229 88.872 146.727C89.038 146.248 88.242 145.982 88.072 146.513C87.518 148.235 86.896 149.88 86.255 151.59C86.243 151.654 86.245 151.72 86.2608 151.783C86.2766 151.846 86.3059 151.905 86.3466 151.956C86.3874 152.007 86.4386 152.048 86.4968 152.077C86.5551 152.107 86.6189 152.123 86.684 152.125Z"></path><path id="vector_57" fill="#000000" d="M75.462 139.406C74.129 139.779 72.796 140.206 71.462 140.579C69.908 139.548 68.076 138.406 66.585 137.379C67.585 137.079 69.18 136.619 69.957 136.36C70.0127 136.349 70.0657 136.327 70.1125 136.294C70.1593 136.262 70.1989 136.221 70.229 136.172C70.2591 136.124 70.2789 136.07 70.2873 136.014C70.2957 135.958 70.2925 135.901 70.2778 135.846C70.2631 135.791 70.2373 135.739 70.2019 135.695C70.1666 135.65 70.1225 135.614 70.0723 135.587C70.0222 135.56 69.9671 135.544 69.9104 135.539C69.8538 135.535 69.7968 135.542 69.743 135.56C68.354 135.988 66.957 136.34 65.575 136.789C64.944 136.989 65.337 137.595 65.78 137.884C67.473 138.984 69.33 140.149 71.014 141.25C71.159 141.478 71.308 141.439 71.453 141.439C72.842 141.011 74.239 140.611 75.675 140.21C75.7278 140.196 75.7773 140.172 75.8207 140.139C75.8641 140.106 75.9006 140.064 75.928 140.017C75.9555 139.97 75.9733 139.918 75.9806 139.863C75.9879 139.809 75.9845 139.754 75.9705 139.702C75.9565 139.649 75.9322 139.599 75.8991 139.556C75.866 139.512 75.8246 139.476 75.7774 139.448C75.7302 139.421 75.678 139.403 75.6239 139.396C75.5698 139.389 75.5148 139.392 75.462 139.406Z"></path><path id="vector_58" fill="#000000" d="M148.112 139.037C147.428 138.581 136.681 131.769 134.597 130.486C134.331 130.678 134.044 130.839 133.742 130.967C136.634 132.662 145.682 138.241 147.071 139.353C145.729 139.928 129.692 146.168 129.115 146.392C129.015 146.335 125.476 144.068 125.374 144.002C111.448 135.049 112.237 135.666 97.96 126.581C98.0568 126.95 98.1283 127.325 98.174 127.703C98.392 127.842 127.691 146.438 128.153 146.765C125.366 147.848 110.332 153.716 109.924 153.87C109.824 153.81 72.724 130.136 72.469 129.98C75.444 128.812 85.135 125.012 86.845 124.37L86.204 123.729C77.835 126.984 71.353 129.411 64.133 132.299C63.278 132.94 62.423 133.581 61.514 134.222C71.666 130.275 66.469 132.289 71.504 130.3C72.716 131.089 108.934 154.169 108.934 154.169C105.953 155.34 94.302 159.842 91.627 160.89C90.427 160.108 56.384 138.39 55.427 137.803C55.107 137.963 54.839 138.07 54.519 138.23C55.319 138.765 56.119 139.246 56.977 139.78C58.607 140.792 77.418 152.719 90.647 161.252C88.724 162.03 97.661 158.505 71.673 168.637C71.113 168.297 35.089 145.409 34.265 144.75C35.19 144.35 42.588 141.457 43.243 141.223C42.3733 141.312 41.499 141.348 40.625 141.33C40.463 141.41 35.034 143.488 33.464 144.109C32.876 144.403 32.822 144.75 32.929 144.968C32.929 163.109 32.789 161.833 33.196 162.118C33.296 162.185 68.576 184.574 71.483 186.418C71.5419 186.455 71.6089 186.478 71.6783 186.485C71.7478 186.492 71.8179 186.482 71.883 186.457C76.276 184.752 148.101 156.87 148.198 156.773C148.289 156.743 148.368 156.686 148.426 156.61C148.483 156.533 148.516 156.441 148.519 156.345V139.82C148.48 139.519 148.336 139.242 148.112 139.037ZM147.653 156.079C147.074 156.278 146.506 156.511 145.953 156.774C142.619 158.107 143.428 157.73 71.779 185.631C68.558 183.671 33.886 161.469 33.779 161.423V145.532C33.879 145.597 71.246 169.442 71.347 169.492C71.447 169.592 71.673 169.648 71.775 169.546C72.147 169.391 147.644 140.011 147.653 140.007V156.079Z"></path><path id="vector_59" fill="#000000" d="M115.328 160.568C115.127 159.918 114.696 159.364 114.115 159.01C113.535 158.656 112.845 158.526 112.175 158.644C109.234 159.379 108.885 165.229 111.747 166.607C114.169 167.769 116.919 164.422 115.328 160.568ZM112.389 165.968C110.289 165.314 110.03 160.759 112.121 159.609C112.345 159.515 112.586 159.466 112.829 159.466C113.073 159.466 113.313 159.515 113.537 159.61C113.762 159.704 113.965 159.843 114.134 160.017C114.304 160.191 114.437 160.398 114.526 160.624C115.835 162.978 114.484 166.62 112.389 165.965V165.968Z"></path><path id="vector_60" fill="#000000" d="M124.2 156.667C122.7 153.206 118.642 154.44 118.642 158.805C118.642 162.917 122.29 164.293 123.986 161.423C124.387 160.701 124.615 159.895 124.652 159.07C124.689 158.245 124.534 157.422 124.2 156.667V156.667ZM121.261 162.067C119.181 161.461 118.887 156.867 120.993 155.708C121.217 155.613 121.458 155.565 121.701 155.565C121.945 155.565 122.185 155.614 122.409 155.708C122.634 155.803 122.836 155.942 123.006 156.116C123.176 156.29 123.309 156.496 123.398 156.723C124.751 159.127 123.184 162.642 121.26 162.064L121.261 162.067Z"></path><path id="vector_61" fill="#000000" d="M122.115 158.43C121.682 158.117 121.26 158.858 121.687 159.125C125.154 161.646 130.558 165.276 138.2 171.363C139.538 172.429 140.865 173.509 142.261 174.569C142.687 174.892 143.27 174.31 142.849 173.981C125.412 160.366 129.523 163.8 122.115 158.43Z"></path><path id="vector_62" fill="#000000" d="M118.481 166.874C117.007 165.71 114.544 163.735 113.081 162.438C112.656 162.061 112.07 162.647 112.493 163.026C116.152 166.303 120.718 169.237 124.193 173.073C125.539 174.557 125.947 175.705 124.246 176.867C123.427 177.369 122.547 177.764 121.628 178.043C120.45 178.465 119.328 178.951 118.154 179.379C117.673 179.592 117.883 180.385 118.368 180.179C122.317 178.512 125.062 178.079 125.956 176.225C126.776 174.525 125.401 173.057 124.193 171.789C122.433 169.99 120.522 168.345 118.481 166.874V166.874Z"></path><path id="vector_63" fill="#000000" d="M71.614 159.873C75.268 159.416 75.484 155.873 72.095 155.064C71.43 154.893 70.7355 154.872 70.0612 155.001C69.387 155.131 68.7497 155.407 68.195 155.812C67.973 155.978 67.7875 156.188 67.6502 156.429C67.5128 156.67 67.4264 156.936 67.3964 157.212C67.3664 157.488 67.3934 157.767 67.4757 158.031C67.558 158.296 67.6939 158.541 67.875 158.751C68.3796 159.198 68.9753 159.53 69.621 159.724C70.2666 159.917 70.9467 159.968 71.614 159.873ZM68.622 156.56C70.074 155.053 73.71 155.727 73.752 157.415C73.787 158.821 70.752 159.774 68.889 158.43C68.7277 158.342 68.5891 158.218 68.4844 158.068C68.3796 157.917 68.3115 157.744 68.2856 157.562C68.2596 157.38 68.2765 157.195 68.335 157.021C68.3934 156.847 68.4917 156.689 68.622 156.56V156.56Z"></path><path id="vector_64" fill="#000000" d="M71.24 171.79V183.44C71.2453 183.55 71.2927 183.653 71.3723 183.729C71.4518 183.805 71.5576 183.847 71.6675 183.847C71.7774 183.847 71.8831 183.805 71.9627 183.729C72.0423 183.653 72.0897 183.55 72.095 183.44V171.79C72.0897 171.68 72.0423 171.577 71.9627 171.501C71.8831 171.425 71.7774 171.383 71.6675 171.383C71.5576 171.383 71.4518 171.425 71.3723 171.501C71.2927 171.577 71.2453 171.68 71.24 171.79V171.79Z"></path><path id="vector_65" fill="#000000" d="M112.282 123.428C112.656 123.802 113.24 123.218 112.87 122.84C111.822 121.772 108.577 118.258 108.27 118.03C107.896 117.656 107.312 118.24 107.682 118.618C108.733 119.686 111.978 123.2 112.282 123.428Z"></path><path id="vector_66" fill="#000000" d="M116.61 119.152C116.979 119.532 117.572 118.939 117.198 118.565C116.29 117.549 115.381 116.587 114.473 115.572C114.099 115.198 113.511 115.786 113.885 116.16C114.793 117.175 115.688 118.2 116.61 119.152Z"></path><path id="vector_67" fill="#000000" d="M137.078 122.092C134.867 120.401 132.566 118.832 130.184 117.392C122.766 112.537 120.584 110.539 112.068 107.559C108.858 106.451 105.578 105.556 102.25 104.881C102.778 104.907 103.303 104.799 103.777 104.566C104.252 104.334 104.659 103.984 104.961 103.551C106.327 101.501 105.55 96.779 105.228 93.879C107.196 96.179 110.266 99.546 112.976 100.179C114.898 100.632 116.494 99.761 116.61 97.668C116.586 96.5188 116.313 95.3885 115.81 94.355C114.887 92.173 113.534 88.655 110.199 81.855C111.577 82.467 113.836 84.136 116.13 83.191C118.941 82.137 119.299 78.319 113.458 74.691C108.549 71.5039 103.464 68.5956 98.228 65.98C86.186 60.336 80.437 62.337 66.028 74.966C56.862 66.172 44.846 63.418 36.348 65.523V57.231C36.7404 56.957 37.0618 56.5933 37.2854 56.1701C37.5091 55.7469 37.6285 55.2765 37.6338 54.7979C37.639 54.3193 37.53 53.8463 37.3158 53.4183C37.1016 52.9903 36.7883 52.6196 36.402 52.337V51.658C36.402 48.552 32.274 47.223 29.402 49.521C27.434 51.178 26.945 54.178 27.372 56.735C20.249 55.548 13.833 60.727 14.872 67.851C15.0889 69.405 15.7367 70.8673 16.742 72.072C8.07999 73.695 5.43299 82.118 9.29999 86.715C8.39436 87.1562 7.5853 87.7728 6.91969 88.529C6.25408 89.2853 5.74515 90.166 5.4224 91.1203C5.09964 92.0747 4.96948 93.0835 5.03944 94.0885C5.10941 95.0935 5.37811 96.0746 5.82999 96.975C6.6073 98.3598 7.74844 99.5058 9.12999 100.289C4.69999 133.8 38.759 157.045 68.408 128.558C71.517 125.566 74.1667 122.131 76.271 118.364C81.4565 119.617 85.955 122.83 88.822 127.329C90.065 129.104 91.428 131.684 94.222 132.192C97.363 132.715 98.889 129.527 98.016 126.474C97.5445 124.91 96.8615 123.417 95.986 122.038C103.125 128.361 111.921 137.106 117.842 139.353C121.373 140.765 124.191 138.253 123.133 135.505C122.402 133.556 120.344 131.677 117.041 127.596C121.548 129.651 126.374 130.917 131.309 131.337C135.974 131.611 136.788 128.737 135.584 126.794C136.178 126.831 136.77 126.701 137.294 126.42C138.7 125.442 139.128 123.8 137.078 122.092ZM37.008 66.245C38.771 67.367 40.481 69.184 40.428 71.375C40.4605 71.6125 40.4337 71.8543 40.3501 72.0789C40.2664 72.3035 40.1285 72.5039 39.9486 72.6623C39.7688 72.8207 39.5525 72.9322 39.3191 72.9867C39.0857 73.0413 38.8424 73.0372 38.611 72.975C36.724 72.526 35.569 69.942 32.252 67.952C33.7528 67.1705 35.3528 66.5963 37.008 66.245V66.245ZM36.772 54.811C36.7763 55.2538 36.6435 55.6871 36.3917 56.0513C36.1399 56.4155 35.7814 56.6929 35.3656 56.8452C34.9499 56.9976 34.4971 57.0174 34.0696 56.9021C33.642 56.7867 33.2607 56.5418 32.978 56.201C32.6867 55.8559 32.5096 55.429 32.4713 54.979C32.4329 54.5291 32.5352 54.0783 32.764 53.689C33.0059 53.3133 33.3529 53.0168 33.7617 52.8364C34.1705 52.656 34.6234 52.5995 35.064 52.674C35.5534 52.7748 35.9921 53.0436 36.3041 53.4339C36.616 53.8242 36.7816 54.3114 36.772 54.811ZM9.23299 99.376C8.11942 98.7469 7.20546 97.817 6.59569 96.6927C5.98591 95.5685 5.70496 94.2952 5.78499 93.0188C5.86502 91.7423 6.30279 90.5141 7.0482 89.4748C7.79362 88.4355 8.81657 87.6271 9.99999 87.142C10.0557 87.1127 10.1039 87.0709 10.1407 87.0199C10.1776 86.9689 10.2022 86.9101 10.2125 86.848C10.2229 86.786 10.2188 86.7223 10.2005 86.6621C10.1821 86.6019 10.1502 86.5468 10.107 86.501C9.29705 85.5913 8.72248 84.497 8.4336 83.3138C8.14472 82.1305 8.15035 80.8945 8.44999 79.714C9.29599 76.4 12.437 73.373 17.428 72.66C17.748 72.607 18.016 72.233 17.748 71.965C16.7086 70.8984 15.9801 69.5683 15.6412 68.1181C15.3023 66.6679 15.3659 65.1527 15.825 63.736C17.102 59.452 21.987 56.503 27.635 57.59C27.7082 57.6041 27.7837 57.6 27.8549 57.5782C27.9262 57.5563 27.991 57.5173 28.0437 57.4646C28.0964 57.412 28.1353 57.3472 28.1572 57.2759C28.179 57.2047 28.1831 57.1292 28.169 57.056C26.369 48.04 35.544 47.542 35.544 51.605V51.916C35.0917 51.7692 34.6112 51.7309 34.1413 51.8043C33.6715 51.8777 33.2255 52.0607 32.8395 52.3384C32.4535 52.6162 32.1384 52.981 31.9195 53.4032C31.7007 53.8254 31.5844 54.2932 31.5799 54.7687C31.5755 55.2442 31.6831 55.7141 31.894 56.1403C32.1049 56.5665 32.4131 56.9371 32.7939 57.2221C33.1746 57.507 33.6171 57.6983 34.0855 57.7804C34.5539 57.8626 35.035 57.8333 35.49 57.695V65.752C29.957 67.352 25.407 70.819 21.382 74.958C14.1 82.643 11.082 88.534 9.23299 99.376ZM68.3 127.436C56.368 139.012 41.094 145.022 26.618 137C13.549 129.93 8.25099 115.512 9.83799 100.768C10.5075 94.1733 12.7429 87.834 16.358 82.278C20.008 76.969 25.437 71.378 31.321 68.278C34.645 70.006 35.774 72.508 37.694 73.449C41.077 75.149 43.755 70.195 38.268 65.927C47.801 64.427 58.609 68.81 65.357 75.536C62.092 78.343 58.435 81.736 55.315 84.736C50.376 89.592 38.506 102.191 35.703 105.257C35.6569 105.29 35.6183 105.332 35.5896 105.381C35.561 105.429 35.5431 105.484 35.537 105.54C35.5309 105.596 35.5368 105.653 35.5543 105.707C35.5718 105.761 35.6005 105.81 35.6386 105.852C35.6766 105.894 35.7231 105.927 35.7749 105.95C35.8268 105.972 35.8828 105.984 35.9394 105.983C35.9959 105.982 36.0517 105.97 36.103 105.946C36.1543 105.922 36.2 105.888 36.237 105.845C39.61 102.339 42.952 98.704 46.363 95.186C48.763 97.923 71.374 123.052 71.78 123.53C70.718 124.916 69.5548 126.222 68.3 127.436V127.436ZM72.361 122.947C71.613 122.092 47.687 95.485 46.924 94.57C54.719 86.1563 63.0942 78.2994 71.988 71.057C74.6531 68.7694 77.5984 66.8302 80.753 65.286C84.946 63.379 88.64 63.654 92.706 64.905C100.447 67.277 111.789 74.905 112.939 75.58C119.623 79.591 117.431 83.188 113.725 82.333C112.302 81.767 110.91 81.1247 109.556 80.409C109.182 80.195 108.808 80.623 108.969 80.997C110.826 84.563 115.169 93.944 115.702 96.28C115.843 96.7072 115.882 97.1614 115.818 97.6066C115.753 98.0518 115.585 98.4757 115.328 98.845C115.089 99.0682 114.795 99.2251 114.476 99.3001C114.158 99.3752 113.825 99.3658 113.511 99.273C110.637 98.717 106.888 94.373 104.961 92.059C104.64 91.685 104.212 92.112 104.266 92.486C104.632 94.858 104.864 97.2488 104.961 99.647C105.014 101.247 104.8 103.708 102.77 103.922C100.578 104.136 99.402 102.052 98.87 100.235C97.17 94.452 95.933 90.501 95.13 86.394C95.1043 86.2986 95.0448 86.2158 94.9625 86.161C94.8803 86.1063 94.781 86.0833 94.683 86.0964C94.5851 86.1095 94.4953 86.1578 94.4303 86.2322C94.3654 86.3067 94.3297 86.4022 94.33 86.501C94.811 91.631 95.613 96.868 94.811 101.945C94.7282 103.052 94.2547 104.094 93.475 104.884C93.092 105.192 92.6102 105.351 92.1189 105.332C91.6276 105.312 91.1601 105.115 90.803 104.777C89.676 103.791 89.329 102.126 88.185 98.097C87.4076 95.2828 86.7831 92.4286 86.314 89.547C86.261 89.173 85.566 89.12 85.514 89.547C83.246 103.771 77.743 115.837 72.362 122.947H72.361ZM98.066 100.823C98.546 102.423 99.558 104.104 101.132 104.652C99.239 104.279 97.038 103.908 95.151 103.666C95.491 102.516 95.6806 101.327 95.715 100.128C96.377 91.532 93.96 87.915 98.067 100.823H98.066ZM88.674 103.223C86.7601 103.155 84.8439 103.204 82.936 103.37C84.1692 99.6556 85.1357 95.858 85.828 92.006C86.5726 95.7936 87.523 99.5378 88.675 103.222L88.674 103.223ZM136.6 125.779C135.174 126.492 134.263 125.372 132.032 124.505C128.344 123.072 122.977 121.325 120.917 120.711C120.863 120.693 120.806 120.686 120.75 120.69C120.693 120.695 120.638 120.711 120.588 120.738C120.537 120.764 120.493 120.801 120.458 120.846C120.423 120.89 120.397 120.942 120.382 120.997C120.367 121.051 120.364 121.109 120.373 121.165C120.381 121.221 120.401 121.275 120.431 121.323C120.461 121.372 120.501 121.413 120.547 121.445C120.594 121.478 120.647 121.5 120.703 121.511C126.003 123.158 128.814 124.265 131.503 125.198C135.777 126.773 135.837 128.939 134.467 129.892C133.374 130.485 132.112 130.692 130.887 130.48C125.581 129.981 120.416 128.495 115.656 126.098C115.571 126.034 115.464 126.007 115.359 126.022C115.254 126.037 115.159 126.093 115.095 126.178C115.031 126.263 115.004 126.37 115.019 126.475C115.034 126.58 115.09 126.675 115.175 126.739C121.639 134.433 121.361 134.093 121.695 134.594C122.443 135.717 122.978 137.213 121.749 138.282C121.185 138.681 120.52 138.912 119.83 138.95C119.14 138.988 118.453 138.83 117.849 138.495C112.022 136.121 105.622 129.326 93.749 118.937C93.375 118.563 92.787 119.15 93.161 119.524C94.3578 120.847 95.3489 122.342 96.101 123.96C98.801 128.947 97.016 131.784 94.444 131.441C90.744 130.879 90.236 126.041 84.558 121.502C82.2803 119.612 79.592 118.28 76.708 117.614C79.0865 113.336 81.0781 108.854 82.659 104.222C84.7788 103.999 86.9131 103.95 89.041 104.073C90.355 106.607 93.16 107.041 94.741 104.527C101.301 105.308 107.746 106.862 113.941 109.157C117.931 110.622 121.706 112.617 125.164 115.089C134.596 121.377 137.353 122.73 137.508 124.281C137.519 124.592 137.438 124.899 137.277 125.165C137.116 125.431 136.881 125.645 136.6 125.779V125.779Z"></path><path id="vector_68" fill="#000000" d="M104.8 90.349C104.285 84.849 103.6 79.388 102.556 73.996C102.456 73.461 101.65 73.675 101.756 74.21C102.797 79.549 103.437 84.954 103.947 90.349C104 90.883 104.85 90.883 104.8 90.349Z"></path><path id="vector_69" fill="#000000" d="M93.685 83.4C93.797 83.934 94.598 83.72 94.485 83.187C93.923 80.509 93.067 77.887 92.294 75.224C92.283 75.1682 92.2607 75.1153 92.2284 75.0685C92.1962 75.0217 92.1546 74.982 92.1064 74.952C92.0582 74.9219 92.0043 74.902 91.948 74.8936C91.8918 74.8853 91.8345 74.8885 91.7796 74.9032C91.7246 74.9179 91.6733 74.9437 91.6288 74.979C91.5843 75.0144 91.5475 75.0585 91.5207 75.1086C91.4939 75.1588 91.4778 75.2139 91.4732 75.2706C91.4686 75.3272 91.4757 75.3842 91.494 75.438C92.267 78.1 93.123 80.724 93.685 83.4Z"></path></g></g></g></svg>