<svg xmlns="http://www.w3.org/2000/svg" viewBox="0 0 200 200" height="400" width="400"><g><path d="M128.267,128.087a13.5,13.5,0,0,1-1.858,2.105,6.228,6.228,0,0,1-2.208,1.481,3.884,3.884,0,0,1-3.769-.927c-.334.135-.358.128-1.685.7.237.109,6.1,2.8,7.078,3.248a32.735,32.735,0,0,1,9.75-3.681A35.912,35.912,0,0,0,128.267,128.087Z" fill="#b6dbff"></path><path d="M116.007,145.036a23.244,23.244,0,0,1,3.279-4.961l-11.038-2.228a41.786,41.786,0,0,0-4.154,4.344v23.384a11.443,11.443,0,0,0,3.825,2.242,13.636,13.636,0,0,0,7.861.087C111.706,161.841,112.808,151.613,116.007,145.036Z" fill="#b6dbff"></path><path d="M192.35,88.555a24.9,24.9,0,0,0-6.045-6.245c-6.245-4.486-11.9-5.69-19.472-7.549a.548.548,0,0,0-.433.092.48.48,0,0,0-.209.49c0,.1-.128-.467,2.232,8.382,8.448,3.492,12.755,13.258,13.479,22.3,6.909,2.269,13.046-2.335,13.086-8.773A15.27,15.27,0,0,0,192.35,88.555Z" fill="#000000"></path><path d="M179.746,126.469h-2.174c-1.919,4-4.346,7.53-8.3,9.417a30.02,30.02,0,0,1-19.743,1.74l-.023-.015a.3.3,0,0,1-.042,0c-5.056-1.342-7.859-3.575-13.893-6.6a32.753,32.753,0,0,0-9.75,3.681c.219.1,23.555,10.756,24.024,10.973.3.137.094.6-.226.533l-30.337-6.124a26.471,26.471,0,0,0-6.041,15.417c-.311,4.145.127,8.564,2.3,12.065,4.744,7.634,15.736,7.1,23.086,1.244,4.683-3.734,7.968-8.779,11.131-13.76a39.984,39.984,0,0,0,11.864-1.358,19.078,19.078,0,0,0,6.28-2.773c7.12-5.039,10.49-15.994,12.107-24.591C180.023,126.175,180.013,126.462,179.746,126.469Z" fill="#6596e1"></path><path d="M165.625,66.511a4.86,4.86,0,0,0-6.764-2.086.243.243,0,0,0-.034.03.289.289,0,0,1,.365.117,15.512,15.512,0,0,0,5.8,6.664.287.287,0,0,1,.093.392.351.351,0,0,0,.055-.054A4.816,4.816,0,0,0,165.625,66.511Z" fill="#000000"></path><path d="M181.9,106.021c-.767-9.422-5.325-19.32-14.134-22.561-17.83-6.558-32.616,6.883-38.243,24.8a116.987,116.987,0,0,0,20.1,4.842.226.226,0,0,1,.2.245c.028.1.236.644.007,23.984a.291.291,0,0,1-.328.283l.023.015a30.02,30.02,0,0,0,19.743-1.74c3.955-1.89,6.388-5.43,8.3-9.417h2.174a.306.306,0,0,0,.282-.215c.692-3.7,1.172-7.445,1.506-11.2A43.77,43.77,0,0,0,181.9,106.021Zm-30.269,8.161a.52.52,0,0,1-.363-.639.536.536,0,0,1,.639-.363,9.171,9.171,0,0,0,4.051-.042c3.249-.758,4.852-3.539,5.774-6.729a.52.52,0,0,1,1,.276,18.142,18.142,0,0,1-.838,2.32,9.242,9.242,0,0,1-3.292,4.116A9.462,9.462,0,0,1,151.633,114.182Zm12.295,19.679c-1.28.257-2.568.465-3.863.632a.518.518,0,0,1-.519-.519.531.531,0,0,1,.519-.519c1.2-.156,2.4-.357,3.586-.6C164.305,132.728,164.582,133.73,163.928,133.861Zm14.288-8.541a.52.52,0,0,1-.9-.525,25.277,25.277,0,0,0,3.049-9c.109-.634,1.139-.393,1,.276C180.683,119.4,180.009,122.371,178.216,125.32Z" fill="#ffc431"></path><path d="M122.309,95.95a4.923,4.923,0,0,0-5.347,1.912c-.26.367-11.034,15.746-11.5,16.391a5.566,5.566,0,0,0-1.037,2.757c-.111,1.28-.417,4.97-.464,5.534a1.5,1.5,0,0,0,.736,1.56,1.677,1.677,0,0,0,1.572-.107l1.99-.9a4.107,4.107,0,0,1-.346-1.978c.15-2.386,2.065-4.047,3.9-5.33a9.52,9.52,0,0,1,6.034-8.647,11.355,11.355,0,0,1,4.823-.429l2.091-2.98A4.886,4.886,0,0,0,122.309,95.95Z" fill="#6596e1"></path><path d="M164.989,71.236a15.581,15.581,0,0,1-5.8-6.664.3.3,0,0,0-.4-.105,4.859,4.859,0,0,0,4.926,8.376,4.393,4.393,0,0,0,1.364-1.215A.285.285,0,0,0,164.989,71.236Z" fill="#ffaaaa"></path><path d="M149.831,113.344a.228.228,0,0,0-.2-.245,101.631,101.631,0,0,1-18.748-4.408,37.033,37.033,0,0,0-8.208-1.979c-3.039-.3-5.52.174-7.746,2.228a9.644,9.644,0,0,0-3.111,6.848c-1.832,1.283-3.747,2.944-3.9,5.33a4.212,4.212,0,0,0,.831,2.8,3.25,3.25,0,0,0,2.972,1.105,7.35,7.35,0,0,0,2.706-.965,2.682,2.682,0,0,0,.737,3.942c1.523.909,3.155.483,4.593-.3-.915,2.642,1.845,4.709,4.446,3.973a6.228,6.228,0,0,0,2.208-1.481,13.5,13.5,0,0,0,1.858-2.105c5.477,1.421,11.035,5.063,15.981,7.546a26.7,26.7,0,0,0,5.262,1.978.291.291,0,0,0,.328-.283C149.894,132.037,149.862,113.456,149.831,113.344Zm-24.987,9.949-2.02,2.132c-.461.487-1.194-.249-.734-.735l2.019-2.132C124.57,122.071,125.3,122.807,124.844,123.293Zm-8.268-2.414,2.084-1.813c.5-.437,1.24.3.734.735l-2.084,1.812C116.808,122.051,116.07,121.318,116.576,120.879Zm-4.155-5.7c.1-.1-.069.05,4.26-3.279a.52.52,0,0,1,.711.186.534.534,0,0,1-.187.711l-4.244,3.264a.492.492,0,0,1-.593-.059A.513.513,0,0,1,112.421,115.181Z" fill="#ffaaaa"></path><path d="M44.367,120.636a.52.52,0,0,0-1.039,0v33.4a.52.52,0,0,0,1.039,0Z" fill="#ffaaaa"></path><path d="M149.923,145.719c-.046-.047-66.569-30.768-66.968-30.963a.3.3,0,0,0-.439.253v62.55a.3.3,0,0,0,.292.292H103.8a.3.3,0,0,0,.292-.292v-40.55l45.529,9.19A.3.3,0,0,0,149.923,145.719Z" fill="#6596e1"></path><path d="M156.963,162.989a.52.52,0,0,0-.639.363c-.246,1.587-2.093,13.486-2.183,14.069a.532.532,0,0,0,.363.639.52.52,0,0,0,.639-.363c.246-1.588,2.093-13.486,2.183-14.069A.531.531,0,0,0,156.963,162.989Z" fill="#000000"></path><path d="M177.859,159.457a.521.521,0,0,0-.639-.362.528.528,0,0,0-.363.639l3.231,17.963a.521.521,0,0,0,.639.363.529.529,0,0,0,.362-.639C180.928,176.521,177.97,160.077,177.859,159.457Z" fill="#000000"></path><path d="M184.442,119.12c-.115,8.954-.871,17.555-4.579,25.74-2.363,5.215-6.379,9.844-11.708,12-5.1,2.062-11.53,2.611-17.115,2.345-.677-.032-.653.973,0,1.039.823.083.889.115,1.037.031a42.248,42.248,0,0,0,15.5-2.084,22.946,22.946,0,0,0,12.615-11.646,43.059,43.059,0,0,0,3.73-10.815,81.612,81.612,0,0,0,1.562-16.61.519.519,0,0,0-1.038,0Z" fill="#000000"></path><path d="M14.991,95.227A9.122,9.122,0,0,1,6.058,85.9c0-.242,0-30.31,0-30.535a9.133,9.133,0,0,1,8.94-9.2c.467,0,57.846,0,57.846,0a9.125,9.125,0,0,1,9.226,9.332c0,.34,0,.679,0,1.019l1.024-1.459A10.121,10.121,0,0,0,72.78,45.122s-58.151-.012-58.839.06c-5.171.54-9.118,5.023-8.922,11.031V85.474a10.2,10.2,0,0,0,9.972,10.791h6.172c-.132-.344-.263-.689-.381-1.038C19.624,95.227,17.022,95.242,14.991,95.227Z" fill="#ffe660"></path><path d="M34.812,120.239s-19.938,33.515-19.949,33.535a.52.52,0,0,0,.9.524S35.7,120.783,35.709,120.763a.52.52,0,0,0-.9-.524Z" fill="#ffaaaa"></path><path d="M52.585,119.973c-.351-.567-1.25-.046-.9.525l20.066,32.433c.352.567,1.25.046.9-.525Z" fill="#ffaaaa"></path><path d="M79.405,56.891a8.891,8.891,0,0,0-9.194-8.4H59.158c.15.082.3.158.446.252A7.226,7.226,0,0,1,62.537,53a9.124,9.124,0,0,1-3.163,8.865c-1.538,1.336-3.3,2.079-4.635,4.7,5.578,3.026,10.29,8,10.43,14.34a24.193,24.193,0,0,0,7.544-11.254c.777-2.282,1.417-4.978,3.907-5.372l2.8-3.991C79.419,58.1,79.448,57.637,79.405,56.891Z" fill="#ffe660"></path><path d="M17.609,48.487a8.906,8.906,0,0,0-8.9,9.253V83.592a8.907,8.907,0,0,0,8.9,9.308h2.512c-1.769-7.346-.262-14.173,3.357-18.986a5.922,5.922,0,0,1-1.319-1.686C19.514,67.173,22,61.215,26.923,60.036a12.537,12.537,0,0,1,2.867-.2,3.715,3.715,0,0,0,2.567-.791,6.222,6.222,0,0,0,1.093-2.726c.865-2.812,3.351-4.632,7.073-4.136,2.419.321,3.422,1.17,4.709.422a3.417,3.417,0,0,0,.944-1.078,8.782,8.782,0,0,1,2.677-3.037C44.27,48.487,19.089,48.48,17.609,48.487Z" fill="#ffe660"></path><path d="M48.3,37.907a4.678,4.678,0,0,0-6.309,4.347.3.3,0,0,0,.292.292h8.762a.3.3,0,0,0,.293-.292A4.772,4.772,0,0,0,48.3,37.907Z" fill="#000000"></path><path d="M53.845,31.652Q51.733,33.7,49.694,35.82a.519.519,0,0,0,.734.734q2.114-2.046,4.152-4.167a.52.52,0,0,0-.735-.735Z" fill="#000000"></path><path d="M43.54,36.115c-1.289-1.334-4.7-4.7-4.7-4.7a.519.519,0,0,0-.734.734l4.7,4.7a.519.519,0,0,0,.734-.734Z" fill="#000000"></path><path d="M62.537,53A7.225,7.225,0,0,0,59.6,48.739a11.724,11.724,0,0,0-3.079-1.245c-2.812-.749-5.213-.718-7.672.993-2.408,1.676-2.36,3.183-3.621,4.115-1.292.751-2.261-.1-4.709-.422-3.7-.493-6.2,1.306-7.073,4.136a6.222,6.222,0,0,1-1.093,2.726,3.715,3.715,0,0,1-2.567.791,12.537,12.537,0,0,0-2.867.2,7.722,7.722,0,0,0-5.635,5.98c-.562,2.748.157,6.093,2.186,7.9,5.319-7.161,16.273-12.375,26.034-9.516a26.014,26.014,0,0,1,5.231,2.171c1.337-2.617,3.127-3.393,4.635-4.7A9.124,9.124,0,0,0,62.537,53ZM50.743,57.392a.292.292,0,0,1,.075-.284c1.079-.912,2.475-1.1,3.669-1.789a5.2,5.2,0,0,0,2.419-3.183.265.265,0,0,1,.359-.2,4.86,4.86,0,1,1-6.522,5.46Z" fill="#000000"></path><path d="M95.553,45.518a1.685,1.685,0,0,0-1.573.107L88.952,47.9a4.924,4.924,0,0,0-1.993,1.639c-.879,1.244-9.6,13.689-10.339,14.742a2.31,2.31,0,0,1,2.637,2.325A24.525,24.525,0,0,1,79,70.037c.557-.79,3.112-4.606,3.886-5.687a10.71,10.71,0,0,1,2.526-2.763,2.63,2.63,0,0,1,4.139,1.243c1.288-1.837,4.77-6.815,5.232-7.461a5.558,5.558,0,0,0,1.038-2.756c.11-1.28.416-4.97.463-5.534A1.506,1.506,0,0,0,95.553,45.518Z" fill="#ffaaaa"></path><path d="M49.508,64.4c-9.654-2.827-20.6,2.256-26.034,9.516-8.256,11.035-3.774,29.866,11.354,37.3a.3.3,0,0,1-.105-.4C46.529,92.64,49.726,87.7,49.805,87.6c.182-.23.608-.217.883-.27a31.737,31.737,0,0,0,14.481-6.417C64.992,72.91,57.279,66.674,49.508,64.4ZM47.32,88.323c-3.389-.87-5.1-4.35-5.018-7.728a.52.52,0,0,1,1.039,0,8.518,8.518,0,0,0,.87,3.937A5.447,5.447,0,0,0,47.6,87.321a.52.52,0,0,1-.276,1Z" fill="#6596e1"></path><path d="M89.779,64.512a3.616,3.616,0,0,0-.521-2.274,2.616,2.616,0,0,0-3.842-.651c-2.106,1.624-2.588,3-6.412,8.45a25.015,25.015,0,0,0,.253-3.429,2.162,2.162,0,0,0-.291-1.2,2.506,2.506,0,0,0-2.152-1.143,3.21,3.21,0,0,0-2.175,1.119c-1.312,1.49-1.441,3.327-2.7,6.325-3.76,8.98-11.7,13.773-21.254,15.619-.275.053-.7.04-.883.27-.274.348-6.455,9.938-15.082,23.221a.3.3,0,0,0,.105.4,28.252,28.252,0,0,0,11.046,2.231c10.886.238,21.9-3.451,29.792-11.274,3.881-3.848,4.791-6.1,12.312-18.261a11.4,11.4,0,0,0,1.214-2.593,3.418,3.418,0,0,0-.167-2.493,7.853,7.853,0,0,0-1.3-1.9,3.659,3.659,0,0,0,.664-3.6,5.292,5.292,0,0,0-1.755-2.659c.4-.643.755-1.311,1.163-1.951A10.085,10.085,0,0,0,89.779,64.512ZM80.951,76.087c.426-.439.862-.869,1.3-1.294a.52.52,0,0,1,.735.735c-.427.439-.863.869-1.3,1.294a.52.52,0,0,1-.735-.735Zm2.028,5.438c.426-.439.862-.869,1.3-1.294a.52.52,0,0,1,.734.735c-.426.439-.862.869-1.3,1.294a.52.52,0,0,1-.734-.735ZM54.32,108.241l4.555-1.485c.638-.208.909.8.276,1L54.6,109.242C53.958,109.45,53.687,108.447,54.32,108.241Z" fill="#ffd7d7"></path><path d="M60.2,55.176a4.92,4.92,0,0,0-2.937-3.244.266.266,0,0,0-.359.2,5.2,5.2,0,0,1-2.419,3.183c-1.194.693-2.59.877-3.669,1.789a.292.292,0,0,0-.075.284A4.861,4.861,0,1,0,60.2,55.176Z" fill="#ffd7d7"></path><path d="M104.163,33.974a6.2,6.2,0,1,0,3.884,5.981A6.2,6.2,0,0,0,104.163,33.974Z" fill="#ffc431"></path><path d="M112.849,17.924a.294.294,0,0,0-.292-.293c-3.191-.02-10.489.019-10.946.017a.3.3,0,0,0-.207.088c-.151.2-.141-.771-.069,11.15a.3.3,0,0,0,.292.292c3.192.02,10.946-.016,10.946-.016a.3.3,0,0,0,.292-.293C112.88,26.537,112.85,18.029,112.849,17.924Z" fill="#ffd7d7"></path><path d="M87.968,18.991a.52.52,0,0,0-.86.044c-3.622,5.757-7.27,11.884-8.147,13.407a.525.525,0,0,0,.449.782s14.8-.024,15.437-.03a.525.525,0,0,0,.449-.782C94.337,30.678,88.028,19.062,87.968,18.991Zm6.006,13.166-13.652.026c1.79-3.043,6.613-10.937,7.2-11.86Z" fill="#6596e1"></path><path d="M90.967,30.024c-2.843-5.14-3.314-6.129-3.4-6.23a.3.3,0,0,0-.492.014c-1.292,2.057-2.574,4.124-3.785,6.23a.3.3,0,0,0,.252.439s6.877-.011,7.173-.014A.294.294,0,0,0,90.967,30.024Z" fill="#6596e1"></path><path d="M131.552,181.83a25.562,25.562,0,0,0-31.621.045.238.238,0,0,0-.045.337.262.262,0,0,0,.252.162h31.267A.3.3,0,0,0,131.552,181.83Z" fill="#000000"></path><path d="M112.961,116.063l4.244-3.264a.534.534,0,0,0,.187-.711.52.52,0,0,0-.711-.186l-4.244,3.263-.016.016a.53.53,0,0,0-.17.7A.52.52,0,0,0,112.961,116.063Z" fill="#ffaaaa"></path><path d="M118.66,119.066l-2.084,1.813c-.506.439.232,1.172.734.734l2.084-1.812C119.9,119.361,119.162,118.629,118.66,119.066Z" fill="#ffaaaa"></path><path d="M122.824,125.425l2.02-2.132c.459-.486-.274-1.222-.735-.735l-2.019,2.132C121.63,125.176,122.363,125.912,122.824,125.425Z" fill="#ffaaaa"></path><path d="M151.633,114.182a9.462,9.462,0,0,0,6.973-1.061,9.242,9.242,0,0,0,3.292-4.116,18.142,18.142,0,0,0,.838-2.32.52.52,0,0,0-1-.276c-.922,3.191-2.525,5.972-5.774,6.729a9.171,9.171,0,0,1-4.051.042.536.536,0,0,0-.639.363A.52.52,0,0,0,151.633,114.182Z" fill="#ffaaaa"></path><path d="M180.368,115.792a37.459,37.459,0,0,1-1.223,4.983,21.651,21.651,0,0,1-1.826,4.02.52.52,0,0,0,.9.525c1.792-2.947,2.464-5.906,3.153-9.252C181.508,115.393,180.476,115.167,180.368,115.792Z" fill="#ffaaaa"></path><path d="M58.875,106.756l-4.555,1.485c-.633.206-.362,1.209.276,1l4.555-1.484C59.784,107.552,59.513,106.548,58.875,106.756Z" fill="#ffaaaa"></path><path d="M47.6,87.321a5.45,5.45,0,0,1-3.385-2.789,8.518,8.518,0,0,1-.87-3.937.52.52,0,0,0-1.039,0c-.087,3.361,1.617,6.857,5.018,7.728a.52.52,0,0,0,.276-1Z" fill="#6596e1"></path><path d="M82.254,74.793c-.441.425-.877.855-1.3,1.294a.52.52,0,0,0,.735.735c.44-.425.876-.855,1.3-1.294a.52.52,0,0,0-.735-.735Z" fill="#ffaaaa"></path><path d="M163.651,132.859c-1.188.239-2.384.44-3.586.6a.531.531,0,0,0-.519.519.518.518,0,0,0,.519.519c1.3-.167,2.583-.375,3.863-.632C164.582,133.73,164.305,132.728,163.651,132.859Z" fill="#ffaaaa"></path><path d="M139.824,62.1c-.653-.129-.932.872-.276,1l7.886,1.558c.653.129.933-.872.276-1Z" fill="#000000"></path><path d="M151.037,59.222a.519.519,0,0,0,.187-.71L145.7,51.331a.532.532,0,0,0-.71-.186.518.518,0,0,0-.187.71l5.526,7.181A.532.532,0,0,0,151.037,59.222Z" fill="#000000"></path><path d="M157.708,49.429a.519.519,0,0,0-.519-.52.529.529,0,0,0-.519.52q-.5,4.012-1,8.024a.52.52,0,0,0,.52.52.529.529,0,0,0,.519-.52Z" fill="#000000"></path><path d="M84.282,80.231c-.441.425-.877.855-1.3,1.294a.52.52,0,0,0,.734.735c.441-.425.877-.855,1.3-1.294a.52.52,0,0,0-.734-.735Z" fill="#ffaaaa"></path></g><g><path d="M79.424,33.224c1.743.012,14.8-.024,15.437-.03a.524.524,0,0,0,.516-.534c0-.2-7.311-13.568-7.395-13.669a.521.521,0,0,0-.86.044c-3.622,5.757-7.271,11.884-8.147,13.407A.525.525,0,0,0,79.424,33.224Zm8.114-12.9,6.45,11.834-13.652.026C82.125,29.14,86.949,21.247,87.538,20.323Z" fill="#000000"></path><path d="M83.556,30.705s6.877-.011,7.173-.014a.524.524,0,0,0,.515-.534c0-.209.239.335-3.454-6.463-.007-.012-.016-.016-.023-.027l-.015-.017a.52.52,0,0,0-.859.044c-1.293,2.056-2.575,4.124-3.785,6.229A.524.524,0,0,0,83.556,30.705Zm3.755-5.719,2.544,4.668-5.386.01C85.394,28.091,86.335,26.527,87.311,24.986Z" fill="#000000"></path><path d="M44.381,120.636a.52.52,0,0,0-1.039,0s0,33.382,0,33.4a.52.52,0,0,0,1.039,0Z" fill="#000000"></path><path d="M156.977,162.989a.52.52,0,0,0-.639.363c-.246,1.587-2.093,13.486-2.183,14.069a.533.533,0,0,0,.362.639.52.52,0,0,0,.639-.363c.247-1.587,2.094-13.486,2.184-14.069A.532.532,0,0,0,156.977,162.989Z" fill="#000000"></path><path d="M177.872,159.458a.521.521,0,0,0-.639-.363.528.528,0,0,0-.362.639L180.1,177.7a.521.521,0,0,0,.638.363.528.528,0,0,0,.363-.639C180.941,176.521,177.984,160.077,177.872,159.458Z" fill="#000000"></path><path d="M184.455,119.12c-.115,8.954-.87,17.555-4.578,25.74-2.363,5.215-6.379,9.844-11.708,12-5.1,2.062-11.53,2.611-17.115,2.345-.677-.032-.653.973,0,1.039.823.083.889.115,1.037.032a42.265,42.265,0,0,0,15.5-2.085A22.936,22.936,0,0,0,180.2,146.545a42.98,42.98,0,0,0,3.73-10.815,81.547,81.547,0,0,0,1.563-16.61.52.52,0,0,0-1.039,0Z" fill="#000000"></path><path d="M34.826,120.239s-19.938,33.515-19.949,33.535a.52.52,0,0,0,.9.525s19.938-33.516,19.949-33.536a.52.52,0,0,0-.9-.524Z" fill="#000000"></path><path d="M52.6,119.974c-.351-.568-1.25-.047-.9.524l20.066,32.433c.351.567,1.25.046.9-.524Z" fill="#000000"></path><path d="M50.442,36.555q2.113-2.048,4.152-4.168a.52.52,0,0,0-.735-.735Q51.747,33.7,49.708,35.82a.52.52,0,0,0,.734.735Z" fill="#000000"></path><path d="M42.82,36.85a.52.52,0,0,0,.734-.735c-1.29-1.334-4.7-4.7-4.7-4.7a.52.52,0,0,0-.734.735C39.756,33.842,41.008,35.1,42.82,36.85Z" fill="#000000"></path><path d="M118.673,119.066l-2.083,1.813c-.506.44.232,1.172.734.735l2.084-1.813C119.913,119.362,119.176,118.629,118.673,119.066Z" fill="#000000"></path><path d="M122.838,125.425q1.01-1.067,2.02-2.132c.459-.486-.274-1.222-.735-.735l-2.02,2.132C121.644,125.176,122.377,125.912,122.838,125.425Z" fill="#000000"></path><path d="M151.647,114.182a9.462,9.462,0,0,0,6.973-1.061,9.237,9.237,0,0,0,3.292-4.116,18.142,18.142,0,0,0,.838-2.32.52.52,0,0,0-1-.276c-.923,3.191-2.525,5.972-5.775,6.73a9.181,9.181,0,0,1-4.05.041.536.536,0,0,0-.639.363A.52.52,0,0,0,151.647,114.182Z" fill="#000000"></path><path d="M58.889,106.756l-4.555,1.485c-.633.206-.362,1.209.276,1l4.555-1.484C59.8,107.552,59.527,106.548,58.889,106.756Z" fill="#000000"></path><path d="M47.333,88.323a.52.52,0,0,0,.277-1,5.45,5.45,0,0,1-3.385-2.789,8.505,8.505,0,0,1-.87-3.937.52.52,0,0,0-1.039,0C42.229,83.955,43.933,87.452,47.333,88.323Z" fill="#000000"></path><path d="M82.268,74.793c-.441.425-.877.855-1.3,1.294a.52.52,0,0,0,.734.735c.441-.425.877-.855,1.3-1.294a.52.52,0,0,0-.734-.735Z" fill="#000000"></path><path d="M159.559,133.974a.521.521,0,0,0,.52.52c1.295-.168,2.582-.376,3.862-.633.655-.131.378-1.133-.276-1-1.188.238-2.384.439-3.586.595A.533.533,0,0,0,159.559,133.974Z" fill="#000000"></path><path d="M139.562,63.1l7.886,1.558c.653.129.932-.872.276-1L139.838,62.1C139.185,61.973,138.906,62.974,139.562,63.1Z" fill="#000000"></path><path d="M150.34,59.036a.534.534,0,0,0,.711.187.52.52,0,0,0,.186-.711q-2.762-3.591-5.525-7.181a.533.533,0,0,0-.711-.186.518.518,0,0,0-.186.71Z" fill="#000000"></path><path d="M156.2,57.973a.53.53,0,0,0,.52-.519l1-8.025a.52.52,0,0,0-.519-.52.531.531,0,0,0-.52.52l-1,8.025A.519.519,0,0,0,156.2,57.973Z" fill="#000000"></path><path d="M84.3,80.231c-.44.425-.876.855-1.3,1.294a.52.52,0,0,0,.735.735c.441-.425.877-.855,1.3-1.294a.52.52,0,0,0-.735-.735Z" fill="#000000"></path><path d="M158.553,72.981a5.112,5.112,0,1,0,.175-8.758l-.02.015-.028.013A5.113,5.113,0,0,0,158.553,72.981Zm-1.294-4.589a3.985,3.985,0,0,1,1.5-2.856,16,16,0,0,0,5.265,6.048A4.016,4.016,0,0,1,157.259,68.392Zm2.5-3.449a4,4,0,0,1,4.977,5.727A14.592,14.592,0,0,1,159.754,64.943Z" fill="#000000"></path><path d="M42.3,42.8h8.765a.547.547,0,0,0,.54-.541,4.924,4.924,0,0,0-9.848,0A.548.548,0,0,0,42.3,42.8Zm.595-1.084a3.827,3.827,0,0,1,7.572,0Z" fill="#000000"></path><path d="M101.9,46.173a6.387,6.387,0,0,0,5.687-3.454,6.457,6.457,0,1,0-5.687,3.454ZM97.32,36.854a5.369,5.369,0,1,1,9.068,5.753,5.3,5.3,0,0,1-4.264,2.485A5.373,5.373,0,0,1,97.32,36.854Z" fill="#000000"></path><path d="M101.1,28.89a.548.548,0,0,0,.541.538c.691,0,10.887-.016,10.944-.016a.564.564,0,0,0,.4-.177c.26-.222.174-.657.139-11.313a.555.555,0,0,0-.55-.541c-3.158-.02-10.871.016-10.951.017a.547.547,0,0,0-.539.54C101.063,21.1,101.1,28.89,101.1,28.89Zm1.084-10.409,9.854-.014v9.861h-9.854Z" fill="#000000"></path><path d="M50.522,57.488A5.11,5.11,0,1,0,57.374,51.7a.542.542,0,0,0-.7.369,5.007,5.007,0,0,1-2.3,3.033c-1.175.682-2.59.872-3.692,1.8A.488.488,0,0,0,50.522,57.488Zm1.136.04c1.041-.734,2.5-.939,3.627-1.718a6.206,6.206,0,0,0,2.232-2.831,4.017,4.017,0,0,1-3.142,7.336A4,4,0,0,1,51.658,57.528Z" fill="#000000"></path><path d="M96.362,45.958a1.689,1.689,0,0,0-1.922-.792,5.767,5.767,0,0,0-.629.269c-7.28,3.52-5.109,1.114-10.733,9.166a10.1,10.1,0,0,0-10.55-9.479s-57.722-.029-58.573.06a9.916,9.916,0,0,0-8.618,7.747,17.836,17.836,0,0,0-.3,4.682s.006,26.812,0,28.2A10.193,10.193,0,0,0,15.042,96.266c1.125,0,5.889,0,5.889,0a27.844,27.844,0,0,0,12.546,14.477c9.069,5.128,27.879,4.275,40.759-6.872a34.845,34.845,0,0,0,7.581-9.388c.853-1.387,6.175-9.98,6.96-11.452a7.646,7.646,0,0,0,.846-2.6,5.058,5.058,0,0,0-1.561-3.5,3.91,3.91,0,0,0,.578-3.664,5.522,5.522,0,0,0-1.661-2.635c.771-1.212.334-.68,1.245-2.074,1-1.525,2.355-3.6,1.624-5.685.557-.794,3.96-5.7,5.141-7.329a5.707,5.707,0,0,0,1.086-2.749c.042-.411.422-4.975.436-5.1A2.812,2.812,0,0,0,96.362,45.958ZM15.042,95.227a8.908,8.908,0,0,1-8.488-6.286A14.088,14.088,0,0,1,6.072,84.1V55.791a9.173,9.173,0,0,1,8.88-9.63c.165,0,57.41-.006,58.157,0a9.3,9.3,0,0,1,8.984,9.851q-1.085,1.554-2.432,3.488a18.621,18.621,0,0,0-.23-4.155,9.028,9.028,0,0,0-6.352-6.726,18.245,18.245,0,0,0-5.15-.359H59.2c-.09-.059-.32-.177-.391-.21A14.83,14.83,0,0,0,54.77,46.9a8.175,8.175,0,0,0-4.584.591c-.1.042-1.413.74-1.391.765-.021,0-29.2-.006-31.176,0A9.135,9.135,0,0,0,8.5,58.05s0,25.155,0,25.953a9.127,9.127,0,0,0,9.113,9.124h2.349c.182.738.418,1.538.606,2.1C18.724,95.228,16.883,95.244,15.042,95.227ZM65.385,80.394C65,74.259,60.478,69.505,55.1,66.491c2.04-3.645,4.557-3.413,6.7-7.168a8.124,8.124,0,0,0-1.069-10c9.218.058,9.936-.2,11.672.193a7.919,7.919,0,0,1,6.072,6.311,36.331,36.331,0,0,1,.123,5.2l-2.113,3.033c-2.315.358-3.153,2.927-3.83,5A24.224,24.224,0,0,1,65.385,80.394ZM19.719,92.088h-2.1c-4.552-.032-8.387-3.57-8.084-9.037,0,0-.005-24.915,0-25.668A8.1,8.1,0,0,1,18.388,49.3s25.749.012,29.11.021c-1.492,1.489-1.542,2.9-2.933,3.291-1.12.222-2.694-.715-5.169-.758a6.093,6.093,0,0,0-6.272,4.75l-.113.41c-.28,1.03-.5,1.843-1.442,2.274-1.213.553-3.611.037-5.514.771A8.1,8.1,0,0,0,21.2,65.364a8.987,8.987,0,0,0,1.937,8.565l.027.023A22.96,22.96,0,0,0,19.719,92.088Zm2.269-24.952a6.879,6.879,0,0,1,5.636-6.362c1.733-.218,2.749.087,4.176-.411a3.31,3.31,0,0,0,1.679-1.434,6.816,6.816,0,0,0,.415-1.046,9.588,9.588,0,0,1,1.224-3.008,4.572,4.572,0,0,1,1.372-1.231,7.031,7.031,0,0,1,4.919-.474,10.409,10.409,0,0,0,3.043.55l.162-.026a2.5,2.5,0,0,0,1.669-.912,6.806,6.806,0,0,0,.87-1.228,7.3,7.3,0,0,1,7.412-3.643,15.041,15.041,0,0,1,3.085.774c4.039,1.483,5.311,5.96,3.422,9.676a11.625,11.625,0,0,1-3.711,4.029,10.211,10.211,0,0,0-3.225,3.587,23.943,23.943,0,0,0-6.247-2.219c-7.776-1.565-15.739,1.524-21.5,6.628a21.118,21.118,0,0,0-2.563,2.71A7.9,7.9,0,0,1,21.988,67.136ZM34.8,110.282C19.36,102.328,15.235,81.773,26.926,71.3c4.621-4.141,10.838-7.026,17.128-6.914a21.844,21.844,0,0,1,9.6,2.526c5.755,2.97,10.8,7.97,10.712,14.363A30.534,30.534,0,0,1,54.056,86.3c-1.359.373-2.737.662-4.119.936a.431.431,0,0,0-.293.221C49.546,87.558,35.469,109.284,34.8,110.282ZM87.912,67.029c-.419.669-.885,1.3-1.255,2a16.456,16.456,0,0,1-.872,1.456.544.544,0,0,0,.177.728A4.225,4.225,0,0,1,87.58,73.5a2.838,2.838,0,0,1-.618,3.042.551.551,0,0,0-.005.758c2.177,2.365,2.028,3.394.146,6.476,0,0-6.841,11.185-7.92,12.838-6.446,9.865-18.786,16-32.206,16.012a28.366,28.366,0,0,1-11.208-1.909C37.285,108.392,49.885,89.071,50.4,88.2,57.488,87,64.543,83.726,69.1,78.115a26.087,26.087,0,0,0,4.6-8.778,9.458,9.458,0,0,1,1.65-3.47,2.359,2.359,0,0,1,1.478-.759,1.7,1.7,0,0,1,1.347.6,2.284,2.284,0,0,1,.245,1.515,16.739,16.739,0,0,1-.5,3.971.544.544,0,0,0,.974.446c.537-.71,1.033-1.426,1.405-1.971,3.593-5.242,4.391-6.97,6.431-7.774a1.894,1.894,0,0,1,2.219,1.791A5.568,5.568,0,0,1,87.912,67.029Zm7.549-19.865s-.395,4.571-.438,5.209a4.642,4.642,0,0,1-.759,2.313c-1.143,1.68-4.5,6.416-5,7.127-1.066-1.338-2.994-1.615-4.973.412a66.764,66.764,0,0,0-4.9,6.837c.059-.6.1-1.253.116-1.916a4.174,4.174,0,0,0-.078-1.336,2.586,2.586,0,0,0-1.688-1.648c.777-1.1,10.024-14.339,10.526-14.838a7.224,7.224,0,0,1,1.924-1.065s4.017-1.834,4.455-2.018a.606.606,0,0,1,.8.31A1.363,1.363,0,0,1,95.461,47.164Z" fill="#000000"></path><path d="M192.239,88.366a25.542,25.542,0,0,0-7.936-7.411c-6.272-3.742-11.425-4.671-17.456-6.194a.526.526,0,0,0-.639.639c.712,2.688,1.444,5.371,2.161,8.058a26.814,26.814,0,0,0-4.907-1.432c-16.408-3.157-29.018,10.092-34.079,25.947a31.974,31.974,0,0,0-6.264-1.441c.3-.441,1.46-2.1,1.928-2.754a5.119,5.119,0,0,0-2.465-8,5.056,5.056,0,0,0-5.077,1.1,8.025,8.025,0,0,0-1.076,1.334c-.2.3-11.028,15.713-11.347,16.177a5.167,5.167,0,0,0-.877,2.458c-.024.262-.4,4.668-.418,4.826a2.843,2.843,0,0,0,.344,2.293c.832.933,1.938.477,3.051-.08.484-.244.405-.193.986-.461a3.408,3.408,0,0,0,3.8,1.8,6.846,6.846,0,0,0,1.948-.63c-1.129,2.607,1.641,5.386,5.509,3.535a3.031,3.031,0,0,0,.611,2.511c-.251.1-.924.382-1.273.53-2.669-1.232-35.136-16.366-35.676-16.629a.545.545,0,0,0-.811.47v62.553a.544.544,0,0,0,.542.539h21a.544.544,0,0,0,.538-.542V166.1a12.5,12.5,0,0,0,11.344,2.093c4.9,7.19,15.405,6.53,22.514,1.253,5.087-3.775,8.6-9.273,11.7-14.147a40.44,40.44,0,0,0,11.794-1.372,19.143,19.143,0,0,0,6.362-2.81c9.955-7.046,12.836-25.129,13.813-37.312a34.994,34.994,0,0,0,.261-7.714,10.3,10.3,0,0,0,9.362-1.508C195.535,101.364,196.471,94.493,192.239,88.366Zm-86.2,34.835a1.511,1.511,0,0,1-.724.235.624.624,0,0,1-.514-.722c.08-1.093.413-4.942.413-4.942a6.027,6.027,0,0,1,.455-2.252,7.89,7.89,0,0,1,.575-.905c.556-.768,11.411-16.269,11.44-16.31a4.046,4.046,0,0,1,7.148,3.6,7.735,7.735,0,0,1-1.165,1.962c-1.749,2.5-1.753,2.461-1.759,2.575a10.311,10.311,0,0,0-4.19.515,9.73,9.73,0,0,0-6.111,8.713c-1.857,1.314-3.736,3-3.9,5.415a4.659,4.659,0,0,0,.1,1.317C107.712,122.422,107.3,122.629,106.037,123.2Zm9.7,4.188a1.772,1.772,0,0,1-1.036-1.6,4.412,4.412,0,0,1,1.221-2.434c.323-.418-.3-.983-.711-.711-1.345.884-3.277,2.11-4.946,1.413-1.7-.711-1.844-3.052-1.075-4.48a8.675,8.675,0,0,1,2.757-2.879c.688-.416,3.643-2.64,5.276-3.9a.534.534,0,0,0,.187-.711.52.52,0,0,0-.711-.186l-4.017,3.089a8.837,8.837,0,0,1,4.776-6.8,10.176,10.176,0,0,1,5.255-.667,34.921,34.921,0,0,1,6.331,1.429c1.231.4,8.476,2.535,8.634,2.576a107.1,107.1,0,0,0,11.366,2.3s-.009,22.41-.009,22.811a33.79,33.79,0,0,1-7.595-3.429c-4.253-2.321-8.759-4.821-13.133-5.955a.532.532,0,0,0-.586.238,12.761,12.761,0,0,1-1.862,2.123,4.93,4.93,0,0,1-2.037,1.328,3.015,3.015,0,0,1-3.09-1.114,2.145,2.145,0,0,1,.3-2.649c.409-.407-.132-1.154-.629-.816C119.064,127.267,117.332,128.259,115.733,127.389Zm19.159,3.527a32.91,32.91,0,0,0-9.069,3.491q-2.86-1.31-5.718-2.623c.7-.293.747-.282.811-.382a4.357,4.357,0,0,0,3.179.54,5.864,5.864,0,0,0,2.423-1.528,14.232,14.232,0,0,0,1.851-2.065A38.249,38.249,0,0,1,134.892,130.916Zm-30.949,5.209a.55.55,0,0,0-.669.532c.021,1.2,0,40.36,0,40.36H83.364V115.872c10.362,5.017,48.111,22.3,61.84,28.583Zm.411,5.383c0-.309,0-4.194,0-4.194l3.361.679A41.183,41.183,0,0,0,104.354,141.508Zm0,23.183v-21.5a42.85,42.85,0,0,1,4.688-4.932l9.806,1.98c-.182.23-.305.381-.408.506-5.966,7.257-7.159,19.691-3.355,26.479A11.284,11.284,0,0,1,104.358,164.691ZM176.29,137.1a37.426,37.426,0,0,1-3.819,7.747,17.393,17.393,0,0,1-9.649,7.62,37.707,37.707,0,0,1-12.829,1.751c-.484-.025-.664-.034-.836.247-4.9,8.028-10.948,16.69-20.852,17.848-4.98.582-9.4-1.245-11.83-4.887-4.149-6.225-3.238-19.159,3.581-26.944l29.532,5.962c.595.12.97-.738.378-1.007-1.4-.638-19.759-9.023-22.926-10.471a33.664,33.664,0,0,1,9.086-3.206.25.25,0,0,0,.172-.132c2.983,1.538,5.483,3.065,8.243,4.394a29.787,29.787,0,0,0,24.864.059,13.562,13.562,0,0,0,4.238-3.13,25.287,25.287,0,0,0,4.08-6.256h1.38A68.77,68.77,0,0,1,176.29,137.1Zm4.845-26.282a37.681,37.681,0,0,1-1.976,9.955,21.634,21.634,0,0,1-1.827,4.021.52.52,0,0,0,.9.525,20.658,20.658,0,0,0,1.76-3.788c-.195,1.38-.413,2.755-.664,4.126H177.4a.511.511,0,0,0-.448.257c-1.768,3.565-3.895,7.136-7.546,9a28.736,28.736,0,0,1-19.266,2.017c0-18.5-.008-2.835-.065-23.554a.521.521,0,0,0-.381-.5,113.937,113.937,0,0,1-19.318-4.592c5.5-17.357,19.692-30.31,36.937-24.134C177.275,87.721,181.847,100.377,181.135,110.819Zm5.957-5.4a10.285,10.285,0,0,1-5.056-.461c-.928-8.369-4.9-17.24-12.449-20.966q-1.071-4.011-2.149-8.019A79.85,79.85,0,0,1,178.005,79c4.989,1.826,10.249,5.3,13.337,9.9C196.566,96.658,193.383,104.422,187.092,105.422Z" fill="#000000"></path><path d="M131.716,181.63a25.853,25.853,0,0,0-31.923.047.542.542,0,0,0,.341.948h31.292A.546.546,0,0,0,131.716,181.63Zm-2.043-.09H101.822A24.707,24.707,0,0,1,129.673,181.54Z" fill="#000000"></path></g></svg>