<svg xmlns="http://www.w3.org/2000/svg" fill="none" viewBox="0 0 200 200" height="400" width="400"><g id="team-1--business-team-1"><g id="color"><g id="group"><path id="vector" fill="#000000" d="M111.538 105.931C111.437 105.398 111.154 104.917 110.738 104.569C110.322 104.221 109.798 104.028 109.256 104.023C108.092 104.001 106.925 104.023 105.756 104.023C105.328 104.009 104.905 104.111 104.53 104.317C104.155 104.523 103.842 104.826 103.624 105.194C103.394 105.651 103.291 106.161 103.324 106.672C103.324 109.345 103.319 115.305 103.324 115.612C103.326 116.091 103.473 116.558 103.746 116.951C104.02 117.344 104.407 117.644 104.855 117.812C105.659 117.993 106.488 118.04 107.307 117.95C104.307 116.971 105.146 114.036 107.677 113.636C104.667 112.836 104.738 110.195 107.971 109.513C106.39 109.041 105.371 108.847 105.271 107.907C105.093 106.298 106.73 105.69 108.063 105.702C109.277 105.761 110.469 106.043 111.581 106.532C111.584 106.331 111.57 106.13 111.538 105.931V105.931Z"></path><path id="vector_2" fill="#000000" d="M106.411 98.6679C105.025 97.7009 103.429 99.2679 102.253 100.354C100.175 102.279 98.4415 104.545 97.127 107.054C97.0942 107.118 97.0817 107.191 97.0912 107.262C97.1006 107.334 97.1316 107.4 97.18 107.454C97.2076 107.488 97.2417 107.517 97.2804 107.538C97.3191 107.559 97.3616 107.573 97.4054 107.577C97.4493 107.582 97.4936 107.578 97.5359 107.566C97.5783 107.553 97.6177 107.533 97.652 107.505C100.113 106.008 102.474 104.352 104.719 102.548C105.473 102.072 106.144 101.475 106.703 100.781C106.939 100.46 107.041 100.06 106.986 99.665C106.932 99.2704 106.725 98.9126 106.411 98.6679V98.6679Z"></path><path id="vector_3" fill="#000000" d="M117.489 142.291C98.589 142.291 93.428 142.275 92.037 142.291C91.463 142.297 91.511 142.277 91.318 142.651C90.977 143.313 89.694 145.875 84.57 156.046C92.937 156.046 110.245 156.036 110.536 156.046C111.003 156.058 110.968 156.097 111.047 156.207L117.792 142.821C117.822 142.767 117.838 142.707 117.838 142.645C117.838 142.584 117.822 142.523 117.791 142.47C117.761 142.416 117.717 142.372 117.664 142.34C117.611 142.309 117.551 142.292 117.489 142.291Z"></path><path id="vector_4" fill="#000000" d="M131.707 35.5V30.794C131.73 27.558 126.944 25.404 123.317 29.194C121.165 31.444 121.079 33.905 119.072 34.435C118.137 34.683 116.752 34.535 115.112 35.674C113.054 37.108 113.278 38.574 112.593 39.838C111.953 41.015 110.986 40.571 110.04 40.812C109.567 40.9666 109.136 41.2294 108.782 41.5795C108.428 41.9296 108.16 42.3574 108 42.829C107.986 42.8809 107.984 42.9353 107.995 42.988C108.005 43.0407 108.027 43.0903 108.06 43.1331C108.092 43.1759 108.134 43.2106 108.182 43.2347C108.23 43.2587 108.283 43.2715 108.337 43.272H131.287C131.381 43.271 131.47 43.2342 131.537 43.169C131.605 43.1039 131.644 43.0155 131.648 42.922V39.951C129.866 40.951 127.135 40.719 125.879 39.184C125.68 38.9464 125.532 38.6713 125.442 38.375C125.351 38.0788 125.322 37.7674 125.355 37.4595C125.387 37.1516 125.482 36.8534 125.632 36.5828C125.783 36.3121 125.986 36.0744 126.23 35.884C127.007 35.2939 127.938 34.9433 128.911 34.8751C129.884 34.8069 130.856 35.024 131.707 35.5Z"></path><path id="vector_5" fill="#000000" d="M135.5 37.8389H142.308C142.401 37.8389 142.49 37.802 142.555 37.7364C142.621 37.6708 142.658 37.5817 142.658 37.4889C142.658 37.3961 142.621 37.3071 142.555 37.2414C142.49 37.1758 142.401 37.1389 142.308 37.1389H135.5C135.407 37.1389 135.318 37.1758 135.253 37.2414C135.187 37.3071 135.15 37.3961 135.15 37.4889C135.15 37.5817 135.187 37.6708 135.253 37.7364C135.318 37.802 135.407 37.8389 135.5 37.8389V37.8389Z"></path><path id="vector_6" fill="#000000" d="M135.475 35.939C136.922 34.9217 138.391 33.9377 139.88 32.987C140.259 32.746 139.908 32.139 139.527 32.387C138.037 33.3377 136.57 34.3214 135.127 35.338C134.756 35.591 135.1 36.2 135.475 35.939Z"></path><path id="vector_7" fill="#000000" d="M135.269 39.6319L139.22 42.6379C139.579 42.9109 139.928 42.3029 139.574 42.0379L135.623 39.0309C135.264 38.7539 134.915 39.3619 135.269 39.6319Z"></path><path id="vector_8" fill="#000000" d="M180.228 183.774C167.175 180.845 152.985 180.749 139.917 182.16C136.026 182.58 129.345 183.573 128.578 183.787C128.508 183.805 128.447 183.848 128.408 183.909C128.369 183.97 128.354 184.043 128.366 184.114C128.396 184.356 128.523 184.462 128.704 184.462H180.135C180.218 184.459 180.298 184.427 180.36 184.371C180.421 184.316 180.461 184.24 180.472 184.157C180.484 184.075 180.465 183.991 180.42 183.921C180.376 183.851 180.308 183.799 180.228 183.774V183.774Z"></path><path id="vector_9" fill="#000000" d="M142.861 103.379H147.261C147.349 103.372 147.432 103.333 147.492 103.268C147.552 103.203 147.586 103.117 147.586 103.029C147.586 102.94 147.552 102.855 147.492 102.79C147.432 102.725 147.349 102.686 147.261 102.679H142.861C142.773 102.686 142.69 102.725 142.63 102.79C142.57 102.855 142.536 102.94 142.536 103.029C142.536 103.117 142.57 103.203 142.63 103.268C142.69 103.333 142.773 103.372 142.861 103.379V103.379Z"></path><path id="vector_10" fill="#000000" d="M146.937 87.5411C146.937 87.6331 146.974 87.7213 147.039 87.7864C147.104 87.8515 147.192 87.8881 147.284 87.8881C147.376 87.8881 147.464 87.8515 147.529 87.7864C147.594 87.7213 147.631 87.6331 147.631 87.5411V66.4281C147.631 66.336 147.594 66.2478 147.529 66.1827C147.464 66.1176 147.376 66.0811 147.284 66.0811C147.192 66.0811 147.104 66.1176 147.039 66.1827C146.974 66.2478 146.937 66.336 146.937 66.4281V87.5411Z"></path><path id="vector_11" fill="#000000" d="M164.113 47.0999C165.256 49.0124 165.858 51.1991 165.855 53.4269C165.862 53.5152 165.901 53.5977 165.966 53.6578C166.031 53.718 166.116 53.7514 166.205 53.7514C166.294 53.7514 166.379 53.718 166.444 53.6578C166.509 53.5977 166.548 53.5152 166.555 53.4269C166.556 51.075 165.921 48.7665 164.717 46.7459C164.5 46.3739 163.879 46.7069 164.113 47.0999Z"></path><path id="vector_12" fill="#000000" d="M66.25 61.5839C67.6293 61.4752 69.005 61.3372 70.377 61.1699C70.819 61.1169 70.825 60.4149 70.377 60.4699C69.005 60.6359 67.6293 60.7739 66.25 60.8839C65.8 60.9189 65.8 61.6199 66.25 61.5839Z"></path><path id="vector_13" fill="#000000" d="M77.163 56.7151C75.4 56.0051 73.018 57.3941 72.611 60.1531C72.581 60.3531 72.706 60.6191 72.949 60.5971C74.922 60.4111 76.896 60.2371 78.867 60.0231C78.9164 60.0216 78.9648 60.0097 79.0093 59.9882C79.0537 59.9667 79.0931 59.9361 79.1249 59.8984C79.1567 59.8606 79.1802 59.8166 79.1938 59.7692C79.2075 59.7217 79.2109 59.6719 79.204 59.6231C79.1526 59.0008 78.9364 58.4035 78.5777 57.8924C78.219 57.3813 77.7307 56.975 77.163 56.7151V56.7151Z"></path></g></g><g id="line"><g id="group_2"><path id="vector_14" fill="#000000" d="M101.413 108.4C98.978 108 95.753 112.734 99.481 114.061C99.9409 114.176 100.423 114.163 100.877 114.024C101.33 113.886 101.737 113.626 102.054 113.274C103.814 111.524 102.947 108.649 101.413 108.4ZM99.668 113.385C96.285 112.185 101.124 107.052 102.15 109.958C102.295 110.326 102.356 110.722 102.327 111.117C102.298 111.512 102.18 111.895 101.983 112.238C101.774 112.654 101.435 112.991 101.017 113.197C100.599 113.404 100.126 113.468 99.668 113.38V113.385Z"></path><path id="vector_15" fill="#000000" d="M97.655 107.5C100.117 106.004 102.478 104.348 104.723 102.544C105.477 102.069 106.147 101.471 106.706 100.777C106.941 100.456 107.043 100.057 106.988 99.6629C106.934 99.269 106.728 98.9117 106.415 98.6669C105.029 97.6999 103.433 99.2669 102.257 100.353C100.196 102.258 98.4745 104.501 97.166 106.984C96.921 107.451 97.409 107.724 97.655 107.5ZM103.598 100.1C104.125 99.6579 104.775 99.0329 105.516 99.0799C106.306 99.1299 106.528 99.8009 106.076 100.46C105.843 100.76 105.567 101.023 105.256 101.241C103.06 103.024 100.772 104.689 98.4 106.23C99.7794 103.913 101.537 101.843 103.6 100.107L103.598 100.1Z"></path><path id="vector_16" fill="#000000" d="M128.429 147.219C128.183 146.844 127.576 147.194 127.824 147.572L130.685 151.93C130.932 152.305 131.538 151.955 131.285 151.577L128.429 147.219Z"></path><path id="vector_17" fill="#000000" d="M142.574 162.3L144.626 160.227C144.692 160.161 144.73 160.071 144.73 159.977C144.73 159.883 144.692 159.793 144.626 159.727C144.56 159.661 144.47 159.624 144.376 159.624C144.282 159.624 144.192 159.661 144.126 159.727L142.074 161.801C142.008 161.867 141.971 161.957 141.971 162.051C141.971 162.145 142.008 162.234 142.075 162.301C142.141 162.367 142.231 162.404 142.324 162.404C142.418 162.404 142.508 162.366 142.574 162.3V162.3Z"></path><path id="vector_18" fill="#000000" d="M53.307 173.163C53.088 172.769 52.483 173.122 52.702 173.517C53.2463 174.495 53.9309 175.389 54.734 176.169C55.058 176.483 55.553 175.989 55.229 175.669C54.469 174.932 53.8214 174.088 53.307 173.163V173.163Z"></path><path id="vector_19" fill="#000000" d="M102.812 148.1C102.811 148.031 102.789 147.964 102.751 147.907C102.712 147.85 102.657 147.806 102.593 147.779C102.53 147.753 102.46 147.746 102.392 147.759C102.324 147.772 102.262 147.804 102.212 147.852C101.457 148.629 100.627 149.339 99.812 150.052C99.7641 150.102 99.7317 150.164 99.7188 150.232C99.7059 150.299 99.713 150.37 99.7394 150.433C99.7657 150.497 99.8101 150.552 99.8671 150.59C99.924 150.629 99.9911 150.651 100.06 150.652H102.47C102.562 150.65 102.65 150.612 102.715 150.547C102.78 150.482 102.818 150.394 102.82 150.302C102.823 149.567 102.812 148.833 102.812 148.1ZM102.112 148.914C102.112 149.26 102.112 149.605 102.112 149.95H100.979C101.372 149.613 101.745 149.266 102.116 148.914H102.112Z"></path><path id="vector_20" fill="#000000" d="M149.535 145.82C146.773 138.034 134.935 125.376 121.184 119.362C122.4 113.385 117.297 108.805 111.578 106.53C111.581 106.329 111.569 106.129 111.542 105.93C111.441 105.397 111.158 104.916 110.742 104.568C110.326 104.22 109.802 104.027 109.26 104.022C108.096 104 106.929 104.022 105.76 104.022C105.332 104.008 104.909 104.11 104.533 104.316C104.158 104.522 103.845 104.825 103.627 105.193C103.397 105.65 103.294 106.16 103.327 106.671C103.327 106.671 103.327 115.304 103.327 115.611C103.328 116.09 103.476 116.557 103.75 116.95C104.023 117.343 104.41 117.643 104.859 117.811C105.663 117.993 106.491 118.04 107.31 117.95C108.253 118.089 109.172 118.363 110.037 118.764C110.05 119.264 110.055 120.078 110.047 120.717C107.16 118.477 104.072 117.926 100.09 117.717C97.5639 117.486 95.0187 117.844 92.655 118.765C86.048 121.165 78.243 126.647 72.716 130.965C64.401 137.465 52.902 147.822 49.46 157.79C46.66 165.89 47.843 174.701 55.493 179.498C55.5286 180.559 55.6221 181.617 55.773 182.667C55.7935 182.741 55.8377 182.806 55.8987 182.852C55.9598 182.899 56.0343 182.924 56.111 182.924H121.511C121.604 182.923 121.692 182.885 121.757 182.82C121.823 182.754 121.86 182.666 121.861 182.573C121.847 182.157 121.505 169.838 121.361 164.444C127.184 166.378 133.412 166.755 139.426 165.539C142.299 165.023 144.948 163.644 147.018 161.586C150.923 157.353 151.4 151.078 149.535 145.82ZM106.045 117.249C105.685 117.291 105.32 117.229 104.994 117.071C104.667 116.913 104.392 116.666 104.201 116.358C103.989 115.945 104.001 116.331 104.029 106.445C104.016 106.123 104.096 105.804 104.26 105.527C104.424 105.249 104.665 105.025 104.954 104.882C105.455 104.718 105.985 104.665 106.508 104.727C109.372 104.727 109.734 104.65 110.27 105.079C110.606 105.382 110.813 105.803 110.847 106.255C109.955 105.922 109.015 105.734 108.064 105.701C106.731 105.689 105.094 106.301 105.272 107.906C105.359 108.7 106.124 108.934 106.78 109.144C107.18 109.272 107.58 109.393 107.975 109.512C104.84 110.174 104.575 112.806 107.681 113.635C105.694 113.949 104.63 115.952 106.045 117.249V117.249ZM101.284 118.5C102.132 121.022 102.354 123.963 100.462 122.111C99.5011 121.026 98.7667 119.759 98.302 118.386C99.3 118.388 100.288 118.423 101.284 118.5V118.5ZM56.418 182.213C56.318 181.467 56.244 180.672 56.202 179.925C58.3517 181.147 60.7231 181.929 63.178 182.225C56.23 182.221 57.149 182.174 56.418 182.213ZM59.457 180.648C53.333 178.505 49.262 173.742 48.845 166.891C48.229 156.758 54.745 148.752 61.827 141.41C66.067 145.547 70.286 148.964 74.982 153.229C75.0402 154.95 75.214 156.665 75.502 158.362C71.4888 161.198 67.2822 163.75 62.913 166C62.513 166.207 62.866 166.811 63.266 166.6C67.7065 164.314 71.9795 161.716 76.053 158.826C76.1178 158.784 76.1681 158.723 76.1969 158.652C76.2258 158.58 76.2317 158.501 76.214 158.426C75.976 156.667 75.127 151.884 76.214 150.554C76.5353 150.287 76.9393 150.14 77.3569 150.139C77.7745 150.137 78.1796 150.281 78.503 150.545C79.633 151.363 80.003 152.999 81.456 156.483C81.4788 156.556 81.5235 156.619 81.5841 156.665C81.6446 156.711 81.718 156.737 81.794 156.74H98.639C95.3503 157.689 92.1777 159.002 89.18 160.655C89.0998 160.702 89.0414 160.779 89.0178 160.868C88.9942 160.958 89.0072 161.054 89.054 161.134C89.1008 161.214 89.1776 161.273 89.2674 161.296C89.3572 161.32 89.4528 161.307 89.533 161.26C93.214 159.26 97.1364 157.741 101.204 156.74H105.333C102.188 158.287 99.2378 160.203 96.545 162.447C96.198 162.736 96.696 163.229 97.045 162.947C100.062 160.441 103.404 158.355 106.981 156.747H109.791C101.317 163.519 94.941 169.583 85.691 175.213C78.005 179.894 68.023 183.647 59.457 180.648ZM110.383 155.979H85.391L91.933 142.994H116.925L110.383 155.979ZM68.976 182.221C84.744 180.443 98.984 166.129 111.018 156.646C111.049 156.62 111.075 156.587 111.093 156.551C111.112 156.515 111.123 156.475 111.126 156.435C111.129 156.394 111.124 156.353 111.111 156.314C111.099 156.276 111.079 156.24 111.052 156.209L117.795 142.821C117.825 142.768 117.84 142.708 117.84 142.647C117.84 142.586 117.824 142.526 117.794 142.473C117.764 142.42 117.72 142.375 117.668 142.344C117.616 142.313 117.556 142.296 117.495 142.294C90.044 142.294 91.553 142.194 91.418 142.467L84.569 156.048H82.03C80.63 152.624 80.105 150.619 78.63 149.806C78.2014 149.55 77.7062 149.427 77.2074 149.453C76.7087 149.479 76.2291 149.654 75.83 149.954C75.2672 150.606 74.9708 151.447 75 152.308C70.2 147.983 67.122 145.608 62.322 140.915C69.231 134.073 88.058 118.731 97.543 118.378C98.249 119.983 98.938 121.988 100.508 123.058C101.231 123.551 102.15 123.523 102.48 122.54C102.679 121.197 102.527 119.826 102.039 118.56C109.339 119.306 111.786 122.646 115.666 128.866C118.644 133.638 122.192 139.709 124.934 144.538C123.82 145.733 121.979 147.745 120.959 149.018C119.939 150.291 120.159 149.902 120.247 151.748C120.27 152.248 121.088 180.413 121.147 182.221H68.976ZM146.788 160.787C144.465 163.481 141.332 164.539 137.788 165.152C132.266 165.972 126.629 165.475 121.335 163.703C121.321 163.175 120.869 150.329 120.869 150.329C122.333 148.398 123.916 146.561 125.609 144.829C125.662 144.773 125.696 144.702 125.706 144.626C125.715 144.55 125.7 144.472 125.663 144.405C124.048 141.554 117.95 131.217 116.512 128.905C114.78 126.116 113.196 123.405 110.72 121.264C110.744 120.416 110.759 119.949 110.743 119.104C110.732 118.467 110.877 118.32 109.937 117.904C108.876 117.439 106.632 117.48 106.16 116.236C106.091 116.019 106.083 115.787 106.137 115.565C106.192 115.344 106.307 115.142 106.47 114.982C107.242 114.136 108.492 114.236 109.532 114.308C109.908 114.334 109.967 113.837 109.708 113.655C109.088 113.297 108.412 113.046 107.708 112.914C105.889 112.396 105.528 111.014 107.575 110.332C108.281 110.129 109.011 110.018 109.746 110.001C109.83 109.999 109.91 109.968 109.972 109.912C110.035 109.857 110.075 109.78 110.086 109.698C110.098 109.615 110.079 109.531 110.034 109.46C109.989 109.39 109.92 109.338 109.84 109.314C109.01 109.089 107.047 108.514 106.483 108.306C106.247 108.217 106 108.106 105.961 107.83C105.772 106.523 107.492 106.35 108.402 106.41C108.939 106.456 109.469 106.559 109.983 106.719C113.501 107.737 117.69 110.266 119.621 113.691C120.622 115.441 120.917 117.507 120.447 119.468C120.427 119.542 120.432 119.621 120.461 119.693C120.49 119.764 120.542 119.824 120.608 119.863C131.353 124.659 140.511 132.417 147.008 142.228C150.652 148 151.161 155.717 146.788 160.787Z"></path><path id="vector_21" fill="#000000" d="M113.417 114.021C112.968 113.984 112.97 114.685 113.417 114.721C114.027 114.773 114.62 114.953 115.156 115.25C115.692 115.547 116.159 115.954 116.526 116.444C116.791 116.803 117.399 116.454 117.131 116.091C116.697 115.499 116.141 115.008 115.5 114.651C114.859 114.294 114.148 114.079 113.417 114.021V114.021Z"></path><path id="vector_22" fill="#000000" d="M115.852 110.761C115.257 110.466 114.632 110.233 113.989 110.066C113.571 109.899 113.389 110.576 113.803 110.741C114.357 110.885 114.897 111.076 115.417 111.314C115.904 111.612 116.334 111.995 116.684 112.446C116.948 112.806 117.556 112.457 117.289 112.092C116.89 111.569 116.404 111.119 115.852 110.761V110.761Z"></path><path id="vector_23" fill="#000000" d="M121.9 100.5C121.741 100.082 121.064 100.263 121.224 100.686C122.568 104.222 124.498 117.486 125.037 121.254C125.293 121.393 125.545 121.537 125.798 121.679C125.253 117.846 123.273 104.114 121.9 100.5Z"></path><path id="vector_24" fill="#000000" d="M131.713 35.5061V30.8001C131.64 29.9645 131.302 29.174 130.75 28.5429C130.197 27.9117 129.458 27.4726 128.64 27.2891C126.44 26.8251 123.672 27.8491 121.628 31.5811C120.969 32.7811 120.406 34.0901 119.076 34.4421C118.136 34.6911 116.755 34.5421 115.116 35.6811C113.058 37.1151 113.281 38.5861 112.597 39.8451C111.957 41.0211 110.997 40.5771 110.043 40.8191C109.57 40.9731 109.139 41.2352 108.784 41.5846C108.429 41.934 108.161 42.3611 108 42.8321C107.986 42.8841 107.985 42.9385 107.995 42.9912C108.006 43.0439 108.028 43.0935 108.061 43.1362C108.093 43.179 108.135 43.2137 108.183 43.2378C108.231 43.2618 108.284 43.2746 108.338 43.2751H131.288C131.381 43.2739 131.471 43.2369 131.538 43.1718C131.605 43.1067 131.644 43.0184 131.648 42.9251V39.9551C133.69 38.8141 133.665 36.6451 131.713 35.5061ZM130.943 42.5751H108.9C110.121 40.5491 111.613 42.1271 112.861 40.6831C113.892 39.4891 113.483 37.9971 115.061 36.5981C116.915 34.9571 118.689 35.5471 119.984 34.8221C121.432 34.0121 121.909 32.2221 123.008 30.6671C124.224 28.9501 126.238 27.4971 128.446 27.9611C129.113 28.1056 129.718 28.455 130.177 28.9605C130.636 29.466 130.925 30.1022 131.004 30.7801V35.1751C130.212 34.8809 129.358 34.7922 128.522 34.9174C127.687 35.0426 126.896 35.3776 126.225 35.8911C125.981 36.0816 125.778 36.3192 125.627 36.5899C125.477 36.8606 125.382 37.1588 125.35 37.4667C125.317 37.7746 125.346 38.0859 125.437 38.3822C125.527 38.6784 125.675 38.9535 125.874 39.1911C126.526 39.8402 127.352 40.2875 128.252 40.4796C129.152 40.6716 130.088 40.6003 130.949 40.2741C130.956 40.5451 130.947 42.0431 130.943 42.5751V42.5751ZM130.336 39.7331C127.365 40.4581 125.024 38.2331 126.469 36.6331C128.2 34.7191 132.469 35.5771 132.469 37.7141C132.473 38.8371 131.3 39.5001 130.336 39.7331V39.7331Z"></path><path id="vector_25" fill="#000000" d="M135.506 37.8421H142.314C142.407 37.8421 142.496 37.8052 142.561 37.7396C142.627 37.6739 142.664 37.5849 142.664 37.4921C142.664 37.3993 142.627 37.3102 142.561 37.2446C142.496 37.179 142.407 37.1421 142.314 37.1421H135.506C135.413 37.1421 135.324 37.179 135.259 37.2446C135.193 37.3102 135.156 37.3993 135.156 37.4921C135.156 37.5849 135.193 37.6739 135.259 37.7396C135.324 37.8052 135.413 37.8421 135.506 37.8421V37.8421Z"></path><path id="vector_26" fill="#000000" d="M135.479 35.941C136.925 34.925 138.392 33.9413 139.879 32.99C140.258 32.749 139.907 32.142 139.525 32.39C138.035 33.3406 136.567 34.3243 135.12 35.341C134.759 35.594 135.109 36.2 135.479 35.941Z"></path><path id="vector_27" fill="#000000" d="M135.273 39.635L139.224 42.641C139.583 42.914 139.932 42.306 139.578 42.041L135.626 39.035C135.268 38.757 134.919 39.365 135.273 39.635Z"></path><path id="vector_28" fill="#000000" d="M128.614 183.777C128.535 183.802 128.466 183.854 128.422 183.924C128.377 183.994 128.358 184.078 128.37 184.16C128.381 184.243 128.421 184.319 128.482 184.375C128.544 184.43 128.624 184.462 128.707 184.465H180.138C180.221 184.463 180.301 184.431 180.363 184.375C180.425 184.319 180.465 184.243 180.476 184.161C180.488 184.078 180.469 183.994 180.425 183.924C180.38 183.854 180.312 183.802 180.232 183.777C172.248 181.983 164.09 181.075 155.906 181.069C146.747 181.179 137.616 182.085 128.614 183.777V183.777ZM176.647 183.764H133.012C147.234 181.611 162.555 181.151 176.647 183.764V183.764Z"></path><path id="vector_29" fill="#000000" d="M167.527 135.474C167.712 135.885 168.316 135.529 168.132 135.121C167.071 132.765 166.119 130.365 165.275 127.921C165.129 127.498 164.452 127.68 164.6 128.107C165.463 130.605 166.439 133.061 167.527 135.474Z"></path><path id="vector_30" fill="#000000" d="M184.88 27.205C184.627 26.835 184.019 27.185 184.28 27.559C185.547 29.4602 186.212 31.6991 186.188 33.9837C186.164 36.2683 185.452 38.4927 184.146 40.367C183.884 40.734 184.491 41.085 184.751 40.721C186.12 38.7387 186.864 36.3918 186.887 33.9828C186.91 31.5738 186.211 29.2131 184.88 27.205Z"></path><path id="vector_31" fill="#000000" d="M187.149 24.976C186.895 24.606 186.288 24.956 186.549 25.329C188.256 27.8924 189.152 30.9104 189.12 33.9901C189.088 37.0698 188.13 40.0686 186.37 42.596C186.107 42.963 186.714 43.314 186.97 42.95C188.793 40.3151 189.784 37.1943 189.816 33.9905C189.848 30.7866 188.919 27.6468 187.149 24.976V24.976Z"></path><path id="vector_32" fill="#000000" d="M191.641 22.637C191.387 22.268 190.78 22.618 191.041 22.991C193.212 26.2483 194.351 30.0839 194.31 33.998C194.27 37.9121 193.051 41.7232 190.814 44.935C190.551 45.302 191.158 45.652 191.414 45.288C193.711 41.9675 194.961 38.0348 195.001 33.9973C195.042 29.9598 193.871 26.0028 191.641 22.637V22.637Z"></path><path id="vector_33" fill="#000000" d="M147.266 102.681H142.866C142.778 102.688 142.695 102.727 142.635 102.792C142.575 102.857 142.542 102.942 142.542 103.031C142.542 103.119 142.575 103.205 142.635 103.27C142.695 103.334 142.778 103.374 142.866 103.381H147.266C147.354 103.374 147.437 103.334 147.497 103.27C147.557 103.205 147.591 103.119 147.591 103.031C147.591 102.942 147.557 102.857 147.497 102.792C147.437 102.727 147.354 102.688 147.266 102.681V102.681Z"></path><path id="vector_34" fill="#000000" d="M147.634 66.4309C147.629 66.3388 147.589 66.2521 147.522 66.1887C147.455 66.1252 147.367 66.0898 147.275 66.0898C147.182 66.0898 147.094 66.1252 147.027 66.1887C146.96 66.2521 146.92 66.3388 146.915 66.4309C146.915 67.1309 146.953 87.5309 146.953 87.5439C146.958 87.631 146.996 87.713 147.059 87.773C147.122 87.833 147.206 87.8664 147.294 87.8664C147.381 87.8664 147.465 87.833 147.528 87.773C147.591 87.713 147.629 87.631 147.634 87.5439C147.631 84.1359 147.649 74.7189 147.634 66.4309Z"></path><path id="vector_35" fill="#000000" d="M184.1 180.88C178.371 151.486 170.612 131.307 159.068 103.248C166.505 99.448 169.1 92.702 170.325 84.312C171.485 76.0223 171.536 67.6151 170.476 59.312C169.917 54.4685 167.999 49.882 164.944 46.082C162.798 43.6754 160.477 41.4303 158 39.365V37.627L182.231 51.107C182.284 51.1368 182.344 51.1524 182.405 51.1522C182.466 51.152 182.526 51.136 182.579 51.1059C182.632 51.0757 182.677 51.0323 182.708 50.9799C182.739 50.9276 182.757 50.868 182.758 50.807C182.758 14.985 182.777 15.92 182.747 15.816C182.739 15.7678 182.721 15.722 182.693 15.6816C182.666 15.6412 182.63 15.6071 182.588 15.5818C182.546 15.5565 182.5 15.5404 182.451 15.5348C182.403 15.5291 182.353 15.534 182.307 15.549C182.161 15.585 155.561 28.367 155.382 28.461C154.467 28.9453 153.701 29.6696 153.166 30.5564C152.632 31.4431 152.349 32.4586 152.348 33.494V39.544C152.009 39.0331 151.488 38.6704 150.891 38.5298C150.294 38.3892 149.666 38.4811 149.135 38.787C148.071 39.532 148.258 40.845 148.252 41.977C148.228 46.401 147.2 60.085 146.752 63.124C143.868 56.251 139.115 47.593 131.685 46.762C126.908 46.228 122.048 47.792 119.307 51.955C118.267 53.535 117.717 55.039 114.681 64.924C112.474 72.11 110.6 78.817 108.694 85.749C108.681 85.801 108.679 85.8553 108.69 85.9079C108.7 85.9606 108.723 86.0101 108.755 86.0528C108.788 86.0954 108.83 86.1302 108.878 86.1543C108.926 86.1784 108.978 86.1913 109.032 86.192H113.725V107.524C113.96 107.647 114.195 107.772 114.425 107.904V86.189H119.56C119.855 88.3508 120.436 90.464 121.287 92.473C125.787 102.673 138.311 109.338 152.864 105.549C154.778 105.062 156.642 104.397 158.432 103.562C170.404 132.651 177.764 152.204 183.337 180.623H131.921C131.757 175.823 131.367 170.991 130.947 166.208C130.714 166.195 130.478 166.184 130.247 166.166C130.661 170.836 131.06 175.918 131.223 180.623H121.8C121.807 180.856 121.813 181.089 121.82 181.323H183.76C183.814 181.322 183.867 181.31 183.915 181.286C183.963 181.262 184.005 181.227 184.038 181.184C184.07 181.141 184.093 181.092 184.104 181.039C184.115 180.987 184.113 180.932 184.1 180.88V180.88ZM153.049 33.4C153.049 32.4788 153.309 31.5763 153.8 30.7967C154.291 30.0171 154.992 29.3922 155.823 28.994L182.056 16.429V50.209L157.827 36.729C157.774 36.6992 157.714 36.6836 157.653 36.6838C157.592 36.684 157.532 36.7 157.479 36.7301C157.426 36.7603 157.381 36.8037 157.35 36.8561C157.319 36.9084 157.302 36.968 157.3 37.029V43.061C157.064 43.3049 156.777 43.4935 156.459 43.6132C156.141 43.733 155.801 43.7809 155.463 43.7535C155.124 43.7262 154.796 43.6243 154.502 43.4551C154.207 43.2859 153.954 43.0537 153.76 42.775C153.552 42.4095 153.402 42.0142 153.315 41.603C152.958 40.393 153.049 42.157 153.049 33.4ZM119.51 62.025C119.21 70.392 118.434 77.838 119.456 85.488H109.489C112.059 76.135 114.417 67.842 117.407 58.588C118.248 55.988 118.931 53.274 120.771 51.167C123.471 48.08 127.771 47.02 131.682 47.458C138.214 48.182 142.645 55.682 145.358 61.667C126.993 61.667 121.685 61.579 120.145 61.712C119.5 61.771 119.516 61.866 119.51 62.025ZM156.458 103.647C139.618 110.247 123.676 101.884 120.629 88.2C118.908 80.472 119.887 70.392 120.195 62.375C120.195 62.375 145.411 62.409 145.688 62.392C145.988 63.0767 146.278 63.7653 146.558 64.458C146.675 64.751 147.148 64.828 147.233 64.458C147.733 62.281 148.433 52.158 148.574 49.947C149.208 40.11 148.759 40.612 149.117 39.854C149.506 39.028 150.661 38.794 151.617 39.766C152.209 40.5007 152.61 41.3712 152.782 42.299C153.621 45.19 157.546 44.868 158.096 43.02C158.237 42.1406 158.225 41.2434 158.061 40.368C162.044 44.003 162.785 44.568 164.418 46.588C164.358 46.5875 164.298 46.603 164.246 46.6329C164.193 46.6627 164.15 46.7059 164.119 46.7581C164.089 46.8102 164.073 46.8695 164.072 46.9299C164.072 46.9903 164.088 47.0497 164.118 47.102C165.26 49.0149 165.863 51.2019 165.86 53.43C165.86 53.5228 165.897 53.6118 165.963 53.6775C166.028 53.7431 166.117 53.78 166.21 53.78C166.303 53.78 166.392 53.7431 166.458 53.6775C166.523 53.6118 166.56 53.5228 166.56 53.43C166.562 51.4041 166.091 49.4057 165.184 47.594C166.986 50.0803 168.319 52.8753 169.116 55.841C170.384 60.653 170.944 71.486 170.132 80.041C169.473 86.984 168.121 94.806 163.063 99.641C161.142 101.392 158.899 102.752 156.458 103.647V103.647Z"></path><path id="vector_36" fill="#000000" d="M120.118 59.9711V55.1561C120.111 55.0678 120.072 54.9853 120.007 54.9252C119.942 54.865 119.857 54.8315 119.768 54.8315C119.68 54.8315 119.594 54.865 119.529 54.9252C119.464 54.9853 119.425 55.0678 119.418 55.1561V59.9711C119.425 60.0593 119.464 60.1418 119.529 60.202C119.594 60.2622 119.68 60.2956 119.768 60.2956C119.857 60.2956 119.942 60.2622 120.007 60.202C120.072 60.1418 120.111 60.0593 120.118 59.9711V59.9711Z"></path><path id="vector_37" fill="#000000" d="M66.254 61.587C67.632 61.4784 69.0077 61.3404 70.381 61.173C70.823 61.119 70.828 60.418 70.381 60.473C69.0077 60.639 67.632 60.7767 66.254 60.886C65.808 60.922 65.8 61.622 66.254 61.587Z"></path><path id="vector_38" fill="#000000" d="M77.166 56.7179C76.5627 56.5183 75.9132 56.5051 75.3022 56.6801C74.6913 56.8551 74.1472 57.2101 73.741 57.6989C71.971 59.6199 72.252 63.1549 74.095 64.3359C75.585 65.2899 77.595 64.3359 78.467 62.9879C79.839 60.8629 79.413 57.6219 77.166 56.7179ZM78.456 59.3669C76.768 59.5459 75.079 59.7009 73.389 59.8579C74.146 56.7549 77.694 56.1859 78.456 59.3669V59.3669ZM73.277 60.5789C75.032 60.4159 76.788 60.2699 78.539 60.0719C78.67 64.6639 72.914 65.7289 73.277 60.5789V60.5789Z"></path><path id="vector_39" fill="#000000" d="M12.281 109.422C12.04 109.042 11.434 109.393 11.676 109.775L13.798 113.126C14.039 113.506 14.645 113.155 14.403 112.773L12.281 109.422Z"></path><path id="vector_40" fill="#000000" d="M61.275 123.839L56.327 123.671C55.876 123.656 55.876 124.356 56.327 124.371L61.275 124.539C61.726 124.555 61.726 123.855 61.275 123.839Z"></path><path id="vector_41" fill="#000000" d="M87.439 69.4669C85.8243 69.2254 84.1887 69.154 82.559 69.2539C74.131 69.4079 64.177 70.4419 56.139 73.0929C50.6846 74.0212 45.2943 75.2927 40 76.8999C32.787 79.1779 25.446 81.6579 19.244 86.1129C13.893 89.9569 9.36401 95.4569 7.83801 101.977C6.40401 108.103 7.95301 115.277 13.161 119.212C16.661 121.857 22.484 123.219 26.903 123.286C24.033 140.378 24.203 139.316 24.274 139.474C24.2476 139.526 24.2351 139.585 24.2375 139.644C24.24 139.702 24.2575 139.759 24.2882 139.809C24.319 139.86 24.362 139.901 24.4133 139.93C24.4645 139.958 24.5222 139.974 24.581 139.974H51C45.3862 143.246 39.9818 146.865 34.818 150.81C34.3907 147.287 33.7664 143.79 32.948 140.337C32.848 139.899 32.168 140.084 32.272 140.523C33.1157 144.076 33.7551 147.674 34.187 151.3C23.1566 159.815 13.3579 169.816 5.07001 181.018C4.80201 181.38 5.41001 181.73 5.67001 181.371C18.2097 164.481 34.1237 150.383 52.402 139.971H62.533C62.779 139.737 63.0257 139.504 63.273 139.271H24.94C26.833 127.19 28.404 117.413 31.407 106.666C36.855 116.726 40.657 124.392 51.707 127.076C65.407 130.404 78.369 122.942 86.052 110.59C90.739 103.053 93.03 94.3299 94.152 85.4899C94.1522 85.4291 94.1363 85.3693 94.1059 85.3166C94.0755 85.2639 94.0317 85.2202 93.979 85.1899C82.879 77.8519 80.162 75.9609 79.395 75.5419C79.09 75.3749 79.095 75.4419 79.002 75.4909C76.464 76.8539 73.832 78.3269 71.343 79.7909C67.3 76.9629 60.623 77.4519 55.8 78.4539C51.612 79.3229 47.788 80.7279 42.766 82.2949C42.633 82.2809 42.474 82.2689 42.343 82.2569C46.791 76.7389 55.12 73.7929 61.991 72.2309C72.369 69.8709 84.891 69.6639 87.353 70.1619C91.641 71.0279 95.284 74.1569 96.253 78.1619C96.705 80.0319 96.444 81.8769 95.653 87.3989C94.079 98.3629 91.782 109.519 89.318 120.185C89.588 120.055 89.861 119.934 90.134 119.81C93.1365 107.172 95.4678 94.3842 97.118 81.4999C97.81 75.5429 93.179 70.5789 87.439 69.4669ZM54.048 79.5759C60.555 77.9359 69.69 77.1289 73.255 82.7669C75.7615 87.1803 76.4775 92.3878 75.255 97.3139C75.1947 97.7571 75.0443 98.1833 74.8132 98.5663C74.5821 98.9493 74.2751 99.281 73.911 99.5409C73.7344 99.6466 73.5372 99.7134 73.3328 99.737C73.1283 99.7607 72.9211 99.7405 72.725 99.6779C71.58 99.2389 70.771 95.5179 70.572 94.3049C70.507 93.9119 69.878 94.0109 69.884 94.3979C69.92 96.6699 70.007 102.541 67.884 103.38C66.62 103.88 65.065 103.28 64.551 99.9939C64.3776 98.865 64.2864 97.725 64.278 96.5829C64.278 96.2029 63.658 96.0829 63.59 96.4899C63.3631 98.0656 63.0028 99.6192 62.513 101.134C61.904 102.518 60.53 104.157 58.83 103.78C57.322 103.446 57.384 101.767 57.324 100.537C57.2671 97.5403 56.7042 94.5749 55.659 91.7659C53.57 86.6549 49.596 83.7609 44.251 82.5659C47.5 81.5199 50.736 80.4099 54.048 79.5759ZM53.269 88.8809C57.003 94.0059 56.449 101.063 56.783 102.487C56.8633 102.881 57.0339 103.252 57.2816 103.569C57.5293 103.886 57.8472 104.141 58.2103 104.315C58.5735 104.488 58.9719 104.575 59.3742 104.568C59.7766 104.561 60.1719 104.461 60.529 104.276C61.3093 103.907 61.975 103.334 62.455 102.617C63.1182 101.624 63.564 100.501 63.763 99.3239C63.8323 100.278 64.0238 101.219 64.333 102.124C64.5402 102.78 64.9694 103.343 65.5469 103.716C66.1243 104.09 66.8139 104.251 67.497 104.171C69.727 103.971 70.277 100.849 70.475 98.6209C70.624 96.9509 70.448 96.9519 70.728 97.7369C70.932 98.7079 71.4611 99.5803 72.228 100.21C72.6272 100.404 73.0757 100.474 73.5149 100.409C73.9541 100.344 74.3637 100.149 74.69 99.8479C75.3664 99.1731 75.8126 98.3021 75.965 97.3589C76.9664 93.1739 76.6446 88.7813 75.044 84.7869C74.408 83.0384 73.3439 81.4772 71.949 80.2459C73.254 79.4769 74.842 78.5179 79.163 76.1919C82.114 78.1399 91.62 84.4579 93.431 85.6549C92.431 93.4819 90.453 101.31 86.613 108.255C83.3698 114.316 78.5839 119.414 72.739 123.033C63.039 128.81 51.913 128.138 44.439 123.18C38.539 119.264 35.512 112.636 31.039 104.5C31.039 104.5 23.846 91.3839 23.786 91.2859C34.314 79.7159 47.782 81.3649 53.269 88.8809ZM42.527 80.9439C42.178 81.3099 41.812 81.7919 41.489 82.2009C34.326 81.9579 27.728 85.7589 22.982 91.1279C22.9363 91.1768 22.9054 91.2376 22.8928 91.3033C22.8802 91.3691 22.8866 91.437 22.9111 91.4993C22.9356 91.5616 22.9772 91.6157 23.0312 91.6552C23.0852 91.6948 23.1492 91.7183 23.216 91.7229C25.328 95.5669 30.922 105.769 30.927 105.778C29.3409 111.311 28.0392 116.922 27.027 122.589C24.3955 122.538 21.7837 122.122 19.266 121.355C15.766 120.295 12.896 118.763 10.809 115.771C6.25401 109.242 6.76201 98.5649 15.993 89.7099C22.578 83.3929 31.553 80.2979 40.184 77.5719C44.075 76.3459 48.225 75.4029 52.23 74.5719C48.6026 76.0266 45.3033 78.1932 42.527 80.9439V80.9439Z"></path><path id="vector_42" fill="#000000" d="M21.915 91.5351C19.2708 92.0074 16.7576 93.038 14.543 94.5581C14.173 94.8121 14.523 95.4191 14.896 95.1581C17.058 93.6718 19.5129 92.6653 22.096 92.2061C22.544 92.1321 22.356 91.4571 21.915 91.5351Z"></path><path id="vector_43" fill="#000000" d="M61.672 88.994C61.472 88.594 60.866 88.945 61.072 89.347C61.7334 90.6749 62.2066 92.0885 62.478 93.547C62.561 93.989 63.236 93.802 63.153 93.361C62.8644 91.8436 62.3659 90.3739 61.672 88.994Z"></path><path id="vector_44" fill="#000000" d="M68.887 87.1999C69.3121 88.694 69.5749 90.2295 69.671 91.7799C69.698 92.2279 70.399 92.2309 70.371 91.7799C70.2731 90.1668 70.0019 88.569 69.562 87.0139C69.5374 86.9244 69.4781 86.8484 69.3974 86.8025C69.3167 86.7567 69.221 86.7448 69.1315 86.7694C69.042 86.7941 68.966 86.8533 68.9201 86.934C68.8743 87.0148 68.8624 87.1104 68.887 87.1999V87.1999Z"></path><path id="vector_45" fill="#000000" d="M84.644 72.223L80.412 74.4059C80.012 74.6129 80.366 75.2179 80.766 75.0059L85 72.827C85.4 72.621 85.044 72.016 84.644 72.223Z"></path><path id="vector_46" fill="#000000" d="M94.723 83.628L95.643 79.456C95.743 79.016 95.064 78.829 94.967 79.269L94.048 83.442C93.951 83.881 94.626 84.069 94.723 83.628Z"></path></g></g></g></svg>