<svg xmlns="http://www.w3.org/2000/svg" fill="none" viewBox="0 0 110 110"><path fill="#000001" d="M96.3599 71.9708C94.5378 68.9794 94.7738 67.3349 93.6463 65.5023C93.329 64.9027 92.8118 64.4332 92.1846 64.175C91.5573 63.9168 90.8594 63.8863 90.2121 64.0888C89.5641 64.3624 88.988 64.7816 88.5283 65.314C88.0686 65.8463 87.7379 66.4774 87.5616 67.1583C87.032 68.8595 87.2498 70.6569 87.4907 72.3899C90.6218 71.4886 93.9663 71.6782 96.9754 72.9278C96.7713 72.6077 96.5568 72.2948 96.3599 71.9708ZM92.4731 67.9949C92.4146 68.3925 92.238 68.7635 91.9662 69.0596C91.6943 69.3557 91.3398 69.5633 90.9486 69.6554C90.5573 69.7476 90.1474 69.7201 89.772 69.5765C89.3966 69.4329 89.073 69.1799 88.8431 68.8501C88.6654 68.5765 88.5536 68.2654 88.5165 67.9413C88.4795 67.6171 88.5181 67.2888 88.6295 66.9821C88.7409 66.6755 88.9219 66.3988 89.1583 66.174C89.3948 65.9492 89.6802 65.7823 89.992 65.6865C91.3043 65.3835 92.565 66.6331 92.4726 67.9949H92.4731Z"></path><path fill="#A5A538" d="M56.815 32.6199C56.8029 32.5722 56.8085 32.5218 56.8309 32.4779C56.8532 32.4341 56.8908 32.3999 56.9366 32.3818C56.7435 32.3988 40.8557 38.0704 29.2716 38.1425C29.2478 38.1426 29.2243 38.1473 29.2023 38.1562C32.3059 38.17 49.8586 44.4378 59.8312 45.7836C58.3 39.4707 57.8457 36.6168 56.815 32.6199Z"></path><path fill="#FF9494" d="M88.7815 27.1529C88.5203 26.5401 88.0516 26.0389 87.4577 25.7372C86.0981 27.2024 85.234 28.1292 82.6798 30.6498C82.8509 30.7811 83.0468 30.8763 83.2557 30.9297C83.4647 30.9832 83.6822 30.9937 83.8953 30.9606C84.1929 30.9105 84.3188 31.3615 84.0207 31.416C83.7497 31.4683 83.4707 31.4639 83.2014 31.4032C82.9321 31.3424 82.6783 31.2265 82.456 31.0629C82.4188 31.0348 82.3888 30.9982 82.3685 30.9562C80.8863 32.4159 79.1235 34.4333 77.1529 33.8486C76.337 33.5486 75.5878 33.0918 74.9474 32.5039C74.42 32.0402 73.9165 31.5501 73.4387 31.0354C73.753 32.3811 73.644 33.7909 73.1269 35.0724C73.8424 35.2677 74.4531 35.7352 74.8286 36.3748C74.8442 36.4016 74.8544 36.4311 74.8586 36.4618C74.8628 36.4925 74.861 36.5238 74.8531 36.5538C74.8452 36.5837 74.8315 36.6119 74.8128 36.6366C74.7941 36.6613 74.7706 36.682 74.7439 36.6976C74.7171 36.7133 74.6875 36.7235 74.6568 36.7277C74.6261 36.7319 74.5949 36.73 74.5649 36.7222C74.5349 36.7143 74.5068 36.7006 74.4821 36.6819C74.4574 36.6631 74.4367 36.6397 74.421 36.6129C74.2388 36.3143 73.9953 36.0577 73.7066 35.86C73.4179 35.6623 73.0906 35.5281 72.7463 35.4662C72.7118 35.4561 72.68 35.4383 72.6533 35.4142C72.6266 35.3901 72.6057 35.3603 72.5922 35.327C72.5786 35.2936 72.5728 35.2577 72.5751 35.2218C72.5774 35.1859 72.5878 35.151 72.6055 35.1197C73.2599 33.6812 73.3322 32.0453 72.8073 30.5547C72.7959 30.5239 72.7919 30.4908 72.7956 30.4581C72.7993 30.4255 72.8107 30.3941 72.8288 30.3667C72.8469 30.3393 72.8713 30.3165 72.8998 30.3002C72.9284 30.284 72.9604 30.2747 72.9932 30.2731C73.817 29.4447 74.456 28.4512 74.8682 27.3581C75.048 26.8461 75.086 26.2949 74.9782 25.7631C74.9588 25.6868 74.9345 25.6119 74.9056 25.5387C74.5965 24.8726 73.5927 24.5795 72.5763 25.1504C71.5515 25.7229 70.5787 26.3839 69.669 27.126C67.8623 28.655 63.8896 30.25 61.688 31.13C61.4751 31.2147 61.303 30.91 61.4746 30.7323C57.8495 32.1414 57.0966 32.2861 56.9371 32.3823C56.8913 32.4005 56.8538 32.4347 56.8314 32.4785C56.809 32.5223 56.8034 32.5728 56.8155 32.6205C57.8644 36.6905 58.4105 39.9663 59.8317 45.7842C60.1095 45.8216 60.3883 45.8551 60.6666 45.8848C63.7787 44.9006 66.8184 43.7007 69.7636 42.2939C71.5758 39.9443 73.6821 37.8371 76.0309 36.0239C76.4714 35.6889 77.0005 35.4905 77.5527 35.4533C78.1048 35.416 78.6558 35.5416 79.1373 35.8143C79.4649 36.0151 79.7667 36.2553 80.036 36.5293C81.2091 37.6728 81.4264 37.8834 82.2151 38.7656C82.5726 38.7541 82.9532 38.7431 83.3085 38.7029C83.4987 38.6961 83.6856 38.6516 83.8585 38.572C84.1042 38.4347 84.3135 38.2405 84.469 38.0059C84.6245 37.7712 84.7216 37.5028 84.7523 37.223C84.7831 36.9431 84.7465 36.66 84.6456 36.3972C84.5448 36.1344 84.3826 35.8995 84.1725 35.712C85.3968 35.7511 86.5276 34.7534 86.4308 33.5868C86.3739 33.2184 86.2438 32.865 86.0483 32.5476C85.8528 32.2301 85.5957 31.955 85.2923 31.7383C87.8581 31.8631 89.8221 29.5515 88.7815 27.1529ZM67.595 39.347C67.8492 40.0573 67.9584 40.8114 67.9162 41.5646C67.8997 41.8676 67.4272 41.8682 67.4443 41.5646C67.4839 40.8545 67.3803 40.1438 67.1396 39.4746C67.0362 39.1858 67.4927 39.0632 67.595 39.347ZM82.6353 35.4029C82.2041 35.4279 81.7732 35.3502 81.3778 35.1763C80.9825 35.0024 80.634 34.7372 80.361 34.4025C80.3179 34.3576 80.2938 34.2978 80.2938 34.2356C80.2938 34.1733 80.3179 34.1135 80.361 34.0686C80.4054 34.0245 80.4654 33.9997 80.528 33.9997C80.5905 33.9997 80.6506 34.0245 80.6949 34.0686C80.9252 34.3578 81.2218 34.5871 81.5596 34.7372C81.8974 34.8873 82.2664 34.9538 82.6353 34.931C82.94 34.9123 82.9367 35.3853 82.6347 35.4029H82.6353Z"></path><path fill="#B6DBFF" d="M103.835 84.3904C103.447 79.4624 101.466 74.9436 96.9749 72.9278C93.9656 71.6788 90.6213 71.4892 87.4901 72.3899C81.6024 73.964 77.9169 78.5246 75.5755 84.1979C78.2088 84.7389 80.607 86.0901 82.434 88.0622L83.2111 85.2533C81.2141 84.1533 80.1982 81.0997 81.6453 78.6907C81.7789 78.4674 82.1315 78.6726 81.9945 78.8948C80.6074 81.1454 81.6602 84.0411 83.5505 84.9805C83.5887 84.9969 83.6194 85.0268 83.6369 85.0644C83.6544 85.1021 83.6573 85.1449 83.6451 85.1846C83.6451 85.2396 83.6605 85.1483 82.7557 88.4169C83.687 89.4808 84.4676 90.6676 85.0756 91.9441C89.0956 86.8324 96.7411 84.4861 101.734 88.1001C102.623 88.7487 103.403 89.535 104.044 90.4294C104.053 88.4131 103.993 86.3957 103.835 84.3904ZM102.342 84.8172C102.213 85.6691 101.633 86.6965 100.641 86.5772C100.216 86.5152 99.8021 86.3951 99.4103 86.2202C98.301 85.709 97.1259 85.3547 95.9189 85.1675C95.3275 85.1232 94.7329 85.1592 94.1512 85.2748C93.4335 85.4035 92.7212 85.5591 92.0128 85.7373C91.7776 85.8164 91.5278 85.8421 91.2814 85.8124C91.0351 85.7828 90.7984 85.6986 90.5887 85.566C90.379 85.4334 90.2014 85.2557 90.069 85.0459C89.9366 84.8361 89.8527 84.5993 89.8233 84.353C89.705 83.4015 90.5003 82.7987 91.4182 81.0304C91.637 80.5086 91.9138 80.0131 92.2432 79.5531C92.5812 79.0716 93.0173 78.6671 93.5227 78.366C94.0281 78.0649 94.5915 77.8742 95.1758 77.8063C96.4532 77.757 97.7159 78.0919 98.8009 78.7677C101.475 80.2885 102.63 82.9263 102.342 84.8172V84.8172Z"></path><path fill="#FFE780" d="M106.63 96.9364C105.935 92.6244 103.954 89.7066 101.735 88.1001C97.4226 84.9783 91.1691 86.3654 87.1321 89.8051C86.378 90.448 85.6896 91.1641 85.0768 91.9429C86.9116 95.7176 87.5441 100.483 87.516 104.659C87.5155 104.713 87.494 104.764 87.4561 104.802C87.4183 104.84 87.3671 104.861 87.3136 104.862H107.015C107.069 104.862 107.12 104.841 107.158 104.803C107.196 104.765 107.218 104.713 107.218 104.659C107.211 102.074 107.015 99.4929 106.63 96.9364Z"></path><path fill="#E6DEFF" d="M82.7558 88.4169L82.7415 88.4681C82.7269 88.5198 82.6924 88.5636 82.6455 88.5898C82.5986 88.6161 82.5432 88.6226 82.4915 88.608C82.4398 88.5934 82.396 88.5589 82.3697 88.512C82.3435 88.4652 82.3369 88.4098 82.3515 88.3581C82.3774 88.2585 82.4065 88.1595 82.434 88.06C81.1544 86.6933 79.5982 85.6152 77.8691 84.8973C76.1399 84.1795 74.2777 83.8385 72.4064 83.897C67.4971 84.0301 62.5713 87.4792 59.554 91.432C59.6272 91.5563 64.2598 99.4994 65.2075 101.187C65.2247 101.218 65.2336 101.252 65.2333 101.288C65.2331 101.323 65.2237 101.358 65.2061 101.388C65.1885 101.419 65.1633 101.445 65.1328 101.463C65.1024 101.481 65.0679 101.49 65.0326 101.491C65.0183 101.491 65.0034 101.491 64.9891 101.491C64.6707 101.516 64.6591 101.491 63.3122 101.491C65.5698 102.142 67.7079 103.152 69.6443 104.483C69.6814 104.506 69.7099 104.541 69.7259 104.582C69.7418 104.622 69.7442 104.667 69.7327 104.709C69.7212 104.751 69.6965 104.789 69.6622 104.816C69.6279 104.843 69.5857 104.858 69.542 104.86H87.3125C87.366 104.859 87.4172 104.838 87.455 104.8C87.4928 104.762 87.5143 104.711 87.5149 104.657C87.5523 99.0655 86.4545 92.6156 82.7558 88.4169ZM78.705 104.661C78.6753 103.348 78.705 99.1903 78.3849 95.3777C78.3635 95.1176 78.7699 95.1198 78.7897 95.3777C79.0845 98.9197 79.1109 104.577 79.1098 104.661C79.1098 104.714 79.0885 104.766 79.0505 104.804C79.0126 104.842 78.9611 104.863 78.9074 104.863C78.8537 104.863 78.8023 104.842 78.7643 104.804C78.7263 104.766 78.705 104.714 78.705 104.661Z"></path><path fill="#F9BBBB" d="M89.8634 44.7816C89.6533 44.7816 74.5927 45.7908 71.2481 45.9151C68.4272 46.0202 65.4891 46.0851 62.6549 46.0213C62.7649 46.0213 62.859 46.106 62.8502 46.2776C62.111 51.0048 61.4939 56.8497 61.2684 58.6267C69.5987 58.2852 84.4234 52.1818 90.3238 47.4507C90.6426 47.2421 90.8988 46.9509 91.0652 46.6081C91.1352 46.4085 91.1581 46.1953 91.1323 45.9854C91.1065 45.7754 91.0326 45.5742 90.9163 45.3975C90.8 45.2207 90.6445 45.0732 90.4619 44.9664C90.2793 44.8595 90.0745 44.7963 89.8634 44.7816ZM79.6334 50.4224C78.964 50.8847 78.2343 51.253 77.4648 51.5169C74.8565 52.5715 72.1223 53.2833 69.3308 53.6344C69.2682 53.6342 69.2082 53.6092 69.1639 53.5649C69.1197 53.5206 69.0949 53.4605 69.0949 53.3979C69.0964 53.3358 69.1218 53.2766 69.1657 53.2327C69.2096 53.1888 69.2687 53.1634 69.3308 53.1619C72.1838 52.7947 74.975 52.0482 77.6303 50.9421C78.3215 50.7073 78.9656 50.3518 79.5328 49.8922C80.5679 48.922 79.9948 47.4397 77.891 47.2819C76.8053 47.201 71.731 47.206 66.643 47.5739C66.3394 47.5959 66.3416 47.1235 66.643 47.102C69.8942 46.8666 73.1341 46.7581 76.3626 46.7764C77.2748 46.7041 78.1927 46.7952 79.073 47.0454C80.5838 47.6262 81.1184 49.269 79.6334 50.4224Z"></path><path fill="#FF9494" d="M66.643 47.575C69.503 47.3682 72.3322 47.261 75.1553 47.2489C76.0634 47.245 76.9846 47.2153 77.891 47.283C80.0173 47.4425 80.558 48.9329 79.5328 49.8933C78.9656 50.3529 78.3215 50.7084 77.6303 50.9432C74.9749 52.049 72.1837 52.7955 69.3308 53.163C69.2687 53.1645 69.2096 53.1899 69.1657 53.2338C69.1217 53.2777 69.0964 53.3369 69.0949 53.399C69.0949 53.4616 69.1197 53.5217 69.1639 53.566C69.2082 53.6103 69.2682 53.6353 69.3308 53.6355C72.1223 53.2846 74.8565 52.5728 77.4648 51.518C78.2343 51.2541 78.964 50.8858 79.6334 50.4235C79.9184 50.235 80.1489 49.9752 80.3022 49.6698C80.4554 49.3645 80.526 49.0243 80.5068 48.6833C80.4361 48.3071 80.2657 47.9568 80.0135 47.669C79.7613 47.3811 79.4365 47.1661 79.073 47.0465C78.1927 46.7963 77.2748 46.7052 76.3626 46.7775C73.2336 46.7605 69.9958 46.8606 66.643 47.1031C66.3416 47.1235 66.3394 47.5959 66.643 47.575Z"></path><path fill="#000001" d="M69.6443 104.486C67.7081 103.155 65.5699 102.145 63.3122 101.494H46.8699C44.6032 102.132 42.4079 103 40.3183 104.086C40.2793 104.106 39.5758 104.475 39.545 104.506C39.5137 104.533 39.4911 104.568 39.4804 104.607C39.4696 104.647 39.471 104.689 39.4846 104.728C39.4981 104.766 39.5231 104.8 39.5561 104.824C39.5892 104.848 39.6289 104.862 39.6699 104.863H69.542C69.5857 104.862 69.6279 104.846 69.6622 104.819C69.6965 104.792 69.7212 104.755 69.7327 104.713C69.7442 104.67 69.7418 104.626 69.7258 104.585C69.7099 104.544 69.6813 104.51 69.6443 104.486V104.486Z"></path><path fill="#000001" d="M32.9566 104.486C31.0096 103.174 28.8747 102.165 26.625 101.494C8.99361 101.494 10.29 101.459 9.92421 101.566C7.47623 102.278 5.11406 103.257 2.88036 104.486C2.84751 104.506 2.82114 104.536 2.80436 104.57C2.78758 104.605 2.7811 104.644 2.78566 104.682C2.79023 104.721 2.80566 104.757 2.83014 104.787C2.85462 104.817 2.88712 104.839 2.92381 104.851C2.97881 104.871 1.62691 105.337 32.8543 104.863C32.898 104.862 32.9401 104.846 32.9744 104.819C33.0088 104.792 33.0335 104.755 33.0449 104.712C33.0564 104.67 33.054 104.625 33.0381 104.585C33.0222 104.544 32.9936 104.509 32.9566 104.486V104.486Z"></path><path fill="#FFC431" d="M85.1757 16.9796C83.2986 14.9369 81.1371 13.0438 78.3623 13.1213C75.6239 13.1983 72.9619 14.8346 71.2541 16.9796C71.2274 17.0084 71.2095 17.0444 71.2025 17.0831C71.1956 17.1218 71.1999 17.1617 71.2149 17.1981C71.23 17.2345 71.2551 17.2657 71.2874 17.2882C71.3197 17.3107 71.3578 17.3235 71.3971 17.325H85.03C85.0698 17.3245 85.1085 17.3123 85.1415 17.2901C85.1745 17.2679 85.2003 17.2366 85.2158 17.1999C85.2313 17.1633 85.2357 17.1229 85.2286 17.0838C85.2215 17.0446 85.2031 17.0084 85.1757 16.9796V16.9796Z"></path><path fill="#A982F4" d="M65.2074 101.19C64.0772 99.1782 50.2177 75.488 49.4884 73.9189C49.5054 73.9497 49.5142 73.9844 49.5139 74.0197C49.5136 74.0549 49.5043 74.0894 49.4868 74.12C49.4693 74.1505 49.4442 74.1761 49.4139 74.1941C49.3837 74.2122 49.3493 74.2221 49.3141 74.223C48.8427 74.228 14.6019 74.223 14.3291 74.223C14.2982 74.2226 14.2677 74.2152 14.24 74.2012C14.2124 74.1873 14.1882 74.1673 14.1695 74.1426C14.1507 74.118 14.1378 74.0894 14.1317 74.059C14.1257 74.0286 14.1266 73.9972 14.1344 73.9673C12.8029 79.2627 6.98939 100.691 6.83869 101.238C6.83083 101.269 6.82991 101.3 6.83601 101.33C6.84211 101.361 6.85507 101.389 6.87389 101.414C6.89272 101.439 6.91692 101.459 6.94465 101.473C6.97238 101.487 7.00292 101.494 7.03394 101.494H31.9445C31.9982 101.494 32.0496 101.473 32.0875 101.435C32.1254 101.397 32.1468 101.345 32.1469 101.292C32.1436 99.957 31.8169 87.423 31.79 86.6338C31.8032 86.6651 32.175 87.5611 32.3548 87.9758C34.3587 92.5784 36.6185 97.0654 39.1237 101.416C39.142 101.439 39.1655 101.459 39.1923 101.473C39.2192 101.486 39.2487 101.494 39.2788 101.494C39.2788 101.494 65.0188 101.494 65.0325 101.494C65.0679 101.494 65.1026 101.484 65.1331 101.466C65.1636 101.448 65.1889 101.423 65.2065 101.392C65.2242 101.361 65.2335 101.327 65.2337 101.291C65.2339 101.256 65.2248 101.221 65.2074 101.19V101.19ZM55.5967 92.8537L55.9647 90.7236C56.0092 90.4667 56.3992 90.5762 56.3552 90.8308L55.9872 92.961C55.9427 93.2178 55.5527 93.1084 55.5967 92.8537ZM48.3791 77.5423C49.0757 78.5242 49.9892 79.3324 51.0488 79.904C51.2781 80.0277 51.0735 80.3775 50.8447 80.2532C49.7262 79.6454 48.7629 78.7877 48.0298 77.7469C47.8791 77.5335 48.23 77.33 48.3791 77.5423ZM31.6508 83.7963C31.6327 84.0554 31.2284 84.0565 31.246 83.7963C31.3817 81.8127 31.5179 79.8286 31.6547 77.8442C31.6723 77.5852 32.0771 77.5841 32.0589 77.8442C31.9233 79.8279 31.7872 81.8119 31.6508 83.7963ZM11.7177 91.9363C11.9341 92.4643 12.15 92.9925 12.3656 93.5209C12.4646 93.7623 12.073 93.8663 11.9757 93.6309L11.3278 92.0469C11.2288 91.8032 11.6209 91.6993 11.7177 91.9369V91.9363ZM14.3891 82.0913C15.7737 80.6213 16.681 78.7666 16.9917 76.7712C17.0318 76.5138 17.4223 76.6238 17.3822 76.8784C17.0553 78.9429 16.1116 80.8601 14.6751 82.3784C14.4958 82.5682 14.2103 82.28 14.3891 82.0924V82.0913Z"></path><path fill="#F9BBBB" d="M30.085 35.0009C30.3066 34.7397 30.4584 34.4265 30.5261 34.0906C30.5938 33.7548 30.5752 33.4073 30.4721 33.0806C30.3689 32.7539 30.1846 32.4587 29.9364 32.2226C29.6881 31.9865 29.3841 31.8172 29.0526 31.7306C28.7445 31.6418 28.4206 31.6214 28.1038 31.6709C27.787 31.7204 27.4848 31.8386 27.2184 32.0171C26.952 32.1957 26.7279 32.4303 26.5617 32.7046C26.3955 32.9789 26.2914 33.2862 26.2564 33.605C26.2542 34.0509 26.3897 34.4866 26.6444 34.8526C26.8992 35.2186 27.2607 35.497 27.6797 35.6497C28.0986 35.8025 28.5545 35.8221 28.985 35.706C29.4155 35.5898 29.7997 35.3436 30.085 35.0009V35.0009Z"></path><path fill="#FFC431" d="M84.4332 22.8877C83.6654 23.2994 82.8248 23.558 81.9582 23.6489C80.2219 23.6489 79.5971 21.8641 77.6957 22.0506C75.6404 22.253 74.8484 23.106 72.9283 22.9179C72.0098 22.8283 71.1683 22.4009 70.2696 22.2183C68.6971 21.9027 67.0641 22.1281 65.6359 22.858C66.8932 24.2132 67.9459 25.3946 69.1999 26.8983C69.2373 26.8675 69.2774 26.84 69.3143 26.8081C70.3543 25.9453 71.4836 25.1964 72.683 24.574C73.8094 24.0735 75.2482 24.4909 75.4633 25.7554C75.5742 26.4216 75.4971 27.1056 75.2405 27.7304C74.7937 28.7988 74.147 29.7721 73.3353 30.5981C73.3298 30.6042 73.3232 30.6053 73.3172 30.6108C73.3612 30.7516 73.4068 30.8924 73.4409 31.0354C73.9187 31.5501 74.4222 32.0402 74.9496 32.5039C75.5899 33.0917 76.3392 33.5486 77.1551 33.8486C79.123 34.4327 80.8857 32.4219 82.3707 30.9562C82.3489 30.9128 82.3413 30.8636 82.3492 30.8157C82.3571 30.7677 82.38 30.7236 82.4147 30.6895C82.4493 30.6554 82.4938 30.6332 82.5419 30.6261C82.5899 30.619 82.639 30.6273 82.682 30.6498C85.1378 28.2265 86.2092 27.1199 89.606 23.4091C88.8567 22.8952 87.9902 22.5781 87.0863 22.487C86.1823 22.3959 85.27 22.5337 84.4332 22.8877Z"></path><path fill="#FFC431" d="M93.995 18.2699H61.6209C61.5815 18.2712 61.5432 18.2838 61.5108 18.3062C61.4783 18.3287 61.4531 18.36 61.438 18.3965C61.4229 18.4329 61.4186 18.473 61.4257 18.5118C61.4328 18.5506 61.4509 18.5865 61.4779 18.6153C62.7748 19.921 64.0931 21.2047 65.3482 22.5522C67.0104 21.6673 68.9452 21.4418 70.7663 21.9208C71.6677 22.1584 72.5395 22.5648 73.4893 22.5423C75.7553 22.3525 76.2514 21.5638 78.2743 21.6579C79.7214 21.8113 80.2059 22.7683 81.4093 23.1687C82.7156 23.4987 83.765 22.5555 85.1702 22.2172C85.9735 22.0263 86.808 22.007 87.6193 22.1605C88.4305 22.314 89.2003 22.637 89.8782 23.1082C92.6832 20.0464 93.2453 19.5277 94.1347 18.6153C94.1615 18.5867 94.1796 18.5511 94.1868 18.5125C94.194 18.474 94.1901 18.4342 94.1754 18.3979C94.1607 18.3616 94.1359 18.3302 94.1039 18.3075C94.0719 18.2848 94.0341 18.2718 93.995 18.2699V18.2699Z"></path><path fill="#FFC431" d="M86.0997 44.0303C84.4434 41.2568 82.4018 38.7324 80.036 36.5327C79.7669 36.2583 79.4651 36.0182 79.1373 35.8177C78.6558 35.5449 78.1048 35.4194 77.5527 35.4566C77.0005 35.4939 76.4714 35.6923 76.0309 36.0272C74.6423 37.1106 73.3293 38.2876 72.1011 39.55C70.754 40.8785 69.5969 42.3867 68.6625 44.0319C68.636 44.0792 68.6294 44.1351 68.644 44.1872C68.6587 44.2394 68.6934 44.2836 68.7406 44.3102C68.8171 44.3531 85.9006 44.3416 85.9556 44.3306C85.988 44.3255 86.0186 44.3126 86.0449 44.293C86.0712 44.2734 86.0923 44.2478 86.1065 44.2182C86.1206 44.1887 86.1274 44.1562 86.1262 44.1234C86.1251 44.0907 86.116 44.0587 86.0997 44.0303ZM73.0229 43.9302C72.9972 43.8874 72.9888 43.8365 72.9993 43.7877C73.1852 42.9154 73.3942 42.0497 73.6593 41.1972C73.6739 41.1455 73.7084 41.1017 73.7553 41.0755C73.8022 41.0492 73.8575 41.0427 73.9092 41.0573C73.961 41.0718 74.0048 41.1064 74.031 41.1533C74.0573 41.2001 74.0638 41.2555 74.0492 41.3072C73.5449 42.9864 73.4244 43.8444 73.3766 43.9329C73.3598 43.9655 73.3343 43.9929 73.303 44.0119C73.2716 44.0309 73.2356 44.0408 73.1989 44.0405C73.1622 44.0402 73.1264 44.0297 73.0953 44.0102C73.0642 43.9908 73.0392 43.9631 73.0229 43.9302V43.9302ZM77.3228 43.7855C77.3883 42.9996 77.418 42.2109 77.4658 41.4205C77.4818 41.1615 77.8866 41.1604 77.8706 41.4205C77.8228 42.2081 77.7656 42.9946 77.7276 43.7855C77.715 44.0484 77.3019 44.0391 77.3228 43.7855ZM82.3086 43.9302C82.2503 43.8807 82.3223 44.0402 81.3862 41.4948C81.296 41.25 81.6871 41.145 81.7762 41.3875C82.0644 42.1718 82.3528 42.9559 82.6413 43.7399C82.72 43.9192 82.4664 44.0649 82.3086 43.9302Z"></path><path fill="#000001" d="M70.0271 73.794C69.9223 73.8149 69.8246 73.8622 69.7433 73.9315C69.6621 74.0008 69.5999 74.0899 69.5629 74.19C69.5409 74.2999 69.5509 74.4138 69.5916 74.5182C69.6324 74.6226 69.7022 74.7131 69.7928 74.7791C69.478 74.6682 69.1386 74.6474 68.8127 74.7191C68.7116 74.7637 68.6261 74.8374 68.5673 74.9309C68.5085 75.0244 68.479 75.1334 68.4827 75.2438C68.4953 75.856 69.0998 76.0083 69.5827 76.1106C69.8802 76.1733 69.4655 76.0826 68.9777 76.0732C68.7572 76.0512 68.5361 76.1079 68.3534 76.2333C68.2719 76.2968 68.2173 76.3887 68.2007 76.4907C68.1841 76.5927 68.2066 76.6972 68.2638 76.7833C68.3374 76.8661 68.4296 76.9301 68.5329 76.9701C68.6363 77.0101 68.7476 77.0249 68.8578 77.0132C69.1487 77.0165 69.3528 77.0066 70.2163 76.995C70.581 76.7505 71.0163 76.6331 71.4545 76.6612C71.8928 76.6892 72.3095 76.8611 72.6401 77.1501C72.6736 77.1491 72.7063 77.1397 72.7351 77.1227C72.764 77.1057 72.7881 77.0816 72.8051 77.0528C73.0146 76.6446 73.0982 76.1834 73.0451 75.7277C72.9921 75.272 72.8049 74.8423 72.5073 74.4932C72.2096 74.1441 71.815 73.8912 71.3734 73.7667C70.9318 73.6422 70.4632 73.6518 70.0271 73.794V73.794Z"></path><path fill="#000001" d="M98.8036 78.7677C97.7186 78.0919 96.4559 77.757 95.1786 77.8063C94.5942 77.8742 94.0308 78.0649 93.5254 78.3659C93.02 78.667 92.5839 79.0716 92.246 79.5531C91.9163 80.0129 91.6396 80.5085 91.421 81.0304C90.503 82.7953 89.7061 83.4014 89.826 84.3529C89.8557 84.5992 89.9398 84.8357 90.0723 85.0454C90.2048 85.2551 90.3823 85.4326 90.5919 85.5652C90.8016 85.6977 91.0381 85.7819 91.2843 85.8117C91.5305 85.8415 91.7803 85.816 92.0155 85.7373C92.7223 85.5591 93.4362 85.4034 94.1539 85.2747C94.7356 85.1592 95.3302 85.1231 95.9216 85.1675C97.1289 85.3532 98.3042 85.7075 99.413 86.2202C99.8048 86.395 100.219 86.5151 100.643 86.5771C101.633 86.6965 102.216 85.6691 102.345 84.8171C102.63 82.9257 101.475 80.289 98.8036 78.7677ZM96.7197 84.0262C96.2566 84.1805 95.7567 84.1855 95.2906 84.0407C94.8245 83.8958 94.4156 83.6084 94.1215 83.2188C93.8175 82.8551 93.6437 82.4003 93.6274 81.9266C93.6112 81.4529 93.7535 80.9873 94.0318 80.6036C94.3598 80.2316 94.786 79.9596 95.2615 79.8187C95.7369 79.6777 96.2425 79.6735 96.7202 79.8066C97.1707 79.9559 97.56 80.2485 97.8286 80.6398C98.0973 81.0311 98.2305 81.4995 98.208 81.9736C98.1942 82.4255 98.045 82.8629 97.7796 83.2289C97.5142 83.5949 97.1449 83.8727 96.7197 84.0262Z"></path><path fill="#C0C195" d="M62.8485 46.2396C62.8515 46.2122 62.8487 46.1845 62.8404 46.1582C62.8321 46.1319 62.8184 46.1076 62.8002 46.0869C62.782 46.0662 62.7597 46.0496 62.7346 46.038C62.7096 46.0264 62.6825 46.0201 62.6549 46.0196C55.423 45.9431 37.5705 40.0317 31.6129 38.5654C30.4262 38.1731 29.1634 38.0673 27.9279 38.2569C26.6142 38.4795 25.3795 39.0352 24.3418 39.8709C23.304 40.7066 22.4977 41.7944 22 43.0303C21.7736 43.6334 21.5908 44.2519 21.4528 44.8811C21.3092 45.4861 14.3578 73.084 14.1339 73.9673C14.1204 74.0198 14.1282 74.0755 14.1558 74.1223C14.1833 74.169 14.2283 74.2029 14.2808 74.2164C14.3193 74.2263 49.2734 74.2236 49.3158 74.223C49.351 74.2223 49.3855 74.2124 49.4159 74.1944C49.4462 74.1764 49.4714 74.1508 49.4889 74.1202C49.5064 74.0896 49.5158 74.055 49.516 74.0197C49.5162 73.9844 49.5073 73.9497 49.4901 73.9189C48.0623 70.855 46.7016 67.7609 45.408 64.6365C50.2926 65.3059 55.11 65.775 59.8967 66.0484C59.9409 66.0482 59.9839 66.0335 60.0191 66.0068C60.0543 65.98 60.0799 65.9425 60.0919 65.8999C61.1144 61.0747 61.5219 56.2166 62.1544 51.2319C62.3079 50.0065 62.8485 46.2396 62.8485 46.2396ZM24.0125 60.4785L44.2481 64.1701C44.5044 64.2169 44.3949 64.6068 44.1381 64.5601L23.903 60.869C23.65 60.8223 23.76 60.4323 24.0125 60.4785ZM39.4779 60.3135L43.8587 60.7898C44.115 60.8179 44.1172 61.2227 43.8587 61.1946L39.4779 60.7183C39.2211 60.6875 39.2194 60.2827 39.4779 60.3108V60.3135Z"></path><path fill="#F9705A" d="M96.7203 79.805C96.2425 79.6719 95.737 79.6761 95.2615 79.8171C94.786 79.958 94.3599 80.23 94.0319 80.602C93.7535 80.9857 93.6112 81.4513 93.6275 81.925C93.6437 82.3987 93.8176 82.8535 94.1215 83.2172C94.4156 83.6068 94.8245 83.8942 95.2907 84.0391C95.7568 84.1839 96.2566 84.1789 96.7197 84.0246C97.145 83.8711 97.5143 83.5933 97.7796 83.2273C98.045 82.8613 98.1943 82.4239 98.208 81.972C98.2305 81.4979 98.0973 81.0295 97.8287 80.6382C97.5601 80.2469 97.1708 79.9543 96.7203 79.805Z"></path><path fill="#FF9494" d="M89.9938 65.6865C89.4981 65.87 89.0765 66.2113 88.7937 66.6578C88.5858 66.9913 88.4811 67.3787 88.4926 67.7715C88.504 68.1643 88.6312 68.545 88.8582 68.8657C89.0852 69.1865 89.4018 69.4331 89.7684 69.5747C90.135 69.7162 90.5352 69.7464 90.9189 69.6613C91.3146 69.5702 91.674 69.3629 91.9508 69.0659C92.2277 68.7689 92.4094 68.3959 92.4726 67.9948C92.565 66.6281 91.3 65.3845 89.9938 65.6865Z"></path><path fill="#825463" d="M73.2006 77.852C73.0324 77.5205 72.7826 77.2373 72.4747 77.0291C72.1667 76.8208 71.8109 76.6944 71.4406 76.6618C71.0627 76.6274 70.6834 76.7114 70.3553 76.902C70.0272 77.0927 69.7664 77.3806 69.6091 77.726C69.4344 78.1291 69.3951 78.578 69.4971 79.0053C69.5992 79.4326 69.8371 79.8153 70.1751 80.096C71.7167 81.3824 74.03 79.6197 73.2006 77.852Z"></path><path fill="#000001" d="M86.5403 52.6465C86.389 52.4375 86.0376 52.6394 86.191 52.8506L88.6842 56.2848C88.8354 56.4932 89.1869 56.2919 89.0334 56.0807C88.3074 55.0803 86.6453 52.7906 86.5403 52.6465Z"></path><path fill="#000001" d="M95.761 36.0657L100.427 37.6299C100.675 37.713 100.781 37.3219 100.534 37.2394L95.8688 35.6758C95.6213 35.5927 95.5152 35.9832 95.761 36.0657Z"></path><path fill="#000001" d="M98.1795 19.3485C97.9243 19.3809 97.921 19.7885 98.1795 19.7533L102.782 19.1692C103.038 19.1373 103.041 18.7292 102.782 18.7649L98.1795 19.3485Z"></path><path fill="#000001" d="M87.9449 5.23601C87.4235 6.26836 86.2328 8.62676 86.1591 8.77361C86.0419 9.00516 86.3906 9.21031 86.5083 8.97766C87.0297 7.94476 88.2205 5.58691 88.2942 5.44006C88.4108 5.20851 88.0621 5.00501 87.9449 5.23601Z"></path><path fill="#000001" d="M65.0127 6.08133C64.9846 6.03723 64.9405 6.00574 64.8896 5.99345C64.8388 5.98117 64.7852 5.98905 64.74 6.01543C64.6948 6.04182 64.6616 6.08467 64.6474 6.135C64.6331 6.18532 64.6389 6.23922 64.6635 6.28538C65.2283 7.27538 66.5951 9.49573 66.6809 9.63433C66.709 9.67843 66.7531 9.70992 66.804 9.7222C66.8548 9.73449 66.9085 9.72661 66.9536 9.70022C66.9988 9.67383 67.032 9.63099 67.0462 9.58066C67.0605 9.53033 67.0547 9.47644 67.0301 9.43028C66.4653 8.43973 65.0985 6.21993 65.0127 6.08133Z"></path><path fill="#000001" d="M50.0236 19.9309C49.9719 19.9163 49.9165 19.9229 49.8696 19.9491C49.8227 19.9754 49.7882 20.0192 49.7736 20.0709C49.759 20.1226 49.7656 20.178 49.7918 20.2248C49.8181 20.2717 49.8619 20.3063 49.9136 20.3208C51.2193 20.6508 54.1975 21.4027 54.3818 21.4478C54.4335 21.4624 54.4889 21.4558 54.5358 21.4296C54.5826 21.4033 54.6172 21.3595 54.6318 21.3078C54.6463 21.2561 54.6398 21.2007 54.6135 21.1538C54.5873 21.107 54.5435 21.0724 54.4918 21.0578C48.29 19.4936 50.5351 20.0563 50.0236 19.9309Z"></path><path fill="#F9705A" d="M75.24 27.7304C75.4966 27.1056 75.5737 26.4216 75.4628 25.7554C75.2483 24.4942 73.8128 24.0718 72.6825 24.574C71.4834 25.1969 70.3542 25.9458 69.3138 26.8081C67.7292 28.1671 63.5195 29.915 61.5643 30.6729C61.2689 30.7873 61.4317 31.2312 61.6897 31.1283C63.8897 30.2483 67.864 28.6533 69.6713 27.1238C70.5789 26.379 71.5519 25.7178 72.5786 25.1482C73.5884 24.5811 74.596 24.8644 74.9078 25.5365C75.0174 25.8256 75.0632 26.135 75.042 26.4434C74.9513 27.8773 73.9822 29.2165 73.001 30.2643L72.9949 30.2736C72.9674 30.275 72.9404 30.2817 72.9156 30.2935C72.8907 30.3053 72.8684 30.3219 72.8499 30.3424C72.8315 30.3628 72.8172 30.3867 72.808 30.4126C72.7989 30.4386 72.7949 30.4661 72.7964 30.4936C73.3348 32.0025 73.267 33.6614 72.6072 35.1213C72.5896 35.1527 72.5793 35.1876 72.577 35.2234C72.5748 35.2593 72.5807 35.2952 72.5942 35.3285C72.6077 35.3618 72.6286 35.3916 72.6552 35.4157C72.6818 35.4398 72.7135 35.4576 72.748 35.4678C73.0923 35.5297 73.4196 35.664 73.7083 35.8616C73.997 36.0593 74.2405 36.3159 74.4227 36.6146C74.4543 36.6686 74.5061 36.7079 74.5666 36.7238C74.6272 36.7397 74.6915 36.7309 74.7456 36.6993C74.7996 36.6677 74.8389 36.6159 74.8548 36.5554C74.8707 36.4948 74.8619 36.4305 74.8303 36.3764C74.4548 35.7368 73.8441 35.2694 73.1286 35.074C73.7068 33.6536 73.7733 32.0764 73.3167 30.6124C73.3227 30.6069 73.3293 30.6058 73.3348 30.5998C74.147 29.7735 74.7937 28.7996 75.24 27.7304V27.7304Z"></path><path fill="#F9705A" d="M67.1391 39.4724C67.3798 40.1416 67.4834 40.8523 67.4438 41.5624C67.4267 41.866 67.8992 41.8654 67.9157 41.5624C67.9579 40.8091 67.8486 40.0551 67.5945 39.3448C67.4927 39.0632 67.0362 39.1858 67.1391 39.4724Z"></path><path fill="#F9705A" d="M82.456 31.0629C82.6783 31.2266 82.9321 31.3424 83.2014 31.4032C83.4707 31.464 83.7497 31.4683 84.0207 31.416C84.3188 31.361 84.1929 30.9106 83.8953 30.9606C83.6822 30.9935 83.4647 30.9829 83.2558 30.9295C83.0469 30.8761 82.851 30.781 82.6798 30.6499C82.6368 30.6273 82.5877 30.619 82.5397 30.6261C82.4916 30.6333 82.4471 30.6555 82.4125 30.6895C82.3778 30.7236 82.3549 30.7678 82.347 30.8157C82.3391 30.8637 82.3467 30.9129 82.3685 30.9562C82.3888 30.9982 82.4188 31.0348 82.456 31.0629V31.0629Z"></path><path fill="#F9705A" d="M82.6347 35.403C82.9367 35.3854 82.9383 34.9124 82.6347 34.9311C82.2658 34.9538 81.8968 34.8874 81.559 34.7372C81.2213 34.5871 80.9246 34.3578 80.6943 34.0687C80.65 34.0245 80.59 33.9997 80.5274 33.9997C80.4648 33.9997 80.4048 34.0245 80.3605 34.0687C80.3174 34.1135 80.2933 34.1733 80.2933 34.2356C80.2933 34.2978 80.3174 34.3576 80.3605 34.4025C80.6335 34.7372 80.9819 35.0024 81.3773 35.1763C81.7726 35.3502 82.2035 35.4279 82.6347 35.403Z"></path><path fill="#000001" d="M31.4759 30.7412C30.751 29.4624 29.4959 28.5439 28.0164 28.8123V27.4874C28.0164 27.4337 27.9951 27.3822 27.9571 27.3443C27.9192 27.3063 27.8677 27.285 27.814 27.285C27.7603 27.285 27.7089 27.3063 27.6709 27.3443C27.6329 27.3822 27.6116 27.4337 27.6116 27.4874V28.2794C27.3928 27.8917 27.1454 27.5209 26.8713 27.17C26.7118 26.9649 26.4275 27.2525 26.5853 27.456C26.9444 27.9191 27.2527 28.4193 27.5049 28.9482C26.0881 29.4432 25.2637 30.6779 24.5184 31.9594C24.1043 32.6744 9.30157 57.9106 8.89237 58.5541C8.09762 59.8032 7.47172 61.1177 7.79237 62.5493C8.1048 63.6698 8.84305 64.6236 9.84937 65.2069C10.8394 65.7613 14.7752 66.7788 15.8702 67.0626C22.11 42.3176 21.6568 43.9038 22 43.0304C22.5798 41.5934 23.5751 40.362 24.8586 39.4937C26.1421 38.6255 27.6554 38.1598 29.205 38.1563C29.3744 38.0875 30.4441 38.23 33.7073 37.8813C33.8448 37.8664 33.9823 37.8505 34.1187 37.8345C33.8552 37.0942 31.8692 31.4353 31.4759 30.7412ZM30.085 35.0009C29.7997 35.3436 29.4155 35.5899 28.985 35.706C28.5545 35.8222 28.0986 35.8025 27.6797 35.6498C27.2607 35.497 26.8992 35.2186 26.6444 34.8526C26.3897 34.4867 26.2542 34.0509 26.2564 33.605C26.2915 33.2861 26.3959 32.9788 26.5623 32.7045C26.7287 32.4302 26.953 32.1956 27.2197 32.0172C27.4863 31.8388 27.7887 31.7208 28.1057 31.6716C28.4227 31.6224 28.7467 31.6431 29.0548 31.7323C29.3858 31.8193 29.6893 31.9888 29.9371 32.2249C30.1848 32.461 30.3687 32.756 30.4716 33.0824C30.5744 33.4088 30.5929 33.756 30.5253 34.0915C30.4577 34.4269 30.3062 34.7398 30.085 35.0009V35.0009Z"></path><path fill="#000001" d="M6.45206 60.5L21.6398 36.1152C21.7778 35.8952 21.428 35.6906 21.2905 35.9111L6.10501 60.2932C5.96476 60.5148 6.31456 60.72 6.45206 60.5Z"></path><path fill="#A5A538" d="M44.2481 64.1701L24.0125 60.4785C23.7578 60.4323 23.6489 60.8223 23.9025 60.869L44.1375 64.5601C44.3949 64.6068 44.5044 64.2169 44.2481 64.1701Z"></path><path fill="#A5A538" d="M39.4779 60.7156L43.8587 61.1919C44.1172 61.2199 44.115 60.8151 43.8587 60.7871L39.4779 60.3108C39.2194 60.2827 39.2211 60.6875 39.4779 60.7156Z"></path><path fill="#7F41D8" d="M14.6751 82.3784C16.1116 80.8601 17.0553 78.9429 17.3822 76.8784C17.4224 76.6238 17.0319 76.5138 16.9917 76.7712C16.681 78.7666 15.7737 80.6212 14.3891 82.0913C14.2104 82.28 14.4958 82.5682 14.6751 82.3784Z"></path><path fill="#7F41D8" d="M31.6547 77.8442C31.5183 79.8279 31.3821 81.8119 31.246 83.7963C31.2284 84.0565 31.631 84.0554 31.6508 83.7963C31.7865 81.8127 31.9225 79.8286 32.0589 77.8442C32.0771 77.5841 31.6723 77.5852 31.6547 77.8442Z"></path><path fill="#7F41D8" d="M48.0299 77.7469C48.7629 78.7877 49.7262 79.6454 50.8448 80.2532C51.0736 80.3775 51.2782 80.0277 51.0488 79.904C49.9892 79.3324 49.0757 78.5242 48.3791 77.5423C48.2301 77.33 47.8792 77.5335 48.0299 77.7469Z"></path><path fill="#7F41D8" d="M12.3656 93.5215C12.15 92.9935 11.9341 92.4653 11.7177 91.9369C11.6209 91.6993 11.2288 91.8033 11.3278 92.0469L11.9757 93.6309C12.073 93.8669 12.4646 93.7629 12.3656 93.5215Z"></path><path fill="#7F41D8" d="M55.99 92.961L56.358 90.8308C56.402 90.5762 56.012 90.4667 55.9675 90.7236L55.5995 92.8537C55.5528 93.1084 55.9427 93.2178 55.99 92.961Z"></path><path fill="#000001" d="M70.2675 22.22C71.1673 22.4026 72.0077 22.8299 72.9262 22.9196C74.8512 23.1077 75.6168 22.2596 77.6936 22.0522C78.4745 22.0039 79.2446 22.2547 79.8474 22.7535C80.4362 23.2704 81.1753 23.5846 81.9561 23.65C82.8226 23.5591 83.6632 23.3006 84.4311 22.8888C85.2814 22.5297 86.2093 22.3936 87.1269 22.4934C88.0446 22.5932 88.9215 22.9256 89.6748 23.4591C89.8876 23.6098 90.0895 23.2584 89.8783 23.1093C89.2003 22.638 88.4306 22.315 87.6193 22.1615C86.8081 22.008 85.9735 22.0273 85.1703 22.2183C83.7573 22.5582 82.7184 23.502 81.4094 23.1698C80.2159 22.7727 79.7236 21.813 78.2744 21.659C76.2548 21.5655 75.7686 22.3525 73.4894 22.5434C72.5395 22.5659 71.6678 22.1584 70.7663 21.9219C69.0846 21.482 67.3025 21.6375 65.7223 22.3619C65.6398 22.3993 65.0947 22.6842 65.0771 22.6952C65.033 22.7233 65.0015 22.7674 64.9892 22.8183C64.977 22.8691 64.9848 22.9228 65.0112 22.9679C65.0376 23.0131 65.0805 23.0463 65.1308 23.0605C65.1811 23.0748 65.235 23.069 65.2812 23.0444C66.7882 22.1737 68.5604 21.8807 70.2675 22.22V22.22Z"></path><path fill="#000001" d="M79.3776 30.5443H78.1187V26.455H79.1527C79.2045 26.4523 79.2532 26.4299 79.2889 26.3922C79.3246 26.3546 79.3445 26.3048 79.3445 26.2529C79.3445 26.2011 79.3246 26.1512 79.2889 26.1136C79.2532 26.076 79.2045 26.0535 79.1527 26.0508H76.7926C76.7408 26.0535 76.6921 26.076 76.6564 26.1136C76.6207 26.1512 76.6008 26.2011 76.6008 26.2529C76.6008 26.3048 76.6207 26.3546 76.6564 26.3922C76.6921 26.4299 76.7408 26.4523 76.7926 26.455H77.715C77.7018 26.8593 77.7117 27.8735 77.715 30.5465H76.3433C76.2896 30.5465 76.2381 30.5678 76.2002 30.6058C76.1622 30.6437 76.1409 30.6952 76.1409 30.7489C76.1409 30.8026 76.1622 30.854 76.2002 30.892C76.2381 30.93 76.2896 30.9513 76.3433 30.9513H79.3782C79.4047 30.9513 79.4311 30.946 79.4556 30.9359C79.4802 30.9257 79.5025 30.9108 79.5213 30.892C79.5401 30.8732 79.555 30.8509 79.5652 30.8263C79.5753 30.8018 79.5806 30.7755 79.5806 30.7489C79.5806 30.7223 79.5753 30.696 79.5652 30.6714C79.555 30.6469 79.5401 30.6246 79.5213 30.6058C79.5025 30.587 79.4802 30.5721 79.4556 30.5619C79.4311 30.5517 79.4047 30.5465 79.3782 30.5465L79.3776 30.5443Z"></path><path fill="#000001" d="M74.047 41.305C74.0616 41.2533 74.0551 41.1979 74.0288 41.151C74.0026 41.1042 73.9588 41.0696 73.9071 41.055C73.8553 41.0404 73.8 41.047 73.7531 41.0732C73.7062 41.0995 73.6717 41.1433 73.6571 41.195C73.3947 42.047 73.1791 42.9116 72.9971 43.7855C72.9869 43.8359 72.9962 43.8883 73.0231 43.9321C73.0501 43.976 73.0926 44.0079 73.1422 44.0215C73.1918 44.0351 73.2448 44.0294 73.2903 44.0055C73.3359 43.9816 73.3706 43.9413 73.3876 43.8928C73.5706 43.0212 73.7904 42.1586 74.047 41.305Z"></path><path fill="#000001" d="M77.8706 41.4233C77.8866 41.1631 77.4818 41.1642 77.4658 41.4233C77.418 42.2109 77.3883 42.9996 77.3228 43.7883C77.3014 44.0435 77.715 44.049 77.7276 43.7883C77.7656 42.9974 77.825 42.2109 77.8706 41.4233Z"></path><path fill="#000001" d="M82.6414 43.7398C82.3532 42.9555 82.0648 42.1714 81.7762 41.3875C81.6871 41.1449 81.2961 41.25 81.3863 41.4947C82.3306 44.0627 82.2514 43.8812 82.3086 43.9301C82.467 44.0654 82.72 43.9186 82.6414 43.7398Z"></path><path fill="#C4AFF9" d="M78.9294 97.449C78.8928 96.7575 78.8456 96.067 78.7881 95.3777C78.7666 95.1197 78.3618 95.1175 78.3833 95.3777C78.6951 99.1177 78.6808 103.707 78.7034 104.661C78.7034 104.714 78.7247 104.766 78.7627 104.804C78.8006 104.842 78.8521 104.863 78.9058 104.863C78.9594 104.863 79.0109 104.842 79.0489 104.804C79.0868 104.766 79.1082 104.714 79.1082 104.661C79.112 104.315 79.0609 99.8717 78.9294 97.449Z"></path><path fill="#FFC431" d="M98.2448 87.34C98.1996 87.3154 98.1467 87.3089 98.0969 87.322C98.0471 87.3351 98.0042 87.3667 97.9769 87.4104C96.4859 89.8463 95.7813 91.014 95.4552 91.5843C95.0537 90.1752 94.6703 88.7617 94.2501 87.3581C94.2359 87.3064 94.2017 87.2623 94.155 87.2358C94.1084 87.2092 94.0531 87.2023 94.0013 87.2165C93.9495 87.2307 93.9055 87.2649 93.8789 87.3116C93.8524 87.3583 93.8454 87.4136 93.8596 87.4654C94.2606 88.9988 94.727 90.5146 95.1637 92.0381C95.2671 92.3989 95.4733 92.3681 95.5586 92.2542C95.6185 92.1739 98.2739 87.7068 98.3267 87.6144C98.3395 87.5911 98.3476 87.5654 98.3504 87.5389C98.3532 87.5124 98.3507 87.4856 98.3431 87.4601C98.3355 87.4346 98.3229 87.4108 98.306 87.3902C98.2891 87.3696 98.2683 87.3525 98.2448 87.34V87.34Z"></path><path fill="#FFC431" d="M100.184 88.4114L95.1121 94.9014C93.9021 91.7664 92.9539 88.8014 92.6008 87.4599C92.5365 87.2168 92.1338 87.3131 92.2103 87.5699C93.0056 90.227 93.7987 92.6849 94.8223 95.276C94.9323 95.5598 95.105 95.5647 95.1941 95.4503L100.471 88.7013C100.629 88.495 100.345 88.2063 100.184 88.4114Z"></path><path fill="#FFC431" d="M100.399 98.8411C100.346 98.8411 100.294 98.8624 100.256 98.9003C100.218 98.9383 100.197 98.9898 100.197 99.0435C100.197 99.0971 100.218 99.1486 100.256 99.1866C100.294 99.2245 100.346 99.2459 100.399 99.2459C101.093 99.2646 106.581 99.368 106.581 99.368C106.634 99.368 106.686 99.3466 106.724 99.3087C106.762 99.2707 106.783 99.2192 106.783 99.1656C106.783 99.1119 106.762 99.0604 106.724 99.0224C106.686 98.9845 106.634 98.9632 106.581 98.9632C99.8431 98.78 101.184 98.8565 100.399 98.8411Z"></path><path fill="#78B5FF" d="M83.5505 84.9805C81.6634 84.0455 80.6047 81.1492 81.9945 78.8948C82.1315 78.6748 81.7789 78.468 81.6453 78.6907C80.2153 81.0706 81.1838 84.1357 83.2111 85.2533C83.0362 85.8847 82.3735 88.2739 82.3515 88.3603C82.3369 88.412 82.3435 88.4674 82.3697 88.5142C82.396 88.5611 82.4398 88.5957 82.4915 88.6102C82.5432 88.6248 82.5986 88.6183 82.6454 88.592C82.6923 88.5658 82.7268 88.522 82.7414 88.4703C83.4597 86.0382 83.6077 85.4392 83.6379 85.266C83.655 85.1527 83.672 85.03 83.5505 84.9805Z"></path><path fill="#000001" d="M2.91502 104.885C2.97552 104.907 1.62802 105.377 32.8554 104.899C32.9067 104.898 32.9563 104.88 32.9967 104.848C33.0371 104.817 33.0662 104.773 33.0797 104.723C33.0931 104.674 33.0901 104.621 33.0712 104.574C33.0523 104.526 33.0185 104.486 32.9747 104.459C31.0886 103.182 29.0218 102.195 26.8433 101.53H31.9446C32.0069 101.529 32.0666 101.504 32.1108 101.46C32.155 101.416 32.1802 101.357 32.1811 101.295C32.1574 99.9592 31.8544 87.5484 31.8302 86.8202C33.9528 91.8358 36.3798 96.717 39.0979 101.436C39.1194 101.464 39.1467 101.487 39.178 101.503C39.2093 101.518 39.2438 101.527 39.2788 101.528C47.0036 101.528 46.6576 101.517 46.6026 101.533C44.1495 102.239 41.784 103.22 39.5511 104.457C39.5121 104.48 39.4807 104.515 39.4606 104.555C39.4405 104.596 39.4326 104.642 39.4377 104.687C39.4429 104.732 39.4609 104.775 39.4897 104.81C39.5185 104.845 39.5568 104.871 39.6 104.885C39.6605 104.907 54.1002 104.899 107.012 104.899C107.075 104.899 107.135 104.874 107.179 104.829C107.223 104.785 107.248 104.725 107.248 104.663C107.245 102.074 107.049 99.4889 106.661 96.9292C106.327 94.5863 105.442 92.3559 104.079 90.4216C104.129 87.6675 103.965 84.9136 103.588 82.1848C103.245 80.2491 102.526 78.3992 101.472 76.7398C100.38 75.0565 98.8256 73.7238 96.9953 72.9014C96.794 72.5851 96.5817 72.2749 96.387 71.9543C94.5615 68.9634 94.8288 67.3981 93.6733 65.4857C91.9683 62.7599 88.5918 63.7257 87.527 67.15C86.999 68.8457 87.2119 70.6365 87.4511 72.3651C81.5584 73.9546 77.8778 78.5422 75.553 84.1593C73.0512 83.6047 70.4397 83.8267 68.0675 84.7957C64.6857 86.1754 61.7436 88.45 59.5568 91.3753C59.2438 90.8429 50.2981 75.5062 49.7321 74.36C48.1487 71.1628 46.717 67.7171 45.4581 64.68C50.2348 65.3334 55.1133 65.8124 59.8934 66.0847C59.945 66.0845 59.9952 66.0676 60.0363 66.0363C60.0774 66.005 60.1072 65.9612 60.1211 65.9114C60.6293 63.5134 60.9879 61.0918 61.2959 58.6624C69.7109 58.3049 84.5097 52.157 90.3463 47.4771C90.6692 47.2646 90.9283 46.9684 91.096 46.6202C91.2189 46.2672 91.1967 45.8799 91.0341 45.5434C90.8716 45.2069 90.582 44.9487 90.2292 44.8255C89.8515 44.7266 89.456 44.7175 89.0742 44.7991C88.786 44.8283 73.8034 45.7891 71.2481 45.8843C68.6928 45.9794 63.4381 46.1334 60.8531 45.8716C63.8678 44.9108 66.8126 43.743 69.6663 42.3764C69.2891 42.9014 68.9442 43.449 68.6334 44.0159C68.6026 44.0712 68.5948 44.1364 68.612 44.1973C68.6291 44.2582 68.6696 44.3099 68.7247 44.341C68.8171 44.3927 85.9029 44.3762 85.9579 44.3646C85.9955 44.3588 86.0312 44.3439 86.0619 44.3213C86.0926 44.2987 86.1174 44.269 86.1342 44.2348C86.151 44.2006 86.1593 44.1628 86.1583 44.1247C86.1574 44.0866 86.1473 44.0493 86.1289 44.0159C85.0476 42.1404 83.7593 40.392 82.2883 38.8036C82.6183 38.7909 82.9593 38.7821 83.3085 38.7425C84.5537 38.698 85.4139 36.8395 84.2496 35.75C86.0068 35.75 87.5941 33.6842 85.387 31.7823C85.9118 31.798 86.4342 31.7054 86.9216 31.5103C87.4091 31.3152 87.851 31.0217 88.22 30.6482C88.5513 30.3025 88.7995 29.8859 88.9458 29.43C89.0921 28.9741 89.1327 28.4908 89.0645 28.0169C88.9963 27.543 88.8211 27.0908 88.5521 26.6947C88.2831 26.2985 87.9275 25.9689 87.5122 25.7306C88.2136 24.9749 88.9127 24.2167 89.6093 23.4558C89.6258 23.4674 89.6434 23.4778 89.6599 23.4894C89.8964 23.6577 90.1164 23.2963 89.9256 23.1104C91.3336 21.5743 92.6657 20.1366 94.1606 18.6417C94.1921 18.6083 94.2134 18.5665 94.2218 18.5214C94.2303 18.4762 94.2255 18.4296 94.2081 18.3871C94.1906 18.3446 94.1613 18.308 94.1236 18.2818C94.0859 18.2555 94.0415 18.2407 93.9956 18.2391H61.6209C61.575 18.2407 61.5306 18.2555 61.4929 18.2818C61.4552 18.308 61.4259 18.3446 61.4085 18.3871C61.391 18.4296 61.3862 18.4762 61.3947 18.5214C61.4031 18.5665 61.4244 18.6083 61.4559 18.6417C62.7418 19.9375 64.0497 21.2096 65.2949 22.5467C65.2179 22.5874 65.1365 22.6215 65.0617 22.6671C65.0077 22.6987 64.9684 22.7505 64.9525 22.811C64.9366 22.8716 64.9454 22.9359 64.977 22.99C65.0086 23.044 65.0604 23.0833 65.1209 23.0992C65.1815 23.1151 65.2458 23.1063 65.2999 23.0747C65.4066 23.0125 65.5199 22.9597 65.6299 22.9036C66.863 24.2335 67.9124 25.4072 69.1636 26.9104C68.4979 27.4356 67.779 27.8896 67.0186 28.265C60.7948 31.51 45.5054 36.52 34.1396 37.8004C32.9846 34.5229 32.3373 32.6733 31.7086 31.1707C31.185 29.788 29.7226 28.4938 28.05 28.7716V27.4873C28.05 27.4247 28.0252 27.3647 27.9809 27.3205C27.9367 27.2762 27.8767 27.2514 27.8141 27.2514C27.7515 27.2514 27.6915 27.2762 27.6472 27.3205C27.603 27.3647 27.5781 27.4247 27.5781 27.4873V28.1534C27.3732 27.8018 27.145 27.4642 26.895 27.143C26.8507 27.0989 26.7907 27.0741 26.7281 27.0741C26.6655 27.0741 26.6055 27.0989 26.5612 27.143C26.5179 27.1878 26.4938 27.2477 26.4938 27.31C26.4938 27.3722 26.5179 27.4321 26.5612 27.4769C26.9104 27.9269 27.211 28.4127 27.4577 28.9261C26.0519 29.4327 25.2296 30.6658 24.4877 31.9396C24.0735 32.6518 9.27082 57.8908 8.86162 58.5343C8.06302 59.7894 7.43492 61.1193 7.76162 62.5559C8.07207 63.6868 8.817 64.6492 9.83402 65.2333C10.824 65.7882 14.6146 66.7689 15.829 67.084C15.4748 68.4915 6.96192 100.683 6.80517 101.229C6.79608 101.264 6.79507 101.301 6.80221 101.336C6.80936 101.372 6.82446 101.405 6.8464 101.434C6.86833 101.463 6.89651 101.486 6.92882 101.502C6.96112 101.519 6.9967 101.527 7.03287 101.528C10.0848 101.528 9.96932 101.517 9.91432 101.533C7.46105 102.239 5.09536 103.22 2.86222 104.457C2.82334 104.481 2.7921 104.515 2.77227 104.556C2.75244 104.597 2.74486 104.643 2.75044 104.688C2.75601 104.733 2.77451 104.776 2.8037 104.811C2.8329 104.846 2.87155 104.871 2.91502 104.885V104.885ZM40.6203 104.427C43.1163 103.139 45.7626 102.166 48.4985 101.53H61.8052C64.2686 102.107 66.6203 103.086 68.766 104.427H40.6203ZM105.768 95.04C106.11 96.3138 106.338 97.6154 106.449 98.9296L100.399 98.8102C100.336 98.8102 100.276 98.8351 100.232 98.8793C100.188 98.9236 100.163 98.9836 100.163 99.0462C100.163 99.1088 100.188 99.1688 100.232 99.213C100.276 99.2573 100.336 99.2821 100.399 99.2821L106.494 99.4026C106.653 101.155 106.708 102.786 106.769 104.427H87.5457C87.5776 100.626 86.9666 96.0437 85.305 92.3626C87.0514 90.0786 89.4446 88.373 92.1734 87.4676C92.166 87.5041 92.1675 87.5418 92.1778 87.5776C92.7553 89.6428 93.4395 91.6784 94.1842 93.6897C94.2205 93.7871 94.7953 95.3232 94.8299 95.3788C94.8412 95.4149 94.8611 95.4477 94.888 95.4743C94.9149 95.5008 94.9479 95.5204 94.9841 95.5313C95.0203 95.5421 95.0587 95.544 95.0957 95.5365C95.1328 95.5291 95.1675 95.5127 95.1968 95.4888C95.2518 95.4382 94.7953 96.0135 100.494 88.7238C100.537 88.6787 100.561 88.619 100.561 88.5568C100.561 88.4947 100.537 88.435 100.494 88.3899C100.472 88.3679 100.446 88.3505 100.418 88.3386C100.389 88.3266 100.358 88.3205 100.327 88.3205C100.296 88.3205 100.266 88.3266 100.237 88.3386C100.208 88.3505 100.182 88.3679 100.161 88.3899L95.1225 94.8343C94.4026 92.9692 93.7332 91.0844 93.1425 89.1748C92.5881 87.3851 92.664 87.4302 92.5672 87.3449C99.0638 85.3913 103.968 88.7436 105.768 95.04ZM87.8383 67.8221C87.9456 67.1737 88.1919 66.5561 88.5603 66.0118C88.9288 65.4675 89.4107 65.0094 89.9729 64.669C90.2556 64.5117 90.5684 64.4162 90.8907 64.3885C91.213 64.3608 91.5375 64.4017 91.8429 64.5084C92.4011 64.7409 92.8765 65.1358 93.2074 65.6419C94.396 67.4987 94.1589 69.4666 96.2418 72.595C93.5561 71.6713 90.659 71.5522 87.9065 72.2524C87.6225 70.7903 87.6 69.2894 87.84 67.8194L87.8383 67.8221ZM85.9133 73.3661C90.662 71.5044 96.6933 71.8437 100.213 75.8576C103.531 79.8374 103.56 84.612 103.588 89.7963C98.6838 83.9113 89.622 86.141 85.0795 91.8863C84.476 90.6306 83.7054 89.4622 82.7888 88.413C83.6616 85.2599 83.6737 85.2527 83.6737 85.1939C83.688 85.1476 83.6846 85.0977 83.6643 85.0537C83.644 85.0098 83.6082 84.9749 83.5637 84.9557C83.062 84.6642 82.6233 84.2756 82.2734 83.8127C81.9234 83.3499 81.6691 82.8219 81.5254 82.2597C81.3817 81.6974 81.3514 81.1122 81.4363 80.5382C81.5212 79.9641 81.7196 79.4127 82.0199 78.9162C82.1794 78.6571 81.7713 78.4212 81.6118 78.678C80.1966 81.098 81.1393 84.1384 83.1677 85.2742C82.9166 86.1828 82.665 87.0916 82.4131 88.0005C80.6898 86.1595 78.4665 84.8616 76.0161 84.266C78.0252 79.4563 81.1179 75.2702 85.9155 73.3634L85.9133 73.3661ZM71.9983 84.359C74.1217 84.2241 76.2452 84.6212 78.1763 85.5144C80.1074 86.4076 81.785 87.7685 83.0572 89.474C84.2947 91.1583 85.2277 93.0464 85.8138 95.0526C86.6898 98.0989 87.1129 101.257 87.0694 104.427H79.139C79.1032 101.292 79.0746 98.4445 78.8216 95.3799C78.7969 95.079 78.3266 95.0763 78.3497 95.3799C78.5972 98.3543 78.6352 101.383 78.6671 104.427H69.613C67.7478 103.153 65.6963 102.175 63.5316 101.53H65.0326C65.0738 101.529 65.1142 101.518 65.1498 101.497C65.1853 101.476 65.2149 101.446 65.2354 101.411C65.256 101.375 65.2669 101.334 65.2671 101.293C65.2673 101.252 65.2568 101.211 65.2366 101.175C64.2901 99.4873 60.6612 93.2552 59.8131 91.8131C63.4304 86.9907 68.3496 84.5845 72.0022 84.3562L71.9983 84.359ZM89.5219 45.2375C89.705 45.1876 89.8989 45.1945 90.078 45.2575C90.257 45.3204 90.4126 45.4364 90.5242 45.5899C90.6358 45.7434 90.698 45.9273 90.7025 46.117C90.7071 46.3067 90.6539 46.4933 90.5498 46.6521C90.334 46.9041 90.0835 47.1241 89.8057 47.3055C84.21 51.6807 69.5657 57.8776 61.3531 58.1839C61.8343 54.3108 62.1148 51.2391 62.8524 46.4656C70.5524 46.6218 81.7691 45.8183 89.5257 45.2347L89.5219 45.2375ZM85.5151 43.8993H82.665C82.6778 43.8739 82.685 43.846 82.6862 43.8176C82.6874 43.7892 82.6827 43.7608 82.6722 43.7343C82.3697 42.955 82.0952 42.1657 81.807 41.382C81.7031 41.0987 81.2466 41.2214 81.3522 41.5074C81.6404 42.2913 81.9288 43.0754 82.2173 43.8597C82.2443 43.9147 82.7503 43.8999 77.7238 43.8999C77.77 43.8262 77.7464 43.9989 77.9026 41.4249C77.9213 41.1213 77.4494 41.1224 77.4307 41.4249C77.2761 43.9747 77.2712 43.8218 77.3097 43.8999H73.425C73.6084 43.0298 73.8269 42.1681 74.0806 41.3149C74.096 41.255 74.0872 41.1915 74.0561 41.138C74.0251 41.0845 73.9744 41.0453 73.9148 41.0289C73.8552 41.0125 73.7915 41.0201 73.7374 41.0501C73.6834 41.0802 73.6433 41.1302 73.6258 41.1895C73.3486 42.0769 73.1311 42.9818 72.9746 43.8982C72.9746 43.8982 69.3446 43.8933 69.2494 43.8905C70.008 42.6278 70.9025 41.4519 71.9169 40.3837C73.0882 39.1267 74.345 37.9522 75.6784 36.8687C75.9723 36.6017 76.2928 36.3654 76.6348 36.1636C77.0975 35.9325 77.621 35.8521 78.1317 35.9338C78.6424 36.0155 79.1147 36.2551 79.4822 36.619C81.8241 38.7514 83.8561 41.201 85.519 43.8966L85.5151 43.8993ZM62.1951 18.7093H93.4351C91.9452 20.2196 90.8501 21.3999 89.5301 22.847C88.2159 22.0707 86.652 21.8341 85.167 22.187C83.8596 22.5054 82.7041 23.463 81.4237 23.1385C80.1966 22.7293 79.7583 21.7816 78.2799 21.6265C76.2416 21.5319 75.7851 22.3184 73.4949 22.5109C72.5483 22.5329 71.6799 22.1292 70.7806 21.8905C69.0994 21.4523 67.3188 21.6041 65.736 22.3206C64.1801 20.6569 63.3787 19.8594 62.1962 18.7082L62.1951 18.7093ZM66.0732 22.6908C67.3911 22.124 68.85 21.9706 70.257 22.2508C71.1596 22.4372 72.0033 22.8618 72.9251 22.952C74.8369 23.1385 75.6063 22.292 77.693 22.0847C78.4679 22.0364 79.2321 22.2854 79.8298 22.781C80.4232 23.3016 81.1682 23.6176 81.955 23.6824C82.8249 23.5901 83.6689 23.3313 84.441 22.9201C85.2027 22.5983 86.0283 22.456 86.8539 22.5044C87.6794 22.5527 88.4828 22.7904 89.2018 23.199C86.8786 25.7372 85.0801 27.698 82.2289 30.4859C80.8858 31.7955 79.3232 33.5351 77.8063 33.5148C76.3631 33.4961 74.4425 31.5078 73.4828 30.4348C74.1292 29.7554 74.6651 28.9789 75.0712 28.1336C75.636 26.901 75.8247 25.3055 74.6466 24.6108C74.3415 24.4607 74.007 24.3799 73.667 24.374C73.327 24.3681 72.9899 24.4373 72.6798 24.5767C71.5674 25.1554 70.5133 25.8398 69.5321 26.6205C68.4131 25.28 67.2604 23.9697 66.0743 22.6897L66.0732 22.6908ZM69.487 27.2668C70.4474 26.4648 71.4816 25.7556 72.5758 25.1487C73.3497 24.7142 74.3567 24.7291 74.7956 25.3412C76.0023 27.115 73.0257 30.2197 72.9922 30.2747C72.9593 30.2763 72.9273 30.2856 72.8988 30.3019C72.8702 30.3181 72.8459 30.3409 72.8278 30.3683C72.8096 30.3958 72.7983 30.4271 72.7945 30.4598C72.7908 30.4924 72.7948 30.5255 72.8063 30.5563C73.322 32.0483 73.2498 33.6807 72.6044 35.1213C72.5734 35.1767 72.5655 35.2421 72.5827 35.3033C72.5998 35.3644 72.6404 35.4163 72.6957 35.4475C73.0486 35.5109 73.3844 35.6476 73.6812 35.8487C73.9781 36.0498 74.2296 36.3109 74.4194 36.6151C74.4525 36.6662 74.5039 36.7026 74.5631 36.7167C74.6223 36.7309 74.6847 36.7216 74.7372 36.691C74.7898 36.6603 74.8285 36.6106 74.8453 36.5521C74.8621 36.4936 74.8558 36.4309 74.8275 36.377C74.4518 35.7375 73.8412 35.27 73.1258 35.074C73.6339 33.8134 73.7469 32.4282 73.4498 31.1019C73.9118 31.6068 74.4134 32.0727 74.9227 32.5319C75.5675 33.1234 76.3218 33.583 77.143 33.8849C79.1263 34.4734 80.9001 32.4549 82.3834 30.9919C82.605 31.184 82.8679 31.3225 83.1516 31.3967C83.4354 31.4709 83.7324 31.4788 84.0197 31.4198C84.3183 31.3648 84.1918 30.9122 83.8943 30.9644C83.6873 30.9981 83.4757 30.9893 83.2722 30.9386C83.0687 30.8879 82.8777 30.7964 82.7107 30.6696C87.5435 25.9006 87.0326 26.0821 87.2333 26.1206C87.6914 26.366 88.0668 26.7412 88.3126 27.1991C88.5584 27.6569 88.6635 28.1772 88.6149 28.6946C88.4983 30.4359 86.5744 31.6646 84.6703 31.2345C84.6157 31.2216 84.5582 31.2285 84.5082 31.2539C84.4581 31.2793 84.4187 31.3217 84.3968 31.3734C84.375 31.4252 84.3722 31.483 84.389 31.5366C84.4057 31.5902 84.4409 31.6361 84.4883 31.6662C85.2033 32.1975 86.2048 32.9939 85.9623 34.0125C85.8815 34.2613 85.7499 34.4906 85.576 34.6859C85.402 34.8812 85.1894 35.0383 84.9516 35.1473C84.7139 35.2563 84.4561 35.3147 84.1945 35.3189C83.933 35.3232 83.6735 35.2731 83.4323 35.1719C83.3776 35.1586 83.3199 35.1651 83.2695 35.1904C83.2192 35.2157 83.1795 35.2581 83.1576 35.31C83.1357 35.3619 83.133 35.4199 83.15 35.4736C83.1669 35.5273 83.2025 35.5732 83.2502 35.6031C83.4924 35.7122 83.7103 35.8687 83.8911 36.0632C84.0719 36.2578 84.2119 36.4866 84.3029 36.7361C84.3666 37.0545 84.3114 37.3853 84.1476 37.6656C83.9837 37.946 83.7228 38.1566 83.4141 38.2574C83.0841 38.3124 82.2179 38.3361 81.8802 38.346C81.2961 37.7118 80.6757 37.1145 80.0591 36.5128C79.7882 36.2358 79.4842 35.9932 79.1538 35.7907C78.6669 35.5157 78.1102 35.389 77.5523 35.4262C76.9943 35.4634 76.4594 35.663 76.0133 36.0002C73.8877 37.6452 71.9537 39.5239 70.2477 41.6009C67.369 42.9 63.4656 44.6908 60.225 45.5499C59.8246 43.896 57.519 33.5989 57.2913 32.7178C60.285 31.6937 67.034 29.26 69.4881 27.2657L69.487 27.2668ZM56.8079 32.8828C57.8342 36.8549 58.2142 39.3618 59.7526 45.7462C50.0627 44.275 38.2707 40.1742 31.5403 38.5159C39.2189 38.0396 49.5798 35.3463 56.8079 32.8828ZM11.8179 65.4769C11.2315 65.321 10.6607 65.1113 10.1129 64.8505C9.6227 64.5994 9.19522 64.2414 8.86202 63.8029C8.52882 63.3645 8.29843 62.8567 8.18787 62.3172C7.88537 60.8558 8.79892 59.5435 9.51887 58.3572C10.8895 56.0956 24.9343 32.0397 25.4205 31.2922C25.9452 30.3866 26.7675 29.6908 27.7475 29.3232C29.2743 28.8348 30.6922 29.9282 31.3066 31.4363C31.8291 32.7162 33.4516 37.2724 33.6551 37.8554C32.1979 38.0162 30.7332 38.1008 29.2672 38.1089C27.5704 38.114 25.9202 38.6653 24.5612 39.6812C23.2021 40.6971 22.2063 42.1237 21.7212 43.7497C21.3912 44.9207 20.41 48.8609 15.9462 66.6237C13.8413 66.0803 13.915 66.0869 11.8201 65.4769H11.8179ZM22.1579 43.9219C22.6134 42.3391 23.5858 40.9545 24.92 39.9887C26.2541 39.023 27.8732 38.5318 29.5191 38.5935C33.3036 38.8822 53.2136 46.0933 62.3849 46.4491C61.3795 52.9881 60.973 59.4781 59.7042 65.5974C54.6915 65.3048 49.8229 64.8147 45.149 64.1674C44.9961 64.1459 44.7805 64.2697 44.858 64.4578C46.1615 67.5935 47.5246 70.7032 48.9473 73.7869C48.9473 73.7869 15.0062 73.7577 14.6361 73.7726C20.6349 49.8938 21.8257 45.1346 22.1606 43.9219H22.1579ZM7.34747 101.053C7.79132 99.5065 13.7308 77.3663 14.5129 74.2571C14.5129 74.2571 48.7438 74.2835 49.1706 74.2637C49.6777 75.3362 50.2739 76.3658 50.8596 77.3987C51.8716 79.1796 64.5986 101.004 64.6289 101.058C38.7239 101.058 39.4708 101.054 39.4152 101.058C36.5195 96.0519 33.9753 90.8511 31.801 85.4925C31.801 85.4925 31.7708 85.0822 31.746 84.4827C31.7328 84.1802 31.2615 84.1786 31.2741 84.4827C31.3671 86.6404 31.6877 100.069 31.7059 101.06C31.7042 101.056 7.37002 101.054 7.34747 101.053ZM11.8107 101.528H25.1174C27.5809 102.105 29.9326 103.084 32.0782 104.425H3.93197C6.42811 103.137 9.07466 102.165 11.8107 101.53V101.528Z"></path><path fill="#000001" d="M66.643 47.575C69.4777 47.3704 72.3338 47.2604 75.1548 47.2494C76.0639 47.2456 76.9841 47.2153 77.891 47.2835C80.0179 47.4425 80.5585 48.9335 79.5328 49.8933C78.9656 50.3529 78.3215 50.7084 77.6303 50.9432C74.975 52.0494 72.1838 52.796 69.3308 53.163C69.2687 53.1645 69.2096 53.1899 69.1657 53.2338C69.1217 53.2777 69.0964 53.3369 69.0949 53.399C69.0948 53.43 69.1008 53.4607 69.1127 53.4893C69.1245 53.518 69.1419 53.544 69.1638 53.566C69.1857 53.5879 69.2118 53.6053 69.2404 53.6171C69.2691 53.6289 69.2998 53.635 69.3308 53.6349C72.1223 53.2842 74.8564 52.5726 77.4648 51.518C78.2343 51.2541 78.964 50.8858 79.6334 50.4235C79.9182 50.2349 80.1487 49.975 80.302 49.6697C80.4552 49.3644 80.5258 49.0243 80.5068 48.6833C80.4361 48.3071 80.2657 47.9568 80.0135 47.669C79.7613 47.3811 79.4365 47.1661 79.073 47.0465C78.1927 46.7963 77.2748 46.7054 76.3626 46.7781C73.1341 46.7599 69.8775 46.8683 66.643 47.1026C66.3416 47.1235 66.3394 47.5959 66.643 47.575Z"></path><path fill="#000001" d="M71.3971 17.3585H85.03C85.076 17.357 85.1206 17.3422 85.1584 17.3159C85.1962 17.2896 85.2256 17.253 85.243 17.2104C85.2605 17.1678 85.2652 17.121 85.2567 17.0758C85.2482 17.0305 85.2267 16.9887 85.195 16.9554C83.7859 15.4253 82.1584 13.8754 80.1053 13.3056C76.9285 12.4217 73.2985 14.3506 71.2261 16.9554C71.1945 16.9893 71.1735 17.0316 71.1654 17.0772C71.1574 17.1228 71.1628 17.1698 71.1809 17.2124C71.1989 17.2551 71.229 17.2915 71.2674 17.3175C71.3058 17.3434 71.3508 17.3577 71.3971 17.3585V17.3585ZM76.648 13.8237C79.8528 12.9354 82.2129 14.4424 84.4932 16.8861H71.9103C73.1599 15.4283 74.8057 14.3645 76.648 13.8237V13.8237Z"></path><path fill="#000001" d="M30.1114 35.0245C30.3948 34.6854 30.5631 34.2651 30.5922 33.8241C30.6212 33.3831 30.5095 32.9443 30.2731 32.571C30.0124 32.1997 29.6449 31.9166 29.2194 31.7593C28.7939 31.6019 28.3307 31.5777 27.8911 31.6899C27.4516 31.8022 27.0566 32.0455 26.7586 32.3875C26.4606 32.7296 26.2738 33.1542 26.2229 33.605C26.221 34.0577 26.3588 34.4999 26.6175 34.8714C26.8762 35.2429 27.2432 35.5256 27.6685 35.6808C28.0937 35.8361 28.5565 35.8564 28.9937 35.7389C29.4309 35.6214 29.8212 35.372 30.1114 35.0245ZM29.755 32.67C29.978 32.9282 30.11 33.2525 30.1307 33.5931C30.1514 33.9336 30.0596 34.2715 29.8694 34.5548C29.6786 34.8544 29.3999 35.0878 29.0715 35.2231C28.743 35.3584 28.3808 35.3891 28.0343 35.3108C27.6878 35.2326 27.3739 35.0494 27.1355 34.7861C26.897 34.5228 26.7456 34.1923 26.702 33.8398C26.6074 32.2399 28.71 31.4891 29.755 32.67Z"></path><path fill="#000001" d="M92.0216 85.7703C92.7284 85.5915 93.4406 85.4265 94.16 85.3072C95.3764 85.0613 96.638 85.176 97.79 85.6372C99.3339 86.1602 99.8058 86.5089 100.641 86.6085C101.796 86.7465 102.456 85.3941 102.416 84.1368C102.229 80.2048 97.9572 77.4983 95.1792 77.7705C94.4427 77.8679 93.7423 78.1484 93.1422 78.5864C92.5421 79.0243 92.0613 79.6057 91.7439 80.2774C91.3592 81.1387 90.895 81.9621 90.3573 82.737C89.9783 83.1897 89.7769 83.7649 89.7908 84.3551C89.8218 84.6058 89.9079 84.8466 90.0429 85.06C90.178 85.2735 90.3586 85.4544 90.5719 85.5897C90.7852 85.725 91.0259 85.8114 91.2765 85.8426C91.5272 85.8738 91.7817 85.8491 92.0216 85.7703ZM90.3716 83.6253C90.5256 83.3156 90.8424 82.8828 91.4166 81.9302C91.692 81.4749 91.9385 81.0028 92.1547 80.5167C92.6278 79.5347 93.4607 78.7725 94.4807 78.3882C96.932 77.523 101.771 80.1548 101.947 84.1379C101.98 85.0179 101.646 86.1052 100.802 86.1437C100.322 86.1591 99.3751 85.7257 98.532 85.4045C96.0757 84.4695 95.0411 84.5559 92.3676 85.1983C92.0805 85.2925 91.7839 85.3549 91.4832 85.3842C91.2764 85.3818 91.0736 85.3278 90.893 85.2271C90.7124 85.1264 90.5599 84.9822 90.4492 84.8076C90.3386 84.6329 90.2733 84.4334 90.2594 84.2271C90.2454 84.0208 90.2833 83.8143 90.3694 83.6264L90.3716 83.6253Z"></path><path fill="#000001" d="M96.729 84.0587C97.1622 83.9046 97.5386 83.6229 97.8085 83.2507C98.0785 82.8785 98.2295 82.4333 98.2415 81.9737C98.2707 81.4908 98.1377 81.0121 97.8637 80.6135C97.5897 80.2149 97.1903 79.9193 96.729 79.7737C96.2459 79.6333 95.7327 79.6346 95.2503 79.7773C94.7679 79.92 94.3366 80.1982 94.0076 80.5789C93.7251 80.9683 93.5801 81.4407 93.5955 81.9216C93.6108 82.4025 93.7856 82.8647 94.0923 83.2354C94.3912 83.6303 94.806 83.9219 95.2787 84.0696C95.7515 84.2172 96.2585 84.2134 96.729 84.0587V84.0587ZM94.3415 80.9133C94.578 80.6465 94.8741 80.4393 95.2056 80.3082C95.5372 80.1772 95.895 80.1262 96.25 80.1592C97.9115 80.3165 98.318 82.5479 96.9171 83.4592C96.5745 83.6501 96.1818 83.7318 95.7914 83.6934C95.4011 83.655 95.0319 83.4982 94.7331 83.2442C94.1314 82.7112 93.775 81.5936 94.3415 80.9133Z"></path><path fill="#000001" d="M90.9276 69.6938C91.3315 69.6032 91.6985 69.3923 91.9803 69.0891C92.262 68.7858 92.4454 68.4043 92.5061 67.9948C92.6001 66.5945 91.3027 65.3482 89.9849 65.654C89.4809 65.8402 89.052 66.1869 88.7644 66.6407C88.5532 66.98 88.4468 67.3741 88.4587 67.7736C88.4705 68.1731 88.6001 68.5602 88.8312 68.8863C89.0622 69.2124 89.3845 69.463 89.7574 69.6067C90.1304 69.7503 90.5375 69.7806 90.9276 69.6938ZM89.1725 66.8789C89.3779 66.5661 89.6626 66.3135 89.9975 66.1468C90.9325 65.8168 91.9775 66.7144 92.0457 67.7534C92.0432 68.069 91.9419 68.3759 91.7561 68.631C91.5702 68.8861 91.3092 69.0766 91.0095 69.1757C90.7044 69.2884 90.3714 69.3021 90.058 69.215C89.7446 69.1278 89.4665 68.9442 89.2633 68.6902C89.06 68.4362 88.9419 68.1247 88.9256 67.7998C88.9093 67.4748 88.9957 67.153 89.1725 66.88V66.8789Z"></path><path fill="#000001" d="M70.1531 80.1201C70.5092 80.4125 70.9573 80.5693 71.418 80.5628C71.8787 80.5562 72.3222 80.3868 72.6699 80.0844C72.8924 79.9137 73.0735 79.6948 73.1994 79.4441C73.3253 79.1935 73.3928 78.9176 73.3969 78.6371C73.401 78.3567 73.3415 78.0789 73.2229 77.8247C73.1043 77.5705 72.9297 77.3465 72.7122 77.1694C72.7627 77.153 72.805 77.118 72.8305 77.0715C73.0419 76.6578 73.126 76.1908 73.0722 75.7293C73.0184 75.2679 72.8291 74.8328 72.5281 74.4788C72.2272 74.1249 71.8281 73.8681 71.3813 73.7409C70.9345 73.6136 70.46 73.6216 70.0178 73.7638C69.9075 73.7864 69.8048 73.8368 69.7196 73.9102C69.6343 73.9837 69.5692 74.0777 69.5305 74.1834C69.5104 74.278 69.5136 74.3761 69.5397 74.4692C69.5659 74.5623 69.6142 74.6477 69.6806 74.718C69.3949 74.6311 69.0912 74.6216 68.8006 74.6905C68.6935 74.7376 68.6028 74.8156 68.5404 74.9146C68.4779 75.0136 68.4466 75.129 68.4503 75.246C68.4596 75.7278 68.8155 75.9363 69.2109 76.0551C68.9087 75.9931 68.5942 76.0482 68.3309 76.2091C68.2424 76.277 68.183 76.376 68.1647 76.4861C68.1464 76.5962 68.1706 76.7091 68.2325 76.802C68.3088 76.8902 68.4053 76.9587 68.5138 77.0017C68.6223 77.0447 68.7396 77.0609 68.8556 77.0489C69.1988 77.0522 69.4782 77.0396 70.1162 77.0319C69.892 77.2231 69.7125 77.4614 69.5906 77.7297C69.4687 77.998 69.4073 78.2899 69.4109 78.5846C69.4144 78.8793 69.4827 79.1697 69.611 79.435C69.7392 79.7004 69.9243 79.9343 70.1531 80.1201V80.1201ZM70.1432 74.2164C70.4849 74.1013 70.8525 74.0873 71.202 74.176C71.5514 74.2647 71.8679 74.4523 72.1133 74.7164C72.3588 74.9805 72.5228 75.3098 72.5857 75.6648C72.6486 76.0198 72.6078 76.3855 72.468 76.7178L72.2722 76.7228C72.2982 76.4648 72.2652 76.2042 72.1756 75.9608C72.0861 75.7175 71.9423 75.4977 71.7552 75.3181C71.3441 74.9413 70.8432 74.6762 70.3005 74.5481C70.2081 74.5184 70.0222 74.4716 69.9963 74.3567C69.9749 74.2588 70.0601 74.2445 70.1432 74.2164ZM69.674 75.6827C69.4422 75.6653 69.2183 75.5913 69.0217 75.4671C68.953 75.4066 68.8644 75.2301 68.9436 75.1443C68.9986 75.0854 69.157 75.1195 69.2263 75.125C69.7277 75.1695 70.2115 75.3315 70.6385 75.5981C71.0655 75.8646 71.4236 76.2281 71.6837 76.659C71.6102 76.6394 71.5344 76.6294 71.4582 76.6293C70.9776 76.1338 70.3535 75.8017 69.674 75.68V75.6827ZM71.2987 77.083C72.5637 77.132 73.4261 78.474 72.6325 79.4579C72.4182 79.7475 72.1103 79.9539 71.7612 80.0422C71.412 80.1306 71.043 80.0953 70.7168 79.9425C70.3779 79.7509 70.1185 79.4447 69.9852 79.0789C69.852 78.7131 69.8535 78.3118 69.9897 77.9471C70.0962 77.6885 70.2779 77.4678 70.5113 77.3137C70.7447 77.1597 71.0191 77.0793 71.2987 77.083V77.083Z"></path><path fill="#000001" d="M86.1619 52.8677L88.655 56.3018C88.8316 56.5455 89.2419 56.3101 89.0626 56.0637C88.3366 55.0632 86.6745 52.7736 86.5694 52.6295C86.3929 52.3859 85.9831 52.6213 86.1619 52.8677Z"></path><path fill="#000001" d="M95.7551 36.0987L100.421 37.6623C100.709 37.7591 100.833 37.3032 100.546 37.2069L95.8805 35.6427C95.5901 35.5465 95.4652 36.0019 95.7551 36.0987Z"></path><path fill="#000001" d="M98.1794 19.7868L102.783 19.2032C102.845 19.2016 102.904 19.1761 102.948 19.1322C102.991 19.0883 103.017 19.0293 103.018 18.9673C103.018 18.9363 103.012 18.9055 103.001 18.8769C102.989 18.8482 102.972 18.8221 102.95 18.8001C102.928 18.7781 102.902 18.7607 102.873 18.7488C102.845 18.7369 102.814 18.7308 102.783 18.7308L98.1794 19.3149C98.1173 19.3165 98.0582 19.3419 98.0142 19.3858C97.9702 19.4297 97.9447 19.4887 97.9429 19.5508C97.9428 19.5819 97.9489 19.6126 97.9607 19.6413C97.9726 19.67 97.99 19.6961 98.012 19.718C98.034 19.74 98.0601 19.7573 98.0888 19.7691C98.1175 19.7809 98.1483 19.7869 98.1794 19.7868Z"></path><path fill="#000001" d="M86.537 8.99472L88.3228 5.45712C88.4598 5.18652 88.0522 4.94727 87.9152 5.21897C87.3938 6.25132 86.2031 8.61027 86.1289 8.75657C85.9925 9.02717 86.4 9.26587 86.537 8.99472Z"></path><path fill="#000001" d="M66.6518 9.65142C66.6833 9.70547 66.7351 9.74475 66.7956 9.76064C66.8562 9.77652 66.9206 9.7677 66.9746 9.73612C67.0287 9.70454 67.0679 9.65278 67.0838 9.59224C67.0997 9.53169 67.0909 9.46732 67.0593 9.41327C66.495 8.42327 65.1261 6.20402 65.0419 6.06432C65.0089 6.01322 64.9574 5.97683 64.8982 5.9627C64.839 5.94857 64.7767 5.9578 64.7241 5.98847C64.6716 6.01914 64.6328 6.06889 64.616 6.12737C64.5992 6.18585 64.6056 6.24857 64.6338 6.30247C65.2003 7.29522 65.6271 7.95082 66.6518 9.65142Z"></path><path fill="#000001" d="M49.907 20.3533L54.3747 21.4803C54.434 21.4938 54.4962 21.4839 54.5485 21.4527C54.6007 21.4215 54.6389 21.3713 54.6551 21.3127C54.6713 21.2541 54.6643 21.1914 54.6355 21.1378C54.6068 21.0842 54.5584 21.0438 54.5006 21.0249L50.033 19.8979C49.9737 19.8844 49.9114 19.8943 49.8592 19.9255C49.807 19.9567 49.7688 20.0069 49.7526 20.0655C49.7364 20.1241 49.7434 20.1867 49.7721 20.2404C49.8009 20.294 49.8492 20.3344 49.907 20.3533Z"></path><path fill="#000001" d="M67.4438 41.5651C67.4273 41.8682 67.8992 41.8676 67.9157 41.5651C67.9576 40.8117 67.8484 40.0575 67.5945 39.347C67.4927 39.0632 67.0368 39.1858 67.1391 39.4724C67.3804 40.1423 67.484 40.8541 67.4438 41.5651Z"></path><path fill="#000001" d="M82.6347 35.4029C82.9367 35.3848 82.9389 34.9123 82.6347 34.931C82.2659 34.954 81.8969 34.8875 81.5592 34.7374C81.2215 34.5873 80.925 34.3579 80.6949 34.0686C80.6504 34.0247 80.5904 34.0001 80.528 34.0001C80.4655 34.0001 80.4055 34.0247 80.361 34.0686C80.3179 34.1135 80.2938 34.1733 80.2938 34.2356C80.2938 34.2978 80.3179 34.3576 80.361 34.4025C80.6342 34.7368 80.9826 35.0018 81.3778 35.1757C81.773 35.3495 82.2037 35.4274 82.6347 35.4029Z"></path><path fill="#000001" d="M6.48121 60.5148L21.67 36.135C21.8312 35.8759 21.4231 35.64 21.2625 35.8963L6.07366 60.2767C5.91251 60.5352 6.32061 60.775 6.48121 60.5148Z"></path><path fill="#000001" d="M23.8964 60.9015L44.1314 64.5931C44.4284 64.6481 44.556 64.1922 44.2568 64.1377L24.0218 60.445C23.7248 60.39 23.595 60.8471 23.8964 60.9015Z"></path><path fill="#000001" d="M39.4779 60.7492L43.8581 61.2255C43.9206 61.2251 43.9804 61.2001 44.0247 61.1559C44.0689 61.1118 44.094 61.052 44.0946 60.9895C44.0932 60.9273 44.0678 60.868 44.0237 60.8241C43.9797 60.7801 43.9203 60.7548 43.8581 60.7536L39.4779 60.2767C39.4153 60.2772 39.3554 60.3022 39.3111 60.3465C39.2669 60.3907 39.2418 60.4506 39.2414 60.5132C39.2428 60.5755 39.2682 60.6347 39.3123 60.6787C39.3563 60.7227 39.4157 60.7479 39.4779 60.7492Z"></path><path fill="#000001" d="M17.2497 76.5979C17.1893 76.5814 17.1248 76.5895 17.0704 76.6204C17.0159 76.6513 16.976 76.7026 16.9593 76.7629C16.649 78.7525 15.7449 80.6019 14.3655 82.0688C14.157 82.2888 14.4898 82.6237 14.6993 82.4021C16.1379 80.8795 17.0842 78.9585 17.4147 76.89C17.4301 76.8294 17.4215 76.7653 17.3908 76.7108C17.36 76.6564 17.3095 76.616 17.2497 76.5979V76.5979Z"></path><path fill="#000001" d="M31.6844 83.7963C31.8208 81.8127 31.9569 79.8286 32.0925 77.8442C32.1134 77.5412 31.6415 77.5423 31.6206 77.8442C31.485 79.8279 31.3489 81.8119 31.2125 83.7963C31.1916 84.0999 31.6641 84.0983 31.6844 83.7963Z"></path><path fill="#000001" d="M50.8277 80.2824C51.095 80.4271 51.3337 80.0195 51.0659 79.8749C50.0115 79.3059 49.1022 78.502 48.4083 77.5253C48.2345 77.2794 47.8247 77.5148 48.0007 77.764C48.737 78.8096 49.7043 79.6714 50.8277 80.2824V80.2824Z"></path><path fill="#000001" d="M11.7507 91.9281C11.7327 91.8686 11.6925 91.8184 11.6385 91.7876C11.5844 91.7569 11.5207 91.7482 11.4603 91.7631C11.4304 91.7712 11.4023 91.7852 11.3778 91.8043C11.3533 91.8233 11.3327 91.847 11.3174 91.874C11.3021 91.901 11.2922 91.9307 11.2884 91.9615C11.2847 91.9923 11.287 92.0236 11.2953 92.0535C11.5109 92.5815 11.7269 93.1097 11.9432 93.638C11.9613 93.6975 12.0015 93.7478 12.0555 93.7785C12.1095 93.8092 12.1733 93.818 12.2336 93.803C12.2636 93.7948 12.2916 93.7808 12.3161 93.7618C12.3405 93.7427 12.361 93.719 12.3764 93.6921C12.3917 93.6651 12.4015 93.6354 12.4054 93.6046C12.4092 93.5738 12.4069 93.5425 12.3986 93.5126C12.1827 92.9843 11.9667 92.4561 11.7507 91.9281Z"></path><path fill="#000001" d="M56.0197 92.9703L56.3877 90.8396C56.4388 90.5426 55.984 90.415 55.9323 90.7142L55.5643 92.8444C55.5132 93.1419 55.968 93.2695 56.0197 92.9703Z"></path><path fill="#000001" d="M76.3428 30.9826H79.3777C79.4402 30.9826 79.5002 30.9578 79.5445 30.9135C79.5887 30.8693 79.6136 30.8092 79.6136 30.7467C79.6136 30.6841 79.5887 30.6241 79.5445 30.5798C79.5002 30.5356 79.4402 30.5107 79.3777 30.5107H78.155C78.155 26.2691 78.1655 26.5557 78.1336 26.4869H79.1555C79.218 26.4869 79.2781 26.4621 79.3223 26.4178C79.3666 26.3736 79.3914 26.3135 79.3914 26.251C79.3914 26.1884 79.3666 26.1284 79.3223 26.0841C79.2781 26.0399 79.218 26.015 79.1555 26.015H76.7954C76.7328 26.015 76.6728 26.0399 76.6286 26.0841C76.5843 26.1284 76.5595 26.1884 76.5595 26.251C76.5595 26.3135 76.5843 26.3736 76.6286 26.4178C76.6728 26.4621 76.7328 26.4869 76.7954 26.4869H77.7007C77.6677 26.5502 77.6831 26.8494 77.6831 30.5107H76.3455C76.2829 30.5107 76.2229 30.5356 76.1787 30.5798C76.1344 30.6241 76.1096 30.6841 76.1096 30.7467C76.1096 30.8092 76.1344 30.8693 76.1787 30.9135C76.2229 30.9578 76.2829 30.9826 76.3455 30.9826H76.3428Z"></path><path fill="#000001" d="M98.2598 87.3097C98.2071 87.2814 98.1456 87.2741 98.0877 87.2893C98.0298 87.3046 97.9799 87.3411 97.9479 87.3917L95.4784 91.5403C95.0795 90.1426 94.6809 88.7449 94.2827 87.3472C94.2638 87.2893 94.2233 87.241 94.1697 87.2123C94.1161 87.1835 94.0535 87.1765 93.9949 87.1927C93.9362 87.2089 93.8861 87.2471 93.8549 87.2993C93.8237 87.3515 93.8138 87.4138 93.8273 87.4731C94.2426 89.0549 94.7244 90.6191 95.1732 92.1921C95.1861 92.2364 95.2121 92.2758 95.2477 92.3052C95.2833 92.3346 95.3268 92.3527 95.3728 92.3571C95.4127 92.3633 95.4535 92.3585 95.4909 92.3433C95.5283 92.3281 95.5609 92.303 95.5851 92.2707C95.6522 92.1811 98.3087 87.7101 98.3555 87.6276C98.3701 87.6005 98.3793 87.5707 98.3824 87.54C98.3855 87.5094 98.3825 87.4784 98.3736 87.4488C98.3647 87.4193 98.3501 87.3918 98.3306 87.3679C98.311 87.3441 98.287 87.3243 98.2598 87.3097V87.3097Z"></path></svg>
