<svg width="1170" height="2532" viewBox="0 0 1170 2532" fill="none" xmlns="http://www.w3.org/2000/svg">
<g clip-path="url(#clip0_1372_1910)">
<path d="M-940 1475.67L-857.7 1422.17C-775.3 1368.67 -610.7 1261.67 -446.2 1262.87C-281.7 1263.97 -117.3 1373.37 47.2 1377.97C211.7 1382.67 376.3 1282.67 541 1277.87C705.7 1272.97 870.3 1363.37 1035 1399.97C1199.7 1436.67 1364.3 1419.67 1528.8 1369.67C1693.3 1319.67 1857.7 1236.67 2022.2 1196.37C2186.7 1155.97 2351.3 1158.37 2433.7 1159.47L2516 1160.67V2062.67H2433.7C2351.3 2062.67 2186.7 2062.67 2022.2 2062.67C1857.7 2062.67 1693.3 2062.67 1528.8 2062.67C1364.3 2062.67 1199.7 2062.67 1035 2062.67C870.3 2062.67 705.7 2062.67 541 2062.67C376.3 2062.67 211.7 2062.67 47.2 2062.67C-117.3 2062.67 -281.7 2062.67 -446.2 2062.67C-610.7 2062.67 -775.3 2062.67 -857.7 2062.67H-940V1475.67Z" fill="#00B4D8"/>
<path d="M-940 1479.67L-857.7 1485.97C-775.3 1492.37 -610.7 1504.97 -446.2 1499.37C-281.7 1493.67 -117.3 1469.67 47.2 1482.37C211.7 1494.97 376.3 1544.37 541 1563.87C705.7 1583.37 870.3 1572.97 1035 1558.87C1199.7 1544.67 1364.3 1526.67 1528.8 1529.67C1693.3 1532.67 1857.7 1556.67 2022.2 1555.67C2186.7 1554.67 2351.3 1528.67 2433.7 1515.67L2516 1502.67V2152.67H2433.7C2351.3 2152.67 2186.7 2152.67 2022.2 2152.67C1857.7 2152.67 1693.3 2152.67 1528.8 2152.67C1364.3 2152.67 1199.7 2152.67 1035 2152.67C870.3 2152.67 705.7 2152.67 541 2152.67C376.3 2152.67 211.7 2152.67 47.2 2152.67C-117.3 2152.67 -281.7 2152.67 -446.2 2152.67C-610.7 2152.67 -775.3 2152.67 -857.7 2152.67H-940V1479.67Z" fill="#008BC7"/>
<path d="M-940 1494.67L-857.7 1513.37C-775.3 1531.97 -610.7 1569.37 -446.2 1606.67C-281.7 1643.97 -117.3 1681.37 47.2 1700.17C211.7 1718.97 376.3 1719.37 541 1690.37C705.7 1661.37 870.3 1602.97 1035 1601.37C1199.7 1599.67 1364.3 1654.67 1528.8 1643.37C1693.3 1631.97 1857.7 1554.37 2022.2 1531.17C2186.7 1507.97 2351.3 1539.37 2433.7 1554.97L2516 1570.67V2062.67H2433.7C2351.3 2062.67 2186.7 2062.67 2022.2 2062.67C1857.7 2062.67 1693.3 2062.67 1528.8 2062.67C1364.3 2062.67 1199.7 2062.67 1035 2062.67C870.3 2062.67 705.7 2062.67 541 2062.67C376.3 2062.67 211.7 2062.67 47.2 2062.67C-117.3 2062.67 -281.7 2062.67 -446.2 2062.67C-610.7 2062.67 -775.3 2062.67 -857.7 2062.67H-940V1494.67Z" fill="#0060AB"/>
<path d="M-940 1714.67L-857.7 1699.37C-775.3 1683.97 -610.7 1653.37 -446.2 1645.67C-281.7 1637.97 -117.3 1653.37 47.2 1660.97C211.7 1668.67 376.3 1668.67 541 1688.87C705.7 1708.97 870.3 1749.37 1035 1761.87C1199.7 1774.37 1364.3 1758.97 1528.8 1752.47C1693.3 1745.97 1857.7 1748.37 2022.2 1746.37C2186.7 1744.37 2351.3 1737.97 2433.7 1734.87L2516 1731.67V2062.67H2433.7C2351.3 2062.67 2186.7 2062.67 2022.2 2062.67C1857.7 2062.67 1693.3 2062.67 1528.8 2062.67C1364.3 2062.67 1199.7 2062.67 1035 2062.67C870.3 2062.67 705.7 2062.67 541 2062.67C376.3 2062.67 211.7 2062.67 47.2 2062.67C-117.3 2062.67 -281.7 2062.67 -446.2 2062.67C-610.7 2062.67 -775.3 2062.67 -857.7 2062.67H-940V1714.67Z" fill="#003487"/>
<path d="M-940 1900.67L-857.7 1911.17C-775.3 1921.67 -610.7 1942.67 -446.2 1939.87C-281.7 1936.97 -117.3 1910.37 47.2 1913.37C211.7 1916.37 376.3 1948.97 541 1955.67C705.7 1962.37 870.3 1942.97 1035 1919.87C1199.7 1896.67 1364.3 1869.67 1528.8 1865.37C1693.3 1860.97 1857.7 1879.37 2022.2 1899.37C2186.7 1919.37 2351.3 1940.97 2433.7 1951.87L2516 1962.67V2634H2188C2105.6 2634 2132.5 2662 1968 2662C1803.5 2662 1832.5 2694 1668 2694C1503.5 2694 1168.7 2730 1004 2730C839.3 2730 424.7 2662 260 2662C95.3 2662 211.7 2662 47.2 2662C-117.3 2662 64.5 2634 -100 2634C-264.5 2634 -429.6 2612 -512 2612L-940 2594V1900.67Z" fill="#03045E"/>
</g>
<defs>
<clipPath id="clip0_1372_1910">
<rect width="1170" height="2532" fill="white"/>
</clipPath>
</defs>
</svg>
