<svg xmlns="http://www.w3.org/2000/svg" viewBox="0 0 200 200" height="400" width="400"><g><path d="M142.614,67.686s20.125-9.046,20.53-9.226c.485-.215.065-.927-.417-.713-1.222.542-17.69,7.939-19.885,8.934-.008.216-.019.432-.023.648A.415.415,0,0,1,142.614,67.686Z" fill="#000000"></path><path d="M143.305,57.7c3.252-1.248,7.053-2.907,10.328-4.386.484-.219.064-.932-.417-.714-3.425,1.55-7.065,3.091-10.021,4.259-.01.288-.021.577-.031.865A.377.377,0,0,0,143.305,57.7Z" fill="#000000"></path><path d="M143.305,63.878c4.022-1.583,13.016-5.482,16.727-7.1.486-.213.065-.925-.417-.714-3.517,1.539-16.538,7-16.646,7.1l-.024.661A.322.322,0,0,0,143.305,63.878Z" fill="#000000"></path><path d="M83.575,119.05c-.01-2.421-.129-4.841-.133-7.263l-.821.352c.011,1.774.126,6.266.129,6.738a1.234,1.234,0,0,0,.058.614c.123.2.42.312.615.43,3.818,2.318,7.128,4.511,9.348,6.089.1-.261.2-.522.312-.781C90.272,123.217,86.532,120.833,83.575,119.05Z" fill="#000000"></path><path d="M140.935,25.909c-3.779-2.634-9.518.191-14.32,1.931-5.347,1.938-62.949,23.239-64.2,23.834a8.726,8.726,0,0,0-4.194,4.157c-1.13,2.413-.9,5.05-.9,7.644v5.337c.138-.014.275-.034.413-.047a.417.417,0,0,1,.413.41c.006.659,0,13.84,0,15.486a10.8,10.8,0,0,1,3.529.229c3.714.834,5.338,3.8,4.8,6.411-.7,3.44-4.868,5.9-8.013,7.475v7.239a.409.409,0,0,1-.2.357c-.2.1-.4.21-.6.318v3.457a.376.376,0,0,1,.267-.375c.043-.031,35.471-13.832,35.52-13.851.33-.129.547.236.508.508a11.908,11.908,0,0,1,5.71-8.5c2.7-1.595,42.334-19.965,42.945-20.242a.415.415,0,0,0,.2-.357c0-.216,1.193-30.9,1.169-33.466C143.96,30.956,143.489,27.687,140.935,25.909Zm-2.864,19.506c-2.2,2.261-4.508,4.415-6.692,6.691a.418.418,0,0,1-.727-.32V38.409a.424.424,0,0,1,.634-.353c.343.238,1.509,1.4,6.785,6.774A.421.421,0,0,1,138.071,45.415Z" fill="#d5e04f"></path><path d="M84.923,168.485c-5.524-9.707-17.312-15.565-28.3-17.568-4.518,7.975-6.813,12.434-10.308,15.946-5.184,5.209-13.479,6.569-18.452,1.12a10.351,10.351,0,0,1-1.9-9.868c1-3.566,3.4-6.51,6-9.054a66.7,66.7,0,0,1,6.646-5.691c-2.893,0-33.122,0-33.122,0a.419.419,0,0,1-.413-.414c-.225,8.564.085,16.842.254,31.79a.419.419,0,0,0,.413.413H86.308a.414.414,0,0,0,.413-.413A13.007,13.007,0,0,0,84.923,168.485Z" fill="#ffaaaa"></path><path d="M65.759,90.065C65.614,87.475,63,85.1,58.175,85.5c-2.947.249-10.065,2.549-14.1,4.3-.484.21-.9-.5-.417-.713a67.283,67.283,0,0,1,14.49-4.428c0-1.646.006-14.827,0-15.486a.418.418,0,0,0-.413-.41A56.447,56.447,0,0,0,24.615,83.854c-10.119,9.4-15.7,21.1-17.738,34.649-1.067,7.1-1.791,23.453-1.8,24.453a.417.417,0,0,0,.413.414H38.614c1.31-.986,2.423-1.81,5.88-4.062a48.171,48.171,0,0,1,.748-14.854c1.709-7.331,6.35-14.763,13.02-18.082a.408.408,0,0,0,.2-.357V98.776c-6.538,3.51-5.83,2.922-10.971,5.442-.476.233-.9-.48-.417-.714,1.616-.792,11.637-5.406,14.563-7.471C63.581,94.664,65.9,92.59,65.759,90.065ZM9.979,126.992q-.564,4.133-1.127,8.266a.412.412,0,0,1-.508.288.423.423,0,0,1-.288-.508q.563-4.133,1.126-8.266a.412.412,0,0,1,.508-.288A.425.425,0,0,1,9.979,126.992Z" fill="#ffaaaa"></path><path d="M60.145,137.108c-2.163-2.848-5.9-3.3-9.1-1.826a17.333,17.333,0,0,0-2.414,1.331c-6.475,4.318-10.907,6.823-16.659,12.448-2.6,2.544-5.009,5.488-6,9.054a10.351,10.351,0,0,0,1.9,9.868,10.8,10.8,0,0,0,8.948,3.459c7.633-.695,11.775-6.447,15.583-13.09,1.273-2.221,5.574-9.81,6.247-11C60.355,144.335,62.619,140.366,60.145,137.108Zm-9.987,2.764c2.173-3.147,6.928-1.964,7.313.831a4.657,4.657,0,0,1-2.149,4.516,3.628,3.628,0,0,1-4.546-.922C49.772,143.083,49.2,141.265,50.158,139.872Z" fill="#000000"></path><path d="M93.7,107.47a.4.4,0,0,0-.05-.186c-.077.172.115.043-3.663,1.678-.027.676-.06,1.35-.073,2.026a2.366,2.366,0,0,0,.227,1.36,2,2,0,0,0,2.045.85c.963-.191,1.347-1.254,1.432-2.118A30.618,30.618,0,0,0,93.7,107.47Z" fill="#000000"></path><path d="M57.471,140.7c-.383-2.784-5.128-3.994-7.313-.831-.962,1.393-.386,3.211.618,4.425a3.627,3.627,0,0,0,4.546.922A4.657,4.657,0,0,0,57.471,140.7Z" fill="#ffd7d7"></path><path d="M138.071,44.83l-6.714-6.713c-.207-.2-.67-.224-.7.433-.033.848-.009,3.647-.009,13.236a.418.418,0,0,0,.727.32c2.184-2.276,4.472-4.451,6.692-6.691A.414.414,0,0,0,138.071,44.83Z" fill="#000000"></path><path d="M93.451,95.921c-.049.019-35.477,13.82-35.52,13.851a.378.378,0,0,0-.267.375c.069,3.376-.149,4.485.249,6.264a4.848,4.848,0,0,0,2.469,3.429c2.036.955,4.125,0,6.028-.794,2.434-1.014,26.767-11.456,27.08-11.6a.417.417,0,0,0,.2-.357c.129-6.443-.072-7.92.264-10.659C93.993,96.156,93.781,95.792,93.451,95.921Z" fill="#c4aff9"></path><path d="M155.766,106.122a8.9,8.9,0,0,0-5.7-1.858c.511,2.559.6,5.606-.874,7.772-1.233,1.815-3.891,2.878-5.822,1.468a7.123,7.123,0,0,1-1.838-2.421,8.158,8.158,0,0,0-1.508-2.249,4.71,4.71,0,0,0,.075,4.908,7.985,7.985,0,0,0,3.4,2.879,12.619,12.619,0,0,0,10.375.084C158.421,114.709,160.483,109.847,155.766,106.122Z" fill="#c0c195"></path><path d="M112.753,87.885c.013.1,3.86,11.163,3.928,11.252,4.509-3.156,9.246-6.7,14.418-7.72-12.246-2.741-16.123-3.643-17.42-3.895C113.171,87.424,112.618,87.384,112.753,87.885Z" fill="#ffc431"></path><path d="M194.372,138.911c-.381.213-41.283,23.749-41.649,23.959-.062-28.785-2.548-33.387,14.144-43.064,8.586-4.978,19.027-10.372,27.922-14.769.477-.236.059-.948-.417-.713-2.188,1.08-15.654,7.964-20.158,10.4-25.5,13.8-22.38,14.959-22.315,48.127,0,0-19.654-11.922-20.453-12.37-.087.273-.161.55-.24.825,22.329,13.5,20.879,12.639,21.013,12.677a.422.422,0,0,0,.3-.041l42.266-24.319a.414.414,0,0,0-.417-.714Z" fill="#000000"></path><path d="M31.223,58.481a.413.413,0,0,0,0,.826h16.87a.413.413,0,0,0,0-.826Z" fill="#000000"></path><path d="M49.866,51.555,36.127,39.889c-.4-.342-.99.24-.584.585L49.282,52.139C49.685,52.481,50.272,51.9,49.866,51.555Z" fill="#000000"></path><path d="M53.982,31.523V47.69a.413.413,0,0,0,.826,0V31.523a.413.413,0,0,0-.826,0Z" fill="#000000"></path><path d="M163.144,91.763l-12.528-6.3a.539.539,0,0,0-.417,0l-12.23,6.151a16.4,16.4,0,0,1,8.6,5.338c3.577,1.8,3.169,1.633,3.619,1.821.4.167.988-.275,1.341-.453l11.617-5.842A.417.417,0,0,0,163.144,91.763Z" fill="#c4aff9"></path><path d="M194.789,91.763l-12.528-6.3a.539.539,0,0,0-.417,0l-12.528,6.3a.417.417,0,0,0,0,.714c1.423.715,12.016,6.087,12.516,6.3.4.167.988-.275,1.34-.453l11.617-5.842A.415.415,0,0,0,194.789,91.763Z" fill="#c4aff9"></path><path d="M163.144,76.285l-12.528-6.3a.53.53,0,0,0-.417,0c-1.414.71-12.009,6.039-12.529,6.3a.417.417,0,0,0,0,.714c1.423.716,12.016,6.087,12.516,6.3.4.167.988-.275,1.341-.452L163.144,77A.417.417,0,0,0,163.144,76.285Z" fill="#c4aff9"></path><path d="M147.371,84.084l-12.529-6.3a.539.539,0,0,0-.417,0l-12.528,6.3a.417.417,0,0,0,0,.714c1.423.715,12.016,6.087,12.516,6.294.4.168.988-.274,1.341-.452L147.371,84.8A.416.416,0,0,0,147.371,84.084Z" fill="#c4aff9"></path><path d="M178.69,84.084l-12.529-6.3a.539.539,0,0,0-.417,0l-12.528,6.3a.417.417,0,0,0,0,.714c1.423.715,12.016,6.087,12.516,6.294.4.168.988-.274,1.34-.452L178.69,84.8A.417.417,0,0,0,178.69,84.084Z" fill="#c4aff9"></path><path d="M178.69,100.108l-12.529-6.3a.539.539,0,0,0-.417,0l-12.528,6.3a.416.416,0,0,0,0,.713c1.423.716,12.016,6.087,12.516,6.3.4.168.988-.275,1.34-.452l11.618-5.843A.416.416,0,0,0,178.69,100.108Z" fill="#c4aff9"></path><path d="M144.289,130.083a10.86,10.86,0,0,0,.517-9.648c-2.06-4.752-8.358-6.861-13.321-4.322a16.421,16.421,0,0,1,2.611-5.924c1.377-1.956,4.3-3.05,5.929-1.355a8.224,8.224,0,0,1,1.508,2.249,7.123,7.123,0,0,0,1.838,2.421c1.931,1.41,4.589.347,5.822-1.468,2.3-3.383,1.528-11.782-4.43-16.915a16.349,16.349,0,0,0-13.664-3.7c-4.331.849-8.177,3.392-11.8,5.9-12.1,8.373-21.17,15.044-26.525,28.692-6.5,16.562-4.277,32.079-2.869,48.736a.422.422,0,0,0,.413.413h39.364a.422.422,0,0,0,.413-.413c.13-5.7-1.471-14.156,1.114-23.438.73-2.622,2.275-6.326,4.132-8.244a4.322,4.322,0,0,1,2.325-1.394,1.528,1.528,0,0,1,1.85,1.646c-.068,1.136-.5,2.256.033,3.341a3.5,3.5,0,0,0,2.635,1.875c2.608.4,4.856-1.738,5.907-3.9a14.088,14.088,0,0,0,1.271-7.7A7.083,7.083,0,0,0,144.289,130.083ZM110.4,112.308a7.28,7.28,0,0,1,4.37-2.988c.518-.12.738.679.219.8a6.43,6.43,0,0,0-3.875,2.608C110.812,113.161,110.1,112.748,110.4,112.308Zm10.02,16.3a5.441,5.441,0,0,1,4.2-3.347c.521-.079.744.722.22.8a4.625,4.625,0,0,0-3.627,2.77C121.012,129.31,120.219,129.1,120.419,128.606Z" fill="#ffd7d7"></path><path d="M114.769,109.32a7.285,7.285,0,0,0-4.37,2.988c-.3.44.413.853.714.417a6.43,6.43,0,0,1,3.875-2.608C115.507,110,115.287,109.2,114.769,109.32Z" fill="#ffaaaa"></path><path d="M124.623,125.259a5.441,5.441,0,0,0-4.2,3.347c-.2.492.593.7.8.22a4.625,4.625,0,0,1,3.627-2.77C125.367,125.981,125.144,125.18,124.623,125.259Z" fill="#ffaaaa"></path><path d="M165.085,127.318c-.288-.444-1-.031-.713.417l5.555,8.562c.288.444,1,.031.713-.417Z" fill="#000000"></path><path d="M175.691,132.315c.437.305.851-.411.417-.714l-8.636-6.024c-.437-.3-.85.411-.417.714Z" fill="#000000"></path><path d="M9.69,126.484a.412.412,0,0,0-.508.288q-.562,4.132-1.126,8.266a.424.424,0,0,0,.288.508.411.411,0,0,0,.508-.288q.564-4.134,1.127-8.266A.425.425,0,0,0,9.69,126.484Z" fill="#ffaaaa"></path><path d="M61.86,84.942c-2.784-.76-4.929-.15-7.6.546a72.25,72.25,0,0,0-10.606,3.6c-.487.211-.067.923.417.713a68.741,68.741,0,0,1,10.365-3.493c2.762-.72,4.488-1.254,7.256-.568a5.268,5.268,0,0,1,3.966,3.678c.641,2.692-1.735,5.023-3.994,6.621a25.608,25.608,0,0,1-3.549,2c-6.029,3.253-6.211,3.1-11.04,5.468-.478.234-.059.947.417.714,4.138-2.028,6.506-2.952,10.83-5.363,1.222-.681,5.046-2.215,7.3-5.486C67.634,90.442,66.547,86.221,61.86,84.942Z" fill="#000000"></path></g><g><path d="M53.628,145.777a3.656,3.656,0,0,0,1.758-.45,4.791,4.791,0,0,0,2.209-4.642c-.395-2.87-5.274-4.164-7.539-.885C48.6,141.906,50.5,145.777,53.628,145.777Zm-2.654-5.417c1.34-1.916,4.412-1.917,5.448.1a3.684,3.684,0,0,1-1.114,3.585,2.528,2.528,0,0,1-3.44,0C50.81,143.091,50.163,141.52,50.974,140.36Z" fill="#000000"></path><path d="M131.469,52.193c2.178-2.27,4.5-4.469,6.691-6.691a.546.546,0,0,0,0-.76l-6.716-6.716a.543.543,0,0,0-.917.381c-.163,12.775-.065,13.551.054,13.673A.552.552,0,0,0,131.469,52.193Zm.134-1.656V39.708l5.415,5.414Z" fill="#000000"></path><path d="M194.312,138.8c-.37.206-38.441,22.113-41.465,23.852-.041-17.287-.662-23.974,1.159-29.756a16.641,16.641,0,0,1,5.831-8.233c7.5-5.917,28.2-16.153,35.008-19.516.624-.309.1-1.246-.528-.937-2.2,1.087-15.636,7.954-20.162,10.4-25.472,13.79-22.457,14.665-22.382,48.015-1.979-1.2-18.64-11.306-20.177-12.206.781-2.422,2.188-5.576,3.836-7.28a4.22,4.22,0,0,1,2.246-1.35,1.4,1.4,0,0,1,1.71,1.513c-.069,1.154-.509,2.278.046,3.4a3.624,3.624,0,0,0,2.728,1.943c2.64.4,4.935-1.7,6.038-3.964a14.188,14.188,0,0,0,1.284-7.76,7.169,7.169,0,0,0-5.013-6.919,11.044,11.044,0,0,0,.45-9.627c-2.03-4.685-8.2-6.914-13.256-4.5a16.2,16.2,0,0,1,2.534-5.623c1.291-1.835,4.075-2.962,5.672-1.4A4.8,4.8,0,0,0,140,113.81a8.1,8.1,0,0,0,3.451,2.924,12.782,12.782,0,0,0,10.477.085c2.789-1.224,5.324-4.182,4.526-7.258a6.533,6.533,0,0,0-1.522-2.523,10.81,10.81,0,0,0-1.085-1.014,8.969,8.969,0,0,0-5.675-1.887,16.572,16.572,0,0,0-3.139-6.813c1.416.714,2.092,1.061,2.454,1.248.839.432.929.531,1.863-.009.282-.165,10.025-5.05,11.862-5.979a.541.541,0,0,0,.188-.739c-.054-.164.049-.069-12.731-6.5a.666.666,0,0,0-.522,0l-12.188,6.13a16.659,16.659,0,0,0-2.681-.431c3.991-2.07,10.364-5.223,12.161-6.145a.541.541,0,0,0-.008-.933l-12.536-6.3a.664.664,0,0,0-.521,0l-12.537,6.305a.54.54,0,0,0,.008.932c.332.167,10.576,5.348,12.1,6.1a15.68,15.68,0,0,0-2.84.284c-18.084-4.047-17.94-4.087-18.216-3.914a.459.459,0,0,0-.257.526c.018.131,3.448,9.952,3.905,11.186a122.355,122.355,0,0,0-10.59,8.142,47.051,47.051,0,0,0-12.916,17.806c-2.46-1.753-5.929-4-9.327-6.055-.006-1.158-.129-5.9-.133-7.111q3.144-1.351,6.282-2.713c-.026.623-.054,1.223-.064,1.816a2.487,2.487,0,0,0,.247,1.445,2.116,2.116,0,0,0,2.174.9c1.242-.246,1.487-1.768,1.532-2.228.282-2.871-.082-11.283.345-14.647a11.592,11.592,0,0,1,5.649-8.409c.98-.578,2.038-1.082,3.061-1.569.429-.2,60.01-27.718,60.4-27.893.64-.283.112-1.222-.519-.942-1.161.516-16.891,7.581-19.7,8.852.018-.479.088-2.463.088-2.463a.434.434,0,0,0,.288-.027c3.794-1.493,12.3-5.169,16.73-7.106.642-.279.118-1.22-.517-.942-1.743.763-15.926,6.768-16.463,7.011.2-5.59.148-5.1.248-5.14,2.722-1.044,6.2-2.521,10.336-4.389.633-.288.112-1.229-.52-.942-3.242,1.467-6.815,2.987-9.838,4.186.018-.5.805-20.742.786-22.811-.025-2.546-.373-6.151-3.106-8.055-3.33-2.319-8.184-.462-12.468,1.178-.667.255-64.853,23.947-66.182,24.577A8.878,8.878,0,0,0,58.1,55.778a14.624,14.624,0,0,0-.918,6.559c0,.379.01,6.361.01,6.361A57.639,57.639,0,0,0,13.214,98.386c-7,13.249-7.562,27-8.159,41.567-.4,9.719-.04,17.691.152,34.794a.543.543,0,0,0,.539.537H86.309a.539.539,0,0,0,.537-.54,13.194,13.194,0,0,0-1.814-6.321c-4.93-8.662-15.469-15.232-28.215-17.6,0,0,1.346-2.376,1.945-3.431,1.689-2.974,4-7.048,1.483-10.363-2.2-2.892-6.488-3.989-11.687-.524-.922.615-3.566,2.327-3.956,2.581a47.067,47.067,0,0,1,.762-14.607c1.8-7.706,6.341-14.26,12.176-17.579.019,7.347-.1,7.966.25,9.535a4.935,4.935,0,0,0,2.539,3.515c2,.937,4.06.074,5.881-.688,0,0,13.182-5.6,16.288-6.937.011,1.232.126,6.391.129,6.529-.134.837.32.919.731,1.171,3.374,2.048,6.743,4.241,9.261,6.028-6.4,16.445-4.244,32.161-2.842,48.692a.547.547,0,0,0,.538.536h39.366a.546.546,0,0,0,.536-.536c.133-5.854-1.445-13.76,1.067-23.247,5.942,3.592,20.751,12.526,20.751,12.526.268.151.314.135.6-.028,45.137-26.088,42.381-24.251,42.462-24.6A.539.539,0,0,0,194.312,138.8ZM123.3,84.441l11.332-5.7,11.332,5.7-11.332,5.7Zm17.321,25.307a11.609,11.609,0,0,1,.8,1.389,7.23,7.23,0,0,0,1.877,2.468c1.937,1.413,4.681.441,6-1.5,1.125-1.655,1.481-3.976,1.059-6.9a8.124,8.124,0,0,1,4.747,1.6c1.842,1.51,2.627,2.958,2.4,4.431a6.275,6.275,0,0,1-3.264,4.216c-5.352,3.135-12.221.623-13.635-2.8A3.707,3.707,0,0,1,140.623,109.748Zm8.694-.716c-.305,2.46-2.136,4.572-4.553,4.095a3.564,3.564,0,0,1-2.065-1.9,18.732,18.732,0,0,0-1.6-2.662,4.451,4.451,0,0,0-5.759-.776c-1.969,1.106-3.088,3.36-4,5.632a14.533,14.533,0,0,0-.926,3.356.542.542,0,0,0,.8.59,9.159,9.159,0,0,1,9.25-.289c4.545,2.454,5.481,8.714,2.751,12.947a.541.541,0,0,0,.316.8,6.092,6.092,0,0,1,4.791,5.283,14.112,14.112,0,0,1-.913,7.765c-.847,1.9-3.139,4.538-5.676,3.547a2.219,2.219,0,0,1-1.472-2.493c.1-1,.546-2.269-.174-3.194-1-1.289-3.083-1.6-5.148.4a16.2,16.2,0,0,0-3.295,5.157c-4.315,9.785-2.44,20.358-2.492,26.916H90.807c-1.5-17.735-3.627-33.057,3.623-49.732,4.421-10.167,11.191-16.343,21.391-23.574,2.208-1.565,4.489-3.138,6.779-4.675a26.978,26.978,0,0,1,7.333-3.577C140.319,89.551,150.618,98.534,149.317,109.032ZM117.423,98.369c-.19-.544-3.173-9.045-3.44-9.81l14.858,3.327C123.961,93.5,119.726,97.056,117.423,98.369Zm22.033-6.441,10.951-5.507,11.332,5.7-11.332,5.7-5.563-2.793A16.468,16.468,0,0,0,139.456,91.928ZM90.87,110.6c.011-.384.053-1.381.053-1.381l1.815-.882c0,.682-.01,1.387-.03,2.079-.015.531-.042,1.652-.659,1.841a.992.992,0,0,1-1.134-.46A2.916,2.916,0,0,1,90.87,110.6Zm-43.848-7.2c-.627.307-.1,1.244.527.938,3.3-1.615,9.951-4.865,9.966-4.869v6.229a25.177,25.177,0,0,0-10.082,10.42c-3.557,6.522-4.743,13.816-3.846,23.645-1.506.989-2.541,1.684-3.9,2.663-1.624,0-33.425-.027-33.64-.026.178-6.115.644-15.24,1.378-21.041,1.87-14.764,7-25.938,16.149-35.166A55.418,55.418,0,0,1,57.2,69.775V84.68a75.5,75.5,0,0,0-13.589,4.294c-.641.279-.119,1.219.517.943a72.145,72.145,0,0,1,13.059-4.14c3.009-.7,6.886.121,8.141,3.017.985,2.272-.27,4.675-3.73,7.144C59.66,97.318,50.972,101.457,47.022,103.392Zm11.6,5.934c.008-3.385.073-6.919-.006-10.4a33.422,33.422,0,0,0,3.455-2,13.361,13.361,0,0,0,3.655-3.477A5.435,5.435,0,0,0,63.5,85.393a10.469,10.469,0,0,0-5.228-.87V60.114A8.383,8.383,0,0,1,60.45,54.2c2.037-2.163,4.214-2.731,70.194-26.815,3.295-1.2,7.026-2.576,9.8-.661,2.2,1.52,2.54,4.483,2.586,6.894.023,1.2-1.028,29.969-1.153,33.36-7.5,3.4-35.513,16.427-42.072,19.79a12.813,12.813,0,0,0-6.722,9.16C44.39,114.9,68.527,105.519,58.619,109.326Zm-9.5,28.1a10.367,10.367,0,0,1,5.594-2.04c2.835,0,5.53,2.073,5.576,4.994.042,2.6-1.193,4.268-7.929,16.109-3.32,5.837-6.74,11.881-13.5,13.66-4.976,1.311-10.168-1-11.819-5.265a9.686,9.686,0,0,1-.5-4.934c.461-3.054,2.065-6,4.9-9C37.96,144.058,44.716,140.476,49.116,137.429ZM6.02,143.5H38.24a67.033,67.033,0,0,0-6.359,5.476c-2.063,2.018-4.934,5.158-6.038,9.11a10.487,10.487,0,0,0,1.927,9.987,10.974,10.974,0,0,0,9.052,3.5c7.926-.723,12.092-6.894,15.679-13.153,1.247-2.175,2.51-4.394,3.754-6.6,11.974,2.137,22.191,8.214,27.341,16.268a13.335,13.335,0,0,1,2.151,6.122c-3.326,0-78.457-.022-79.469-.012C6.267,172.88,6,145.4,6.02,143.5Zm86.919-46.34c-.151,1.638-.128,3.191-.192,9.581-4.386,1.906-27.832,11.9-27.832,11.9a6.873,6.873,0,0,1-2.885.65,3.357,3.357,0,0,1-2.851-2.075c-.746-1.749-.567-3.632-.564-6.7C60.386,109.823,90.272,98.19,92.939,97.155Z" fill="#000000"></path><path d="M31.223,59.432H48.1a.538.538,0,0,0,0-1.076H31.218a.538.538,0,0,0,0,1.076Z" fill="#000000"></path><path d="M35.462,40.569c14.658,12.426,13.8,11.8,14.093,11.8a.524.524,0,0,0,.392-.908L36.208,39.794C35.676,39.343,34.932,40.119,35.462,40.569Z" fill="#000000"></path><path d="M54.394,48.214h.02a.542.542,0,0,0,.52-.524V31.519a.539.539,0,0,0-1.077,0V47.694A.538.538,0,0,0,54.394,48.214Z" fill="#000000"></path><path d="M169.26,92.588c.325.164,12.134,6.137,12.524,6.3s.851-.118,1.208-.324c.307-.178,11.4-5.744,11.862-5.979a.541.541,0,0,0-.008-.932L182.31,85.347a.666.666,0,0,0-.522,0l-12.537,6.305A.541.541,0,0,0,169.26,92.588Zm1.461-.468,11.332-5.7,11.332,5.7-11.332,5.7Z" fill="#000000"></path><path d="M163.208,77.106a.54.54,0,0,0-.008-.932l-12.535-6.305a.666.666,0,0,0-.522,0l-12.537,6.3a.541.541,0,0,0,.008.933c.322.162,12.134,6.136,12.525,6.3s.849-.116,1.207-.324C151.6,82.937,163.108,77.156,163.208,77.106Zm-1.469-.464-11.332,5.7-11.332-5.7,11.332-5.7Z" fill="#000000"></path><path d="M153.156,84.907s12.14,6.14,12.529,6.3.849-.117,1.207-.325c.323-.187,11.307-5.694,11.862-5.978a.541.541,0,0,0,.188-.739c-.054-.163.058-.065-12.732-6.5a.666.666,0,0,0-.522,0l-12.536,6.305A.541.541,0,0,0,153.156,84.907Zm1.465-.466,11.332-5.7,11.332,5.7-11.332,5.7Z" fill="#000000"></path><path d="M166.21,93.692a.671.671,0,0,0-.522,0L153.152,100a.54.54,0,0,0,.008.932c12.982,6.539,12.494,6.346,12.771,6.346a3.05,3.05,0,0,0,1.2-.5l11.626-5.848a.541.541,0,0,0-.008-.932Zm11.075,6.773-11.332,5.7-11.332-5.7,11.332-5.7Z" fill="#000000"></path><path d="M114.741,109.2a7.388,7.388,0,0,0-4.445,3.04c-.394.575.525,1.132.919.559a6.29,6.29,0,0,1,3.8-2.559C115.691,110.086,115.427,109.043,114.741,109.2Z" fill="#000000"></path><path d="M124.6,125.135a5.589,5.589,0,0,0-4.3,3.424c-.263.646.761.952,1.028.315a4.524,4.524,0,0,1,3.529-2.695C125.548,126.081,125.291,125.028,124.6,125.135Z" fill="#000000"></path><path d="M164.267,127.8l5.555,8.562c.376.579,1.305.036.923-.553l-5.555-8.562C164.814,126.671,163.883,127.211,164.267,127.8Z" fill="#000000"></path><path d="M175.907,132.514a.561.561,0,0,0,.273-1.015l-8.637-6.024c-.574-.4-1.128.521-.559.918C176.4,132.96,175.691,132.514,175.907,132.514Z" fill="#000000"></path><path d="M9.725,126.363a.537.537,0,0,0-.667.393l-1.124,8.253a.54.54,0,0,0,.779.611.552.552,0,0,0,.263-.345l1.124-8.254A.549.549,0,0,0,9.725,126.363Z" fill="#000000"></path></g></svg>