<svg width="3456" height="2234" viewBox="0 0 3456 2234" fill="none" xmlns="http://www.w3.org/2000/svg">
<g clip-path="url(#clip0_1382_1771)">
<path d="M0 1323.67L82.3 1270.17C164.7 1216.67 329.3 1109.67 493.8 1110.87C658.3 1111.97 822.7 1221.37 987.2 1225.97C1151.7 1230.67 1316.3 1130.67 1481 1125.87C1645.7 1120.97 1810.3 1211.37 1975 1247.97C2139.7 1284.67 2304.3 1267.67 2468.8 1217.67C2633.3 1167.67 2797.7 1084.67 2962.2 1044.37C3126.7 1003.97 3291.3 1006.37 3373.7 1007.47L3456 1008.67V1910.67H3373.7C3291.3 1910.67 3126.7 1910.67 2962.2 1910.67C2797.7 1910.67 2633.3 1910.67 2468.8 1910.67C2304.3 1910.67 2139.7 1910.67 1975 1910.67C1810.3 1910.67 1645.7 1910.67 1481 1910.67C1316.3 1910.67 1151.7 1910.67 987.2 1910.67C822.7 1910.67 658.3 1910.67 493.8 1910.67C329.3 1910.67 164.7 1910.67 82.3 1910.67H0V1323.67Z" fill="#00B4D8"/>
<path d="M0 1327.67L82.3 1333.97C164.7 1340.37 329.3 1352.97 493.8 1347.37C658.3 1341.67 822.7 1317.67 987.2 1330.37C1151.7 1342.97 1316.3 1392.37 1481 1411.87C1645.7 1431.37 1810.3 1420.97 1975 1406.87C2139.7 1392.67 2304.3 1374.67 2468.8 1377.67C2633.3 1380.67 2797.7 1404.67 2962.2 1403.67C3126.7 1402.67 3291.3 1376.67 3373.7 1363.67L3456 1350.67V2000.67H3373.7C3291.3 2000.67 3126.7 2000.67 2962.2 2000.67C2797.7 2000.67 2633.3 2000.67 2468.8 2000.67C2304.3 2000.67 2139.7 2000.67 1975 2000.67C1810.3 2000.67 1645.7 2000.67 1481 2000.67C1316.3 2000.67 1151.7 2000.67 987.2 2000.67C822.7 2000.67 658.3 2000.67 493.8 2000.67C329.3 2000.67 164.7 2000.67 82.3 2000.67H0V1327.67Z" fill="#008BC7"/>
<path d="M0 1342.67L82.3 1361.37C164.7 1379.97 329.3 1417.37 493.8 1454.67C658.3 1491.97 822.7 1529.37 987.2 1548.17C1151.7 1566.97 1316.3 1567.37 1481 1538.37C1645.7 1509.37 1810.3 1450.97 1975 1449.37C2139.7 1447.67 2304.3 1502.67 2468.8 1491.37C2633.3 1479.97 2797.7 1402.37 2962.2 1379.17C3126.7 1355.97 3291.3 1387.37 3373.7 1402.97L3456 1418.67V1910.67H3373.7C3291.3 1910.67 3126.7 1910.67 2962.2 1910.67C2797.7 1910.67 2633.3 1910.67 2468.8 1910.67C2304.3 1910.67 2139.7 1910.67 1975 1910.67C1810.3 1910.67 1645.7 1910.67 1481 1910.67C1316.3 1910.67 1151.7 1910.67 987.2 1910.67C822.7 1910.67 658.3 1910.67 493.8 1910.67C329.3 1910.67 164.7 1910.67 82.3 1910.67H0V1342.67Z" fill="#0060AB"/>
<path d="M0 1562.67L82.3 1547.37C164.7 1531.97 329.3 1501.37 493.8 1493.67C658.3 1485.97 822.7 1501.37 987.2 1508.97C1151.7 1516.67 1316.3 1516.67 1481 1536.87C1645.7 1556.97 1810.3 1597.37 1975 1609.87C2139.7 1622.37 2304.3 1606.97 2468.8 1600.47C2633.3 1593.97 2797.7 1596.37 2962.2 1594.37C3126.7 1592.37 3291.3 1585.97 3373.7 1582.87L3456 1579.67V1910.67H3373.7C3291.3 1910.67 3126.7 1910.67 2962.2 1910.67C2797.7 1910.67 2633.3 1910.67 2468.8 1910.67C2304.3 1910.67 2139.7 1910.67 1975 1910.67C1810.3 1910.67 1645.7 1910.67 1481 1910.67C1316.3 1910.67 1151.7 1910.67 987.2 1910.67C822.7 1910.67 658.3 1910.67 493.8 1910.67C329.3 1910.67 164.7 1910.67 82.3 1910.67H0V1562.67Z" fill="#003487"/>
<path d="M0 1748.67L82.3 1759.17C164.7 1769.67 329.3 1790.67 493.8 1787.87C658.3 1784.97 822.7 1758.37 987.2 1761.37C1151.7 1764.37 1316.3 1796.97 1481 1803.67C1645.7 1810.37 1810.3 1790.97 1975 1767.87C2139.7 1744.67 2304.3 1717.67 2468.8 1713.37C2633.3 1708.97 2797.7 1727.37 2962.2 1747.37C3126.7 1767.37 3291.3 1788.97 3373.7 1799.87L3456 1810.67V2482H3128C3045.6 2482 3072.5 2510 2908 2510C2743.5 2510 2772.5 2542 2608 2542C2443.5 2542 2108.7 2578 1944 2578C1779.3 2578 1364.7 2510 1200 2510C1035.3 2510 1151.7 2510 987.2 2510C822.7 2510 1004.5 2482 840 2482C675.5 2482 510.4 2460 428 2460L0 2442V1748.67Z" fill="#03045E"/>
</g>
<defs>
<clipPath id="clip0_1382_1771">
<rect width="3456" height="2234" fill="white"/>
</clipPath>
</defs>
</svg>
