<svg xmlns="http://www.w3.org/2000/svg" fill="none" viewBox="0 0 200 200" height="400" width="400"><g id="databases-1--development-databases-1"><g id="color"><g id="group"><path id="vector" fill="#ffd7d7" d="M73.9 96.6801H57.587C57.241 96.6801 57.358 96.6671 48.563 105.462H46.935C46.989 105.675 47.042 105.941 47.095 106.154H47.871C47.646 106.379 47.493 106.57 47.294 106.769C47.348 107.035 47.454 107.301 47.507 107.569L57.678 97.3721H73.9C73.9918 97.3721 74.0798 97.3356 74.1447 97.2707C74.2095 97.2058 74.246 97.1178 74.246 97.0261C74.246 96.9343 74.2095 96.8463 74.1447 96.7814C74.0798 96.7165 73.9918 96.6801 73.9 96.6801V96.6801Z"></path><path id="vector_2" fill="#ffd7d7" d="M31.041 105.462H20.566C20.2116 105.433 19.8554 105.433 19.501 105.462C19.223 105.505 20.475 104.329 5.662 119.141C5.449 119.354 5.024 119.621 5.024 119.941C5.007 120.041 5.024 125.316 5.024 155.177C5.024 155.269 5.06045 155.357 5.12534 155.422C5.19023 155.487 5.27823 155.523 5.37 155.523C5.46176 155.523 5.54977 155.487 5.61466 155.422C5.67954 155.357 5.716 155.269 5.716 155.177V120.153L19.661 106.207H30.988C30.988 106.048 31.041 105.516 31.041 105.462Z"></path><path id="vector_3" fill="#c0c195" d="M43.027 91.611H31.427C31.427 93.879 31.347 105.957 30.627 108.111C30.6031 108.168 30.6007 108.232 30.6204 108.291C30.6401 108.349 30.6805 108.399 30.734 108.43C43.901 108.43 39.223 108.483 47.66 108.483C47.7003 108.441 47.7307 108.391 47.749 108.335C47.7674 108.28 47.7732 108.222 47.766 108.164C47.334 107.3 46.286 101.387 43.027 91.611Z"></path><path id="vector_4" fill="#6596e1" d="M41.005 101.724C40.567 96.515 39.879 92.858 39.674 91.558H38.982C39.8012 95.9187 40.3357 100.328 40.582 104.758C40.782 108.78 40.303 108.378 41.274 108.378C41.3028 106.157 41.213 103.936 41.005 101.724V101.724Z"></path><path id="vector_5" fill="#ffd7d7" d="M38.4 81.723C36.6 83.407 36.47 83.547 34.94 85.077C38.44 88.239 44.778 92.096 49.577 93.114C49.5254 94.2128 49.6686 95.3121 50 96.361C50.352 97.472 51.5 97.767 52.022 95.775C52.257 94.875 52.502 93.965 52.714 93.061C52.834 94.201 53.405 96.496 54.258 97.106C54.4261 97.2413 54.6379 97.3106 54.8535 97.3009C55.0691 97.2911 55.2738 97.203 55.429 97.053C55.624 96.7934 55.7185 96.4719 55.695 96.148C55.722 94.976 55.802 93.859 55.802 92.688C56.919 94.817 57.079 95.615 57.558 96.041C58.037 96.467 58.931 96.515 59.208 95.935C59.2931 95.7148 59.3293 95.4786 59.314 95.243C59.2613 93.9304 58.935 92.6432 58.356 91.464C58.0883 90.8751 57.6824 90.3595 57.1728 89.961C56.6633 89.5625 56.0651 89.2929 55.429 89.175C52.5732 88.699 49.786 87.8769 47.129 86.727C43.974 85.489 42.624 84.839 38.4 81.723Z"></path><path id="vector_6" fill="#c0c195" d="M43.666 71.983C43.7578 71.983 43.8458 71.9465 43.9107 71.8817C43.9755 71.8168 44.012 71.7288 44.012 71.637C44.012 71.5452 43.9755 71.4572 43.9107 71.3923C43.8458 71.3275 43.7578 71.291 43.666 71.291C42.441 71.264 41.218 71.211 39.993 71.185C39.9476 71.185 39.9026 71.1939 39.8606 71.2113C39.8186 71.2287 39.7805 71.2542 39.7483 71.2863C39.7162 71.3185 39.6907 71.3566 39.6733 71.3986C39.6559 71.4406 39.647 71.4856 39.647 71.531C39.647 71.5764 39.6559 71.6214 39.6733 71.6634C39.6907 71.7054 39.7162 71.7435 39.7483 71.7757C39.7805 71.8078 39.8186 71.8333 39.8606 71.8507C39.9026 71.8681 39.9476 71.877 39.993 71.877C41.218 71.9 42.442 71.983 43.666 71.983Z"></path><path id="vector_7" fill="#c0c195" d="M36.427 68.7361C35.779 68.7 35.1401 68.9018 34.6304 69.3036C34.1206 69.7054 33.7752 70.2795 33.659 70.9181C33.659 70.7591 33.872 70.6521 33.979 70.6521C35.4553 70.6638 36.93 70.7526 38.397 70.9181C38.609 70.9181 38.716 71.0781 38.769 71.2911C38.7715 70.6487 38.5318 70.029 38.0977 69.5555C37.6637 69.0819 37.0671 68.7894 36.427 68.7361V68.7361Z"></path><path id="vector_8" fill="#ffd7d7" d="M38.822 71.291C38.822 71.078 38.663 70.972 38.45 70.918C34.305 70.573 33.713 70.435 33.713 70.865C33.6375 71.3992 33.7305 71.9436 33.9789 72.4224C34.2274 72.9013 34.6189 73.2908 35.099 73.5367C35.5792 73.7826 36.1241 73.8727 36.6578 73.7944C37.1916 73.7161 37.6876 73.4734 38.077 73.1C38.3232 72.8692 38.5172 72.5884 38.6457 72.2763C38.7742 71.9643 38.8343 71.6283 38.822 71.291V71.291Z"></path><path id="vector_9" fill="#c0c195" d="M43.932 90.9321C40.7163 89.3718 37.7263 87.3841 35.043 85.0231C35.26 84.7701 37.71 82.3641 38.503 81.6701C39.498 82.4531 40.5473 83.1645 41.643 83.7991C42.843 84.4991 42.335 84.3721 42.335 83.6931C41.8577 81.5071 40.973 79.4305 39.727 77.5721C39.2194 76.8502 38.5425 76.2637 37.7557 75.864C36.9689 75.4642 36.0962 75.2634 35.2138 75.2791C34.3314 75.2948 33.4664 75.5265 32.6943 75.954C31.9222 76.3814 31.2666 76.9916 30.785 77.7311C29.249 80.1311 30.085 83.0041 30.253 91.2511C30.2522 91.3002 30.2613 91.349 30.2797 91.3946C30.2982 91.4402 30.3257 91.4815 30.3605 91.5163C30.3953 91.551 30.4368 91.5783 30.4824 91.5967C30.528 91.615 30.5768 91.624 30.626 91.6231H43.772C44.154 91.6241 43.932 91.0321 43.932 90.9321Z"></path><path id="vector_10" fill="#c0c195" d="M34.458 84.544C33.658 83.592 32.868 82.676 32.063 81.723C31.746 81.349 31.263 81.883 31.584 82.202C32.384 83.161 33.184 84.065 33.979 85.023C34.245 85.4 34.775 84.919 34.458 84.544Z"></path><path id="vector_11" fill="#c0c195" d="M37.864 81.138C38.184 81.457 38.716 80.925 38.343 80.659C37.543 79.967 36.8 79.275 36.001 78.583C35.682 78.264 35.15 78.796 35.522 79.062C36.268 79.7 37.066 80.446 37.864 81.138Z"></path><path id="vector_12" fill="#ffc431" d="M82.361 86.035C82.947 86.62 83.532 87.206 84.118 87.735C84.508 87.345 86.99 85.277 87.578 84.754C86.087 85.13 82.628 85.928 82.361 86.035Z"></path><path id="vector_13" fill="#ffc431" d="M121 57.133C121.159 56.973 121.319 56.76 121.479 56.601C121.27 56.388 102 37.333 99.447 34.778C99.419 34.741 99.3829 34.7109 99.3413 34.6902C99.2997 34.6695 99.2539 34.6587 99.2075 34.6587C99.1611 34.6587 99.1153 34.6695 99.0737 34.6902C99.0322 34.7109 98.996 34.741 98.968 34.778C73.146 60.931 75.281 58.328 75.282 59.209C75.326 80.509 75.206 78.879 75.549 79.222C75.764 79.491 75.842 79.515 76.613 80.286C76.8371 80.1821 77.051 80.0576 77.252 79.914C81.4266 77.882 85.7505 76.1723 90.186 74.8C88.524 72.942 85.827 70.588 85.076 68.732C83.776 65.514 86.8 62.891 90.776 65.539C93.561 67.395 109.962 74.679 117.176 78.1C117.761 77.248 118.293 76.344 118.876 75.492C118.45 75.385 118.024 75.332 117.598 75.226C117.528 75.2028 117.466 75.1606 117.419 75.104C117.372 75.0475 117.342 74.9789 117.332 74.906C116.9 68.164 116.69 62.269 121 57.133Z"></path><path id="vector_14" fill="#ffc431" d="M89.922 93.561C90.348 93.987 90.771 94.391 91.197 94.817C91.311 94.59 93.268 91.155 94.225 89.717C92.953 90.833 90.445 93.038 89.922 93.561Z"></path><path id="vector_15" fill="#ffc431" d="M105.089 98.649C103.252 97.9615 101.516 97.0308 99.926 95.882C99.544 96.805 98.152 100.21 97.371 100.991C97.894 101.462 99.771 103.332 100.352 103.919C100.38 103.956 100.416 103.986 100.458 104.007C100.499 104.028 100.545 104.038 100.591 104.038C100.638 104.038 100.684 104.028 100.725 104.007C100.767 103.986 100.803 103.956 100.831 103.919C102.481 102.269 104.131 100.566 105.831 98.919C105.568 98.809 105.357 98.753 105.089 98.649Z"></path><path id="vector_16" fill="#000000" d="M104.61 65.5431C103.067 67.0861 101.576 68.63 100.033 70.173C100.246 70.28 100.458 70.386 100.725 70.493C102.215 69.002 103.652 67.5121 105.142 66.0221C105.408 65.7001 104.929 65.2231 104.61 65.5431Z"></path><path id="vector_17" fill="#000000" d="M106.739 67.672C105.462 68.949 104.184 70.28 102.907 71.557C103.12 71.664 103.386 71.77 103.599 71.877C104.823 70.652 106.034 69.415 107.271 68.151C107.587 67.828 107.058 67.3 106.739 67.672Z"></path><path id="vector_18" fill="#000000" d="M108.868 69.747C107.843 70.799 106.792 71.823 105.781 72.888C105.994 72.994 106.26 73.101 106.473 73.207C107.431 72.249 108.389 71.238 109.347 70.28C109.382 70.2486 109.41 70.2105 109.431 70.1681C109.451 70.1256 109.463 70.0796 109.465 70.0326C109.468 69.9856 109.461 69.9386 109.445 69.8942C109.43 69.8499 109.405 69.809 109.374 69.774C109.343 69.739 109.305 69.7106 109.262 69.6903C109.22 69.67 109.174 69.6582 109.127 69.6557C109.08 69.6532 109.033 69.66 108.988 69.6757C108.944 69.6913 108.903 69.7156 108.868 69.747Z"></path><path id="vector_19" fill="#000000" d="M61.444 50.16C61.544 50.181 69.244 51.788 69.374 51.81C69.8 51.917 70.015 51.216 69.587 51.118C66.908 50.51 61.76 49.485 61.656 49.468C61.177 49.415 60.965 50.107 61.444 50.16Z"></path><path id="vector_20" fill="#000000" d="M62.934 42.176C62.561 41.91 62.082 42.389 62.455 42.655C63.414 43.445 69.013 47.784 70.655 49.149C71.027 49.415 71.506 48.936 71.134 48.67C71.084 48.631 63.6 42.733 62.934 42.176Z"></path><path id="vector_21" fill="#000000" d="M73.26 46.807C73.429 47.229 74.06 46.86 73.845 46.434C73.65 45.985 70.356 38.427 70.226 37.971C70.066 37.546 69.426 37.918 69.64 38.344C70.422 40.142 72.4 44.659 73.26 46.807Z"></path><path id="vector_22" fill="#c0c195" d="M146.393 78.53H138.781C137.272 89.396 130.861 96.553 124.091 98.809C121.51 99.5763 118.848 100.041 116.16 100.193C116.143 100.349 113.947 115.203 113.925 115.362C132.325 115.488 115.151 115.416 142.188 115.416C142.237 115.415 142.286 115.424 142.332 115.442C142.377 115.46 142.419 115.487 142.454 115.522C142.489 115.557 142.516 115.599 142.534 115.644C142.552 115.69 142.561 115.739 142.56 115.788V116.959C147.96 111.559 147.673 111.822 147.83 111.743C148.051 111.669 147.941 111.69 152.088 111.69C151.338 108.538 149.156 92.35 146.393 78.53Z"></path><path id="vector_23" fill="#6596e1" d="M128.881 96.307C128.615 96.467 128.349 96.68 128.081 96.84C127.815 98.809 125.899 113.659 125.686 115.309H126.378C126.489 114.273 128.864 96.409 128.881 96.307Z"></path><path id="vector_24" fill="#c0c195" d="M148.2 78.159C147.3 74.646 146.374 71.1381 145.433 67.5671C144.241 63.0481 142.987 58.3021 139.525 54.9521C138.324 53.733 136.84 52.8284 135.207 52.3179C133.573 51.8075 131.839 51.7069 130.157 52.0251C129.211 52.1763 128.283 52.426 127.389 52.7701C127.454 52.7657 127.519 52.7783 127.578 52.8065C127.637 52.8347 127.688 52.8776 127.725 52.9311C127.763 52.9845 127.786 53.0468 127.792 53.1117C127.799 53.1767 127.788 53.2423 127.762 53.302C127.096 54.7774 126.217 56.1467 125.152 57.3661C123.991 58.4271 122.824 57.9951 122.652 57.1351C122.58 56.4964 122.691 55.8505 122.971 55.2721C122.918 55.2721 122.918 55.3251 122.865 55.3251C122.174 55.9094 121.533 56.5503 120.949 57.2411C116.631 62.3811 116.749 67.963 117.223 75.0721C117.223 75.4901 117.623 75.372 118.766 75.657C119.004 75.341 125.285 65.7711 126.966 63.2021L138.836 63.9481C139.386 68.5614 139.403 73.2226 138.889 77.84C138.836 78.053 138.836 78.3171 138.782 78.5301H147.882C148.1 78.6371 148.256 78.425 148.2 78.159Z"></path><path id="vector_25" fill="#ffaaaa" d="M127.383 52.744C125.89 53.3138 124.491 54.1031 123.231 55.086C122.923 55.24 122.906 55.586 122.752 56.044C122.655 56.4087 122.637 56.7898 122.699 57.162C122.74 57.3154 122.812 57.4587 122.91 57.5831C123.009 57.7075 123.132 57.8104 123.272 57.8853C123.411 57.9603 123.565 58.0058 123.723 58.019C123.882 58.0322 124.041 58.0128 124.191 57.962C125.791 57.662 127.137 54.406 127.809 53.332C127.862 53.064 127.649 52.691 127.383 52.744Z"></path><path id="vector_26" fill="#c0c195" d="M128.3 59.262C127.927 60.062 127.512 60.917 127.129 61.71C126.922 62.139 127.549 62.453 127.714 62.083C128.074 61.283 128.502 60.428 128.885 59.634C129.088 59.206 128.509 58.889 128.3 59.262Z"></path><path id="vector_27" fill="#c0c195" d="M138.941 62.562C138.677 61.6581 138.499 60.7314 138.409 59.794C138.409 59.581 138.143 59.528 137.983 59.528C137.897 59.558 137.823 59.6166 137.775 59.6941C137.726 59.7716 137.706 59.8633 137.717 59.954C137.836 60.9043 138.014 61.8465 138.249 62.775C138.35 63.2 139.047 63.041 138.941 62.562Z"></path><path id="vector_28" fill="#c0c195" d="M118.5 48.351C118.592 48.351 118.68 48.3146 118.745 48.2497C118.81 48.1848 118.846 48.0968 118.846 48.005C118.846 47.9133 118.81 47.8253 118.745 47.7604C118.68 47.6955 118.592 47.659 118.5 47.659C117.522 47.6621 116.545 47.6087 115.573 47.499C115.147 47.449 115.147 48.141 115.573 48.191C116.545 48.3021 117.522 48.3556 118.5 48.351V48.351Z"></path><path id="vector_29" fill="#c0c195" d="M125.492 46.989C125.199 46.4947 124.763 46.1012 124.241 45.8606C123.72 45.62 123.137 45.5438 122.571 45.642C122.005 45.7401 121.483 46.0081 121.072 46.4104C120.662 46.8126 120.384 47.33 120.275 47.894C120.275 47.787 120.435 47.681 120.542 47.628C121.103 47.5051 121.67 47.4159 122.242 47.361C122.401 47.308 122.561 47.308 122.721 47.255C124.506 46.898 125.333 46.677 125.489 46.989H125.492Z"></path><path id="vector_30" fill="#ffaaaa" d="M125.475 46.967C125.236 46.589 125.035 46.908 122.76 47.233C122.446 47.338 121.583 47.438 120.578 47.605C119.984 47.605 120.042 50.458 122.334 51.118C122.875 51.2677 123.448 51.2516 123.979 51.0717C124.51 50.8918 124.976 50.5564 125.314 50.1091C125.653 49.6618 125.849 49.123 125.878 48.5628C125.906 48.0025 125.766 47.4466 125.475 46.967V46.967Z"></path><path id="vector_31" fill="#ffaaaa" d="M138.888 63.8391L127.018 63.0941C124.976 66.2851 117.131 78.1391 117.118 78.1571C112.428 75.7571 93.331 67.3571 90.612 65.5431C86.671 62.9161 83.665 65.4501 84.912 68.7361C85.588 70.5101 88.371 72.9581 90.022 74.8041C85.7745 76.061 81.6432 77.6817 77.674 79.6481C76.4467 80.1567 75.3403 80.9182 74.427 81.8831C73.9786 82.3696 73.6838 82.9777 73.5796 83.6311C73.4754 84.2845 73.5663 84.9541 73.841 85.5561C74.1308 86.0185 74.531 86.4017 75.0056 86.6712C75.4802 86.9407 76.0143 87.0881 76.56 87.1001C77.6572 87.116 78.751 86.9726 79.807 86.6741C80.846 86.4151 86.697 85.0121 87.471 84.8111C86.513 85.6631 85.502 86.4621 84.544 87.3111C83.127 88.7281 79.378 91.0391 79.913 94.0181C80.339 96.0401 82.841 97.1051 84.863 96.6791C87.776 96.0321 89.774 93.6191 94.124 89.8131C92.296 92.5811 90.6428 95.4607 89.174 98.4351C88.374 100.035 87.765 102.135 88.962 103.492C90.251 104.953 94.024 105.067 96.839 101.576C98.095 100.32 99.203 97.5591 99.82 95.9341C103.576 98.6891 108.712 100.534 116.16 100.192C118.862 99.9733 121.536 99.492 124.144 98.7551C130.634 96.5921 137.298 89.4871 138.835 78.4221C138.888 78.2091 138.888 77.9431 138.941 77.7301C139.456 73.113 139.438 68.4521 138.888 63.8391V63.8391Z"></path><g id="group_2"><path id="vector_32" fill="#ffaaaa" d="M123.772 96.467L120.312 96.84C119.885 96.886 119.832 97.58 120.312 97.532C121.482 97.413 122.601 97.265 123.772 97.159C124.2 97.159 124.2 96.421 123.772 96.467Z"></path><path id="vector_33" fill="#ffaaaa" d="M100.831 85.822C99.712 86.245 98.6 86.685 97.531 87.099C97.107 87.264 97.318 87.952 97.744 87.791C98.863 87.368 99.985 86.953 101.044 86.514C101.418 86.359 101.256 85.661 100.831 85.822Z"></path><path id="vector_34" fill="#ffaaaa" d="M94.444 82.309C95.454 81.933 96.468 81.509 97.478 81.138C97.904 80.979 97.691 80.288 97.265 80.446C96.255 80.821 95.232 81.218 94.231 81.617C93.854 81.767 94.018 82.467 94.444 82.309Z"></path></g><path id="vector_35" fill="#ffd7d7" d="M166.672 108.6C166.764 108.6 166.852 108.564 166.917 108.499C166.982 108.434 167.018 108.346 167.018 108.254C167.018 108.162 166.982 108.074 166.917 108.009C166.852 107.944 166.764 107.908 166.672 107.908H151.449C151.502 108.121 151.502 108.387 151.556 108.6H166.672Z"></path><path id="vector_36" fill="#ffd7d7" d="M157.038 106.154C157.13 106.154 157.218 106.118 157.283 106.053C157.348 105.988 157.384 105.9 157.384 105.808C157.384 105.716 157.348 105.628 157.283 105.563C157.218 105.498 157.13 105.462 157.038 105.462H151.077C151.13 105.675 151.13 105.941 151.183 106.154H157.038Z"></path><path id="vector_37" fill="#ffd7d7" d="M29.3 108.656H62.721C62.8128 108.656 62.9008 108.62 62.9657 108.555C63.0305 108.49 63.067 108.402 63.067 108.31C63.067 108.218 63.0305 108.13 62.9657 108.065C62.9008 108 62.8128 107.964 62.721 107.964H29.455C28.769 107.964 28.884 108.109 28.603 108.39C13.712 123.28 14.658 122.19 14.658 122.601V157.677C14.658 157.769 14.6944 157.857 14.7593 157.922C14.8242 157.987 14.9122 158.023 15.004 158.023C15.0958 158.023 15.1838 157.987 15.2487 157.922C15.3135 157.857 15.35 157.769 15.35 157.677V122.654C18.855 119.045 21.152 116.8 29.3 108.656Z"></path><path id="vector_38" fill="#ffd7d7" d="M113.286 107.911C77.579 107.911 79.612 107.806 79.313 108.105C78.195 109.223 75.913 111.526 75.913 111.526H65.178L70.545 106.154H103.6C103.645 106.154 103.69 106.145 103.732 106.128C103.774 106.11 103.813 106.085 103.845 106.053C103.877 106.021 103.902 105.982 103.92 105.94C103.937 105.898 103.946 105.853 103.946 105.808C103.946 105.763 103.937 105.718 103.92 105.676C103.902 105.634 103.877 105.596 103.845 105.563C103.813 105.531 103.774 105.506 103.732 105.488C103.69 105.471 103.645 105.462 103.6 105.462H70.409C70.072 105.462 70.59 105.045 64.109 111.521C64.109 111.521 43.448 111.468 42.703 111.521C42.384 111.521 42.171 111.894 41.903 112.107C27.303 126.707 28.168 125.792 28.118 125.893C28.035 126.058 28.065 124.019 28.065 161.235C28.065 161.327 28.1015 161.415 28.1663 161.48C28.2312 161.545 28.3192 161.581 28.411 161.581C28.5028 161.581 28.5908 161.545 28.6557 161.48C28.7205 161.415 28.757 161.327 28.757 161.235V126.212L42.702 112.271H76.081C76.265 112.271 76.095 112.388 79.881 108.603H113.291C113.336 108.603 113.381 108.593 113.423 108.576C113.465 108.558 113.503 108.532 113.535 108.5C113.567 108.468 113.592 108.429 113.609 108.387C113.626 108.345 113.635 108.3 113.634 108.255C113.634 108.209 113.625 108.164 113.607 108.122C113.59 108.08 113.564 108.043 113.531 108.011C113.499 107.979 113.461 107.953 113.419 107.936C113.376 107.919 113.331 107.911 113.286 107.911V107.911Z"></path><path id="vector_39" fill="#ffd7d7" d="M94.183 155.548H90.894V156.24H94.183V155.548Z"></path><path id="vector_40" fill="#ffd7d7" d="M147.723 111.583C147.584 111.653 146.757 112.496 142.454 116.8V117.811L147.99 112.275H181.045V115.309H181.735V111.9C181.736 111.851 181.727 111.802 181.709 111.756C181.691 111.71 181.663 111.668 181.628 111.634C181.594 111.599 181.552 111.571 181.506 111.553C181.46 111.535 181.411 111.526 181.362 111.527C146.107 111.53 147.841 111.505 147.723 111.583Z"></path><path id="vector_41" fill="#ffd7d7" d="M146.606 160.924H142.506V161.616H146.658C146.612 161.388 146.595 161.156 146.606 160.924Z"></path><path id="vector_42" fill="#ffaaaa" d="M90.665 115.309C54.632 115.309 57.055 115.272 56.919 115.362C56.782 115.431 56.907 115.322 43.08 129.148C42.814 129.414 42.495 129.574 42.495 130V165.076C42.4939 165.125 42.5028 165.174 42.5212 165.22C42.5395 165.266 42.567 165.307 42.6019 165.342C42.6367 165.377 42.6783 165.404 42.724 165.422C42.7698 165.441 42.8188 165.449 42.868 165.448H90.558C90.6395 165.439 90.7154 165.402 90.7735 165.344C90.8316 165.286 90.8684 165.21 90.878 165.129V115.788C91.037 115.469 90.878 115.309 90.665 115.309Z"></path><path id="vector_43" fill="#ffaaaa" d="M72.408 139.048H65.329C65.2372 139.048 65.1492 139.085 65.0843 139.149C65.0195 139.214 64.983 139.302 64.983 139.394C64.983 139.486 65.0195 139.574 65.0843 139.639C65.1492 139.704 65.2372 139.74 65.329 139.74H72.408C72.4952 139.733 72.5767 139.694 72.6362 139.63C72.6956 139.566 72.7287 139.482 72.7287 139.394C72.7287 139.307 72.6956 139.222 72.6362 139.158C72.5767 139.094 72.4952 139.055 72.408 139.048V139.048Z"></path><path id="vector_44" fill="#ffaaaa" d="M72.408 142.029H65.329C65.2372 142.029 65.1492 142.065 65.0843 142.13C65.0195 142.195 64.983 142.283 64.983 142.375C64.983 142.467 65.0195 142.555 65.0843 142.62C65.1492 142.685 65.2372 142.721 65.329 142.721H72.408C72.834 142.774 72.834 142.029 72.408 142.029Z"></path><path id="vector_45" fill="#ffaaaa" d="M72.408 145.063H65.329C65.2372 145.063 65.1492 145.099 65.0843 145.164C65.0195 145.229 64.983 145.317 64.983 145.409C64.983 145.501 65.0195 145.589 65.0843 145.654C65.1492 145.719 65.2372 145.755 65.329 145.755H72.408C72.4952 145.748 72.5767 145.709 72.6362 145.645C72.6956 145.581 72.7287 145.496 72.7287 145.409C72.7287 145.322 72.6956 145.237 72.6362 145.173C72.5767 145.109 72.4952 145.07 72.408 145.063V145.063Z"></path><path id="vector_46" fill="#ffd7d7" d="M194.722 115.309C158.689 115.309 161.112 115.272 160.977 115.362C160.84 115.431 160.964 115.322 147.138 129.148C146.872 129.414 146.552 129.574 146.552 130V165.023C146.551 165.072 146.56 165.121 146.578 165.167C146.597 165.213 146.624 165.254 146.659 165.289C146.694 165.324 146.735 165.351 146.781 165.369C146.827 165.388 146.876 165.396 146.925 165.395H194.616C194.697 165.385 194.773 165.349 194.831 165.291C194.889 165.233 194.925 165.157 194.935 165.076V115.735C195.1 115.469 194.935 115.309 194.722 115.309Z"></path><path id="vector_47" fill="#ffd7d7" d="M169.333 139.74H176.412C176.504 139.74 176.592 139.704 176.657 139.639C176.722 139.574 176.758 139.486 176.758 139.394C176.758 139.302 176.722 139.214 176.657 139.149C176.592 139.085 176.504 139.048 176.412 139.048H169.333C169.246 139.055 169.164 139.094 169.105 139.158C169.045 139.222 169.012 139.307 169.012 139.394C169.012 139.482 169.045 139.566 169.105 139.63C169.164 139.694 169.246 139.733 169.333 139.74Z"></path><path id="vector_48" fill="#ffd7d7" d="M169.333 142.774H176.412C176.504 142.774 176.592 142.738 176.657 142.673C176.722 142.608 176.758 142.52 176.758 142.428C176.758 142.336 176.722 142.248 176.657 142.183C176.592 142.118 176.504 142.082 176.412 142.082H169.333C168.907 142.029 168.907 142.774 169.333 142.774Z"></path><path id="vector_49" fill="#ffd7d7" d="M169.333 145.755H176.412C176.504 145.755 176.592 145.719 176.657 145.654C176.722 145.589 176.758 145.501 176.758 145.409C176.758 145.317 176.722 145.229 176.657 145.164C176.592 145.099 176.504 145.063 176.412 145.063H169.333C169.246 145.07 169.164 145.109 169.105 145.173C169.045 145.237 169.012 145.322 169.012 145.409C169.012 145.496 169.045 145.581 169.105 145.645C169.164 145.709 169.246 145.748 169.333 145.755V145.755Z"></path><path id="vector_50" fill="#ffd7d7" d="M142.295 115.309C106.339 115.309 108.741 115.27 108.602 115.362C108.465 115.431 108.59 115.322 94.763 129.148C94.497 129.414 94.178 129.574 94.178 130V165.076C94.1769 165.125 94.1858 165.174 94.2042 165.22C94.2226 165.266 94.25 165.307 94.2849 165.342C94.3197 165.377 94.3613 165.404 94.4071 165.422C94.4528 165.44 94.5018 165.449 94.551 165.448H142.241C142.322 165.439 142.398 165.402 142.456 165.344C142.515 165.286 142.551 165.21 142.561 165.129V115.735C142.588 115.691 142.602 115.639 142.602 115.587C142.602 115.535 142.587 115.484 142.559 115.44C142.532 115.396 142.492 115.36 142.446 115.337C142.399 115.314 142.347 115.304 142.295 115.309V115.309Z"></path><path id="vector_51" fill="#ffaaaa" d="M124.038 142.029H116.959C116.867 142.029 116.779 142.065 116.714 142.13C116.649 142.195 116.613 142.283 116.613 142.375C116.613 142.467 116.649 142.555 116.714 142.62C116.779 142.685 116.867 142.721 116.959 142.721H124.038C124.464 142.774 124.464 142.029 124.038 142.029Z"></path><path id="vector_52" fill="#ffaaaa" d="M124.038 145.063H116.959C116.867 145.063 116.779 145.099 116.714 145.164C116.649 145.229 116.613 145.317 116.613 145.409C116.613 145.501 116.649 145.589 116.714 145.654C116.779 145.719 116.867 145.755 116.959 145.755H124.038C124.125 145.748 124.207 145.709 124.266 145.645C124.326 145.581 124.359 145.496 124.359 145.409C124.359 145.322 124.326 145.237 124.266 145.173C124.207 145.109 124.125 145.07 124.038 145.063V145.063Z"></path><path id="vector_53" fill="#ffaaaa" d="M124.144 139.048H117.065C116.973 139.048 116.885 139.085 116.82 139.149C116.755 139.214 116.719 139.302 116.719 139.394C116.719 139.486 116.755 139.574 116.82 139.639C116.885 139.704 116.973 139.74 117.065 139.74H124.144C124.231 139.733 124.313 139.694 124.372 139.63C124.432 139.566 124.465 139.482 124.465 139.394C124.465 139.307 124.432 139.222 124.372 139.158C124.313 139.094 124.231 139.055 124.144 139.048Z"></path></g></g><g id="line"><g id="group_3"><path id="vector_54" fill="#000000" d="M58.835 91.2C58.5584 90.5616 58.1259 90.0029 57.5773 89.575C57.0287 89.1472 56.3815 88.8638 55.695 88.751C52.9906 88.3181 50.3467 87.568 47.818 86.516C45.9184 85.8173 44.0824 84.9568 42.33 83.944C42.191 83.378 42.241 83.433 41.856 82.151C41.3692 80.5384 40.633 79.0119 39.674 77.627C39.1663 76.9052 38.4894 76.3188 37.7025 75.9191C36.9157 75.5195 36.0429 75.3188 35.1606 75.3345C34.2782 75.3503 33.4131 75.5821 32.6411 76.0097C31.8691 76.4372 31.2136 77.0475 30.732 77.787C29.196 80.187 30.032 83.059 30.2 91.306C30.1991 91.3552 30.208 91.404 30.2264 91.4496C30.2447 91.4952 30.2721 91.5367 30.3068 91.5715C30.3415 91.6063 30.3829 91.6338 30.4285 91.6522C30.474 91.6707 30.5228 91.6798 30.572 91.679H31.477C31.477 93.924 31.417 105.964 30.677 108.179C30.653 108.236 30.6505 108.3 30.67 108.358C30.6895 108.417 30.7297 108.467 30.783 108.498H47.433C47.876 108.498 47.844 108.276 47.797 108.109C47.336 106.466 46.024 100.325 43.151 91.625H43.611C43.6945 91.6134 43.7739 91.5817 43.8425 91.5328C43.9111 91.4839 43.9668 91.4191 44.005 91.344C45.7075 92.2091 47.504 92.8751 49.359 93.329C49.3465 94.17 49.4358 95.0095 49.625 95.829C49.797 96.519 50.051 97.479 50.956 97.479C51.808 97.479 52.233 96.679 52.446 95.989C52.553 95.51 52.712 95.084 52.819 94.605C53.133 95.862 53.692 97.533 54.948 97.533C55.1345 97.5364 55.319 97.4947 55.4859 97.4113C55.6527 97.3278 55.7969 97.2053 55.906 97.054C56.1217 96.6839 56.2148 96.2552 56.172 95.829C56.225 95.244 56.225 94.712 56.225 94.129C56.5282 94.8121 56.8843 95.4704 57.29 96.098C57.4836 96.3363 57.7453 96.5098 58.0401 96.5956C58.3349 96.6813 58.6488 96.6752 58.94 96.578C60.605 96.084 59.519 92.791 58.835 91.2ZM31.371 107.911C32.048 105.202 32.166 94.478 32.171 91.677C32.98 91.677 30.815 91.623 38.971 91.623C40.0142 96.9912 40.5698 102.443 40.631 107.911H31.371ZM46.971 107.911H41.271C41.2235 103.436 40.8498 98.9712 40.153 94.551C40.012 93.608 39.821 92.616 39.663 91.623H42.4C43.758 96.2 45.34 101.732 46.966 107.911H46.971ZM30.785 90.932C30.576 83.197 30.18 80.849 30.785 79.115C31.0637 78.3472 31.54 77.6666 32.1659 77.1418C32.7918 76.6171 33.5451 76.2668 34.3497 76.1264C35.1544 75.986 35.9818 76.0604 36.7484 76.3422C37.5151 76.6239 38.1938 77.103 38.716 77.731C40.0115 79.4283 40.9457 81.3729 41.461 83.445C38.866 81.845 38.593 81.067 38.184 81.457C37.038 82.549 35.842 83.64 34.777 84.757C34.671 84.917 34.617 85.13 34.777 85.236C37.3201 87.4693 40.1265 89.3835 43.134 90.936L30.785 90.932ZM58.785 95.932C58.6322 95.9706 58.473 95.9763 58.3178 95.9487C58.1626 95.9212 58.0151 95.8609 57.885 95.772C57.577 95.525 57.634 95.472 56.185 92.472C56.1476 92.4079 56.0903 92.3576 56.0219 92.3288C55.9534 92.2999 55.8775 92.2941 55.8054 92.3122C55.7334 92.3302 55.6692 92.3711 55.6224 92.4288C55.5756 92.4865 55.5488 92.5578 55.546 92.632C55.546 93.353 55.523 95.716 55.44 96.251C55.39 96.571 55.28 96.837 54.908 96.783C54.216 96.783 53.908 95.821 53.737 95.293C53.4722 94.5314 53.2761 93.7476 53.151 92.951C53.1 92.578 52.573 92.421 52.459 92.845C52.259 93.593 52.07 94.331 51.874 95.133C51.757 95.61 51.661 96.677 50.969 96.733C50.65 96.786 50.543 96.467 50.437 96.254C50.0898 95.2085 49.9416 94.1071 50 93.007C50.0054 92.9298 49.9807 92.8535 49.9311 92.794C49.8816 92.7346 49.8109 92.6966 49.734 92.688C45.059 91.7 39.2 88.21 35.522 85.023C36.48 84.012 37.438 83.107 38.45 82.202C40.9371 84.0283 43.6357 85.5476 46.487 86.727C53.497 89.65 55.336 89.127 56.653 89.867C57.323 90.2545 57.8466 90.852 58.143 91.567C58.656 92.5978 58.9634 93.7187 59.048 94.867C59.056 95.19 59.157 95.78 58.782 95.935L58.785 95.932Z"></path><path id="vector_55" fill="#000000" d="M43.666 71.9829C43.7578 71.9829 43.8458 71.9465 43.9107 71.8816C43.9756 71.8167 44.012 71.7287 44.012 71.6369C44.012 71.5452 43.9756 71.4572 43.9107 71.3923C43.8458 71.3274 43.7578 71.2909 43.666 71.2909C42.441 71.2639 41.218 71.2109 39.993 71.1849C39.9476 71.1849 39.9026 71.1939 39.8606 71.2113C39.8186 71.2287 39.7805 71.2541 39.7483 71.2863C39.7162 71.3184 39.6907 71.3566 39.6733 71.3985C39.656 71.4405 39.647 71.4855 39.647 71.5309C39.647 71.5764 39.656 71.6214 39.6733 71.6633C39.6907 71.7053 39.7162 71.7435 39.7483 71.7756C39.7805 71.8077 39.8186 71.8332 39.8606 71.8506C39.9026 71.868 39.9476 71.8769 39.993 71.8769C41.218 71.8999 42.442 71.9829 43.666 71.9829Z"></path><path id="vector_56" fill="#000000" d="M36.478 68.7689C35.9694 68.7359 35.4626 68.8549 35.0218 69.1106C34.581 69.3664 34.2262 69.7474 34.0024 70.2053C33.7787 70.6632 33.6962 71.1773 33.7653 71.6822C33.8345 72.1871 34.0521 72.6601 34.3907 73.041C34.7293 73.4219 35.1735 73.6935 35.6668 73.8214C36.1601 73.9492 36.6803 73.9275 37.1613 73.759C37.6422 73.5905 38.0622 73.2828 38.3679 72.8751C38.6736 72.4673 38.8511 71.9779 38.878 71.469C38.8885 70.8002 38.6478 70.1518 38.2034 69.6519C37.759 69.152 37.1434 68.8369 36.478 68.7689V68.7689ZM38.06 70.882C36.8854 70.7413 35.704 70.6645 34.521 70.6519C34.6634 70.2826 34.9201 69.9684 35.2536 69.7552C35.5871 69.542 35.98 69.4408 36.375 69.4665C36.77 69.4922 37.1465 69.6433 37.4496 69.8979C37.7527 70.1525 37.9665 70.4973 38.06 70.882V70.882ZM36.16 73.2069C35.6843 73.1931 35.2319 72.998 34.8955 72.6615C34.559 72.325 34.3638 71.8726 34.35 71.397C35.488 71.397 37.974 71.5969 38.076 71.6099C37.9945 72.0583 37.7581 72.4638 37.4081 72.7557C37.0581 73.0476 36.6167 73.2073 36.161 73.2069H36.16Z"></path><path id="vector_57" fill="#000000" d="M32.207 81.243C31.89 80.868 31.407 81.403 31.728 81.722C32.528 82.68 33.318 83.591 34.123 84.543C34.44 84.918 34.923 84.384 34.602 84.064C33.8 83.106 33.012 82.2 32.207 81.243Z"></path><path id="vector_58" fill="#000000" d="M37.552 81.282C37.871 81.601 38.404 81.069 38.031 80.803C37.231 80.111 36.488 79.419 35.689 78.727C35.37 78.408 34.838 78.94 35.21 79.206C35.955 79.845 36.754 80.59 37.552 81.282Z"></path><path id="vector_59" fill="#000000" d="M104.61 65.543C103.173 66.98 101.736 68.47 100.299 69.907C100.512 70.014 100.778 70.12 100.991 70.227C102.375 68.843 103.758 67.406 105.142 66.027C105.408 65.7 104.929 65.223 104.61 65.543Z"></path><path id="vector_60" fill="#000000" d="M106.739 67.6719C105.568 68.8959 104.339 70.067 103.173 71.291C103.386 71.398 103.652 71.504 103.865 71.61C104.983 70.439 106.1 69.322 107.271 68.151C107.591 67.831 107.058 67.2999 106.739 67.6719Z"></path><path id="vector_61" fill="#000000" d="M108.868 69.747C107.91 70.706 107.005 71.664 106.047 72.622C106.26 72.728 106.526 72.835 106.739 72.941C107.591 72.036 108.496 71.131 109.347 70.28C109.418 70.2164 109.46 70.1274 109.465 70.0326C109.47 69.9377 109.438 69.8446 109.374 69.774C109.31 69.7033 109.221 69.6607 109.127 69.6557C109.032 69.6506 108.939 69.6834 108.868 69.747V69.747Z"></path><path id="vector_62" fill="#000000" d="M146.348 78.477H147.883C148.096 78.477 148.309 78.264 148.202 78.051C147.302 74.538 146.376 71.029 145.435 67.459C144.243 62.94 142.99 58.194 139.527 54.844C138.326 53.6247 136.843 52.7199 135.209 52.2095C133.575 51.699 131.841 51.5985 130.159 51.917C126.846 52.4743 123.805 54.0937 121.493 56.531C120.058 55.112 101.861 37.139 99.393 34.671C99.365 34.6339 99.3289 34.6038 99.2873 34.5831C99.2457 34.5624 99.1999 34.5516 99.1535 34.5516C99.1071 34.5516 99.0613 34.5624 99.0197 34.5831C98.9781 34.6038 98.942 34.6339 98.914 34.671C94.762 38.871 76.027 57.771 75.494 58.304C75.325 58.473 75.253 58.274 75.228 59.094C75.188 60.463 75.281 64.677 75.281 78.21C75.281 78.681 75.211 78.799 75.581 79.217C75.731 79.387 75.953 79.607 76.281 79.917C75.3515 80.4113 74.5534 81.1202 73.953 81.985C72.737 83.895 73.07 86.028 75.337 87.094C76.4343 87.4688 77.6154 87.5243 78.743 87.254C79.343 87.136 81.051 86.745 82.693 86.359L83.893 87.548C81.856 89.361 79.158 91.528 79.754 94.227C79.9842 95.0028 80.4422 95.6916 81.0686 96.2041C81.695 96.7166 82.4609 97.029 83.267 97.101C86.067 97.483 88.359 95.625 90.296 93.908L90.991 94.596C90.022 96.328 88.278 99.416 88.164 101.412C88.052 103.375 89.364 104.819 91.677 104.819C93.785 104.819 95.867 103.802 97.722 101.283L100.353 103.914C100.381 103.951 100.417 103.981 100.459 104.002C100.5 104.023 100.546 104.033 100.592 104.033C100.639 104.033 100.685 104.023 100.726 104.002C100.768 103.981 100.804 103.951 100.832 103.914L105.569 99.177C108.974 100.322 112.57 100.79 116.155 100.553C116.022 101.453 114.239 113.433 113.979 115.304H114.671C115.052 113.11 114.941 113.52 116.899 100.504C119.652 100.258 122.368 99.7063 124.999 98.859C126.051 98.4463 127.063 97.9385 128.023 97.342C127.771 99.501 125.954 113.678 125.744 115.306H126.436C126.829 111.576 128.825 96.919 128.83 96.815C134.23 93.097 137.644 86.905 138.891 80.283C138.963 79.902 139.212 78.519 139.222 78.474H145.609C147.393 87.064 150.027 103.459 151.239 111.58H151.931C151.615 109.7 149.727 96.044 146.348 78.477ZM123.587 55.532C124.508 54.774 125.529 54.147 126.621 53.669C126.109 54.694 125.229 56.547 124.121 57.022C123.332 57.222 123.321 56.953 123.321 56.277C123.374 56.064 123.374 55.692 123.587 55.532ZM76.133 78.641C76.133 73.478 76.097 60.301 76.097 58.864C79.131 55.83 97.531 37.064 99.181 35.417C103.605 39.788 118.027 54.079 121.011 57.06C116.667 62.194 116.823 68.138 117.278 74.96C117.273 75.0372 117.297 75.1135 117.347 75.1729C117.396 75.2324 117.467 75.2704 117.544 75.279C117.865 75.3418 118.181 75.4237 118.492 75.524C117.861 76.496 117.356 77.275 117.065 77.724C115.775 77.094 99.572 69.545 93.699 66.707C92.014 65.892 90.399 64.865 89.973 64.631C86.023 62.875 83.288 65.683 84.387 68.731C85.177 70.921 88.387 73.623 89.265 74.724C85.9962 75.6953 82.7999 76.896 79.7 78.317C79.188 78.547 77.322 79.351 76.943 79.553L76.133 78.641ZM83.467 86.182C84.782 85.87 85.927 85.591 86.247 85.502C85.896 85.79 85.179 86.414 84.427 87.078C84.156 86.82 83.746 86.456 83.467 86.182ZM90.828 93.436C92.313 92.095 92.328 92.085 92.634 91.783C92.334 92.267 91.958 92.89 91.354 93.954L90.828 93.436ZM100.618 103.174L98.137 100.693C98.9807 99.3592 99.687 97.9433 100.245 96.467C101.656 97.474 103.191 98.2945 104.812 98.908C103.432 100.341 102 101.741 100.618 103.174ZM138.462 78.21C137.336 86.286 133.22 94.036 126.007 97.691C122.165 99.638 117.575 99.957 113.233 99.82C108.54 99.7995 103.968 98.3329 100.139 95.62C99.924 95.463 99.713 95.62 99.607 95.833C98.276 99.187 96.419 103.484 92.368 104.033C90.381 104.301 88.676 103.495 88.802 101.478C88.802 99.858 90.025 97.726 90.824 96.209C91.946 94.082 93.224 92.009 94.55 89.981C94.5939 89.9097 94.6103 89.8248 94.5959 89.7422C94.5816 89.6597 94.5375 89.5853 94.4721 89.533C94.4066 89.4808 94.3243 89.4542 94.2407 89.4585C94.157 89.4627 94.0778 89.4974 94.018 89.556C92.406 91.087 90.718 92.588 89.018 94.027C87.633 95.197 85.984 96.422 84.118 96.422C83.3843 96.462 82.6544 96.2923 82.0136 95.9326C81.3729 95.5729 80.8479 95.0382 80.5 94.391C79.8 92.691 81.08 91.033 82.256 89.92C82.791 89.414 86.812 85.947 87.792 85.077C87.8485 85.025 87.886 84.9556 87.8986 84.8798C87.9111 84.8041 87.8979 84.7263 87.8611 84.6589C87.8243 84.5915 87.766 84.5383 87.6955 84.5079C87.625 84.4775 87.5463 84.4715 87.472 84.491C78.6 86.612 77.992 86.9 76.56 86.727C74.21 86.435 73.285 84.504 74.431 82.575C75.419 80.911 77.875 79.933 79.753 79.115C83.1269 77.5423 86.6144 76.2259 90.186 75.177C90.2445 75.1599 90.2976 75.128 90.3402 75.0845C90.3829 75.041 90.4137 74.9873 90.4296 74.9285C90.4456 74.8697 90.4462 74.8078 90.4314 74.7487C90.4166 74.6896 90.3868 74.6353 90.345 74.591C87.157 71.174 84.884 69.476 85.076 67.091C85.22 65.291 87.002 64.175 89.654 65.391C90.3 65.691 90.678 66.13 93.166 67.36C95.556 68.542 116.692 78.431 116.905 78.538C116.943 78.5625 116.986 78.5793 117.031 78.5872C117.076 78.5951 117.122 78.594 117.167 78.5841C117.211 78.5742 117.253 78.5555 117.291 78.5292C117.328 78.5029 117.36 78.4696 117.384 78.431C119.964 74.509 126.433 64.592 127.125 63.581C128.402 63.688 138.036 64.326 138.462 64.326C139.02 68.9372 139.02 73.5988 138.462 78.21V78.21ZM139.32 77.785C139.839 73.1854 139.819 68.5409 139.26 63.946C139.26 63.733 139.101 63.626 138.888 63.573C137.557 63.467 127.551 62.828 127.018 62.773C126.683 62.773 127.472 61.747 118.895 74.907C118.595 74.84 118.222 74.738 117.97 74.696C117.481 67.706 117.526 61.344 122.589 56.543C122.489 57.943 124.23 58.917 126.249 55.849C126.777 55.049 127.173 54.121 127.673 53.296C131.122 52.078 134.428 52.062 137.451 54.096C142.013 57.168 143.498 62.818 144.743 67.669C145.606 71.033 146.499 74.428 147.404 77.782L139.32 77.785Z"></path><path id="vector_63" fill="#000000" d="M118.5 48.351C118.592 48.351 118.68 48.3145 118.745 48.2496C118.81 48.1848 118.846 48.0967 118.846 48.005C118.846 47.9132 118.81 47.8252 118.745 47.7603C118.68 47.6954 118.592 47.659 118.5 47.659C117.522 47.662 116.545 47.6086 115.573 47.499C115.147 47.449 115.147 48.141 115.573 48.191C116.545 48.3021 117.522 48.3555 118.5 48.351V48.351Z"></path><path id="vector_64" fill="#000000" d="M61.444 50.16C61.544 50.181 69.244 51.788 69.374 51.81C69.8 51.917 70.015 51.216 69.587 51.118C66.908 50.51 61.76 49.485 61.656 49.468C61.177 49.415 60.965 50.107 61.444 50.16Z"></path><path id="vector_65" fill="#000000" d="M62.934 42.1759C62.561 41.9099 62.082 42.3889 62.455 42.6549C63.414 43.4449 69.013 47.7839 70.655 49.1489C71.027 49.4149 71.506 48.9359 71.134 48.6699C71.084 48.6309 63.6 42.7329 62.934 42.1759Z"></path><path id="vector_66" fill="#000000" d="M73.26 46.8069C73.429 47.2289 74.06 46.8599 73.845 46.4339C73.65 45.9849 70.356 38.4269 70.226 37.9709C70.066 37.5459 69.426 37.9179 69.64 38.3439C70.422 40.1419 72.4 44.6589 73.26 46.8069Z"></path><path id="vector_67" fill="#000000" d="M128.3 59.262C127.927 60.062 127.512 60.917 127.129 61.71C126.922 62.139 127.549 62.453 127.714 62.083C128.074 61.283 128.502 60.428 128.885 59.634C129.088 59.206 128.509 58.889 128.3 59.262Z"></path><path id="vector_68" fill="#000000" d="M138.409 59.794C138.409 59.581 138.143 59.528 137.983 59.528C137.897 59.5579 137.823 59.6165 137.775 59.694C137.726 59.7715 137.706 59.8632 137.717 59.954C137.836 60.9043 138.014 61.8464 138.249 62.775C138.349 63.202 139.049 63.041 138.941 62.562C138.677 61.6581 138.499 60.7313 138.409 59.794V59.794Z"></path><path id="vector_69" fill="#000000" d="M122.494 45.636C122.021 45.739 121.582 45.9617 121.22 46.2829C120.858 46.6041 120.584 47.013 120.425 47.4704C120.267 47.9277 120.228 48.4182 120.313 48.8948C120.398 49.3714 120.605 49.8181 120.912 50.1921C121.219 50.566 121.618 50.8547 122.069 51.0305C122.52 51.2063 123.009 51.2632 123.488 51.1959C123.968 51.1285 124.422 50.9391 124.807 50.6458C125.192 50.3525 125.495 49.9652 125.688 49.521C125.889 49.0438 125.955 48.5209 125.88 48.0087C125.806 47.4965 125.592 47.0144 125.264 46.6145C124.935 46.2147 124.503 45.9122 124.015 45.7397C123.527 45.5673 123.001 45.5314 122.494 45.636V45.636ZM124.623 46.913C124.449 46.942 121.461 47.499 121.217 47.499C121.358 47.1885 121.572 46.9172 121.842 46.7087C122.112 46.5003 122.429 46.3611 122.765 46.3033C123.101 46.2455 123.446 46.2708 123.77 46.3771C124.094 46.4834 124.387 46.6674 124.623 46.913V46.913ZM123.4 50.48C123.088 50.5259 122.77 50.5011 122.47 50.4074C122.169 50.3138 121.893 50.1536 121.663 49.9389C121.432 49.7242 121.253 49.4603 121.138 49.1669C121.023 48.8735 120.976 48.5581 121 48.244C125.136 47.555 124.239 47.668 124.992 47.552C125.12 47.8466 125.18 48.1667 125.166 48.4877C125.152 48.8088 125.064 49.1224 124.911 49.4047C124.757 49.6871 124.542 49.9307 124.28 50.117C124.018 50.3033 123.717 50.4275 123.4 50.48Z"></path><path id="vector_70" fill="#000000" d="M120.259 97.532L123.718 97.159C124.145 97.113 124.198 96.419 123.718 96.467C122.548 96.585 121.428 96.714 120.259 96.84C119.832 96.886 119.832 97.578 120.259 97.532Z"></path><path id="vector_71" fill="#000000" d="M100.831 85.822C99.712 86.245 98.6 86.685 97.531 87.099C97.107 87.264 97.318 87.952 97.744 87.791C98.863 87.368 99.985 86.953 101.044 86.514C101.418 86.359 101.256 85.661 100.831 85.822Z"></path><path id="vector_72" fill="#000000" d="M97.318 80.446C96.308 80.821 95.294 81.246 94.284 81.617C93.858 81.775 94.071 82.467 94.497 82.309C95.507 81.933 96.53 81.537 97.531 81.138C97.908 80.988 97.744 80.288 97.318 80.446Z"></path><path id="vector_73" fill="#000000" d="M166.571 108.6C166.663 108.6 166.751 108.564 166.816 108.499C166.881 108.434 166.917 108.346 166.917 108.254C166.917 108.162 166.881 108.074 166.816 108.009C166.751 107.944 166.663 107.908 166.571 107.908H151.348C151.401 108.121 151.401 108.387 151.454 108.6H166.571Z"></path><path id="vector_74" fill="#000000" d="M156.937 106.154C157.029 106.154 157.117 106.118 157.182 106.053C157.247 105.988 157.283 105.9 157.283 105.808C157.283 105.716 157.247 105.628 157.182 105.563C157.117 105.498 157.029 105.462 156.937 105.462H150.975C151.029 105.675 151.029 105.941 151.082 106.154H156.937Z"></path><path id="vector_75" fill="#000000" d="M31.414 105.462H21.035C20.6806 105.433 20.3244 105.433 19.97 105.462C19.691 105.505 20.944 104.329 6.131 119.141C5.918 119.354 5.493 119.621 5.493 119.941C5.476 120.041 5.493 125.316 5.493 155.177C5.49047 155.224 5.49754 155.271 5.51376 155.315C5.52998 155.359 5.55502 155.399 5.58735 155.434C5.61968 155.468 5.65863 155.495 5.70181 155.513C5.74499 155.532 5.7915 155.542 5.8385 155.542C5.8855 155.542 5.93201 155.532 5.97519 155.513C6.01837 155.495 6.05731 155.468 6.08965 155.434C6.12198 155.399 6.14702 155.359 6.16324 155.315C6.17946 155.271 6.18652 155.224 6.184 155.177V120.153L20.13 106.207H31.361C31.3918 105.96 31.4095 105.711 31.414 105.462V105.462Z"></path><path id="vector_76" fill="#000000" d="M73.732 96.79C56.272 96.79 57.304 96.721 57.079 96.946L47.358 106.646C47.411 106.912 47.518 107.178 47.571 107.446L57.555 97.487H73.732C73.8244 97.487 73.9131 97.4503 73.9784 97.3849C74.0438 97.3196 74.0805 97.2309 74.0805 97.1385C74.0805 97.0461 74.0438 96.9574 73.9784 96.8921C73.9131 96.8267 73.8244 96.79 73.732 96.79V96.79Z"></path><path id="vector_77" fill="#000000" d="M29.3 108.6H62.721C62.8128 108.6 62.9008 108.564 62.9657 108.499C63.0306 108.434 63.067 108.346 63.067 108.254C63.067 108.162 63.0306 108.074 62.9657 108.009C62.9008 107.944 62.8128 107.908 62.721 107.908H29.455C28.769 107.908 28.884 108.053 28.603 108.334C13.712 123.224 14.658 122.134 14.658 122.545V157.621C14.658 157.713 14.6945 157.801 14.7593 157.866C14.8242 157.931 14.9122 157.967 15.004 157.967C15.0958 157.967 15.1838 157.931 15.2487 157.866C15.3135 157.801 15.35 157.713 15.35 157.621V122.6C19.022 118.929 28.284 109.614 29.3 108.6Z"></path><path id="vector_78" fill="#000000" d="M113.223 107.956C77.173 107.956 79.578 107.802 79.148 108.232L75.858 111.574H65.02L70.439 106.154H103.6C103.692 106.154 103.78 106.118 103.845 106.053C103.91 105.988 103.946 105.9 103.946 105.808C103.946 105.716 103.91 105.628 103.845 105.563C103.78 105.498 103.692 105.462 103.6 105.462C67.74 105.462 70.266 105.37 70.008 105.628L64.063 111.573C42.969 111.564 43.39 111.535 42.709 111.583C42.359 111.583 43.24 110.829 28.497 125.583C28.161 125.92 28.072 125.851 28.072 126.328V161.3C28.072 161.392 28.1085 161.48 28.1733 161.545C28.2382 161.61 28.3262 161.646 28.418 161.646C28.5098 161.646 28.5978 161.61 28.6627 161.545C28.7275 161.48 28.764 161.392 28.764 161.3V126.274L42.709 112.324H75.639C76.362 112.324 76.209 112.236 76.819 111.624L79.798 108.646H113.224C113.272 108.65 113.319 108.643 113.364 108.627C113.409 108.612 113.45 108.587 113.485 108.554C113.52 108.522 113.548 108.483 113.567 108.439C113.586 108.395 113.596 108.348 113.596 108.3C113.596 108.253 113.586 108.206 113.567 108.162C113.548 108.118 113.52 108.079 113.485 108.047C113.45 108.014 113.408 107.99 113.363 107.974C113.318 107.958 113.271 107.952 113.223 107.956V107.956Z"></path><path id="vector_79" fill="#000000" d="M72.408 139.048H65.329C65.2372 139.048 65.1492 139.084 65.0843 139.149C65.0195 139.214 64.983 139.302 64.983 139.394C64.983 139.486 65.0195 139.574 65.0843 139.639C65.1492 139.704 65.2372 139.74 65.329 139.74H72.408C72.4952 139.733 72.5767 139.694 72.6362 139.63C72.6956 139.566 72.7287 139.481 72.7287 139.394C72.7287 139.306 72.6956 139.222 72.6362 139.158C72.5767 139.094 72.4952 139.055 72.408 139.048V139.048Z"></path><path id="vector_80" fill="#000000" d="M72.408 142.029H65.329C65.2372 142.029 65.1492 142.065 65.0843 142.13C65.0195 142.195 64.983 142.283 64.983 142.375C64.983 142.467 65.0195 142.555 65.0843 142.62C65.1492 142.684 65.2372 142.721 65.329 142.721H72.408C72.834 142.774 72.834 142.029 72.408 142.029Z"></path><path id="vector_81" fill="#000000" d="M72.408 145.063H65.329C65.2372 145.063 65.1492 145.099 65.0843 145.164C65.0195 145.229 64.983 145.317 64.983 145.409C64.983 145.501 65.0195 145.589 65.0843 145.654C65.1492 145.719 65.2372 145.755 65.329 145.755H72.408C72.4952 145.748 72.5767 145.709 72.6362 145.645C72.6956 145.581 72.7287 145.496 72.7287 145.409C72.7287 145.322 72.6956 145.237 72.6362 145.173C72.5767 145.109 72.4952 145.07 72.408 145.063V145.063Z"></path><path id="vector_82" fill="#000000" d="M176.466 139.048H169.386C169.294 139.048 169.206 139.084 169.141 139.149C169.076 139.214 169.04 139.302 169.04 139.394C169.04 139.486 169.076 139.574 169.141 139.639C169.206 139.704 169.294 139.74 169.386 139.74H176.466C176.553 139.733 176.635 139.694 176.694 139.63C176.754 139.566 176.787 139.481 176.787 139.394C176.787 139.306 176.754 139.222 176.694 139.158C176.635 139.094 176.553 139.055 176.466 139.048V139.048Z"></path><path id="vector_83" fill="#000000" d="M176.466 142.029H169.386C169.294 142.029 169.206 142.065 169.141 142.13C169.076 142.195 169.04 142.283 169.04 142.375C169.04 142.467 169.076 142.555 169.141 142.62C169.206 142.684 169.294 142.721 169.386 142.721H176.466C176.891 142.774 176.891 142.029 176.466 142.029Z"></path><path id="vector_84" fill="#000000" d="M176.466 145.063H169.386C169.294 145.063 169.206 145.099 169.141 145.164C169.076 145.229 169.04 145.317 169.04 145.409C169.04 145.501 169.076 145.589 169.141 145.654C169.206 145.719 169.294 145.755 169.386 145.755H176.466C176.553 145.748 176.635 145.709 176.694 145.645C176.754 145.581 176.787 145.496 176.787 145.409C176.787 145.322 176.754 145.237 176.694 145.173C176.635 145.109 176.553 145.07 176.466 145.063V145.063Z"></path><path id="vector_85" fill="#000000" d="M194.722 115.309H181.735V111.9C181.736 111.851 181.727 111.802 181.709 111.756C181.691 111.71 181.663 111.668 181.628 111.633C181.594 111.599 181.552 111.571 181.506 111.553C181.46 111.535 181.411 111.526 181.362 111.527C145.462 111.527 147.862 111.488 147.723 111.58C147.586 111.649 146.785 112.466 142.507 116.743V115.626C142.508 115.577 142.499 115.528 142.481 115.482C142.463 115.436 142.436 115.395 142.401 115.36C142.366 115.325 142.325 115.297 142.279 115.279C142.233 115.261 142.184 115.252 142.135 115.253C117.944 115.253 111.11 115.191 109.128 115.264C107.963 115.306 108.476 115.396 108.128 115.572C97.622 126.079 94.918 128.712 94.238 129.493C93.952 129.822 94.023 129.823 94.023 129.943V155.543H90.963C91.003 151.498 91.042 115.677 91.042 115.677C91.0432 115.628 91.0345 115.579 91.0162 115.533C90.998 115.487 90.9706 115.446 90.9358 115.411C90.9011 115.376 90.8596 115.348 90.8139 115.33C90.7682 115.312 90.7192 115.303 90.67 115.304C64.532 115.304 58.629 115.285 57.306 115.304C56.967 115.311 56.971 115.288 56.757 115.489C56.271 115.944 54.126 118.098 43.085 129.139C42.819 129.405 42.5 129.565 42.5 129.991V165.067C42.4989 165.116 42.5078 165.165 42.5262 165.211C42.5445 165.257 42.572 165.298 42.6069 165.333C42.6417 165.368 42.6833 165.395 42.729 165.413C42.7748 165.431 42.8238 165.44 42.873 165.439H90.563C90.6445 165.43 90.7204 165.393 90.7785 165.335C90.8366 165.277 90.8734 165.201 90.883 165.12C90.883 163.735 90.918 160.061 90.956 156.231H94.023V165.014C94.0219 165.063 94.0308 165.112 94.0492 165.158C94.0675 165.204 94.095 165.245 94.1299 165.28C94.1647 165.315 94.2063 165.342 94.2521 165.36C94.2978 165.378 94.3468 165.387 94.396 165.386H142.086C142.167 165.377 142.243 165.34 142.301 165.282C142.36 165.224 142.396 165.148 142.406 165.067C142.406 164.745 142.415 163.433 142.427 161.607H146.557V165.014C146.556 165.063 146.565 165.112 146.583 165.158C146.602 165.204 146.629 165.245 146.664 165.28C146.699 165.315 146.74 165.342 146.786 165.36C146.832 165.378 146.881 165.387 146.93 165.386C198.27 165.386 194.668 165.445 194.83 165.28C194.992 165.115 194.936 168.836 194.936 115.726C195.1 115.469 194.935 115.309 194.722 115.309ZM90.345 164.65H43.293V130L57.239 116.054H90.292C90.345 122.335 90.345 164.65 90.345 164.65ZM141.762 164.65H94.71V130L108.655 116.054H141.709C141.762 122.335 141.762 164.65 141.762 164.65ZM146.552 130V160.924H142.427C142.458 156.344 142.507 117.758 142.507 117.758L147.99 112.275H181.043V115.309C159.836 115.309 161.11 115.274 160.977 115.362C160.84 115.431 160.963 115.321 147.138 129.148C146.872 129.414 146.552 129.574 146.552 130ZM194.352 164.65H147.3V130L161.245 116.054H194.3C194.35 122.335 194.35 164.65 194.35 164.65H194.352Z"></path><path id="vector_86" fill="#000000" d="M123.878 142.029H116.8C116.708 142.029 116.62 142.065 116.555 142.13C116.49 142.195 116.454 142.283 116.454 142.375C116.454 142.467 116.49 142.555 116.555 142.62C116.62 142.684 116.708 142.721 116.8 142.721H123.879C124.3 142.774 124.3 142.029 123.878 142.029Z"></path><path id="vector_87" fill="#000000" d="M123.878 145.063H116.8C116.708 145.063 116.62 145.099 116.555 145.164C116.49 145.229 116.454 145.317 116.454 145.409C116.454 145.501 116.49 145.589 116.555 145.654C116.62 145.719 116.708 145.755 116.8 145.755H123.879C123.966 145.748 124.048 145.709 124.107 145.645C124.166 145.58 124.199 145.496 124.199 145.409C124.199 145.321 124.166 145.237 124.106 145.173C124.047 145.109 123.965 145.069 123.878 145.063V145.063Z"></path><path id="vector_88" fill="#000000" d="M123.984 139.048H116.905C116.813 139.048 116.725 139.084 116.66 139.149C116.595 139.214 116.559 139.302 116.559 139.394C116.559 139.486 116.595 139.574 116.66 139.639C116.725 139.704 116.813 139.74 116.905 139.74H123.984C124.071 139.733 124.153 139.694 124.212 139.63C124.272 139.566 124.305 139.481 124.305 139.394C124.305 139.306 124.272 139.222 124.212 139.158C124.153 139.094 124.071 139.055 123.984 139.048V139.048Z"></path></g></g></g></svg>