<svg xmlns="http://www.w3.org/2000/svg" fill="none" viewBox="0 0 200 200" height="400" width="400"><g id="virtual-meeting-webinar-conference-1--communication-virtual-meeting-webinar-conference-1"><g id="color"><g id="group"><path id="vector" fill="#b6dbff" d="M141.3 134.6H104.523C104.437 134.601 104.354 134.636 104.293 134.697C104.232 134.758 104.197 134.841 104.196 134.927V147.186C104.197 147.272 104.232 147.355 104.293 147.416C104.354 147.477 104.437 147.512 104.523 147.513C144.113 147.513 141.33 147.566 141.531 147.413C141.679 147.213 141.631 148.304 141.631 134.924C141.629 134.837 141.593 134.755 141.531 134.695C141.47 134.634 141.387 134.6 141.3 134.6V134.6Z"></path><path id="vector_2" fill="#b6dbff" d="M156.35 149.444H90.3C90.2165 149.449 90.138 149.485 90.0806 149.546C90.0231 149.606 89.9911 149.687 89.9911 149.77C89.9911 149.854 90.0231 149.934 90.0806 149.995C90.138 150.056 90.2165 150.092 90.3 150.097H156.35C156.433 150.092 156.512 150.056 156.569 149.995C156.627 149.934 156.659 149.854 156.659 149.77C156.659 149.687 156.627 149.606 156.569 149.546C156.512 149.485 156.433 149.449 156.35 149.444V149.444Z"></path><path id="vector_3" fill="#ffc431" d="M118.182 132.032L118.962 130.206C118.729 130.752 118.44 131.306 118.246 131.87H94.6C94.5673 132.088 94.5317 132.306 94.493 132.524H118.464C118.407 132.522 118.351 132.506 118.303 132.477C118.254 132.448 118.213 132.407 118.185 132.357C118.156 132.308 118.141 132.252 118.141 132.195C118.14 132.138 118.155 132.082 118.182 132.032V132.032Z"></path><path id="vector_4" fill="#ffffff" d="M116.1 87.459C115.89 87.978 115.169 88.208 113.994 88.086C113.342 88.018 112.263 87.674 111.61 87.614C111.358 89.1035 110.716 90.4998 109.749 91.661C109.156 92.308 107.319 92.649 107.56 91.071C107.695 90.179 108.26 88.728 108.33 87.83C107.999 88.424 107.081 90.441 106.692 90.998C105.565 92.613 104.478 92.098 104.186 91.484C103.986 91.07 104.414 89.846 104.516 89.399L104.911 87.686C104.582 88.664 103.67 90.723 102.867 91.257C102.02 91.821 100.978 91.3 101.334 89.632C101.562 88.8798 101.861 88.1509 102.226 87.455H100.057L92.995 103.977C94.826 104.386 95.503 106.115 94.855 107.106C94.27 108 91.89 108.715 90.855 108.98L89.883 111.255C93.9295 117.316 95.6082 124.652 94.6 131.87H118.246C118.325 131.64 116.646 135.629 137.231 87.459C136.812 87.453 122.966 87.459 116.1 87.459Z"></path><path id="vector_5" fill="#ffc431" d="M112.046 101.159C104.397 104.094 102.495 104.814 102.426 104.876C102.376 104.923 102.34 104.983 102.323 105.049C102.305 105.115 102.306 105.185 102.326 105.25C102.349 105.32 108.443 112.743 108.489 112.8C108.53 112.84 108.58 112.868 108.635 112.883C108.69 112.897 108.748 112.897 108.803 112.883C108.858 112.868 108.909 112.84 108.949 112.8C108.99 112.76 109.02 112.711 109.036 112.656L112.446 101.561C112.46 101.506 112.46 101.447 112.445 101.392C112.43 101.337 112.401 101.286 112.361 101.246C112.321 101.205 112.27 101.176 112.215 101.16C112.16 101.145 112.101 101.145 112.046 101.159V101.159Z"></path><path id="vector_6" fill="#ffc431" d="M114.053 105.243C113.966 104.832 113.336 105.006 113.423 105.417C113.577 106.163 113.56 106.934 113.372 107.672C113.184 108.41 112.83 109.096 112.338 109.677C112.066 109.995 112.526 110.459 112.801 110.139C113.371 109.473 113.78 108.686 113.997 107.837C114.214 106.988 114.233 106.1 114.053 105.243V105.243Z"></path><path id="vector_7" fill="#ffc431" d="M116.05 104.04C116.355 105.493 116.323 106.997 115.956 108.436C115.589 109.874 114.898 111.21 113.935 112.34C113.661 112.657 114.121 113.122 114.397 112.803C115.438 111.589 116.186 110.152 116.582 108.603C116.978 107.053 117.011 105.433 116.68 103.869C116.592 103.455 115.961 103.629 116.05 104.04Z"></path><path id="vector_8" fill="#ffffff" d="M169.121 86.8H175.111C174.92 86.369 172.284 80.262 171.934 79.455C171.44 79.7263 170.91 79.9282 170.361 80.055C169.869 82.547 169.532 84.393 169.121 86.8Z"></path><path id="vector_9" fill="#ffffff" d="M193.456 43.454C192.812 43.431 189.406 43.439 157.039 43.439C157.23 43.87 165.446 62.851 166.207 64.608L193.456 43.454Z"></path><path id="vector_10" fill="#ffffff" d="M138.517 86.1L165.677 65.015L156.552 43.96C153.564 50.9 163.482 27.691 138.517 86.1Z"></path><path id="vector_11" fill="#ffffff" d="M170.015 75.6C170.294 75.53 170.257 75.59 170.195 75.448C170.135 75.5 170.075 75.544 170.015 75.6Z"></path><path id="vector_12" fill="#ffffff" d="M169.16 71.4219C171.643 71.1019 172.998 73.0349 170.712 75.0039L170.889 75.4129C171.808 75.1674 172.778 75.1928 173.682 75.4859C173.966 75.5947 174.21 75.7865 174.382 76.0363C174.555 76.2861 174.648 76.5822 174.65 76.8859C174.605 77.5139 174.058 77.9479 173.606 78.3159C173.252 78.6063 172.882 78.8764 172.497 79.1249L175.597 86.2809C177.442 81.9969 169.515 100.566 193.632 44.1379L166.473 65.2219L169.16 71.4219Z"></path><path id="vector_13" fill="#ffc431" d="M170.2 75.444C170.268 75.601 170.112 75.55 170.894 75.413L170.712 75C170.413 75.261 170.661 75.044 170.2 75.444Z"></path><path id="vector_14" fill="#ffc431" d="M194.424 42.7849C194.424 42.7849 158.161 42.7379 156.643 42.7849C156.57 42.7701 156.494 42.7777 156.425 42.8066C156.356 42.8354 156.297 42.8843 156.256 42.9469L137.385 87.1049C137.385 87.4629 137.654 87.4439 138.007 87.4569C139.219 87.5029 142.99 87.4569 154.545 87.4569C154.561 87.2389 154.577 87.0209 154.595 86.8029C149.262 86.8029 140.113 86.7779 138.695 86.7859L165.941 65.6349L168.505 71.5529C168.719 71.4956 168.937 71.4525 169.157 71.4239L166.47 65.2239L193.631 44.1389C193.179 45.1999 175.76 85.9069 175.6 86.2799L172.5 79.1239C172.316 79.2409 172.129 79.3529 171.937 79.4559C172.287 80.2629 174.923 86.3699 175.114 86.8009H169.124C169.087 87.0189 169.051 87.2369 169.014 87.4549C176.022 87.4849 175.805 87.5089 175.898 87.2929L194.704 43.2929C194.736 43.2429 194.754 43.1852 194.756 43.1258C194.758 43.0664 194.744 43.0076 194.715 42.9556C194.686 42.9036 194.644 42.8603 194.593 42.8302C194.542 42.8002 194.483 42.7845 194.424 42.7849ZM138.517 86.0999C138.972 85.0349 156.391 44.3299 156.552 43.9559L165.677 65.0149L138.517 86.0999ZM166.207 64.5999C165.446 62.8429 157.23 43.8619 157.039 43.4309C157.039 43.4309 193.261 43.4389 193.456 43.4459L166.207 64.5999Z"></path><path id="vector_15" fill="#ffc431" d="M73.751 87.455C73.488 87.455 73.305 87.486 73.206 87.215C72.367 84.932 71.586 82.521 70.994 80.215C68.5474 81.5933 65.9327 82.6491 63.215 83.356C62.6182 84.5743 62.093 85.8265 61.642 87.106C61.6323 87.1862 61.6544 87.267 61.7035 87.3311C61.7527 87.3952 61.825 87.4375 61.905 87.449C62.007 87.478 61.111 87.455 73.751 87.455Z"></path><path id="vector_16" fill="#ffc431" d="M118.651 42.786C90.179 42.786 82.932 42.744 81.099 42.806C80.399 42.829 80.566 42.755 80.317 43.338L75.532 54.538C77.3494 53.508 79.3445 52.8295 81.413 52.538C90.599 51.047 96.961 55.77 101.524 63.799C103.245 66.978 104.712 70.2883 105.911 73.699C105.911 73.805 104.547 76.968 118.934 43.288C118.964 43.2378 118.98 43.1805 118.981 43.122C118.982 43.0635 118.967 43.0059 118.938 42.955C118.909 42.904 118.868 42.8615 118.817 42.8319C118.767 42.8022 118.709 42.7864 118.651 42.786V42.786Z"></path><path id="vector_17" fill="#ae877c" d="M70.067 45.75C69.6737 45.7755 69.3014 45.9364 69.0132 46.2052C68.725 46.4741 68.5387 46.8344 68.486 47.225C68.321 48.754 70.263 50.261 71.586 49.045C72.909 47.829 71.682 45.638 70.067 45.75Z"></path><path id="vector_18" fill="#c0c195" d="M105.714 73.108C103.834 68.119 101.636 63.024 98.177 58.928C93.403 53.276 87.26 51.01 79.496 52.928C76.4137 53.6925 73.654 55.4164 71.615 57.851C71.6509 57.8174 71.6942 57.7927 71.7413 57.7786C71.7884 57.7645 71.8382 57.7616 71.8867 57.7701C71.9351 57.7785 71.981 57.798 72.0206 57.8272C72.0602 57.8563 72.0925 57.8943 72.115 57.938L80.162 73.1C80.1986 73.1631 80.2134 73.2364 80.2042 73.3087C80.195 73.381 80.1622 73.4482 80.111 73.5C77.3234 76.0619 74.2666 78.3144 70.994 80.218C71.566 82.45 72.274 84.642 73.059 86.808C73.175 87.127 73.224 87.462 73.521 87.462C101.521 87.462 100.021 87.543 100.121 87.301C106.333 72.801 105.868 73.901 105.89 73.801C105.948 73.537 105.825 73.4 105.714 73.108Z"></path><path id="vector_19" fill="#ae877c" d="M80.162 73.1C71.572 56.925 72.116 57.811 71.894 57.781C71.664 57.706 71.678 57.756 70.51 59.236C69.6725 60.1715 68.958 61.2103 68.384 62.327C66.9373 64.8423 65.3897 67.2966 63.741 69.69C63.501 70.039 62.941 69.698 63.176 69.359C65.12 66.535 67.005 63.485 68.326 61.118C70.291 57.599 67.126 54.047 65.578 51.647C65.425 51.41 65.795 51.53 66.014 51.512C64.486 48.767 65.937 48.683 66.625 47.912C66.8336 47.6337 66.9555 47.3001 66.9754 46.9529C66.9953 46.6057 66.9123 46.2603 66.7367 45.9601C66.5612 45.6598 66.301 45.4181 65.9887 45.2651C65.6763 45.1121 65.3258 45.0546 64.981 45.1C66.546 43.163 64.79 40.566 61.786 42.59C60.5771 43.3022 59.5768 44.3198 58.8854 45.5407C58.194 46.7616 57.8359 48.1429 57.847 49.546C57.7408 51.0336 57.9416 52.5272 58.437 53.934C56.7988 55.2371 55.3031 56.71 53.975 58.328C51.103 61.703 47.784 66.359 47.193 70.728C46.7922 73.1187 47.151 75.5749 48.2191 77.751C49.2871 79.9271 51.0106 81.7136 53.147 82.859C58.672 85.524 66.253 82.977 71.575 79.866C74.6276 78.0329 77.4875 75.8964 80.111 73.489C80.1597 73.438 80.1909 73.3728 80.2001 73.3028C80.2093 73.2329 80.1959 73.1618 80.162 73.1V73.1Z"></path><path id="vector_20" fill="#000000" d="M73.535 43.8199C73.5811 43.8896 73.6521 43.9389 73.7334 43.9579C73.8148 43.9768 73.9003 43.9639 73.9724 43.9219C74.0446 43.8798 74.0979 43.8117 74.1214 43.7316C74.1449 43.6514 74.1369 43.5654 74.099 43.4909C73.6844 42.8585 73.0778 42.3756 72.3685 42.1134C71.6591 41.8511 70.8844 41.8233 70.158 42.0339C69.3959 42.2896 68.7155 42.7436 68.1869 43.3492C67.6582 43.9548 67.3004 44.6902 67.15 45.4799C67.061 45.8909 67.691 46.0659 67.78 45.6539C67.8997 44.9862 68.1915 44.3612 68.6266 43.8407C69.0617 43.3201 69.625 42.9221 70.261 42.6859C70.8559 42.4941 71.497 42.501 72.0876 42.7055C72.6782 42.9101 73.1863 43.3013 73.535 43.8199V43.8199Z"></path><path id="vector_21" fill="#000000" d="M65.449 51.8419C66.82 53.9699 69.717 57.2869 68.559 60.5419C68.087 61.8689 64.365 67.6359 63.048 69.5499C62.815 69.8879 63.373 70.2289 63.613 69.8799C66.23 66.0799 68.581 62.0189 68.936 61.2989C69.2687 60.6404 69.4495 59.9156 69.465 59.1779C69.565 56.1579 67.465 53.7559 66.014 51.5069C65.794 51.1709 65.219 51.4849 65.449 51.8419Z"></path><path id="vector_22" fill="#000000" d="M61.128 47.2289C60.7457 47.8896 60.4976 48.6193 60.3979 49.376C60.2982 50.1328 60.3489 50.9018 60.547 51.6389C60.5699 51.7226 60.6252 51.7937 60.7006 51.8367C60.776 51.8796 60.8653 51.8909 60.949 51.8679C61.0327 51.845 61.1038 51.7897 61.1467 51.7144C61.1897 51.639 61.2009 51.5496 61.178 51.4659C61.0014 50.813 60.956 50.1315 61.0444 49.4609C61.1328 48.7903 61.3532 48.1438 61.693 47.5589C61.7367 47.484 61.749 47.3948 61.7269 47.3108C61.7049 47.2269 61.6504 47.1552 61.5755 47.1114C61.5006 47.0677 61.4113 47.0555 61.3274 47.0775C61.2435 47.0995 61.1717 47.154 61.128 47.2289V47.2289Z"></path><path id="vector_23" fill="#000000" d="M50.9 78.025C50.8379 77.9682 50.7562 77.9374 50.672 77.9393C50.5878 77.9411 50.5075 77.9754 50.4479 78.035C50.3884 78.0945 50.3541 78.1748 50.3523 78.259C50.3504 78.3432 50.3811 78.4249 50.438 78.487L52.708 80.757C52.7701 80.8139 52.8518 80.8446 52.936 80.8428C53.0202 80.8409 53.1005 80.8066 53.16 80.7471C53.2196 80.6875 53.2539 80.6073 53.2557 80.5231C53.2576 80.4388 53.2269 80.3572 53.17 80.295L50.9 78.025Z"></path><path id="vector_24" fill="#c0c195" d="M81.185 72.354C82.707 70.718 84.212 69.0666 85.7 67.4C85.979 67.087 85.518 66.623 85.237 66.938C83.7503 68.6046 82.2457 70.2563 80.723 71.893C80.437 72.2 80.9 72.663 81.185 72.354Z"></path><path id="vector_25" fill="#000000" d="M74.916 45.5519C74.5943 45.4343 74.2434 45.4223 73.9144 45.5177C73.5855 45.6132 73.2955 45.811 73.0867 46.0826C72.8779 46.3542 72.7611 46.6852 72.7534 47.0277C72.7457 47.3702 72.8474 47.7062 73.0437 47.9868C73.2401 48.2675 73.5209 48.4783 73.8452 48.5884C74.1696 48.6986 74.5206 48.7025 74.8473 48.5994C75.174 48.4964 75.4593 48.2918 75.6617 48.0155C75.8642 47.7392 75.9732 47.4055 75.973 47.0629C75.9687 46.7341 75.8656 46.4142 75.6771 46.1447C75.4886 45.8752 75.2234 45.6687 74.916 45.5519V45.5519Z"></path><path id="vector_26" fill="#ffc431" d="M137.446 87.276C137.418 87.238 137.464 86.976 137.385 87.105C137.357 87.152 137.302 87.305 137.231 87.459C136.525 88.965 133.268 96.708 118.182 132.032C118.155 132.082 118.14 132.138 118.141 132.195C118.141 132.252 118.156 132.308 118.185 132.357C118.213 132.407 118.254 132.448 118.303 132.477C118.351 132.506 118.407 132.522 118.464 132.524H130.978C130.906 132.523 130.837 132.499 130.78 132.456C130.723 132.412 130.682 132.352 130.662 132.283C130.156 129.412 130.048 126.484 130.341 123.583C130.75 118.397 132.128 113.152 135.594 109.299C139.847 104.57 147.679 102.619 153.877 103.057C153.97 95.899 154.223 92.605 154.545 87.457C136.606 87.455 137.576 87.561 137.446 87.276Z"></path><path id="vector_27" fill="#ffc431" d="M169.011 87.455C166.889 100.077 166.331 109.596 166.32 109.696L175.895 87.296C175.784 87.552 175.8 87.455 169.011 87.455Z"></path><path id="vector_28" fill="#000000" d="M146.425 91.0449C145.938 90.1874 145.27 89.447 144.466 88.8759C143.494 88.3489 142.62 88.9189 143.229 90.2439C143.811 91.5079 145.161 92.5649 147.27 94.5199C147.847 94.471 148.426 94.5766 148.949 94.8259C148.14 93.5439 147.308 92.2769 146.425 91.0449Z"></path><path id="vector_29" fill="#ffaaaa" d="M150.608 96.611C150.439 96.1729 150.177 95.7762 149.842 95.4476C149.506 95.1191 149.104 94.8663 148.662 94.7063C148.221 94.5464 147.75 94.4829 147.282 94.5203C146.813 94.5577 146.359 94.695 145.948 94.923C145.501 95.1878 145.128 95.5607 144.862 96.0074C144.597 96.4542 144.448 96.9604 144.43 97.4797C144.411 97.9989 144.524 98.5144 144.756 98.979C144.989 99.4435 145.335 99.842 145.762 100.138C146.285 100.464 146.888 100.642 147.505 100.651C148.122 100.66 148.729 100.5 149.262 100.189C149.837 99.8124 150.277 99.2628 150.519 98.6196C150.761 97.9765 150.792 97.273 150.608 96.611V96.611Z"></path><path id="vector_30" fill="#ffe660" d="M167.814 95.233C167.795 95.3018 167.753 95.3624 167.697 95.4057C167.64 95.449 167.57 95.4726 167.499 95.473H154.412C154.326 95.4722 154.243 95.4375 154.182 95.3764C154.12 95.3152 154.086 95.2325 154.085 95.146C154.085 95.146 153.911 100.416 153.877 103.052C148.581 102.677 143.297 103.934 138.737 106.652C136.164 108.304 134.12 110.661 132.849 113.443C130.264 118.699 129.578 127.556 130.662 132.285C130.682 132.354 130.723 132.414 130.78 132.458C130.837 132.501 130.906 132.525 130.978 132.526H136.122C136.036 132.524 135.954 132.489 135.893 132.428C135.832 132.367 135.797 132.285 135.796 132.199C135.74 130.859 135.902 129.519 136.274 128.231C137.583 124.266 141.301 121.266 146.751 121.823C145.786 117.553 144.09 113.481 141.738 109.788C141.507 109.434 142.074 109.107 142.303 109.458C144.728 113.279 146.467 117.494 147.443 121.913C150.643 122.413 153.619 124.168 154.673 127.293C155.154 128.999 155.269 130.788 155.01 132.542C155.763 132.542 156.327 132.526 156.35 132.526C156.407 132.526 156.463 132.511 156.513 132.482C156.562 132.454 156.604 132.413 156.633 132.364C167.573 106.932 166.233 110.435 166.361 108.908C167 101.265 167.88 94.766 167.814 95.233Z"></path><path id="vector_31" fill="#ffc431" d="M142.3 109.456C142.071 109.105 141.5 109.432 141.735 109.786C144.087 113.479 145.783 117.551 146.748 121.821C147.29 121.876 147.336 121.895 147.44 121.911C146.461 117.493 144.722 113.279 142.3 109.456V109.456Z"></path><path id="vector_32" fill="#ffffff" d="M154.6 86.8C154.769 84.6606 154.969 82.5246 155.2 80.392C153.749 79.785 151.337 78.408 151.86 76.92C152.033 76.569 152.294 76.2689 152.618 76.0491C152.942 75.8293 153.317 75.6973 153.707 75.666C155.299 75.5651 156.868 76.0815 158.089 77.108C158.973 74.5574 160.333 72.1974 162.096 70.153C162.877 69.239 163.836 68.233 165.155 68.417C165.429 68.4467 165.691 68.5469 165.915 68.7078C166.139 68.8686 166.318 69.0847 166.434 69.335C166.869 70.335 166.261 71.497 165.889 72.555C165.642 73.255 165.663 72.682 167.382 71.945C167.748 71.7854 168.125 71.6533 168.511 71.55L165.947 65.632L138.7 86.784C140.02 86.77 146.67 86.8 154.6 86.8Z"></path><path id="vector_33" fill="#ffaaaa" d="M154.673 127.291C152.365 120.447 139.307 119.044 136.273 128.229C135.9 129.517 135.739 130.857 135.795 132.197C135.796 132.283 135.831 132.365 135.892 132.426C135.953 132.487 136.035 132.522 136.121 132.524H143.986C143.866 133.617 143.595 135.141 144.353 135.935C144.599 136.165 144.909 136.316 145.242 136.367C145.575 136.418 145.915 136.368 146.219 136.222C146.837 135.867 147.302 135.298 147.528 134.622C147.584 135.127 147.804 135.601 148.154 135.97C148.409 136.212 148.741 136.356 149.092 136.378C149.442 136.4 149.79 136.298 150.073 136.09C150.609 135.569 150.974 134.897 151.119 134.164C151.149 134.335 151.17 134.508 151.204 134.679C151.24 135 151.353 135.309 151.533 135.577C151.714 135.846 151.957 136.066 152.241 136.221C152.499 136.351 152.789 136.405 153.076 136.374C153.364 136.344 153.636 136.231 153.861 136.049C154.735 135.332 154.932 133.665 155.009 132.54C155.271 130.786 155.157 128.997 154.673 127.291Z"></path><path id="vector_34" fill="#000000" d="M187.949 139.207C186.105 140.219 183.549 141.007 181.776 139.418C181.399 139.134 181.089 138.77 180.869 138.352C180.649 137.934 180.524 137.473 180.503 137.001C180.483 136.529 180.567 136.059 180.749 135.623C180.932 135.188 181.209 134.798 181.56 134.482C183.297 132.952 185.772 133.415 187.866 132.94C189.713 132.52 191.51 131.062 191.488 129.023C191.416 128.153 191.061 127.331 190.479 126.681C189.896 126.031 189.117 125.589 188.26 125.423C186.094 124.894 183.991 126.11 182.005 126.787C180.395 127.336 178.314 127.578 176.944 126.327C175.534 125.039 175.803 122.82 176.923 121.436C178.323 119.704 180.729 119.825 182.677 119.207C184.39 118.664 186.119 117.207 186.109 115.275C186.054 114.434 185.706 113.638 185.127 113.026C184.547 112.413 183.772 112.022 182.935 111.921C179.773 111.326 176.824 114.33 174.041 112.771C172.265 111.777 171.971 109.917 173.158 108.718C174.137 107.73 176.006 107.284 177.308 106.249C179.774 104.289 180.436 99.493 176.608 95.165C176.329 94.85 175.868 95.313 176.146 95.628C179 98.855 179.16 102.211 177.987 104.402C176.587 107.012 173.556 106.681 172.23 108.846C172.015 109.222 171.88 109.638 171.832 110.068C171.784 110.499 171.825 110.934 171.952 111.348C172.079 111.762 172.289 112.145 172.571 112.475C172.852 112.804 173.197 113.072 173.586 113.263C176.664 115.131 179.674 112.171 182.511 112.512C185.629 112.888 186.548 116.027 183.911 117.874C182.163 119.098 179.889 118.866 178.005 119.774C174.336 121.542 174.278 127.119 178.705 127.814C182.129 128.35 184.976 125.559 187.738 125.984C190.798 126.454 192.076 129.819 189.278 131.653C187.354 132.915 184.903 132.285 182.814 133.032C179.414 134.25 178.989 137.649 181.196 139.778C182.846 141.369 185.119 141.2 187.222 140.291C189.057 139.499 191.485 137.427 193.222 138.767C195.073 140.191 194.711 144.072 191.349 145.276C189.282 146.017 186.895 145.347 185.156 147.255C184.827 147.596 184.579 148.007 184.43 148.457C184.281 148.907 184.236 149.385 184.297 149.855C184.356 150.27 184.986 150.094 184.927 149.682C184.894 149.195 184.994 148.709 185.214 148.274C185.435 147.839 185.769 147.471 186.181 147.21C187.906 145.982 190.312 146.717 192.473 145.465C195.539 143.688 195.593 139.965 193.773 138.377C191.953 136.789 189.665 138.265 187.949 139.207Z"></path><path id="vector_35" fill="#ffaaaa" d="M173.721 75.5C172.746 75.029 171.061 75.338 170.015 75.6C170.805 74.915 172.128 73.971 171.846 72.71C171.599 71.61 170.298 71.279 169.16 71.426C168.545 71.519 167.946 71.6953 167.379 71.95C165.663 72.686 165.638 73.265 165.886 72.56C166.256 71.506 166.866 70.334 166.431 69.34C166.315 69.0897 166.136 68.8737 165.912 68.7128C165.688 68.552 165.426 68.4518 165.152 68.422C163.833 68.238 162.874 69.244 162.093 70.158C160.33 72.2026 158.971 74.5625 158.086 77.113C156.865 76.0866 155.296 75.5701 153.704 75.671C153.314 75.7023 152.939 75.8343 152.615 76.0541C152.291 76.2739 152.03 76.574 151.857 76.925C151.334 78.414 153.747 79.79 155.197 80.397C154.718 84.745 154.31 89.879 154.085 95.15C154.086 95.2365 154.12 95.3192 154.182 95.3804C154.243 95.4415 154.326 95.4762 154.412 95.477H167.5C167.571 95.4766 167.641 95.453 167.698 95.4097C167.754 95.3664 167.796 95.3058 167.815 95.237C168.615 89.561 169.797 82.92 170.362 80.06C171.563 79.7376 172.674 79.1417 173.607 78.319C174.059 77.951 174.607 77.519 174.651 76.889C174.649 76.5918 174.56 76.3018 174.395 76.0548C174.229 75.8079 173.995 75.615 173.721 75.5V75.5Z"></path><path id="vector_36" fill="#ffaaaa" d="M165.733 79.292C164.629 79.4949 163.58 79.929 162.655 80.566C161.765 79.3666 160.519 78.479 159.095 78.03C158.695 77.899 158.522 78.53 158.921 78.661C160.3 79.0864 161.489 79.9766 162.285 81.18C162.329 81.2545 162.401 81.3087 162.484 81.3308C162.568 81.3528 162.657 81.3411 162.732 81.298C163.669 80.5986 164.755 80.1274 165.906 79.922C166.32 79.847 166.145 79.217 165.733 79.292Z"></path><path id="vector_37" fill="#ffaaaa" d="M146.785 127.132C147.348 128.033 147.681 129.059 147.753 130.119C147.78 130.537 148.434 130.54 148.406 130.119C148.332 128.943 147.969 127.804 147.35 126.802C147.128 126.445 146.563 126.773 146.785 127.132Z"></path><path id="vector_38" fill="#ffaaaa" d="M150.318 126.775C150.873 127.735 151.114 128.844 151.007 129.948C150.969 130.367 151.623 130.364 151.661 129.948C151.769 128.729 151.497 127.506 150.883 126.448C150.837 126.378 150.766 126.329 150.685 126.31C150.604 126.291 150.519 126.304 150.447 126.346C150.374 126.387 150.321 126.455 150.297 126.535C150.273 126.615 150.281 126.7 150.318 126.775V126.775Z"></path><path id="vector_39" fill="#000000" d="M142.72 98.6C142.545 99.7 142.26 101.332 141.557 102.046C140.689 102.927 139.514 102.464 138.705 101.766L139.498 101.114C139.823 100.846 139.358 100.386 139.035 100.652L136.759 102.524C136.434 102.792 136.899 103.252 137.222 102.987L138.195 102.187C139.988 103.796 142.021 103.498 142.833 101.094C143.07 100.336 143.243 99.5603 143.351 98.774C143.417 98.357 142.787 98.179 142.72 98.6Z"></path><path id="vector_40" fill="#6596e1" d="M99.84 87.455C59.773 87.455 62.007 87.478 61.905 87.445C61.8571 87.4365 61.8117 87.4174 61.7722 87.3889C61.7327 87.3605 61.7002 87.3235 61.677 87.2807C61.6538 87.2379 61.6406 87.1904 61.6384 87.1418C61.6361 87.0932 61.6449 87.0447 61.664 87C61.725 86.812 61.905 86.421 51.845 109.958C52.821 110.481 53.754 111.035 54.715 111.631C55.167 109.159 58.247 108.468 60.475 110.143C61.5132 111.008 62.3712 112.068 63 113.264C64.1972 112.64 65.5133 112.277 66.8613 112.199C68.2092 112.122 69.5582 112.332 70.819 112.815C70.993 110.699 71.231 108.608 71.466 106.636C69.7209 104.787 68.3648 102.607 67.478 100.225C67.047 99.039 66.945 97.655 68.088 96.775C71.268 94.329 73.774 98.968 75.647 101.499C76.6197 99.381 77.6893 97.311 78.856 95.289C79.2064 94.5959 79.6809 93.9729 80.256 93.451C80.5461 93.1931 80.8968 93.0128 81.2753 92.927C81.6539 92.8411 82.048 92.8525 82.421 92.96C82.9238 93.2286 83.3252 93.6538 83.5643 94.1713C83.8034 94.6887 83.8672 95.27 83.746 95.827C83.601 96.955 82.88 98.968 82.326 101.033C83.9379 99.3542 85.7281 97.8563 87.665 96.566C88.536 96.056 89.656 95.606 90.507 96.149C91.426 96.734 91.407 98.094 91.05 99.122C90.093 101.103 88.758 102.878 87.12 104.347C88.055 104.229 89.328 104.12 90.263 104.001C91.1664 103.839 92.0909 103.831 92.997 103.977L100.128 87.294C100.099 87.3445 100.057 87.3862 100.006 87.4146C99.9557 87.443 99.8981 87.4569 99.84 87.455V87.455Z"></path><path id="vector_41" fill="#ffaaaa" d="M54.715 111.627C53.3228 110.745 51.8822 109.942 50.4 109.221C43.1313 106.098 34.9381 105.9 27.527 108.668C15.65 113.542 11.653 126.727 10.98 139.54C10.791 143.15 10.905 145.996 10.889 147.04C10.8903 147.126 10.9252 147.209 10.9862 147.27C11.0473 147.331 11.1297 147.366 11.216 147.367H22.137C22.07 147.297 21.537 146.747 21.38 146.574C21.3202 146.512 21.2869 146.429 21.2869 146.343C21.2869 146.257 21.3202 146.174 21.38 146.112L38.923 128.569C38.9851 128.509 39.0681 128.475 39.1545 128.475C39.2409 128.475 39.3239 128.509 39.386 128.569C41.43 130.659 43.449 132.773 45.443 134.911C51.665 127.528 55.204 123.056 59.365 119.099C57.105 117.5 54.224 114.319 54.715 111.627Z"></path><path id="vector_42" fill="#ffd7d7" d="M88.576 109.408C90.157 109.229 94.059 108.316 94.851 107.108C95.499 106.116 94.822 104.388 92.991 103.979C92.0849 103.833 91.1604 103.841 90.257 104.003C89.322 104.122 88.049 104.231 87.114 104.349C88.752 102.88 90.087 101.105 91.044 99.124C91.404 98.096 91.42 96.736 90.501 96.151C89.65 95.608 88.53 96.058 87.659 96.568C85.7221 97.8584 83.9319 99.3562 82.32 101.035C82.874 98.97 83.595 96.957 83.74 95.829C83.8612 95.2721 83.7974 94.6907 83.5583 94.1733C83.3192 93.6559 82.9178 93.2306 82.415 92.962C82.042 92.8545 81.6479 92.8432 81.2693 92.929C80.8908 93.0149 80.5401 93.1951 80.25 93.453C79.675 93.975 79.2004 94.598 78.85 95.291C77.6853 97.3104 76.6157 99.3804 75.641 101.501C73.768 98.97 71.262 94.331 68.082 96.777C66.939 97.657 67.041 99.041 67.472 100.227C68.3588 102.609 69.7149 104.79 71.46 106.638C71.225 108.61 70.987 110.701 70.813 112.817C71.2879 112.989 71.7495 113.196 72.194 113.436C74.075 112.121 78.759 111.492 82.374 112.847C85.0028 113.738 87.2364 115.522 88.687 117.889C88.8528 118.128 88.9649 118.399 89.0157 118.685C89.0664 118.971 89.0546 119.265 88.981 119.546C88.815 119.971 88.4931 120.316 88.081 120.512C87.015 120.855 85.8584 120.78 84.846 120.301C83.2053 119.737 81.5971 119.083 80.029 118.341C81.0154 119.556 81.8639 120.877 82.559 122.279C83.803 125.247 81.684 126.79 77.339 124.079C75.767 132.626 73.055 140.432 67.406 147.101C76.958 150.473 85.596 147.787 90.09 142.562C96.431 135.186 97.07 120.434 88.576 109.408Z"></path><path id="vector_43" fill="#ffd7d7" d="M88.69 117.887C87.2394 115.52 85.0058 113.736 82.377 112.845C78.75 111.486 74.07 112.124 72.197 113.434C70.7962 112.65 69.2233 112.224 67.6183 112.195C66.0133 112.165 64.4258 112.532 62.997 113.264C62.3695 112.067 61.5126 111.005 60.475 110.139C57.985 108.267 54.552 109.373 54.658 112.38C54.745 114.88 57.323 117.657 59.365 119.103C55.516 122.764 53.019 125.925 45.443 134.915C43.4503 132.776 41.4313 130.662 39.386 128.573C39.3239 128.513 39.2409 128.479 39.1545 128.479C39.0681 128.479 38.9851 128.513 38.923 128.573L21.38 146.116C21.3202 146.178 21.2868 146.261 21.2868 146.347C21.2868 146.433 21.3202 146.516 21.38 146.578C34.744 161.266 54.38 162.478 67.409 147.096C73.054 140.432 75.768 132.634 77.342 124.074C81.725 126.812 83.797 125.224 82.562 122.274C81.8687 120.871 81.0201 119.55 80.032 118.336C81.6001 119.078 83.2083 119.732 84.849 120.296C85.8614 120.775 87.018 120.85 88.084 120.507C88.4961 120.311 88.818 119.966 88.984 119.541C89.0571 119.26 89.0687 118.967 89.018 118.682C88.9672 118.396 88.8554 118.125 88.69 117.887V117.887Z"></path><path id="vector_44" fill="#ffaaaa" d="M73.153 120.853C73.281 122.229 73.29 123.613 73.376 124.992C73.453 126.227 73.797 127.659 73.176 128.808C73.0497 129.056 72.8688 129.273 72.6467 129.441C72.4247 129.61 72.1673 129.726 71.894 129.78C71.6208 129.835 71.3387 129.827 71.069 129.756C70.7993 129.686 70.549 129.556 70.337 129.375C68.572 128.207 67.551 124.019 67.337 121.89C67.3351 121.819 67.3108 121.75 67.2678 121.694C67.2247 121.637 67.165 121.596 67.097 121.575C64.9745 120.947 62.9213 120.104 60.969 119.061C60.592 118.878 60.26 119.442 60.639 119.625C62.5809 120.655 64.616 121.5 66.717 122.147C66.978 124.447 67.974 128.383 69.806 129.794C70.2767 130.2 70.8757 130.428 71.4976 130.436C72.1195 130.445 72.7244 130.234 73.206 129.84C74.272 128.858 74.236 127.311 74.112 125.987C73.974 124.508 73.962 123.023 73.859 121.543C74.679 122.165 75.973 123.195 76.949 123.827C77.303 124.056 77.631 123.49 77.279 123.262C76.013 122.442 74.864 121.462 73.647 120.57C73.5972 120.541 73.5405 120.525 73.4827 120.525C73.4249 120.525 73.3681 120.54 73.318 120.568C73.2678 120.597 73.2262 120.638 73.1972 120.688C73.1682 120.738 73.153 120.795 73.153 120.853Z"></path><path id="vector_45" fill="#ffd7d7" d="M32 96.8059C31.4345 97.0835 30.9754 97.5386 30.6928 98.1016C30.4102 98.6646 30.3197 99.3046 30.435 99.924C30.966 102.36 34.864 103.252 36.06 100.566C37.226 97.9499 34.282 95.7579 32 96.8059Z"></path><path id="vector_46" fill="#000000" d="M47.788 130.034C44.6972 124.483 42.0915 118.675 40 112.676C39.9 112.397 39.442 112.334 39.369 112.676C38.169 118.297 38.595 125.989 43.093 129.232C44.3526 130.176 45.9182 130.619 47.486 130.475C47.5377 130.473 47.5882 130.458 47.6335 130.433C47.6787 130.408 47.7175 130.372 47.7467 130.33C47.776 130.287 47.795 130.238 47.8021 130.187C47.8093 130.135 47.8044 130.083 47.788 130.034V130.034Z"></path><path id="vector_47" fill="#000000" d="M27.806 96.3269C26.354 95.2869 24.697 98.2139 25.625 101.336C26.238 103.397 27.786 103.611 28.552 101.767C29.186 100.239 29.145 97.2849 27.806 96.3269Z"></path><path id="vector_48" fill="#000000" d="M39.352 96.3269C37.899 95.2869 36.243 98.2139 37.171 101.336C37.784 103.398 39.332 103.611 40.098 101.767C40.732 100.24 40.69 97.2849 39.352 96.3269Z"></path><path id="vector_49" fill="#000000" d="M34.5 91.9509C33.6622 93.4518 32.4874 94.7375 31.068 95.7069C30.768 95.8959 30.959 96.4469 31.32 96.3069C33.2769 95.6784 35.1278 94.758 36.81 93.5769C36.2522 92.7831 35.4355 92.2082 34.5 91.9509V91.9509Z"></path><path id="vector_50" fill="#000000" d="M36.838 88.32C36.029 88.554 35.971 89.34 34.831 91.377C35.828 91.6857 36.6992 92.307 37.316 93.149C39.765 90.889 38.257 87.911 36.838 88.32Z"></path><path id="vector_51" fill="#000000" d="M36.058 92.7549C36.8064 93.4741 37.4034 94.3357 37.814 95.289C37.998 95.667 38.562 95.336 38.379 94.959C37.9675 94.0205 37.3918 93.1631 36.679 92.427C34.257 90.217 29.69 90.6269 27.231 94.7969C27.1872 94.8719 27.175 94.9611 27.1971 95.045C27.2191 95.129 27.2736 95.2007 27.3485 95.2445C27.4234 95.2882 27.5127 95.3004 27.5966 95.2784C27.6805 95.2563 27.7522 95.2019 27.796 95.127C29.9 91.551 33.792 90.8849 36.058 92.7549Z"></path><path id="vector_52" fill="#000000" d="M11.876 131.564C11.569 131.428 9.011 131.421 7.237 130.154C4.372 128.108 5.67 124.438 8.937 123.926C12.069 123.435 15.029 126.698 18.486 126.382C21.555 126.102 23.258 123.204 21.219 120.737C19.011 118.066 15.365 118.849 12.609 117.397C10.509 116.297 8.738 113.966 9.433 111.985C9.903 110.644 11.833 109.543 14.133 110.185C17.249 111.06 19.339 114.014 22.51 114.738C26.469 115.638 28.251 112.361 25.751 109.777C24.33 108.309 19.29 105.637 17.774 103.919C16.595 102.583 16.762 101.324 17.625 100.543C18.763 99.511 20.844 99.405 23.081 101.665C23.1113 101.695 23.1474 101.72 23.187 101.736C23.2267 101.752 23.2692 101.761 23.3121 101.761C23.3551 101.761 23.3976 101.753 23.4373 101.736C23.477 101.72 23.5131 101.696 23.5435 101.666C23.5739 101.635 23.598 101.599 23.6145 101.559C23.631 101.52 23.6395 101.477 23.6395 101.434C23.6396 101.391 23.6312 101.349 23.6148 101.309C23.5984 101.269 23.5743 101.233 23.544 101.203C22.5358 100.039 21.1149 99.3118 19.581 99.175C18.9254 99.1527 18.2779 99.3252 17.7203 99.6707C17.1627 100.016 16.72 100.519 16.448 101.116C15.913 102.483 16.718 103.84 17.685 104.77C19.222 106.247 24.274 109.07 25.442 110.405C26.679 111.823 26.555 113.744 24.506 114.169C20.106 115.083 16.706 108.389 11.706 109.463C8.717 110.106 7.522 113.051 9.842 115.963C12.531 119.335 15.899 118.616 18.709 119.73C19.3717 119.952 19.9684 120.335 20.4448 120.846C20.9213 121.357 21.2624 121.979 21.437 122.656C21.4797 123.32 21.2845 123.978 20.8863 124.511C20.4881 125.044 19.9129 125.418 19.264 125.566C15.989 126.592 12.964 123.192 9.628 123.219C4.46 123.261 2.7 129.988 9.164 131.729C10.0212 131.944 10.8928 132.096 11.772 132.185C11.8477 132.185 11.921 132.159 11.9789 132.11C12.0367 132.061 12.0754 131.993 12.0879 131.919C12.1004 131.844 12.0859 131.767 12.0471 131.702C12.0083 131.637 11.9477 131.588 11.876 131.564V131.564Z"></path><path id="vector_53" fill="#ffaaaa" d="M31.092 120.072C31.0306 120.011 30.9474 119.976 30.8606 119.976C30.7739 119.977 30.6908 120.011 30.6295 120.072C30.5682 120.134 30.5339 120.217 30.534 120.304C30.5341 120.391 30.5686 120.474 30.63 120.535L38.182 128.16C38.2446 128.215 38.3259 128.245 38.4094 128.242C38.4929 128.24 38.5722 128.205 38.6313 128.146C38.6904 128.087 38.7247 128.008 38.7272 127.924C38.7298 127.841 38.7004 127.76 38.645 127.697L31.092 120.072Z"></path><path id="vector_54" fill="#ffaaaa" d="M14.719 137C14.461 136.669 14.001 137.134 14.257 137.463C16.165 139.915 18.334 143.325 20.111 145.411C20.385 145.731 20.845 145.267 20.574 144.948C18.458 142.469 16.729 139.587 14.719 137Z"></path><path id="vector_55" fill="#ffaaaa" d="M47.812 154.754H42.5C42.4133 154.754 42.3301 154.788 42.2688 154.85C42.2074 154.911 42.173 154.994 42.173 155.081C42.173 155.168 42.2074 155.251 42.2688 155.312C42.3301 155.374 42.4133 155.408 42.5 155.408H47.812C47.8987 155.408 47.9819 155.374 48.0432 155.312C48.1045 155.251 48.139 155.168 48.139 155.081C48.139 154.994 48.1045 154.911 48.0432 154.85C47.9819 154.788 47.8987 154.754 47.812 154.754V154.754Z"></path><path id="vector_56" fill="#ffaaaa" d="M80.549 144.946H76.917C76.8303 144.946 76.7471 144.98 76.6858 145.042C76.6245 145.103 76.59 145.186 76.59 145.273C76.59 145.36 76.6245 145.443 76.6858 145.504C76.7471 145.566 76.8303 145.6 76.917 145.6H80.549C80.6357 145.6 80.7189 145.566 80.7802 145.504C80.8416 145.443 80.876 145.36 80.876 145.273C80.876 145.186 80.8416 145.103 80.7802 145.042C80.7189 144.98 80.6357 144.946 80.549 144.946V144.946Z"></path><path id="vector_57" fill="#ffaaaa" d="M85.82 107.27C83.8808 107.547 82.0171 108.212 80.34 109.224C79.6573 106.746 78.2498 104.528 76.298 102.855C75.979 102.583 75.514 103.044 75.835 103.317C77.7802 104.974 79.1612 107.195 79.786 109.673C79.736 109.888 79.901 110.249 80.4 109.957C82.0964 108.88 84.0039 108.179 85.994 107.901C86.409 107.842 86.232 107.212 85.82 107.27Z"></path><path id="vector_58" fill="#000000" d="M50.855 99H44.5C44.4165 99.0046 44.338 99.041 44.2805 99.1018C44.2231 99.1625 44.1911 99.2429 44.1911 99.3265C44.1911 99.4101 44.2231 99.4905 44.2805 99.5512C44.338 99.612 44.4165 99.6484 44.5 99.653H50.857C50.9405 99.6481 51.0189 99.6115 51.0762 99.5506C51.1334 99.4897 51.1652 99.4092 51.1649 99.3256C51.1647 99.242 51.1324 99.1616 51.0748 99.1011C51.0171 99.0405 50.9385 99.0044 50.855 99V99Z"></path><path id="vector_59" fill="#000000" d="M48.033 94.1829L44.106 97.1999C43.776 97.4529 44.106 98.0209 44.436 97.7649L48.363 94.7529C48.693 94.4999 48.367 93.9269 48.033 94.1829Z"></path><path id="vector_60" fill="#000000" d="M44.3 101.784L47.78 104.5C48.108 104.755 48.574 104.3 48.242 104.037L44.761 101.327C44.433 101.066 43.967 101.526 44.3 101.784Z"></path><path id="vector_61" fill="#6596e1" d="M88.576 109.408C89.306 110.354 89.7 110.979 89.881 111.255L90.853 108.98C90.1043 109.173 89.3437 109.316 88.576 109.408Z"></path><path id="vector_62" fill="#ffc431" d="M118.651 42.7859C118.708 42.7873 118.764 42.8033 118.813 42.8324C118.862 42.8616 118.903 42.9029 118.931 42.9523C118.959 43.0017 118.975 43.0577 118.975 43.1147C118.976 43.1717 118.962 43.228 118.934 43.2779L100.053 87.4549H102.222C105.341 82.1893 109.113 77.3392 113.448 73.0199C112.796 72.8638 112.16 72.6475 111.548 72.3739C110.962 72.1109 110.201 71.6739 110.28 70.9229C110.352 70.2489 111.053 69.9669 111.639 69.8759C111.733 69.8609 111.828 69.8519 111.923 69.8399C111.346 69.7031 110.83 69.381 110.454 68.9229C110.383 68.7994 110.337 68.663 110.32 68.5216C110.302 68.3802 110.313 68.2368 110.352 68.0997C110.391 67.9626 110.456 67.8346 110.545 67.7232C110.634 67.6118 110.744 67.5192 110.869 67.4509C111.559 67.0698 112.334 66.8699 113.122 66.8699C112.813 66.7915 112.519 66.6664 112.248 66.4989C111.922 66.3331 111.668 66.0533 111.535 65.7125C111.401 65.3718 111.398 64.994 111.525 64.6509C112.156 63.4099 114.489 64.0139 117.573 64.0299C117.369 63.1156 117.341 62.1707 117.491 61.2459C117.588 60.9272 117.805 60.6581 118.095 60.4942C118.385 60.3302 118.727 60.284 119.05 60.3649C120.262 60.6469 119.986 61.9009 121.786 63.6409C122.263 64.1039 122.722 64.5839 123.173 65.0729C125.487 63.677 127.871 62.4003 130.316 61.2479C129.773 59.912 129.421 58.5062 129.27 57.0719C128.935 57.2697 128.549 57.3643 128.16 57.3439C127.772 57.3234 127.398 57.1888 127.085 56.9569C126.79 56.6981 126.588 56.3485 126.513 55.963C126.438 55.5775 126.493 55.1779 126.669 54.8269C126.916 54.3818 127.323 54.047 127.807 53.8898C128.292 53.7326 128.818 53.7648 129.279 53.9799C130.074 49.0029 134.841 49.7029 135.779 53.1289C135.872 53.4709 135.931 53.8959 136.026 54.3099C136.252 54.0806 136.534 53.9147 136.844 53.8291C137.154 53.7435 137.481 53.7411 137.793 53.8222C138.104 53.9033 138.389 54.0651 138.618 54.2911C138.847 54.5172 139.012 54.7996 139.097 55.1099C139.235 55.6909 138.868 55.4759 139.797 55.3619C140.117 55.3174 140.442 55.3513 140.746 55.4607C141.049 55.57 141.321 55.7516 141.539 55.9897C141.757 56.2278 141.913 56.5152 141.995 56.8273C142.077 57.1394 142.082 57.4666 142.009 57.7809C141.964 58.0669 141.825 58.3189 141.767 58.5999C141.657 59.1279 142.244 59.2939 142.667 59.2409C143.622 59.1229 144.632 58.0869 145.909 59.1789C146.114 59.3532 146.281 59.5671 146.402 59.8076C146.522 60.0482 146.592 60.3105 146.609 60.5789C146.677 61.9789 144.862 63.2289 147.224 64.0899C154.708 46.5789 156.057 43.4539 156.243 43.0209C156.263 42.9633 156.297 42.912 156.343 42.8722C156.389 42.8325 156.445 42.8058 156.505 42.7949C156.6 42.7559 157.955 42.7859 118.651 42.7859Z"></path><path id="vector_63" fill="#ffc431" d="M119.2 87.129C119.209 87.02 119.477 83.201 119.641 81.405C117.533 83.105 115.028 84.2406 112.36 84.705C114.634 84.205 116.56 86.32 116.1 87.463H119.523C119.436 87.4602 119.354 87.4237 119.294 87.3614C119.234 87.2991 119.2 87.2157 119.2 87.129V87.129Z"></path><path id="vector_64" fill="#000000" d="M146.338 63.635C145.409 62.859 146.663 61.735 146.607 60.574C146.59 60.305 146.519 60.0423 146.398 59.8013C146.277 59.5604 146.109 59.3463 145.904 59.1717C145.699 58.9971 145.46 58.8657 145.203 58.7851C144.946 58.7046 144.675 58.6766 144.407 58.703C143.799 58.781 143.276 59.165 142.672 59.24C142.249 59.293 141.662 59.127 141.772 58.599C141.998 58.087 142.077 57.5222 142 56.968C141.961 56.7178 141.874 56.4778 141.742 56.2616C141.611 56.0454 141.438 55.8573 141.233 55.708C141.029 55.5587 140.797 55.4512 140.551 55.3917C140.305 55.3321 140.05 55.3217 139.8 55.361C139.577 55.3909 139.356 55.4367 139.139 55.498C139.141 55.7892 139.073 56.0766 138.939 56.3352C138.805 56.5939 138.61 56.8159 138.371 56.9821C138.132 57.1483 137.856 57.2536 137.567 57.2889C137.278 57.3241 136.984 57.2883 136.712 57.1844C136.44 57.0806 136.198 56.9119 136.005 56.693C135.813 56.4742 135.678 56.2117 135.61 55.9284C135.542 55.6452 135.545 55.3497 135.617 55.0676C135.69 54.7856 135.83 54.5255 136.026 54.31C135.931 53.896 135.872 53.471 135.779 53.129C134.929 50.018 130.72 49.029 129.497 53.029C128.747 55.485 129.431 59.092 130.318 61.246C134.558 59.181 140.033 59.46 143.371 62.68C144.463 63.9367 145.36 65.3509 146.03 66.875L147.223 64.083C146.904 63.9859 146.605 63.8343 146.338 63.635ZM133.553 56.1C132.332 57.211 130.927 55.823 131.253 54.43C131.312 54.1162 131.476 53.8317 131.717 53.6227C131.959 53.4138 132.264 53.2928 132.583 53.2793C132.902 53.2659 133.216 53.3608 133.474 53.5487C133.733 53.7365 133.92 54.0063 134.005 54.314C134.108 54.6238 134.12 54.9565 134.04 55.2729C133.96 55.5894 133.791 55.8763 133.553 56.1V56.1Z"></path><path id="vector_65" fill="#ffaaaa" d="M113.893 73.117C113.744 73.087 113.593 73.056 113.448 73.017C109.421 77.0562 105.856 81.5314 102.82 86.36C102.202 87.391 101.702 88.4887 101.33 89.632C100.978 91.28 102.002 91.832 102.863 91.257C103.17 91.0278 103.425 90.7369 103.612 90.403C104.951 88.292 105.283 86.051 104.512 89.403C104.412 89.85 103.986 91.074 104.182 91.488C104.474 92.102 105.561 92.617 106.688 91.002C107.077 90.445 107.995 88.428 108.326 87.834C108.251 88.734 107.691 90.183 107.556 91.075C107.315 92.653 109.156 92.312 109.745 91.665C110.712 90.5038 111.354 89.1076 111.606 87.618C112.259 87.678 113.338 88.018 113.99 88.09C118.244 88.531 115.519 84.003 112.356 84.705C115.024 84.2406 117.529 83.1049 119.637 81.405C119.818 79.414 120.305 82.241 113.893 73.117Z"></path><path id="vector_66" fill="#6596e1" d="M144.058 63.486C141.937 60.66 137.991 59.565 134.338 60.04C134.319 60.0456 134.3 60.0526 134.282 60.061C134.482 60.079 134.682 60.238 134.594 60.461C134.061 61.828 133.364 64.83 131.394 65.167C131.382 65.168 131.37 65.168 131.358 65.167C131.341 65.1721 131.324 65.1761 131.307 65.179C129.865 65.074 129.848 63.452 130.555 62.056C130.769 61.5924 131.051 61.1636 131.392 60.784C128.565 62.0345 125.821 63.4661 123.178 65.07C125.887 68.0204 128.149 71.3526 129.89 74.96C130.59 73.688 131.278 72.413 131.978 71.144C132.012 71.0792 132.068 71.0285 132.135 71.0009C132.203 70.9733 132.278 70.9705 132.348 70.993C135.889 71.837 139.427 72.693 142.948 73.619C143.01 73.6366 143.065 73.6742 143.103 73.726L146.032 66.874C145.486 65.6831 144.825 64.5484 144.058 63.486Z"></path><path id="vector_67" fill="#6596e1" d="M119.726 80.457C119.533 82.257 119.22 86.846 119.196 87.129C119.197 87.215 119.231 87.2974 119.291 87.3588C119.351 87.4203 119.433 87.4562 119.519 87.459H137.231C140.657 79.459 139.471 82.22 139.731 81.623C135.163 87.234 127.09 87.976 119.726 80.457Z"></path><path id="vector_68" fill="#ffffff" d="M134.282 60.061C133.292 60.1886 132.321 60.4323 131.388 60.787C131.049 61.1685 130.767 61.5969 130.551 62.059C129.851 63.441 129.851 65.076 131.303 65.182C131.32 65.1792 131.337 65.1752 131.354 65.17C131.366 65.1711 131.378 65.1711 131.39 65.17C133.32 64.84 134.008 61.97 134.59 60.464C134.682 60.238 134.478 60.079 134.282 60.061Z"></path><path id="vector_69" fill="#ffaaaa" d="M142.945 73.622C140.789 73.058 132.726 71.047 132.305 70.995C132.241 70.9787 132.173 70.9849 132.113 71.0125C132.052 71.0402 132.003 71.0877 131.974 71.147C131.274 72.416 130.582 73.691 129.886 74.963C128.275 71.6286 126.223 68.5256 123.786 65.737C122.017 63.724 121.296 63.368 120.531 62.049C120.152 61.394 119.894 60.56 119.056 60.365C118.733 60.284 118.391 60.3303 118.101 60.4943C117.811 60.6582 117.594 60.9273 117.497 61.246C117.344 62.1706 117.372 63.116 117.579 64.03C114.405 64.014 112.158 63.418 111.531 64.651C111.404 64.9941 111.407 65.3719 111.541 65.7126C111.674 66.0533 111.928 66.3332 112.254 66.499C112.525 66.6665 112.819 66.7916 113.128 66.87C112.34 66.8698 111.565 67.0697 110.875 67.451C110.75 67.5193 110.64 67.6118 110.551 67.7232C110.462 67.8346 110.397 67.9626 110.358 68.0997C110.319 68.2368 110.308 68.3803 110.326 68.5217C110.343 68.663 110.389 68.7995 110.46 68.923C110.836 69.381 111.352 69.7031 111.929 69.84C111.829 69.852 111.739 69.861 111.645 69.876C111.059 69.967 110.358 70.249 110.286 70.923C110.207 71.677 110.968 72.111 111.554 72.374C112.305 72.7098 113.091 72.959 113.898 73.117C115.788 75.9573 117.94 78.6139 120.327 81.052C126.313 86.799 134.415 88.161 139.727 81.623L143.101 73.729C143.062 73.6771 143.007 73.6394 142.945 73.622Z"></path><path id="vector_70" fill="#000000" d="M130.151 55.109C130.04 54.7496 129.824 54.4316 129.531 54.1962C129.238 53.9608 128.881 53.8187 128.506 53.7884C128.131 53.758 127.756 53.8407 127.429 54.0259C127.101 54.211 126.837 54.4901 126.67 54.827C126.494 55.1779 126.439 55.5775 126.514 55.963C126.589 56.3486 126.79 56.6982 127.086 56.957C127.392 57.1939 127.763 57.3328 128.149 57.3553C128.536 57.3777 128.92 57.2828 129.252 57.0829C129.583 56.883 129.846 56.5875 130.007 56.2352C130.167 55.8829 130.218 55.4903 130.151 55.109V55.109Z"></path><path id="vector_71" fill="#000000" d="M136.615 56.565C136.82 56.6753 137.052 56.7268 137.284 56.7138C137.517 56.7007 137.741 56.6235 137.933 56.4909C138.124 56.3582 138.275 56.1751 138.369 55.962C138.463 55.7488 138.496 55.5138 138.465 55.283C138.411 55.0106 138.252 54.7704 138.022 54.614C137.793 54.4575 137.511 54.3972 137.238 54.446C136.989 54.4459 136.747 54.5264 136.548 54.6753C136.349 54.8243 136.204 55.0337 136.133 55.2723C136.063 55.5109 136.072 55.7657 136.159 55.9988C136.246 56.2318 136.406 56.4304 136.615 56.565V56.565Z"></path><path id="vector_72" fill="#ffffff" d="M135.553 54.9799C135.433 55.3308 135.425 55.7104 135.53 56.0661C135.635 56.4217 135.848 56.7359 136.14 56.9652C136.431 57.1944 136.787 57.3274 137.157 57.3457C137.528 57.364 137.895 57.2667 138.208 57.0673C138.52 56.8679 138.763 56.5763 138.903 56.2327C139.043 55.8891 139.072 55.5107 138.987 55.1496C138.902 54.7886 138.707 54.4628 138.429 54.2174C138.151 53.972 137.804 53.8192 137.435 53.7799C137.038 53.7722 136.648 53.882 136.313 54.0955C135.978 54.309 135.714 54.6167 135.553 54.9799V54.9799ZM136.13 55.2799C136.454 54.2909 138.167 54.0259 138.465 55.2799C138.496 55.5107 138.463 55.7457 138.369 55.9589C138.275 56.1721 138.124 56.3551 137.933 56.4878C137.741 56.6205 137.517 56.6976 137.284 56.7107C137.052 56.7238 136.82 56.6723 136.615 56.5619C136.399 56.4365 136.233 56.2406 136.145 56.0071C136.056 55.7736 136.051 55.5168 136.13 55.2799V55.2799Z"></path><path id="vector_73" fill="#000000" d="M125.511 56.075C125.93 56.053 125.932 55.399 125.511 55.421C125.183 55.4188 124.863 55.3149 124.597 55.1236C124.33 54.9324 124.129 54.6631 124.022 54.353C123.4 52.886 124.622 51.474 125.932 50.553C132.646 45.839 141.932 50.028 140.009 54.009C139.828 54.386 140.391 54.718 140.574 54.339C140.771 53.9132 140.876 53.4504 140.881 52.9811C140.886 52.5119 140.791 52.0469 140.603 51.617C139.087 47.955 131.149 46.094 125.603 49.988C123.948 51.15 122.626 52.839 123.459 54.681C123.622 55.0921 123.905 55.4447 124.271 55.6933C124.637 55.9418 125.069 56.0748 125.511 56.075Z"></path><path id="vector_74" fill="#ffaaaa" d="M134.008 54.3119C133.922 54.005 133.735 53.7361 133.476 53.549C133.218 53.3618 132.905 53.2672 132.586 53.2807C132.268 53.2941 131.963 53.4147 131.721 53.6229C131.48 53.8312 131.316 54.1148 131.256 54.4279C130.929 55.8139 132.328 57.2119 133.556 56.0979C133.794 55.8743 133.963 55.5873 134.043 55.2709C134.123 54.9545 134.111 54.6217 134.008 54.3119Z"></path><path id="vector_75" fill="#ffaaaa" d="M132.492 84.2H129.677C129.594 84.2046 129.515 84.241 129.458 84.3017C129.4 84.3624 129.368 84.4429 129.368 84.5265C129.368 84.61 129.4 84.6905 129.458 84.7512C129.515 84.8119 129.594 84.8483 129.677 84.853H132.492C132.575 84.8483 132.654 84.8119 132.711 84.7512C132.769 84.6905 132.801 84.61 132.801 84.5265C132.801 84.4429 132.769 84.3624 132.711 84.3017C132.654 84.241 132.575 84.2046 132.492 84.2V84.2Z"></path><path id="vector_76" fill="#ffaaaa" d="M116.1 70.1799C116.018 70.1603 115.931 70.1734 115.858 70.2165C115.785 70.2596 115.732 70.3293 115.709 70.411C115.686 70.4926 115.696 70.5798 115.737 70.6543C115.777 70.7287 115.845 70.7845 115.926 70.8099C116.59 70.8937 117.217 71.1615 117.736 71.5829C118.059 71.8489 118.524 71.3889 118.199 71.1209C117.601 70.6172 116.874 70.2912 116.1 70.1799Z"></path><path id="vector_77" fill="#ffaaaa" d="M119.141 67.5389C118.371 67.2311 117.561 67.0315 116.736 66.9459C116.319 66.8999 116.322 67.5539 116.736 67.5989C117.502 67.6858 118.253 67.8779 118.967 68.1699C119.357 68.3269 119.527 67.6949 119.141 67.5389Z"></path><path id="vector_78" fill="#ffaaaa" d="M106.034 84.772C105.595 85.2693 105.214 85.8156 104.9 86.4C104.7 86.771 105.265 87.1 105.464 86.73C105.75 86.1916 106.098 85.6882 106.501 85.23C106.773 84.919 106.312 84.455 106.034 84.772Z"></path><path id="vector_79" fill="#ffaaaa" d="M108.975 84.9869C108.59 85.5175 108.27 86.0923 108.021 86.6989C107.86 87.0869 108.492 87.2559 108.652 86.8729C108.885 86.3209 109.183 85.7986 109.539 85.3169C109.788 84.9769 109.221 84.6499 108.975 84.9869Z"></path><path id="vector_80" fill="#000000" d="M106.884 55.226C106.797 55.226 106.714 55.2604 106.653 55.3217C106.591 55.3831 106.557 55.4662 106.557 55.553C106.557 55.6397 106.591 55.7229 106.653 55.7842C106.714 55.8455 106.797 55.88 106.884 55.88H118.6C118.687 55.88 118.77 55.8455 118.831 55.7842C118.893 55.7229 118.927 55.6397 118.927 55.553C118.927 55.4662 118.893 55.3831 118.831 55.3217C118.77 55.2604 118.687 55.226 118.6 55.226H106.884Z"></path><path id="vector_81" fill="#000000" d="M112.407 49.3C112.032 49.112 111.7 49.676 112.077 49.865L118.487 53.078C118.862 53.266 119.193 52.702 118.817 52.513L112.407 49.3Z"></path><path id="vector_82" fill="#000000" d="M112.407 61.466L118.817 58.719C119.202 58.554 118.87 57.99 118.487 58.154L112.077 60.902C111.691 61.067 112.024 61.63 112.407 61.466Z"></path></g></g><g id="line"><g id="group_2"><path id="vector_83" fill="#000000" d="M99.879 86.8001C99.805 86.801 99.7329 86.8234 99.6715 86.8646C99.61 86.9058 99.5619 86.964 99.533 87.0321L92.461 103.578C92.6838 103.595 92.905 103.629 93.123 103.678L100.056 87.4551H102.362C102.462 87.2551 102.552 87.0771 102.715 86.7831C102.193 86.7811 100.448 86.7931 99.879 86.8001Z"></path><path id="vector_84" fill="#000000" d="M112.049 101.161C110.98 101.572 102.938 104.661 102.549 104.808C102.496 104.828 102.448 104.861 102.409 104.903C102.371 104.946 102.344 104.996 102.329 105.052C102.314 105.107 102.313 105.165 102.326 105.22C102.338 105.276 102.363 105.328 102.4 105.372C103.09 106.196 108.244 112.495 108.5 112.802C108.541 112.842 108.591 112.87 108.646 112.885C108.701 112.899 108.759 112.899 108.814 112.885C108.869 112.87 108.92 112.842 108.96 112.802C109.001 112.762 109.031 112.713 109.047 112.658L112.457 101.564C112.472 101.508 112.473 101.448 112.457 101.392C112.442 101.336 112.412 101.284 112.371 101.243C112.329 101.202 112.278 101.173 112.221 101.159C112.164 101.144 112.105 101.145 112.049 101.161ZM108.592 111.9L103.157 105.276L111.627 102.026L108.592 111.9Z"></path><path id="vector_85" fill="#000000" d="M114.057 105.246C113.969 104.834 113.339 105.009 113.426 105.42C113.58 106.166 113.563 106.937 113.375 107.675C113.187 108.413 112.834 109.099 112.342 109.68C112.069 109.998 112.53 110.462 112.804 110.142C113.374 109.476 113.784 108.689 114.001 107.84C114.218 106.991 114.237 106.104 114.057 105.246Z"></path><path id="vector_86" fill="#000000" d="M116.053 104.042C116.358 105.495 116.326 106.999 115.959 108.438C115.593 109.876 114.901 111.212 113.938 112.342C113.664 112.659 114.125 113.123 114.4 112.804C115.441 111.59 116.189 110.153 116.585 108.604C116.981 107.054 117.015 105.435 116.684 103.87C116.6 103.457 115.964 103.631 116.053 104.042Z"></path><path id="vector_87" fill="#000000" d="M141.534 147.415C141.681 147.215 141.634 148.252 141.634 134.926C141.633 134.84 141.598 134.757 141.537 134.696C141.476 134.635 141.393 134.6 141.307 134.599H104.526C104.44 134.6 104.357 134.635 104.296 134.696C104.235 134.757 104.2 134.84 104.199 134.926V147.185C104.2 147.271 104.235 147.354 104.296 147.415C104.357 147.476 104.44 147.511 104.526 147.512C144.144 147.512 141.331 147.567 141.534 147.415ZM104.853 135.253C105.966 135.253 140.59 135.283 140.977 135.268V146.858C139.864 146.858 105.24 146.828 104.853 146.843V135.253Z"></path><path id="vector_88" fill="#000000" d="M156.354 149.446H90.306C90.2193 149.446 90.1361 149.48 90.0748 149.542C90.0135 149.603 89.979 149.686 89.979 149.773C89.979 149.86 90.0135 149.943 90.0748 150.004C90.1361 150.066 90.2193 150.1 90.306 150.1H156.354C156.397 150.1 156.439 150.092 156.479 150.075C156.519 150.059 156.555 150.035 156.585 150.004C156.616 149.974 156.64 149.938 156.656 149.898C156.673 149.859 156.681 149.816 156.681 149.773C156.681 149.73 156.673 149.688 156.656 149.648C156.64 149.608 156.616 149.572 156.585 149.542C156.555 149.511 156.519 149.487 156.479 149.471C156.439 149.454 156.397 149.446 156.354 149.446V149.446Z"></path><path id="vector_89" fill="#000000" d="M187.952 139.21C186.109 140.222 183.552 141.005 181.78 139.421C181.402 139.137 181.092 138.773 180.872 138.355C180.652 137.937 180.527 137.476 180.506 137.004C180.485 136.532 180.569 136.061 180.752 135.625C180.935 135.19 181.212 134.8 181.563 134.484C183.301 132.955 185.775 133.417 187.869 132.942C189.716 132.523 191.514 131.064 191.492 129.025C191.419 128.155 191.065 127.333 190.482 126.683C189.9 126.033 189.121 125.592 188.264 125.425C186.098 124.896 183.995 126.113 182.008 126.79C180.398 127.339 178.318 127.581 176.948 126.329C175.538 125.042 175.806 122.823 176.927 121.438C178.327 119.707 180.732 119.828 182.681 119.21C184.393 118.667 186.122 117.21 186.113 115.278C186.058 114.437 185.71 113.641 185.13 113.028C184.551 112.416 183.775 112.025 182.938 111.924C179.776 111.324 176.828 114.333 174.044 112.774C172.266 111.774 171.976 109.918 173.162 108.721C174.14 107.733 176.009 107.286 177.312 106.252C179.778 104.292 180.439 99.496 176.612 95.168C176.333 94.852 175.872 95.316 176.15 95.63C179.004 98.858 179.164 102.213 177.991 104.404C176.591 107.014 173.559 106.685 172.234 108.849C172.019 109.225 171.884 109.641 171.836 110.071C171.788 110.502 171.829 110.937 171.956 111.351C172.083 111.765 172.294 112.149 172.575 112.478C172.856 112.807 173.202 113.076 173.591 113.266C176.669 115.133 179.679 112.174 182.515 112.515C185.633 112.89 186.553 116.029 183.915 117.876C182.167 119.101 179.893 118.869 178.009 119.776C174.34 121.544 174.282 127.121 178.709 127.815C182.134 128.352 184.98 125.561 187.743 125.985C190.829 126.46 192.062 129.833 189.283 131.655C187.359 132.917 184.908 132.286 182.818 133.034C179.418 134.251 178.993 137.651 181.201 139.78C182.85 141.37 185.123 141.201 187.226 140.293C189.062 139.5 191.49 137.429 193.232 138.769C195.083 140.192 194.72 144.074 191.358 145.278C189.291 146.018 186.905 145.348 185.165 147.257C184.836 147.598 184.588 148.009 184.439 148.459C184.291 148.909 184.245 149.387 184.306 149.857C184.365 150.272 184.995 150.095 184.937 149.683C184.904 149.196 185.003 148.71 185.224 148.275C185.445 147.84 185.779 147.473 186.191 147.212C187.916 145.984 190.334 146.712 192.483 145.466C195.549 143.69 195.603 139.966 193.783 138.378C191.963 136.79 189.669 138.267 187.952 139.21Z"></path><path id="vector_90" fill="#000000" d="M125.514 56.0781C125.933 56.0561 125.936 55.4021 125.514 55.4241C125.186 55.4215 124.867 55.3174 124.601 55.1262C124.334 54.935 124.133 54.666 124.026 54.3561C123.403 52.8881 124.626 51.4751 125.935 50.5561C132.65 45.8421 141.935 50.0311 140.013 54.0131C139.831 54.3901 140.395 54.7221 140.577 54.3431C140.774 53.9172 140.879 53.4544 140.884 52.9852C140.889 52.516 140.794 52.051 140.606 51.6211C139.092 47.9611 131.158 46.0931 125.606 49.9921C123.946 51.1571 122.631 52.8461 123.462 54.6851C123.626 55.0957 123.909 55.4479 124.274 55.6962C124.64 55.9445 125.072 56.0775 125.514 56.0781V56.0781Z"></path><path id="vector_91" fill="#000000" d="M131.259 54.43C131.194 54.7237 131.201 55.0287 131.28 55.3191C131.358 55.6095 131.505 55.8767 131.709 56.098C132.732 57.189 134.518 55.881 134.009 54.315C133.921 54.0097 133.734 53.7428 133.476 53.557C133.219 53.3713 132.906 53.2775 132.589 53.2908C132.271 53.3041 131.968 53.4236 131.727 53.6302C131.486 53.8368 131.321 54.1185 131.259 54.43V54.43ZM133.094 55.639C132.251 56.406 131.475 54.852 132.103 54.206C132.174 54.1167 132.266 54.0455 132.37 53.9983C132.474 53.9512 132.588 53.9294 132.702 53.9348C132.816 53.9402 132.927 53.9725 133.027 54.0292C133.126 54.0859 133.21 54.1654 133.273 54.261C133.41 54.4751 133.467 54.7306 133.434 54.9826C133.402 55.2346 133.281 55.467 133.094 55.639V55.639Z"></path><path id="vector_92" fill="#000000" d="M132.5 84.2H129.685C129.598 84.2 129.515 84.2344 129.454 84.2957C129.392 84.3571 129.358 84.4402 129.358 84.527C129.358 84.6137 129.392 84.6969 129.454 84.7582C129.515 84.8195 129.598 84.854 129.685 84.854H132.5C132.587 84.854 132.67 84.8195 132.731 84.7582C132.793 84.6969 132.827 84.6137 132.827 84.527C132.827 84.4402 132.793 84.3571 132.731 84.2957C132.67 84.2344 132.587 84.2 132.5 84.2V84.2Z"></path><path id="vector_93" fill="#000000" d="M116.1 70.1821C116.016 70.159 115.927 70.1701 115.851 70.213C115.776 70.2558 115.721 70.3269 115.698 70.4106C115.674 70.4942 115.686 70.5837 115.728 70.6591C115.771 70.7346 115.842 70.79 115.926 70.8131C116.59 70.897 117.217 71.1647 117.737 71.5861C118.059 71.8521 118.524 71.3921 118.199 71.1241C117.601 70.6198 116.874 70.2934 116.1 70.1821V70.1821Z"></path><path id="vector_94" fill="#000000" d="M119.144 67.542C118.375 67.2343 117.568 67.0344 116.744 66.948C116.326 66.903 116.329 67.557 116.744 67.602C117.51 67.6891 118.26 67.8809 118.974 68.172C119.36 68.33 119.53 67.7 119.144 67.542Z"></path><path id="vector_95" fill="#000000" d="M106.037 84.7741C105.596 85.2723 105.213 85.8199 104.898 86.4061C104.698 86.7771 105.264 87.1061 105.463 86.7361C105.749 86.1975 106.096 85.6941 106.499 85.2361C106.777 84.9221 106.316 84.4581 106.037 84.7741Z"></path><path id="vector_96" fill="#000000" d="M106.887 55.229C106.8 55.229 106.717 55.2635 106.656 55.3248C106.594 55.3861 106.56 55.4693 106.56 55.556C106.56 55.6427 106.594 55.7259 106.656 55.7872C106.717 55.8486 106.8 55.883 106.887 55.883H118.6C118.687 55.883 118.77 55.8486 118.831 55.7872C118.893 55.7259 118.927 55.6427 118.927 55.556C118.927 55.4693 118.893 55.3861 118.831 55.3248C118.77 55.2635 118.687 55.229 118.6 55.229H106.887Z"></path><path id="vector_97" fill="#000000" d="M112.41 49.3C112.035 49.112 111.704 49.676 112.08 49.865L118.49 53.077C118.865 53.265 119.197 52.701 118.82 52.513L112.41 49.3Z"></path><path id="vector_98" fill="#000000" d="M112.41 61.4691L118.82 58.7211C119.206 58.5561 118.873 57.9931 118.49 58.1571L112.08 60.9001C111.7 61.0701 112.027 61.6331 112.41 61.4691Z"></path><path id="vector_99" fill="#000000" d="M108.993 84.9871C108.608 85.5177 108.288 86.0924 108.039 86.6991C107.878 87.0871 108.51 87.2561 108.67 86.8731C108.903 86.3211 109.201 85.7987 109.557 85.3171C109.806 84.9771 109.239 84.6501 108.993 84.9871Z"></path><path id="vector_100" fill="#000000" d="M70.071 45.7531C69.6775 45.7782 69.3048 45.9389 69.0164 46.2078C68.728 46.4767 68.5416 46.8373 68.489 47.2281C68.4698 47.5798 68.5369 47.931 68.6845 48.2508C68.8322 48.5707 69.0558 48.8495 69.336 49.0631C69.6445 49.3314 70.0388 49.4804 70.4476 49.4832C70.8564 49.4861 71.2527 49.3425 71.5649 49.0786C71.8771 48.8146 72.0845 48.4476 72.1496 48.044C72.2147 47.6404 72.1333 47.2268 71.92 46.8781C71.7482 46.5361 71.4837 46.2494 71.1568 46.0505C70.8299 45.8515 70.4537 45.7485 70.071 45.7531ZM71.132 48.5861C70.354 49.2981 69.242 48.4091 69.139 47.5241C69.1155 47.2756 69.184 47.0271 69.3314 46.8256C69.4788 46.6242 69.695 46.4838 69.939 46.4311C70.961 46.1741 72.1 47.7001 71.132 48.5861Z"></path><path id="vector_101" fill="#000000" d="M105.717 73.111C103.842 68.125 101.632 63.018 98.18 58.931C93.425 53.3 87.258 51 79.5 52.929C73.647 54.386 71.374 58.044 69.036 61.155C69.4343 60.279 69.5851 59.3107 69.472 58.355C69.072 54.662 65.812 52.055 65.386 49.996C65.117 48.696 66.1 48.509 66.63 47.916C66.8406 47.6379 66.9641 47.3036 66.9849 46.9553C67.0057 46.6071 66.9229 46.2605 66.7469 45.9593C66.5709 45.658 66.3097 45.4157 65.9961 45.2627C65.6825 45.1098 65.3307 45.0532 64.985 45.1C66.547 43.168 64.799 40.562 61.785 42.589C60.5097 43.414 59.4552 44.5379 58.713 45.863C57.6278 48.427 57.5291 51.3017 58.436 53.934C54.95 56.8851 51.9764 60.3928 49.636 64.315C48.3939 66.2661 47.5649 68.4511 47.2 70.735C46.7793 73.5768 47.3708 76.4761 48.871 78.926C53.54 86.384 63.329 84.515 71.005 80.226C71.498 82.146 72.205 84.482 73.213 87.214C73.2336 87.2822 73.275 87.3421 73.3316 87.3854C73.3881 87.4286 73.4568 87.453 73.528 87.455C101.528 87.455 100.028 87.536 100.128 87.293C106.342 72.793 105.876 73.893 105.898 73.793C105.952 73.539 105.829 73.407 105.717 73.111ZM59.922 83.26C56.199 83.597 52.816 82.747 50.378 79.895C47.41 76.422 46.683 71.232 49.464 65.96C51.885 61.5204 55.1165 57.5736 58.991 54.324C59.0629 54.2775 59.1148 54.2057 59.1365 54.1227C59.1582 54.0398 59.148 53.9518 59.108 53.876C58.3636 51.7162 58.28 49.3835 58.868 47.176C59.5698 45.3402 60.899 43.8122 62.62 42.863C64.372 41.976 65.26 42.981 64.799 44.172C64.4419 44.8367 63.8983 45.3824 63.235 45.742C62.895 45.98 63.217 46.55 63.565 46.307C65.371 45.046 66.52 46.214 66.37 47.055C66.246 47.755 65.181 47.906 64.805 48.914C63.915 51.299 68.076 54.095 68.764 57.988C68.9586 58.9433 68.8581 59.9351 68.476 60.832C67.717 62.459 64.728 67.132 63.086 69.543C62.848 69.892 63.416 70.218 63.651 69.873C66.045 66.352 69.111 62 71.776 58.7L79.476 73.193C74.116 78.016 67.1 82.611 59.922 83.26ZM99.63 86.8C99.63 86.8 74.03 86.773 73.749 86.786C72.9067 84.5194 72.1823 82.2106 71.579 79.869C74.6309 78.0379 77.4907 75.9042 80.115 73.5C80.1659 73.448 80.1985 73.3808 80.2077 73.3086C80.2169 73.2364 80.2022 73.1631 80.166 73.1L72.183 58.068C74.1739 55.8514 76.7824 54.281 79.673 53.559C90.773 50.794 97.778 57.04 102.625 67.346C103.625 69.471 104.425 71.535 105.237 73.685L99.63 86.8Z"></path><path id="vector_102" fill="#000000" d="M73.538 43.823C73.5818 43.898 73.6535 43.9524 73.7374 43.9745C73.8213 43.9965 73.9106 43.9843 73.9855 43.9405C74.0604 43.8968 74.1149 43.825 74.1369 43.7411C74.159 43.6572 74.1468 43.5679 74.103 43.493C73.6878 42.8609 73.081 42.3784 72.3716 42.1164C71.6621 41.8543 70.8874 41.8265 70.161 42.037C69.3989 42.2927 68.7185 42.7467 68.1899 43.3523C67.6612 43.9579 67.3034 44.6933 67.153 45.483C67.064 45.893 67.695 46.069 67.783 45.657C67.9027 44.9893 68.1945 44.3643 68.6296 43.8437C69.0647 43.3232 69.628 42.9252 70.264 42.689C70.8588 42.4965 71.5002 42.503 72.0909 42.7077C72.6817 42.9123 73.1897 43.3038 73.538 43.823V43.823Z"></path><path id="vector_103" fill="#000000" d="M61.132 47.231C60.7496 47.8918 60.5014 48.6216 60.4017 49.3786C60.302 50.1355 60.3528 50.9047 60.551 51.642C60.5764 51.7228 60.6322 51.7906 60.7067 51.831C60.7811 51.8715 60.8683 51.8815 60.95 51.859C61.0316 51.8364 61.1013 51.7831 61.1444 51.7101C61.1875 51.6372 61.2006 51.5504 61.181 51.468C61.0047 50.815 60.9594 50.1336 61.0478 49.463C61.1362 48.7924 61.3565 48.146 61.696 47.561C61.7356 47.4865 61.7448 47.3995 61.7218 47.3183C61.6988 47.2371 61.6452 47.168 61.5724 47.1253C61.4995 47.0827 61.413 47.0699 61.3309 47.0896C61.2489 47.1093 61.1776 47.1599 61.132 47.231V47.231Z"></path><path id="vector_104" fill="#000000" d="M50.907 78.0271C50.8456 77.9658 50.7624 77.9314 50.6757 77.9315C50.5889 77.9316 50.5058 77.9662 50.4445 78.0275C50.3832 78.0889 50.3489 78.1722 50.349 78.2589C50.3491 78.3456 50.3836 78.4288 50.445 78.4901L52.715 80.7601C52.7776 80.8154 52.8589 80.8448 52.9424 80.8423C53.0259 80.8397 53.1052 80.8054 53.1643 80.7464C53.2234 80.6873 53.2577 80.6079 53.2602 80.5244C53.2628 80.4409 53.2334 80.3596 53.178 80.2971L50.907 78.0271Z"></path><path id="vector_105" fill="#000000" d="M81.189 72.357C82.7097 70.719 84.2133 69.0666 85.7 67.4C85.979 67.087 85.519 66.623 85.238 66.938C83.75 68.6046 82.245 70.256 80.723 71.892C80.44 72.2 80.9 72.665 81.189 72.357Z"></path><path id="vector_106" fill="#000000" d="M74.675 48.6451C75.0103 48.5793 75.316 48.4084 75.5477 48.1573C75.7795 47.9061 75.9252 47.5877 75.9639 47.2482C76.0026 46.9086 75.9321 46.5656 75.7628 46.2688C75.5934 45.972 75.334 45.7368 75.022 45.5973C74.71 45.4578 74.3618 45.4213 74.0276 45.493C73.6935 45.5647 73.3909 45.7409 73.1636 45.9961C72.9364 46.2513 72.7963 46.5722 72.7636 46.9124C72.7309 47.2525 72.8074 47.5943 72.982 47.8881C73.152 48.1731 73.4058 48.3987 73.7088 48.5342C74.0118 48.6697 74.3492 48.7084 74.675 48.6451V48.6451ZM74.366 46.1091C74.5553 46.1091 74.7403 46.1652 74.8977 46.2703C75.055 46.3755 75.1777 46.525 75.2501 46.6998C75.3226 46.8747 75.3415 47.0671 75.3046 47.2528C75.2677 47.4384 75.1765 47.6089 75.0427 47.7428C74.9089 47.8766 74.7383 47.9677 74.5527 48.0047C74.3671 48.0416 74.1746 48.0226 73.9998 47.9502C73.8249 47.8778 73.6754 47.7551 73.5703 47.5977C73.4651 47.4404 73.409 47.2553 73.409 47.0661C73.4116 46.8131 73.5133 46.5711 73.6922 46.3922C73.8711 46.2133 74.113 46.1117 74.366 46.1091V46.1091Z"></path><path id="vector_107" fill="#000000" d="M194.428 42.788C102.828 42.788 84.828 42.719 81.388 42.801C80.247 42.828 80.364 43.257 80.337 43.32L75.537 54.536C75.8363 54.3647 76.1403 54.204 76.449 54.054C76.449 54.054 80.794 44 80.987 43.443C82.172 43.443 117.805 43.467 118.153 43.465C104.635 75.094 105.553 72.676 105.717 73.111C105.83 73.411 105.952 73.538 105.895 73.797L118.868 43.445H156.036L137.517 86.8H116.467C116.51 87.0171 116.503 87.241 116.447 87.455H137.237L118.254 131.869H94.954C94.922 132.089 94.875 132.305 94.838 132.523H130.984C130.913 132.522 130.843 132.499 130.787 132.455C130.73 132.412 130.689 132.352 130.669 132.283C130.637 132.146 130.612 132.008 130.587 131.869C128.101 131.869 119.321 131.844 118.972 131.847C119.072 131.619 137.055 89.677 137.962 87.455H154.551C154.568 87.237 154.584 87.018 154.601 86.8H138.68L165.934 65.643L168.511 71.55C168.725 71.4935 168.943 71.4508 169.163 71.422L166.463 65.232L193.645 44.132L175.6 86.281L172.5 79.126C172.316 79.244 172.128 79.355 171.936 79.459L175.125 86.81H169.125C169.088 87.028 169.052 87.241 169.016 87.459H175.136L166.469 107.709C166.297 109.644 166.369 109.34 166.324 109.699L194.686 43.319C194.724 43.2705 194.747 43.2124 194.754 43.1513C194.76 43.0902 194.749 43.0285 194.722 42.9732C194.695 42.918 194.654 42.8713 194.602 42.8386C194.55 42.8058 194.489 42.7883 194.428 42.788V42.788ZM138.477 86.14L156.577 44.021L165.684 65.021L138.477 86.14ZM166.21 64.61L157.039 43.452H193.46L166.21 64.61Z"></path><path id="vector_108" fill="#000000" d="M145.671 63.879C146.02 64.2642 146.471 64.5435 146.971 64.6849L147.226 64.085C146.908 63.9867 146.609 63.8345 146.342 63.635C145.413 62.859 146.667 61.735 146.611 60.574C146.594 60.305 146.523 60.0423 146.402 59.8013C146.281 59.5604 146.113 59.3463 145.908 59.1717C145.703 58.9971 145.464 58.8657 145.207 58.7851C144.95 58.7046 144.679 58.6766 144.411 58.703C143.803 58.781 143.28 59.165 142.676 59.24C142.253 59.293 141.666 59.127 141.776 58.599C142 58.0876 142.078 57.5239 142 56.971C141.961 56.7208 141.874 56.4807 141.742 56.2645C141.611 56.0482 141.438 55.86 141.233 55.7107C141.029 55.5613 140.797 55.4537 140.551 55.3941C140.305 55.3344 140.05 55.3238 139.8 55.363C139.608 55.387 139.351 55.436 139.144 55.485C139.127 55.1314 139.007 54.7905 138.799 54.5043C138.59 54.2182 138.303 53.9992 137.972 53.8744C137.64 53.7496 137.28 53.7244 136.935 53.802C136.589 53.8796 136.274 54.0565 136.028 54.311C135.939 53.911 135.869 53.461 135.779 53.132C134.842 49.704 130.045 48.998 129.279 53.983C128.818 53.7681 128.292 53.7359 127.808 53.8929C127.324 54.0498 126.917 54.3843 126.67 54.829C126.494 55.1802 126.439 55.58 126.515 55.9657C126.59 56.3513 126.791 56.701 127.087 56.96C127.402 57.1904 127.777 57.3241 128.166 57.3447C128.556 57.3653 128.943 57.2719 129.28 57.076C129.444 58.5088 129.797 59.9135 130.332 61.253C127.879 62.39 125.492 63.6667 123.185 65.077C122.724 64.5783 122.257 64.1006 121.785 63.644C120.001 61.919 120.259 60.649 119.049 60.368C118.726 60.287 118.384 60.3331 118.094 60.4968C117.804 60.6606 117.588 60.9295 117.49 61.248C117.338 62.1726 117.366 63.118 117.573 64.0319C114.598 64.0179 112.158 63.408 111.524 64.654C111.397 64.9971 111.401 65.3747 111.534 65.7153C111.668 66.0559 111.921 66.3358 112.247 66.502C112.518 66.669 112.813 66.7941 113.121 66.873C112.333 66.8724 111.558 67.0724 110.868 67.454C110.743 67.5221 110.633 67.6146 110.544 67.7259C110.455 67.8373 110.39 67.9652 110.351 68.1023C110.313 68.2393 110.302 68.3827 110.32 68.524C110.337 68.6653 110.383 68.8016 110.454 68.925C110.829 69.3838 111.345 69.7064 111.922 69.843C111.828 69.855 111.733 69.864 111.638 69.879C111.052 69.969 110.351 70.252 110.28 70.926C110.2 71.679 110.962 72.114 111.547 72.376C112.048 72.599 112.565 72.7839 113.094 72.929C111.316 74.6792 109.641 76.5317 108.078 78.4769C105.957 81.1258 103.997 83.9002 102.21 86.785C101.623 87.7523 101.199 88.8093 100.954 89.914C100.754 91.629 102.028 92.192 103.027 91.542C103.367 91.2995 103.652 90.9877 103.863 90.627C103.757 90.8958 103.746 91.1926 103.83 91.4689C103.915 91.7451 104.091 91.9845 104.329 92.148C104.611 92.3295 104.945 92.4144 105.28 92.3901C105.615 92.3658 105.933 92.2334 106.186 92.013C106.67 91.6115 107.06 91.1086 107.329 90.54C107.184 91.156 107.075 91.914 107.673 92.324C107.925 92.4596 108.207 92.5316 108.493 92.5337C108.779 92.5358 109.062 92.4679 109.316 92.336C110.599 91.784 111.579 89.369 111.859 87.984C112.759 88.125 114.872 88.894 115.992 88.101C117.112 87.308 116.261 85.273 114.358 84.556C116.258 83.9746 118.04 83.0605 119.621 81.856L119.221 86.802H119.873C120.032 84.902 120.139 82.952 120.322 81.053C124.658 85.216 129.261 86.427 132.913 85.818C138.125 84.948 140.318 80.5419 141.072 79.6179L143.54 73.776C141.124 73.17 140.94 73.069 132.34 71C132.271 70.9776 132.196 70.9804 132.128 71.0078C132.061 71.0353 132.005 71.0856 131.971 71.15C131.271 72.42 130.578 73.695 129.882 74.967C128.236 71.5658 126.133 68.4058 123.63 65.5749C125.913 64.1877 128.271 62.9297 130.695 61.807C128.825 65.056 131.724 66.746 133.541 63.207C133.918 62.3719 134.246 61.5158 134.524 60.643C136.019 60.4441 137.539 60.5647 138.983 60.9969C140.428 61.4291 141.764 62.1629 142.904 63.15C144.054 64.5119 144.991 66.0403 145.683 67.683L146.025 66.883C145.355 65.3575 144.459 63.9416 143.367 62.683C140.147 59.583 134.954 59.227 130.917 60.983C130.357 59.5559 130.008 58.0548 129.881 56.527C130.091 56.2268 130.201 55.8686 130.197 55.5024C130.193 55.1363 130.075 54.7805 129.859 54.485C130.059 52.885 130.873 50.821 132.738 51.05C133.24 51.1392 133.71 51.3539 134.106 51.674C134.503 51.9942 134.811 52.4094 135.004 52.881C135.282 53.531 135.337 54.305 135.549 54.981C135.415 55.3178 135.389 55.6876 135.474 56.0399C135.559 56.3922 135.75 56.7096 136.023 56.9488C136.295 57.1879 136.634 57.337 136.995 57.3757C137.355 57.4144 137.718 57.3408 138.035 57.165C138.254 57.0736 138.453 56.9397 138.621 56.7709C138.788 56.6022 138.92 56.402 139.01 56.182C139.702 55.976 140.54 55.817 141.031 56.382C141.173 56.5568 141.276 56.7593 141.335 56.9765C141.393 57.1936 141.406 57.4207 141.371 57.643C141.295 58.183 140.925 58.657 141.193 59.209C141.308 59.4084 141.472 59.5755 141.669 59.6948C141.866 59.814 142.09 59.8815 142.32 59.891C143.495 60.016 144.377 58.84 145.393 59.601C147.02 60.814 144.48 62.36 145.671 63.879ZM119.7 80.966C117.55 82.7105 114.996 83.8871 112.273 84.388C111.857 84.468 112.039 85.097 112.447 85.019C114.86 84.555 116.525 87.028 115.57 87.6C114.615 88.172 112.746 87.406 111.611 87.29C111.539 87.2898 111.47 87.3132 111.412 87.3565C111.355 87.3999 111.314 87.4608 111.295 87.53C111.154 88.3628 110.89 89.17 110.511 89.925C110.223 90.5691 109.806 91.1476 109.286 91.625C109.118 91.7435 108.925 91.823 108.723 91.8576C108.52 91.8922 108.312 91.8811 108.114 91.825C107.372 91.486 108.49 89.61 108.658 87.835C108.689 87.505 108.198 87.399 108.048 87.67C107.299 89.026 106.22 92.249 104.867 91.706C104.137 91.414 104.525 90.824 105.226 87.778C105.246 87.6955 105.233 87.6087 105.189 87.5358C105.146 87.4629 105.077 87.4095 104.995 87.387C104.913 87.3644 104.826 87.3744 104.752 87.4149C104.677 87.4554 104.621 87.5231 104.596 87.604C104.22 88.7916 103.625 89.8985 102.843 90.868C102.498 91.177 101.891 91.306 101.675 90.787C101.301 89.887 102.175 88.263 102.675 87.304C105.63 82.4597 109.112 77.9567 113.056 73.877C113.294 73.637 113.624 73.346 113.876 73.105C115.634 75.7124 117.597 78.1762 119.745 80.473C119.734 80.549 119.719 80.723 119.7 80.966ZM129.592 75.841C129.621 75.8896 129.663 75.9299 129.712 75.9578C129.761 75.9858 129.817 76.0005 129.874 76.0005C129.931 76.0005 129.987 75.9858 130.036 75.9578C130.085 75.9299 130.127 75.8896 130.156 75.841C130.915 74.458 131.667 73.072 132.427 71.691C135.781 72.491 139.132 73.307 142.468 74.178C141.042 80.354 136.991 85.499 130.776 85.313C124.276 85.119 119.791 80.113 115.968 74.898C113.475 71.498 115.13 73.03 112.45 72.042C112.123 71.921 110.65 71.452 110.972 70.878C111.272 70.332 113.683 70.37 114.305 70.399C114.668 70.416 114.757 69.827 114.392 69.757C113.277 69.6274 112.196 69.2935 111.202 68.772C110.08 67.897 112.942 67.235 115.118 67.583C115.2 67.6026 115.287 67.5895 115.36 67.5464C115.433 67.5033 115.486 67.4336 115.509 67.3519C115.532 67.2703 115.522 67.183 115.481 67.1086C115.441 67.0342 115.373 66.9784 115.292 66.953C113.321 66.143 113.016 66.271 112.517 65.89C112.267 65.699 111.957 65.351 112.084 65.008C112.425 64.091 115.691 64.737 117.967 64.691C118.017 64.6903 118.066 64.6783 118.111 64.6558C118.156 64.6333 118.195 64.6009 118.225 64.5611C118.255 64.5213 118.276 64.4752 118.286 64.4261C118.296 64.377 118.295 64.3264 118.282 64.278C118.135 63.549 117.877 61.707 118.201 61.244C118.292 61.1293 118.417 61.0465 118.558 61.0075C118.699 60.9685 118.849 60.9753 118.986 61.027C119.619 61.271 119.806 62.161 120.154 62.68C121.525 64.726 125.781 67.686 129.591 75.841H129.592ZM130.849 63.041C131.064 62.4412 131.36 61.8739 131.73 61.355C132.399 61.1148 133.086 60.9282 133.785 60.797C133.356 62.023 132.724 64.22 131.278 64.528C130.594 64.516 130.711 63.476 130.848 63.039L130.849 63.041ZM127.675 56.569C127.465 56.4349 127.305 56.2364 127.217 56.0032C127.13 55.7701 127.121 55.5149 127.191 55.276C127.261 55.0372 127.407 54.8275 127.606 54.6785C127.806 54.5296 128.048 54.4494 128.297 54.45C128.571 54.4014 128.852 54.4619 129.082 54.6186C129.311 54.7752 129.47 55.0155 129.525 55.288C129.556 55.5187 129.522 55.7534 129.428 55.9663C129.334 56.1792 129.183 56.3618 128.991 56.4942C128.8 56.6265 128.575 56.7033 128.343 56.7162C128.11 56.729 127.879 56.6774 127.674 56.567L127.675 56.569ZM136.619 56.569C136.409 56.4348 136.249 56.2362 136.161 56.003C136.074 55.7698 136.065 55.5145 136.135 55.2756C136.205 55.0366 136.351 54.827 136.551 54.6781C136.75 54.5292 136.993 54.4492 137.242 54.45C137.516 54.4014 137.797 54.4619 138.027 54.6186C138.256 54.7752 138.415 55.0155 138.47 55.288C138.501 55.5188 138.467 55.7537 138.373 55.9668C138.279 56.1798 138.128 56.3626 137.936 56.4949C137.744 56.6273 137.52 56.7041 137.287 56.7168C137.055 56.7295 136.823 56.6776 136.618 56.567L136.619 56.569Z"></path><path id="vector_109" fill="#000000" d="M148.88 94.8C148.114 93.581 147.248 92.194 146.428 91.049C145.941 90.192 145.272 89.452 144.469 88.881C143.497 88.353 142.623 88.923 143.233 90.248C143.734 91.1515 144.398 91.9544 145.192 92.616C145.805 93.197 146.53 93.928 147.171 94.534C146.548 94.6083 145.963 94.8699 145.493 95.2843C145.022 95.6987 144.688 96.2463 144.536 96.8545C144.384 97.4627 144.42 98.1028 144.639 98.6901C144.859 99.2774 145.252 99.7841 145.766 100.143C146.289 100.47 146.892 100.647 147.509 100.656C148.126 100.665 148.733 100.505 149.266 100.194C149.75 99.9083 150.144 99.4933 150.405 98.9958C150.666 98.4983 150.782 97.9379 150.742 97.3776C150.702 96.8173 150.507 96.2792 150.178 95.8239C149.849 95.3686 149.399 95.014 148.88 94.8V94.8ZM143.835 90C143.771 89.868 143.615 89.576 143.685 89.417C143.734 89.306 143.824 89.334 143.946 89.366C144.359 89.5377 144.715 89.8239 144.971 90.191C145.571 90.891 147.103 93.158 147.638 93.973C146.629 93.039 144.393 91.143 143.835 90ZM149.186 99.449C148.889 99.6789 148.547 99.8432 148.182 99.9308C147.817 100.019 147.438 100.028 147.069 99.9575C146.7 99.8875 146.351 99.7399 146.043 99.5244C145.736 99.309 145.478 99.0307 145.286 98.708C145.123 98.3318 145.053 97.9216 145.083 97.5125C145.112 97.1034 145.241 96.7076 145.457 96.3591C145.673 96.0106 145.971 95.7197 146.324 95.5114C146.678 95.3031 147.076 95.1835 147.486 95.163C147.962 95.1484 148.434 95.2632 148.85 95.4951C149.267 95.7269 149.613 96.0673 149.851 96.48C150.074 96.9801 150.13 97.5389 150.01 98.0733C149.891 98.6077 149.601 99.0892 149.186 99.446V99.449Z"></path><path id="vector_110" fill="#000000" d="M173.646 75.4661C172.448 75.1704 171.191 75.2165 170.018 75.5991C170.809 74.9151 172.131 73.9691 171.849 72.7091C171.603 71.6091 170.302 71.2781 169.163 71.4251C168.548 71.518 167.949 71.6943 167.382 71.9491C165.666 72.6841 165.642 73.2641 165.889 72.5591C166.259 71.5061 166.87 70.3331 166.434 69.3391C166.318 69.0886 166.14 68.8723 165.915 68.7113C165.691 68.5503 165.429 68.4499 165.155 68.4201C163.836 68.2371 162.877 69.2431 162.096 70.1571C160.334 72.2016 158.974 74.5611 158.089 77.1111C156.868 76.0853 155.299 75.5692 153.708 75.6701C153.318 75.701 152.943 75.8327 152.619 76.0524C152.295 76.2721 152.034 76.5721 151.861 76.9231C151.337 78.4121 153.75 79.7891 155.2 80.3951C154.465 87.0741 153.994 94.3531 153.88 103.054C147.694 102.618 139.857 104.561 135.597 109.297C132.132 113.149 130.754 118.397 130.344 123.581C130.055 126.482 130.164 129.409 130.666 132.281C130.686 132.35 130.727 132.41 130.784 132.453C130.84 132.497 130.91 132.52 130.981 132.521H143.99C143.87 133.615 143.599 135.138 144.357 135.933C144.603 136.163 144.913 136.314 145.246 136.365C145.579 136.416 145.919 136.366 146.223 136.22C146.841 135.865 147.306 135.296 147.532 134.62C147.589 135.125 147.809 135.598 148.159 135.967C148.414 136.209 148.745 136.354 149.096 136.376C149.447 136.398 149.794 136.296 150.077 136.087C150.613 135.566 150.978 134.895 151.123 134.162C151.153 134.333 151.174 134.506 151.209 134.676C151.245 134.998 151.357 135.306 151.538 135.575C151.718 135.843 151.961 136.064 152.245 136.219C152.503 136.349 152.793 136.402 153.081 136.372C153.368 136.341 153.64 136.228 153.865 136.046C154.74 135.329 154.93 133.662 155.013 132.538C156.33 132.538 156.551 132.557 156.636 132.359C167.611 106.853 166.236 110.405 166.365 108.904C167.135 99.2173 168.47 89.5839 170.365 80.0531C171.567 79.7315 172.678 79.1355 173.611 78.3121C174.062 77.9441 174.611 77.5121 174.654 76.8821C174.651 76.5712 174.553 76.2686 174.373 76.0154C174.193 75.7621 173.939 75.5704 173.646 75.4661ZM154.246 133.466C154.135 134.266 153.861 135.651 153.02 135.734C152.337 135.801 151.977 135.184 151.857 134.612C151.684 133.788 151.574 132.952 151.526 132.112C151.506 131.766 150.952 131.641 150.884 132.025C150.791 133.204 150.446 134.348 149.872 135.382C149.805 135.479 149.717 135.56 149.616 135.621C149.515 135.681 149.403 135.72 149.286 135.734C149.169 135.748 149.05 135.737 148.938 135.702C148.825 135.667 148.721 135.608 148.633 135.53C147.864 134.865 148.188 133.095 148.048 132.117C148.051 132.073 148.045 132.028 148.031 131.986C148.016 131.945 147.994 131.906 147.964 131.873C147.934 131.84 147.898 131.814 147.857 131.796C147.817 131.777 147.773 131.767 147.729 131.766C147.685 131.766 147.64 131.774 147.599 131.79C147.558 131.807 147.521 131.832 147.49 131.863C147.458 131.895 147.434 131.932 147.418 131.973C147.401 132.015 147.394 132.059 147.395 132.103C147.389 133.154 146.986 134.886 146.149 135.514C145.961 135.664 145.727 135.744 145.487 135.74C145.247 135.737 145.015 135.651 144.831 135.496C144.231 134.881 144.579 133.323 144.673 132.204C144.672 132.118 144.638 132.035 144.577 131.974C144.516 131.913 144.433 131.878 144.347 131.877H136.447C136.419 130.917 136.511 129.957 136.722 129.019C137.064 127.674 137.716 126.428 138.627 125.38C142.081 121.431 148.219 121.727 151.817 124.399C154.662 126.5 154.731 129.978 154.25 133.464L154.246 133.466ZM165.092 111.066C154.692 135.231 156.245 131.528 156.128 131.878H155.06C155.075 131.627 155.088 131.378 155.104 131.128C155.298 128.192 154.498 125.576 152.155 123.835C150.761 122.835 149.151 122.179 147.455 121.922C146.461 117.507 144.719 113.293 142.305 109.465C142.076 109.113 141.505 109.441 141.741 109.795C144.092 113.488 145.79 117.559 146.76 121.828C141.549 121.272 137.645 124.094 136.276 128.237C135.926 129.418 135.766 130.646 135.8 131.877C134.516 131.877 131.463 131.865 131.247 131.871C130.891 129.578 130.779 127.253 130.913 124.936C131.213 118.396 133.007 111.58 138.332 107.727C142.632 104.617 148.952 103.292 154.2 103.735C154.286 103.734 154.369 103.699 154.43 103.638C154.491 103.577 154.525 103.494 154.526 103.408C154.558 100.765 154.625 98.1227 154.726 95.4821H167.126C165.155 111.011 166.205 108.483 165.1 111.06L165.092 111.066ZM173.9 77.1191C173.593 77.523 173.216 77.8673 172.785 78.1351C170.526 79.8041 169.863 79.2121 169.766 79.7011C168.718 84.9831 167.901 89.9411 167.219 94.8221H154.758C154.997 89.4521 155.375 84.6931 155.875 80.1921C155.929 79.7081 154.715 79.8261 153.115 78.4121C152.281 77.6761 152.153 76.9971 153.138 76.5191C154.817 75.7041 156.769 76.9371 158.087 77.9091C158.131 77.9336 158.179 77.948 158.229 77.9509C158.279 77.9539 158.329 77.9454 158.376 77.9261C158.422 77.9068 158.463 77.8773 158.496 77.8396C158.53 77.802 158.554 77.7574 158.567 77.7091C159.494 74.8845 161.011 72.2895 163.018 70.0961C163.364 69.6656 163.816 69.3327 164.33 69.1301C164.549 69.043 164.788 69.0157 165.021 69.0508C165.255 69.0859 165.475 69.1823 165.659 69.3301C166.315 69.9841 165.626 71.3241 165.317 72.2081C165.131 72.8108 164.884 73.3931 164.581 73.9461C164.394 74.2601 164.84 74.6191 165.095 74.3461C166.221 73.1033 167.745 72.2903 169.404 72.0461C171.185 71.9091 172.081 73.0461 170.167 74.6141C169.481 75.2633 168.729 75.8385 167.922 76.3301C167.543 76.5251 167.875 77.0671 168.252 76.8951C169.53 76.3121 172.118 75.5621 173.425 76.0741C173.814 76.2801 174.17 76.6771 173.9 77.1191Z"></path><path id="vector_111" fill="#000000" d="M165.736 79.294C164.632 79.4972 163.583 79.9318 162.659 80.569C161.769 79.3692 160.523 78.4815 159.098 78.033C158.698 77.901 158.526 78.533 158.924 78.664C160.303 79.0892 161.492 79.9794 162.288 81.183C162.332 81.2576 162.404 81.3117 162.487 81.3336C162.571 81.3555 162.66 81.3435 162.735 81.3C163.672 80.6012 164.759 80.1304 165.91 79.925C166.323 79.85 166.148 79.219 165.736 79.294Z"></path><path id="vector_112" fill="#000000" d="M146.788 127.134C147.352 128.035 147.684 129.062 147.756 130.122C147.784 130.54 148.438 130.543 148.41 130.122C148.336 128.946 147.973 127.806 147.353 126.804C147.132 126.447 146.566 126.775 146.788 127.134Z"></path><path id="vector_113" fill="#000000" d="M150.321 126.778C150.876 127.738 151.117 128.847 151.011 129.95C150.972 130.369 151.626 130.367 151.664 129.95C151.772 128.731 151.501 127.508 150.886 126.45C150.84 126.379 150.769 126.329 150.688 126.309C150.606 126.289 150.52 126.302 150.447 126.344C150.374 126.386 150.32 126.455 150.297 126.536C150.274 126.617 150.282 126.703 150.321 126.778V126.778Z"></path><path id="vector_114" fill="#000000" d="M142.724 98.6C142.548 99.7 142.264 101.333 141.56 102.047C140.708 102.912 139.506 102.454 138.697 101.776L139.497 101.115C139.822 100.847 139.357 100.387 139.035 100.652L136.759 102.525C136.434 102.793 136.898 103.253 137.221 102.987L138.182 102.197C139.977 103.769 142.015 103.515 142.832 101.097C143.068 100.339 143.242 99.5633 143.35 98.777C143.42 98.359 142.79 98.182 142.724 98.6Z"></path><path id="vector_115" fill="#000000" d="M73.562 86.8C71.417 86.8 63.842 86.763 62.453 86.792L64.016 83.136C63.751 83.211 63.485 83.284 63.216 83.35L51.847 109.95C52.0383 110.053 52.229 110.157 52.419 110.263C52.419 110.263 61.931 88.13 62.17 87.463H73.819C73.771 87.369 73.612 86.942 73.562 86.8Z"></path><path id="vector_116" fill="#000000" d="M93.735 108.324C94.1152 108.202 94.4615 107.993 94.7461 107.713C95.0308 107.433 95.2458 107.09 95.374 106.712C95.4374 106.366 95.424 106.011 95.3349 105.671C95.2457 105.331 95.0829 105.014 94.858 104.744C93.522 103.02 91.111 103.596 88.091 103.916C89.4871 102.5 90.6159 100.843 91.423 99.0251C91.791 97.7921 91.639 96.0571 90.175 95.6511C89.382 95.5046 88.5629 95.6563 87.875 96.0771C86.0918 97.1611 84.4465 98.4572 82.975 99.9371C83.766 97.2861 84.61 95.2261 83.643 93.6111C83.4829 93.3542 83.2731 93.1319 83.026 92.9572C82.7788 92.7826 82.4993 92.659 82.2037 92.5938C81.9082 92.5286 81.6026 92.5231 81.3048 92.5775C81.0071 92.632 80.7233 92.7454 80.47 92.9111C79.208 93.6321 78.538 95.1601 77.865 96.3791C77.054 97.8491 76.3 99.3491 75.588 100.87C74.251 98.9931 72.612 96.3431 70.58 95.8491C69.9302 95.7118 69.2538 95.7802 68.6445 96.0447C68.0353 96.3091 67.5235 96.7566 67.18 97.3251C66.398 98.7371 67.129 100.409 67.74 101.735C68.6026 103.571 69.7426 105.264 71.12 106.753C70.89 108.678 70.674 110.773 70.509 112.717C69.2851 112.29 67.9867 112.119 66.694 112.214C65.4014 112.31 64.142 112.669 62.994 113.271C62.3659 112.074 61.5087 111.012 60.471 110.145C58.254 108.479 55.171 109.151 54.713 111.629C53.318 110.753 51.8773 109.952 50.397 109.229C43.1287 106.103 34.9339 105.905 27.523 108.676C21.173 111.282 17.023 116.276 14.44 122.517C13.6406 124.436 13.0008 126.418 12.527 128.442C10.558 136.51 10.935 143.881 10.886 147.052C10.8873 147.138 10.9222 147.221 10.9832 147.282C11.0443 147.343 11.1267 147.378 11.213 147.379H22.125C35.297 161.113 54.288 162.29 67.177 147.379C68.4811 147.836 69.8149 148.204 71.169 148.479C77.662 149.757 84.581 148.297 89.18 143.99C96.462 137.169 98.057 121.632 89.155 109.651C90.7341 109.415 92.2744 108.969 93.735 108.324V108.324ZM11.546 146.7C11.546 146.028 11.533 145.357 11.529 144.686C11.486 137.845 12.129 130.767 14.444 124.324C17.97 114.503 25.228 109.087 33.107 107.789C38.7291 106.833 44.5069 107.477 49.78 109.649C51.4658 110.449 53.0965 111.36 54.661 112.377C54.748 114.877 57.312 117.646 59.368 119.103C55.519 122.764 53.022 125.924 45.446 134.915C43.4533 132.776 41.4343 130.662 39.389 128.573C39.3272 128.513 39.2443 128.479 39.158 128.479C39.0717 128.479 38.9888 128.513 38.927 128.573L21.384 146.118C21.3244 146.18 21.2911 146.263 21.2911 146.35C21.2911 146.436 21.3244 146.519 21.384 146.581L21.512 146.72C16.208 146.72 12.016 146.7 11.546 146.7ZM63.8 149.918C50.6 161.897 33.562 158.818 22.068 146.356L39.151 129.273C41.2003 131.371 43.225 133.493 45.225 135.639C45.2866 135.7 45.3695 135.734 45.456 135.734C45.5425 135.734 45.6254 135.7 45.687 135.639C52.887 127.096 56.324 122.848 60.101 119.303C60.1355 119.267 60.1616 119.224 60.1773 119.177C60.1929 119.13 60.1977 119.08 60.1914 119.031C60.1851 118.981 60.1677 118.934 60.1406 118.893C60.1136 118.851 60.0775 118.816 60.035 118.79C58.9185 118.048 57.9202 117.141 57.074 116.101C52.985 111.076 56.963 108.569 59.885 110.521C61.0297 111.42 61.9567 112.566 62.597 113.873C62.6414 113.947 62.713 114.001 62.7966 114.023C62.8802 114.045 62.969 114.033 63.044 113.99C64.4244 113.22 65.9824 112.825 67.563 112.844C69.1436 112.863 70.6917 113.296 72.053 114.099C72.514 114.36 72.483 113.514 75.153 112.999C80.905 111.889 86.08 114.599 88.122 118.22C88.2818 118.413 88.3756 118.653 88.3898 118.903C88.404 119.154 88.3379 119.402 88.201 119.612C87.084 120.96 83.757 119.254 79.179 117.252C78.921 117.139 78.511 117.404 78.732 117.699C80.127 119.566 81.566 121.354 82.069 122.819C82.554 124.23 82.177 124.987 80.732 124.804C78.384 124.504 75.578 121.987 73.642 120.574C73.5922 120.546 73.5359 120.531 73.4786 120.531C73.4214 120.531 73.3651 120.546 73.3154 120.574C73.2657 120.603 73.2243 120.644 73.1953 120.693C73.1663 120.743 73.1507 120.799 73.15 120.856C73.279 122.233 73.287 123.617 73.374 124.996C73.451 126.231 73.794 127.663 73.174 128.812C73.0476 129.061 72.8665 129.277 72.6444 129.445C72.4223 129.614 72.1648 129.73 71.8915 129.784C71.6181 129.839 71.336 129.831 71.0662 129.761C70.7965 129.69 70.5461 129.56 70.334 129.379C68.564 128.207 67.546 124.007 67.334 121.894C67.3324 121.823 67.3083 121.754 67.2652 121.698C67.222 121.641 67.1621 121.6 67.094 121.579C64.9717 120.95 62.9186 120.107 60.966 119.064C60.589 118.882 60.257 119.445 60.636 119.629C62.5783 120.659 64.6133 121.503 66.714 122.151C66.976 124.451 67.972 128.387 69.803 129.798C70.2738 130.204 70.8728 130.432 71.4946 130.44C72.1165 130.449 72.7214 130.237 73.203 129.844C74.27 128.862 74.233 127.315 74.109 125.99C73.971 124.512 73.959 123.027 73.856 121.546C74.814 122.273 75.75 123.029 76.75 123.695C74.9 133.784 71.461 142.969 63.8 149.918ZM88.3 109.575C91.1314 113.168 93.0775 117.377 93.9808 121.861C94.8842 126.346 94.7195 130.98 93.5 135.389C92.9537 137.537 91.9875 139.555 90.6569 141.328C89.3264 143.1 87.658 144.592 85.748 145.716C80.915 148.505 74.377 149.229 67.648 146.822C73.148 140.191 75.801 132.484 77.348 124.077C78.1542 124.619 79.0379 125.036 79.969 125.314C80.847 125.543 82.05 125.667 82.644 124.814C83.781 123.185 81.309 120.026 80.038 118.34C81.6059 119.083 83.2141 119.738 84.855 120.301C85.8676 120.779 87.0239 120.854 88.09 120.512C88.5022 120.317 88.8242 119.971 88.99 119.546C89.0641 119.265 89.0762 118.971 89.0254 118.685C88.9746 118.398 88.8622 118.127 88.696 117.888C87.2448 115.522 85.0114 113.738 82.383 112.846C78.756 111.487 74.077 112.126 72.203 113.435C71.8651 113.254 71.5176 113.091 71.162 112.947C71.762 105.492 72.14 106.928 71.238 105.893C69.4968 103.977 68.2295 101.679 67.538 99.1841C67.421 98.666 67.496 98.1231 67.7491 97.6561C68.0021 97.1891 68.4161 96.8299 68.914 96.6451C71.476 95.4101 73.69 99.3961 75.364 101.666C75.494 101.842 75.816 101.912 75.929 101.666C76.619 100.166 79.038 95.2321 80.049 94.1011C80.796 93.2661 82.215 92.7071 83 93.8141C84.048 95.2921 82.984 97.3281 82.007 100.948C81.9902 101.017 81.9962 101.09 82.0241 101.155C82.052 101.221 82.1003 101.275 82.1618 101.311C82.2233 101.347 82.2947 101.362 82.3654 101.354C82.4361 101.346 82.5022 101.315 82.554 101.266C83.942 99.8781 87.291 96.6561 89.223 96.2661C90.455 96.0201 91.292 96.9821 90.823 98.7311C89.9284 100.765 88.6077 102.583 86.95 104.063C86.727 104.229 86.75 104.717 87.115 104.672C88.074 104.552 89.036 104.472 89.995 104.358C90.9871 104.16 92.007 104.144 93.005 104.31C93.4078 104.393 93.7803 104.585 94.0823 104.864C94.3843 105.144 94.6044 105.5 94.719 105.895C94.967 106.868 94.187 107.401 93.403 107.754C91.8721 108.44 90.2447 108.887 88.578 109.078C88.367 109.108 88.128 109.355 88.3 109.575Z"></path><path id="vector_117" fill="#000000" d="M32 96.8081C31.4345 97.086 30.9755 97.5412 30.6929 98.1044C30.4104 98.6675 30.3198 99.3076 30.435 99.9271C30.966 102.363 34.865 103.255 36.061 100.569C37.218 97.9761 34.306 95.7511 32 96.8081ZM35.478 100.272C34.606 102.286 31.848 101.732 31.167 100.088C31.0064 99.6299 31.0029 99.1313 31.157 98.6708C31.3111 98.2104 31.614 97.8144 32.018 97.5451C33.656 96.4771 36.452 98.0311 35.481 100.272H35.478Z"></path><path id="vector_118" fill="#000000" d="M40.006 112.678C39.906 112.4 39.449 112.337 39.375 112.678C38.6976 115.68 38.6026 118.784 39.095 121.822C40.248 128.367 44.231 130.863 47.495 130.478C47.5466 130.475 47.5968 130.461 47.6418 130.435C47.6868 130.41 47.7253 130.375 47.7544 130.332C47.7834 130.289 47.8022 130.24 47.8092 130.189C47.8163 130.138 47.8114 130.086 47.795 130.037C44.7011 124.487 42.095 118.679 40.006 112.678V112.678ZM41.129 125.942C39.275 122.491 39.143 117.85 39.794 113.975C41.7803 119.442 44.175 124.751 46.958 129.858C44.434 129.9 42.29 128.1 41.129 125.942Z"></path><path id="vector_119" fill="#000000" d="M27.809 96.33C26.357 95.29 24.7 98.217 25.629 101.338C26.242 103.4 27.79 103.613 28.555 101.77C29.189 100.242 29.148 97.288 27.809 96.33ZM28.067 101.203C27.612 102.688 26.802 102.743 26.319 101.351C25.59 99.251 26.425 96.408 27.334 96.804C28.192 97.178 28.56 99.6 28.067 101.2V101.203Z"></path><path id="vector_120" fill="#000000" d="M40.494 99.569C40.494 95.977 38.271 95.098 37.328 97.369C36.84 98.6391 36.7858 100.035 37.174 101.339C38.04 104.25 40.494 103.233 40.494 99.569ZM37.761 98.13C38.627 94.805 40.518 98.252 39.613 101.203C38.724 104.1 37.02 100.979 37.761 98.13Z"></path><path id="vector_121" fill="#000000" d="M36.841 88.323C36.133 88.523 35.866 89.3791 35.577 89.9691C34.6278 92.2568 33.0718 94.2419 31.077 95.71C30.777 95.899 30.968 96.449 31.329 96.31C33.0787 95.7244 34.7528 94.9332 36.316 93.9531C37.0468 93.4297 37.6884 92.7918 38.216 92.0641C39.251 90.1771 38.117 87.955 36.841 88.323ZM37.503 91.962C36.9745 92.5877 36.3605 93.1358 35.679 93.59C34.8481 94.1115 33.9715 94.5563 33.06 94.919C34.4196 93.4371 35.5261 91.7414 36.335 89.9001C36.479 89.6001 36.635 89.129 36.963 88.976C37.635 88.658 38.507 90.471 37.5 91.962H37.503Z"></path><path id="vector_122" fill="#000000" d="M36.061 92.758C36.8102 93.4764 37.4074 94.3382 37.817 95.292C38.001 95.67 38.565 95.339 38.382 94.962C37.452 93.045 36.452 91.7 34.34 91.239C31.78 90.68 28.935 91.913 27.23 94.8C27.1862 94.8749 27.174 94.9641 27.1961 95.0481C27.2181 95.132 27.2726 95.2037 27.3475 95.2475C27.4224 95.2912 27.5117 95.3034 27.5956 95.2814C27.6795 95.2594 27.7512 95.2049 27.795 95.13C29.906 91.554 33.8 90.887 36.061 92.758Z"></path><path id="vector_123" fill="#000000" d="M11.775 131.546C10.1734 131.455 8.61755 130.979 7.24 130.157C4.375 128.111 5.673 124.441 8.94 123.929C12.171 123.422 14.966 126.706 18.489 126.385C23.145 125.96 23.819 120.1 17.417 118.672C15.7676 118.463 14.1535 118.035 12.617 117.4C9.603 115.812 8.032 112.284 10.526 110.655C11.062 110.327 11.6615 110.116 12.2849 110.036C12.9083 109.956 13.5416 110.009 14.143 110.192C17.252 111.064 19.352 114.022 22.519 114.745C26.479 115.645 28.261 112.368 25.76 109.784C24.343 108.319 19.302 105.647 17.783 103.925C16.604 102.59 16.771 101.331 17.634 100.549C18.764 99.526 20.834 99.389 23.091 101.672C23.1531 101.729 23.2348 101.76 23.319 101.758C23.4032 101.756 23.4835 101.722 23.5431 101.662C23.6026 101.602 23.6369 101.522 23.6387 101.438C23.6406 101.354 23.6099 101.272 23.553 101.21C22.5456 100.045 21.1248 99.3182 19.591 99.182C18.9354 99.1595 18.2878 99.3318 17.7301 99.6773C17.1724 100.023 16.7297 100.526 16.458 101.123C15.922 102.49 16.728 103.847 17.695 104.776C19.231 106.254 24.284 109.076 25.452 110.411C26.691 111.833 26.56 113.751 24.515 114.176C21.465 114.81 18.383 111.464 15.836 110.169C12.536 108.488 9.655 109.69 8.861 111.682C7.976 113.899 9.895 117.382 13.731 118.555C15.361 119.055 17.131 119.103 18.722 119.733C19.3846 119.954 19.9812 120.338 20.4576 120.849C20.9339 121.36 21.2747 121.982 21.449 122.658C21.4917 123.322 21.2965 123.98 20.8983 124.513C20.5001 125.046 19.9249 125.42 19.276 125.568C15.984 126.6 12.994 123.195 9.64 123.222C4.471 123.264 2.712 129.991 9.176 131.732C10.0043 131.936 10.8446 132.088 11.692 132.187C11.7369 132.199 11.7838 132.201 11.8296 132.194C11.8754 132.186 11.919 132.169 11.9575 132.143C11.9961 132.117 12.0287 132.083 12.0531 132.044C12.0776 132.004 12.0933 131.96 12.0993 131.914C12.1052 131.868 12.1013 131.821 12.0877 131.777C12.0741 131.732 12.0512 131.691 12.0205 131.656C11.9898 131.622 11.952 131.594 11.9097 131.575C11.8673 131.556 11.8214 131.546 11.775 131.546V131.546Z"></path><path id="vector_124" fill="#000000" d="M31.1 120.075C31.0387 120.014 30.9556 119.979 30.8689 119.979C30.7821 119.979 30.6989 120.013 30.6375 120.075C30.5761 120.136 30.5416 120.219 30.5415 120.306C30.5414 120.392 30.5757 120.476 30.637 120.537L38.19 128.162C38.2521 128.219 38.3338 128.25 38.418 128.248C38.5022 128.246 38.5825 128.212 38.6421 128.152C38.7016 128.093 38.7359 128.012 38.7377 127.928C38.7396 127.844 38.7089 127.762 38.652 127.7L31.1 120.075Z"></path><path id="vector_125" fill="#000000" d="M14.722 137.006C14.464 136.674 14.005 137.14 14.26 137.468C16.167 139.919 18.334 143.326 20.115 145.416C20.388 145.737 20.849 145.273 20.577 144.954C18.46 142.47 16.731 139.587 14.722 137.006Z"></path><path id="vector_126" fill="#000000" d="M47.816 154.756H42.5C42.4133 154.756 42.3301 154.79 42.2688 154.852C42.2075 154.913 42.173 154.996 42.173 155.083C42.173 155.17 42.2075 155.253 42.2688 155.314C42.3301 155.376 42.4133 155.41 42.5 155.41H47.813C47.8997 155.41 47.9831 155.376 48.0447 155.315C48.1063 155.254 48.1411 155.171 48.1415 155.084C48.1419 154.998 48.1078 154.914 48.0468 154.853C47.9857 154.791 47.9027 154.756 47.816 154.756V154.756Z"></path><path id="vector_127" fill="#000000" d="M80.553 144.949H76.92C76.8333 144.949 76.7501 144.983 76.6888 145.045C76.6274 145.106 76.593 145.189 76.593 145.276C76.593 145.363 76.6274 145.446 76.6888 145.507C76.7501 145.569 76.8333 145.603 76.92 145.603H80.553C80.6397 145.603 80.7229 145.569 80.7842 145.507C80.8455 145.446 80.88 145.363 80.88 145.276C80.88 145.189 80.8455 145.106 80.7842 145.045C80.7229 144.983 80.6397 144.949 80.553 144.949Z"></path><path id="vector_128" fill="#000000" d="M85.823 107.273C83.8835 107.55 82.0195 108.215 80.342 109.227C79.6439 106.756 78.2394 104.542 76.301 102.857C75.982 102.586 75.518 103.047 75.839 103.32C77.7662 105.009 79.1404 107.239 79.783 109.72C79.759 109.99 79.976 110.22 80.432 109.938C82.1239 108.874 84.0213 108.18 86 107.9C86.412 107.845 86.235 107.215 85.823 107.273Z"></path><path id="vector_129" fill="#000000" d="M50.858 99H44.5C44.4133 99 44.3301 99.0345 44.2688 99.0958C44.2075 99.1571 44.173 99.2403 44.173 99.327C44.173 99.4137 44.2075 99.4969 44.2688 99.5582C44.3301 99.6196 44.4133 99.654 44.5 99.654H50.857C50.9437 99.6541 51.027 99.6198 51.0884 99.5586C51.1498 99.4973 51.1844 99.4142 51.1845 99.3275C51.1846 99.2408 51.1503 99.1575 51.0891 99.0961C51.0279 99.0347 50.9447 99.0001 50.858 99V99Z"></path><path id="vector_130" fill="#000000" d="M48.037 94.186L44.109 97.2C43.78 97.452 44.109 98.021 44.439 97.764L48.367 94.752C48.7 94.5 48.371 93.929 48.037 94.186Z"></path><path id="vector_131" fill="#000000" d="M44.3 101.787L47.781 104.497C48.109 104.753 48.575 104.297 48.244 104.035L44.762 101.324C44.436 101.069 43.97 101.528 44.3 101.787Z"></path></g></g></g></svg>