<svg xmlns="http://www.w3.org/2000/svg" fill="none" viewBox="0 0 200 200" height="400" width="400"><g id="conversation-between-businessman-and-customer-1--business-conversation-between-businessman-and-customer-1"><g id="color"><g id="group"><path id="vector" fill="#000000" d="M50.039 148.892L42.533 129.792C46.301 129.792 44.912 129.826 46.797 129.792C46.8833 129.787 46.9646 129.75 47.024 129.687C47.0835 129.624 47.1166 129.541 47.1166 129.454C47.1166 129.368 47.0835 129.285 47.024 129.222C46.9646 129.159 46.8833 129.122 46.797 129.117H26.148C26.0617 129.122 25.9804 129.159 25.921 129.222C25.8615 129.285 25.8284 129.368 25.8284 129.454C25.8284 129.541 25.8615 129.624 25.921 129.687C25.9804 129.75 26.0617 129.787 26.148 129.792H30.162C29.962 130.292 22.673 148.878 22.668 148.892C22.51 149.297 23.168 149.472 23.32 149.072C23.32 149.072 30.82 129.98 30.889 129.795H41.811L49.388 149.072C49.545 149.472 50.2 149.3 50.039 148.892Z"></path><path id="vector_2" fill="#000000" d="M178.673 162.213C178.419 161.567 171.39 143.741 171.138 143.113C174.238 143.113 173.809 143.142 175.431 143.113C175.517 143.108 175.599 143.071 175.658 143.008C175.717 142.945 175.751 142.862 175.751 142.776C175.751 142.689 175.717 142.606 175.658 142.543C175.599 142.48 175.517 142.443 175.431 142.438H154.782C154.696 142.443 154.614 142.48 154.555 142.543C154.495 142.606 154.462 142.689 154.462 142.776C154.462 142.862 154.495 142.945 154.555 143.008C154.614 143.071 154.696 143.108 154.782 143.113H158.788C158.6 143.594 151.307 162.199 151.302 162.213C151.143 162.618 151.796 162.793 151.953 162.392C152.207 161.747 159.447 143.292 159.515 143.116H170.415C170.632 143.652 178.022 162.392 178.022 162.392C178.179 162.793 178.833 162.618 178.673 162.213Z"></path><path id="vector_3" fill="#ffffff" d="M70.93 94.621C71.593 95.701 71.953 97.439 70.796 98.339C70.4798 98.5465 70.125 98.6882 69.7529 98.7555C69.3808 98.8229 68.9988 98.8146 68.63 98.731C66.897 98.477 67.406 98.121 68.189 99.474C68.545 99.749 80.819 108.84 82.297 109.902L93.865 101.155C93.404 100.808 93.876 101.147 84.537 94.619C84.09 94.6137 83.655 94.4739 83.2886 94.2177C82.9222 93.9616 82.6415 93.601 82.483 93.183L79.021 90.763C78.821 90.963 78.612 91.155 78.388 91.332C78.091 91.5211 77.7562 91.6427 77.4072 91.6884C77.0581 91.734 76.7033 91.7026 76.3677 91.5963C76.0321 91.49 75.7239 91.3114 75.4648 91.0731C75.2057 90.8348 75.0019 90.5426 74.868 90.217L70.375 93.846C70.5765 94.0922 70.7619 94.351 70.93 94.621V94.621ZM75.3 98.567L78.75 96.014C79.101 95.754 79.437 96.341 79.091 96.597L75.641 99.151C75.286 99.41 74.949 98.823 75.3 98.567ZM84.895 100.95C85.245 100.691 85.582 101.278 85.236 101.533L81.786 104.087C81.435 104.346 81.099 103.76 81.445 103.504L84.895 100.95ZM82.911 99.356C83.261 99.097 83.597 99.683 83.252 99.939L79.8 102.493C79.45 102.752 79.114 102.165 79.459 101.91L82.911 99.356ZM81.076 98.191L77.625 100.745C77.275 101.004 76.939 100.417 77.284 100.161L80.735 97.608C81.08 97.349 81.416 97.935 81.071 98.191H81.076Z"></path><path id="vector_4" fill="#ffe660" d="M75.438 86.457C72.6917 87.7919 70.2022 89.6006 68.084 91.8C68.954 92.3515 69.7279 93.0416 70.375 93.843L74.868 90.214C74.6407 89.5902 74.5737 88.9192 74.6733 88.2628C74.7729 87.6063 75.0359 86.9854 75.438 86.457V86.457Z"></path><path id="vector_5" fill="#ffe660" d="M97.7651 86.185C98.044 88.4283 97.7242 90.7054 96.8381 92.785C96.3381 93.937 95.4081 95.241 93.9671 94.979C92.6181 94.733 92.3771 93.054 92.2761 91.925C92.1178 92.6178 91.8993 93.2953 91.6231 93.95C91.4329 94.3042 91.1505 94.6004 90.8058 94.8073C90.4611 95.0142 90.0669 95.1242 89.6649 95.1255C89.2629 95.1269 88.868 95.0195 88.522 94.8149C88.1759 94.6103 87.8916 94.3159 87.6991 93.963C87.4581 93.3107 87.323 92.624 87.2991 91.929C87.1531 90.548 87.2811 90.695 87.0511 91.529C86.7511 92.622 86.4101 93.854 85.4081 94.406C85.1405 94.5534 84.8383 94.6259 84.5331 94.616C85.5331 95.316 93.7511 101.069 93.8611 101.152L82.3001 109.9C80.8211 108.839 68.5481 99.747 68.1921 99.472C68.443 99.8732 68.6111 100.32 68.6867 100.788C68.7623 101.255 68.7437 101.732 68.6321 102.192C68.4992 102.592 68.2353 102.936 67.883 103.168C67.5306 103.401 67.1104 103.507 66.6901 103.471C65.4492 103.302 64.2377 102.962 63.0901 102.461C64.0311 103.408 65.315 104.684 64.965 105.871C64.525 107.362 62.4421 107.164 60.9561 106.678C60.351 111.473 61.087 116.342 63.0824 120.744C65.0777 125.146 68.2542 128.908 72.2591 131.614C76.264 134.319 80.9404 135.861 85.769 136.069C90.5975 136.276 95.3891 135.141 99.6115 132.79C103.834 130.439 107.322 126.963 109.688 122.748C112.054 118.534 113.205 113.746 113.014 108.917C112.823 104.088 111.297 99.4063 108.605 95.3921C105.914 91.3779 102.162 88.1885 97.7671 86.178L97.7651 86.185Z"></path><path id="vector_6" fill="#000000" d="M79.8001 102.493L83.2511 99.939C83.5961 99.683 83.2601 99.097 82.9101 99.356L79.4591 101.91C79.1101 102.165 79.4461 102.752 79.8001 102.493Z"></path><path id="vector_7" fill="#000000" d="M81.781 104.087L85.231 101.533C85.577 101.278 85.24 100.691 84.89 100.95L81.44 103.5C81.094 103.76 81.43 104.346 81.781 104.087Z"></path><path id="vector_8" fill="#000000" d="M78.745 96.014L75.3 98.567C74.954 98.823 75.291 99.41 75.641 99.151L79.091 96.597C79.432 96.341 79.1 95.754 78.745 96.014Z"></path><path id="vector_9" fill="#000000" d="M77.6199 100.745L81.0709 98.191C81.4159 97.935 81.0799 97.349 80.7299 97.608L77.2789 100.161C76.9339 100.417 77.2699 101 77.6199 100.745Z"></path><path id="vector_10" fill="#000000" d="M77.2531 119.847C77.9311 119.895 84.6341 123.352 96.0121 119.88C90.5091 117.6 82.4621 117.49 77.2531 119.847Z"></path><path id="vector_11" fill="#6596e1" d="M96.2211 120.169C96.2171 120.12 96.2024 120.072 96.178 120.029C96.1536 119.986 96.12 119.949 96.0797 119.92C96.0393 119.892 95.9932 119.872 95.9445 119.863C95.8959 119.854 95.8459 119.856 95.7981 119.869C89.838 121.931 83.3581 121.931 77.3981 119.869C77.3459 119.855 77.2911 119.853 77.2382 119.865C77.1854 119.876 77.136 119.9 77.0941 119.934C77.0523 119.968 77.0192 120.012 76.9976 120.062C76.976 120.111 76.9666 120.165 76.9701 120.219C76.9625 122.616 77.8907 124.921 79.5571 126.644C83.5441 131.164 91.3181 131.527 94.8821 124.444C95.6437 123.138 96.1013 121.676 96.2211 120.169V120.169Z"></path><path id="vector_12" fill="#6596e1" d="M75.631 123.32C75.0091 123.302 74.4007 123.134 73.8576 122.83C73.3146 122.527 72.8529 122.096 72.512 121.576C72.3613 121.358 72.2829 121.098 72.2877 120.833C72.2926 120.568 72.3804 120.311 72.539 120.099C72.813 119.736 73.327 119.999 75.31 120.488C75.3949 120.508 75.4843 120.494 75.5593 120.449C75.6342 120.405 75.6891 120.333 75.7123 120.249C75.7356 120.165 75.7254 120.075 75.684 119.998C75.6425 119.921 75.573 119.864 75.49 119.837C73.609 119.358 72.771 118.99 72.132 119.555C70.432 121.307 73.119 123.972 75.632 123.996C75.6764 123.996 75.7203 123.987 75.7613 123.97C75.8023 123.953 75.8395 123.928 75.8708 123.897C75.9022 123.865 75.927 123.828 75.9439 123.787C75.9609 123.746 75.9695 123.702 75.9695 123.658C75.9694 123.613 75.9606 123.569 75.9436 123.528C75.9265 123.487 75.9016 123.45 75.8701 123.419C75.8387 123.387 75.8014 123.362 75.7604 123.346C75.7193 123.329 75.6754 123.32 75.631 123.32V123.32Z"></path><path id="vector_13" fill="#000000" d="M86.25 119.6C86.211 120.033 86.887 120.03 86.926 119.6C87.051 118.2 87.226 117.056 88.337 116.422C89.269 116.105 89.723 116.201 90.21 115.563C90.5461 114.992 90.7161 114.338 90.701 113.676C90.745 113.139 90.923 112.155 91.621 112.134C91.7107 112.134 91.7967 112.098 91.86 112.035C91.9234 111.972 91.959 111.886 91.959 111.796C91.959 111.706 91.9234 111.62 91.86 111.557C91.7967 111.494 91.7107 111.458 91.621 111.458C91.2836 111.492 90.9653 111.631 90.711 111.855C90.4566 112.079 90.279 112.378 90.203 112.708C89.86 113.698 90.228 115.158 89.181 115.495C88.7901 115.58 88.405 115.69 88.028 115.824C86.7 116.515 86.386 118.081 86.25 119.6Z"></path><path id="vector_14" fill="#000000" d="M80.241 112.836C78.467 112.298 65.108 108.423 64.458 108.245C64.3717 108.222 64.2799 108.234 64.2022 108.278C64.1244 108.322 64.0669 108.394 64.042 108.48C63.463 110.433 63.464 110.332 63.491 110.457C63.4943 110.521 63.5207 110.583 63.5653 110.629C63.6099 110.676 63.6698 110.705 63.734 110.711L80.061 113.487C80.146 113.507 80.2353 113.493 80.3103 113.448C80.3853 113.404 80.4401 113.332 80.4634 113.248C80.4866 113.164 80.4764 113.074 80.435 112.997C80.3936 112.92 80.324 112.863 80.241 112.836V112.836Z"></path><path id="vector_15" fill="#000000" d="M106.616 130.385C106.589 130.303 106.531 130.234 106.455 130.193C106.378 130.152 106.289 130.142 106.205 130.165C106.122 130.188 106.05 130.242 106.005 130.316C105.961 130.391 105.946 130.479 105.965 130.564C106.506 132.608 107.907 137.23 107.994 137.517C108.021 137.6 108.078 137.67 108.155 137.711C108.232 137.752 108.322 137.763 108.406 137.739C108.49 137.716 108.562 137.661 108.606 137.586C108.651 137.511 108.665 137.422 108.645 137.337C108.1 135.293 106.7 130.671 106.616 130.385Z"></path><path id="vector_16" fill="#000000" d="M65.545 132.41C65.726 132.018 65.1451 131.674 64.9611 132.069L51.4051 161.275C51.2231 161.667 51.8051 162.01 51.9881 161.616L65.545 132.41Z"></path><path id="vector_17" fill="#6596e1" d="M96.165 134.405C90.0416 136.728 83.2695 136.668 77.188 134.238L78.977 147.853H97.227C97.3165 147.853 97.4021 147.817 97.4654 147.753C97.5287 147.69 97.5645 147.605 97.565 147.515L96.165 134.405Z"></path><path id="vector_18" fill="#000000" d="M97.607 152.249C91.8684 149.573 85.4631 148.666 79.207 149.643L79.579 152.492C80.235 152.515 95.379 152.798 97.433 152.878C97.5065 152.877 97.5777 152.852 97.6359 152.807C97.694 152.762 97.7361 152.7 97.7557 152.629C97.7753 152.558 97.7714 152.483 97.7446 152.414C97.7178 152.346 97.6695 152.288 97.607 152.249Z"></path><path id="vector_19" fill="#000000" d="M61.3 37.864C59.866 36.541 57.888 37.429 56.5 38.811C55.0008 40.3189 53.6731 41.988 52.541 43.788C55.223 41.393 57.949 42.117 58.688 44.564C59.2956 43.9393 59.8672 43.2806 60.4 42.591C61.045 41.8858 61.525 41.0458 61.805 40.132C61.9153 39.7417 61.9269 39.3301 61.8387 38.9343C61.7506 38.5384 61.5655 38.1706 61.3 37.864V37.864Z"></path><path id="vector_20" fill="#ffd7d7" d="M53.236 43.246C50.964 44.812 49.685 47.71 51.585 49.614C52.0659 48.8454 52.6834 48.1713 53.407 47.625C55.523 45.667 58.007 46.335 58.435 48.109C60.071 44.017 57.078 40.6 53.236 43.246Z"></path><path id="vector_21" fill="#6596e1" d="M77.188 134.238C71.8093 132.095 67.2957 128.225 64.357 123.236C61.4182 118.247 60.2211 112.423 60.954 106.68C59.6769 106.274 58.4571 105.707 57.324 104.992C49.2829 112.541 39.3516 117.777 28.58 120.147C33.173 125.606 41.48 128.338 48.61 128.624L54.176 155.306L64.961 132.069C65.144 131.674 65.727 132.018 65.545 132.41L54.406 156.41L54.784 158.223C54.8043 158.294 54.8469 158.356 54.9055 158.401C54.964 158.445 55.0353 158.47 55.109 158.471H79.975C80.0644 158.47 80.1501 158.435 80.2134 158.371C80.2767 158.308 80.3124 158.222 80.313 158.133C80.061 156.179 80.5 159.508 77.188 134.238Z"></path><path id="vector_22" fill="#ffaaaa" d="M76.405 67.559C75.5923 65.1661 74.2211 63.0014 72.405 61.244C69.123 58 64.863 55.907 58.877 55.408C58.8029 55.4076 58.7308 55.4318 58.6718 55.4766C58.6129 55.5215 58.5704 55.5845 58.551 55.656C57.916 59.885 57.437 67.778 56.983 70.591C56.1093 65.5557 54.8979 60.5848 53.357 55.712C53.3363 55.6414 53.2937 55.5793 53.2352 55.5347C53.1767 55.4901 53.1055 55.4653 53.032 55.464C46.5087 56.2175 40.2545 58.4966 34.776 62.117C25.8 68.032 21.552 74.03 14.928 82.673C10.994 87.807 9.022 90.329 7.542 93.1C3.566 100.544 4.63 108.888 8.196 113.549C9.85012 115.483 11.8511 117.091 14.096 118.29C20.396 121.73 25.988 121.083 32.769 119.071C38.8226 117.275 44.5642 114.56 49.793 111.02C49.9162 110.949 50.0335 110.868 50.144 110.779C50.0648 110.823 49.9712 110.835 49.8837 110.81C49.7962 110.786 49.7219 110.728 49.677 110.649C49.62 110.549 43.472 95.79 42.153 91.483C36.8706 93.1829 31.708 95.2349 26.7 97.625C26.307 97.802 25.964 97.22 26.359 97.042C27.505 96.526 31.624 94.706 32.54 94.317C35.5729 90.0196 37.9571 85.2994 39.616 80.308C39.752 79.897 40.405 80.074 40.267 80.488C38.6946 85.2184 36.4799 89.7104 33.685 93.838C38.6852 91.6076 43.955 90.0391 49.361 89.172C55.1 88.3 62.788 88.658 68.084 91.8C70.2021 89.5997 72.6915 87.79 75.438 86.454C76.6957 84.7006 78.0621 83.0276 79.529 81.445C78.9193 76.7297 77.8735 72.0811 76.405 67.559ZM10.491 108.529C10.7551 109.466 11.1543 110.36 11.676 111.182C11.918 111.545 11.331 111.882 11.092 111.523C10.5404 110.65 10.1187 109.702 9.84 108.708C9.712 108.291 10.364 108.115 10.491 108.529ZM58.336 87.373C57.8693 82.973 57.4287 78.5697 57.014 74.163C56.973 73.729 57.649 73.733 57.689 74.163C58.101 78.569 58.5417 82.9724 59.011 87.373C59.057 87.806 58.381 87.8 58.336 87.373Z"></path><path id="vector_23" fill="#ffe660" d="M82.037 87.349C80.966 88.459 80.078 89.749 79.021 90.763L82.483 93.183C82.072 91.2673 81.922 89.3049 82.037 87.349V87.349Z"></path><path id="vector_24" fill="#ffd7d7" d="M93.094 78.8C89.094 76.86 84.737 76.968 81.141 79.946C79.3026 81.5956 77.6373 83.4284 76.171 85.416C75.252 86.574 74.378 88.088 74.649 89.528C74.7376 90.0537 74.9817 90.5406 75.3498 90.9262C75.7179 91.3117 76.193 91.5781 76.714 91.691C77.1471 91.7692 77.5934 91.7233 78.0016 91.5588C78.4098 91.3943 78.7632 91.1177 79.021 90.761C80.097 89.724 80.972 88.445 82.037 87.347C81.974 88.647 81.976 92.656 82.753 93.703C83.0475 94.1084 83.4731 94.3995 83.9577 94.5271C84.4423 94.6546 84.956 94.6108 85.412 94.403C86.412 93.851 86.754 92.617 87.055 91.526C87.285 90.692 87.155 90.546 87.303 91.926C87.3269 92.621 87.462 93.3077 87.703 93.96C87.8953 94.3132 88.1795 94.6078 88.5256 94.8127C88.8717 95.0175 89.2667 95.125 89.6689 95.1236C90.071 95.1223 90.4653 95.0122 90.81 94.8051C91.1547 94.598 91.437 94.3015 91.627 93.947C91.9032 93.2923 92.1217 92.6148 92.28 91.922C92.38 93.051 92.622 94.73 93.971 94.976C98.089 95.732 100.453 82.369 93.094 78.8ZM92.51 85.913C92.5838 85.133 92.6012 84.3486 92.562 83.566C92.54 83.13 93.216 83.133 93.238 83.566C93.2767 84.3486 93.2593 85.1329 93.186 85.913C93.145 86.345 92.47 86.348 92.51 85.915V85.913ZM88.193 85.258C88.151 85.687 87.475 85.69 87.518 85.258L87.747 82.911C87.789 82.482 88.465 82.479 88.423 82.911L88.193 85.258Z"></path><path id="vector_25" fill="#ffaaaa" d="M42.257 90.749C39.3598 91.6165 36.5122 92.6417 33.727 93.82C36.4946 89.6892 38.6943 85.2051 40.267 80.488C40.405 80.075 39.752 79.897 39.616 80.308C37.9568 85.3054 35.5658 90.0291 32.521 94.325C31.611 94.711 27.504 96.525 26.359 97.042C25.959 97.22 26.307 97.802 26.7 97.625C43.076 90.258 42.294 92.051 42.045 91.152C42.0235 91.0705 42.0334 90.9839 42.0726 90.9093C42.1118 90.8347 42.1776 90.7775 42.257 90.749V90.749Z"></path><path id="vector_26" fill="#ffd7d7" d="M70.93 94.6211C67.398 88.8711 56.183 88.138 49.361 89.172C46.9609 89.5335 44.5886 90.0605 42.2611 90.749C42.1822 90.7773 42.1168 90.834 42.0776 90.908C42.0384 90.982 42.0282 91.068 42.049 91.1491C43.044 94.7381 48.219 106.997 49.649 110.576C49.6636 110.626 49.6893 110.672 49.7241 110.71C49.759 110.749 49.8022 110.779 49.8503 110.798C49.8985 110.817 49.9505 110.825 50.0022 110.821C50.054 110.818 50.1042 110.802 50.149 110.776C52.6835 109.028 55.0839 107.094 57.3301 104.988C58.657 105.822 60.0999 106.455 61.612 106.867C62.912 107.207 64.5931 107.143 64.9691 105.867C65.3171 104.685 64.0561 103.425 63.0941 102.457C64.241 102.96 65.4527 103.3 66.694 103.467C68.48 103.604 69.435 101.603 68.194 99.4671C67.404 98.1061 66.9101 98.467 68.6351 98.724C69.0039 98.8076 69.3858 98.8159 69.758 98.7485C70.1301 98.6812 70.4849 98.5395 70.8011 98.3321C71.9531 97.4391 71.593 95.7001 70.93 94.6211ZM55.764 98.0801L58.335 99.0661C58.735 99.2201 58.562 99.8731 58.155 99.7171L55.584 98.7311C55.182 98.5771 55.358 97.9241 55.764 98.0801ZM61.336 94.8451C60.4693 94.2972 59.5177 93.8968 58.5201 93.6601C58.0971 93.5601 58.2771 92.9061 58.7001 93.0081C59.7545 93.2597 60.7603 93.6833 61.677 94.2621C62.043 94.4941 61.7 95.0781 61.336 94.8451V94.8451Z"></path><path id="vector_27" fill="#ffaaaa" d="M59.011 87.373C58.541 82.973 58.1003 78.5697 57.689 74.163C57.649 73.733 56.973 73.729 57.014 74.163C57.4247 78.569 57.8653 82.9723 58.336 87.373C58.381 87.8 59.057 87.806 59.011 87.373Z"></path><path id="vector_28" fill="#ffaaaa" d="M10.491 108.529C10.364 108.115 9.71205 108.291 9.84005 108.708C10.1187 109.702 10.5405 110.65 11.092 111.523C11.331 111.882 11.918 111.545 11.676 111.182C11.1543 110.36 10.7551 109.466 10.491 108.529V108.529Z"></path><path id="vector_29" fill="#ffffff" d="M57.814 48.374C57.7424 48.123 57.6167 47.8906 57.4459 47.6933C57.2751 47.4959 57.0632 47.3382 56.825 47.2314C56.5869 47.1245 56.3282 47.0709 56.0672 47.0745C55.8062 47.0781 55.5491 47.1387 55.314 47.252C53.223 48.062 50.9 50.946 51.287 52.872C51.732 55.086 55.27 55.13 57.387 50.872C57.7831 50.1032 57.9322 49.2308 57.814 48.374Z"></path><path id="vector_30" fill="#ffffff" d="M62.675 52.872C62.7689 53.3264 63.0279 53.7298 63.4019 54.0042C63.7759 54.2787 64.2384 54.4048 64.7 54.358C65.6257 54.2624 66.4859 53.8364 67.123 53.158C68.342 52.011 69.47 50.109 69.203 48.378C69.1314 48.127 69.0058 47.8947 68.835 47.6973C68.6641 47.4999 68.4522 47.3423 68.2141 47.2354C67.9759 47.1285 67.7173 47.075 67.4563 47.0785C67.1952 47.0821 66.9382 47.1427 66.703 47.256C64.612 48.062 62.288 50.946 62.675 52.872Z"></path><path id="vector_31" fill="#000000" d="M69.92 48.664C69.858 46.411 67.057 45.534 64.797 47.625C63.9513 48.2454 63.2533 49.0452 62.753 49.967L58.373 50.153C59.343 46.518 55.933 45.287 53.407 47.625C50.656 49.744 49.322 53.791 52.191 54.854C54.609 55.767 57.174 53.176 58.147 50.838L62.415 50.657C60.481 54.502 65.133 57.404 68.762 52.263C69.5181 51.2156 69.9234 49.9558 69.92 48.664V48.664ZM57.381 50.876C55.281 55.103 51.755 55.084 51.281 52.876C50.906 50.904 53.239 48.057 55.308 47.256C55.5431 47.1427 55.8002 47.0821 56.0612 47.0785C56.3223 47.0749 56.5809 47.1285 56.819 47.2354C57.0572 47.3422 57.2691 47.4999 57.4399 47.6973C57.6108 47.8947 57.7364 48.127 57.808 48.378C57.9225 49.2347 57.7736 50.106 57.381 50.876V50.876ZM68.772 50.876C66.672 55.102 63.146 55.09 62.672 52.876C62.297 50.899 64.635 48.056 66.699 47.256C66.9341 47.1427 67.1912 47.0821 67.4522 47.0785C67.7133 47.0749 67.9719 47.1285 68.21 47.2354C68.4482 47.3422 68.6601 47.4999 68.8309 47.6973C69.0018 47.8947 69.1274 48.127 69.199 48.378C69.3141 49.2347 69.1651 50.1062 68.772 50.876V50.876Z"></path><path id="vector_32" fill="#000000" d="M47.684 47.457C44.094 45.076 41.968 45.883 40.112 49.396C39.912 49.781 40.487 50.119 40.696 49.737C41.459 48.337 42.472 46.694 44.287 46.777C45.945 46.977 46.666 47.593 49.645 49.553C50.009 49.793 50.345 49.208 49.986 48.97C49.219 48.465 48.449 47.965 47.684 47.457Z"></path><path id="vector_33" fill="#000000" d="M81.494 163.457C75.3509 160.603 68.462 159.765 61.814 161.065C59.9812 161.428 58.1804 161.936 56.429 162.587C56.3531 162.612 56.2885 162.663 56.2462 162.731C56.2039 162.799 56.1867 162.88 56.1975 162.959C56.2083 163.038 56.2464 163.111 56.3053 163.165C56.3642 163.219 56.4401 163.251 56.52 163.255C67.839 164.116 72.345 163.736 81.32 164.086C81.3931 164.084 81.4637 164.059 81.5214 164.014C81.5791 163.969 81.6207 163.907 81.6402 163.836C81.6597 163.766 81.656 163.691 81.6297 163.622C81.6034 163.554 81.5558 163.496 81.494 163.457V163.457Z"></path><path id="vector_34" fill="#ffaaaa" d="M87.518 85.26C87.475 85.692 88.151 85.689 88.193 85.26L88.423 82.913C88.465 82.481 87.789 82.484 87.747 82.913L87.518 85.26Z"></path><path id="vector_35" fill="#ffaaaa" d="M92.51 85.915C92.47 86.348 93.145 86.345 93.186 85.915C93.2593 85.1349 93.2767 84.3506 93.238 83.568C93.216 83.135 92.538 83.132 92.562 83.568C92.6012 84.3506 92.5838 85.1349 92.51 85.915Z"></path><path id="vector_36" fill="#ffaaaa" d="M58.335 99.066L55.764 98.08C55.358 97.924 55.182 98.58 55.584 98.731L58.155 99.717C58.562 99.873 58.737 99.22 58.335 99.066Z"></path><path id="vector_37" fill="#ffaaaa" d="M58.5201 93.66C59.5177 93.8968 60.4693 94.2972 61.3361 94.845C61.7041 95.078 62.0431 94.494 61.6771 94.262C60.7603 93.6833 59.7545 93.2597 58.7001 93.008C58.2771 92.906 58.1001 93.558 58.5201 93.66Z"></path><path id="vector_38" fill="#000000" d="M194.985 82.336C194.852 81.2999 194.517 80.3001 193.998 79.3937C193.479 78.4873 192.786 77.692 191.96 77.0533C191.133 76.4146 190.189 75.9449 189.181 75.6712C188.173 75.3975 187.121 75.325 186.085 75.458C188.837 69.821 183.525 63.439 176.443 65.2C178.023 58.339 170.029 52.534 164.881 57.908C161.005 61.953 159.081 70.578 158.346 76.099C166.091 73.438 173.732 72.167 179.497 77.985C181.402 79.9584 182.912 82.2772 183.947 84.817C184.808 86.7844 185.495 88.8235 186 90.911C191.166 90.546 195.311 86.414 194.985 82.336ZM171.296 64.336C171.146 64.9894 170.855 65.6022 170.444 66.1314C170.032 66.6606 169.51 67.0935 168.914 67.3998C168.318 67.706 167.661 67.8782 166.992 67.9044C166.322 67.9305 165.654 67.8099 165.036 67.551C162.383 66.419 162.648 62.287 164.792 60.269C167.575 57.644 171.967 60.482 171.3 64.333L171.296 64.336Z"></path><path id="vector_39" fill="#ffaaaa" d="M169.276 59.8271C166.011 57.8201 162.499 61.3151 163.225 65.2461C163.88 68.7921 169.47 68.8691 171.056 65.0821C171.424 64.1366 171.447 63.0918 171.121 62.1309C170.796 61.1701 170.143 60.3544 169.276 59.8271Z"></path><path id="vector_40" fill="#ffd7d7" d="M146.464 88.884C145.67 87.371 145.072 85.7626 144.685 84.098C144.62 83.814 144.885 83.725 144.785 83.76C144.319 84.114 143.857 84.473 143.394 84.831C145.519 77.722 147.309 70.705 146.173 63.642C146.017 62.67 145.835 61.465 144.735 61.142C144.274 61.0401 143.794 61.0798 143.356 61.256C142.919 61.4321 142.544 61.7364 142.283 62.129C141.707 63.1788 141.39 64.351 141.359 65.548C141.234 66.6502 141.174 67.7588 141.178 68.868L132.757 62.051C131.665 61.167 130.057 59.995 128.624 60.8C127.256 61.568 127.218 63.4 127.961 64.751C129.83 68.141 130.951 67.527 127.886 66.614C127.343 66.406 126.764 66.3077 126.182 66.3249C125.601 66.3421 125.029 66.4743 124.499 66.714C123.963 67.0374 123.566 67.5482 123.385 68.1474C123.203 68.7466 123.251 69.3918 123.518 69.958C124.279 71.882 127.364 73.6 129.249 74.387C127.903 74.267 126.565 73.993 125.21 73.987C123.67 73.977 121.644 74.365 121.355 76.169C121.246 76.8485 121.346 77.545 121.643 78.1661C121.939 78.7872 122.417 79.3037 123.013 79.647C124.107 80.1325 125.287 80.3943 126.483 80.417C127.614 80.533 128.749 80.583 129.883 80.636C128.423 83.469 127.256 86.4438 126.401 89.514C133.801 86.021 141.095 87.092 144.459 89.585C146.109 90.8861 147.668 92.2991 149.125 93.814C148.385 92.585 147.048 90.013 146.464 88.884Z"></path><path id="vector_41" fill="#ffd7d7" d="M135.351 102.749C134.714 102.866 134.062 102.883 133.42 102.8C131.82 102.719 131.248 100.855 131.999 99.537C132.719 98.4082 133.573 97.3706 134.542 96.447C133.657 96.905 132.763 97.347 131.853 97.756C130.725 98.262 129.388 98.904 128.138 98.438C127.875 98.3638 127.63 98.2357 127.419 98.0619C127.209 97.888 127.036 97.6722 126.913 97.4282C126.79 97.1842 126.719 96.9173 126.705 96.6444C126.691 96.3715 126.733 96.0986 126.83 95.843C127.095 95.3115 127.467 94.8409 127.924 94.461C130.624 91.929 131.003 92.619 127.412 93.632C126.758 93.8301 126.072 93.8981 125.392 93.832C124.63 98.022 124.231 103.306 126.258 107.075C129.549 104.975 133.014 104.928 136.75 106.035C136.281 104.939 135.8 103.852 135.351 102.749Z"></path><path id="vector_42" fill="#6596e1" d="M187.547 116.5C187.541 116.57 187.515 116.637 187.472 116.692C187.429 116.747 187.371 116.789 187.304 116.811C183.511 118.285 179.481 119.055 175.412 119.083C172.685 121.696 169.444 123.712 165.895 125.002C162.18 126.302 156.936 125.93 153.548 125.022C150.455 124.016 147.626 122.33 145.27 120.088L142.838 120.976C142.527 122.962 139.492 140.876 139.452 141.101C160.969 141.101 162.435 141.256 165.952 140.501C171.275 139.358 176.14 136.663 179.933 132.757C183.725 128.85 186.275 123.908 187.26 118.553C187.273 118.454 187.572 116.629 187.547 116.5Z"></path><path id="vector_43" fill="#6596e1" d="M136.347 145.1L114.614 143.056C114.45 143.041 114.255 142.912 114.276 142.719C115.055 135.585 116.238 128.502 117.818 121.502C116.25 124.327 100.86 152.26 100.85 152.278C100.806 152.357 100.795 152.451 100.82 152.538C100.844 152.626 100.903 152.7 100.982 152.744C101.082 152.801 100.904 152.722 125.693 161.444C125.765 161.463 125.841 161.458 125.91 161.43C125.978 161.402 126.036 161.353 126.074 161.289C127.952 158.289 132.974 150.395 133.59 149.43C125.958 151.222 119.864 152.959 113.471 153.951C113.392 153.97 113.308 153.961 113.235 153.924C113.162 153.887 113.105 153.825 113.074 153.749C113.043 153.674 113.04 153.59 113.066 153.512C113.092 153.435 113.145 153.369 113.215 153.327C119.516 148.882 127.178 146.794 134.863 147.427L136.347 145.1Z"></path><path id="vector_44" fill="#c0c195" d="M186 90.911C185.497 88.8238 184.812 86.7847 183.953 84.817C180.612 76.917 174.753 72.689 166.053 74.129C158.251 75.3611 150.925 78.6729 144.846 83.716C144.785 83.757 144.738 83.8153 144.71 83.8834C144.683 83.9514 144.676 84.0262 144.691 84.098C145.078 85.7626 145.676 87.371 146.47 88.884C147.276 90.443 148.094 92.006 148.962 93.531C149.398 94.296 148.479 92.731 159.542 105.067C162.718 98.827 162.402 99.955 162.531 99.62C165.801 94.485 169.731 89.388 175.044 86.371C175.121 86.3258 175.214 86.3132 175.3 86.336C175.387 86.3588 175.461 86.4151 175.507 86.4925C175.552 86.57 175.564 86.6622 175.542 86.7489C175.519 86.8357 175.462 86.9098 175.385 86.955C170.125 90.184 166.6 94.5 163.2 99.817C167.645 105.681 172.251 110.963 177.191 116.423C181.247 112.208 184.354 107.175 186.305 101.661C186.33 101.589 186.378 101.527 186.441 101.485C186.505 101.443 186.58 101.423 186.656 101.428C186.732 101.434 186.804 101.464 186.862 101.514C186.919 101.564 186.958 101.631 186.973 101.706C186.985 101.824 186.939 101.871 186.705 102.495C184.34 108.859 180.464 114.552 175.411 119.086C179.481 119.062 183.511 118.292 187.303 116.814C187.37 116.792 187.428 116.75 187.471 116.695C187.514 116.64 187.54 116.573 187.546 116.503C187.865 115.613 187.813 98.941 186 90.911ZM152.732 91C152.687 91.0775 152.613 91.1338 152.526 91.1566C152.439 91.1793 152.347 91.1667 152.27 91.1215C152.192 91.0763 152.136 91.0022 152.113 90.9154C152.09 90.8287 152.103 90.7365 152.148 90.659C153.77 87.8688 155.581 85.1932 157.569 82.651C157.83 82.31 158.417 82.651 158.153 82.992C156.209 85.5658 154.399 88.2387 152.732 91V91ZM164.932 79.618C164.906 79.718 161.209 94.275 161.086 94.43C160.928 94.543 161.509 94.27 156.567 96.416C156.283 96.509 156.112 96.389 156.067 96.216C154.834 91.055 154.723 91.291 154.916 91.024C154.995 90.915 155.7 90.049 164.363 79.291C164.59 79.012 165.01 79.314 164.932 79.617V79.618Z"></path><path id="vector_45" fill="#c0c195" d="M175.379 86.955C175.456 86.9098 175.513 86.8357 175.536 86.7489C175.558 86.6622 175.546 86.57 175.501 86.4925C175.455 86.4151 175.381 86.3588 175.294 86.336C175.208 86.3132 175.115 86.3258 175.038 86.371C170.883 88.9283 167.343 92.3708 164.67 96.453C164.551 96.623 162.609 99.401 162.514 99.646C162.547 99.6005 162.59 99.5636 162.64 99.5387C162.69 99.5138 162.746 99.5016 162.802 99.5032C162.858 99.5048 162.913 99.5201 162.961 99.5478C163.01 99.5755 163.051 99.6147 163.081 99.662C163.12 99.715 163.162 99.762 163.201 99.817C166.633 94.453 170.157 90.164 175.379 86.955Z"></path><path id="vector_46" fill="#c0c195" d="M186.306 101.661C184.355 107.175 181.248 112.208 177.192 116.423C177.271 116.51 177.347 116.599 177.427 116.685C177.484 116.747 177.517 116.827 177.52 116.911C177.522 116.995 177.494 117.077 177.44 117.142L177.458 117.13C181.683 112.772 184.922 107.558 186.958 101.84C187.106 101.428 186.446 101.26 186.306 101.661Z"></path><path id="vector_47" fill="#b6dbff" d="M136.75 106.033C132.237 104.696 128.983 105.333 126.258 107.073C122.267 109.625 120.173 114.03 118.698 118.494C116.614 124.803 115.008 136.225 114.276 142.722C114.255 142.915 114.45 143.044 114.614 143.059L138.438 145.3C138.512 145.3 138.584 145.276 138.643 145.231C138.702 145.186 138.744 145.123 138.764 145.052C138.995 143.733 142.523 122.965 142.838 120.979L145.27 120.091C140.053 115.386 139.482 112.424 136.75 106.033ZM128.076 108.741L130.811 107.349C131.198 107.149 131.539 107.735 131.152 107.932L128.416 109.324C128.029 109.521 127.688 108.938 128.076 108.741Z"></path><path id="vector_48" fill="#ffaaaa" d="M177.427 116.685C173.071 111.976 167.282 105.222 163.081 99.662C163.051 99.6149 163.01 99.5759 162.961 99.5483C162.912 99.5208 162.858 99.5056 162.802 99.504C162.746 99.5024 162.69 99.5145 162.64 99.5393C162.59 99.564 162.547 99.6007 162.514 99.646C162.084 100.057 159.587 104.966 159.536 105.067C155.866 100.976 148.309 92.435 144.459 89.583C141.277 87.225 134.503 86.056 127.198 89.156C126.162 89.5626 125.182 90.1003 124.283 90.756C122.505 92.166 123.895 94.627 127.412 93.636C131.006 92.623 130.622 91.936 127.924 94.465C127.467 94.8449 127.095 95.3155 126.83 95.847C126.733 96.1026 126.691 96.3755 126.705 96.6484C126.719 96.9213 126.79 97.1882 126.913 97.4322C127.036 97.6763 127.209 97.892 127.419 98.0659C127.63 98.2397 127.875 98.3678 128.138 98.442C129.387 98.908 130.725 98.266 131.853 97.76C132.763 97.351 133.653 96.909 134.542 96.451C133.572 97.3722 132.718 98.4085 132 99.537C131.254 100.845 131.81 102.718 133.421 102.8C134.063 102.883 134.715 102.866 135.352 102.749C135.952 104.249 136.652 105.764 137.178 107.049C138.722 110.83 139.899 114.194 142.526 117.32C143.379 118.304 144.296 119.23 145.271 120.094C147.639 122.32 150.464 124.004 153.549 125.028C156.937 125.936 162.177 126.313 165.896 125.008C169.477 123.752 173.157 121.547 177.428 117.166L177.441 117.145C177.495 117.08 177.524 116.997 177.521 116.912C177.519 116.828 177.485 116.747 177.427 116.685V116.685ZM157.649 122.161H162.006C162.092 122.166 162.174 122.203 162.233 122.266C162.292 122.329 162.326 122.412 162.326 122.499C162.326 122.585 162.292 122.668 162.233 122.731C162.174 122.794 162.092 122.831 162.006 122.836H157.649C157.563 122.831 157.481 122.794 157.422 122.731C157.362 122.668 157.329 122.585 157.329 122.499C157.329 122.412 157.362 122.329 157.422 122.266C157.481 122.203 157.563 122.166 157.649 122.161V122.161ZM142.107 94.667C141.134 94.718 140.165 94.8343 139.207 95.015C138.782 95.095 138.601 94.444 139.028 94.363C140.045 94.1705 141.075 94.0465 142.109 93.992C142.542 93.969 142.539 94.645 142.107 94.667ZM135.916 91.045C135.49 91.117 135.308 90.466 135.736 90.394C136.791 90.2167 137.853 90.0914 138.921 90.018C139.355 89.989 139.352 90.665 138.921 90.694C137.913 90.7647 136.911 90.8817 135.916 91.045ZM135.785 102.134C135.897 101.454 136.906 102.465 140.561 99.47C140.895 99.197 141.375 99.67 141.039 99.948C139.673 101.214 138.006 102.11 136.196 102.548C136.139 102.56 136.081 102.557 136.025 102.54C135.97 102.523 135.92 102.493 135.879 102.452C135.838 102.411 135.808 102.36 135.792 102.305C135.775 102.249 135.773 102.191 135.785 102.134V102.134Z"></path><path id="vector_49" fill="#000000" d="M164.367 79.288C163.83 79.956 154.974 90.947 154.92 91.021C154.846 91.121 154.814 91.127 154.893 91.471C155.003 91.957 155.333 93.123 156.071 96.213C156.087 96.2896 156.133 96.3568 156.198 96.4003C156.263 96.4438 156.342 96.4602 156.419 96.446C156.594 96.427 156.343 96.512 160.587 94.669C160.766 94.6183 160.935 94.5371 161.087 94.429C161.199 94.287 163.632 84.653 164.933 79.617C165.01 79.314 164.59 79.012 164.367 79.288Z"></path><path id="vector_50" fill="#ffaaaa" d="M136.2 102.543C138.01 102.104 139.677 101.209 141.043 99.943C141.379 99.667 140.899 99.192 140.565 99.465C139.899 100.025 139.185 100.527 138.433 100.965C136.548 102.034 135.864 101.677 135.789 102.128C135.777 102.185 135.779 102.244 135.795 102.299C135.812 102.355 135.841 102.405 135.882 102.447C135.923 102.488 135.973 102.518 136.029 102.535C136.084 102.552 136.143 102.555 136.2 102.543V102.543Z"></path><path id="vector_51" fill="#000000" d="M132.169 49.838C132.04 49.424 131.388 49.601 131.518 50.018L133.65 56.845C133.779 57.258 134.431 57.082 134.301 56.665L132.169 49.838Z"></path><path id="vector_52" fill="#000000" d="M143.622 35.749C143.638 35.7065 143.645 35.6612 143.643 35.6159C143.641 35.5705 143.63 35.526 143.61 35.485C143.591 35.444 143.563 35.4074 143.53 35.3772C143.496 35.3471 143.456 35.3241 143.413 35.3095C143.37 35.295 143.324 35.2893 143.279 35.2926C143.234 35.296 143.19 35.3084 143.149 35.3292C143.109 35.3499 143.073 35.3786 143.044 35.4134C143.015 35.4483 142.993 35.4886 142.98 35.532C142.794 36.258 137.396 57.359 137.393 57.372C137.374 57.4567 137.389 57.5453 137.433 57.6196C137.478 57.6939 137.55 57.7482 137.633 57.7712C137.717 57.7942 137.806 57.7842 137.883 57.7432C137.959 57.7022 138.017 57.6334 138.044 57.551C145.346 29.009 143.283 37.312 143.622 35.749Z"></path><path id="vector_53" fill="#000000" d="M141.563 58.712L146.929 52.912C147.224 52.593 146.748 52.112 146.452 52.434L141.086 58.234C140.791 58.553 141.267 59.032 141.563 58.712Z"></path><path id="vector_54" fill="#000000" d="M120.269 164.076C114.126 161.222 107.237 160.385 100.589 161.684C98.7565 162.047 96.9561 162.555 95.205 163.206C95.1295 163.232 95.0653 163.283 95.0234 163.351C94.9815 163.419 94.9644 163.499 94.9752 163.578C94.9859 163.657 95.0238 163.73 95.0823 163.784C95.1409 163.838 95.2164 163.87 95.296 163.875C106.65 164.739 111.016 164.351 120.096 164.705C120.169 164.704 120.24 164.679 120.298 164.634C120.356 164.589 120.398 164.526 120.418 164.455C120.437 164.384 120.433 164.309 120.406 164.241C120.38 164.173 120.331 164.115 120.269 164.076V164.076Z"></path><path id="vector_55" fill="#000000" d="M137.685 147.853C133.447 147.098 129.1 147.194 124.899 148.135C120.698 149.075 116.727 150.843 113.215 153.333C112.888 153.466 113.065 154.033 113.415 153.971C121.47 152.654 131.085 149.941 137.683 148.505C137.726 148.505 137.768 148.497 137.808 148.481C137.847 148.464 137.883 148.44 137.914 148.41C137.944 148.38 137.968 148.344 137.985 148.305C138.001 148.265 138.01 148.223 138.01 148.18C138.01 148.137 138.002 148.095 137.986 148.055C137.969 148.016 137.945 147.98 137.915 147.949C137.885 147.919 137.849 147.895 137.81 147.878C137.77 147.862 137.728 147.853 137.685 147.853Z"></path><path id="vector_56" fill="#c0c195" d="M157.569 82.65C155.581 85.1922 153.77 87.8679 152.148 90.658C152.126 90.6964 152.111 90.7388 152.105 90.7828C152.099 90.8268 152.102 90.8715 152.113 90.9144C152.124 90.9574 152.144 90.9977 152.171 91.0331C152.198 91.0684 152.231 91.0981 152.269 91.1205C152.308 91.1429 152.35 91.1575 152.394 91.1636C152.438 91.1696 152.483 91.1669 152.526 91.1556C152.569 91.1443 152.609 91.1247 152.644 91.0978C152.68 91.0709 152.71 91.0374 152.732 90.999C154.399 88.2377 156.209 85.5648 158.153 82.991C158.417 82.646 157.83 82.309 157.569 82.65Z"></path><path id="vector_57" fill="#6596e1" d="M128.076 108.741C127.688 108.941 128.029 109.521 128.416 109.324L131.152 107.932C131.539 107.732 131.198 107.152 130.811 107.349L128.076 108.741Z"></path><path id="vector_58" fill="#ffaaaa" d="M162.006 122.161H157.649C157.563 122.166 157.481 122.203 157.422 122.266C157.362 122.329 157.329 122.412 157.329 122.499C157.329 122.585 157.362 122.668 157.422 122.731C157.481 122.794 157.563 122.831 157.649 122.836H162.006C162.092 122.831 162.174 122.794 162.233 122.731C162.292 122.668 162.326 122.585 162.326 122.499C162.326 122.412 162.292 122.329 162.233 122.266C162.174 122.203 162.092 122.166 162.006 122.161V122.161Z"></path><path id="vector_59" fill="#ffaaaa" d="M140.3 71.153C139.419 72.54 138.894 74.1227 138.77 75.761C137.704 76.2641 136.743 76.9652 135.939 77.827C135.639 78.145 136.119 78.627 136.416 78.305C137.147 77.4908 138.041 76.8385 139.039 76.39C139.318 76.25 139.458 76.155 139.424 75.973C139.53 74.3818 140.031 72.8423 140.883 71.494C141.146 71.145 140.56 70.807 140.3 71.153Z"></path><path id="vector_60" fill="#ffaaaa" d="M139.205 95.015C140.163 94.8343 141.132 94.718 142.105 94.667C142.537 94.645 142.54 93.967 142.105 93.992C141.071 94.0465 140.041 94.1705 139.024 94.363C138.6 94.444 138.78 95.1 139.205 95.015Z"></path><path id="vector_61" fill="#ffaaaa" d="M135.916 91.045C136.911 90.8777 137.911 90.7607 138.916 90.694C139.347 90.665 139.35 89.994 138.916 90.018C137.849 90.0907 136.788 90.216 135.731 90.394C135.308 90.466 135.49 91.117 135.916 91.045Z"></path></g></g><g id="line"><g id="group_2"><path id="vector_62" fill="#000000" d="M79.8001 102.493L83.2511 99.939C83.5961 99.683 83.2601 99.097 82.9101 99.356L79.4591 101.91C79.1101 102.165 79.4461 102.752 79.8001 102.493Z"></path><path id="vector_63" fill="#000000" d="M81.781 104.087L85.231 101.533C85.577 101.278 85.24 100.691 84.89 100.95L81.44 103.5C81.094 103.76 81.43 104.346 81.781 104.087Z"></path><path id="vector_64" fill="#000000" d="M78.745 96.014L75.3 98.567C74.954 98.823 75.291 99.41 75.641 99.151L79.091 96.597C79.432 96.341 79.1 95.754 78.745 96.014Z"></path><path id="vector_65" fill="#000000" d="M77.6199 100.745L81.0709 98.191C81.4159 97.935 81.0799 97.349 80.7299 97.608L77.2789 100.161C76.9339 100.417 77.2699 101 77.6199 100.745Z"></path><path id="vector_66" fill="#000000" d="M75.631 123.32C75.0091 123.302 74.4008 123.134 73.8578 122.83C73.3147 122.527 72.8531 122.096 72.512 121.576C72.3612 121.358 72.2827 121.098 72.2878 120.833C72.2928 120.568 72.381 120.311 72.54 120.099C72.813 119.736 73.327 119.999 75.31 120.488C75.3949 120.508 75.4843 120.494 75.5593 120.449C75.6342 120.405 75.6891 120.333 75.7123 120.249C75.7356 120.165 75.7254 120.075 75.684 119.998C75.6425 119.921 75.573 119.864 75.49 119.837C73.609 119.358 72.771 118.99 72.132 119.555C70.432 121.307 73.119 123.972 75.632 123.996C75.6764 123.996 75.7203 123.987 75.7613 123.97C75.8023 123.953 75.8395 123.928 75.8708 123.897C75.9022 123.865 75.927 123.828 75.9439 123.787C75.9609 123.746 75.9695 123.702 75.9695 123.658C75.9694 123.613 75.9606 123.569 75.9436 123.528C75.9265 123.487 75.9016 123.45 75.8701 123.419C75.8387 123.387 75.8014 123.362 75.7604 123.346C75.7193 123.329 75.6754 123.32 75.631 123.32V123.32Z"></path><path id="vector_67" fill="#000000" d="M96.221 120.169C96.206 119.946 96.028 119.886 95.909 119.836C93.1142 118.736 90.1406 118.159 87.137 118.136C87.2021 117.78 87.3429 117.443 87.55 117.147C87.757 116.851 88.0255 116.602 88.337 116.419C89.269 116.102 89.723 116.198 90.21 115.56C90.5462 114.989 90.7162 114.335 90.701 113.673C90.745 113.136 90.923 112.153 91.621 112.131C91.7107 112.131 91.7966 112.095 91.86 112.032C91.9234 111.969 91.959 111.883 91.959 111.793C91.959 111.703 91.9234 111.617 91.86 111.554C91.7966 111.491 91.7107 111.455 91.621 111.455C91.2836 111.489 90.9653 111.628 90.7109 111.852C90.4566 112.076 90.2789 112.375 90.203 112.705C89.86 113.695 90.228 115.155 89.181 115.492C88.7901 115.577 88.405 115.687 88.028 115.821C87.6144 116.065 87.2603 116.398 86.9912 116.796C86.7221 117.194 86.5448 117.646 86.472 118.121C83.3794 118.044 80.3039 118.604 77.437 119.766C76.937 119.982 76.974 119.958 76.958 120.348C76.9942 122.699 77.9213 124.948 79.552 126.641C83.539 131.161 91.313 131.524 94.877 124.441C95.64 123.136 96.0993 121.676 96.221 120.169V120.169ZM86.343 118.8C86.304 119.065 86.274 119.334 86.25 119.6C86.211 120.033 86.887 120.03 86.926 119.6C86.95 119.327 86.977 119.064 87.012 118.812C89.673 118.865 92.3108 119.32 94.836 120.161C89.4422 121.835 83.6678 121.835 78.274 120.161C80.8616 119.232 83.5939 118.771 86.343 118.8V118.8ZM94.594 123.492C92.994 126.892 90.457 129.244 86.7 129.218C84.4693 129.218 82.3219 128.371 80.692 126.848C79.7997 126.068 79.0698 125.119 78.5443 124.056C78.0187 122.994 77.7077 121.838 77.629 120.655C83.4299 122.596 89.7042 122.599 95.507 120.664C95.3323 121.642 95.0251 122.592 94.594 123.488V123.492Z"></path><path id="vector_68" fill="#000000" d="M80.061 113.487C80.1459 113.507 80.2353 113.493 80.3102 113.448C80.3852 113.404 80.4401 113.332 80.4633 113.248C80.4866 113.164 80.4764 113.074 80.435 112.997C80.3935 112.92 80.324 112.863 80.241 112.836C78.467 112.298 65.108 108.423 64.458 108.245C64.3717 108.222 64.2799 108.234 64.2021 108.278C64.1244 108.322 64.0669 108.394 64.042 108.48C63.863 109.086 63.68 109.691 63.498 110.296C63.4818 110.339 63.4753 110.384 63.4788 110.43C63.4824 110.475 63.4959 110.519 63.5184 110.559C63.541 110.599 63.572 110.633 63.6092 110.659C63.6465 110.685 63.6891 110.703 63.734 110.711L80.061 113.487ZM74.42 111.846L64.256 110.118L64.595 108.988L74.42 111.846Z"></path><path id="vector_69" fill="#000000" d="M106.616 130.385C106.589 130.303 106.531 130.234 106.455 130.193C106.378 130.152 106.289 130.142 106.205 130.165C106.122 130.188 106.05 130.242 106.005 130.316C105.961 130.391 105.946 130.479 105.965 130.564C106.506 132.608 107.907 137.23 107.994 137.517C108.021 137.6 108.078 137.67 108.155 137.711C108.232 137.752 108.322 137.763 108.406 137.739C108.49 137.716 108.562 137.661 108.606 137.586C108.651 137.511 108.665 137.422 108.645 137.337C108.1 135.293 106.7 130.671 106.616 130.385Z"></path><path id="vector_70" fill="#000000" d="M92.51 85.915C92.47 86.348 93.145 86.345 93.186 85.915C93.2593 85.1349 93.2767 84.3506 93.238 83.568C93.216 83.135 92.538 83.132 92.562 83.568C92.6012 84.3506 92.5838 85.1349 92.51 85.915V85.915Z"></path><path id="vector_71" fill="#000000" d="M50.039 148.892L42.534 129.8C45.014 129.8 46.724 129.8 46.761 129.8C46.8056 129.803 46.8503 129.797 46.8926 129.782C46.9349 129.768 46.9738 129.745 47.0073 129.715C47.0407 129.686 47.0679 129.65 47.0872 129.609C47.1066 129.569 47.1178 129.525 47.1202 129.481C47.1226 129.436 47.1161 129.391 47.1011 129.349C47.0861 129.307 47.0629 129.268 47.0329 129.235C47.0028 129.202 46.9665 129.176 46.926 129.157C46.8855 129.138 46.8417 129.127 46.797 129.125H26.148C26.0617 129.13 25.9804 129.167 25.921 129.23C25.8615 129.293 25.8284 129.376 25.8284 129.462C25.8284 129.549 25.8615 129.632 25.921 129.695C25.9804 129.758 26.0617 129.795 26.148 129.8C27.261 129.82 28.648 129.8 30.162 129.8L22.668 148.9C22.509 149.305 23.168 149.48 23.32 149.08L30.884 129.8H41.812L49.388 149.075C49.545 149.472 50.2 149.3 50.039 148.892Z"></path><path id="vector_72" fill="#000000" d="M97.76 86.19C97.405 83.18 96.015 80.217 93.094 78.802C89.094 76.862 84.737 76.97 81.141 79.948C80.577 80.4179 80.0396 80.9187 79.531 81.448C78.9152 76.7313 77.8688 72.0809 76.405 67.555C75.5923 65.1621 74.2211 62.9974 72.405 61.24C69.123 58 64.863 55.907 58.877 55.408C58.8029 55.4076 58.7308 55.4318 58.6718 55.4766C58.6129 55.5215 58.5704 55.5845 58.551 55.656C57.916 59.885 57.437 67.778 56.983 70.591C56.1092 65.5554 54.8978 60.5841 53.357 55.711C53.3359 55.6407 53.2931 55.5788 53.2348 55.5343C53.1764 55.4897 53.1054 55.4648 53.032 55.463C46.5087 56.2173 40.2547 58.4968 34.776 62.117C25.8 68.032 21.552 74.03 14.928 82.673C10.994 87.806 9.022 90.329 7.542 93.1C3.566 100.544 4.63 108.888 8.196 113.549C9.85012 115.483 11.8511 117.091 14.096 118.29C18.5126 120.72 23.687 121.384 28.574 120.147C33.251 125.675 41.713 128.347 48.611 128.623L54.172 155.314L51.406 161.274C51.224 161.666 51.806 162.009 51.989 161.615L54.402 156.415C54.455 156.652 54.562 157.151 54.785 158.215C54.805 158.286 54.8474 158.349 54.9061 158.393C54.9647 158.438 55.0363 158.463 55.11 158.463H79.975C80.0645 158.462 80.1502 158.427 80.2134 158.363C80.2767 158.3 80.3125 158.215 80.313 158.125L79.578 152.498C82.368 152.557 95.56 152.798 97.436 152.872C97.5092 152.87 97.58 152.845 97.6377 152.8C97.6954 152.755 97.7369 152.692 97.7561 152.621C97.7754 152.551 97.7712 152.476 97.7444 152.407C97.7175 152.339 97.6693 152.282 97.607 152.243C91.8616 149.59 85.4599 148.694 79.207 149.67L78.969 147.847H97.227C97.3165 147.846 97.4021 147.811 97.4654 147.747C97.5287 147.684 97.5645 147.599 97.565 147.509L96.155 134.399C100.976 132.57 105.148 129.357 108.147 125.163C111.146 120.969 112.838 115.982 113.009 110.829C113.181 105.676 111.824 100.587 109.111 96.2031C106.398 91.819 102.448 88.3352 97.76 86.19V86.19ZM80.545 81.375C81.6981 80.1883 83.0977 79.2694 84.645 78.683C86.1318 78.2278 87.6988 78.096 89.2408 78.2965C90.7827 78.4969 92.264 79.0249 93.585 79.845C96.93 81.963 98.494 88.034 95.871 93.211C95.7373 93.484 95.5459 93.7248 95.3101 93.9166C95.0742 94.1084 94.7995 94.2467 94.505 94.322C94.2204 94.3624 93.9312 94.2926 93.6964 94.1268C93.4616 93.961 93.2991 93.7117 93.242 93.43C92.8095 91.5119 92.7734 89.5256 93.136 87.593C93.2 87.24 92.587 87.093 92.472 87.503C92.286 88.889 91.472 92.982 90.864 93.934C90.7106 94.1073 90.5215 94.2453 90.3096 94.3384C90.0978 94.4316 89.8682 94.4776 89.6368 94.4735C89.4055 94.4693 89.1777 94.4149 88.9694 94.3142C88.761 94.2135 88.577 94.0688 88.43 93.89C88.1318 93.3259 87.9799 92.696 87.988 92.058C87.7988 90.5773 87.7653 89.0808 87.888 87.593C87.922 87.217 87.281 87.126 87.224 87.503C87.066 88.54 86.849 89.569 86.597 90.587C86.4475 91.5691 86.1089 92.5129 85.6 93.366C84.942 94.425 83.1 94.009 82.966 92.303C82.6769 90.3804 82.6118 88.4307 82.772 86.493C82.798 86.18 82.391 86.071 82.195 86.254C80.304 88.022 80.009 88.954 78.21 90.608C78.055 90.797 77.8494 90.938 77.6173 91.0147C77.3852 91.0913 77.1361 91.1005 76.899 91.041C76.5028 90.97 76.1376 90.7802 75.8518 90.4967C75.566 90.2133 75.3732 89.8496 75.299 89.454C75.2136 88.5914 75.4256 87.7255 75.9 87C77.2849 84.9959 78.8389 83.114 80.545 81.375V81.375ZM60.437 101.122C61.6404 101.946 62.7182 102.94 63.637 104.073C63.9766 104.421 64.2181 104.853 64.337 105.325C64.447 106.11 63.624 106.359 63 106.374C61.0101 106.135 59.108 105.417 57.457 104.281C56.857 103.941 56.6 105.447 50.123 109.967C47.303 102.94 44.123 95.605 42.802 91.294C50.16 89.099 58.818 88.487 66.002 91.46C67.7619 92.1763 69.273 93.3933 70.348 94.96C70.837 95.777 71.285 97.29 70.248 97.898C69.6703 98.1498 69.0224 98.1902 68.418 98.012C67.6512 97.863 66.8974 97.653 66.164 97.384C65.778 97.243 65.616 97.793 65.904 98.001C69.145 100.353 68.249 103.101 66.561 102.801C65.5961 102.651 64.6527 102.386 63.751 102.011C62.721 101.605 61.7269 101.113 60.779 100.541C60.4 100.308 60.082 100.878 60.437 101.122ZM74.652 89.513L69.952 93.344C69.563 92.9333 69.1383 92.5578 68.683 92.222C70.5216 90.3482 72.6233 88.7521 74.922 87.484C74.6445 88.1219 74.5509 88.8247 74.652 89.513ZM68.63 98.731C68.9988 98.8148 69.3808 98.8232 69.753 98.7559C70.1251 98.6885 70.4799 98.5467 70.796 98.339C71.953 97.439 71.596 95.701 70.93 94.621C70.7655 94.3536 70.5848 94.0965 70.389 93.851L74.863 90.205C75.0335 90.5806 75.2899 90.9109 75.6114 91.1694C75.9328 91.4278 76.3105 91.6072 76.714 91.693C77.1476 91.771 77.5944 91.7249 78.0029 91.56C78.4114 91.3951 78.765 91.1181 79.023 90.761C83.693 94.028 82.113 92.843 82.753 93.705C82.9627 93.9803 83.2312 94.2052 83.539 94.3634C83.8468 94.5215 84.1861 94.6089 84.532 94.619C94.313 101.456 93.466 100.855 93.865 101.155L82.3 109.9C80.821 108.839 68.548 99.747 68.192 99.472C67.4 98.113 66.905 98.479 68.63 98.731ZM82.259 92.205L79.5 90.271C80.367 89.338 81.132 88.28 82.035 87.349C81.962 88.9711 82.0369 90.5965 82.259 92.205V92.205ZM21.5 119.954C16.9091 119.439 12.6449 117.328 9.452 113.989C5.816 110.255 3.991 102.018 7.735 94.226C9.29103 91.3042 11.1356 88.5455 13.241 85.991C22.018 74.401 26.541 68.228 35.511 62.446C40.7164 59.0601 46.6289 56.913 52.794 56.17C53.081 57.063 54.626 62.526 54.953 63.977C55.569 66.714 55.927 69.507 56.663 72.216C56.6891 72.2888 56.737 72.3517 56.8002 72.3961C56.8634 72.4406 56.9387 72.4645 57.016 72.4645C57.0933 72.4645 57.1686 72.4406 57.2318 72.3961C57.295 72.3517 57.3429 72.2888 57.369 72.216C58.424 66.416 58.207 62.705 59.169 56.116C67.975 56.796 73.95 62.194 75.758 67.739C77.2691 72.4107 78.3352 77.2147 78.942 82.087C77.6992 83.463 76.5379 84.9105 75.464 86.422C72.7327 87.8057 70.2508 89.6344 68.12 91.833C63.245 88.659 54.884 88.333 49.365 89.173C43.9807 90.0387 38.7312 91.5987 33.748 93.814C36.5111 89.6856 38.7052 85.2036 40.271 80.489C40.408 80.076 39.756 79.898 39.619 80.309C37.9372 85.3095 35.5393 90.0397 32.5 94.352C30.644 95.159 27.215 96.652 26.362 97.042C25.962 97.22 26.31 97.802 26.703 97.625C37.81 92.625 41.279 91.773 42.149 91.501C43.327 95.39 48.058 106.625 49.556 110.349C43.4028 114.547 36.5318 117.581 29.284 119.3C26.7457 119.961 24.113 120.182 21.5 119.954V119.954ZM95.722 152.143C92.937 152.051 82.697 151.915 79.488 151.828L79.295 150.348C84.8338 149.485 90.5022 150.105 95.724 152.143H95.722ZM79.581 157.793H55.381L54.87 155.403L65.545 132.41C65.726 132.018 65.145 131.674 64.961 132.069L54.647 154.291L49.211 128.205C49.1906 128.134 49.1478 128.072 49.0891 128.027C49.0304 127.982 48.9588 127.958 48.885 127.957C46.1621 127.842 43.4617 127.412 40.838 126.675C36.436 125.595 32.4374 123.271 29.319 119.982C39.8099 117.535 49.4699 112.365 57.324 104.992C58.459 105.704 59.6784 106.271 60.954 106.681C60.2312 112.295 61.355 117.991 64.1556 122.91C66.9562 127.829 71.2814 131.703 76.478 133.946C76.835 136.682 79.487 157.234 79.583 157.793H79.581ZM96.851 147.178H78.882L77.193 134.247C83.0426 136.617 89.5585 136.76 95.506 134.647L96.851 147.178ZM109.151 122.34C106.284 127.506 101.709 131.513 96.2107 133.675C90.7126 135.838 84.6337 136.021 79.0155 134.193C73.3974 132.365 68.59 128.64 65.4172 123.656C62.2444 118.672 60.9037 112.74 61.625 106.876C62.919 107.21 64.588 107.141 64.962 105.876C65.31 104.694 64.049 103.433 63.087 102.466C64.2339 102.969 65.4457 103.309 66.687 103.476C68.117 103.586 69.014 102.326 68.679 100.723C70.049 101.767 81.585 110.223 82.13 110.614C82.1812 110.646 82.2402 110.663 82.3005 110.663C82.3608 110.663 82.4198 110.646 82.471 110.614L94.617 101.43C94.6666 101.399 94.7076 101.356 94.7359 101.305C94.7643 101.254 94.7792 101.197 94.7792 101.139C94.7792 101.08 94.7643 101.023 94.7359 100.972C94.7076 100.921 94.6666 100.878 94.617 100.847C94.017 100.447 86.599 95.247 85.409 94.413C86.409 93.862 86.753 92.63 87.055 91.535C87.285 90.701 87.155 90.555 87.303 91.935C87.327 92.63 87.462 93.3167 87.703 93.969C87.8953 94.3222 88.1796 94.6168 88.5256 94.8217C88.8717 95.0265 89.2667 95.1339 89.6689 95.1326C90.071 95.1313 90.4653 95.0212 90.81 94.8141C91.1547 94.607 91.437 94.3105 91.627 93.956C91.9031 93.3012 92.1219 92.6237 92.281 91.931C92.381 93.059 92.622 94.739 93.971 94.985C96.319 95.412 98.091 91.277 97.833 86.974C100.966 88.4787 103.76 90.6068 106.042 93.2282C108.325 95.8496 110.049 98.9091 111.108 102.22C112.168 105.53 112.541 109.022 112.204 112.481C111.868 115.941 110.829 119.296 109.152 122.34H109.151Z"></path><path id="vector_73" fill="#000000" d="M59.011 87.373C58.541 82.973 58.1003 78.5697 57.689 74.163C57.649 73.733 56.973 73.729 57.014 74.163C57.4247 78.569 57.8653 82.9723 58.336 87.373C58.381 87.8 59.057 87.806 59.011 87.373Z"></path><path id="vector_74" fill="#000000" d="M10.491 108.529C10.364 108.115 9.71205 108.291 9.84005 108.708C10.1187 109.702 10.5405 110.65 11.092 111.523C11.331 111.882 11.918 111.545 11.676 111.182C11.1543 110.36 10.7551 109.466 10.491 108.529V108.529Z"></path><path id="vector_75" fill="#000000" d="M69.92 48.6641C69.874 46.4141 67.052 45.5381 64.797 47.6251C63.9555 48.2433 63.2643 49.0435 62.775 49.9661L58.375 50.1531C58.5796 49.4992 58.6024 48.8019 58.441 48.1361C58.921 47.0091 59.0121 45.7545 58.7 44.5701C59.3023 43.9418 59.8698 43.2812 60.4 42.5911C61.0334 41.8774 61.5118 41.0401 61.805 40.1321C61.9405 39.7327 61.9603 39.3031 61.8621 38.8929C61.7639 38.4828 61.5518 38.1087 61.2502 37.8139C60.9486 37.5191 60.5698 37.3156 60.1575 37.2268C59.7452 37.138 59.3163 37.1675 58.92 37.3121C58.0119 37.6235 57.186 38.1363 56.504 38.8121C55.0115 40.3206 53.6892 41.9886 52.561 43.7861C50.82 45.3341 49.885 47.8391 51.574 49.6141C50.243 51.6681 50.074 54.0641 52.188 54.8551C54.588 55.7551 57.176 53.1971 58.146 50.8391L62.403 50.6591C60.491 54.4591 65.126 57.4111 68.759 52.2591C69.5197 51.2153 69.9266 49.9556 69.92 48.6641V48.6641ZM58.3 38.3001C58.6676 38.0308 59.1132 37.8893 59.5688 37.8971C60.0243 37.9048 60.4648 38.0615 60.823 38.3431C61.949 39.5881 60.516 41.3681 59.735 42.3551C59.306 42.8971 58.574 43.7021 58.403 43.8611C57.488 42.0781 55.703 41.9931 54.078 42.7701C55.1566 41.0007 56.595 39.4778 58.3 38.3001V38.3001ZM56.1 43.0001C57.908 43.1181 58.581 45.5001 58.014 47.2861C57.069 46.1181 55.057 46.1041 53.414 47.6261C52.8834 48.0368 52.406 48.5121 51.993 49.0411C50.132 46.8251 53.056 43.0091 56.1 43.0001ZM57.735 48.1001C57.5314 48.5859 57.2193 49.0187 56.8226 49.3652C56.4259 49.7118 55.9552 49.963 55.4464 50.0996C54.9376 50.2362 54.4044 50.2545 53.8874 50.1532C53.3705 50.0519 52.8836 49.8336 52.464 49.5151C52.7687 49.1235 53.1129 48.7642 53.491 48.4431C55.532 46.4781 57.273 46.9591 57.73 48.1001H57.735ZM55.735 53.1591C55.0974 53.8372 54.2369 54.2632 53.311 54.3591C52.8494 54.406 52.3868 54.28 52.0127 54.0055C51.6387 53.731 51.3797 53.3275 51.286 52.8731C51.1983 51.877 51.4834 50.8839 52.086 50.0861C52.9675 50.733 54.0694 51.0045 55.1506 50.841C56.2317 50.6776 57.2041 50.0926 57.855 49.2141C57.6124 50.7289 56.865 52.1174 55.734 53.1541L55.735 53.1591ZM67.125 53.1591C66.4879 53.8374 65.6277 54.2634 64.702 54.3591C64.2403 54.406 63.7776 54.2801 63.4033 54.0056C63.0291 53.7311 62.7699 53.3276 62.676 52.8731C62.281 50.9101 64.647 48.0491 66.703 47.2531C66.9381 47.1392 67.1953 47.0782 67.4564 47.0743C67.7176 47.0705 67.9765 47.1239 68.2148 47.2309C68.4531 47.3378 68.665 47.4957 68.8358 47.6934C69.0065 47.8911 69.1319 48.1237 69.203 48.3751C69.474 50.1211 68.325 52.0251 67.124 53.1541L67.125 53.1591Z"></path><path id="vector_76" fill="#000000" d="M47.684 47.457C44.094 45.076 41.968 45.883 40.112 49.396C39.912 49.781 40.487 50.119 40.696 49.737C41.459 48.337 42.472 46.694 44.287 46.777C45.945 46.977 46.666 47.593 49.645 49.553C50.009 49.793 50.345 49.208 49.986 48.97C49.219 48.465 48.449 47.965 47.684 47.457Z"></path><path id="vector_77" fill="#000000" d="M81.323 164.086C81.3962 164.084 81.4668 164.059 81.5243 164.013C81.5818 163.968 81.6232 163.906 81.6423 163.835C81.6614 163.764 81.6572 163.689 81.6303 163.621C81.6034 163.553 81.5552 163.496 81.493 163.457C75.3502 160.603 68.4617 159.765 61.814 161.065C59.9812 161.428 58.1804 161.937 56.429 162.587C56.3531 162.612 56.2885 162.663 56.2462 162.731C56.2039 162.799 56.1867 162.88 56.1975 162.959C56.2083 163.038 56.2464 163.111 56.3053 163.165C56.3642 163.219 56.4401 163.251 56.52 163.255C67.839 164.116 72.345 163.736 81.323 164.086ZM79.611 163.351C72.969 163.131 64.111 163.213 58.089 162.716C65.1213 160.438 72.7252 160.662 79.611 163.351V163.351Z"></path><path id="vector_78" fill="#000000" d="M87.518 85.26C87.475 85.692 88.151 85.689 88.193 85.26L88.423 82.913C88.465 82.481 87.789 82.484 87.747 82.913L87.518 85.26Z"></path><path id="vector_79" fill="#000000" d="M58.335 99.066L55.764 98.08C55.358 97.924 55.182 98.58 55.584 98.731L58.155 99.717C58.562 99.873 58.737 99.22 58.335 99.066Z"></path><path id="vector_80" fill="#000000" d="M58.5201 93.66C59.5177 93.8968 60.4693 94.2972 61.3361 94.845C61.7041 95.078 62.0431 94.494 61.6771 94.261C60.7601 93.6831 59.7544 93.2598 58.7001 93.008C58.2771 92.906 58.1001 93.558 58.5201 93.66Z"></path><path id="vector_81" fill="#000000" d="M165.036 67.548C165.654 67.8082 166.322 67.9298 166.992 67.9042C167.662 67.8787 168.319 67.7067 168.916 67.4002C169.512 67.0938 170.035 66.6604 170.446 66.1305C170.857 65.6006 171.147 64.9871 171.296 64.333C171.967 60.487 167.579 57.641 164.796 60.266C162.658 62.276 162.385 66.417 165.036 67.548ZM168.285 60.116C168.771 60.3238 169.207 60.6333 169.563 61.0237C169.92 61.4141 170.188 61.8763 170.351 62.3792C170.514 62.8821 170.567 63.414 170.507 63.9391C170.446 64.4643 170.274 64.9704 170.002 65.4235C169.73 65.8766 169.364 66.2661 168.929 66.5658C168.493 66.8656 167.999 67.0685 167.478 67.161C166.958 67.2536 166.424 67.2335 165.912 67.1023C165.4 66.971 164.922 66.7315 164.51 66.4C162.625 64.31 164.742 58.873 168.285 60.116Z"></path><path id="vector_82" fill="#000000" d="M154.92 91.021C154.741 91.269 154.812 90.94 156.071 96.213C156.089 96.2912 156.137 96.3594 156.204 96.4026C156.272 96.4458 156.354 96.4607 156.432 96.444C157.848 95.9273 159.235 95.3347 160.587 94.669C160.766 94.6183 160.935 94.5371 161.087 94.429C161.2 94.287 163.632 84.653 164.933 79.617C165.011 79.317 164.591 79.012 164.368 79.288C151.876 94.8 155.584 90.1 154.92 91.021ZM160.56 93.949L156.626 95.658L155.519 91.348L163.893 80.948L160.56 93.949Z"></path><path id="vector_83" fill="#000000" d="M178.673 162.213L171.193 143.183C173.523 143.158 174.978 143.124 175.431 143.116C175.517 143.111 175.599 143.074 175.658 143.011C175.717 142.948 175.751 142.865 175.751 142.779C175.751 142.692 175.717 142.609 175.658 142.546C175.599 142.483 175.517 142.446 175.431 142.441C175.431 142.441 154.794 142.441 154.782 142.441C154.696 142.446 154.614 142.483 154.555 142.546C154.495 142.609 154.462 142.692 154.462 142.779C154.462 142.865 154.495 142.948 154.555 143.011C154.614 143.074 154.696 143.111 154.782 143.116C156.173 143.14 157.503 143.159 158.773 143.173L151.302 162.213C151.143 162.613 151.796 162.793 151.953 162.392L159.497 143.181C164.058 143.227 167.77 143.216 170.474 143.191L178.022 162.391C178.179 162.793 178.833 162.618 178.673 162.213Z"></path><path id="vector_84" fill="#000000" d="M132.169 49.838C132.04 49.424 131.388 49.601 131.518 50.018L133.65 56.845C133.779 57.258 134.431 57.082 134.301 56.665L132.169 49.838Z"></path><path id="vector_85" fill="#000000" d="M143.622 35.749C143.638 35.7065 143.645 35.6612 143.643 35.6159C143.641 35.5705 143.63 35.526 143.61 35.485C143.591 35.444 143.563 35.4074 143.53 35.3772C143.496 35.3471 143.456 35.3241 143.413 35.3095C143.37 35.295 143.324 35.2893 143.279 35.2926C143.234 35.296 143.19 35.3084 143.149 35.3292C143.109 35.3499 143.073 35.3786 143.044 35.4134C143.015 35.4483 142.993 35.4886 142.98 35.532L137.393 57.372C137.374 57.4567 137.389 57.5453 137.433 57.6196C137.478 57.6939 137.55 57.7482 137.633 57.7712C137.717 57.7942 137.806 57.7842 137.883 57.7432C137.959 57.7022 138.017 57.6334 138.044 57.551C139.217 52.966 143.523 36.205 143.622 35.749Z"></path><path id="vector_86" fill="#000000" d="M141.563 58.712L146.929 52.912C147.224 52.593 146.748 52.112 146.452 52.434L141.086 58.234C140.791 58.553 141.267 59.032 141.563 58.712Z"></path><path id="vector_87" fill="#000000" d="M120.269 164.076C114.126 161.222 107.237 160.385 100.589 161.684C98.7565 162.047 96.9561 162.555 95.205 163.206C95.1295 163.232 95.0653 163.283 95.0234 163.351C94.9815 163.419 94.9644 163.499 94.9752 163.578C94.9859 163.657 95.0238 163.73 95.0823 163.784C95.1409 163.838 95.2164 163.87 95.296 163.875C106.65 164.739 111.016 164.351 120.096 164.705C120.169 164.704 120.24 164.679 120.298 164.634C120.356 164.589 120.398 164.526 120.418 164.455C120.437 164.384 120.433 164.309 120.406 164.241C120.38 164.173 120.331 164.115 120.269 164.076V164.076ZM118.387 163.97C111.745 163.75 102.887 163.832 96.864 163.335C103.897 161.058 111.501 161.282 118.387 163.97V163.97Z"></path><path id="vector_88" fill="#000000" d="M194.985 82.336C194.853 81.2999 194.517 80.3001 193.998 79.3936C193.479 78.4872 192.787 77.6919 191.96 77.0533C191.133 76.4146 190.189 75.9451 189.181 75.6715C188.173 75.398 187.121 75.3258 186.085 75.459C188.837 69.821 183.526 63.439 176.443 65.2C178.023 58.339 170.029 52.534 164.881 57.908C161.022 61.936 159.058 70.584 158.319 76.108C152.279 78.157 148.51 80.869 143.387 84.831C145.512 77.721 147.302 70.705 146.166 63.642C146.01 62.67 145.828 61.465 144.728 61.142C144.267 61.0401 143.787 61.0798 143.349 61.256C142.912 61.4321 142.537 61.7364 142.276 62.129C141.7 63.1788 141.383 64.351 141.352 65.548C141.227 66.6502 141.167 67.7588 141.171 68.868L132.75 62.051C131.658 61.167 130.05 59.995 128.617 60.8C127.249 61.568 127.211 63.4 127.954 64.751C128.472 65.6915 129.098 66.5681 129.82 67.363C128.247 66.614 125.997 65.84 124.492 66.716C123.956 67.0394 123.559 67.5502 123.378 68.1494C123.196 68.7486 123.244 69.3938 123.511 69.96C124.272 71.884 127.357 73.602 129.242 74.388C127.896 74.269 126.558 73.995 125.203 73.988C123.663 73.978 121.637 74.366 121.348 76.17C121.239 76.8495 121.339 77.546 121.636 78.1671C121.932 78.7882 122.41 79.3047 123.006 79.648C124.1 80.133 125.28 80.3948 126.476 80.418C127.607 80.534 128.742 80.584 129.876 80.637C128.421 83.4692 127.257 86.4413 126.401 89.508C125.648 89.8428 124.935 90.2611 124.276 90.755C122.952 91.805 123.333 93.544 125.369 93.83C124.619 97.991 124.257 103.337 126.244 107.081C121.479 110.132 119.172 116.181 117.783 121.666C115.57 125.655 100.853 152.266 100.843 152.284C100.799 152.363 100.788 152.457 100.813 152.544C100.837 152.632 100.896 152.706 100.975 152.75C101.232 152.894 98.752 151.876 125.686 161.45C125.758 161.469 125.834 161.464 125.902 161.436C125.971 161.408 126.029 161.359 126.067 161.295C127.837 158.403 132.673 150.908 133.609 149.446C135.053 149.099 136.42 148.779 137.678 148.505C137.748 148.484 137.809 148.44 137.852 148.382C137.896 148.323 137.919 148.252 137.919 148.179C137.919 148.106 137.896 148.035 137.852 147.976C137.809 147.918 137.748 147.874 137.678 147.853C136.753 147.666 135.818 147.527 134.878 147.438L136.307 145.1L138.429 145.3C138.503 145.3 138.575 145.276 138.634 145.231C138.693 145.186 138.735 145.123 138.755 145.052L139.436 141.104C160.872 141.104 162.436 141.258 165.936 140.504C171.423 139.316 176.418 136.482 180.253 132.381C184.088 128.281 186.581 123.108 187.4 117.553C188.1 112.853 187.47 97.575 185.988 90.917C191.15 90.538 195.31 86.406 194.985 82.336ZM130.709 80.491C130.738 80.4395 130.752 80.3814 130.752 80.3224C130.752 80.2635 130.736 80.2056 130.706 80.1545C130.677 80.1034 130.635 80.0607 130.584 80.0307C130.534 80.0006 130.476 79.9842 130.417 79.983C129.391 79.948 128.366 79.883 127.341 79.817C126.168 79.7716 125.004 79.5884 123.873 79.271C122.156 78.749 121.294 76.331 122.653 75.248C124.901 73.862 128.224 75.372 131.2 75.083C131.28 75.0801 131.357 75.049 131.416 74.9952C131.475 74.9414 131.514 74.8683 131.525 74.7889C131.535 74.7095 131.518 74.6288 131.475 74.5612C131.432 74.4935 131.366 74.4431 131.29 74.419C129.155 73.769 125.784 72.088 124.531 70.409C123.886 69.545 123.641 68.124 124.656 67.409C126.367 66.209 129.934 67.985 131.656 69.191C131.968 69.41 132.356 68.912 132.065 68.661C130.883 67.6404 129.846 66.4628 128.984 65.161C128.121 64.01 127.684 62.342 128.852 61.449C130.1 60.643 131.671 62.038 132.583 62.776L141.283 69.819C141.316 69.8499 141.354 69.8739 141.396 69.8899C141.438 69.9058 141.483 69.9133 141.528 69.9119C141.573 69.9105 141.617 69.9003 141.658 69.8818C141.699 69.8633 141.736 69.8368 141.767 69.804C141.967 69.59 141.731 69.73 141.961 66.255C142.005 65.2232 142.18 64.2011 142.481 63.213C143.075 61.413 144.922 61.34 145.253 62.561C145.394 63.0793 145.5 63.6065 145.57 64.139C146.552 71.586 144.58 78.558 142.444 85.645C142.337 86 142.765 86.164 143.009 85.974C143.584 85.526 144.161 85.081 144.74 84.639C145.832 87.8712 147.309 90.9601 149.14 93.839C146.059 90.751 143.989 88.573 140.34 87.784C135.929 86.8052 131.32 87.286 127.206 89.154C128.081 86.1564 129.254 83.2541 130.709 80.491V80.491ZM124.309 92.591C123.486 91.491 126.357 90.227 127.622 89.696C131.478 87.9786 135.775 87.5161 139.908 88.374C142.939 88.974 144.5 90.292 146.724 92.421C151.224 96.721 155.299 101.361 159.369 105.894C159.406 105.93 159.45 105.957 159.499 105.974C159.548 105.99 159.6 105.995 159.651 105.988C159.702 105.982 159.751 105.963 159.794 105.935C159.837 105.907 159.873 105.869 159.899 105.825C160.83 104.001 161.751 102.17 162.822 100.425C167.281 106.285 171.632 111.288 176.722 116.908C173.968 119.809 170.687 122.159 167.054 123.832C164.151 125.05 160.975 125.475 157.854 125.062C156.855 124.998 155.861 124.866 154.88 124.667C151.709 123.909 148.781 122.359 146.372 120.162C141.049 115.478 140.456 113.485 136.014 102.593C137.879 102.132 139.604 101.224 141.04 99.947C141.376 99.671 140.896 99.196 140.562 99.47C139.895 100.03 139.182 100.532 138.43 100.97C136.906 101.854 135.149 102.254 133.393 102.116C133.216 102.09 133.046 102.026 132.896 101.929C132.745 101.831 132.617 101.703 132.52 101.552C132.423 101.401 132.36 101.232 132.334 101.054C132.308 100.877 132.32 100.696 132.37 100.524C132.668 99.5851 133.22 98.7467 133.964 98.101C134.746 97.23 135.518 96.35 136.31 95.489C136.365 95.43 136.397 95.3535 136.401 95.273C136.404 95.1926 136.379 95.1134 136.33 95.0497C136.281 94.9859 136.211 94.9417 136.132 94.9249C136.053 94.9081 135.971 94.9199 135.9 94.958C134.225 95.9005 132.5 96.7524 130.734 97.51C130.178 97.7669 129.574 97.9048 128.962 97.915C128.062 97.908 127.048 97.129 127.433 96.143C127.673 95.6612 128.016 95.2381 128.438 94.904C129.85 93.5822 131.435 92.4571 133.148 91.559C133.48 91.383 133.248 90.808 132.888 90.941C127.833 92.798 126.978 93.255 125.708 93.187C125.447 93.1901 125.189 93.139 124.949 93.0369C124.709 92.9348 124.493 92.784 124.314 92.594L124.309 92.591ZM126.049 93.855C127.423 93.6835 128.763 93.301 130.02 92.721C129.283 93.254 128.582 93.8342 127.92 94.458C127.464 94.8382 127.091 95.3087 126.826 95.84C126.729 96.0956 126.687 96.3685 126.701 96.6413C126.716 96.9141 126.787 97.181 126.91 97.425C127.033 97.669 127.205 97.8848 127.416 98.0586C127.626 98.2325 127.871 98.3607 128.134 98.435C129.383 98.901 130.721 98.259 131.849 97.753C132.759 97.344 133.649 96.902 134.538 96.444C133.569 97.3676 132.717 98.4063 132 99.537C131.254 100.845 131.81 102.718 133.421 102.8C134.063 102.883 134.715 102.866 135.352 102.749C135.792 103.841 136.272 104.916 136.736 105.998C132.595 104.798 129.427 105.268 126.836 106.729C124.949 103.171 125.324 97.838 126.054 93.858L126.049 93.855ZM114.849 153.037C121.08 149.06 128.495 147.359 135.837 148.223C129.337 149.693 120.8 152 114.851 153.04L114.849 153.037ZM134.124 147.373C126.68 146.936 119.309 149.036 113.213 153.33C112.887 153.463 113.062 154.03 113.413 153.968C119.604 152.956 126.707 151.121 132.666 149.668C131.711 151.168 125.843 160.381 125.636 160.71L101.625 152.258C102.117 151.358 115.225 127.658 117.214 124.08C115.856 130.246 114.82 137.852 114.272 142.715C114.251 142.908 114.446 143.037 114.61 143.052L135.556 145.022L134.124 147.373ZM138.158 144.595C137.458 144.53 115.188 142.426 114.987 142.406C115.487 138.052 116.135 133.765 116.837 129.532C118.323 120.577 121.059 108.332 129.911 106.232C132.306 105.819 134.767 106.012 137.069 106.793C139.244 111.987 140.226 115.467 144.728 119.593C142.345 120.463 142.272 120.418 142.21 120.64C141.609 124.5 138.268 143.983 138.16 144.6L138.158 144.595ZM164.125 140.148C161.766 140.473 161.877 140.484 139.562 140.408C140.981 132.12 142.675 121.99 142.836 120.976L145.29 120.101C147.65 122.325 150.468 124.004 153.546 125.022C156.934 125.93 162.175 126.307 165.893 125.002C169.441 123.709 172.683 121.695 175.415 119.088C179.31 119.067 183.17 118.353 186.815 116.979C186.072 122.785 183.455 128.19 179.36 132.372C175.265 136.555 169.916 139.286 164.127 140.151L164.125 140.148ZM186.896 116.238C183.462 117.549 179.834 118.279 176.161 118.4C180.801 113.948 184.401 108.526 186.701 102.521C187.063 107.085 187.129 111.668 186.9 116.241L186.896 116.238ZM186.466 99.591C186.575 100.777 186.966 100.467 185.182 104.503C183.222 108.907 180.516 112.94 177.182 116.422C173.144 112.039 167.437 105.413 163.195 99.817C166.613 94.483 170.174 90.148 175.374 86.952C175.451 86.9068 175.508 86.8327 175.531 86.7459C175.553 86.6592 175.541 86.567 175.495 86.4895C175.45 86.4121 175.376 86.3558 175.289 86.333C175.203 86.3102 175.11 86.3228 175.033 86.368C170.879 88.9267 167.341 92.3702 164.67 96.453C162.684 99.1515 160.965 102.036 159.536 105.066C149.463 93.838 152.266 97.438 150.207 94.272C149.558 93.272 149.058 92.301 147.523 89.472C146.59 87.7917 145.872 86.0006 145.387 84.141C150.861 79.6404 157.35 76.5432 164.292 75.118C173.62 73.038 180.133 76.233 184.225 87.308C185.449 91.3019 186.202 95.4253 186.468 99.594L186.466 99.591ZM185.835 90.233C185.342 88.3824 184.712 86.571 183.95 84.814C182.915 82.2741 181.405 79.9552 179.5 77.982C173.888 72.318 166.567 73.393 159.032 75.868C159.961 69.459 162.765 56.875 169.132 56.481C173.564 56.207 177.189 61.161 175.632 65.581C175.617 65.6385 175.618 65.6988 175.633 65.7561C175.649 65.8133 175.679 65.8655 175.721 65.9074C175.763 65.9493 175.816 65.9795 175.873 65.9951C175.93 66.0106 175.991 66.0109 176.048 65.996C177.175 65.6236 178.367 65.4934 179.548 65.6141C180.728 65.7347 181.87 66.1034 182.898 66.696C183.652 67.1353 184.309 67.7223 184.83 68.4218C185.352 69.1213 185.726 69.919 185.932 70.7669C186.137 71.6148 186.169 72.4955 186.026 73.3561C185.883 74.2167 185.567 75.0394 185.098 75.775C184.924 76.023 185.212 76.346 185.48 76.275C187.025 75.9212 188.643 76.0775 190.091 76.7206C191.539 77.3637 192.74 78.4589 193.514 79.842C196.2 84.56 191.594 89.872 185.837 90.236L185.835 90.233Z"></path><path id="vector_89" fill="#000000" d="M157.569 82.65C155.581 85.1925 153.77 87.8681 152.148 90.658C152.126 90.6964 152.111 90.7388 152.105 90.7828C152.099 90.8268 152.102 90.8715 152.113 90.9144C152.124 90.9574 152.144 90.9977 152.171 91.0331C152.198 91.0684 152.231 91.0981 152.269 91.1205C152.308 91.1429 152.35 91.1575 152.394 91.1636C152.438 91.1696 152.483 91.1669 152.526 91.1556C152.569 91.1443 152.609 91.1247 152.644 91.0978C152.68 91.0709 152.71 91.0374 152.732 90.999C154.399 88.2377 156.209 85.5648 158.153 82.991C158.417 82.646 157.83 82.309 157.569 82.65Z"></path><path id="vector_90" fill="#000000" d="M128.076 108.741C127.688 108.941 128.029 109.521 128.416 109.324L131.152 107.932C131.539 107.732 131.198 107.152 130.811 107.349L128.076 108.741Z"></path><path id="vector_91" fill="#000000" d="M162.006 122.161H157.649C157.563 122.166 157.481 122.203 157.422 122.266C157.362 122.329 157.329 122.412 157.329 122.499C157.329 122.585 157.362 122.668 157.422 122.731C157.481 122.794 157.563 122.831 157.649 122.836H162.006C162.092 122.831 162.174 122.794 162.233 122.731C162.292 122.668 162.326 122.585 162.326 122.499C162.326 122.412 162.292 122.329 162.233 122.266C162.174 122.203 162.092 122.166 162.006 122.161V122.161Z"></path><path id="vector_92" fill="#000000" d="M140.3 71.153C139.425 72.5367 138.905 74.1145 138.785 75.747C137.715 76.2572 136.75 76.9626 135.939 77.827C135.639 78.145 136.119 78.627 136.416 78.305C137.266 77.4313 138.265 76.7155 139.365 76.191C139.391 76.1609 139.41 76.1251 139.421 76.0864C139.431 76.0478 139.432 76.0072 139.424 75.968C139.53 74.3785 140.032 72.8407 140.883 71.494C141.146 71.145 140.56 70.807 140.3 71.153Z"></path><path id="vector_93" fill="#000000" d="M139.205 95.015C140.163 94.8343 141.132 94.718 142.105 94.667C142.537 94.645 142.54 93.967 142.105 93.992C141.071 94.0465 140.041 94.1705 139.024 94.363C138.6 94.444 138.78 95.1 139.205 95.015Z"></path><path id="vector_94" fill="#000000" d="M135.916 91.045C136.911 90.8777 137.911 90.7607 138.916 90.694C139.347 90.665 139.35 89.994 138.916 90.018C137.849 90.0907 136.788 90.216 135.731 90.394C135.308 90.466 135.49 91.117 135.916 91.045Z"></path></g></g></g></svg>