<svg xmlns="http://www.w3.org/2000/svg" fill="none" viewBox="0 0 200 200"><path fill="#000000" d="M60.3409 89.422C60.3395 89.3581 60.3215 89.2957 60.2889 89.2408C60.2563 89.1858 60.21 89.1403 60.1546 89.1085C60.0991 89.0767 60.0364 89.0598 59.9726 89.0593C59.9087 89.0589 59.8458 89.075 59.7899 89.106C57.7179 90.315 55.6219 89.423 52.2639 89.706C48.4639 90.029 43.9639 92.17 42.1409 95.606C41.4089 96.984 40.8809 98.984 41.9159 100.128C43.8379 96.44 48.6839 96.105 51.7679 98.405C52.01 98.5669 52.2305 98.7591 52.4239 98.977C54.5067 98.4648 56.42 97.4183 57.9749 95.941C58.8263 95.0966 59.4801 94.0741 59.8892 92.9469C60.2983 91.8197 60.4525 90.6159 60.3409 89.422V89.422Z"></path><path fill="#000000" d="M32.5998 100.1C31.9468 98.9508 31.0222 97.9792 29.9068 97.27C29.1414 96.8589 28.2901 96.6335 27.4215 96.6121C26.5529 96.5908 25.6915 96.774 24.9068 97.147C23.9615 97.7288 23.2226 98.5926 22.7946 99.6167C22.3665 100.641 22.2707 101.774 22.5208 102.855C22.6268 103.314 23.3328 103.12 23.2278 102.66C23.0171 101.761 23.0871 100.818 23.4284 99.9602C23.7698 99.1019 24.366 98.3689 25.1368 97.86C25.8273 97.4937 26.5995 97.3088 27.381 97.3227C28.1625 97.3365 28.9277 97.5486 29.6048 97.939C31.8048 99.133 34.4278 104.823 37.0398 109.19C37.0889 109.274 37.1692 109.335 37.2632 109.359C37.3097 109.371 37.3582 109.374 37.4058 109.368C37.4534 109.361 37.4993 109.345 37.5408 109.321C37.5823 109.297 37.6186 109.264 37.6477 109.226C37.6767 109.188 37.6979 109.144 37.7101 109.098C37.7222 109.051 37.7251 109.003 37.7186 108.955C37.712 108.907 37.6961 108.862 37.6718 108.82C36.6178 106.9 33.8338 101.909 32.5998 100.1Z"></path><path fill="#000000" d="M68.206 107.019C66.778 99.163 58.682 98.26 56.382 103.166C55.6753 104.671 55.3419 106.324 55.41 107.985C55.297 107.925 55.568 107.944 51.61 107.944C51.343 104.844 49.59 101.639 46.676 100.544C45.3944 99.9982 43.9521 99.966 42.6474 100.454C41.3428 100.942 40.2757 101.913 39.667 103.166C38.5045 105.739 38.3567 108.656 39.253 111.333C39.7339 112.821 40.6827 114.114 41.958 115.019C46.158 118.013 51.736 115.186 51.648 108.676C55.548 108.676 55.318 108.705 55.448 108.61C55.515 109.535 55.6909 110.449 55.972 111.333C57.005 114.585 60.372 116.87 63.695 116.033C66.753 115.256 69.033 111.565 68.206 107.019ZM48.879 114.119C46.093 116.825 41.618 115.145 40.179 111.734C38.911 108.734 39.139 103.388 41.964 101.572C43.0712 100.923 44.3837 100.718 45.636 101C50.666 102.076 52.846 110.271 48.879 114.124V114.119ZM65.596 114.119C62.796 116.837 58.296 115.132 56.896 111.734C55.9947 109.371 55.9165 106.773 56.674 104.36C57.0167 103.234 57.7224 102.254 58.681 101.572C59.7902 100.928 61.1005 100.724 62.353 101C67.415 102.1 69.544 110.29 65.6 114.124L65.596 114.119Z"></path><path fill="#000000" d="M140.038 128.306C140.043 128.4 140.084 128.488 140.152 128.553C140.22 128.618 140.31 128.654 140.404 128.654C140.498 128.654 140.589 128.618 140.657 128.553C140.725 128.488 140.766 128.4 140.771 128.306V110.292C140.766 110.198 140.725 110.11 140.657 110.045C140.589 109.98 140.498 109.944 140.404 109.944C140.31 109.944 140.22 109.98 140.152 110.045C140.084 110.11 140.043 110.198 140.038 110.292V128.306Z"></path><path fill="#000000" d="M135.535 76.605V92.457C135.535 92.5541 135.573 92.6472 135.642 92.7158C135.711 92.7845 135.804 92.823 135.901 92.823C135.998 92.823 136.091 92.7845 136.16 92.7158C136.228 92.6472 136.267 92.5541 136.267 92.457V76.605C136.267 76.5079 136.228 76.4149 136.16 76.3462C136.091 76.2776 135.998 76.239 135.901 76.239C135.804 76.239 135.711 76.2776 135.642 76.3462C135.573 76.4149 135.535 76.5079 135.535 76.605V76.605Z"></path><path fill="#000000" d="M141.3 53.546V76.246C141.305 76.3399 141.345 76.4283 141.414 76.493C141.482 76.5577 141.572 76.5938 141.666 76.5938C141.76 76.5938 141.851 76.5577 141.919 76.493C141.987 76.4283 142.028 76.3399 142.033 76.246V53.546C142.028 53.4521 141.987 53.3637 141.919 53.2989C141.851 53.2342 141.76 53.1981 141.666 53.1981C141.572 53.1981 141.482 53.2342 141.414 53.2989C141.345 53.3637 141.305 53.4521 141.3 53.546V53.546Z"></path><path fill="#000000" d="M145.262 47.962V65.256C145.267 65.3499 145.308 65.4383 145.376 65.503C145.444 65.5678 145.534 65.6038 145.628 65.6038C145.722 65.6038 145.813 65.5678 145.881 65.503C145.949 65.4383 145.99 65.3499 145.995 65.256V47.962C145.99 47.8681 145.949 47.7797 145.881 47.7149C145.813 47.6502 145.722 47.6141 145.628 47.6141C145.534 47.6141 145.444 47.6502 145.376 47.7149C145.308 47.7797 145.267 47.8681 145.262 47.962Z"></path><path fill="#000000" d="M92.6259 144.925C92.1879 145.089 92.3779 145.798 92.8209 145.631C97.8112 143.758 103.008 142.488 108.3 141.85C108.763 141.794 108.768 141.061 108.3 141.117C102.941 141.752 97.6787 143.031 92.6259 144.925V144.925Z"></path><path fill="#000000" d="M107.435 137.9C102.012 138.771 96.7052 140.254 91.6159 142.319C91.1839 142.494 91.3729 143.203 91.8159 143.026C96.9052 140.961 102.212 139.478 107.635 138.607C108.094 138.534 107.9 137.828 107.435 137.9Z"></path><path fill="#000000" d="M8.91792 28.1209C10.6439 30.6209 14.8179 36.6789 14.8179 36.6789C15.0839 37.0649 15.7179 36.6979 15.4499 36.3089L9.54992 27.7509C9.28492 27.3649 8.64992 27.7309 8.91792 28.1209Z"></path><path fill="#000000" d="M19.6169 36.005C19.7169 36.466 20.4259 36.271 20.3229 35.811C20.0079 34.389 17.5229 23.179 17.5229 23.179C17.4229 22.718 16.7139 22.913 16.8159 23.379C17.2999 25.585 19.0249 33.345 19.6169 36.005Z"></path><g><path fill="#000000" d="M163.9 158.258H145.741C146.092 156.822 145.283 155.378 144.277 154.171C141.108 150.523 137.301 147.483 133.043 145.199C127.35 137.078 114.963 120.78 114.394 120.047C114.35 119.985 114.284 119.942 114.209 119.928C114.135 119.914 114.057 119.929 113.994 119.971C113.784 120.115 106.968 125.751 106.854 125.846C106.787 125.916 106.75 126.009 106.75 126.105C106.75 126.202 106.787 126.294 106.854 126.364C111.53 131.415 110.929 131.148 122.354 143.134C111.163 143.582 91.942 149.175 77.622 152.126C76.7837 148.299 75.5671 144.565 73.99 140.978C72.4899 137.437 70.4426 134.153 67.923 131.247C59.317 121.596 45.33 119.837 33.066 123.784C35.2333 119.859 37.377 115.92 39.497 111.968C40.988 115.5 45.097 117.268 48.237 115.518C50.667 114.157 51.687 111.357 51.651 108.677C55.551 108.677 55.321 108.705 55.451 108.61C55.5176 109.535 55.6935 110.449 55.975 111.333C56.4398 112.941 57.4913 114.317 58.9213 115.187C60.3514 116.057 62.056 116.359 63.698 116.033C67.366 115.039 68.907 110.833 68.213 107.023C66.791 99.197 58.692 98.242 56.389 103.169C55.6822 104.674 55.3488 106.327 55.417 107.988C55.305 107.929 55.575 107.947 51.617 107.947C51.5627 107.258 51.4336 106.577 51.232 105.916C53.615 104.339 54.506 101.073 52.432 98.982C55.632 98.051 58.343 96.471 59.709 93.403C59.709 93.403 78.627 93.409 80.409 93.403C82.8787 93.4007 85.3167 92.8459 87.5443 91.7794C89.7718 90.7128 91.7326 89.1615 93.283 87.239L114.939 62.278H116.573C116.667 62.2731 116.755 62.2324 116.82 62.1642C116.885 62.096 116.921 62.0056 116.921 61.9115C116.921 61.8175 116.885 61.7271 116.82 61.6589C116.755 61.5907 116.667 61.5499 116.573 61.545H115.573C118.111 58.62 117.973 58.83 118.036 58.545C118.053 58.2349 118.053 57.9241 118.036 57.614C118.036 55.477 118.051 54.479 118.036 53.99C118.017 53.323 117.888 53.39 117.507 53.38C115.755 53.332 106.738 53.361 61.481 53.361C62.36 52.592 63.32 51.814 64.189 51.126H117.94C118.037 51.1245 118.129 51.0853 118.197 51.0168C118.266 50.9482 118.305 50.8558 118.306 50.759V37.979H128.067C128.117 37.9765 128.166 37.9641 128.211 37.9426C128.256 37.921 128.296 37.8908 128.329 37.8536C128.363 37.8164 128.388 37.773 128.405 37.7259C128.421 37.6788 128.428 37.6289 128.425 37.579C128.417 37.443 128.84 38.215 121.948 26.379C121.915 26.3246 121.869 26.2796 121.813 26.2483C121.758 26.2171 121.695 26.2007 121.632 26.2007C121.568 26.2007 121.505 26.2171 121.45 26.2483C121.394 26.2796 121.348 26.3246 121.315 26.379C120.591 27.623 118.306 31.544 118.306 31.544V23.56C118.707 23.4457 119.069 23.222 119.351 22.914C120.884 20.984 119.407 18.507 120.914 17.092C121.051 16.9794 121.209 16.8949 121.379 16.8434C121.549 16.7919 121.727 16.7746 121.903 16.7922C122.08 16.8099 122.251 16.8622 122.408 16.9463C122.564 17.0303 122.702 17.1444 122.814 17.282C123.186 17.7181 123.393 18.2708 123.4 18.844C123.564 20.3308 123.566 21.8309 123.406 23.318C123.356 23.787 124.089 23.783 124.139 23.318C124.339 21.4509 124.268 19.5646 123.926 17.718C123.835 17.3945 123.672 17.0955 123.45 16.8428C123.228 16.5901 122.953 16.3902 122.644 16.2575C122.335 16.1249 122 16.0629 121.664 16.0762C121.328 16.0894 121 16.1775 120.702 16.334C120.189 16.7047 119.819 17.2397 119.653 17.85C119.123 19.78 119.742 20.369 119.078 22.025C118.911 22.3508 118.641 22.6123 118.31 22.769V20.623C118.4 19.0102 118.202 17.3942 117.724 15.851C117.142 14.1174 116.136 12.5569 114.797 11.312C113.457 10.0671 111.827 9.17741 110.056 8.72403C108.885 8.48374 107.692 8.36478 106.496 8.36904C101.359 8.25804 43.812 8.23503 41.941 8.41703C39.2005 8.6719 36.6536 9.93959 34.798 11.9723C32.9424 14.0051 31.9116 16.6567 31.907 19.409V41.13C30.104 41.9726 28.4846 43.1619 27.141 44.63C25.491 41.659 21.78 40.563 18.547 41.017C14.414 41.598 11.385 44.843 9.538 48.389C7.43426 52.8763 6.13131 57.6969 5.688 62.633C5.333 66.742 5.009 181.4 5 184.511C5.00129 184.608 5.04027 184.7 5.10863 184.768C5.17699 184.837 5.26933 184.876 5.366 184.877H78.7C78.7968 184.876 78.8892 184.837 78.9577 184.768C79.0263 184.7 79.0654 184.608 79.067 184.511C79.067 184.352 79.067 184.194 79.067 184.035C84.8164 184.368 90.5845 184.145 96.291 183.369C96.291 183.769 96.31 184.208 96.31 184.208C96.3115 184.305 96.3507 184.397 96.4192 184.466C96.4877 184.534 96.5801 184.573 96.677 184.575H163.9C163.997 184.573 164.089 184.534 164.157 184.465C164.225 184.397 164.264 184.305 164.266 184.208V158.625C164.264 158.528 164.225 158.436 164.157 158.368C164.089 158.299 163.997 158.26 163.9 158.258V158.258ZM56.673 104.365C57.0099 103.237 57.7169 102.255 58.68 101.577C59.7874 100.928 61.0997 100.724 62.352 101.005C67.361 102.045 69.577 110.271 65.596 114.124C62.858 116.794 58.351 115.188 56.896 111.739C55.9843 109.378 55.9057 106.777 56.673 104.365V104.365ZM107.634 126.145L114.076 120.827C121.115 130.462 126.208 136.919 131.734 144.627C129.07 143.542 126.209 143.026 123.334 143.114C118.151 137.685 112.667 131.844 107.634 126.145ZM107.111 147.26C107.111 146.892 107.142 146.502 107.126 146.128C110.158 145.508 113.204 144.95 116.266 144.502C119.325 143.936 122.441 143.735 125.548 143.902C132.492 144.338 138.292 148.866 143.093 153.941C144.079 154.986 145.13 156.228 145.093 157.741C145.064 158.847 143.86 160.117 142.685 159.78C142.353 159.685 142.036 160.153 142.329 160.392C143.391 161.26 143.134 163.061 142.294 163.992C141.068 165.356 138.882 165.326 137.207 165.249C137.12 165.252 137.037 165.286 136.973 165.344C136.908 165.402 136.867 165.481 136.855 165.567C136.843 165.653 136.861 165.74 136.908 165.814C136.954 165.888 137.024 165.942 137.107 165.969C137.487 166.124 137.811 166.391 138.036 166.734C138.261 167.078 138.376 167.482 138.366 167.892C138.349 168.36 138.219 168.816 137.987 169.223C137.754 169.629 137.426 169.972 137.031 170.223C136.128 170.816 135.159 171.302 134.144 171.67C128.369 173.843 119.569 177.659 107.111 180.616V147.26ZM143.719 161.622C144.004 162.033 146.736 165.979 146.992 166.36C147.137 166.576 147.235 166.809 146.992 167.003C146.765 167.184 146.563 167.061 146.392 166.885C146.063 166.551 143.333 163.731 143.333 163.731C143.676 163.085 143.811 162.348 143.719 161.622V161.622ZM41.341 102.073C41.302 102.602 41.3724 103.134 41.5477 103.635C41.723 104.136 41.9995 104.596 42.36 104.985C41.4727 106.683 40.577 108.377 39.673 110.066C39.141 107.417 39.422 104.019 41.341 102.073ZM42.165 101.465C45.041 99.973 48.791 101.345 50.343 105.594C46.551 107.483 41.19 105.206 42.165 101.465V101.465ZM48.879 114.124C46.151 116.78 41.326 115.304 39.95 111.102C40.9427 109.242 41.9277 107.378 42.905 105.51C43.9837 106.34 45.2721 106.854 46.6261 106.994C47.9801 107.134 49.3464 106.894 50.572 106.302C51.314 108.975 50.951 112.118 48.879 114.124ZM52.637 100.588C52.8911 101.433 52.8671 102.337 52.5686 103.167C52.2701 103.997 51.7128 104.709 50.979 105.198C49.358 100.937 45.689 99.406 42.536 100.498C43.0584 99.5007 43.887 98.6974 44.9 98.206C47.677 97.043 51.445 98.016 52.637 100.588ZM57.955 94.875C56.3323 96.6947 54.1599 97.9349 51.768 98.407C48.702 96.149 44.337 96.56 42.32 99.444C42.1095 99.021 42.0344 98.5433 42.105 98.076C42.562 94.822 45.385 92.564 48.459 91.37C50.9046 90.4258 53.5494 90.1162 56.147 90.47C57.3353 90.589 58.535 90.428 59.65 90C59.7001 91.7776 59.0971 93.5119 57.955 94.875V94.875ZM117.3 58.432C116.173 59.732 94.273 84.973 92.592 86.91C91.1053 88.7136 89.2375 90.1653 87.1229 91.1609C85.0082 92.1565 82.6993 92.6712 80.362 92.668C78.617 92.668 60.028 92.668 59.994 92.668C60.3552 91.6266 60.4759 90.5168 60.347 89.422C60.3458 89.3733 60.3351 89.3253 60.3153 89.2807C60.2956 89.2362 60.2673 89.1959 60.232 89.1623C60.1967 89.1287 60.1551 89.1024 60.1097 89.0848C60.0642 89.0673 60.0157 89.0588 59.967 89.06C58.7946 89.6711 57.4635 89.9091 56.152 89.742C54.3354 89.5436 52.4993 89.6161 50.704 89.957C50.924 89.492 51.139 89.025 51.356 88.557H79.888C82.3295 88.6294 84.7567 88.1595 86.9949 87.1814C89.2331 86.2032 91.2266 84.741 92.832 82.9C94.02 81.54 115.778 56.453 117.295 54.705L117.3 58.432ZM116.838 54.124L92.587 82.069C91.1003 83.8724 89.2324 85.324 87.1178 86.3194C85.0031 87.3148 82.6942 87.8294 80.357 87.826C78.61 87.826 51.692 87.826 51.692 87.826C52.682 85.681 53.638 83.519 54.53 81.331C59.0581 81.5929 63.6 81.4822 68.11 81C69.8324 80.8638 71.5325 80.5241 73.175 79.988H93.485C93.5789 79.9831 93.6673 79.9424 93.732 79.8742C93.7968 79.806 93.8328 79.7156 93.8328 79.6215C93.8328 79.5275 93.7968 79.4371 93.732 79.3689C93.6673 79.3007 93.5789 79.2599 93.485 79.255H74.751C77.892 77.466 79.015 73.121 76.03 70.98H83.306C83.3933 70.9663 83.4729 70.9218 83.5304 70.8546C83.5878 70.7874 83.6194 70.7019 83.6194 70.6135C83.6194 70.5251 83.5878 70.4396 83.5304 70.3724C83.4729 70.3052 83.3933 70.2608 83.306 70.247H74.713C71.072 68.835 63.247 68.509 59.598 67.563C57.452 67.044 55.892 65.163 56.058 62.277H71.88C71.9739 62.2721 72.0623 62.2314 72.127 62.1632C72.1918 62.095 72.2279 62.0046 72.2279 61.9105C72.2279 61.8165 72.1918 61.7261 72.127 61.6579C72.0623 61.5897 71.9739 61.5489 71.88 61.544H56.135C56.596 58.552 58.448 56.161 60.66 54.095C60.66 54.093 115.957 54.145 116.833 54.124H116.838ZM121.624 27.3L127.424 37.251H115.824C115.926 37.075 121.523 27.467 121.624 27.3ZM32.64 19.409C32.6436 18.0239 32.9255 16.6536 33.4688 15.3795C34.0121 14.1053 34.8059 12.9533 35.8029 11.9918C36.8 11.0303 37.98 10.2789 39.273 9.78213C40.566 9.28537 41.9456 9.05342 43.33 9.10004H107.157C109.892 9.07365 112.525 10.1346 114.477 12.0496C116.429 13.9645 117.541 16.5765 117.567 19.311C117.567 19.346 117.567 20.326 117.567 22.941C117.541 22.941 117.517 22.95 117.49 22.949C117.161 22.9349 116.844 22.8257 116.576 22.6348C116.308 22.4438 116.101 22.1792 115.981 21.873C115.349 20.318 116.109 18.554 115.373 17.014C115.227 16.6876 115.013 16.3965 114.744 16.1604C114.476 15.9244 114.159 15.7489 113.817 15.646C113.455 15.5723 113.079 15.5993 112.731 15.7242C112.382 15.849 112.075 16.0668 111.842 16.354C110.392 18.107 111.535 20.679 110.719 22.189C110.52 22.364 110.285 22.4925 110.03 22.5654C109.775 22.6382 109.507 22.6536 109.246 22.6103C108.984 22.5671 108.736 22.4663 108.518 22.3153C108.301 22.1642 108.119 21.9667 107.987 21.737C107.602 21.001 107.433 20.171 107.5 19.343C107.525 18.3601 107.607 17.3794 107.746 16.406C107.804 15.939 107.071 15.944 107.013 16.406C106.699 18.0333 106.695 19.7051 107 21.334C107.207 22.0389 107.662 22.6448 108.282 23.039C108.887 23.3594 109.588 23.4514 110.255 23.298C111.955 22.936 111.785 20.817 111.764 19.487C111.697 18.7246 111.819 17.9575 112.118 17.253C112.243 16.9167 112.495 16.6427 112.82 16.4899C113.145 16.337 113.517 16.3173 113.856 16.435C115.485 17.189 114.906 19.512 115.015 20.906C115.134 22.43 116.039 23.706 117.569 23.684V32.805C116.937 33.89 115.141 36.972 114.876 37.428C114.845 37.4838 114.828 37.5468 114.829 37.6108C114.829 37.6748 114.846 37.7377 114.878 37.7932C114.91 37.8487 114.955 37.895 115.01 37.9276C115.065 37.9601 115.128 37.9779 115.192 37.979H117.569V50.392H65.105C67.2392 48.841 69.1715 47.0297 70.857 45C72.1483 43.5467 72.97 41.7368 73.214 39.808C73.2991 38.9774 73.176 38.1387 72.8558 37.3675C72.5356 36.5964 72.0284 35.9171 71.38 35.391C69.724 34.071 67.63 34.65 65.892 35.51C59.3038 38.9766 53.0025 42.9629 47.048 47.431C46.6941 45.9807 46.0089 44.6321 45.0464 43.491C44.0838 42.3499 42.8699 41.4473 41.5 40.854C40.101 40.2519 38.5949 39.9382 37.0719 39.9317C35.5488 39.9252 34.0401 40.2259 32.636 40.816L32.64 19.409ZM6.207 65.679C6.445 57.668 9.284 44.768 16.949 42.149C20.564 40.915 25.126 41.869 26.742 45.449C26.7706 45.4971 26.8098 45.538 26.8566 45.5687C26.9034 45.5994 26.9565 45.6191 27.012 45.6262C27.0675 45.6333 27.1239 45.6277 27.1769 45.6099C27.2299 45.592 27.2782 45.5623 27.318 45.523C32.191 39.91 39.753 38.904 44.318 43.762C45.4629 44.9778 46.2041 46.5178 46.44 48.171C46.4666 48.2647 46.5291 48.3441 46.614 48.3918C46.6988 48.4396 46.7991 48.4519 46.893 48.426C52.8809 43.9363 59.2014 39.9084 65.8 36.377C66.7074 35.8312 67.7173 35.4776 68.767 35.338C69.6086 35.3125 70.4319 35.5869 71.0898 36.1122C71.7478 36.6376 72.1976 37.3797 72.359 38.206C72.519 39.1421 72.4819 40.1011 72.2501 41.022C72.0184 41.9429 71.597 42.8053 71.013 43.554C67.341 49.065 60.319 51.774 56.802 57.635C55.311 60.12 54.523 63.783 56.39 66.299C57.5312 67.6243 59.1472 68.4484 60.89 68.594C71.007 70.312 75.78 69.926 76.875 73.25C77.0721 74.0277 77.0614 74.8435 76.844 75.6157C76.6265 76.388 76.2099 77.0895 75.636 77.65C74.2698 78.9052 72.5425 79.6975 70.7 79.914C65.272 80.7127 59.7751 80.938 54.3 80.586C53.762 80.596 54.3 80.714 49.792 90.172C48.2615 90.5731 46.8067 91.2213 45.485 92.091C45.485 92.091 6.572 92.05 6.111 92.071C6.144 82.373 6.174 66.527 6.207 65.679ZM77.835 183.208C68.5712 182.559 59.5503 179.953 51.367 175.563C38.73 168.733 23.82 157.063 17.315 152.591C16.925 152.323 16.558 152.958 16.945 153.223C23.714 157.867 27.694 161.217 37.774 168.047C51.239 177.163 61.766 182.788 78.338 183.981V184.144C78.338 184.144 5.983 184.131 5.738 184.136C5.738 179.93 6.103 93.464 6.106 92.824H44.493C43.5305 93.5852 42.7307 94.5319 42.141 95.608C41.429 96.995 40.872 98.973 41.912 100.125C41.7732 100.399 41.6555 100.684 41.56 100.976C40.7426 101.523 40.0866 102.28 39.66 103.166C38.5458 105.638 38.3681 108.431 39.16 111.025C38.013 113.17 33.228 121.964 31.982 124.216C31.9476 124.279 31.9322 124.351 31.9378 124.423C31.9435 124.494 31.9698 124.563 32.0137 124.62C32.0575 124.677 32.117 124.72 32.1849 124.744C32.2528 124.768 32.3261 124.771 32.396 124.754C48.939 119.316 65.285 123.725 72.765 140.075C74.5991 143.969 75.9863 148.058 76.9 152.264C71.147 153.423 65.854 154.374 60.061 153.164C50.844 151.131 36.28 143.676 25.061 139.458C24.619 139.292 24.428 140 24.861 140.165C39.167 145.528 54.411 154.065 64.426 154.44C73.634 154.786 90.372 149.64 106.319 146.296V179.66C106.319 180 106.255 180.439 106.289 180.81C96.9811 183.05 87.3864 183.858 77.835 183.208V183.208ZM163.528 183.842H97.046V183.268C108.617 181.65 120.108 177.991 130.971 173.72C132.271 173.214 133.553 172.67 134.855 172.173C135.895 171.789 136.872 171.253 137.755 170.583C138.105 170.331 138.401 170.011 138.624 169.642C138.847 169.273 138.993 168.862 139.054 168.435C139.114 168.008 139.088 167.573 138.976 167.157C138.864 166.74 138.669 166.35 138.403 166.011C139.681 166.062 140.948 165.756 142.061 165.127C142.385 164.919 142.673 164.66 142.914 164.36C143.887 165.36 144.86 166.36 145.834 167.36C145.979 167.549 146.18 167.688 146.408 167.757C146.635 167.827 146.879 167.823 147.105 167.747C147.331 167.671 147.527 167.526 147.666 167.333C147.806 167.139 147.881 166.907 147.882 166.669C147.824 166.291 147.656 165.938 147.398 165.656C146.276 164.024 143.871 160.556 143.798 160.443C144.507 160.17 145.095 159.654 145.458 158.987H163.531L163.528 183.842Z"></path><path fill="#000000" d="M65.9671 32.191C66.2871 32.54 66.8041 32.02 66.4851 31.673C66.4851 31.673 61.5921 26.348 61.4491 26.194L66.6621 19.894C66.9621 19.533 66.4451 19.012 66.1441 19.376L60.7051 25.944C60.6394 26.0143 60.6028 26.1069 60.6028 26.203C60.6028 26.2992 60.6394 26.3918 60.7051 26.462C67.7401 34.017 65.5391 31.726 65.9671 32.191Z"></path><path fill="#000000" d="M89.9919 26.1941L84.9569 31.6731C84.6379 32.0201 85.1569 32.5401 85.4749 32.1911L90.7369 26.4661C90.8028 26.396 90.8396 26.3033 90.8396 26.2071C90.8396 26.1108 90.8028 26.0182 90.7369 25.9481L85.2999 19.3801C84.9999 19.0161 84.4829 19.5371 84.7819 19.8981L89.9919 26.1941Z"></path><path fill="#000000" d="M70.2299 32.23C73.3709 29.2 82.1199 20.34 82.1199 20.34C82.1836 20.2702 82.2179 20.1785 82.2157 20.084C82.2135 19.9896 82.175 19.8996 82.1081 19.8328C82.0412 19.7661 81.9512 19.7277 81.8567 19.7257C81.7622 19.7237 81.6706 19.7582 81.6009 19.822C78.4619 22.856 70.5729 30.822 69.7119 31.711C69.6481 31.7807 69.6135 31.8723 69.6156 31.9668C69.6176 32.0613 69.656 32.1513 69.7227 32.2182C69.7895 32.2851 69.8795 32.3236 69.9739 32.3258C70.0684 32.328 70.1601 32.2937 70.2299 32.23V32.23Z"></path><path fill="#000000" d="M95.114 62.275H109.364C109.458 62.2701 109.546 62.2293 109.611 62.1611C109.676 62.0929 109.712 62.0025 109.712 61.9085C109.712 61.8145 109.676 61.724 109.611 61.6558C109.546 61.5877 109.458 61.5469 109.364 61.542H95.114C95.0201 61.5469 94.9316 61.5877 94.8669 61.6558C94.8022 61.724 94.7661 61.8145 94.7661 61.9085C94.7661 62.0025 94.8022 62.0929 94.8669 62.1611C94.9316 62.2293 95.0201 62.2701 95.114 62.275V62.275Z"></path><path fill="#000000" d="M76.5371 62.275H90.4771C90.5709 62.2701 90.6594 62.2293 90.7241 62.1611C90.7888 62.0929 90.8249 62.0025 90.8249 61.9085C90.8249 61.8145 90.7888 61.724 90.7241 61.6558C90.6594 61.5877 90.5709 61.5469 90.4771 61.542H76.5371C76.4432 61.5469 76.3547 61.5877 76.29 61.6558C76.2253 61.724 76.1892 61.8145 76.1892 61.9085C76.1892 62.0025 76.2253 62.0929 76.29 62.1611C76.3547 62.2293 76.4432 62.2701 76.5371 62.275V62.275Z"></path><path fill="#000000" d="M76.5369 94.54C76.4398 94.54 76.3467 94.5786 76.2781 94.6472C76.2095 94.7159 76.1709 94.809 76.1709 94.906C76.1709 95.0031 76.2095 95.0962 76.2781 95.1648C76.3467 95.2335 76.4398 95.272 76.5369 95.272H85.6999C85.797 95.272 85.8901 95.2335 85.9587 95.1648C86.0273 95.0962 86.0659 95.0031 86.0659 94.906C86.0659 94.809 86.0273 94.7159 85.9587 94.6472C85.8901 94.5786 85.797 94.54 85.6999 94.54H76.5369Z"></path><path fill="#000000" d="M101.577 70.245H87.758C87.6641 70.2499 87.5757 70.2907 87.511 70.3588C87.4462 70.427 87.4102 70.5175 87.4102 70.6115C87.4102 70.7055 87.4462 70.7959 87.511 70.8641C87.5757 70.9323 87.6641 70.9731 87.758 70.978H101.577C101.671 70.9731 101.759 70.9323 101.824 70.8641C101.889 70.7959 101.925 70.7055 101.925 70.6115C101.925 70.5175 101.889 70.427 101.824 70.3588C101.759 70.2907 101.671 70.2499 101.577 70.245V70.245Z"></path><path fill="#000000" d="M20.7769 54.561C21.9456 51.92 23.5571 49.4981 25.5419 47.4C25.8669 47.058 25.3499 46.539 25.0239 46.882C22.9868 49.0186 21.3356 51.4922 20.1439 54.193C19.9559 54.619 20.5879 54.993 20.7769 54.561Z"></path><path fill="#000000" d="M39.2199 58.136C40.537 54.9544 42.5858 52.1283 45.1999 49.887C45.5589 49.581 45.0379 49.065 44.6809 49.369C41.9687 51.6909 39.8549 54.6313 38.5179 57.942C38.3359 58.378 39.0449 58.568 39.2199 58.136Z"></path><path fill="#000000" d="M25.1431 97.857C25.8337 97.491 26.6058 97.3063 27.3873 97.3201C28.1687 97.3339 28.9339 97.5458 29.6111 97.936C30.5954 98.5826 31.4094 99.457 31.9841 100.485C33.5461 102.793 36.2701 107.885 37.0461 109.185C37.0714 109.226 37.1046 109.262 37.1438 109.29C37.1831 109.318 37.2275 109.338 37.2745 109.348C37.3215 109.359 37.3702 109.36 37.4177 109.352C37.4651 109.344 37.5105 109.326 37.5511 109.3C37.63 109.251 37.6871 109.173 37.7107 109.083C37.7343 108.993 37.7226 108.897 37.6781 108.815C34.0391 102.377 32.0131 98.359 29.9101 97.264C29.1457 96.8498 28.294 96.6227 27.4249 96.6013C26.5557 96.5799 25.6939 96.7649 24.9101 97.141C23.9649 97.7229 23.2263 98.5868 22.7984 99.6109C22.3705 100.635 22.2749 101.768 22.5251 102.849C22.5381 102.895 22.56 102.937 22.5894 102.974C22.6189 103.011 22.6554 103.042 22.6968 103.065C22.7383 103.088 22.7838 103.103 22.8309 103.108C22.8779 103.113 22.9256 103.109 22.9711 103.096C23.0619 103.068 23.1389 103.007 23.1872 102.926C23.2355 102.844 23.2515 102.747 23.2321 102.654C23.0237 101.755 23.095 100.814 23.4366 99.9563C23.7781 99.099 24.3736 98.3665 25.1431 97.857V97.857Z"></path><path fill="#000000" d="M128 153.24L140.216 159.432C140.636 159.645 141.007 159.013 140.586 158.8L128.37 152.607C127.951 152.394 127.58 153.026 128 153.24Z"></path><path fill="#000000" d="M135.173 165.7C135.199 165.606 135.186 165.506 135.138 165.422C135.09 165.337 135.011 165.275 134.917 165.249C131.476 164.757 128.021 164.39 124.552 164.149C124.082 164.116 124.084 164.849 124.552 164.882C127.952 165.119 131.342 165.479 134.722 165.96C134.816 165.983 134.916 165.969 135 165.92C135.084 165.872 135.146 165.793 135.173 165.7V165.7Z"></path><path fill="#000000" d="M112.389 118.843L105.572 124.643C105.212 124.949 105.732 125.465 106.09 125.161L112.907 119.361C113.267 119.055 112.746 118.538 112.389 118.843Z"></path><path fill="#000000" d="M105.15 124.029C107.483 122.168 109.772 120.255 112.015 118.29C112.37 117.979 111.85 117.462 111.496 117.772C109.252 119.737 106.964 121.65 104.632 123.511C104.263 123.805 104.784 124.321 105.15 124.029Z"></path><path fill="#000000" d="M88.1631 180H83.1191C83.0252 180.005 82.9368 180.046 82.872 180.114C82.8073 180.182 82.7712 180.272 82.7712 180.367C82.7712 180.461 82.8073 180.551 82.872 180.619C82.9368 180.687 83.0252 180.728 83.1191 180.733H88.1631C88.257 180.728 88.3454 180.687 88.4101 180.619C88.4749 180.551 88.5109 180.461 88.5109 180.367C88.5109 180.272 88.4749 180.182 88.4101 180.114C88.3454 180.046 88.257 180.005 88.1631 180V180Z"></path><path fill="#000000" d="M8.70703 96.4271C8.61417 96.4303 8.526 96.4687 8.4603 96.5344C8.3946 96.6001 8.35626 96.6882 8.35303 96.7811V102.726C8.35793 102.82 8.39869 102.908 8.46688 102.973C8.53507 103.038 8.62551 103.074 8.71953 103.074C8.81355 103.074 8.90398 103.038 8.97217 102.973C9.04037 102.908 9.08112 102.82 9.08603 102.726V96.7811C9.08264 96.6839 9.04082 96.5921 8.96976 96.5257C8.8987 96.4593 8.80421 96.4238 8.70703 96.4271V96.4271Z"></path><path fill="#000000" d="M177.03 146.555C175.636 147.031 174.426 147.933 173.573 149.134C172.719 150.335 172.264 151.774 172.272 153.247C172.272 153.906 172.272 184.123 172.272 184.156C172.277 184.25 172.318 184.338 172.386 184.403C172.454 184.468 172.545 184.504 172.639 184.504C172.733 184.504 172.823 184.468 172.891 184.403C172.959 184.338 173 184.25 173.005 184.156C173.005 184.156 173.005 153.379 173.005 153.216C173.049 151.579 173.728 150.024 174.899 148.879C176.07 147.734 177.64 147.09 179.278 147.084C180.915 147.077 182.491 147.709 183.671 148.844C184.851 149.979 185.542 151.53 185.599 153.166C185.599 153.505 185.593 153.844 185.599 154.183C185.604 154.277 185.645 154.365 185.713 154.43C185.781 154.495 185.872 154.531 185.966 154.531C186.06 154.531 186.15 154.495 186.218 154.43C186.286 154.365 186.327 154.277 186.332 154.183C186.403 153.087 186.275 151.986 185.955 150.935C185.663 150.057 185.199 149.246 184.59 148.55C183.981 147.853 183.24 147.284 182.41 146.876C181.579 146.469 180.676 146.23 179.752 146.175C178.829 146.12 177.903 146.249 177.03 146.555Z"></path><path fill="#000000" d="M185.127 145.2C183.611 144.229 181.878 143.649 180.083 143.51C178.288 143.372 176.487 143.68 174.84 144.407C173.217 145.176 171.845 146.391 170.887 147.91C169.929 149.43 169.423 151.191 169.428 152.987C169.422 154.068 169.428 183.573 169.428 183.573C169.469 186.981 167.221 190.755 162.074 190.901C157.711 191.024 144.364 190.816 96.4691 190.901C96.4208 190.902 96.3733 190.913 96.3292 190.933C96.2851 190.953 96.2454 190.981 96.2125 191.016C96.1795 191.051 96.1539 191.093 96.1372 191.138C96.1205 191.184 96.113 191.232 96.1151 191.28C96.1186 191.373 96.157 191.461 96.2226 191.527C96.2883 191.592 96.3763 191.631 96.4691 191.634H162.042C163.081 191.662 164.114 191.484 165.084 191.112C166.054 190.74 166.942 190.181 167.695 189.465C168.449 188.75 169.054 187.894 169.477 186.945C169.9 185.996 170.131 184.973 170.158 183.934C170.158 183.865 170.158 154.79 170.158 154.79C170.067 153.331 170.191 151.867 170.528 150.445C173.437 141.104 189.102 142.215 188.442 154.179C188.442 154.276 188.481 154.369 188.549 154.438C188.618 154.507 188.711 154.545 188.808 154.545C188.905 154.545 188.998 154.507 189.067 154.438C189.136 154.369 189.174 154.276 189.174 154.179C189.36 152.458 189.084 150.718 188.372 149.139C187.661 147.56 186.54 146.201 185.127 145.2V145.2Z"></path><path fill="#000000" d="M168.4 146.687C167.053 148.893 166.366 151.44 166.422 154.024C166.422 154.024 166.414 182.915 166.422 183.414C166.436 183.97 166.328 184.523 166.106 185.033C165.884 185.543 165.553 185.998 165.136 186.367C164.19 187.053 163.019 187.355 161.859 187.213H96.5739C96.48 187.218 96.3916 187.259 96.3269 187.327C96.2622 187.395 96.2261 187.485 96.2261 187.58C96.2261 187.674 96.2622 187.764 96.3269 187.832C96.3916 187.9 96.48 187.941 96.5739 187.946C96.5739 187.946 161.83 187.946 162.631 187.946C163.211 187.96 163.788 187.86 164.33 187.651C164.871 187.443 165.366 187.129 165.787 186.729C166.207 186.329 166.544 185.85 166.779 185.319C167.014 184.789 167.143 184.217 167.157 183.637C167.157 183.622 167.157 154.751 167.157 153.587C167.155 151.957 167.48 150.343 168.114 148.84C168.747 147.338 169.675 145.978 170.844 144.841C172.013 143.704 173.398 142.814 174.917 142.222C176.436 141.63 178.058 141.349 179.688 141.396C181.318 141.443 182.921 141.817 184.404 142.495C185.887 143.173 187.218 144.142 188.32 145.344C189.421 146.546 190.27 147.957 190.816 149.493C191.362 151.029 191.594 152.659 191.498 154.287C191.503 154.381 191.544 154.469 191.612 154.534C191.68 154.599 191.77 154.635 191.864 154.635C191.958 154.635 192.049 154.599 192.117 154.534C192.185 154.469 192.226 154.381 192.231 154.287C192.321 152.461 192.027 150.637 191.368 148.932C190.709 147.227 189.701 145.678 188.407 144.387C187.033 143.028 185.371 141.994 183.544 141.362C181.717 140.731 179.772 140.518 177.852 140.739C175.932 140.959 174.085 141.608 172.449 142.638C170.814 143.667 169.43 145.051 168.4 146.687V146.687Z"></path><path fill="#000000" d="M170.242 140.4C168.185 141.854 166.508 143.783 165.354 146.022C164.2 148.261 163.602 150.746 163.611 153.265C163.611 154.393 163.611 156.979 163.611 156.979C163.611 157.076 163.65 157.169 163.718 157.238C163.787 157.306 163.88 157.345 163.977 157.345C164.074 157.345 164.167 157.306 164.236 157.238C164.304 157.169 164.343 157.076 164.343 156.979C164.213 154.538 164.354 152.089 164.764 149.679C165.63 146.107 167.78 142.98 170.804 140.892C173.828 138.804 177.515 137.902 181.161 138.358C184.808 138.814 188.159 140.597 190.575 143.365C192.992 146.134 194.305 149.695 194.264 153.37V154.13C194.269 154.224 194.31 154.312 194.378 154.377C194.446 154.442 194.536 154.478 194.63 154.478C194.724 154.478 194.815 154.442 194.883 154.377C194.951 154.312 194.992 154.224 194.997 154.13C195.164 151.179 194.495 148.241 193.068 145.652C191.641 143.064 189.512 140.931 186.928 139.497C184.343 138.064 181.406 137.388 178.455 137.548C175.504 137.707 172.657 138.696 170.242 140.4V140.4Z"></path><path fill="#000000" d="M133.147 91.653C133.31 91.43 133.307 92.139 133.255 84.99C133.254 84.8931 133.215 84.8005 133.146 84.732C133.078 84.6636 132.985 84.6248 132.888 84.624H126.483C126.386 84.6253 126.294 84.6643 126.225 84.7326C126.157 84.8009 126.118 84.8933 126.116 84.99V91.4C126.117 91.497 126.156 91.5895 126.225 91.6581C126.293 91.7266 126.386 91.7657 126.483 91.767C133.583 91.814 132.966 91.807 133.147 91.653ZM132.522 91.029H126.849V85.356H132.522V91.029Z"></path><path fill="#000000" d="M155.675 92.8261C157.192 92.8278 158.676 92.3796 159.939 91.5381C161.201 90.6966 162.186 89.4995 162.769 88.0983C163.351 86.6971 163.505 85.1547 163.21 83.6662C162.916 82.1776 162.187 80.8097 161.115 79.7355C160.044 78.6613 158.677 77.929 157.19 77.6312C155.702 77.3335 154.159 77.4836 152.756 78.0626C151.354 78.6416 150.154 79.6236 149.31 80.8842C148.465 82.1449 148.014 83.6277 148.012 85.1451C148.011 86.1526 148.208 87.1506 148.592 88.082C148.976 89.0134 149.54 89.8599 150.252 90.5732C150.964 91.2865 151.809 91.8526 152.739 92.2392C153.67 92.6257 154.667 92.8251 155.675 92.8261V92.8261ZM153.234 78.6261C154.523 78.1452 155.926 78.0575 157.266 78.374C158.605 78.6905 159.82 79.3971 160.758 80.4043C161.696 81.4115 162.314 82.6742 162.534 84.0326C162.754 85.3911 162.566 86.7843 161.994 88.036C161.423 89.2878 160.493 90.342 159.322 91.0652C158.151 91.7884 156.792 92.1482 155.417 92.099C154.042 92.0499 152.712 91.5941 151.596 90.7892C150.479 89.9843 149.627 88.8664 149.146 87.5771C148.502 85.8479 148.571 83.9339 149.338 82.2556C150.104 80.5772 151.506 79.2718 153.234 78.6261V78.6261Z"></path><path fill="#000000" d="M150.127 135.879C150.941 135.566 151.814 135.437 152.683 135.503C153.876 135.65 155.087 135.515 156.218 135.109C156.624 134.931 156.984 134.665 157.275 134.33C157.565 133.996 157.778 133.601 157.898 133.175C157.98 132.721 157.931 132.254 157.759 131.826C157.586 131.398 157.297 131.028 156.923 130.758C155.208 129.447 153.092 130.028 151.123 129.833C150.254 129.746 149.413 129.509 149.217 128.564C149.122 128.161 149.129 127.741 149.237 127.341C149.344 126.941 149.55 126.574 149.834 126.273C150.516 125.683 151.378 125.343 152.279 125.309C153.867 125.233 155.458 125.322 157.027 125.573C157.494 125.631 157.49 124.897 157.027 124.841C155.013 124.452 152.945 124.441 150.927 124.808C150.06 125.056 149.313 125.612 148.827 126.372C148.426 127.126 148.319 128.003 148.527 128.831C149.037 130.958 151.838 130.59 153.487 130.583C154.418 130.518 155.349 130.707 156.18 131.131C156.585 131.32 156.902 131.658 157.066 132.074C157.229 132.491 157.226 132.954 157.057 133.368C156.296 134.874 154.557 134.848 152.977 134.808C152.27 134.697 151.548 134.727 150.853 134.897C150.158 135.066 149.503 135.372 148.927 135.796C148.626 136.09 148.39 136.445 148.237 136.837C148.084 137.23 148.016 137.65 148.039 138.071C148.061 138.491 148.173 138.902 148.367 139.276C148.561 139.65 148.833 139.978 149.164 140.238C149.924 140.741 150.813 141.01 151.724 141.013C152.599 141.004 153.474 141.049 154.344 141.147C155.108 141.232 155.817 141.587 156.344 142.147C157.244 143.423 156.13 145.028 154.457 145.221C152.449 145.48 150.417 145.504 148.403 145.293C147.935 145.243 147.938 145.976 148.403 146.026C150.711 146.271 153.043 146.188 155.327 145.777C156.976 145.218 158.008 143.318 157.006 141.818C156.528 141.198 155.854 140.758 155.094 140.57C154.271 140.367 153.424 140.278 152.577 140.306C151.664 140.358 150.751 140.2 149.908 139.844C149.544 139.645 149.243 139.346 149.041 138.983C148.839 138.62 148.744 138.207 148.767 137.792C148.79 137.378 148.93 136.978 149.171 136.639C149.411 136.301 149.743 136.037 150.127 135.879V135.879Z"></path><path fill="#000000" d="M129.851 62.02C129.977 62.092 129.451 62.068 138.562 62.068C138.625 62.0645 138.686 62.0453 138.74 62.0121C138.794 61.9789 138.839 61.9328 138.87 61.8779C138.901 61.823 138.919 61.7612 138.92 61.698C138.921 61.6348 138.907 61.5722 138.878 61.516L134.611 54.192C134.56 54.108 134.478 54.0477 134.382 54.0243C134.287 54.0008 134.186 54.0162 134.102 54.067C133.968 54.149 134.272 53.704 129.71 61.516C129.686 61.5584 129.671 61.605 129.665 61.6533C129.659 61.7015 129.663 61.7504 129.676 61.7972C129.689 61.844 129.711 61.8878 129.741 61.926C129.771 61.9642 129.809 61.9962 129.851 62.02V62.02ZM134.294 55.104L137.924 61.335H130.664C130.817 61.074 134.215 55.242 134.294 55.1V55.104Z"></path><path fill="#000000" d="M138.113 31.97C138.407 31.9629 138.699 32.0159 138.972 32.1258C139.245 32.2356 139.492 32.4001 139.699 32.6089C139.906 32.8178 140.068 33.0668 140.175 33.3406C140.283 33.6143 140.333 33.9071 140.323 34.201V38.081C140.324 38.1777 140.363 38.2702 140.432 38.3387C140.5 38.4072 140.592 38.4464 140.689 38.448H147.166C147.263 38.4467 147.356 38.4076 147.424 38.3391C147.493 38.2705 147.532 38.1779 147.533 38.081C147.576 32.146 147.619 31.663 147.187 30.118C146.698 28.5667 145.728 27.2113 144.418 26.2482C143.107 25.285 141.524 24.7641 139.897 24.761H138.113C138.016 24.7623 137.924 24.8012 137.855 24.8696C137.787 24.9379 137.748 25.0302 137.746 25.127V31.6C137.746 31.6977 137.784 31.7915 137.853 31.8608C137.922 31.9302 138.015 31.9695 138.113 31.97V31.97ZM138.479 25.494H139.9C140.853 25.4911 141.797 25.6857 142.671 26.0655C143.545 26.4454 144.331 27.0022 144.979 27.701C145.628 28.3997 146.124 29.2251 146.437 30.1253C146.751 31.0254 146.874 31.9807 146.8 32.931V37.715H141.056V35.385C141.216 34.3319 141.007 33.2559 140.465 32.339C140.226 32.0324 139.926 31.7783 139.584 31.5923C139.243 31.4064 138.867 31.2926 138.479 31.258V25.494Z"></path><path fill="#000000" d="M140.417 128.66C140.51 128.657 140.598 128.619 140.664 128.553C140.729 128.487 140.768 128.399 140.771 128.306V113.342H150.853C150.903 113.34 150.952 113.327 150.997 113.306C151.042 113.284 151.082 113.254 151.115 113.217C151.149 113.179 151.174 113.136 151.191 113.089C151.207 113.042 151.214 112.992 151.211 112.942C151.2 112.704 148.291 107.837 142.266 97.5071C142.233 97.4527 142.187 97.4076 142.131 97.3764C142.076 97.3452 142.013 97.3287 141.95 97.3287C141.886 97.3287 141.823 97.3452 141.768 97.3764C141.712 97.4076 141.666 97.4527 141.633 97.5071L132.733 112.789C132.686 112.874 132.675 112.974 132.701 113.068C132.727 113.161 132.789 113.241 132.873 113.289C133.004 113.362 132.592 113.336 140.041 113.336V128.3C140.042 128.348 140.052 128.396 140.072 128.44C140.091 128.485 140.119 128.525 140.154 128.558C140.189 128.592 140.23 128.618 140.275 128.635C140.321 128.653 140.369 128.661 140.417 128.66ZM133.684 112.609L141.95 98.4211L150.215 112.609H140.771V110.291C140.766 110.197 140.725 110.109 140.657 110.044C140.589 109.979 140.499 109.943 140.405 109.943C140.311 109.943 140.22 109.979 140.152 110.044C140.084 110.109 140.043 110.197 140.038 110.291V112.609H133.684Z"></path><path fill="#000000" d="M136.267 92.4571V76.6051C136.262 76.5112 136.221 76.4227 136.153 76.358C136.085 76.2933 135.994 76.2572 135.9 76.2572C135.806 76.2572 135.716 76.2933 135.648 76.358C135.58 76.4227 135.539 76.5112 135.534 76.6051V92.4571C135.539 92.5509 135.58 92.6394 135.648 92.7041C135.716 92.7688 135.806 92.8049 135.9 92.8049C135.994 92.8049 136.085 92.7688 136.153 92.7041C136.221 92.6394 136.262 92.5509 136.267 92.4571V92.4571Z"></path><path fill="#000000" d="M142.032 76.244V53.544C142.027 53.4501 141.986 53.3617 141.918 53.297C141.85 53.2323 141.76 53.1962 141.666 53.1962C141.572 53.1962 141.481 53.2323 141.413 53.297C141.345 53.3617 141.304 53.4501 141.299 53.544V76.244C141.304 76.3379 141.345 76.4263 141.413 76.4911C141.481 76.5558 141.572 76.5919 141.666 76.5919C141.76 76.5919 141.85 76.5558 141.918 76.4911C141.986 76.4263 142.027 76.3379 142.032 76.244V76.244Z"></path><path fill="#000000" d="M146 65.256V47.962C145.995 47.8681 145.954 47.7797 145.886 47.7149C145.818 47.6502 145.728 47.6141 145.634 47.6141C145.54 47.6141 145.449 47.6502 145.381 47.7149C145.313 47.7797 145.272 47.8681 145.267 47.962V65.256C145.272 65.3499 145.313 65.4383 145.381 65.503C145.449 65.5678 145.54 65.6038 145.634 65.6038C145.728 65.6038 145.818 65.5678 145.886 65.503C145.954 65.4383 145.995 65.3499 146 65.256Z"></path><path fill="#000000" d="M92.8209 145.632C97.8124 143.762 103.009 142.493 108.3 141.85C108.762 141.794 108.767 141.061 108.3 141.117C102.942 141.752 97.6794 143.031 92.6269 144.925C92.1879 145.089 92.3779 145.8 92.8209 145.632Z"></path><path fill="#000000" d="M107.435 137.9C102.012 138.772 96.7053 140.254 91.6159 142.319C91.1839 142.494 91.3729 143.203 91.8159 143.026C96.9062 140.963 102.213 139.481 107.635 138.607C108.094 138.534 107.9 137.827 107.435 137.9Z"></path><path fill="#000000" d="M14.8181 36.6791C15.0841 37.0641 15.7181 36.6981 15.4501 36.3091L9.55008 27.7511C9.28408 27.3651 8.65008 27.7311 8.91708 28.1211L14.8181 36.6791Z"></path><path fill="#000000" d="M19.6159 36.005C19.7159 36.466 20.4259 36.271 20.3229 35.811C20.0079 34.389 17.5229 23.179 17.5229 23.179C17.4229 22.719 16.7139 22.913 16.8159 23.379C17.1269 24.794 19.2749 34.469 19.6159 36.005Z"></path></g></svg>