<svg xmlns="http://www.w3.org/2000/svg" viewBox="0 0 200 200" height="400" width="400"><g><path d="M59.245,105.976a25.623,25.623,0,0,0-1.473-3.687,20.521,20.521,0,0,0-4.422-6.315,7.888,7.888,0,0,0-7.467-2.118,8.489,8.489,0,0,0-6.733,7.167,14.371,14.371,0,0,0,.9,7.051.328.328,0,0,0,.357.2c1.512-.347,3.037-.642,4.562-.934a4.839,4.839,0,1,1,6.579-.86c2.135-.105,5.814-.13,7.416-.139A.293.293,0,0,0,59.245,105.976Z" fill="#000000"></path><path d="M49.469,98.917a4.829,4.829,0,1,0,2.08,7.566A4.839,4.839,0,0,0,49.469,98.917Z" fill="#ffaaaa"></path><path d="M132.653,51.264c-1.441-3.109-4.71-4.372-7.016-3.487,2.788-5.842.444-13.146-5.952-14.769a5.713,5.713,0,0,0-4.688.617,17.323,17.323,0,0,0-3.84-4.99,7.29,7.29,0,0,0-5.947-1.772c-3.7.425-7.843,2.714-8.656,6.644a5.951,5.951,0,0,0,1.4,5.239,8.1,8.1,0,0,0-2.7,5.355,30.331,30.331,0,0,1,32.567,19.3C132.466,61.061,134.792,55.878,132.653,51.264ZM107.182,41.083a4.833,4.833,0,1,1,3.872-4.737A4.826,4.826,0,0,1,107.182,41.083Z" fill="#000000"></path><path d="M157.458,109.616a2.48,2.48,0,0,1-1.981-3.4,5.446,5.446,0,0,1,2.182-2.493,4.994,4.994,0,0,1-1.507-.007c-2.418-.377-2.562-4.194.813-5.156-.786-1.9-6.929-16.772-6.929-16.772-.054-.131-.2-.269-.357-.2L138.979,86c-.131.055-.269.2-.2.358l4.749,11.5a4.778,4.778,0,0,1,2.6,2.444c.058.237-.007.353-.143.413a4.489,4.489,0,0,1,.029,3.167c.021.053,5.017,12.158,5.053,12.2a.232.232,0,0,0,.278.176c.1-.022.818-.334,5.948-2.454A2.572,2.572,0,0,1,157.458,109.616Zm-10.145-9.807h3.954a.517.517,0,0,1,0,1.033h-3.954a.517.517,0,0,1,0-1.033Z" fill="#ffaaaa"></path><path d="M145.984,100.712c-.263.085-5.311.013-8.4.095a.256.256,0,0,1-.1-.026,4.537,4.537,0,1,0,8.5-.069Z" fill="#ae877c"></path><path d="M107.888,31.81a4.833,4.833,0,1,0,3.166,4.536A4.829,4.829,0,0,0,107.888,31.81Z" fill="#ffaaaa"></path><path d="M146.146,100.378a.643.643,0,0,0-.019-.079,4.827,4.827,0,0,0-8.8.071.305.305,0,0,0,.251.437c2.351-.063,8.172-.028,8.344-.082A.277.277,0,0,0,146.146,100.378Z" fill="#000000"></path><path d="M182.775,119.477a52.842,52.842,0,0,0-1.037-6.24A19.954,19.954,0,0,0,169.07,99.6a23.053,23.053,0,0,0-12.1-1.046c-3.317.875-3.278,4.772-.813,5.156a5.075,5.075,0,0,0,1.507.007,5.446,5.446,0,0,0-2.182,2.493,2.479,2.479,0,0,0,1.981,3.4,2.571,2.571,0,0,0-.166,4.187c2.086,1.47,4.848-.475,6.788.981,1.312,1.17.917,3.493-.619,4.694-.011.009-.012.023-.021.034a.518.518,0,0,1,.484-.016c.308.1,12.447,4.5,18.251,6.483a.3.3,0,0,1,.2.311A26.987,26.987,0,0,0,182.775,119.477Zm-15.522-10.459a.532.532,0,0,1-.635.361l-1.934-.263a.515.515,0,0,1-.36-.635.53.53,0,0,1,.635-.36l1.933.262A.516.516,0,0,1,167.253,109.018Zm-3.886-6.991a11.446,11.446,0,0,1,2.072.226c.652.131.375,1.125-.274,1a10.539,10.539,0,0,0-1.8-.19.516.516,0,0,1,0-1.032Z" fill="#ae877c"></path><path d="M138.166,115.5c2.136,1.079,4.469-.321,5.671-2.122a29.809,29.809,0,0,0-8.693-3.111C135.443,112.267,136.253,114.535,138.166,115.5Z" fill="#ae877c"></path><path d="M182.175,125.979c-5.8-1.982-17.943-6.385-18.251-6.483-.542-.262-.708.478-2.45.994-6.453,1.912-12.072-4.346-17.234-7.223a.3.3,0,0,0-.4.1c-1.168,1.823-3.541,3.21-5.677,2.131-1.913-.967-2.723-3.235-3.022-5.233-.02-.138-.043-.294-.226-.34a30.276,30.276,0,0,0-35.563,26.926.528.528,0,0,1,.757.448,34.977,34.977,0,0,0,1.109,7.878,22.912,22.912,0,0,0,13.514,15.732c.806-1.144,8.769-12.166,11.855-16.6-2.222-1.67-3.458-4.325-4.383-6.876-.228-.627.771-.894,1-.274,2.336,6.437,4.3,5.977,4.336,6.82,1.89,1.138,4.128,1.208,6.289,1.207a78.952,78.952,0,0,1,15.765,1.328A24.309,24.309,0,0,1,158,150.029a28.83,28.83,0,0,0,1.655-7.32,28.291,28.291,0,0,0,12.121-2.59,18.049,18.049,0,0,0,10.6-13.783A.31.31,0,0,0,182.175,125.979Zm-3.93,5.34a20.552,20.552,0,0,1-1.762,2.614.515.515,0,0,1-.73,0,.531.531,0,0,1,0-.73,24.967,24.967,0,0,0,1.6-2.405.517.517,0,0,1,.892.521Z" fill="#c0c195"></path><path d="M147.5,159.954a8.635,8.635,0,0,0-2.6,1.112,30.223,30.223,0,0,1-8.117,2.549c-7.369,1.257-14.838,1-21.851-1.759a.6.6,0,0,1-.549.022,28.606,28.606,0,0,1-5.088-2.858c-6.371-4.621-9.432-11.644-10.069-19.522a30.279,30.279,0,0,0,50.823,22.513C149.729,160.392,148.581,159.7,147.5,159.954Z" fill="#c0c195"></path><path d="M100.668,146.9a23.389,23.389,0,0,0,8.62,12.122,28.606,28.606,0,0,0,5.088,2.858.6.6,0,0,0,.549-.022c-.1-.041-.2-.076-.3-.118a.3.3,0,0,1-.2-.366c.022-.073.037-.07.312-.459a22.912,22.912,0,0,1-13.514-15.732,34.977,34.977,0,0,1-1.109-7.878c-.011-.665-1.07-.647-1.033,0A35.558,35.558,0,0,0,100.668,146.9Z" fill="#c0c195"></path><path d="M123.2,137.166c-.224-.62-1.223-.353-1,.274.925,2.551,2.161,5.206,4.383,6.876.09-.129.182-.257.272-.387a.3.3,0,0,1,.4-.1c.09.061.185.106.278.161C127.5,143.148,125.534,143.593,123.2,137.166Z" fill="#c0c195"></path><path d="M158,150.029a24.337,24.337,0,0,0-8.406-3.508,78.965,78.965,0,0,0-15.765-1.328c-2.257,0-4.658-.085-6.567-1.368a.3.3,0,0,0-.4.1c-.09.13-12.32,17.248-12.413,17.382a.3.3,0,0,0,.174.427c9.434,3.95,22.419,3.133,30.27-.672a8.635,8.635,0,0,1,2.6-1.112c1.066-.246,2.221.4,2.545,2.057.295,1.5-.206,3.151.288,4.638.258.778.838,1.594,1.758,1.506a2.521,2.521,0,0,0,1.71-1.422,26.181,26.181,0,0,0,1.476-4.315,11.655,11.655,0,0,0,.688,3.98,2.07,2.07,0,0,0,2.529,1.163,2.322,2.322,0,0,0,1.131-1.484,14.382,14.382,0,0,0,.191-3.774c.218.829.428,1.66.639,2.49a3.484,3.484,0,0,0,.884,1.8,1.642,1.642,0,0,0,1.456.426c1.431-.287,1.767-2.06,1.941-3.261C165.423,159.011,163.4,153.641,158,150.029Zm-37.58,8.3,4.22,1.378c.63.206.358,1.2-.275,1l-4.219-1.379C119.514,159.12,119.785,158.123,120.418,158.33Z" fill="#ae877c"></path><path d="M108.324,45.114a29.145,29.145,0,0,0-8.279-1.32.18.18,0,0,0-.032.006.3.3,0,0,1,.257.284c.267,4.276.185,6.059.1,10.921,0,0,3.043-3.647,3.715-4.482,4.4-5.468,3.879-5.432,4.263-5.393Z" fill="#ffaaaa"></path><path d="M129.777,72.912a30.47,30.47,0,0,0-21.385-27.777c-.408-.083.12-.116-4.3,5.388-.671.835-3.715,4.482-3.715,4.482.08-4.809.162-6.655-.1-10.921a.307.307,0,0,0-.29-.291A30.512,30.512,0,0,0,81.253,49.9l1.834.457a.3.3,0,0,1,.214.28v7.385a4.732,4.732,0,0,1,.743,1.727c.159.638.308,1.279.412,1.928.221,1.381-.079.9.5-1.385a3.14,3.14,0,0,1,1.185-1.777A1.818,1.818,0,0,1,88,58.551c1.2.728,1.376,2.179,1.453,3.447.051.842.222,3.367.24,3.788a3.908,3.908,0,0,0,.064.916,1.125,1.125,0,0,0,1.378.747c2.832-.789,3.751-1.769,5.181-1.185a2.135,2.135,0,0,1,.875,3.026,4.746,4.746,0,0,1-2.363,1.972c-.917.428-1.867.8-2.762,1.271a1.945,1.945,0,0,0-1.01,2.439c.48.041.288.466,1.481,1.678,2.358,2.394,5.891,2.846,9.1,2.6.664-.05.659.98,0,1.033a19.46,19.46,0,0,1-3.792-.083,10.036,10.036,0,0,1-7.134-4.214c-.879.739-11.209,9.658-12.867,11.03a22.931,22.931,0,0,0,3.123,5.07,17.621,17.621,0,0,0,9.381,6.029,25.765,25.765,0,0,0,12.587.307c.648-.149.922.847.275,1-6.3,1.449-14.21.614-19.416-3.245a22.617,22.617,0,0,1-6.9-8.761.583.583,0,0,1,.016-.536c-2.821-6.458-2.474-14.585-2.847-23.046l-2.807-.71c-.526,1.351-.485,1.64-1.111,3.066A4.447,4.447,0,0,1,66.138,68.5c-2.053-.048-3.529-1.611-4.444-3.318l-.018-.021a.3.3,0,0,1-.114.367c-5.631,4.163-9.915,7.169-13.953,10.549a.29.29,0,0,1-.462-.09v.027A22.347,22.347,0,0,0,53.7,85.551c5.117,4.325,13.158,5.429,19.76,4.015a30.3,30.3,0,0,0,56.321-16.654ZM91.908,96.686l-3.229-1.934a.517.517,0,0,1-.161-.713.512.512,0,0,1,.682-.178c1.091.62,2.161,1.276,3.229,1.933a.517.517,0,0,1-.521.892Zm-.142-31.613a.517.517,0,0,1-.274-1c2.092-.63,21.152-6.306,28.652-8.283a.516.516,0,0,1,.274,1C118.326,57.42,99.266,63.1,91.766,65.073Zm-32.5,20.205A19.543,19.543,0,0,0,56.7,83.613c-.584-.319-.062-1.212.521-.892a20.852,20.852,0,0,1,2.768,1.827.515.515,0,0,1,0,.73A.53.53,0,0,1,59.262,85.278Z" fill="#b6dbff"></path><path d="M76.893,87.412c3.792,8.165,10.045,12.157,18.9,12.646a26.574,26.574,0,0,0,7.422-.64c.647-.149.373-1.145-.275-1-5.93,1.359-13.152.53-18.085-2.767a20.542,20.542,0,0,1-7.006-8.639c-.344.285-.3.275-.449.336a.235.235,0,0,1-.32-.083c-.015-.026-.156-.365-.167-.393A.583.583,0,0,0,76.893,87.412Z" fill="#6596e1"></path><path d="M97.846,80.2a19.46,19.46,0,0,0,3.792.083c.659-.053.664-1.083,0-1.033-3.21.246-6.743-.206-9.1-2.6-1.175-1.193-1.008-1.638-1.481-1.678a1.991,1.991,0,0,0,.14.3.291.291,0,0,1-.045.352l-.439.367A10.036,10.036,0,0,0,97.846,80.2Z" fill="#6596e1"></path><path d="M83.087,50.361c-34.388-9.255-32.14-8.049-32.3-7.98a.271.271,0,0,0-.175.258v5.814a2.106,2.106,0,0,1,3.572.107,13.271,13.271,0,0,1,1.085,4.189q.045-.312.092-.624a5.574,5.574,0,0,1,.99-2.88c1.141-1.448,3.231-.423,3.594,1.347a15.271,15.271,0,0,1,.3,2.956c.344,4.9,0,1.537.417,6.89l13.4,3.392a15.042,15.042,0,0,1,.221-4.414c.258-1.1.924-2.614,2.189-2.8a1.759,1.759,0,0,1,1.559.582,3.389,3.389,0,0,1,.714,1.868c.325,1.881.072,1.7.414.545.466-2.081,2.834-3.271,4.142-1.585V50.641A.293.293,0,0,0,83.087,50.361Z" fill="#ffaaaa"></path><path d="M55.1,41.387c6.168-1.969,22.18-7.39,24.048-8.044.623-.218.355-1.216-.275-1-6.111,2.137-22.162,7.442-24.047,8.043C54.194,40.593,54.464,41.59,55.1,41.387Z" fill="#000000"></path><path d="M60.828,62.6c-.089-.566-.049-.636-.217-2.774-.289-3.673-.092-2.314-.37-6.279a15.271,15.271,0,0,0-.3-2.956c-.364-1.77-2.454-2.794-3.594-1.347a5.574,5.574,0,0,0-.99,2.88q-.047.312-.092.624a13.252,13.252,0,0,0-1.085-4.189,2.014,2.014,0,0,0-2.991-.632,4.171,4.171,0,0,0-1.534,2.83q-.068-.549-.155-1.1a4.575,4.575,0,0,0-.545-1.9,1.921,1.921,0,0,0-1.338-.867c-1.188-.166-1.993,1.022-2.36,1.987a9.837,9.837,0,0,0-.54,3.948c.359,7.849,0,16.663,2.4,23.12.007.013.016.026.024.038a.29.29,0,0,0,.462.09c3.981-3.332,7.973-6.131,13.953-10.549C62.031,65.228,61.168,64.769,60.828,62.6Z" fill="#ffaaaa"></path><path d="M82.18,32.436,92.5,29.282c.634-.194.364-1.191-.274-1L81.905,31.44C81.272,31.634,81.542,32.631,82.18,32.436Z" fill="#000000"></path><path d="M96.316,66.264c-1.434-.586-2.382.406-5.181,1.185a1.125,1.125,0,0,1-1.378-.747,3.908,3.908,0,0,1-.064-.916c-.018-.421-.189-2.946-.24-3.788-.077-1.268-.248-2.719-1.453-3.447a1.818,1.818,0,0,0-1.858-.032A3.14,3.14,0,0,0,84.957,60.3c-.579,2.283-.28,2.767-.5,1.385-.1-.649-.253-1.29-.412-1.928a3.452,3.452,0,0,0-1.324-2.248c-1.445-.883-3.189.448-3.561,2.106-.346,1.162-.091,1.324-.414-.545a3.389,3.389,0,0,0-.714-1.868,1.759,1.759,0,0,0-1.559-.582c-1.265.186-1.931,1.7-2.189,2.8a13.145,13.145,0,0,0-.247,3.808c.231,3.733.128,10.069.819,15.657a27.1,27.1,0,0,0,2.2,8.352.234.234,0,0,0,.3.136c.428-.162,1.96-1.772,13.79-11.75a.291.291,0,0,0,.045-.352,1.94,1.94,0,0,1,.87-2.734c2.392-1.269,3.979-1.354,5.125-3.243A2.135,2.135,0,0,0,96.316,66.264Z" fill="#ffaaaa"></path><path d="M101.729,26.116c5.33-1.963,10.63-3.773,15.968-5.457.631-.2.361-1.2-.275-1-5.45,1.721-10.748,3.534-15.968,5.457C100.836,25.348,101.1,26.346,101.729,26.116Z" fill="#000000"></path><path d="M91.766,65.073c7.5-1.978,26.56-7.653,28.652-8.284a.516.516,0,0,0-.274-1c-7.5,1.977-26.56,7.653-28.652,8.283a.517.517,0,0,0,.274,1Z" fill="#000000"></path><path d="M165.439,102.253a11.446,11.446,0,0,0-2.072-.226.516.516,0,0,0,0,1.032,10.539,10.539,0,0,1,1.8.19C165.814,103.378,166.091,102.384,165.439,102.253Z" fill="#000000"></path><path d="M166.892,108.383l-1.933-.262a.53.53,0,0,0-.635.36.515.515,0,0,0,.36.635l1.934.263a.532.532,0,0,0,.635-.361A.516.516,0,0,0,166.892,108.383Z" fill="#000000"></path><path d="M176.483,133.933a20.552,20.552,0,0,0,1.762-2.614.517.517,0,0,0-.892-.521,24.967,24.967,0,0,1-1.6,2.405.531.531,0,0,0,0,.73A.515.515,0,0,0,176.483,133.933Z" fill="#c0c195"></path><path d="M151.267,99.809h-3.954a.517.517,0,0,0,0,1.033h3.954a.517.517,0,0,0,0-1.033Z" fill="#000000"></path><path d="M56.155,28.567a4.165,4.165,0,1,0,2.437,2.624A4.165,4.165,0,0,0,56.155,28.567Zm-.564,6.847a3.133,3.133,0,1,1,2.137-3.39A3.162,3.162,0,0,1,55.591,35.414Z" fill="#b6dbff"></path><path d="M68.465,24.827a3.939,3.939,0,1,0,2.457,3.849A3.935,3.935,0,0,0,68.465,24.827Z" fill="#ffaaaa"></path><path d="M80.9,20.651a4.165,4.165,0,1,0,2.437,2.623A4.165,4.165,0,0,0,80.9,20.651ZM80.331,27.5a3.133,3.133,0,1,1,2.136-3.39A3.161,3.161,0,0,1,80.331,27.5Z" fill="#b6dbff"></path><path d="M10.864,126.412a.521.521,0,0,0,.73,0c1.574-1.553,5.348-5.364,5.348-5.364a.522.522,0,0,0,0-.73c-1.553-1.574-5.143-5.126-5.364-5.349a.528.528,0,0,0-.73,0S5.72,120.11,5.5,120.334a.52.52,0,0,0,0,.73C6.616,122.2,10.761,126.311,10.864,126.412Zm4.983-5.728-4.619,4.633L6.6,120.7l4.619-4.633Z" fill="#ffc431"></path><path d="M10.864,111.463a.521.521,0,0,0,.73,0c1.574-1.553,5.128-5.14,5.348-5.364a.521.521,0,0,0,0-.73c-1.553-1.574-5.364-5.348-5.364-5.348a.525.525,0,0,0-.73,0C9.3,101.6,5.72,105.161,5.5,105.385a.52.52,0,0,0,0,.73C12.547,113.257,10.434,111.04,10.864,111.463Zm4.983-5.728-4.619,4.633L6.6,105.749l4.619-4.633Z" fill="#ffc431"></path><path d="M16.782,90.25c-5.774-5.757-5.4-5.456-5.59-5.429a.265.265,0,0,0-.184.081c-1.549,1.579-5.129,5.141-5.349,5.364a.294.294,0,0,0,0,.411s5.141,5.128,5.364,5.348a.293.293,0,0,0,.411,0c1.574-1.553,5.348-5.364,5.348-5.364A.415.415,0,0,0,16.782,90.25Z" fill="#ffaaaa"></path><path d="M59.043,109.881a44.817,44.817,0,0,0-18.2,1.332.093.093,0,0,0-.024.013.283.283,0,0,1,.289.137c2.31,4.843,7.955,9.108,12.386,6.571a8.774,8.774,0,0,0,3.28-3.28,25.175,25.175,0,0,0,1.977-4.559.3.3,0,0,1,.311-.2Z" fill="#ffaaaa"></path><path d="M92.689,147.094c-.689-8.662-6.69-17.982-12.5-24.472-5.683-6.346-12.651-11.277-21.078-12.73a.308.308,0,0,0-.357.2,25.175,25.175,0,0,1-1.977,4.559,8.774,8.774,0,0,1-3.28,3.28c-4.373,2.5-10.031-1.634-12.386-6.571a.3.3,0,0,0-.328-.134A61.943,61.943,0,0,0,24.6,118.222c-8.043,4.912-16.683,13.056-18.916,22.293a15.732,15.732,0,0,0,.28,8.744,6.161,6.161,0,0,0,2.266,2.977c2.263,1.605,4.287,1.813,7.073,1.844.847.009,1.694.037,2.541.046a3.383,3.383,0,0,0,1.039-.016c-.653,0-1.306,0-1.959,0a.293.293,0,0,1-.251-.437c3.507-5.039,8.778-11.211,11.752-15.034.144-.186.239-.393.5-.379a32.982,32.982,0,0,1,7.995,2.157,14.169,14.169,0,0,1,5.246,3.117,10.357,10.357,0,0,1,2.564,5.221,25.192,25.192,0,0,1,.415,5.385A5.486,5.486,0,0,1,45,155.753c-.4,1.3-2.07,1.513-3.241.943a2.18,2.18,0,0,1-.839-.885,3.219,3.219,0,0,1-.148.813,2.086,2.086,0,0,1-2.579,1.167,3.776,3.776,0,0,1-1.989-1.9,38.041,38.041,0,0,1-1.494-3.675,16.734,16.734,0,0,1,.111,3.638,3.548,3.548,0,0,1-.707,2.02,2.175,2.175,0,0,1-2.056.47c-1.922-.531-1.58-3.194-2.584-4.183-.033-.03-.127-.078-.123-.089-.024,0-2.045,0-2.069,0a28.9,28.9,0,0,0,3.374,5.006l13.3.874a6.187,6.187,0,0,1,.631-1.26c.431-.661,10.588-16.321,10.834-16.694a4.915,4.915,0,0,1,4.731-2.164c.149-2.121,1.047-5.032,3.032-4.485,1.613.445,2.022,2.508,2.29,3.907a12.839,12.839,0,0,0,.633,2.383,1.344,1.344,0,0,0,1.223,1.015c.883-.085,4.005-1.051,6.945-1.772a.3.3,0,0,1,.368.281v20.75a.287.287,0,0,1-.248.28,53.443,53.443,0,0,0,9.807-1.741,14.474,14.474,0,0,0,3.363-1.379C90.816,156.983,93.137,152.731,92.689,147.094Zm-79.365,2.932a.529.529,0,0,1-.635.361,4.347,4.347,0,0,1-3.59-3.835.517.517,0,0,1,.516-.516.528.528,0,0,1,.517.516,3.327,3.327,0,0,0,2.831,2.839A.516.516,0,0,1,13.324,150.026Zm12.435-11.558-5.6-1.135c-.652-.132-.374-1.127.274-1l5.6,1.135C26.685,137.6,26.407,138.6,25.759,138.468Zm4.128-2.725a20.233,20.233,0,0,0-.5-4.491c-.155-.647.841-.921,1-.275a18.634,18.634,0,0,1,.538,4.766.516.516,0,0,1-1.032,0Zm39.466,3.1a.531.531,0,0,1-.516-.516,41.252,41.252,0,0,1-.44-5.809.517.517,0,0,1,1.033,0,54.247,54.247,0,0,0,.44,5.809A.517.517,0,0,1,69.353,138.841Zm11.323.748a20.207,20.207,0,0,0-4.723,1.757c-.589.308-1.11-.583-.522-.891a21.285,21.285,0,0,1,4.971-1.862C81.049,138.44,81.323,139.436,80.676,139.589ZM88.831,152.5a6.951,6.951,0,0,1-3.3,4.032c-.584.319-1.106-.575-.521-.892a5.9,5.9,0,0,0,2.82-3.414C88.034,151.593,89.03,151.864,88.831,152.5Z" fill="#ffe660"></path><path d="M60.024,163.022c-3.8.045-2.225-.03-3.933-.056l-5.135,6.92a30.131,30.131,0,0,0,23.311-7.667C70.283,162.644,65.182,162.961,60.024,163.022Z" fill="#ffe660"></path><path d="M174.781,158.91c-4.021-6.19-3.951-6.129-4.051-6.218a.307.307,0,0,0-.454.03c-1.312,2.027-2.568,4.109-3.772,6.2a.294.294,0,0,0,.251.437s7.452-.012,7.776-.014A.292.292,0,0,0,174.781,158.91Z" fill="#ffaaaa"></path><path d="M184.636,149.055c-3.818-5.878-3.947-6.124-4.052-6.217a.306.306,0,0,0-.454.03c-1.312,2.027-2.568,4.108-3.771,6.2a.293.293,0,0,0,.251.437s7.451-.011,7.775-.014A.293.293,0,0,0,184.636,149.055Z" fill="#ffaaaa"></path><path d="M194.929,138.844c-4.1-6.31-3.932-6.1-4.031-6.2a.534.534,0,0,0-.8-.063c-.368.359-3.175,5.115-3.841,6.272a.522.522,0,0,0,.446.777s7.452-.011,7.776-.014A.52.52,0,0,0,194.929,138.844Zm-7.314-.244c.931-1.585,1.879-3.161,2.864-4.713l3.055,4.7Z" fill="#c0c195"></path><path d="M85.536,156.532a6.951,6.951,0,0,0,3.3-4.032c.2-.636-.8-.907-1-.274a5.9,5.9,0,0,1-2.82,3.414C84.43,155.957,84.952,156.851,85.536,156.532Z" fill="#ffc431"></path><path d="M12.963,149.391a3.327,3.327,0,0,1-2.831-2.839.528.528,0,0,0-.517-.516.517.517,0,0,0-.516.516,4.347,4.347,0,0,0,3.59,3.835.529.529,0,0,0,.635-.361A.516.516,0,0,0,12.963,149.391Z" fill="#ffc431"></path><path d="M124.638,159.708l-4.22-1.378c-.633-.207-.9.79-.274.995l4.219,1.379C125,160.91,125.268,159.914,124.638,159.708Z" fill="#000000"></path><path d="M57.224,82.721c-.583-.32-1.1.573-.521.892a19.543,19.543,0,0,1,2.559,1.665.53.53,0,0,0,.73,0,.515.515,0,0,0,0-.73A20.852,20.852,0,0,0,57.224,82.721Z" fill="#6596e1"></path><path d="M92.429,95.794c-1.068-.657-2.138-1.313-3.229-1.933a.516.516,0,0,0-.521.891l3.229,1.934a.517.517,0,0,0,.521-.892Z" fill="#6596e1"></path><path d="M53.568,162.666c-.989,1.523-1.462,2.524-2.938,3.257l-4.914,2.441a1.656,1.656,0,0,1-1.558.153,1.5,1.5,0,0,1-.778-1.529c.263-5.508.2-5.962.569-7.029l-19.318-1.27a.48.48,0,0,0-.482.217c-.688.917-7.664,10.241-7.712,10.344a.238.238,0,0,0,.068.33.393.393,0,0,0,.194.083c.56.04,31.62,2.151,32.47,2.227a.5.5,0,0,0,.478-.24l6.444-8.684A7.775,7.775,0,0,1,53.568,162.666Z" fill="#ffaaaa"></path><path d="M44.726,148.753a10.357,10.357,0,0,0-2.564-5.221,14.169,14.169,0,0,0-5.246-3.117,33.442,33.442,0,0,0-7.995-2.157c-.258-.014-.353.193-.5.379-2.874,3.695-8.295,10.067-11.752,15.034a.293.293,0,0,0,.251.437c1.036.01,12.323-.043,12.425-.033,0,.011.09.059.123.089,1.021,1.007.661,3.652,2.584,4.183a2.175,2.175,0,0,0,2.056-.47,3.548,3.548,0,0,0,.707-2.02,16.8,16.8,0,0,0-.111-3.638,37.8,37.8,0,0,0,1.494,3.675,3.776,3.776,0,0,0,1.989,1.9,2.086,2.086,0,0,0,2.579-1.167,3.219,3.219,0,0,0,.148-.813,2.427,2.427,0,0,0,2.8,1.1A1.7,1.7,0,0,0,45,155.753a5.486,5.486,0,0,0,.144-1.615A25.192,25.192,0,0,0,44.726,148.753Zm-5.832-.375a20.149,20.149,0,0,1-.687-2.281c-.154-.648.842-.921,1-.275a20.228,20.228,0,0,0,.687,2.282C40.119,148.73,39.12,149,38.894,148.378Zm-5.708,1.5a4.447,4.447,0,0,1-.574-1.525.525.525,0,0,1,.361-.635.518.518,0,0,1,.635.36,3.99,3.99,0,0,0,.47,1.279.517.517,0,0,1-.892.521Z" fill="#ffaaaa"></path><path d="M51.61,148.934c1.779-1.514,7.1-3.643,9.309-4.376a8.767,8.767,0,0,1-.774-4.717,4.915,4.915,0,0,0-4.731,2.164c-.246.373-10.4,16.033-10.834,16.694a5.566,5.566,0,0,0-.8,1.83c-.179.756-.129.673-.4,6.459a1.5,1.5,0,0,0,.778,1.529,1.656,1.656,0,0,0,1.558-.153c6.683-3.32,5.78-2.506,7.852-5.7-2.14-.806-1.864-3.933.351-5.034a2.915,2.915,0,0,1-2.443-2.749,2.507,2.507,0,0,1,1.531-2.068C50.935,152.636,49.765,150.5,51.61,148.934Z" fill="#000000"></path><path d="M74.445,140.905a.283.283,0,0,0-.177-.016c-3.763.923-5.964,1.677-6.945,1.772a1.344,1.344,0,0,1-1.223-1.015,12.839,12.839,0,0,1-.633-2.383c-.268-1.4-.677-3.462-2.29-3.907-1.711-.472-2.536,1.669-2.815,2.955a9.988,9.988,0,0,0,.557,6.247c-2.238.745-7.545,2.875-9.309,4.376a2.7,2.7,0,0,0-.881,1.356,2.039,2.039,0,0,0,1.117,2.18,3.1,3.1,0,0,0,1.161.345,2.507,2.507,0,0,0-1.531,2.068,2.918,2.918,0,0,0,2.443,2.749c-2.4,1.193-2.308,4.344-.351,5.034a7.53,7.53,0,0,0,2.523.3c1.642.025.2.1,3.933.056,7.268-.081,14.2-.771,14.364-.822a.286.286,0,0,0,.248-.28C74.8,139.441,74.732,141.03,74.445,140.905ZM59.273,151.146a.528.528,0,0,1,.361-.635l1.4-.527a.517.517,0,0,1,.635.361.526.526,0,0,1-.36.635l-1.4.527A.518.518,0,0,1,59.273,151.146Zm1.438,5.819c.4-.1.792-.2,1.189-.3a.517.517,0,0,1,.275,1c-.4.1-.793.2-1.19.3a.517.517,0,0,1-.274-1Z" fill="#ffaaaa"></path><path d="M16.363,171.879q-.3,2.691-.6,5.384a.517.517,0,0,0,.516.516.526.526,0,0,0,.517-.516l.6-5.384a.517.517,0,0,0-.516-.517A.525.525,0,0,0,16.363,171.879Z" fill="#000000"></path><path d="M46.856,174.046q-.26,2.9-.518,5.8a.519.519,0,0,0,.517.517.525.525,0,0,0,.516-.517l.518-5.8a.517.517,0,0,0-1.033,0Z" fill="#000000"></path><path d="M157.732,86.832a4.83,4.83,0,0,1,3.975,4.592.517.517,0,0,0,1.033,0,5.929,5.929,0,0,0-4.734-5.588.533.533,0,0,0-.635.361A.517.517,0,0,0,157.732,86.832Z" fill="#000000"></path><path d="M159.073,82.525a8.526,8.526,0,0,1,6.084,7.173.526.526,0,0,0,.516.516.517.517,0,0,0,.517-.516,9.391,9.391,0,0,0-6.843-8.169.517.517,0,0,0-.274,1Z" fill="#000000"></path><path d="M59.908,151.507l1.4-.527a.526.526,0,0,0,.36-.635.517.517,0,0,0-.635-.361l-1.4.527a.528.528,0,0,0-.361.635A.517.517,0,0,0,59.908,151.507Z" fill="#ffaaaa"></path><path d="M61.9,156.667c-.4.1-.793.2-1.189.3a.517.517,0,0,0,.274,1c.4-.1.793-.2,1.19-.3a.517.517,0,0,0-.275-1Z" fill="#ffaaaa"></path><path d="M33.186,149.882a.517.517,0,0,0,.892-.521,3.99,3.99,0,0,1-.47-1.279.518.518,0,0,0-.635-.36.525.525,0,0,0-.361.635A4.447,4.447,0,0,0,33.186,149.882Z" fill="#ffaaaa"></path><path d="M38.894,148.378c.226.619,1.225.352,1-.274a20.228,20.228,0,0,1-.687-2.282c-.154-.646-1.15-.373-1,.275A20.149,20.149,0,0,0,38.894,148.378Z" fill="#ffaaaa"></path><path d="M75.953,141.346a20.207,20.207,0,0,1,4.723-1.757c.647-.153.373-1.149-.274-1a21.285,21.285,0,0,0-4.971,1.862C74.843,140.763,75.364,141.654,75.953,141.346Z" fill="#ffc431"></path><path d="M26.033,137.472l-5.6-1.135c-.648-.131-.926.864-.274,1l5.6,1.135C26.407,138.6,26.685,137.6,26.033,137.472Z" fill="#ffc431"></path><path d="M29.887,135.743a.516.516,0,0,0,1.032,0,18.678,18.678,0,0,0-.538-4.766c-.155-.646-1.151-.372-1,.275A20.233,20.233,0,0,1,29.887,135.743Z" fill="#ffc431"></path><path d="M69.353,138.841a.517.517,0,0,0,.517-.516,54.247,54.247,0,0,1-.44-5.809.517.517,0,0,0-1.033,0,41.252,41.252,0,0,0,.44,5.809A.531.531,0,0,0,69.353,138.841Z" fill="#ffc431"></path></g><g><path d="M40.458,108.5c1.476-.34,2.985-.633,4.449-.917a4.981,4.981,0,0,0,6.743-.859c2.3-.1,4.59-.135,7.316-.151a.518.518,0,0,0,.495-.655,25.79,25.79,0,0,0-1.486-3.721A20.739,20.739,0,0,0,53.5,95.811a8.058,8.058,0,0,0-7.676-2.173,8.67,8.67,0,0,0-6.9,7.357,14.636,14.636,0,0,0,.913,7.156A.528.528,0,0,0,40.458,108.5Zm3.8-6.929a4.038,4.038,0,0,1,7.175.133,4.131,4.131,0,0,1-.959,4.766,4.024,4.024,0,0,1-6.216-4.9Zm7.92-.647a5.048,5.048,0,1,0-8.213,5.8q-1.65.327-3.3.679a14.255,14.255,0,0,1-.822-5.051,8.533,8.533,0,0,1,1.229-4.334A8.324,8.324,0,0,1,49.1,94.557a7.362,7.362,0,0,1,3.216,1.588,17.837,17.837,0,0,1,4.446,5.9,32.963,32.963,0,0,1,1.5,3.5c-2.091.006-4.035.046-5.918.121A5.031,5.031,0,0,0,52.173,100.92Z" fill="#000000"></path><path d="M111.179,35.342a5.047,5.047,0,1,0-8.407,4.684A5.034,5.034,0,0,0,111.179,35.342Zm-1.064,1.976a4.012,4.012,0,1,1-5.561-4.618A4.018,4.018,0,0,1,110.115,37.318Z" fill="#000000"></path><path d="M158.267,149.933a30.925,30.925,0,0,0,1.583-7,28.446,28.446,0,0,0,12.038-2.616,19.226,19.226,0,0,0,8.267-7.2c2.481-3.978,3.911-10.584,1.917-19.439-2.1-9.341-10.868-15.514-20.482-15.743a20.971,20.971,0,0,0-4.493.367c-.025-.1-.1-.226-6.853-16.6a.513.513,0,0,0-.651-.325l-10.7,4.421a.514.514,0,0,0-.325.651c.571,1.38,3.753,9.081,4.564,11.045a5.173,5.173,0,0,0-6.444,4.759,5.053,5.053,0,0,0,9.463,2.549l4.678,11.324a.512.512,0,0,0,.652.325c5.952-2.468,5.69-2.318,5.761-2.418,2.171,1.439,5.029-.478,6.765.992,1.666,1.666.27,4.966-3.721,5.506a10.323,10.323,0,0,1-6.248-1.207c-5.33-2.863-6.128-4.284-9.738-6.28a29.1,29.1,0,0,0-9.248-3.317c-.013,0-.023,0-.036,0a.239.239,0,0,0-.037-.015,30.546,30.546,0,0,0-35.295,36.574c4.927,22.655,32.669,31.852,50.2,16.161.173,1.446-.249,3.031.282,4.42a1.979,1.979,0,0,0,2.026,1.5,2.81,2.81,0,0,0,1.823-1.561,23.372,23.372,0,0,0,1.14-3.1,8.216,8.216,0,0,0,.61,2.8,2.3,2.3,0,0,0,2.785,1.267c1.336-.538,1.5-2.306,1.488-3.537,0-.263-.01.14.386,1.289a2.5,2.5,0,0,0,1.562,1.685,1.965,1.965,0,0,0,1.888-.559,4.423,4.423,0,0,0,1-2.39C165.872,159.026,163.429,153.372,158.267,149.933Zm-3.249-46.482c.015.016.032.032.049.048a3.06,3.06,0,0,0,1.84.5,5.185,5.185,0,0,0-1.684,2.247A2.652,2.652,0,0,0,157,109.72a2.826,2.826,0,0,0-.524,3.553L151.6,115.29c-2.1-5.072-4.859-11.7-4.916-11.868a5.035,5.035,0,0,0-2.184-5.316l-4.769-11.545,9.751-4.029,6.652,16.1C153.866,99.7,153.6,102.5,155.018,103.451Zm-16.532-3.467a4.017,4.017,0,0,1,6.476-.044C144.043,99.951,139.731,99.962,138.486,99.984Zm6.452,4.8a4.02,4.02,0,0,1-7.015-3.69c1.463-.034,6.547-.048,7.626-.064A4.029,4.029,0,0,1,144.938,104.782Zm19.712,9.431c-2.105-1.914-5.7.444-7.237-1.357a2.029,2.029,0,0,1,1.172-2.978c.493-.218.211-.952-.261-.961a2.52,2.52,0,0,1-1.871-.743,1.666,1.666,0,0,1-.124-1.9,6.522,6.522,0,0,1,4.006-2.884.516.516,0,0,0-.275-1,13.565,13.565,0,0,1-2.456.533,2.873,2.873,0,0,1-1.945-.275c-.994-.908-.308-2.588.9-3.094a7.05,7.05,0,0,1,2.642-.523c10.731-.777,19.353,5.679,21.652,14.02a28.9,28.9,0,0,1,.835,12.439c-5.248-1.92-12.21-4.464-17.056-6.031C165.91,117.987,166.129,115.557,164.65,114.213Zm-21.376-.545a4.816,4.816,0,0,1-3.058,1.9c-2.727.3-4.129-2.347-4.653-4.683A29.732,29.732,0,0,1,143.274,113.668ZM100.111,137.3a29.488,29.488,0,0,1,34.281-26.641c.379,2.286,1.463,4.76,3.722,5.7,2.3.956,4.695-.319,6.119-2.158,4.924,2.854,9.674,8.09,15.92,7.38a7.909,7.909,0,0,0,3.559-1.3c3.213,1.028,15.092,5.328,17.8,6.317a17.263,17.263,0,0,1-1.929,5.462c-2.566,4.551-7.6,7.765-12.745,8.988a33.676,33.676,0,0,1-7.44.865.527.527,0,0,0-.517.516,29.74,29.74,0,0,1-1.509,6.938,30.2,30.2,0,0,0-12.739-3.866c-7.258-.793-11.583-.339-14.012-.7a7.824,7.824,0,0,1-3.274-1.181c-.012-.01-.017-.022-.03-.031-2.114-1.485-3.261-4.074-4.113-6.423-.225-.621-1.223-.353-1,.274.9,2.481,2.1,5.059,4.208,6.735-1.508,2.156-11.079,15.49-11.889,16.643a22.877,22.877,0,0,1-13.3-15.637A36.593,36.593,0,0,1,100.111,137.3Zm1.613,12.347c4.327,9.649,13.583,14.162,24.209,14.832,7.972.5,15.392-1.25,19.207-3.293,1.61-.861,3.661-1.909,4.44.144A29.487,29.487,0,0,1,101.724,149.65Zm62.309,13.124a8.276,8.276,0,0,1-.514,2.588c-.273.7-1.01,1.145-1.541.722-.824-.658-.612-1.619-1.959-6.059a.519.519,0,0,0-1.014.138c-.067,4.447.253,5.46-.534,6.414-.356.433-.874.308-1.3.04a1.239,1.239,0,0,1-.525-.668c-.659-2.022-.44-3.668-.792-5.843a.517.517,0,0,0-1.014.137,22.527,22.527,0,0,1-1.345,5.176,3.323,3.323,0,0,1-1.172,1.823c-.781.47-1.2-.652-1.326-1.234-.27-2.46.286-3.708-.618-5.4a2.787,2.787,0,0,0-3.449-1.344A32.4,32.4,0,0,0,143.111,161c-7.3,2.979-18.836,3.662-27.613.217,1.229-1.75,5.525-7.532,11.758-16.451,2.973,1.718,6.7,1.136,10.061,1.257,5.048.181,10.457.5,15.211,2.178C159.271,150.585,164.4,155.61,164.033,162.774Z" fill="#000000"></path><path d="M126.036,47.441c2.475-5.76.176-12.73-5.848-14.529a6.354,6.354,0,0,0-5.108.386,17.467,17.467,0,0,0-3.774-4.831,7.276,7.276,0,0,0-2.841-1.593,10.911,10.911,0,0,0-8.165,1.405c-4.544,2.754-5.138,7.526-2.655,10.453a8.362,8.362,0,0,0-2.589,5.121.225.225,0,0,0,0,.058,28.814,28.814,0,0,0-13.874,5.761L51.032,42.141a.522.522,0,0,0-.632.372c-.031.122-.009,5.032-.029,5.89a4.592,4.592,0,0,0-.652,1.2,4.735,4.735,0,0,0-.568-1.953,2.154,2.154,0,0,0-1.533-.98c-1.3-.163-2.176,1.09-2.578,2.153a10.028,10.028,0,0,0-.549,4.008c.3,6.635.069,15.616,1.943,21.828a23.15,23.15,0,0,0,7.1,11.053c5.155,4.361,13.2,5.484,19.809,4.108a30.5,30.5,0,0,0,54.763-26.293l.03-.013a10.309,10.309,0,0,0,5.431-7.282C134.387,50.794,130.225,46.436,126.036,47.441ZM84.822,65.89c.158-.239.223-1.865.7-4.451.054-.289.009-.09.095-.482.215-1.459,1.457-2.645,2.492-1.22.554.764.53,2.288.589,3.145.138,2.014.158,3.029.227,3.64a1.889,1.889,0,0,0,2.479,1.688c.388-.095,1.569-.517,1.779-.6a11.029,11.029,0,0,1,1.927-.684,1.264,1.264,0,0,1,1.394,1.91c-.773,1.628-3.135,1.937-5.124,3.168A2.692,2.692,0,0,0,90.3,75.28c-2.217,1.866-11.992,10.3-12.788,10.962a29.966,29.966,0,0,1-1.956-8.219c-.641-5.717-.583-13.812-.7-14.439-.035-.778-.064-1.556-.025-2.333a5.633,5.633,0,0,1,1.022-3.334,1.008,1.008,0,0,1,1.352-.364,2.125,2.125,0,0,1,.74,1.6,31.38,31.38,0,0,1,.421,4.733.516.516,0,0,0,1.032,0,21.363,21.363,0,0,1,.356-3.3,3.316,3.316,0,0,1,1.173-2.29c1.1-.7,1.779.024,2.155,1.05a17.76,17.76,0,0,1,.71,3.413,23.058,23.058,0,0,1,.085,2.8A.536.536,0,0,0,84.822,65.89ZM51.415,43.3c2.058.513,24.31,6.058,31.078,7.746v6.1c-1.487-.58-3.044.658-3.477,2.178l0-.012a4.829,4.829,0,0,0-.542-1.915,2.161,2.161,0,0,0-1.49-1.009c-1.336-.214-2.242,1.065-2.653,2.158a10.762,10.762,0,0,0-.53,4.381c-1.479-.374-8.068-2.053-12.964-3.3-.567-8.437-.35-8.489-.994-9.926a2.58,2.58,0,0,0-1.829-1.352A2.143,2.143,0,0,0,55.93,49.43a5.221,5.221,0,0,0-.666,1.865,9.566,9.566,0,0,0-.888-2.849,2.207,2.207,0,0,0-2.961-.9ZM70.957,63.276c-.754,1.975-.737,2.478-1.322,3.3A4.2,4.2,0,0,1,64.54,67.9a6.377,6.377,0,0,1-2.679-2.882,9.233,9.233,0,0,1-.956-4.3C62.9,61.221,69.21,62.834,70.957,63.276Zm-25.34-8.023c-.083-3.175-.449-5.073.941-7.05a1.008,1.008,0,0,1,1.352-.363,2.044,2.044,0,0,1,.729,1.541,31.316,31.316,0,0,1,.431,4.8.517.517,0,0,0,1.033,0,21.064,21.064,0,0,1,.366-3.35,3.2,3.2,0,0,1,1.211-2.263c2-1.22,2.484,2.29,2.683,3.5a18.529,18.529,0,0,1,.218,3.794c-.024.569.929.72,1.014.137.141-.949.3-1.895.421-2.848.168-1.35.465-3.941,1.81-3.779A1.739,1.739,0,0,1,59.135,50.7a12.484,12.484,0,0,1,.281,2.592c.637,9.2.345,9.674,1.353,11.821-4.431,3.27-9.046,6.581-13.121,9.895C45.819,69.746,45.788,61.778,45.617,55.253Zm67.665,44.915A29.472,29.472,0,0,1,74.04,88.982a.532.532,0,0,0-.583-.237,24.859,24.859,0,0,1-13.264-.6C54.419,86.3,50.32,81.928,48.049,76.1c4.292-3.5,8.785-6.732,13.238-10.017a6.043,6.043,0,0,0,4.66,3.217,5.178,5.178,0,0,0,4.691-2.362c.579-.915.529-1.329,1.323-3.406l1.87.473c.343,12.364-.075,24.726,9.964,32.168,5.21,3.864,13.122,4.694,19.415,3.246.648-.149.374-1.144-.274-1a25.769,25.769,0,0,1-12.588-.307,17.629,17.629,0,0,1-9.381-6.029,22.791,22.791,0,0,1-3.021-4.862c.388-.32,10.861-9.341,12.9-11.053,2.017,2.762,5.364,4.549,10.8,4.112.658-.052.664-1.083,0-1.032-3.21.246-6.743-.207-9.1-2.6A8.532,8.532,0,0,1,91.4,75.185a1.74,1.74,0,0,1,.825-2.48c2-1.049,3.907-1.456,4.927-2.923a2.424,2.424,0,0,0-.723-3.7c-1.435-.616-2.651.336-5.024,1.051-1.252.378-1.443-.213-1.49-1.342,0-.019-.19-2.972-.24-3.787a5.386,5.386,0,0,0-.857-3.027c-1.254-1.586-3.609-1.321-4.259,2a9.564,9.564,0,0,0-.919-2.853c-.168-.271-.067.76-.117-7.479a.522.522,0,0,0-.379-.5l-.622-.155A29.322,29.322,0,0,1,99.5,44.6c.389,5.231-.134,10.8.157,11.4.209.329.582.407,1.109-.213,2.81-3.317,5.263-6.281,7.74-9.763a29.891,29.891,0,0,1,17.046,14.3A29.448,29.448,0,0,1,113.282,100.168ZM100.6,44.616a28.231,28.231,0,0,1,6.8,1.07c-1.594,2.218-3.4,4.579-6.72,8.512C100.714,51,100.832,47.8,100.6,44.616Zm27.125,17.927a30.292,30.292,0,0,0-31.609-18.78,7.351,7.351,0,0,1,2.627-4.636.516.516,0,0,0,0-.73c-3.1-3.043-1.532-9.248,5.926-10.649a7.216,7.216,0,0,1,5.637,1.221,16.1,16.1,0,0,1,4.152,5.35.518.518,0,0,0,.8.107c1.239-1.147,3.242-.858,4.046-.68,5.416,1.2,8.766,7.911,5.242,14.437a.517.517,0,0,0,.716.694c2.788-1.78,7.235.811,7.372,5.687A8.917,8.917,0,0,1,127.723,62.543Z" fill="#000000"></path><path d="M55.865,36.41A4.165,4.165,0,1,0,50.744,30.9,4.165,4.165,0,0,0,55.865,36.41Zm-3.88-5.68a3.133,3.133,0,1,1,.142,3.619A3.13,3.13,0,0,1,51.985,30.73Z" fill="#000000"></path><path d="M67.008,32.636a4.123,4.123,0,0,0,3.669-2.221,4.168,4.168,0,1,0-3.669,2.221Zm-2.659-5.857a3.133,3.133,0,1,1,2.771,4.83A3.13,3.13,0,0,1,64.349,26.779Z" fill="#000000"></path><path d="M80.605,28.494a4.165,4.165,0,1,0-5.121-5.514A4.165,4.165,0,0,0,80.605,28.494Zm-3.88-5.681a3.133,3.133,0,1,1,.142,3.62A3.132,3.132,0,0,1,76.725,22.813Z" fill="#000000"></path><path d="M11.577,114.969a.523.523,0,0,0-.73,0c-1.574,1.554-5.348,5.365-5.348,5.365a.523.523,0,0,0,0,.73c1.15,1.165,5.264,5.25,5.364,5.348a.523.523,0,0,0,.73,0s5.126-5.143,5.349-5.364a.528.528,0,0,0,0-.73C15.363,118.77,11.8,115.19,11.577,114.969Zm-.35,10.348L6.594,120.7l4.619-4.633,4.633,4.619Z" fill="#000000"></path><path d="M10.863,111.463a.522.522,0,0,0,.73,0s5.126-5.143,5.349-5.364a.528.528,0,0,0,0-.73c-1.579-1.548-5.141-5.128-5.365-5.348a.52.52,0,0,0-.73,0c-1.574,1.553-5.128,5.14-5.348,5.364a.521.521,0,0,0,0,.73C6.649,107.28,10.763,111.364,10.863,111.463Zm.35-10.347,4.633,4.619-4.619,4.633-4.633-4.619Z" fill="#000000"></path><path d="M10.865,96.186a.521.521,0,0,0,.727,0c5.569-5.5,5.569-5.5,5.5-5.757a.485.485,0,0,0-.147-.338s-5.142-5.129-5.366-5.349a.519.519,0,0,0-.726,0C9.315,86.255,5.78,89.822,5.5,90.108a.52.52,0,0,0,0,.727C6.637,91.989,10.722,96.045,10.865,96.186ZM6.593,90.471l4.62-4.635,4.635,4.621-4.621,4.634Z" fill="#000000"></path><path d="M70.055,113.761c-6.262-3.785-12.458-4.92-19.727-4.408-11.49.809-25.9,6.414-36.585,17.233A35.015,35.015,0,0,0,6.405,137.5a17.63,17.63,0,0,0-.932,10.933,6.969,6.969,0,0,0,4.6,5.066c2.954,1.167,6.172.8,17.078.8a29.077,29.077,0,0,0,3.009,4.53c-5.766-.382-5.852-.547-6.2-.048l-7.692,10.312a.515.515,0,0,0,.415.8l32.636,2.236c.28-.017.293-.037,1.026-1.032.635-.862.666-.869.677-.969a30.735,30.735,0,0,0,23.363-7.7l.024,0a56.394,56.394,0,0,0,9.845-1.752,14.668,14.668,0,0,0,3.417-1.4,10.387,10.387,0,0,0,2.136-1.844c5.517-6.176,2.91-15.64-.95-22.929C84.827,126.893,77.849,118.471,70.055,113.761Zm-11.8-3.179a26.652,26.652,0,0,1-1.366,3.282,10.059,10.059,0,0,1-2.471,3.092c-4.238,3.63-10.1-.2-12.738-5.12A42.786,42.786,0,0,1,58.257,110.582ZM17.933,153.3c3.357-4.71,6.868-8.734,11.151-14.213a32.511,32.511,0,0,1,8.125,2.31c4.028,1.652,6.237,3.83,6.9,8.511a26.674,26.674,0,0,1,.146,5.484,1.017,1.017,0,0,1-.912.771c-2.416.316-1.97-2.354-2.848-5.254a.487.487,0,0,0-.846-.2.545.545,0,0,0-.15.474,19.545,19.545,0,0,1,.588,4.805,1.326,1.326,0,0,1-2.255.713,6.435,6.435,0,0,1-1.53-2.5c-.826-2.075-.959-3.261-1.775-3.461a.527.527,0,0,0-.638.382c-.161.641.525,3.78-.056,5.582-.113.35-.307.741-.661.836-2.58.685-1.6-3.1-3.475-4.2C29.2,153.167,29.664,153.327,17.933,153.3Zm35.439,4.4a3.034,3.034,0,0,0-.616,4.734c-1.66,2.581-1.487,2.265-4.965,4a18.068,18.068,0,0,1-2.941,1.4c-.361.039-.691-.216-.669-.748.259-6.658.442-6.31.319-6.484a16.665,16.665,0,0,1,1.739-2.986l4.255-6.557A2.562,2.562,0,0,0,52.4,152.93C50.547,154.119,51.016,156.853,53.372,157.7ZM43.145,167.19a1.641,1.641,0,0,0,2.462,1.48c.389-.19,5.089-2.529,5.089-2.529a7.1,7.1,0,0,0,2.941-3.159.15.15,0,0,0,.016-.034,4.736,4.736,0,0,0,1.291.217l-5.871,7.912c-2.021-.14-27.812-1.927-31.381-2.178l7.014-9.4c6.592.433,6.211.455,6.318.322.251.157-.818.039,12.48.913A54.493,54.493,0,0,0,43.145,167.19Zm8.639,1.955c1.33-1.79,4.271-5.754,4.412-5.945,1.785.026.249.112,4.679.035.229,0,7.523-.3,8.043-.334.24-.016,3.3-.262,3.655-.294A29.213,29.213,0,0,1,51.784,169.145Zm22.044-7.693a155.084,155.084,0,0,1-16.139.762,15.139,15.139,0,0,1-3.975-.351,1.71,1.71,0,0,1-.661-2.159,2.959,2.959,0,0,1,2.18-1.735.519.519,0,0,0-.137-1.014c-1.35.081-2.867-.716-2.809-2.139.15-1.183,1.7-1.6,2.65-1.862.543-.147.456-1.084-.137-1.014a4.533,4.533,0,0,1-2.423-.1A1.3,1.3,0,0,1,51.5,150.5a3.251,3.251,0,0,1,1.754-1.735,51.414,51.414,0,0,1,8.213-3.54.523.523,0,0,0,.309-.759,7.472,7.472,0,0,1-.851-4.292,6.946,6.946,0,0,1,1.009-3.591.958.958,0,0,1,1.091-.427c1.925.713,1.365,5.461,3.087,6.883,1.031.852,1.873.312,7.712-1.2ZM60.6,144.427a52.058,52.058,0,0,0-8.138,3.611c1.027-1.582,3.454-5.329,3.645-5.617a4.076,4.076,0,0,1,3.782-1.8A9.033,9.033,0,0,0,60.6,144.427Zm25.2,14.625a41.779,41.779,0,0,1-10.941,2.289V141.17a.523.523,0,0,0-.653-.5c-1.534.387-5.424,1.486-6.68,1.741-1.963.4-1.382-4.351-3.09-6.46a2.32,2.32,0,0,0-1.619-.88l-.011,0H62.8c-1.871-.088-2.683,2.595-2.854,4.523a5.011,5.011,0,0,0-4.019,1.429c-.547.554.111-.386-10.243,15.569a19.709,19.709,0,0,0-1.9,3.131l-12.211-.8a29.963,29.963,0,0,1-3.232-4.618s.652,0,.938,0a4.619,4.619,0,0,1,.915,2.123,3.232,3.232,0,0,0,1.337,1.956,2.69,2.69,0,0,0,2.3.007,1.7,1.7,0,0,0,.634-.613,6.415,6.415,0,0,0,.624-3.785c-.01-.244-.072-.179.415.966a6.639,6.639,0,0,0,1.68,2.537,2.365,2.365,0,0,0,3.885-1.087,2.513,2.513,0,0,0,2.133.8,2,2,0,0,0,2.049-1.5,7.267,7.267,0,0,0,.123-1.766c.045-4.652-.66-9.121-4.48-11.773a32.456,32.456,0,0,0-9.785-3.789,15.207,15.207,0,0,0-2.38-.332c-.014,0-.025.016-.039.021l-.023,0c-.295.172-.381.383-.588.65S16.917,152.932,16.656,153.3c-3.188-.052-5.788.027-8.241-1.938a5.376,5.376,0,0,1-1.806-2.725,16.014,16.014,0,0,1,.559-10.261,32.429,32.429,0,0,1,6.653-10.372,58.181,58.181,0,0,1,26.768-15.885,14,14,0,0,0,7.241,6.823,7.179,7.179,0,0,0,5.328.045A9.064,9.064,0,0,0,57,115.774a20.117,20.117,0,0,0,2.359-5.014c7.394,1.377,13.729,5.551,18.91,10.995a64.662,64.662,0,0,1,8.643,11.364,36.575,36.575,0,0,1,4.755,12.229C92.966,152.546,89.716,157.505,85.8,159.052Z" fill="#000000"></path><path d="M170.958,152.611a.524.524,0,0,0-.713-.168c-.3.185-3.9,6.306-3.941,6.377a.525.525,0,0,0,.451.766s7.453-.012,7.777-.014a.518.518,0,0,0,.512-.526C175.046,158.813,175.338,159.55,170.958,152.611Zm-3.3,5.943c.852-1.449,1.836-3.1,2.866-4.719.839,1.293,3.058,4.719,3.058,4.719Z" fill="#000000"></path><path d="M180.812,142.757a.522.522,0,0,0-.712-.169c-.3.185-3.9,6.305-3.942,6.378a.526.526,0,0,0,.451.766s7.454-.012,7.778-.015a.516.516,0,0,0,.511-.524C184.9,148.937,181.459,143.78,180.812,142.757Zm-3.3,5.942c.852-1.448,1.836-3.1,2.866-4.718.924,1.422,2.481,3.826,3.059,4.718Z" fill="#000000"></path><path d="M194.928,138.843c-4.092-6.3-3.932-6.095-4.03-6.195a.534.534,0,0,0-.8-.063c-.368.358-3.174,5.113-3.841,6.272a.521.521,0,0,0,.446.777s7.452-.011,7.775-.013A.521.521,0,0,0,194.928,138.843Zm-7.314-.243c.932-1.584,1.879-3.161,2.865-4.713l3.054,4.7Z" fill="#000000"></path><path d="M78.872,32.348c-6.111,2.137-22.162,7.442-24.048,8.043-.631.2-.361,1.2.275,1,6.167-1.969,22.179-7.39,24.047-8.044C79.77,33.125,79.5,32.128,78.872,32.348Z" fill="#000000"></path><path d="M82.179,32.436,92.5,29.282c.634-.194.363-1.191-.275-1L81.905,31.44C81.271,31.634,81.542,32.631,82.179,32.436Z" fill="#000000"></path><path d="M101.728,26.116c5.331-1.963,10.631-3.773,15.968-5.457.632-.2.362-1.2-.274-1-5.451,1.72-10.748,3.534-15.968,5.457C100.835,25.348,101.1,26.346,101.728,26.116Z" fill="#000000"></path><path d="M91.766,65.073c7.5-1.977,26.559-7.653,28.652-8.283a.517.517,0,0,0-.275-1c-7.5,1.977-26.559,7.652-28.652,8.283a.517.517,0,0,0,.275,1Z" fill="#000000"></path><path d="M165.439,102.253a11.549,11.549,0,0,0-2.073-.227.517.517,0,0,0,0,1.033,10.428,10.428,0,0,1,1.8.19C165.814,103.378,166.091,102.384,165.439,102.253Z" fill="#000000"></path><path d="M166.892,108.383l-1.934-.262a.53.53,0,0,0-.635.36.516.516,0,0,0,.361.635l1.933.262a.53.53,0,0,0,.635-.36A.515.515,0,0,0,166.892,108.383Z" fill="#000000"></path><path d="M176.483,133.933a20.544,20.544,0,0,0,1.761-2.614.516.516,0,0,0-.891-.521,25.155,25.155,0,0,1-1.6,2.405.529.529,0,0,0,0,.73A.515.515,0,0,0,176.483,133.933Z" fill="#000000"></path><path d="M151.266,99.809h-3.953a.516.516,0,0,0,0,1.032h3.953a.516.516,0,0,0,0-1.032Z" fill="#000000"></path><path d="M85.014,155.64c-.584.317-.063,1.211.521.891a6.947,6.947,0,0,0,3.3-4.031c.2-.636-.8-.908-1-.274A5.9,5.9,0,0,1,85.014,155.64Z" fill="#000000"></path><path d="M12.963,149.391a3.327,3.327,0,0,1-2.832-2.839.528.528,0,0,0-.516-.516.517.517,0,0,0-.517.516,4.347,4.347,0,0,0,3.591,3.835.531.531,0,0,0,.635-.361A.516.516,0,0,0,12.963,149.391Z" fill="#000000"></path><path d="M124.637,159.708l-4.219-1.378c-.634-.207-.905.79-.275.995l4.22,1.379C125,160.91,125.267,159.914,124.637,159.708Z" fill="#000000"></path><path d="M57.223,82.721c-.582-.321-1.1.573-.521.892a19.554,19.554,0,0,1,2.56,1.665.531.531,0,0,0,.73,0,.518.518,0,0,0,0-.731A20.855,20.855,0,0,0,57.223,82.721Z" fill="#000000"></path><path d="M92.429,95.794c-1.069-.657-2.139-1.313-3.229-1.934a.517.517,0,0,0-.521.893l3.229,1.933a.517.517,0,0,0,.521-.892Z" fill="#000000"></path><path d="M16.878,171.362a.526.526,0,0,0-.516.516q-.3,2.693-.6,5.385a.517.517,0,0,0,.517.516.525.525,0,0,0,.516-.516q.3-2.693.6-5.385A.517.517,0,0,0,16.878,171.362Z" fill="#000000"></path><path d="M47.372,173.53a.524.524,0,0,0-.517.516q-.258,2.9-.517,5.8a.517.517,0,0,0,.516.516.523.523,0,0,0,.516-.516l.518-5.8A.517.517,0,0,0,47.372,173.53Z" fill="#000000"></path><path d="M157.731,86.832a4.832,4.832,0,0,1,3.976,4.591.516.516,0,0,0,1.032,0,5.929,5.929,0,0,0-4.733-5.587.533.533,0,0,0-.635.361A.517.517,0,0,0,157.731,86.832Z" fill="#000000"></path><path d="M159.073,82.525a8.529,8.529,0,0,1,6.084,7.173.526.526,0,0,0,.516.516.517.517,0,0,0,.516-.516,9.391,9.391,0,0,0-6.842-8.169.517.517,0,0,0-.274,1Z" fill="#000000"></path><path d="M61.671,150.344a.517.517,0,0,0-.635-.36l-1.4.527a.528.528,0,0,0-.361.635.518.518,0,0,0,.636.361l1.4-.527A.529.529,0,0,0,61.671,150.344Z" fill="#000000"></path><path d="M61.9,156.667c-.4.1-.793.2-1.189.3a.517.517,0,0,0,.275,1c.4-.1.793-.2,1.189-.3a.517.517,0,0,0-.275-1Z" fill="#000000"></path><path d="M33.186,149.882a.516.516,0,0,0,.891-.521,3.993,3.993,0,0,1-.47-1.278.517.517,0,0,0-.635-.361.524.524,0,0,0-.36.635A4.406,4.406,0,0,0,33.186,149.882Z" fill="#000000"></path><path d="M38.893,148.378c.227.619,1.225.352,1-.274a20.649,20.649,0,0,1-.687-2.282c-.153-.646-1.149-.373-.995.275A20.352,20.352,0,0,0,38.893,148.378Z" fill="#000000"></path><path d="M80.4,138.593a21.278,21.278,0,0,0-4.97,1.862c-.589.308-.068,1.2.521.891a20.215,20.215,0,0,1,4.724-1.757C81.323,139.437,81.049,138.44,80.4,138.593Z" fill="#000000"></path><path d="M26.033,137.472l-5.6-1.135c-.649-.131-.927.864-.275,1l5.6,1.135C26.407,138.6,26.684,137.6,26.033,137.472Z" fill="#000000"></path><path d="M29.385,131.252a20.292,20.292,0,0,1,.5,4.491.517.517,0,0,0,1.033,0,18.679,18.679,0,0,0-.539-4.766C30.225,130.331,29.23,130.6,29.385,131.252Z" fill="#000000"></path><path d="M69.429,132.516a.516.516,0,0,0-1.032,0,41.251,41.251,0,0,0,.439,5.809.531.531,0,0,0,.517.516.516.516,0,0,0,.516-.516A54.507,54.507,0,0,1,69.429,132.516Z" fill="#000000"></path></g></svg>