<svg xmlns="http://www.w3.org/2000/svg" viewBox="0 0 200 200" height="400" width="400"><g><path d="M53.347,102.452a.34.34,0,0,0-.68,0v5.77c.226-.06.452-.123.68-.179C53.347,106.235,53.377,104.223,53.347,102.452Z" fill="#ffd7d7"></path><path d="M52.667,166.6a.34.34,0,0,0,.68,0V146.2q-.339.1-.68.189C52.667,153.36,52.546,159.6,52.667,166.6Z" fill="#ffd7d7"></path><path d="M47.543,149.392a28.207,28.207,0,0,0-4.414-1.818,32.86,32.86,0,0,1-10.383-1.329A28.469,28.469,0,0,0,22.3,148.79c-.323.148-.141.626.172.634l24.9.6A.341.341,0,0,0,47.543,149.392Z" fill="#6596e1"></path><path d="M21.764,152.022c.234-.371-.354-.712-.587-.343l-9.316,14.746c-.234.371.354.712.587.343Z" fill="#6596e1"></path><path d="M47.711,151.851c-.014-.437-.694-.439-.68,0,.055,1.669.46,14.137.48,14.745.014.437.694.439.68,0C48.137,164.927,47.731,152.46,47.711,151.851Z" fill="#6596e1"></path><path d="M165.776,73.721c-.726-1.339-2.425-1.147-3.26-2.454-.283-.444-.464-.942-.715-1.4-1.043-1.919-3.307-2.287-5.3-2.209a14.792,14.792,0,0,1-3.825-.031,1.645,1.645,0,0,1-1.123-.742c-.628-1.209-.227-2.553-.991-3.812a4.264,4.264,0,0,0-2.155-1.734c-2.274-.872-4.666-.17-7.007-.366-3.125-.262-2.076-4.139-4.736-5.86-2.775-1.564-5.9.126-8.756,1.15-3.593,1.29-4.754-.551-6.867-.293a4.461,4.461,0,0,0-2.646,1.546,5.329,5.329,0,0,0-1.336,5.7c1.146,2.15,2.168,2.222,2.946,4.131.569,1.837-1.607,3.408-.957,5.232.685,1.92,3.1,1.744,4.684,2.374a15.413,15.413,0,0,1,1.831-2.035l.014-.025a15.374,15.374,0,0,1,6.9-3.572c5.2-1.23,12.058-.379,17.28,1.275a33.459,33.459,0,0,1,3.314.683,104.186,104.186,0,0,1,12.953,3.763A2.2,2.2,0,0,0,165.776,73.721Zm-36.268-8.369a3.922,3.922,0,0,1-2.541,2.656,3.292,3.292,0,0,1-4.182-1.989,3.684,3.684,0,0,1,1.514-4.236A3.376,3.376,0,0,1,129.508,65.352Z" fill="#000000"></path><path d="M37.216,101.675c.14-1.2-1.2-2.527-2.179-3.166A3.562,3.562,0,0,0,33.7,98.2a16.62,16.62,0,0,0-4.974,0c2.883,1.47,4.116,4.839,7.183,4.659A1.371,1.371,0,0,0,37.216,101.675Z" fill="#ffffff"></path><path d="M40.433,100.173a16.268,16.268,0,0,0-12.944-2.428.287.287,0,0,0-.057.024,14.72,14.72,0,0,0-2.853.979A22.764,22.764,0,0,0,16.5,105.3c-.633.792-1.217,1.621-1.782,2.464a10.41,10.41,0,0,0-1.056,1.985,8.946,8.946,0,1,1,15.69,8.6c-.583,1.046-2.193,4.078-2.805,5.606,1.8.447,5.047-3.479,7.639-5.74a47.744,47.744,0,0,1,13.145-8.187C45.631,106.484,43.835,102.7,40.433,100.173ZM28.727,98.2a16.62,16.62,0,0,1,4.974,0,3.562,3.562,0,0,1,1.336.308c.968.633,2.32,1.954,2.179,3.166a1.371,1.371,0,0,1-1.306,1.184C32.857,103.038,31.587,99.658,28.727,98.2Z" fill="#ffe660"></path><path d="M56.669,124.251c-5.962,6.682-10.069,11.563-19.346,15.5a43.731,43.731,0,0,1-11.2,3.078,21.112,21.112,0,0,0,9.206,4.086,42.238,42.238,0,0,0,13.012.318,26.01,26.01,0,0,0,10.867-3.639C59.113,142.86,56.773,125.04,56.669,124.251Z" fill="#ffc431"></path><path d="M146.766,123.558c-3.714-.459-6.163,1.125-9.179.585-.932-.166-2.177-.588-2.492-1.6a2.13,2.13,0,0,1,1.577-2.474,19.8,19.8,0,0,1,2.766-.656c-1.04.015-2,.012-3.076-.075a3.973,3.973,0,0,1-2.033-.6,1.939,1.939,0,0,1-.892-1.784,1.849,1.849,0,0,1,1.063-1.385,47.215,47.215,0,0,1,5.363-1.671l-3.085.245c-1.259.1-3.152.313-3.714-1.181-.494-1.312.83-2.136,1.847-2.559a22.142,22.142,0,0,1,5.122-1.413c-2.632-2.626-5.272-5.245-7.881-7.893-3,3.958-6.717,7.869-11.474,9.3-9.19,2.753-19.652-1.8-25.162-8.632a17.291,17.291,0,0,1-2.873-5.531h-12.6a33.176,33.176,0,0,1-1.452,6.417.342.342,0,0,1-.668-.09c-.14-2.7.023-4.166-.041-6.327H53.374a.342.342,0,0,0-.34.34c.249,1.893,1.23,9.366,1.472,11.21a35.382,35.382,0,0,1,10.258-.739c2.121.163,4.531.371,6.337,1.605,2.2,1.5,1.289,3.223-.874,3.587a41.453,41.453,0,0,1-5.32.368c.739.218,1.473.452,2.2.707.945.33,2.23.624,2.841,1.5a2.091,2.091,0,0,1-.585,2.8c-1.514,1.085-3.129.459-4.749-.073a17.628,17.628,0,0,1,2.466,1.741,3.129,3.129,0,0,1,.925,1.078,2.157,2.157,0,0,1-.958,2.583,3.977,3.977,0,0,1-3.4.022,10.828,10.828,0,0,0-3.572-1.16c-1.447-.015-2.3,1.215-3.41,2.454.356,2.709,3.854,29.353,3.859,29.384a.348.348,0,0,0,.34.34h3.686a44.308,44.308,0,0,1-2.706-15.922c.094-5.706,1.6-10.464,6.334-14a25.57,25.57,0,0,1,14.9-4.739.342.342,0,0,1,.063.009c.345-.1,3.915-.033,4.887,0,2.5.1,8.026.557,8.143.565a50.352,50.352,0,0,1,12.382,3.23,17.43,17.43,0,0,1,5.408,2.984c2.768,1.634,4.256,4.92,4.618,7.951.1.81,1.367,16.39,1.376,16.49a109.294,109.294,0,0,0,.694-14.854c-.062-2.956-.4-3.955.279-5.516a2.191,2.191,0,0,1,1.9-1.174,1.906,1.906,0,0,1,1.579,1.007,7.613,7.613,0,0,1,.906,3.248,3.428,3.428,0,0,1,5.8,1.006c1.865-1.137,3.619.51,3.989,2.679a2.415,2.415,0,0,1,2.359,2.134,41.005,41.005,0,0,1,.088,14.9h12.829a.342.342,0,0,0,.34-.34C149.685,145.787,147.443,128.709,146.766,123.558Zm-54.374-9.149a4.364,4.364,0,0,1-6.017.432,4.724,4.724,0,0,1-1.051-5.184c1.509-4.118,6.246-3.465,7.7-.086A4.682,4.682,0,0,1,92.392,114.409Zm2.588-10.332c-.266.989-1.454.948-2.274.991-.8.043-4.841.267-6.067.291a.341.341,0,0,1-.328-.431,29.429,29.429,0,0,1,3.251-6.645,1.721,1.721,0,0,1,1.071-.884.9.9,0,0,1,1.069.7,3.219,3.219,0,0,1-.337,1.986,5,5,0,0,1,.854-.369,1.476,1.476,0,0,1,1.8.445,1.628,1.628,0,0,1-.432,1.923,10.269,10.269,0,0,1-.923.821,6.64,6.64,0,0,1,1.128-.019,1.5,1.5,0,0,1,.961.312A.9.9,0,0,1,94.98,104.077Zm25.981,21.378c-.082-.278-1.37-4.8-1.883-6.8a.341.341,0,0,1,.656-.181c.082.278,1.367,4.8,1.883,6.8a.34.34,0,0,1-.656.181Zm2.218.786c-.2.391-.785.046-.587-.343l3.779-7.462c.2-.391.784-.046.587.344Zm6.691-.73-5.293,1.88c-.414.147-.591-.51-.181-.656l5.293-1.88C130.1,124.708,130.28,125.365,129.87,125.511Z" fill="#ffd7d7"></path><path d="M128.548,62.08a3.529,3.529,0,0,0-4.249-.3,3.691,3.691,0,0,0-1.53,4.191,3.253,3.253,0,0,0,4.2,2.034C129.608,67.112,130.557,63.845,128.548,62.08Z" fill="#ffaaaa"></path><path d="M122.807,90.215c-2.164-3.2-2.529-5.92-2.087-8.293-.918,2.839-1.384,4.414-2.875,6.437a7.232,7.232,0,0,1-2.818,2.336,4.8,4.8,0,0,1-5.576-2.083,9.149,9.149,0,0,1-.9-4.2c-.082-1.375-.1-2.752-.092-4.129.049-6.412,1.608-23.031-1.986-26.3a4.11,4.11,0,0,0-4.975.332c-1.421,1.189-1.757,2.656-1.946,4.492-.147,1.434-.252,2.876-.292,4.318-3.732-3.3-6.993-5.99-10.882-7.976-1.415-.723-4.326-2.049-5.238.089a3.485,3.485,0,0,0,.636,3.112A22.751,22.751,0,0,0,85.7,60.846,21.273,21.273,0,0,0,77.761,59.1a5.673,5.673,0,0,0-3.461.976,2.717,2.717,0,0,0-.559,3.516,4.909,4.909,0,0,0,2.867,2.116A7.553,7.553,0,0,0,72.55,67.52a2.571,2.571,0,0,0-.8,2.609A3.262,3.262,0,0,0,73.7,72.1a9.31,9.31,0,0,0,2.963.53c3.446.252,9.548.145,13.009.029.227,8.122.718,22.742,5.847,29.1,5.476,6.792,15.9,11.406,25.162,8.632,4.756-1.425,8.469-5.336,11.474-9.3A73.725,73.725,0,0,1,122.807,90.215Zm-10.925,17.9h3.8a.34.34,0,0,1,0,.68h-3.8a.34.34,0,0,1,0-.68ZM99.31,63.843a.333.333,0,0,1,.563.182c.107.414-.512.35-1.875,2.783a.338.338,0,0,1-.384.157,9.144,9.144,0,0,0-6.906.18c-.4.175-.742-.41-.343-.587a9.864,9.864,0,0,1,7.182-.328A12.424,12.424,0,0,1,99.31,63.843ZM79.859,65.695c1.39.026,2.779.06,4.167.153.435.029.437.709,0,.68-1.388-.092-2.777-.148-4.167-.153a.34.34,0,1,1,0-.68ZM88.25,62.21l3.715,1.546c.4.166.223.824-.181.656l-3.715-1.546C87.67,62.7,87.846,62.042,88.25,62.21Z" fill="#ffaaaa"></path><path d="M90.365,66.558c-.4.177-.054.762.343.587a9.144,9.144,0,0,1,6.906-.18A.338.338,0,0,0,98,66.808a11.664,11.664,0,0,1,1.793-2.484.344.344,0,0,0-.3-.574c-.151.025-.2.118-.3.225a12.024,12.024,0,0,0-1.646,2.255A9.864,9.864,0,0,0,90.365,66.558Z" fill="#ffaaaa"></path><path d="M84.026,65.848c-1.388-.093-2.777-.172-4.167-.153a.34.34,0,0,0,0,.68c1.39.029,2.779.06,4.167.153C84.463,66.557,84.461,65.877,84.026,65.848Z" fill="#ffaaaa"></path><path d="M91.965,63.756,88.25,62.21c-.4-.168-.58.49-.181.656l3.715,1.546C92.188,64.58,92.364,63.922,91.965,63.756Z" fill="#ffaaaa"></path><path d="M96.557,172.214a32.991,32.991,0,0,0-3.485-1.726,52.617,52.617,0,0,1-14.161-2.322,31.123,31.123,0,0,0-9.11,2.919.344.344,0,0,0,.081.622,92.71,92.71,0,0,0,20.734,1.578c1.744-.064,5.6-.33,5.853-.408A.345.345,0,0,0,96.557,172.214Z" fill="#6596e1"></path><path d="M162.683,95.013c-3.517-5.231-15.54-6.9-16.574-7.219a8.842,8.842,0,0,1,3.643-17.2A36.853,36.853,0,0,0,134.206,69a16.789,16.789,0,0,0-3.444.831c.268-.043.43.285.323.51-.81,1.708-1.049,4.6-3.3,5.022-1.353.257-2.027-1-2.3-2.139a.349.349,0,0,1,.074-.306,13.06,13.06,0,0,0-1.387,1.476,15.2,15.2,0,0,0-3.589,10.094,12.587,12.587,0,0,0,2.222,5.727c3.983,5.878,8.629,10.2,17.226,18.776,5.776-.945,12.008-.3,17.248-1.8C163.646,105.353,166.186,100.222,162.683,95.013Z" fill="#c0c195"></path><path d="M113.939,126.079c-3.257-2.947-12.752-5.6-17.2-6.133a4.248,4.248,0,0,0-.756-.057.339.339,0,0,1-.018.645c-.053.013-4.574,1.226-4.765,1.281-4.516,1.278-7.254,3.214-10.238,2.858a2.031,2.031,0,0,1-1.661-.833c-.645-1.26,1.392-2.936,2.546-3.757.3-.217.621-.416.935-.619a.988.988,0,0,1,.357-.146.342.342,0,0,0-.063-.009,25.568,25.568,0,0,0-14.9,4.739c-4.71,3.526-6.24,8.265-6.334,14a44.516,44.516,0,0,0,3.44,17.808,23.481,23.481,0,0,0,3.3,5.692,30,30,0,0,1-.221-8.305,13.259,13.259,0,0,1,5.346-8.91c6.1-4.5,14.982-.955,17.471,8.526,1.179,4.5.76,9.142.932,13.732.016.439-.664.437-.68,0-.178-4.731.3-9.836-1.234-14.659-2.647-8.322-11.276-11.627-17.146-6.2a12.889,12.889,0,0,0-4.17,9.2,39.2,39.2,0,0,0,.521,7.546c7.406,7.791,22.254,8.561,33.025,7.895a33.352,33.352,0,0,0,4.888-.642c-3.809-2.8-6.185-7.079-7.634-11.56-2.032-6.288-2.273-13.038-2.125-19.6a24.074,24.074,0,0,1,.19-2.867,16.079,16.079,0,0,1,2.546-6.3,10.342,10.342,0,0,1,11.033-4.293A8.448,8.448,0,0,1,113.939,126.079Z" fill="#b6dbff"></path><path d="M183.443,91.83c-.787-4.711-4.12-9.271-7.708-11.884a42.177,42.177,0,0,0-9.716-4.9,106.087,106.087,0,0,0-12.953-3.763c-2.42-.606-3.78-.917-5.586-.617a8.86,8.86,0,0,0-7.335,10.13,8.755,8.755,0,0,0,5.964,7c.972.3,13.069,2.007,16.574,7.219s.963,10.34-5.4,12.173c-6.88,1.98-15.215.242-22.37,3.218-1.017.423-2.341,1.247-1.847,2.559.562,1.494,2.455,1.281,3.714,1.181l3.085-.245a47.344,47.344,0,0,0-5.363,1.671,1.849,1.849,0,0,0-1.063,1.385,1.939,1.939,0,0,0,.892,1.784,3.973,3.973,0,0,0,2.033.6c1.088.088,2.053.089,3.076.075a20.075,20.075,0,0,0-2.766.656,2.13,2.13,0,0,0-1.577,2.474c.315,1.009,1.56,1.431,2.492,1.6,2.772.5,5.417-.875,8.49-.66,2.218.156,4.706,1.023,6.955,1.359a25.435,25.435,0,0,0,25.1-11.274C182.873,106.535,184.408,97.6,183.443,91.83Zm-3.858,11.076a15.324,15.324,0,0,1-1.362,3.763c-.2.389-.787.045-.587-.344a14.68,14.68,0,0,0,1.294-3.6C179.023,102.3,179.679,102.48,179.585,102.906ZM146.834,112.5l2.019-.214c.435-.047.43.634,0,.68l-2.019.214C146.4,113.221,146.4,112.54,146.834,112.5Zm2.481,6.1H147.2a.34.34,0,0,1,0-.68h2.113a.34.34,0,0,1,0,.68Z" fill="#ffaaaa"></path><path d="M137.459,139.073a2.41,2.41,0,0,0-2.359-2.134c-.369-2.16-2.119-3.819-3.989-2.679a3.428,3.428,0,0,0-5.8-1.006,7.613,7.613,0,0,0-.906-3.248A1.906,1.906,0,0,0,122.83,129a2.191,2.191,0,0,0-1.9,1.174c-.674,1.552-.341,2.532-.279,5.516a109.416,109.416,0,0,1-.694,14.854c-.182-2.225-1.188-14.906-1.376-16.49a12.3,12.3,0,0,0-2.211-5.772,8.046,8.046,0,0,0-4.62-3.083,10.406,10.406,0,0,0-11.456,4.208,16.132,16.132,0,0,0-2.546,6.3,24.074,24.074,0,0,0-.19,2.867c-.148,6.563.093,13.313,2.125,19.6a23.242,23.242,0,0,0,6.932,11.014,15.427,15.427,0,0,0,6.924,3.239c4.948,1.181,10.51,1.388,15.145-.984,4.926-2.52,6.618-7.4,7.916-12.768C138.09,152.513,138.831,145.29,137.459,139.073Zm-2.033.956c-.04.431-.72.435-.68,0a13.325,13.325,0,0,0,0-1.885c-.023-.438.657-.436.68,0A13.177,13.177,0,0,1,135.426,140.029Zm-4.571-1.2a5.935,5.935,0,0,0,.042-2.159c-.1-.427.562-.608.656-.181a5.548,5.548,0,0,1-.042,2.521A.341.341,0,0,1,130.855,138.83Zm-13.214,30.264c1.562.008,3.124-.007,4.685.024a.341.341,0,0,1,0,.681c-1.561.022-3.123-.017-4.685-.025A.345.345,0,0,1,117.641,169.094Zm7.748-35.213c.017.616.024,2.339-.026,3.738-.016.437-.7.438-.68,0,.043-1.217.05-2.629.025-3.738a.341.341,0,0,1,.681,0Z" fill="#ffaaaa"></path><path d="M95.985,119.889a.816.816,0,0,0-.1-.025,112.8,112.8,0,0,0-12.2-.576,1.476,1.476,0,0,0-.9.176c-.314.2-.631.4-.935.619-1.154.82-3.191,2.5-2.546,3.757a2.031,2.031,0,0,0,1.661.833c2.9.346,6.013-1.663,10.238-2.858.191-.055,4.712-1.268,4.765-1.281A.34.34,0,0,0,95.985,119.889Z" fill="#ffffff"></path><path d="M130.7,69.842a15.161,15.161,0,0,0-5.126,3.051l-.014.025a.349.349,0,0,0-.074.306c.273,1.141.947,2.4,2.3,2.139,2.249-.426,2.488-3.314,3.3-5.022A.346.346,0,0,0,130.7,69.842Z" fill="#ffffff"></path><path d="M122.326,169.118c-1.561-.031-3.123-.047-4.685-.024a.34.34,0,0,0,0,.68c1.561.031,3.124.048,4.685.025a.341.341,0,0,0,0-.681Z" fill="#ffaaaa"></path><path d="M130.9,136.671a5.935,5.935,0,0,1-.042,2.159.341.341,0,0,0,.656.181,5.548,5.548,0,0,0,.042-2.521C131.459,136.063,130.8,136.244,130.9,136.671Z" fill="#ffaaaa"></path><path d="M134.746,138.144a13.325,13.325,0,0,1,0,1.885c-.04.435.64.432.68,0a13.325,13.325,0,0,0,0-1.885C135.4,137.708,134.723,137.706,134.746,138.144Z" fill="#ffaaaa"></path><path d="M124.683,137.619c-.016.438.664.437.68,0,.053-1.478.038-3.3.026-3.738a.341.341,0,0,0-.681,0C124.732,134.967,124.727,136.385,124.683,137.619Z" fill="#ffaaaa"></path><path d="M93.025,109.571c-1.465-3.4-6.2-4.02-7.7.086a4.724,4.724,0,0,0,1.051,5.184,4.364,4.364,0,0,0,6.017-.432A4.682,4.682,0,0,0,93.025,109.571Z" fill="#ffaaaa"></path><path d="M94.751,103.2a1.5,1.5,0,0,0-.961-.312,6.64,6.64,0,0,0-1.128.019,10.269,10.269,0,0,0,.923-.821,1.628,1.628,0,0,0,.432-1.923,1.476,1.476,0,0,0-1.8-.445,5,5,0,0,0-.854.369A3.219,3.219,0,0,0,91.7,98.1a.9.9,0,0,0-1.069-.7,1.721,1.721,0,0,0-1.071.884,29.5,29.5,0,0,0-3.251,6.645.342.342,0,0,0,.241.419c.187.05,5.264-.232,6.154-.279.82-.042,2.008,0,2.274-.991A.9.9,0,0,0,94.751,103.2Z" fill="#000000"></path><path d="M60.386,155.017V166.6a.34.34,0,0,0,.68,0V155.017a.34.34,0,0,0-.68,0Z" fill="#ffd7d7"></path><path d="M150.036,154.759V166.6a.34.34,0,0,0,.68,0V154.759a.34.34,0,0,0-.68,0Z" fill="#ffd7d7"></path><path d="M71.1,108.646c-1.806-1.234-4.216-1.442-6.337-1.605-10.962-.84-22.129,3.8-30.577,11.17-2.481,2.164-5.833,6.188-7.639,5.74.641-1.6,2.327-4.747,2.805-5.606A8.936,8.936,0,0,0,17.16,106.228a9.02,9.02,0,0,0-3.5,3.518c-3.669,6.075-9.1,13.124-8.637,21,.227,3.894,1.852,7.9,5.13,10.195a13.817,13.817,0,0,0,6.764,2.12A43.206,43.206,0,0,0,49,132.368a104.666,104.666,0,0,0,8.263-8.785c.768-.867,1.56-1.8,2.817-1.786a10.828,10.828,0,0,1,3.572,1.16,3.977,3.977,0,0,0,3.4-.022,2.157,2.157,0,0,0,.958-2.583,3.129,3.129,0,0,0-.925-1.078,17.813,17.813,0,0,0-2.466-1.741c1.62.532,3.235,1.158,4.749.073a2.091,2.091,0,0,0,.585-2.8c-.611-.872-1.9-1.165-2.841-1.5q-1.091-.383-2.2-.707a42.845,42.845,0,0,0,5.32-.368C72.386,111.87,73.3,110.151,71.1,108.646Zm-12.487,8.21c-.428.083-.61-.573-.181-.655a6.307,6.307,0,0,1,2.292-.018c.431.076.247.731-.181.656A5.35,5.35,0,0,0,58.614,116.856Zm-.369-4.812a7.128,7.128,0,0,1,2.3-.183c.434.037.437.718,0,.68a6.573,6.573,0,0,0-2.115.158C58,112.8,57.82,112.148,58.245,112.044ZM9.359,134.61l2.412,3.3c.258.354-.332.693-.588.343l-2.412-3.3C8.513,134.6,9.1,134.26,9.359,134.61Z" fill="#ae877c"></path><path d="M181.188,148.437c-.136-.747-3.7-31.374-3.714-31.477-.047-.43-.728-.435-.68,0,.49,4.49,3.672,31.354,3.773,31.842a9.386,9.386,0,0,0,2.6,4.617c2.138,2.428,11.27,13.418,11.27,13.418.282.335.761-.148.481-.481-1.392-1.658-11.622-13.832-12.079-14.381A7.663,7.663,0,0,1,181.188,148.437Z" fill="#c0c195"></path><path d="M168.185,166.768c.261.344.853,0,.588-.343l-10.193-13.4c-.8-1.051-1.906-2.139-2.012-3.517a15.92,15.92,0,0,1,.025-2.162c.045-.753.839-17.994,1.038-21.365.026-.437-.654-.436-.68,0-.358,6.064-1.024,21.193-1.085,22.689a5.159,5.159,0,0,0,.3,2.006C156.718,151.882,156.142,150.874,168.185,166.768Z" fill="#c0c195"></path><path d="M139,154.669c-.288,1.329-2.455,11.35-2.56,11.837-.093.427.563.609.656.181.287-1.329,2.56-11.837,2.56-11.837C139.749,154.423,139.093,154.241,139,154.669Z" fill="#c0c195"></path><path d="M160.684,158.222q-.815,4.141-1.63,8.284c-.085.427.571.61.655.181q.816-4.143,1.631-8.284C161.424,157.975,160.769,157.792,160.684,158.222Z" fill="#c0c195"></path><path d="M29.839,95.259c-.543-.186-.647-.812-.608-1.314.089-1.153,1.706-4.709.229-7.658A4.156,4.156,0,0,0,25.275,84c-.676.045-.87.25-1.5.021-.889-.321-1.655-.839-2.4-.245a2.232,2.232,0,0,0-.512,1.565,3.042,3.042,0,0,0-3.1,1.559,9.414,9.414,0,0,0-1.05,3.536,5.938,5.938,0,0,0,.6,4.848c1.954,2.793,6.345,1.218,12.441.647A.343.343,0,0,0,29.839,95.259Zm-2.866-7.852a3.748,3.748,0,0,1,.676,4.481A3.649,3.649,0,0,1,22,92.809C18.389,89.645,24.124,85.043,26.973,87.407Z" fill="#000000"></path><path d="M178.223,106.669a15.324,15.324,0,0,0,1.362-3.763c.094-.426-.562-.609-.655-.181a14.68,14.68,0,0,1-1.294,3.6C177.436,106.714,178.022,107.058,178.223,106.669Z" fill="#ffaaaa"></path><path d="M68.881,154.937c.267-7.6,6.976-13.843,13.872-11.277a12.492,12.492,0,0,1,7.444,8.277c1.528,4.8,1.058,9.881,1.234,14.659.016.437.7.439.68,0-.172-4.59.247-9.237-.932-13.732-2.489-9.481-11.368-13.023-17.471-8.526a13.259,13.259,0,0,0-5.346,8.91c-.594,4.528.27,8.656,1.019,13.439.068.431.723.248.656-.181C69.34,162.039,68.737,159.025,68.881,154.937Z" fill="#6596e1"></path><path d="M115.681,108.116h-3.8a.34.34,0,0,0,0,.68h3.8a.34.34,0,0,0,0-.68Z" fill="#ffaaaa"></path><path d="M148.853,112.281l-2.019.214c-.431.045-.435.726,0,.68l2.019-.214C149.283,112.915,149.288,112.234,148.853,112.281Z" fill="#ffaaaa"></path><path d="M149.315,117.918H147.2a.34.34,0,0,0,0,.68h2.113a.34.34,0,0,0,0-.68Z" fill="#ffaaaa"></path><path d="M26.973,87.407c-2.3-1.908-6.6.76-6.076,3.55a3.687,3.687,0,0,0,4.006,2.78,3.587,3.587,0,0,0,2.746-1.849A3.748,3.748,0,0,0,26.973,87.407Z" fill="#ae877c"></path><path d="M99.234,49.886V36.04a.34.34,0,0,0-.68,0V49.886a.34.34,0,0,0,.68,0Z" fill="#000000"></path><path d="M96.571,50.494a.34.34,0,0,0,.481-.481q-2.651-2.74-5.392-5.391a.34.34,0,0,0-.481.481Z" fill="#000000"></path><path d="M100.75,50.639q2.553-2.471,5.017-5.03a.34.34,0,0,0-.481-.481q-2.552,2.471-5.017,5.03a.34.34,0,0,0,.481.481Z" fill="#000000"></path><path d="M46.5,75.016c-.758-.671-1.777-.439-2.761-.524A21.419,21.419,0,0,0,46,76.7,1.021,1.021,0,0,0,46.5,75.016Z" fill="#ffc431"></path><path d="M80.178,92.725c-.125-3.6-1.706-7.536-4.717-9.541-3.442-2.291-7.538-1.979-10.457-4.65-3.1-2.839-5.007-9.327-2.8-15.974,1.551-4.664,4.753-10.076,2.607-15.209a11.229,11.229,0,0,0-4.337-5.121A10.735,10.735,0,0,1,44.73,46.27a23.367,23.367,0,0,0-2.2,3.57l2.908-1.4c.393-.19.738.4.344.587-3.628,1.747-3.616,1.761-3.717,1.779q-.492,1.071-.894,2.181s1.875,3.147,2.541,4.361a.351.351,0,0,1-.294.512H39.855a23.776,23.776,0,0,0-.21,8.087A16.123,16.123,0,0,0,41.758,71.8a2.376,2.376,0,0,1,2.048-1.252c1-.075,2.764.349,3.265-.861.227-.55-.243-1.047-.721-1.246a4.285,4.285,0,0,0-1.745-.2c-1.05.023-2.507.017-2.731-1.3a2.185,2.185,0,0,1,.282-1.516c1.05-1.461,3.188-1.108,4.978-.888.429.053.432.738,0,.68a20.324,20.324,0,0,0-2.244-.185,3.136,3.136,0,0,0-1.777.388,1.384,1.384,0,0,0-.558,1.477c.341,1.413,3.412-.122,4.824,1.443a1.649,1.649,0,0,1-.733,2.628c-1.6.585-2.2-.085-3.664.464a1.242,1.242,0,0,0-.674,1.227,10.513,10.513,0,0,0,.712.97c.964.441,1.519,0,3.215.462a1.617,1.617,0,0,1,1.022,2.362,1.966,1.966,0,0,1-.69.705c8.156,6.243,17.485,6.7,25.776,9.9,6.9,2.664,5.254,9.186,5.581,15.491a.342.342,0,0,0,.668.09A28.024,28.024,0,0,0,80.178,92.725ZM48.134,63.186,44.944,59.4c-.281-.333.2-.816.481-.481l3.19,3.789C48.9,63.038,48.416,63.521,48.134,63.186Zm10.441-1.625c-.156.142.372.146-5.97.1a.344.344,0,0,1-.34-.34v-5.73a.345.345,0,0,1,.34-.34h5.73a.344.344,0,0,1,.34.34C58.721,61.959,58.72,61.368,58.575,61.561Z" fill="#ffc431"></path><path d="M43.712,57.348c-.666-1.214-7.067-12.141-7.374-12.657a.343.343,0,0,0-.472-.116c-.107.065.259-.766-7.489,12.773a.343.343,0,0,0,.293.512H43.418A.352.352,0,0,0,43.712,57.348Z" fill="#ffd7d7"></path><path d="M58.335,55.252h-5.73a.345.345,0,0,0-.34.34v5.73a.344.344,0,0,0,.34.34c6.27.045,5.813.042,5.97-.1.142-.189.146.483.1-5.969A.344.344,0,0,0,58.335,55.252Z" fill="#ffaaaa"></path><path d="M54.5,27.3a10.771,10.771,0,1,0,5.648,15.532A10.762,10.762,0,0,0,54.5,27.3Z" fill="#6596e1"></path><path d="M46.235,74.1c-1.659-.456-2.24-.023-3.215-.462a1.214,1.214,0,0,1-.038-2.2c1.448-.544,2.066.12,3.664-.464a1.649,1.649,0,0,0,.733-2.628c-1.4-1.551-4.486-.04-4.824-1.443a1.384,1.384,0,0,1,.558-1.477,3.136,3.136,0,0,1,1.777-.388,20.324,20.324,0,0,1,2.244.185c.432.058.429-.627,0-.68-1.791-.22-3.928-.573-4.978.888a2.185,2.185,0,0,0-.282,1.516c.224,1.315,1.681,1.321,2.731,1.3a4.285,4.285,0,0,1,1.745.2c.478.2.948.7.721,1.246-.5,1.21-2.269.786-3.265.861-2.946.222-2.858,3.736-.226,3.931.3.038.941.04,1.1.042A2.737,2.737,0,0,1,46.474,75a.915.915,0,0,1,0,1.377,1.7,1.7,0,0,1-1.144.47,16.365,16.365,0,0,1-3.392.009c-.435-.047-.432.635,0,.68a16.07,16.07,0,0,0,3.086.022C47.859,77.47,48.2,74.748,46.235,74.1Z" fill="#6596e1"></path><path d="M10.09,93.6a.341.341,0,0,0,.341-.34,13.128,13.128,0,0,1,1.245-7.557c.194-.391-.391-.735-.587-.343a13.8,13.8,0,0,0-1.339,7.9A.35.35,0,0,0,10.09,93.6Z" fill="#000000"></path><path d="M7.6,93.523a.338.338,0,0,0,.34-.34,13.127,13.127,0,0,1,1.246-7.556c.194-.391-.392-.735-.587-.343a13.787,13.787,0,0,0-1.339,7.9A.348.348,0,0,0,7.6,93.523Z" fill="#000000"></path><path d="M120.961,125.455a.341.341,0,0,0,.656-.181c-.514-2-1.8-6.524-1.883-6.8a.34.34,0,0,0-.656.181C119.458,120.13,120.931,125.354,120.961,125.455Z" fill="#000000"></path><path d="M123.179,126.241l3.779-7.461c.2-.39-.389-.735-.587-.344l-3.779,7.462C122.394,126.287,122.981,126.632,123.179,126.241Z" fill="#000000"></path><path d="M124.4,126.735c-.41.146-.233.8.181.656l5.293-1.88c.41-.146.233-.8-.181-.656Z" fill="#000000"></path><path d="M35.448,42.341q-.355-1.843-.713-3.688c-.083-.429-.739-.247-.656.181l.714,3.687C34.876,42.951,35.531,42.769,35.448,42.341Z" fill="#000000"></path><path d="M25.557,50.368c1.075.322,2.152.637,3.238.919a.34.34,0,0,0,.181-.655c-1.075-.322-2.153-.636-3.238-.919a.34.34,0,0,0-.181.655Z" fill="#000000"></path><path d="M24.432,63.186l2.7-2.116c.345-.269-.14-.747-.48-.48l-2.7,2.115C23.607,62.974,24.091,63.453,24.432,63.186Z" fill="#000000"></path><path d="M37.737,64.157q-.315-1.695-.629-3.389c-.079-.43-.735-.248-.655.181q.313,1.694.628,3.389C37.161,64.768,37.816,64.586,37.737,64.157Z" fill="#000000"></path><path d="M45.782,49.027c.394-.19.049-.777-.344-.587l-3.669,1.766c-.378.182-.076.722.3.6C42.166,50.788,41.959,50.867,45.782,49.027Z" fill="#000000"></path><path d="M60.725,116.183a6.307,6.307,0,0,0-2.292.018c-.429.082-.247.738.181.655a5.35,5.35,0,0,1,1.93-.017C60.972,116.914,61.156,116.259,60.725,116.183Z" fill="#000000"></path><path d="M58.426,112.7a6.573,6.573,0,0,1,2.115-.158c.437.038.434-.643,0-.68a7.128,7.128,0,0,0-2.3.183C57.82,112.148,58,112.8,58.426,112.7Z" fill="#000000"></path><path d="M9.359,134.61c-.256-.35-.846-.011-.588.343l2.412,3.3c.256.35.846.011.588-.343Z" fill="#000000"></path><path d="M161.008,148.487v-3.4a.34.34,0,0,0-.68,0v3.4a.34.34,0,0,0,.68,0Z" fill="#c0c195"></path><path d="M45.425,58.916c-.283-.335-.762.148-.481.481l3.19,3.789c.282.335.761-.148.481-.481Z" fill="#000000"></path></g><g><path d="M21.177,151.679l-9.316,14.746c-.234.371.354.712.587.343,1.052-1.665,8.935-14.144,9.316-14.746C22,151.651,21.41,151.31,21.177,151.679Z" fill="#000000"></path><path d="M48.191,166.6c-.1-3.209-.435-13.368-.479-14.745-.015-.437-.7-.439-.681,0,.055,1.668.46,14.136.48,14.745C47.525,167.033,48.205,167.035,48.191,166.6Z" fill="#000000"></path><path d="M126.923,68.023a3.935,3.935,0,0,0,2.585-2.671c.833-3-2.61-5.247-5.209-3.569a3.7,3.7,0,0,0-1.53,4.191A3.255,3.255,0,0,0,126.923,68.023Zm-3.354-1.879a3,3,0,0,1,.814-3.578,2.863,2.863,0,0,1,3.508-.14c1.847,1.31,1.135,4.138-1.105,4.926A2.634,2.634,0,0,1,123.569,66.144Z" fill="#000000"></path><path d="M84.026,65.848c-1.388-.093-2.776-.172-4.167-.153a.34.34,0,0,0,0,.68q2.085.015,4.167.153C84.463,66.557,84.461,65.877,84.026,65.848Z" fill="#000000"></path><path d="M91.965,63.756,88.25,62.21c-.4-.168-.58.49-.181.656l3.715,1.546C92.188,64.58,92.364,63.922,91.965,63.756Z" fill="#000000"></path><path d="M47.543,149.392a28.988,28.988,0,0,0-4.41-1.819,38.431,38.431,0,0,0,9.534-1.186V166.6a.34.34,0,0,0,.68,0V146.2a22.453,22.453,0,0,0,5.861-2.609c.917,6.975.949,7.642,1.307,9.952.005.031.009.063.013.094a.348.348,0,0,0,.34.34h3.686a25.206,25.206,0,0,0,4.023,7.571c.216,1.531.5,3.193.805,5.141.067.431.722.248.655-.181-.208-1.336-.435-2.678-.635-4.023a22.79,22.79,0,0,0,9.509,5.683,31.433,31.433,0,0,0-9.11,2.919.344.344,0,0,0,.081.622,91.626,91.626,0,0,0,26.587,1.17.345.345,0,0,0,.088-.663,32.878,32.878,0,0,0-3.484-1.726,64.129,64.129,0,0,0,14.242-.752,14.144,14.144,0,0,0,1.834,1.157,20.068,20.068,0,0,0,4.388,1.536c7.216,1.827,15.643,1.075,19.7-5.046a26.85,26.85,0,0,0,3.357-8.706c.376-1.553.7-3.122.949-4.7h12.829a.342.342,0,0,0,.34-.34c-.249-1.893-3.95-30.077-3.95-30.077,2.109.26,4.169.977,6.266,1.284,15.409,2.345,28.258-9.356,30.364-25.189a25.368,25.368,0,0,0,.047-7.823,17.278,17.278,0,0,0-2.79-6.708c-3.557-5.306-8.569-7.8-14.634-10.08a2.226,2.226,0,0,0-.243-1.321c-.738-1.334-2.407-1.142-3.26-2.454-.279-.446-.464-.942-.715-1.4-1.044-1.919-3.307-2.287-5.3-2.209a14.8,14.8,0,0,1-3.826-.031,1.649,1.649,0,0,1-1.124-.742c-.626-1.206-.229-2.558-.989-3.812a4.266,4.266,0,0,0-2.156-1.734c-2.274-.872-4.667-.171-7.007-.366a2.472,2.472,0,0,1-2.141-1.457c-.843-1.6-.829-3.26-2.595-4.4-2.854-1.609-6.1.2-8.756,1.149-3.593,1.29-4.753-.551-6.866-.294a4.47,4.47,0,0,0-2.647,1.547,5.331,5.331,0,0,0-1.336,5.7c1.108,2.081,2.179,2.249,2.946,4.131.569,1.837-1.607,3.406-.956,5.232.679,1.905,3.136,1.781,4.686,2.378a16.429,16.429,0,0,0-3.025,6.989c-.942,3.051-1.474,4.529-2.863,6.413a7.229,7.229,0,0,1-2.817,2.336,4.821,4.821,0,0,1-5.577-2.083c-2.717-4.6,1.4-25.146-2.1-33.375-1.342-3.213-6.181-2.254-7.352,1.24a32.141,32.141,0,0,0-.744,6.65c-3.7-3.271-7.045-6.03-10.882-7.976-1.413-.727-4.326-2.049-5.238.089a3.5,3.5,0,0,0,.636,3.112A23.457,23.457,0,0,0,85.7,60.846,21.273,21.273,0,0,0,77.761,59.1a5.673,5.673,0,0,0-3.461.976,2.725,2.725,0,0,0-.559,3.516,4.95,4.95,0,0,0,2.867,2.116A7.553,7.553,0,0,0,72.55,67.52a2.569,2.569,0,0,0-.8,2.609A3.3,3.3,0,0,0,73.7,72.1a9.622,9.622,0,0,0,2.963.53c3.442.252,9.515.146,13.009.029.2,7.344.578,16.371,2.974,23.572h-12.6a22.666,22.666,0,0,0,.134-3.5c-.108-3.5-1.671-7.514-4.717-9.542-3.37-2.243-7.619-2.052-10.456-4.65-3.172-2.9-4.979-9.547-2.8-15.974,1.512-4.642,4.759-10,2.607-15.209a11.254,11.254,0,0,0-4.337-5.121,11.009,11.009,0,1,0-.329.6,9.817,9.817,0,0,1,4.689,8.763c-.243,5.249-3.995,9.815-4.264,15.949a17.419,17.419,0,0,0,1.641,8.284c2.888,6.151,8.37,5.183,12.5,7.69,3.146,2.05,4.608,5.446,4.781,9.212a25.521,25.521,0,0,1-.952,7.691c.014-3.9.466-8.091-2.071-11.273-1.659-2.08-4.295-2.941-6.742-3.7-7.578-2.365-16.136-3.633-22.646-8.735a1.612,1.612,0,0,0-.852-2.61,6.848,6.848,0,0,0-2.151-.236,17.683,17.683,0,0,1-1.532-2.06,1.216,1.216,0,0,1,.43-.363c1.441-.541,2.082.115,3.664-.464a1.649,1.649,0,0,0,.733-2.628c-1.415-1.568-4.5-.028-4.824-1.443a1.372,1.372,0,0,1,.558-1.477,3.136,3.136,0,0,1,1.777-.388,18.3,18.3,0,0,1,2.243.186c.434.053.43-.628,0-.681a8.944,8.944,0,0,0-3.729-.006,2.086,2.086,0,0,0-1.53,2.41c.2,1.318,1.68,1.321,2.731,1.3a4.25,4.25,0,0,1,1.745.2c.478.2.949.7.72,1.246-.5,1.21-2.27.772-3.264.861a2.766,2.766,0,0,0-1.618.65c-2.343-4.075-2.505-8.813-1.649-13.338h2.879a.351.351,0,0,0,.332-.37c-.01-.2-1.271-2.259-2.13-3.732a28.586,28.586,0,0,1,1.414-3.408l2.748-1.323c.394-.19.049-.777-.344-.587l-1.881.905A22.574,22.574,0,0,1,45.3,46.637c-.194-.116-.384-.239-.571-.367a23.285,23.285,0,0,0-2.2,3.57l-.761.366c-.378.182-.074.722.3.6q-.492,1.071-.9,2.182l-4.833-8.3c-.12-.2-.415-.274-.652.077-.386.574-1.781,2.92-7.309,12.58a.343.343,0,0,0,.293.512H39.855a24.266,24.266,0,0,0-.21,8.087A16.431,16.431,0,0,0,41.757,71.8c-.493,1.106.125,2.536,1.978,2.693A21.419,21.419,0,0,0,46,76.7a12.707,12.707,0,0,1-4.055.154c-.435-.046-.432.634,0,.68a16.233,16.233,0,0,0,3.086.022,3.646,3.646,0,0,0,1.541-.393c8.263,6.326,17.626,6.7,25.775,9.9a7.7,7.7,0,0,1,4.949,5.079,15.059,15.059,0,0,1,.59,4.085H53.374a.342.342,0,0,0-.34.34c.249,1.893,1.23,9.366,1.472,11.21-.387.083-.774.168-1.159.263v-5.591a.34.34,0,0,0-.68,0v5.77a42.409,42.409,0,0,0-5.335,1.8c-1.707-3.554-3.492-7.3-6.9-9.851a15.434,15.434,0,0,0-9.568-2.834,15.156,15.156,0,0,0-6.286,1.409A22.788,22.788,0,0,0,16.5,105.3a20.158,20.158,0,0,0-2.838,4.449c-4.016,6.47-9.077,13.435-8.636,21,.226,3.894,1.851,7.9,5.129,10.195a13.848,13.848,0,0,0,6.764,2.12,40.241,40.241,0,0,0,9.2-.234,19.135,19.135,0,0,0,6.623,3.421A28.45,28.45,0,0,0,22.3,148.79c-.323.148-.141.626.172.634l24.9.6A.341.341,0,0,0,47.543,149.392ZM57.261,45.221a10.091,10.091,0,1,1,1.368-14.206A10.135,10.135,0,0,1,57.261,45.221Zm-28,11.959,6.782-11.642L42.826,57.18ZM46.574,76.255l-.019.022a20.612,20.612,0,0,1-1.873-1.756A2.731,2.731,0,0,1,46.474,75,.892.892,0,0,1,46.574,76.255ZM95.3,172.3a91.23,91.23,0,0,1-24.2-1.07,28.686,28.686,0,0,1,9.427-2.567,49.656,49.656,0,0,0,8.966,1.577c1.646.151,1.208.038,1.884.3A34.949,34.949,0,0,1,95.3,172.3Zm3.263-2.438c-9.983.165-22.8-.963-29.33-8.593a34.6,34.6,0,0,1-.352-6.335,12.948,12.948,0,0,1,4.17-9.2c5.779-5.378,14.556-2.165,17.146,6.2,1.548,4.741,1.057,9.751,1.233,14.66.017.437.7.439.681,0-.172-4.59.248-9.237-.933-13.732-2.57-9.793-11.6-12.889-17.47-8.526a13.364,13.364,0,0,0-5.346,8.91,28.212,28.212,0,0,0,.044,6.983c-3.236-4.462-5.2-12.079-5.7-17.566-.488-5.372-.3-11.349,3.348-15.67,3.821-4.525,9.824-6.527,15.777-6.936-.336.238-.664.489-.978.757a5.464,5.464,0,0,0-1.564,1.847,1.281,1.281,0,0,0,.537,1.73c2.808,1.288,6.448-1.119,11.955-2.738.518-.145,3.356-.908,4.032-1.08,1.3-.193,10.081,1.685,15.514,4.538a10.333,10.333,0,0,0-11.032,4.294,15.879,15.879,0,0,0-2.545,6.3,21.133,21.133,0,0,0-.191,2.867c-.248,6.56.093,13.313,2.125,19.6a23.233,23.233,0,0,0,6.932,11.014A49.54,49.54,0,0,1,98.563,169.864ZM83.036,120.108a.735.735,0,0,1,.483-.134,91.984,91.984,0,0,1,10.31.406c-7.021,1.781-8.995,3.52-11.953,3.652a3.35,3.35,0,0,1-1.736-.281.471.471,0,0,1-.278-.439,2.1,2.1,0,0,1,.672-1.2A11.7,11.7,0,0,1,83.036,120.108Zm53.683,34.706a52.737,52.737,0,0,1-2.414,9.084c-2.695,7.323-9.568,9.5-17.214,8.525a27.772,27.772,0,0,1-7.236-1.935c-3.862-1.859-6.6-5.512-8.35-9.429-2.478-5.534-3.23-11.767-3.327-17.775-.043-2.715.088-5.937.164-6.9a14.43,14.43,0,0,1,1.276-4.426c1.586-3.593,4.578-6.157,8.486-6.355a8.041,8.041,0,0,1,8.93,5.243c.97,2.3.927,3.716,1.328,8.617.008.1,1.156,14.268,1.19,14.368a.336.336,0,0,0,.669-.035,112.635,112.635,0,0,0,1.064-19.616,23.134,23.134,0,0,1-.061-2.47,2.174,2.174,0,0,1,.825-1.793,1.164,1.164,0,0,1,1.523.1,4.085,4.085,0,0,1,.85,1.976,21.064,21.064,0,0,1,.261,5.622c-.016.438.664.437.68,0,.04-1.126.047-2.254.028-3.381,1.315-2.19,4.692-1.921,5.166.56.03.227.276.461.512.293a2.221,2.221,0,0,1,1.428-.515,1.594,1.594,0,0,1,1.008.547,4.282,4.282,0,0,1,.994,2.308.341.341,0,0,0,.418.238,1.36,1.36,0,0,1,1.55.725,5.719,5.719,0,0,1,.561,2.011A43.156,43.156,0,0,1,136.719,154.814ZM172.39,78.659c6.283,3.313,10.823,9.456,10.658,16.77-.179,18.165-14.739,32.772-32.872,28.14-6.084-1.631-6.735-.283-11.118,0a6.6,6.6,0,0,1-1.8-.2,2.964,2.964,0,0,1-1.277-.647.992.992,0,0,1-.1-1.25c.6-.842,1.454-.919,3.056-1.258l5.918-1.25c.436-.092.242-.72-.18-.656a38.346,38.346,0,0,1-7.236.408,9.1,9.1,0,0,1-2.047-.222,1.643,1.643,0,0,1-1.287-1.282c-.04-.58.432-.936.91-1.139a68.6,68.6,0,0,1,9.512-2.552.342.342,0,0,0-.091-.668l-7.6.6a6.481,6.481,0,0,1-2.2,0c-.572-.158-1.19-.674-.935-1.333a2.257,2.257,0,0,1,1.29-1.022c7.023-2.994,14.752-1.259,21.993-3.132a11.113,11.113,0,0,0,6.885-4.521,6.732,6.732,0,0,0,1.087-3.571A9.769,9.769,0,0,0,162,93.145c-1.966-1.823-6.656-3.812-9.221-4.589-3.076-.9-4.835-.7-7.562-1.862a8.17,8.17,0,0,1,1.165-15.084,8.517,8.517,0,0,1,4.965-.029C158.561,73.244,165.821,75.092,172.39,78.659Zm-51.124-5.052A2.256,2.256,0,0,1,119.7,72.4a3.535,3.535,0,0,1,.578-2.52,3.829,3.829,0,0,0,.407-2.614c-.446-1.653-2.056-2.63-2.876-4.067-1.021-1.791-.142-3.962,1.185-5.333a3.408,3.408,0,0,1,2.721-1.231c1.119.1,2.142.654,3.267.751,2.309.2,4.367-1.057,6.481-1.759,1.6-.53,3.728-.853,5.155.279,1.341,1.065,1.371,2.985,2.278,4.34a3.049,3.049,0,0,0,2.22,1.371,18.021,18.021,0,0,0,3.715-.04c1.835-.087,4.259.112,5.215,1.975.76,1.481.056,3.76,1.927,4.562a7.87,7.87,0,0,0,3.482.278,11.739,11.739,0,0,1,3.274.093,3.6,3.6,0,0,1,2.328,1.46c.526.827.755,1.823,1.561,2.449.933.723,2.774.9,2.725,2.4-7.134-2.6-14.425-3.907-17.03-4.618-5.011-1.367-11.146-1.963-15.843-.852a15.108,15.108,0,0,0-8.3,5.07A26.551,26.551,0,0,0,121.266,73.607Zm8.9-2.816c-.274.739-.491,1.5-.814,2.217a2.649,2.649,0,0,1-1.748,1.7c-.841.138-1.222-.761-1.409-1.451A14.2,14.2,0,0,1,130.169,70.791Zm-8.844,11.586a15.4,15.4,0,0,1,4.281-8.55,2.391,2.391,0,0,0,1.009,1.375,2.1,2.1,0,0,0,2.16-.245c1.441-1.085,1.588-3.023,2.341-4.533,5-1.674,11.317-1.04,16.364.238a8.844,8.844,0,0,0-1.371,17.132c1.965.583,4.446.715,7.584,1.771a34.507,34.507,0,0,1,6.575,3.11c3.115,1.958,4.943,6.352,3.466,9.591-3.271,7.171-14.861,5.49-22.864,6.6C131.235,99.247,128.344,96.617,124.163,91a16.431,16.431,0,0,1-2.616-5A8.477,8.477,0,0,1,121.325,82.377ZM90.339,72.308a.342.342,0,0,0-.34-.34c-3.753.042-10.043.307-14.024-.077a5,5,0,0,1-2.87-.925,1.863,1.863,0,0,1-.518-2.418A4.617,4.617,0,0,1,75.07,66.8a16.731,16.731,0,0,1,3.13-.661c.346-.05.3-.575,0-.656a6.449,6.449,0,0,1-3.608-1.83,2.142,2.142,0,0,1,.185-3.091,4.963,4.963,0,0,1,3.071-.78,20.232,20.232,0,0,1,9.09,2.409.342.342,0,0,0,.412-.535,32.588,32.588,0,0,1-2.75-3.308,3.764,3.764,0,0,1-.931-2.5c.123-.947,1.061-1.2,1.865-1.052a8.615,8.615,0,0,1,2.783,1.087,43.913,43.913,0,0,1,8.533,6.061q1.182,1,2.343,2.028a12.079,12.079,0,0,0-1.646,2.255,9.889,9.889,0,0,0-7.182.328c-.4.177-.054.763.343.587a9.177,9.177,0,0,1,6.906-.18A.338.338,0,0,0,98,66.808a11.664,11.664,0,0,1,1.793-2.484.912.912,0,0,0,.129-.463,42.42,42.42,0,0,1,.506-6.3,4.852,4.852,0,0,1,.885-2.045,3.567,3.567,0,0,1,4.6-1.1,2.987,2.987,0,0,1,.938,1.345c3.26,8.544-.87,28.309,2.019,33.2a5.268,5.268,0,0,0,8.49.962,12.451,12.451,0,0,0,3.231-5.429,12.847,12.847,0,0,0,2.222,5.727,71.83,71.83,0,0,0,8.864,10.4,37.6,37.6,0,0,1-4.349,4.9,19.3,19.3,0,0,1-5.089,3.6c-8.4,3.535-18.21.345-24.832-6.274a16.594,16.594,0,0,1-4.5-8.067C90.863,87.561,90.539,79.932,90.339,72.308ZM53.77,96.91H77.9c.014,1.865-.088,3.367.029,5.647a.342.342,0,0,0,.668.09,32.56,32.56,0,0,0,1.366-5.737H92.885a16,16,0,0,0,2.63,4.851c5.489,6.807,15.848,11.422,25.163,8.632,4.757-1.426,8.475-5.343,11.474-9.3,2.607,2.646,5.246,5.263,7.876,7.887a24.783,24.783,0,0,0-5.117,1.419c-1.016.426-2.341,1.247-1.847,2.559.562,1.494,2.455,1.281,3.714,1.181,2.261-.18,3.085-.244,3.085-.244s-.308.069-.688.172c-.862.235-1.714.506-2.574.752a14.692,14.692,0,0,0-2.1.746,1.845,1.845,0,0,0-1.063,1.385,1.949,1.949,0,0,0,.892,1.784,4.021,4.021,0,0,0,2.033.6c1.083.088,2.057.09,3.076.075a20.039,20.039,0,0,0-2.766.656,2.131,2.131,0,0,0-1.577,2.474c.315,1.009,1.56,1.43,2.492,1.6,2.772.5,5.417-.875,8.49-.659,3.465,26.393,3.871,29.581,3.9,29.811H137.65a40.522,40.522,0,0,0-.191-14.222,2.407,2.407,0,0,0-2.359-2.134c-.369-2.164-2.12-3.818-3.988-2.679a3.434,3.434,0,0,0-5.8-1.006,7.545,7.545,0,0,0-.906-3.248A1.9,1.9,0,0,0,122.83,129a2.19,2.19,0,0,0-1.9,1.174c-.675,1.555-.341,2.553-.279,5.516a109.539,109.539,0,0,1-.694,14.854c-.182-2.225-1.178-14.907-1.376-16.49-.669-5.906-4.53-8.737-10.026-10.935-7.729-3.053-12.519-3.426-20.264-3.761-7.262-.315-14.079.166-20.107,4.691-4.679,3.493-6.23,8.208-6.334,14a44.24,44.24,0,0,0,2.468,15.242H61.163c-.234-1.78-3.431-26.133-3.9-29.712.769-.867,1.56-1.8,2.818-1.786a10.828,10.828,0,0,1,3.572,1.16,3.977,3.977,0,0,0,3.4-.022,2.157,2.157,0,0,0,.958-2.583,3.14,3.14,0,0,0-.925-1.078,17.726,17.726,0,0,0-2.466-1.741c1.62.532,3.235,1.158,4.749.073a2.091,2.091,0,0,0,.585-2.8c-.611-.872-1.9-1.165-2.84-1.5q-1.092-.383-2.2-.707a42.948,42.948,0,0,0,5.321-.368c2.153-.362,3.082-2.078.874-3.587-1.806-1.234-4.217-1.441-6.338-1.605a35.062,35.062,0,0,0-9.594.6C54.99,106.287,53.794,97.088,53.77,96.91ZM33.7,98.2a3.59,3.59,0,0,1,1.337.307,6.342,6.342,0,0,1,1.107.921c1.671,1.716,1.154,3.047.127,3.368.029-.007.059-.016.089-.025a2.854,2.854,0,0,1-1.447.027c-2.363-.535-3.7-3.328-6.187-4.6A16.62,16.62,0,0,1,33.7,98.2Zm-7.415.6a10.423,10.423,0,0,1,1.261-.356,2.072,2.072,0,0,1,.591.236c2.387,1.119,3.661,3.825,6.209,4.677,3.082,1.032,5.036-1.644,2.325-4.412,5.4,1.9,7.679,6.479,10.049,11.334a48.063,48.063,0,0,0-12.534,7.933c-2.4,2.089-5.825,6.19-7.639,5.74.638-1.592,2.214-4.553,2.805-5.606a8.935,8.935,0,0,0-13.21-11.45C19.377,102.41,23.041,99.9,26.286,98.8Zm-5.229,43.732a27.794,27.794,0,0,1-6.916-.6c-6.732-1.506-11.208-9.766-6.46-20.519a78.194,78.194,0,0,1,5.473-9.559,32.682,32.682,0,0,1,1.874-2.938A8.261,8.261,0,0,1,28.766,118c-.551.983-1.052,1.994-1.578,2.99a25.564,25.564,0,0,0-1.4,3.068.344.344,0,0,0,.157.384c1.16.652,2.546-.236,3.468-.922,3.968-3.139,5.4-6.136,13.326-10.518,7.54-4.279,16.418-6.368,24.9-4.924a7.866,7.866,0,0,1,3.036,1.1c.406.256.936.63,1.007,1.146a.882.882,0,0,1-.491.855,6.309,6.309,0,0,1-2.877.571c-3.017.229-4.952.2-5.855.214a.342.342,0,0,0-.091.668,38.177,38.177,0,0,1,6.556,2.141,1.345,1.345,0,0,1,.066,2.274,3.353,3.353,0,0,1-2.979.241,12.638,12.638,0,0,0-3.745-.9c-.307.009-.5.493-.171.634a18.05,18.05,0,0,1,4.6,2.817,1.906,1.906,0,0,1,.771,1.041,1.5,1.5,0,0,1-.562,1.336c-2.319,1.756-5.411-2.246-8.3-.75a9.78,9.78,0,0,0-2.479,2.38c-1.694,1.9-3.353,3.833-5.127,5.66A42.408,42.408,0,0,1,21.057,142.531Zm6,.158a43.8,43.8,0,0,0,10.263-2.943c7.173-3.036,12.242-7.34,17.139-13.009.736-.828,1.469-1.659,2.207-2.486.356,2.709,1.984,15.1,2.442,18.593a24.5,24.5,0,0,1-9.571,3.526,43.108,43.108,0,0,1-12.678.126A22.134,22.134,0,0,1,27.06,142.689Zm-2.994,6.093a27.975,27.975,0,0,1,11.262-1.872,34.672,34.672,0,0,0,4.92.606,26.153,26.153,0,0,1,5.548,1.791Z" fill="#000000"></path><path d="M122.326,169.118c-1.562-.008-3.123-.048-4.685-.024a.34.34,0,0,0,0,.68c1.562.008,3.123.048,4.685.025a.341.341,0,0,0,0-.681Z" fill="#000000"></path><path d="M130.9,136.671a5.957,5.957,0,0,1-.042,2.159.341.341,0,0,0,.656.181,5.618,5.618,0,0,0,.042-2.521C131.457,136.063,130.8,136.244,130.9,136.671Z" fill="#000000"></path><path d="M134.746,138.144a13.325,13.325,0,0,1,0,1.885c-.04.435.64.432.68,0a13.325,13.325,0,0,0,0-1.885C135.4,137.707,134.723,137.706,134.746,138.144Z" fill="#000000"></path><path d="M86.375,114.841a4.387,4.387,0,0,0,6.017-.432,4.686,4.686,0,0,0-3.441-7.618C85.241,106.83,83.612,112.451,86.375,114.841Zm1.946-7.294c3.047-.653,5.457,2.924,3.985,5.811a3.679,3.679,0,0,1-5.45,1C84.743,112.609,85.51,108.149,88.321,107.547Z" fill="#000000"></path><path d="M86.638,105.359c1.226-.056,5.271-.25,6.068-.29.82-.044,2.019,0,2.275-.992a.892.892,0,0,0-.23-.875,1.5,1.5,0,0,0-.961-.312,6.64,6.64,0,0,0-1.128.019,10.269,10.269,0,0,0,.923-.821,1.628,1.628,0,0,0,.432-1.923,1.48,1.48,0,0,0-1.8-.445,5.2,5.2,0,0,0-.854.369A3.219,3.219,0,0,0,91.7,98.1a.905.905,0,0,0-1.069-.7,1.721,1.721,0,0,0-1.071.884,30,30,0,0,0-3.251,6.645A.342.342,0,0,0,86.638,105.359Zm3.511-6.732c.147-.224.348-.56.653-.566.355-.007.264.54.233.762a6.133,6.133,0,0,1-.909,2.146.342.342,0,0,0,.136.464c.409.222.453-.4,1.936-.986.377-.145,1.133-.37,1.284.19s-.377.994-.744,1.3c-.53.444-1.067.881-1.6,1.321-.269.221.02.66.33.568a6.506,6.506,0,0,1,2-.273c.213,0,.627-.033.8.128.193.181-.061.455-.228.536a2.61,2.61,0,0,1-1,.151c-.272.015-5.682.275-5.9.285A27.31,27.31,0,0,1,90.149,98.627Z" fill="#000000"></path><path d="M61.066,166.6V155.017a.34.34,0,0,0-.68,0V166.6a.34.34,0,0,0,.68,0Z" fill="#000000"></path><path d="M150.364,154.431a.339.339,0,0,0-.328.328V166.6a.34.34,0,0,0,.68,0V154.759A.339.339,0,0,0,150.364,154.431Z" fill="#000000"></path><path d="M182.836,151.975a7.677,7.677,0,0,1-1.648-3.538c-.137-.753-3.7-31.373-3.714-31.477-.048-.43-.728-.435-.68,0,.49,4.49,3.673,31.354,3.774,31.842a9.375,9.375,0,0,0,2.6,4.617c2.138,2.428,11.27,13.418,11.27,13.418.282.335.761-.148.481-.481C194.728,166.133,183.294,152.524,182.836,151.975Z" fill="#000000"></path><path d="M168.773,166.425c-.278-.362-9.682-12.73-10.193-13.4-.8-1.051-1.906-2.139-2.012-3.517a15.922,15.922,0,0,1,.025-2.162c.045-.753,1.018-21.021,1.039-21.365.025-.437-.655-.436-.681,0-.358,6.063-1.024,21.193-1.085,22.689a4.934,4.934,0,0,0,1.318,3.634c1.773,2.241,11,14.466,11,14.466C168.447,167.112,169.038,166.773,168.773,166.425Z" fill="#000000"></path><path d="M139,154.669l-2.56,11.837c-.093.427.563.609.655.181.288-1.329,2.56-11.837,2.56-11.837C139.749,154.423,139.093,154.241,139,154.669Z" fill="#000000"></path><path d="M159.71,166.687l1.63-8.284c.084-.427-.571-.611-.656-.181q-.815,4.141-1.631,8.284C158.969,166.934,159.625,167.117,159.71,166.687Z" fill="#000000"></path><path d="M29.46,86.287A4.155,4.155,0,0,0,25.276,84c-.67.039-.862.254-1.506.021-.894-.324-1.656-.837-2.4-.245a2.232,2.232,0,0,0-.512,1.565,3.011,3.011,0,0,0-3.1,1.559,9.432,9.432,0,0,0-1.05,3.536,5.955,5.955,0,0,0,.6,4.848c1.954,2.792,6.345,1.218,12.441.647a.343.343,0,0,0,.085-.671c-.543-.186-.647-.812-.608-1.314C29.319,92.809,30.943,89.207,29.46,86.287Zm-.536,5.938a6.374,6.374,0,0,0-.365,2.137,2.06,2.06,0,0,0,.335.982c-3.137.352-4.616.708-7.687.873a4.529,4.529,0,0,1-2.748-.709c-1.364-1.04-1.435-2.932-1.161-4.473a14.907,14.907,0,0,1,.747-3.189A3.265,3.265,0,0,1,19.1,86.4a2.631,2.631,0,0,1,2-.353.347.347,0,0,0,.42-.25c.035-.141-.106-1.717.629-1.614a10.2,10.2,0,0,1,1.534.524,3.75,3.75,0,0,0,1.5-.022,3.571,3.571,0,0,1,3.845,2.279A8.512,8.512,0,0,1,28.924,92.225Z" fill="#000000"></path><path d="M178.223,106.669a15.342,15.342,0,0,0,1.363-3.763c.093-.427-.563-.609-.657-.181a14.622,14.622,0,0,1-1.293,3.6C177.436,106.714,178.022,107.058,178.223,106.669Z" fill="#000000"></path><path d="M111.882,108.8h3.8a.34.34,0,0,0,0-.68h-3.8a.34.34,0,0,0,0,.68Z" fill="#000000"></path><path d="M148.853,112.281l-2.019.214c-.431.045-.435.726,0,.68l2.019-.214C149.283,112.915,149.288,112.234,148.853,112.281Z" fill="#000000"></path><path d="M149.316,117.918H147.2a.34.34,0,0,0,0,.68h2.114a.34.34,0,0,0,0-.68Z" fill="#000000"></path><path d="M26.973,87.407c-1.819-1.509-4.813-.161-5.778,1.735a2.93,2.93,0,0,0,.8,3.667,3.65,3.65,0,0,0,5.652-.921A3.747,3.747,0,0,0,26.973,87.407Zm.438,3.061a2.988,2.988,0,0,1-2.076,2.5c-2.073.593-4.285-1.155-3.676-3.19a3.658,3.658,0,0,1,1.865-1.927,3.115,3.115,0,0,1,2.532-.22A2.765,2.765,0,0,1,27.411,90.468Z" fill="#000000"></path><path d="M98.554,36.04V49.886a.341.341,0,0,0,.681,0V36.04a.341.341,0,0,0-.681,0Z" fill="#000000"></path><path d="M91.66,44.622a.34.34,0,0,0-.481.481l5.392,5.391a.34.34,0,0,0,.48-.481Q94.4,47.274,91.66,44.622Z" fill="#000000"></path><path d="M105.286,45.128q-2.55,2.472-5.017,5.03a.34.34,0,0,0,.481.481l5.017-5.03a.34.34,0,0,0-.481-.481Z" fill="#000000"></path><path d="M58.024,61.679c.576-.016.65-.03.667-.627s.007-2.011-.016-5.46a.343.343,0,0,0-.339-.34H52.605a.346.346,0,0,0-.34.34v5.73a.344.344,0,0,0,.34.34C55.972,61.686,57.4,61.7,58.024,61.679Zm-5.079-5.747H58v5.05h-5.05Z" fill="#000000"></path><path d="M11.089,85.364a13.772,13.772,0,0,0-1.338,7.9.349.349,0,0,0,.34.34.338.338,0,0,0,.339-.34,13.382,13.382,0,0,1,1.246-7.557C11.871,85.317,11.284,84.972,11.089,85.364Z" fill="#000000"></path><path d="M8.6,85.284a13.779,13.779,0,0,0-1.339,7.9.348.348,0,0,0,.34.339.338.338,0,0,0,.34-.339,13.37,13.37,0,0,1,1.246-7.557C9.382,85.236,8.8,84.892,8.6,85.284Z" fill="#000000"></path><path d="M120.961,125.455a.34.34,0,0,0,.655-.181c-.384-1.491-1.852-6.7-1.882-6.8a.34.34,0,0,0-.656.18C119.591,120.651,120.879,125.177,120.961,125.455Z" fill="#000000"></path><path d="M123.179,126.241c1.1-2.177,3.622-7.151,3.779-7.461.2-.39-.389-.735-.587-.344-1.1,2.177-3.622,7.152-3.78,7.462C122.394,126.287,122.981,126.632,123.179,126.241Z" fill="#000000"></path><path d="M124.577,127.391l5.293-1.88c.409-.146.233-.8-.181-.656l-5.293,1.88C123.987,126.881,124.163,127.538,124.577,127.391Z" fill="#000000"></path><path d="M34.079,38.834l.714,3.687c.083.43.738.248.655-.18q-.355-1.843-.713-3.688C34.652,38.224,34,38.406,34.079,38.834Z" fill="#000000"></path><path d="M29.205,51.035a.34.34,0,0,0-.229-.4c-1.079-.307-2.153-.635-3.239-.919a.34.34,0,0,0-.18.655c1.079.307,2.152.637,3.238.92A.34.34,0,0,0,29.205,51.035Z" fill="#000000"></path><path d="M26.652,60.59l-2.7,2.115c-.344.27.14.748.481.481l2.7-2.116C27.477,60.8,26.992,60.322,26.652,60.59Z" fill="#000000"></path><path d="M37.737,64.157q-.314-1.695-.628-3.389c-.081-.43-.736-.248-.656.181q.313,1.694.628,3.389C37.161,64.768,37.817,64.585,37.737,64.157Z" fill="#000000"></path><path d="M58.433,116.2c-.429.082-.247.738.181.655a5.328,5.328,0,0,1,1.93-.017c.428.075.612-.58.181-.656A6.263,6.263,0,0,0,58.433,116.2Z" fill="#000000"></path><path d="M58.426,112.7a6.549,6.549,0,0,1,2.116-.158c.436.038.433-.643,0-.68a7.132,7.132,0,0,0-2.3.183C57.82,112.147,58,112.8,58.426,112.7Z" fill="#000000"></path><path d="M9.359,134.61c-.256-.35-.846-.011-.587.343l2.411,3.3c.256.35.846.011.588-.343Z" fill="#000000"></path><path d="M161.008,148.487v-3.4a.34.34,0,0,0-.68,0v3.4a.34.34,0,0,0,.68,0Z" fill="#000000"></path><path d="M44.944,59.4l3.19,3.789c.282.335.761-.148.481-.481l-3.191-3.789C45.142,58.581,44.663,59.064,44.944,59.4Z" fill="#000000"></path></g></svg>