<svg xmlns="http://www.w3.org/2000/svg" fill="none" viewBox="0 0 200 200" height="400" width="400"><path fill="#000000" d="M115.816 78.72C115.576 77.6338 115.076 76.6221 114.359 75.7716C113.643 74.9211 112.73 74.2572 111.7 73.837C110.533 73.3875 109.264 73.2694 108.034 73.4959C106.804 73.7223 105.66 74.2844 104.729 75.12C104.713 73.7353 104.515 72.3586 104.142 71.025C102.1 65 89.9001 62.2 82.9111 70.317C80.7851 72.7898 79.18 75.6662 78.1921 78.774C77.1004 77.9032 75.8108 77.315 74.4375 77.0618C73.0642 76.8085 71.6496 76.8979 70.3191 77.322C66.2821 78.735 64.3761 83.455 66.8191 86.979C65.6551 86.8698 64.4811 87.003 63.3711 87.37C62.8548 87.546 62.3782 87.8221 61.9686 88.1824C61.559 88.5428 61.2245 88.9803 60.9841 89.47C60.0321 91.77 61.8671 94.026 64.2211 94.741C69.7429 91.7883 75.4425 89.1809 81.2871 86.934C87.4871 84.634 93.8221 83.328 100.221 85.003C100.461 83.9815 100.896 83.0161 101.502 82.16C101.692 81.8378 101.985 81.5897 102.335 81.4566C102.684 81.3236 103.068 81.3135 103.424 81.428C103.762 81.5837 104.05 81.8297 104.257 82.1388C104.464 82.448 104.582 82.8083 104.597 83.18C105.274 82 106.305 80.865 107.608 81.543C107.95 81.7686 108.236 82.0685 108.446 82.4204C108.655 82.7723 108.783 83.167 108.818 83.575C109.118 85.245 108.833 85.753 108.833 88.359C108.833 90.071 110.144 90.844 111.847 91.015C112.016 90.727 112.184 90.438 112.347 90.146C111.766 90.0911 111.213 89.8744 110.749 89.5206C110.285 89.1668 109.93 88.6899 109.724 88.1443C109.518 87.5987 109.469 87.0062 109.582 86.4341C109.696 85.862 109.968 85.3333 110.367 84.908C110.757 84.4613 111.27 84.139 111.842 83.981C112.413 83.8229 113.019 83.8362 113.583 84.019C114.03 84.2051 114.435 84.4769 114.777 84.819C115.087 83.9413 115.347 83.0469 115.557 82.14C115.88 81.0304 115.969 79.8656 115.816 78.72V78.72Z"></path><path fill="#000000" d="M104.357 88.262C104.303 87.834 103.623 87.829 103.677 88.262C103.774 89.1158 103.937 89.9608 104.166 90.789C104.178 90.8321 104.198 90.8724 104.226 90.9076C104.253 90.9429 104.287 90.9724 104.326 90.9944C104.365 91.0165 104.408 91.0307 104.452 91.0362C104.497 91.0417 104.542 91.0384 104.585 91.0265C104.628 91.0146 104.668 90.9944 104.703 90.9669C104.739 90.9394 104.768 90.9053 104.79 90.8664C104.812 90.8276 104.826 90.7847 104.832 90.7404C104.837 90.6961 104.834 90.6511 104.822 90.608C104.62 89.8361 104.465 89.0527 104.357 88.262V88.262Z"></path><path fill="#000000" d="M100.963 90.569C100.655 90.257 100.174 90.738 100.482 91.05L101.806 92.391C102.114 92.703 102.595 92.222 102.287 91.91L100.963 90.569Z"></path><path fill="#000000" d="M110.75 125.81H107.8C107.71 125.81 107.623 125.846 107.56 125.91C107.496 125.973 107.46 126.06 107.46 126.15C107.46 126.24 107.496 126.327 107.56 126.39C107.623 126.454 107.71 126.49 107.8 126.49H110.754C110.844 126.49 110.931 126.454 110.994 126.39C111.058 126.327 111.094 126.24 111.094 126.15C111.094 126.06 111.058 125.973 110.994 125.91C110.931 125.846 110.844 125.81 110.754 125.81H110.75Z"></path><path fill="#000000" d="M50.3941 83.628C48.7751 82.849 36.6071 77.011 36.0211 76.711C35.9624 76.6792 35.8958 76.665 35.8293 76.6703C35.7628 76.6755 35.6992 76.7 35.6463 76.7406C35.5934 76.7812 35.5534 76.8364 35.5312 76.8993C35.509 76.9622 35.5054 77.0302 35.5211 77.095C35.7863 78.0752 36.2724 78.9817 36.9421 79.745C39.4214 82.6153 42.8861 84.4523 46.6531 84.894C47.9384 85.0145 49.2321 84.7796 50.3931 84.215C50.4422 84.192 50.4838 84.1553 50.5129 84.1094C50.5419 84.0636 50.5572 84.0103 50.5571 83.956C50.5745 83.8909 50.5675 83.8216 50.5375 83.7612C50.5075 83.7008 50.4565 83.6535 50.3941 83.628V83.628Z"></path><path fill="#000000" d="M15.8091 114.97C15.7988 114.918 15.7748 114.871 15.7396 114.831C15.7044 114.792 15.6593 114.764 15.6091 114.748C15.5505 114.711 15.4801 114.698 15.4123 114.711C15.3444 114.725 15.2842 114.764 15.2441 114.82L5.09308 127.126C5.04793 127.174 5.01768 127.235 5.00595 127.3C4.99421 127.365 5.00149 127.432 5.0269 127.494C5.05231 127.555 5.09479 127.607 5.14926 127.645C5.20373 127.683 5.26789 127.704 5.33408 127.706C7.54108 127.753 9.63408 126.318 11.2511 124.944C13.2087 123.3 14.699 121.17 15.5721 118.767C15.9987 117.547 16.0807 116.233 15.8091 114.97V114.97Z"></path><path fill="#000000" d="M131.679 106.168C137.913 107.319 137.569 107.537 137.811 107.283C137.857 107.245 137.892 107.194 137.912 107.137C137.931 107.08 137.934 107.019 137.921 106.96C137.908 106.902 137.879 106.848 137.837 106.805C137.795 106.761 137.741 106.731 137.683 106.716C137.248 106.616 134.378 105.979 131.86 105.516C131.432 105.433 131.248 106.089 131.679 106.168Z"></path><path fill="#000000" d="M133 111.283C132.913 111.261 132.821 111.274 132.744 111.318C132.666 111.362 132.608 111.434 132.582 111.52C132.57 111.563 132.567 111.608 132.572 111.652C132.578 111.697 132.592 111.739 132.614 111.778C132.636 111.817 132.665 111.851 132.7 111.879C132.736 111.906 132.776 111.926 132.819 111.938C135.988 112.374 139.198 112.43 142.381 112.104C142.833 111.991 142.811 111.378 142.339 111.426C139.231 111.745 136.097 111.697 133 111.283V111.283Z"></path><path fill="#000000" d="M148.72 112.215C148.432 111.396 147.998 110.636 147.439 109.972C146.41 108.504 145.229 107.148 143.917 105.926C143.597 105.626 143.117 106.108 143.436 106.407C145.147 107.994 146.624 109.817 147.822 111.82C148.09 112.299 148.31 113.083 147.763 113.445C147.74 113.464 147.716 113.481 147.691 113.497C147.302 113.697 147.645 114.285 148.034 114.084C148.068 114.064 148.102 114.042 148.134 114.018C148.41 113.818 148.615 113.536 148.72 113.212C148.826 112.888 148.826 112.539 148.72 112.215V112.215Z"></path><path fill="#000000" d="M167.639 111.345L165.661 114.932C165.45 115.316 166.037 115.66 166.248 115.276L168.226 111.689C168.437 111.305 167.85 110.961 167.639 111.345Z"></path><path fill="#000000" d="M165.526 97.766C166.013 96.7851 166.594 95.8535 167.26 94.984C167.527 94.637 166.936 94.298 166.673 94.641C166.007 95.5105 165.426 96.4422 164.938 97.423C164.744 97.813 165.331 98.158 165.526 97.766Z"></path><path fill="#000000" d="M175.458 79.549C174.976 80.8717 174.395 82.1566 173.722 83.393C173.513 83.777 174.1 84.121 174.309 83.736C175.009 82.4471 175.612 81.1081 176.114 79.73C176.264 79.318 175.607 79.141 175.458 79.549Z"></path><path fill="#000000" d="M173.937 69.58C173.502 70.6791 172.969 71.737 172.345 72.741C172.114 73.114 172.702 73.456 172.932 73.084C173.584 72.0284 174.14 70.9162 174.593 69.761C174.753 69.354 174.1 69.177 173.937 69.58Z"></path><path fill="#000000" d="M179.521 64.966C180.062 63.9961 180.712 63.0903 181.456 62.266C181.748 61.941 181.269 61.459 180.975 61.785C180.19 62.6518 179.506 63.6041 178.934 64.624C178.893 64.7016 178.884 64.7919 178.908 64.8761C178.932 64.9603 178.988 65.0319 179.064 65.0761C179.14 65.1202 179.229 65.1333 179.315 65.1128C179.4 65.0923 179.474 65.0397 179.521 64.966Z"></path><path fill="#000000" d="M171.33 64.417C170.786 65.2637 170.241 66.1107 169.696 66.958C169.459 67.328 170.047 67.669 170.284 67.302C170.828 66.454 171.372 65.6067 171.917 64.76C172.155 64.391 171.566 64.05 171.33 64.417Z"></path><path fill="#000000" d="M174.586 99.639C174.113 100.6 173.639 101.561 173.166 102.521C172.973 102.913 173.56 103.258 173.753 102.865C174.227 101.904 174.7 100.943 175.173 99.983C175.366 99.591 174.78 99.246 174.586 99.639Z"></path><path fill="#000000" d="M47.3862 76.621C47.4529 75.405 47.5195 74.189 47.5862 72.973C47.6102 72.536 46.9302 72.537 46.9062 72.973C46.8395 74.189 46.7729 75.405 46.7062 76.621C46.6822 77.059 47.3622 77.057 47.3862 76.621Z"></path><path fill="#000000" d="M49.1572 76.8L53.6812 73.156C54.0212 72.881 53.5382 72.403 53.2002 72.675L48.6772 76.319C48.3362 76.6 48.8202 77.075 49.1572 76.8Z"></path><path fill="#000000" d="M53.5671 76.991C52.2291 77.316 50.8941 77.651 49.5571 77.981C49.5141 77.9929 49.4737 78.0132 49.4385 78.0406C49.4033 78.0681 49.3738 78.1022 49.3517 78.1411C49.3297 78.1799 49.3155 78.2228 49.31 78.2671C49.3045 78.3115 49.3077 78.3564 49.3196 78.3995C49.3315 78.4426 49.3518 78.4829 49.3792 78.5182C49.4067 78.5534 49.4408 78.5829 49.4797 78.6049C49.5186 78.627 49.5614 78.6412 49.6057 78.6467C49.6501 78.6522 49.6951 78.6489 49.7381 78.637C51.0761 78.313 52.4121 77.977 53.7481 77.647C53.8351 77.623 53.909 77.5654 53.9536 77.487C53.9981 77.4085 54.0096 77.3155 53.9856 77.2285C53.9616 77.1415 53.9041 77.0676 53.8256 77.0231C53.7471 76.9786 53.6541 76.967 53.5671 76.991V76.991Z"></path><path fill="#000000" d="M141.22 99.059C141.546 99.349 142.028 98.871 141.701 98.578C138.748 95.932 136.496 92.5971 135.143 88.87C134.996 88.461 134.343 88.637 134.487 89.051C135.862 92.8963 138.176 96.3368 141.22 99.059V99.059Z"></path><path fill="#000000" d="M143.057 97.222C143.383 97.513 143.865 97.034 143.538 96.742C140.581 94.1 138.327 90.7638 136.979 87.034C136.832 86.625 136.179 86.801 136.323 87.214C137.698 91.0595 140.013 94.5 143.057 97.222V97.222Z"></path><path fill="#000000" d="M118.03 143.531C119.91 142.296 121.83 141.131 123.752 139.953C123.83 139.907 123.886 139.833 123.909 139.745C123.932 139.658 123.919 139.565 123.874 139.487C123.828 139.41 123.753 139.353 123.666 139.33C123.579 139.308 123.486 139.32 123.408 139.366C121.451 140.475 119.567 141.708 117.686 142.943C117.322 143.183 117.662 143.772 118.03 143.531Z"></path><path fill="#000000" d="M116.316 142.611C118.322 141.491 120.316 140.352 122.285 139.164C122.361 139.118 122.416 139.043 122.437 138.957C122.459 138.871 122.446 138.779 122.401 138.702C122.356 138.626 122.283 138.569 122.197 138.546C122.111 138.522 122.02 138.534 121.942 138.577C119.936 139.697 117.942 140.835 115.973 142.023C115.901 142.071 115.85 142.145 115.83 142.23C115.811 142.314 115.824 142.403 115.868 142.478C115.912 142.553 115.982 142.609 116.066 142.633C116.149 142.658 116.239 142.65 116.316 142.611V142.611Z"></path><path fill="#000000" d="M89.3581 131.813C89.0151 130.479 87.7581 128.997 86.2161 129.398C85.8788 129.481 85.5817 129.681 85.3774 129.961C85.1732 130.242 85.0749 130.587 85.1001 130.933C85.1951 131.977 86.4341 132.288 87.8001 133.333C88.1503 133.647 88.4793 133.984 88.7851 134.341C88.8491 134.404 88.9355 134.44 89.0256 134.44C89.1156 134.44 89.202 134.404 89.2661 134.341C89.8001 133.677 89.5521 132.567 89.3581 131.813Z"></path><path fill="#000000" d="M124.759 150.491C124.801 151.816 124.843 153.14 124.884 154.464C124.898 154.9 125.578 154.902 125.564 154.464L125.439 150.491C125.426 150.055 124.745 150.053 124.759 150.491Z"></path><path fill="#000000" d="M126.638 149.334C126.599 149.356 126.566 149.386 126.539 149.422C126.511 149.457 126.492 149.498 126.48 149.541C126.469 149.584 126.466 149.629 126.472 149.674C126.479 149.718 126.493 149.76 126.516 149.799C127.273 150.782 128.029 151.765 128.786 152.747C128.833 152.823 128.908 152.878 128.995 152.901C129.081 152.924 129.173 152.912 129.252 152.869C129.33 152.823 129.387 152.749 129.409 152.661C129.432 152.574 129.42 152.481 129.374 152.403L127.103 149.456C127.056 149.38 126.982 149.325 126.895 149.302C126.808 149.279 126.716 149.291 126.638 149.334Z"></path><path fill="#000000" d="M131.779 149.7C131.866 149.724 131.959 149.712 132.038 149.668C132.116 149.623 132.174 149.549 132.198 149.462C132.222 149.375 132.21 149.283 132.166 149.204C132.121 149.126 132.047 149.068 131.96 149.044C130.66 148.655 129.351 148.27 128.035 147.925C127.948 147.901 127.855 147.913 127.777 147.957C127.698 148.002 127.641 148.076 127.617 148.163C127.593 148.25 127.605 148.343 127.65 148.421C127.694 148.5 127.768 148.557 127.855 148.581C129.158 148.972 130.463 149.356 131.779 149.7Z"></path><path fill="#000000" d="M90.2441 137.57C90.0347 137.247 89.7551 136.975 89.4262 136.775C89.0972 136.575 88.7273 136.452 88.3441 136.415C86.6741 136.237 85.2391 137.615 83.8721 138.355C82.924 138.85 81.9091 139.204 80.8591 139.407C80.5591 139.481 80.5241 139.986 80.8401 140.057L80.8581 140.064C83.4891 140.49 86.1723 140.48 88.8001 140.035C89.1434 140.031 89.48 139.94 89.7781 139.77C90.0847 139.504 90.2961 139.145 90.3802 138.748C90.4644 138.351 90.4166 137.937 90.2441 137.57V137.57Z"></path><g><path fill="#000000" d="M104.357 88.262C104.303 87.834 103.622 87.829 103.677 88.262C103.773 89.1156 103.936 89.9603 104.166 90.788C104.19 90.875 104.247 90.9489 104.326 90.9936C104.404 91.0382 104.497 91.0499 104.584 91.026C104.671 91.0021 104.745 90.9447 104.79 90.8663C104.834 90.7879 104.846 90.695 104.822 90.608C104.614 89.8375 104.458 89.0537 104.357 88.262Z"></path><path fill="#000000" d="M100.963 90.569C100.655 90.257 100.174 90.738 100.482 91.05L101.806 92.391C102.114 92.703 102.595 92.222 102.288 91.91L100.963 90.569Z"></path><path fill="#000000" d="M110.75 125.81H107.8C107.713 125.815 107.631 125.853 107.571 125.916C107.511 125.979 107.478 126.063 107.478 126.15C107.478 126.238 107.511 126.322 107.571 126.385C107.631 126.448 107.713 126.486 107.8 126.491H110.754C110.841 126.486 110.923 126.448 110.983 126.385C111.043 126.322 111.077 126.238 111.077 126.15C111.077 126.063 111.043 125.979 110.983 125.916C110.923 125.853 110.841 125.815 110.754 125.81H110.75Z"></path><path fill="#000000" d="M35.5221 77.1C35.7892 78.0794 36.2751 78.9855 36.9431 79.75C39.4238 82.6184 42.8879 84.4551 46.6541 84.899C47.9397 85.0239 49.2346 84.7888 50.3941 84.22C50.447 84.1913 50.4911 84.1489 50.5218 84.0972C50.5525 84.0456 50.5687 83.9866 50.5687 83.9265C50.5687 83.8664 50.5525 83.8074 50.5218 83.7557C50.4911 83.7041 50.447 83.6617 50.3941 83.633C48.7751 82.854 36.6071 77.016 36.0211 76.716C35.9625 76.6845 35.8961 76.6705 35.8297 76.6759C35.7634 76.6813 35.7 76.7058 35.6473 76.7464C35.5946 76.787 35.5547 76.8419 35.5325 76.9047C35.5103 76.9674 35.5067 77.0352 35.5221 77.1ZM49.4051 83.91C45.2201 85.4 38.2201 81.631 36.4231 77.657L49.4051 83.91Z"></path><path fill="#000000" d="M15.8091 114.97C15.7952 114.911 15.7656 114.857 15.7235 114.814C15.6814 114.771 15.6284 114.74 15.57 114.725C15.5117 114.709 15.4503 114.71 15.3924 114.727C15.3344 114.744 15.2821 114.776 15.2411 114.82L5.09308 127.126C5.04793 127.174 5.01768 127.235 5.00595 127.3C4.99421 127.365 5.00149 127.432 5.0269 127.494C5.05231 127.555 5.09479 127.607 5.14926 127.645C5.20373 127.683 5.26789 127.704 5.33408 127.706C7.54108 127.729 9.65008 126.335 11.2511 124.944C13.215 123.306 14.7066 121.174 15.5721 118.767C16.0011 117.548 16.0831 116.233 15.8091 114.97V114.97ZM6.10308 126.97L15.2691 115.854C15.7151 120.25 10.4191 126.163 6.10008 126.966L6.10308 126.97Z"></path><path fill="#000000" d="M51.9151 101.5C50.3112 102.539 49.071 104.051 48.3671 105.828C48.2051 106.235 48.8671 106.411 49.0231 106.009C49.6781 104.403 50.8069 103.035 52.2591 102.087C52.6251 101.851 52.2851 101.262 51.9151 101.5Z"></path><path fill="#000000" d="M122.351 87.665C123.968 86.1208 125.821 84.8453 127.841 83.887C128.236 83.699 127.892 83.112 127.498 83.299C125.427 84.2858 123.527 85.5973 121.87 87.184C121.553 87.487 122.035 87.967 122.351 87.665Z"></path><path fill="#000000" d="M126.576 81.943C124.448 82.8657 122.531 84.2129 120.941 85.902C120.641 86.221 121.121 86.702 121.421 86.383C122.976 84.7414 124.847 83.4308 126.921 82.53C127.32 82.357 126.974 81.771 126.576 81.943Z"></path><path fill="#000000" d="M193.9 65.357C194.513 67.3393 194.456 69.4685 193.737 71.415C192.861 73.3961 191.534 75.1455 189.863 76.524C185.163 80.978 181.055 86.057 182.006 92.489C182.615 96.671 185.089 100.968 183.546 105.119C182.052 109.138 177.063 109.732 173.988 112.478C171.914 114.331 171.482 116.719 172.15 118.306C166.395 118.739 160.671 119.519 155.01 120.641C157.238 118.918 159.376 117.083 161.416 115.141C166.375 110.208 170.09 104.167 172.254 97.515C172.896 95.503 173.572 93.176 173.012 91.101C180.593 83.016 182.406 81.144 184.412 78.594C187.35 74.85 189.738 70.535 190.192 65.72C190.474 63.3968 190.129 61.0405 189.192 58.896C187.476 55.527 183.164 53.539 177.109 56.08C171.3 58.55 166.654 63.82 164 69.38C158.972 79.53 158.106 92.505 155.142 99.867C154.682 100.972 154.288 102.104 153.961 103.256C153.772 103.761 153.688 104.299 153.715 104.838C153.742 105.377 153.879 105.904 154.117 106.388C155.022 107.655 157.231 107.248 158.542 106.304C157.083 111.49 155.006 116.482 152.355 121.172C146.648 122.338 141.445 123.592 135.266 125.137C134.835 124.535 134.569 123.83 134.494 123.094C134.42 122.357 134.539 121.613 134.841 120.937C135.741 119.051 137.387 118.851 137.741 117.417C138.831 116.88 139.979 116.47 141.162 116.195C141.295 116.164 141.435 116.185 141.553 116.254C141.826 116.387 142.087 116.544 142.333 116.722C144.158 117.962 144.633 118.64 145.833 118.562C146.32 118.596 146.8 118.437 147.169 118.119C147.539 117.8 147.767 117.348 147.805 116.862C148.028 117.029 148.249 117.198 148.477 117.362C148.8 117.59 149.144 117.784 149.526 117.535C150.164 117.106 149.686 116.46 149.426 116.055C149.749 116.131 150.076 116.19 150.406 116.232C150.703 116.297 151.011 116.289 151.305 116.211C151.599 116.133 151.87 115.985 152.095 115.781C152.359 115.47 152.531 115.093 152.594 114.69C152.656 114.287 152.606 113.875 152.448 113.499C152.112 112.708 151.679 111.961 151.161 111.275C148.669 107.575 145.393 104.322 141.097 103.26L139.558 100.926C139.571 100.826 139.558 100.873 139.292 97.138C139.9 97.8162 140.545 98.4599 141.224 99.066C141.55 99.356 142.033 98.877 141.705 98.585C140.812 97.7819 139.981 96.9128 139.219 95.985C139.167 95.24 139.005 92.921 138.976 92.507C140.128 94.2502 141.501 95.8365 143.061 97.226C143.386 97.517 143.869 97.037 143.542 96.745C141.704 95.1037 140.13 93.1885 138.876 91.067C138.569 86.661 138.167 85.067 141.519 81.921C144.199 79.409 145.884 77.709 147.319 75.186C148.253 75.3554 149.215 75.2613 150.098 74.9142C150.982 74.5671 151.75 73.9808 152.319 73.221C154.594 70.176 153.982 65.316 149.087 62.221C148.682 61.9609 148.253 61.7405 147.806 61.563C146.748 56.73 147.077 53.891 150.712 50.488C152.684 48.6647 154.882 47.1025 157.253 45.84C157.638 45.632 157.295 45.04 156.91 45.253C154.971 46.2981 153.141 47.5335 151.446 48.941C146.933 52.69 145.863 55.57 147.061 61.329C146.352 61.1308 145.594 61.2021 144.935 61.5291C144.275 61.8561 143.76 62.4156 143.488 63.1C141.922 66.81 142.868 73.549 146.649 74.99C143.861 79.846 139.539 81.729 138.371 85.144C137.962 86.5984 137.868 88.1232 138.094 89.617C137.673 88.7789 137.303 87.9164 136.985 87.034C136.838 86.626 136.185 86.802 136.329 87.215C136.832 88.615 137.462 89.9665 138.209 91.253L138.475 95.038C137.066 93.1587 135.946 91.0803 135.149 88.871C135.002 88.462 134.349 88.638 134.493 89.052C135.43 91.6671 136.803 94.1046 138.554 96.261C138.602 96.926 138.791 99.577 138.805 99.776C138.317 99.038 128.973 84.931 128.973 84.931C128.926 84.8546 128.851 84.7994 128.764 84.7769C128.677 84.7544 128.585 84.7662 128.507 84.81C126.462 85.9387 124.519 87.2436 122.7 88.71C122.638 88.7746 122.603 88.8608 122.603 88.9505C122.603 89.0402 122.638 89.1264 122.7 89.191C126.263 93.791 130.344 98.806 134.351 103.402C131.305 104.033 124.122 105.985 121.133 106.816C120.274 102.215 118.915 97.7215 117.079 93.416C116.775 92.6782 116.256 92.0489 115.59 91.61C114.379 90.967 113.469 91.185 111.851 91.015C112.02 90.727 112.188 90.438 112.351 90.146C112.824 90.2616 113.319 90.2566 113.789 90.1314C114.26 90.0062 114.691 89.7648 115.045 89.4294C115.398 89.0939 115.661 88.6752 115.81 88.2116C115.959 87.748 115.989 87.2544 115.898 86.776C115.712 86.032 115.326 85.3534 114.781 84.814C115.091 83.9362 115.351 83.0418 115.561 82.135C115.884 81.0275 115.974 79.8648 115.823 78.721C115.593 77.6072 115.076 76.5729 114.323 75.721C113.738 75.0437 113.025 74.49 112.223 74.0923C111.422 73.6946 110.549 73.461 109.656 73.4051C108.763 73.3492 107.868 73.4722 107.023 73.7668C106.179 74.0615 105.401 74.5219 104.737 75.121C104.72 73.7363 104.523 72.3597 104.15 71.026C102.091 64.968 89.895 62.248 82.92 70.318C80.7961 72.792 79.191 75.6676 78.2 78.774C72.821 74.667 65.992 77.735 65.745 83.407C65.7212 84.6818 66.099 85.9318 66.825 86.98C65.6614 86.876 64.4887 87.009 63.378 87.371C62.3369 87.73 61.4791 88.4844 60.99 89.471C60.038 91.771 61.869 94.025 64.227 94.743C61.757 96.003 54.627 99.722 53.527 100.303C52.244 96.903 50.745 93.587 49.169 90.313C48.5877 88.7624 47.6669 87.3615 46.474 86.213C45.5968 85.5057 44.5007 85.126 43.374 85.139C40.79 85.151 39.128 87.332 38.11 89.46C35.3452 96.306 33.7947 103.582 33.528 110.96C28.58 113.605 23.693 116.374 18.651 118.835C18.133 119.073 17.6359 119.355 17.165 119.676C16.3832 120.263 15.8058 121.08 15.5146 122.013C15.2233 122.946 15.233 123.947 15.5421 124.874C15.8513 125.801 16.4443 126.608 17.2372 127.179C18.0301 127.751 18.9826 128.058 19.96 128.058C21.53 128.071 101.186 128.058 103.06 128.058C109.425 129.809 115.03 128.158 118.02 125.235C124.781 123.801 130.52 120.758 136.759 117.856C136.366 118.262 135.938 118.633 135.479 118.964C134.588 119.74 134.007 120.811 133.842 121.981C133.677 123.15 133.938 124.34 134.579 125.333C134.11 125.49 133.699 125.785 133.401 126.18C133.104 126.575 132.933 127.051 132.911 127.545C132.912 127.635 132.948 127.721 133.011 127.784C133.074 127.848 133.16 127.884 133.25 127.885H174.785C174.875 127.884 174.96 127.847 175.024 127.784C175.087 127.72 175.124 127.635 175.125 127.545C175.063 120.631 175.081 121.002 175.019 120.51C174.914 119.992 174.663 119.516 174.295 119.137C173.927 118.758 173.458 118.492 172.944 118.372C172.029 116.715 172.797 114.664 174.03 113.385C177.787 109.485 185.881 109.827 184.566 100.335C183.666 93.884 178.389 88.435 189.759 77.564C191.438 76.1758 192.859 74.5034 193.959 72.623C195.1 70.3095 195.315 67.6475 194.559 65.181C194.425 64.76 193.769 64.938 193.9 65.357ZM144 70.767C143.334 68.7054 143.247 66.5004 143.75 64.393C143.821 63.9072 144.003 63.4443 144.282 63.0401C144.56 62.6359 144.928 62.3012 145.357 62.062C147.957 61.284 151.304 64.504 152.38 66.809C152.712 67.5694 152.891 68.3879 152.906 69.2175C152.922 70.0472 152.774 70.8717 152.47 71.644C152.112 72.5199 151.501 73.269 150.714 73.7952C149.928 74.3213 149.002 74.6005 148.056 74.597C145.9 74.487 144.6 72.658 144 70.767ZM150.814 111.976C151.333 112.638 151.707 113.4 151.914 114.215C152.047 115.096 151.595 115.777 150.001 115.478C149.621 115.403 149.245 115.306 148.876 115.187C148.628 114.797 148.383 114.406 148.132 114.018C148.407 113.818 148.612 113.536 148.717 113.213C148.823 112.89 148.823 112.541 148.718 112.218C148.43 111.399 147.996 110.639 147.437 109.975C146.408 108.507 145.227 107.151 143.915 105.929C143.596 105.629 143.115 106.111 143.434 106.41C145.149 107.994 146.626 109.817 147.82 111.823C148.087 112.31 148.264 113.13 147.684 113.483C147.684 113.483 141.924 104.518 141.67 104.135C145.6 105.415 148.527 108.485 150.811 111.976H150.814ZM123.414 89.013C125.035 87.7212 126.759 86.5653 128.57 85.557C129.478 86.923 146.18 112.179 148.876 116.291C149.369 117.042 149.193 117.179 148.492 116.664C147.452 115.898 144.292 112.983 143.08 111.789C143.401 111.596 143.634 111.286 143.729 110.924C143.767 110.642 143.746 110.356 143.669 110.082C143.591 109.808 143.459 109.553 143.279 109.333C142.628 108.504 141.759 107.873 140.768 107.513C139.935 107.167 139.073 106.896 138.191 106.705C137.445 106.077 129.795 97.245 123.412 89.013H123.414ZM114.438 89.034C113.876 89.413 113.198 89.5787 112.524 89.5014C111.851 89.424 111.228 89.1085 110.767 88.612C110.455 88.221 110.267 87.7454 110.228 87.2466C110.189 86.7478 110.301 86.2488 110.548 85.8141C110.796 85.3794 111.169 85.029 111.618 84.8083C112.067 84.5875 112.571 84.5066 113.067 84.576C115.116 85.209 116.1 87.885 114.436 89.034H114.438ZM61.484 91.372C60.972 89.479 62.724 88.088 64.384 87.786C65.4283 87.6091 66.4921 87.5778 67.545 87.693C67.6116 87.6914 67.6763 87.6705 67.7312 87.6329C67.7861 87.5952 67.829 87.5424 67.8545 87.4809C67.88 87.4194 67.8871 87.3518 67.875 87.2863C67.8628 87.2208 67.8319 87.1602 67.786 87.112C66.9691 86.1963 66.4846 85.0321 66.4106 83.8073C66.3365 82.5824 66.6773 81.3684 67.378 80.361C68.1138 79.3411 69.1195 78.5466 70.2821 78.067C71.4447 77.5874 72.7181 77.4416 73.959 77.646C75.4997 77.8774 76.9409 78.5482 78.11 79.578C78.1765 79.6405 78.2649 79.6745 78.3562 79.6724C78.4475 79.6703 78.5343 79.6325 78.598 79.567C78.855 79.299 81.252 69.657 89.064 66.804C93.439 65.249 98.757 65.811 102.07 69.015C103.97 70.849 103.945 73.16 104.083 75.903C104.085 75.9694 104.106 76.0338 104.144 76.0884C104.182 76.1431 104.234 76.1857 104.296 76.2112C104.357 76.2366 104.424 76.2438 104.49 76.2319C104.555 76.22 104.616 76.1894 104.664 76.144C108.598 71.579 116.364 75.033 115.064 81.144C114.851 82.2289 114.565 83.298 114.207 84.344C114.011 84.2091 113.8 84.0971 113.579 84.01C112.787 83.7554 111.927 83.8256 111.187 84.2053C110.448 84.585 109.889 85.243 109.634 86.0345C109.38 86.826 109.45 87.6863 109.83 88.426C110.209 89.1658 110.867 89.7244 111.659 89.979C111.486 90.2857 111.309 90.59 111.128 90.892C110.56 90.7781 110.027 90.5302 109.574 90.169C109.334 89.9317 109.144 89.6482 109.016 89.3356C108.888 89.023 108.824 88.6877 108.829 88.35C108.829 85.784 109.114 85.287 108.814 83.566C108.777 83.1585 108.649 82.7645 108.44 82.413C108.23 82.0615 107.945 81.7615 107.604 81.535C106.304 80.856 105.269 81.991 104.593 83.171C104.578 82.7994 104.46 82.4392 104.253 82.1302C104.046 81.8212 103.758 81.5754 103.42 81.42C103.064 81.3051 102.68 81.3149 102.33 81.4478C101.981 81.5807 101.687 81.8287 101.497 82.151C100.887 83.007 100.453 83.9753 100.219 85C93.796 83.319 87.527 84.641 81.285 86.931C75.7421 89.0459 70.3366 91.5047 65.1 94.293C63.528 93.862 61.939 93.055 61.484 91.372ZM73.749 127.372C52.913 127.372 44.895 127.38 44.17 127.358C41.7465 127.219 39.4742 126.135 37.841 124.339C35.493 121.709 34.01 118.139 34.374 112.177C34.401 111.74 33.721 111.742 33.694 112.177C33.4286 115.183 33.8502 118.211 34.927 121.03C36.0491 123.867 38.2461 126.146 41.04 127.372H20.24C19.509 127.422 18.7783 127.27 18.1281 126.932C17.4779 126.595 16.9332 126.084 16.5539 125.458C16.1745 124.831 15.9752 124.111 15.9776 123.379C15.9801 122.646 16.1844 121.928 16.568 121.304C17.2205 120.383 18.1409 119.684 19.204 119.304C20.293 118.74 32.704 112.197 34.027 111.455C34.0788 111.425 34.1217 111.383 34.1514 111.331C34.1811 111.279 34.1965 111.221 34.196 111.161C34.3575 105.541 35.2912 99.969 36.971 94.603C37.942 91.326 39.357 86.64 42.527 85.903C43.5114 85.6835 44.542 85.8292 45.427 86.313C46.6408 87.131 47.5739 88.3021 48.1 89.668C53.491 100.752 52.758 101.307 53.449 101.101C53.549 101.07 64.735 95.207 68.463 93.351C72.138 100.618 73.474 109.164 73.883 117.329C74.0659 120.676 74.0211 124.033 73.749 127.374V127.372ZM75.593 127.372C75.227 127.372 74.841 127.342 74.468 127.353C75.302 116.72 74.055 102.821 69.087 93.039C76.087 89.577 84.938 85.547 92.361 84.992C94.9522 84.7853 97.5597 85.0107 100.077 85.659C99.984 86.1872 99.9382 86.7227 99.94 87.259C98.607 86.672 97.06 86.118 95.659 86.67C95.0522 86.8829 94.536 87.2959 94.195 87.8411C93.8541 88.3863 93.7088 89.0313 93.783 89.67C94.219 91.691 97.022 91.37 98.283 91.618C98.8676 91.7508 99.4165 92.0088 99.892 92.374C101.793 93.7572 103.26 95.6546 104.119 97.843C105.499 101.504 105.972 105.445 105.496 109.328C103.892 107.708 102.685 105.738 101.971 103.573C101.104 100.815 100.548 97.9692 100.312 95.088C100.277 94.655 99.597 94.651 99.632 95.088C99.8799 97.9197 100.414 100.719 101.226 103.443C99.321 104.075 87.451 108.073 86.415 108.398C85.1879 105.206 84.3674 101.872 83.973 98.475C83.928 98.044 83.248 98.04 83.293 98.475C84.669 110.66 91.85 121.735 97.847 125.659C98.8813 126.333 99.9788 126.904 101.124 127.365L75.593 127.372ZM100.185 126.216C97.2818 124.751 94.7757 122.606 92.88 119.964C90.2702 116.655 88.1731 112.972 86.659 109.039C89.414 108.166 86.139 109.198 101.445 104.094C102.256 106.464 103.655 108.59 105.51 110.273C105.682 110.415 106.039 110.401 106.079 110.123C106.633 106.414 106.356 102.627 105.269 99.038C104.023 94.859 101.049 91.894 99.035 91.123C97.399 90.496 94.856 91.281 94.435 89.462C94.4087 89.1478 94.4586 88.832 94.5804 88.5413C94.7023 88.2505 94.8925 87.9935 95.135 87.792C96.535 86.483 98.647 87.413 100.12 88.083C100.172 88.1118 100.23 88.1267 100.29 88.1263C100.349 88.1258 100.407 88.11 100.459 88.0805C100.51 88.0509 100.553 88.0085 100.583 87.9574C100.613 87.9063 100.63 87.8483 100.631 87.789C100.468 85.7856 101.08 83.796 102.341 82.231C102.455 82.136 102.591 82.0712 102.737 82.0425C102.883 82.0138 103.033 82.0222 103.175 82.0667C103.316 82.1113 103.444 82.1907 103.547 82.2977C103.65 82.4047 103.725 82.5358 103.764 82.679C103.972 83.2893 104.037 83.9395 103.954 84.579C103.922 84.994 104.489 84.995 104.622 84.669C104.976 83.798 106.122 81.282 107.422 82.225C108.422 82.95 108.317 85.225 108.204 86.456C108.082 87.782 107.916 89.528 108.975 90.556C110.091 91.448 111.503 91.8842 112.928 91.777C113.603 91.748 114.278 91.838 114.922 92.043C115.648 92.3894 116.21 93.007 116.486 93.763C119.1 99.652 121.414 108.431 121.118 115.311C121.051 117.341 120.637 119.344 119.893 121.233C116.928 128.592 107.194 129.675 100.185 126.218V126.216ZM118.815 124.359C122.373 120.002 122.187 113.098 121.246 107.479C122.746 107.054 132.362 104.479 134.859 103.991C135.131 104.3 137.086 106.501 137.181 106.604C135.414 106.204 133.64 105.839 131.86 105.51C131.432 105.432 131.248 106.087 131.679 106.166C138.231 107.375 139.685 107.516 141.74 108.786C143.34 109.8 144.187 111.35 140.625 111.563C138.08 111.716 135.525 111.621 132.998 111.281C132.911 111.259 132.819 111.272 132.741 111.316C132.663 111.36 132.605 111.432 132.579 111.518C132.555 111.605 132.567 111.698 132.611 111.776C132.655 111.854 132.729 111.912 132.816 111.936C135.985 112.372 139.195 112.428 142.378 112.103L142.412 112.092C143.892 113.579 145.452 114.984 147.084 116.303C147.183 116.562 147.184 116.847 147.088 117.107C146.991 117.366 146.803 117.581 146.559 117.712C146.102 117.921 145.583 117.952 145.104 117.797C144.11 117.31 142.379 115.636 141.354 115.497C138.493 115.522 128.258 122.144 118.815 124.361V124.359ZM155.538 106.467C155.351 106.455 155.17 106.398 155.01 106.301C154.85 106.204 154.715 106.071 154.617 105.911C154.436 105.528 154.367 105.102 154.417 104.682C154.677 102.2 155.617 100.945 156.475 98.093C158.939 89.923 159.93 81.269 163.037 73.257C165.91 65.468 172.287 57.298 180.358 55.785C181.43 55.5389 182.541 55.5124 183.624 55.7071C184.707 55.9018 185.739 56.3137 186.658 56.918C188.545 58.185 189.258 60.454 189.493 62.626C189.993 67.267 188.231 71.826 185.71 75.641C183.01 79.729 179.961 82.686 172.755 90.378C172.396 89.5604 171.74 88.9095 170.92 88.5568C170.1 88.2041 169.176 88.1759 168.336 88.478C166.046 89.146 164.693 91.421 163.622 93.383C161.695 97.1271 160.125 101.044 158.933 105.083C158.512 105.56 157.986 105.933 157.398 106.173C156.809 106.414 156.172 106.515 155.538 106.469V106.467ZM164.969 92.403C165.527 91.4145 166.268 90.5404 167.151 89.827C168.829 88.498 171.351 88.669 172.176 90.727C172.513 91.6504 172.616 92.643 172.476 93.616C172.349 94.6501 172.123 95.6695 171.8 96.66C169.809 103.155 166.314 109.089 161.6 113.981C158.085 117.607 156.5 118.407 153.7 120.9L153.247 120.991C159.248 110.409 159.637 101.179 164.969 92.405V92.403ZM174.38 120.827C174.39 120.95 174.441 127.098 174.442 127.198C174.442 127.198 134.079 127.171 133.651 127.183C133.735 126.874 133.9 126.594 134.128 126.369C134.551 126.033 135.058 125.82 135.594 125.753C147.739 122.73 159.794 119.853 172.194 118.98C172.727 118.943 173.254 119.116 173.662 119.461C174.07 119.806 174.328 120.297 174.38 120.829V120.827Z"></path><path fill="#000000" d="M152.454 85.155C154.394 85.278 155.598 82.41 156.145 80.539C156.442 79.7104 156.5 78.8151 156.314 77.955C156.127 77.0949 155.702 76.3046 155.088 75.674C154.821 75.3998 154.498 75.1861 154.141 75.0473C153.784 74.9084 153.401 74.8476 153.019 74.8689C152.636 74.8902 152.263 74.9932 151.924 75.1709C151.585 75.3485 151.287 75.5968 151.052 75.899C150.116 77.3325 149.653 79.0235 149.728 80.734C149.678 81.66 149.846 82.585 150.219 83.434C150.408 83.8913 150.714 84.2909 151.107 84.5929C151.499 84.8949 151.963 85.0887 152.454 85.155V85.155ZM150.409 80.734C150.395 79.4635 150.643 78.2038 151.139 77.034C151.359 76.4834 151.766 76.0276 152.288 75.746C154.027 74.837 156.011 76.916 155.694 79.346C155.558 80.3141 155.265 81.2537 154.828 82.128C154.536 82.9626 154.004 83.6929 153.3 84.228C151.865 85.128 150.224 83.287 150.409 80.734V80.734Z"></path><path fill="#000000" d="M164.967 58.6C163.448 59.92 163.261 62.818 165.295 63.006C167.211 63.182 168.795 59.863 167.43 58.523C167.077 58.2426 166.635 58.0965 166.184 58.1106C165.734 58.1246 165.302 58.2981 164.967 58.6V58.6ZM165.295 62.326C163.837 62.137 164.627 59.936 165.235 59.282C165.429 59.0502 165.695 58.89 165.991 58.827C166.287 58.7639 166.595 58.8016 166.867 58.934C167.772 59.582 167.028 62.263 165.3 62.325L165.295 62.326Z"></path><path fill="#000000" d="M182.391 70.751C182.609 70.7938 182.834 70.7779 183.043 70.705C183.252 70.6321 183.438 70.5047 183.582 70.336C183.949 69.9725 184.258 69.5558 184.5 69.1C184.735 68.7242 184.836 68.28 184.787 67.8396C184.738 67.3991 184.541 66.9883 184.228 66.674C183.974 66.4576 183.643 66.3512 183.31 66.3782C182.977 66.4052 182.669 66.5634 182.452 66.818C181.334 68.173 181.132 70.408 182.391 70.751ZM182.218 68.994C182.313 68.4266 182.527 67.8856 182.844 67.406C182.902 67.3131 182.978 67.2328 183.068 67.1696C183.157 67.1064 183.258 67.0617 183.365 67.038C183.509 67.0398 183.648 67.0849 183.765 67.1673C183.882 67.2498 183.972 67.3657 184.022 67.5C184.39 68.322 183.697 69.227 183.16 69.794C182.96 70.008 182.62 70.267 182.384 69.959C182.207 69.6704 182.148 69.325 182.218 68.994V68.994Z"></path><path fill="#000000" d="M148.61 92.577C148.215 92.6153 147.848 92.7939 147.574 93.0804C147.3 93.3669 147.138 93.7422 147.118 94.138C147.017 94.9408 147.164 95.7554 147.54 96.472C147.623 96.6407 147.745 96.7875 147.895 96.9006C148.045 97.0137 148.22 97.0899 148.405 97.123C148.621 97.1148 148.832 97.0514 149.017 96.9386C149.202 96.8259 149.355 96.6676 149.461 96.479C149.875 95.7689 150.031 94.9368 149.9 94.125C149.8 93.435 149.454 92.508 148.61 92.577ZM148.5 96.445C148.36 96.476 148.183 96.245 148.117 96.11C147.842 95.5765 147.722 94.9762 147.773 94.378C147.751 94.1266 147.82 93.8757 147.968 93.6712C148.116 93.4666 148.332 93.3221 148.578 93.264C148.653 93.2471 148.731 93.2544 148.801 93.2848C148.872 93.3151 148.931 93.367 148.97 93.433C149.673 94.582 149.009 96.39 148.5 96.445Z"></path><path fill="#000000" d="M167.639 111.345L165.661 114.932C165.45 115.316 166.037 115.659 166.248 115.276L168.226 111.689C168.437 111.305 167.85 110.961 167.639 111.345Z"></path><path fill="#000000" d="M165.526 97.766C166.013 96.7851 166.594 95.8535 167.26 94.984C167.526 94.637 166.936 94.298 166.673 94.641C166.007 95.5107 165.426 96.4423 164.938 97.423C164.744 97.814 165.331 98.158 165.526 97.766Z"></path><path fill="#000000" d="M174.309 83.736C175.009 82.4471 175.612 81.1081 176.114 79.73C176.264 79.318 175.606 79.141 175.457 79.549C174.975 80.8716 174.395 82.1565 173.722 83.393C173.513 83.777 174.1 84.121 174.309 83.736Z"></path><path fill="#000000" d="M172.932 73.084C173.584 72.0282 174.14 70.9161 174.593 69.761C174.753 69.354 174.093 69.177 173.937 69.58C173.502 70.6791 172.969 71.737 172.345 72.741C172.114 73.114 172.7 73.456 172.932 73.084Z"></path><path fill="#000000" d="M179.521 64.966C180.063 63.9962 180.712 63.0905 181.456 62.266C181.748 61.942 181.269 61.46 180.975 61.785C180.19 62.6521 179.506 63.6047 178.934 64.625C178.895 64.7024 178.887 64.7919 178.911 64.8751C178.936 64.9583 178.992 65.0289 179.067 65.0725C179.142 65.116 179.231 65.1293 179.315 65.1095C179.4 65.0897 179.473 65.0384 179.521 64.966Z"></path><path fill="#000000" d="M170.284 67.3C170.828 66.452 171.372 65.6047 171.917 64.758C172.155 64.389 171.566 64.048 171.33 64.415C170.786 65.2617 170.241 66.1087 169.696 66.956C169.459 67.327 170.047 67.669 170.284 67.3Z"></path><path fill="#000000" d="M174.586 99.639L173.166 102.521C172.973 102.913 173.56 103.258 173.753 102.865C174.227 101.904 174.7 100.943 175.173 99.983C175.366 99.591 174.78 99.246 174.586 99.639Z"></path><path fill="#000000" d="M116.044 133.591C115.441 133.834 114.862 134.133 114.314 134.484C113.735 134.838 113.145 135.175 112.567 135.533C109.01 138.046 105.187 140.158 101.167 141.833C100.92 141.933 100.8 142.308 101.086 142.455C101.086 142.455 113.222 148.755 114.486 149.355C114.721 149.467 114.927 149.338 115.151 149.246C125.393 145.036 127.165 140.309 132.445 140.328C133.145 140.328 133.97 140.341 134.68 140.407C135.095 140.445 135.094 139.871 134.77 139.739L119.915 133.676C118.681 133.166 117.3 133.136 116.044 133.591ZM132.192 139.648C127.079 139.704 124.483 144.748 114.698 148.693L102.057 142.186C108.711 139.41 110.192 137.586 115.472 134.598C116.116 134.234 116.834 134.021 117.573 133.974C118.311 133.927 119.05 134.047 119.735 134.326L132.773 139.647C132.579 139.648 132.385 139.642 132.192 139.648Z"></path><path fill="#000000" d="M124.532 130.626C123.148 130.988 121.955 131.866 121.198 133.079C121.176 133.166 121.189 133.258 121.233 133.336C121.277 133.414 121.35 133.472 121.436 133.498L135.895 139.198C135.953 139.215 136.015 139.216 136.073 139.2C136.131 139.185 136.184 139.153 136.226 139.11C137.554 137.763 139.148 136.708 140.906 136.01C142.103 135.673 143.336 135.485 144.579 135.449C147.463 135.327 150.351 135.357 153.231 135.539C153.631 135.563 153.672 134.986 153.321 134.871C139.395 130.303 140.114 130.504 139.944 130.527C133.588 130.856 130.075 128.9 124.532 130.626ZM133.9 130.956C135.911 131.223 137.942 131.308 139.968 131.21L150.744 134.744C148.761 134.674 146.774 134.666 144.795 134.762C143.485 134.79 142.182 134.97 140.913 135.299C139.036 135.989 137.328 137.071 135.902 138.474L122.021 133C122.672 132.234 123.525 131.666 124.483 131.361C127.51 130.257 130.774 130.569 133.9 130.956V130.956Z"></path><path fill="#000000" d="M100.844 143.907C115.373 151.855 114.491 151.435 114.671 151.364C117.429 150.443 120.077 149.22 122.566 147.717C125.338 145.977 128.004 143.699 131.382 142.817C133.26 142.426 135.163 142.169 137.077 142.046C137.477 141.878 138.596 138.902 142.654 138.257C143.779 138.078 144.915 137.976 146.054 137.951C150.865 137.739 151.31 138.102 153.332 137.681C153.758 137.581 153.58 136.94 153.151 137.025C151.963 137.231 150.754 137.289 149.551 137.197C148.396 137.138 147.251 137.218 146.098 137.269C143.816 137.369 141.37 137.48 139.384 138.745C138.329 139.436 137.435 140.347 136.763 141.414C135.137 141.492 133.517 141.685 131.918 141.991C130.399 142.324 128.939 142.882 127.585 143.646C123.177 146.096 122.401 147.898 114.607 150.664L101.186 143.321C100.8 143.109 100.459 143.7 100.844 143.907Z"></path><path fill="#000000" d="M100.764 145.656C115.064 153.307 114.626 153.133 114.864 153.098C123.32 151.067 125.986 146.37 131.464 144.956C134.464 144.247 137.383 144.238 137.649 143.923C139.17 142.123 140.555 140.937 142.884 140.555C147.816 139.831 150.075 140.697 153.321 139.874C153.408 139.85 153.482 139.792 153.527 139.714C153.571 139.635 153.583 139.543 153.559 139.456C153.535 139.369 153.477 139.295 153.399 139.25C153.32 139.206 153.227 139.194 153.14 139.218C150.658 139.886 148.681 139.357 144.691 139.655C142.99 139.685 141.323 140.134 139.837 140.962C138.847 141.645 137.96 142.467 137.204 143.402C135.492 143.627 133.756 143.79 132.062 144.124C125.45 145.514 123.338 150.424 114.819 152.408C113.504 151.708 102.462 145.794 101.107 145.069C100.721 144.862 100.377 145.45 100.764 145.656Z"></path><path fill="#000000" d="M46.9081 72.973C46.8415 74.189 46.7748 75.405 46.7081 76.621C46.6841 77.059 47.3641 77.057 47.3881 76.621C47.4548 75.405 47.5215 74.189 47.5881 72.973C47.6121 72.536 46.9321 72.537 46.9081 72.973Z"></path><path fill="#000000" d="M49.1581 76.8L53.6811 73.156C54.0211 72.881 53.5381 72.403 53.2001 72.675L48.6771 76.319C48.3351 76.6 48.8201 77.075 49.1581 76.8Z"></path><path fill="#000000" d="M53.9711 77.221C53.9454 77.1395 53.89 77.0706 53.8159 77.0281C53.7419 76.9855 53.6545 76.9722 53.5711 76.991L49.5621 77.981C49.4751 78.0049 49.4012 78.0623 49.3566 78.1407C49.3119 78.2191 49.3003 78.312 49.3241 78.399C49.348 78.486 49.4055 78.5599 49.4838 78.6045C49.5622 78.6492 49.6551 78.6609 49.7421 78.637L53.7521 77.647C53.8376 77.6195 53.9087 77.5592 53.9498 77.4793C53.9908 77.3994 53.9985 77.3065 53.9711 77.221V77.221Z"></path><path fill="#000000" d="M118.03 143.531C119.911 142.296 121.819 141.103 123.752 139.953C123.828 139.905 123.882 139.828 123.902 139.74C123.922 139.652 123.906 139.559 123.858 139.483C123.813 139.41 123.74 139.357 123.657 139.335C123.573 139.313 123.485 139.324 123.409 139.366C121.452 140.476 119.567 141.708 117.686 142.943C117.322 143.183 117.663 143.772 118.03 143.531Z"></path><path fill="#000000" d="M115.867 142.493C115.913 142.566 115.985 142.619 116.068 142.641C116.152 142.662 116.24 142.652 116.316 142.611C118.306 141.462 120.316 140.351 122.285 139.164C122.323 139.14 122.356 139.11 122.382 139.073C122.408 139.037 122.427 138.995 122.437 138.952C122.447 138.908 122.448 138.863 122.44 138.819C122.433 138.775 122.416 138.733 122.392 138.695C122.346 138.622 122.274 138.569 122.19 138.547C122.107 138.525 122.018 138.536 121.942 138.577C119.952 139.726 117.942 140.834 115.973 142.023C115.935 142.047 115.902 142.078 115.876 142.114C115.85 142.151 115.832 142.192 115.822 142.236C115.812 142.28 115.811 142.325 115.819 142.369C115.826 142.413 115.843 142.455 115.867 142.493V142.493Z"></path><path fill="#000000" d="M74.2181 137.528C74.1539 137.553 74.0985 137.596 74.0588 137.652C74.0192 137.709 73.997 137.775 73.9951 137.844C74.0221 145.084 80.7511 151.461 87.6751 149.138C89.9611 148.259 91.9286 146.711 93.3203 144.696C94.7119 142.681 95.463 140.293 95.4751 137.844C95.4736 137.792 95.4603 137.742 95.4362 137.696C95.4121 137.65 95.3779 137.61 95.3361 137.58C94.6821 137.267 94.0072 137 93.3161 136.78C87.0823 134.621 80.264 134.888 74.2181 137.528V137.528ZM88.2071 148.2C81.9071 151 75.1201 145.479 74.6991 138.358C77.881 139.676 81.2914 140.355 84.7356 140.355C88.1798 140.355 91.5902 139.676 94.7721 138.358C94.6615 140.437 93.9937 142.447 92.8386 144.179C91.6835 145.91 90.0838 147.299 88.2071 148.2V148.2ZM82.6901 139.6C83.9905 139.084 85.2267 138.419 86.3741 137.618C86.7327 137.363 87.1474 137.197 87.5834 137.135C88.0193 137.073 88.4637 137.117 88.8791 137.263C89.0852 137.315 89.2727 137.424 89.4206 137.576C89.5684 137.729 89.6708 137.92 89.7161 138.128C89.7615 138.336 89.7481 138.552 89.6775 138.752C89.6068 138.953 89.4817 139.13 89.3161 139.263C87.131 139.659 84.9041 139.772 82.6901 139.6V139.6ZM94.2641 137.845C92.971 138.342 91.6431 138.743 90.2911 139.045C90.9021 137.903 89.8801 136.745 88.7451 136.471C87.0941 136.026 85.4831 137.345 84.1721 138.151C83.1593 138.727 82.0638 139.143 80.9241 139.385C78.9734 139.07 77.0608 138.553 75.2171 137.842C81.33 135.392 88.1522 135.393 94.2641 137.846V137.845Z"></path><path fill="#000000" d="M70.1481 139C70.8438 138.541 71.6626 138.303 72.4961 138.32C72.5746 138.3 72.6432 138.252 72.6894 138.185C72.7356 138.119 72.7564 138.038 72.7479 137.957C72.7394 137.877 72.7023 137.802 72.6432 137.746C72.5841 137.691 72.5071 137.658 72.4261 137.655C69.1071 137.633 67.9011 140.365 69.0401 141.89C69.5813 142.527 70.3239 142.959 71.1447 143.115C71.9654 143.271 72.8149 143.142 73.5521 142.749C73.9081 142.57 73.6521 142.074 73.3111 142.134C72.5684 142.492 71.7227 142.573 70.9251 142.365C70.5468 142.285 70.1975 142.103 69.9154 141.839C69.6333 141.574 69.4291 141.237 69.3251 140.865C69.2865 140.509 69.3422 140.15 69.4867 139.822C69.6312 139.495 69.8593 139.211 70.1481 139Z"></path><path fill="#000000" d="M86.6341 132.552C87.4608 133.003 88.1915 133.612 88.7851 134.343C88.8491 134.406 88.9355 134.442 89.0255 134.442C89.1156 134.442 89.202 134.406 89.266 134.343C89.801 133.677 89.5461 132.569 89.3581 131.813C89.0051 130.482 87.7581 128.989 86.2161 129.398C85.8783 129.48 85.5808 129.68 85.3764 129.961C85.172 130.242 85.0741 130.586 85.1 130.933C85.172 131.728 86.0221 132.179 86.6341 132.552ZM85.7731 130.721C85.9341 129.527 88.1831 129.821 88.7031 131.994C88.8251 132.472 88.8899 132.963 88.8961 133.456C87.5611 131.97 85.6601 131.559 85.7731 130.721Z"></path><path fill="#000000" d="M77.1852 141.122C77.0032 140.722 76.4172 141.07 76.5972 141.465C76.9541 142.246 77.3897 142.988 77.8972 143.68C78.1532 144.029 78.7442 143.69 78.4842 143.336C77.9769 142.644 77.5416 141.902 77.1852 141.122V141.122Z"></path><path fill="#000000" d="M124.759 150.491C124.801 151.815 124.843 153.139 124.884 154.464C124.898 154.9 125.578 154.902 125.564 154.464L125.439 150.491C125.426 150.055 124.745 150.053 124.759 150.491Z"></path><path fill="#000000" d="M126.638 149.334C126.599 149.356 126.566 149.386 126.539 149.422C126.511 149.457 126.492 149.498 126.48 149.541C126.469 149.584 126.466 149.629 126.472 149.674C126.479 149.718 126.493 149.76 126.516 149.799L128.787 152.747C128.834 152.823 128.908 152.878 128.995 152.901C129.081 152.923 129.173 152.912 129.251 152.869C129.29 152.847 129.323 152.817 129.351 152.781C129.378 152.746 129.397 152.705 129.409 152.662C129.42 152.619 129.423 152.574 129.417 152.529C129.41 152.485 129.396 152.443 129.373 152.404C128.617 151.421 127.86 150.438 127.103 149.456C127.056 149.38 126.982 149.325 126.895 149.302C126.808 149.279 126.716 149.291 126.638 149.334Z"></path><path fill="#000000" d="M174.611 128.811H133.25C133.16 128.811 133.073 128.847 133.01 128.911C132.946 128.974 132.91 129.061 132.91 129.151C132.91 129.241 132.946 129.328 133.01 129.391C133.073 129.455 133.16 129.491 133.25 129.491H174.611C174.701 129.491 174.788 129.455 174.852 129.391C174.915 129.328 174.951 129.241 174.951 129.151C174.951 129.061 174.915 128.974 174.852 128.911C174.788 128.847 174.701 128.811 174.611 128.811Z"></path><path fill="#000000" d="M132.189 149.45C132.209 149.366 132.197 149.278 132.154 149.202C132.112 149.127 132.042 149.071 131.96 149.045C130.652 148.672 129.352 148.271 128.035 147.926C127.948 147.902 127.855 147.914 127.777 147.958C127.698 148.003 127.641 148.076 127.617 148.163C127.593 148.25 127.604 148.343 127.649 148.422C127.693 148.5 127.767 148.558 127.854 148.582L131.779 149.701C131.867 149.722 131.959 149.707 132.036 149.66C132.113 149.613 132.168 149.538 132.189 149.45V149.45Z"></path></g></svg>