<svg xmlns="http://www.w3.org/2000/svg" fill="none" viewBox="0 0 200 197" height="400" width="400"><g id="listening-to-feedback-usability-testing-1--customer-service-support-listening-to-feedback-usability-testing-1"><g id="color"><g id="group"><path id="vector" fill="#000000" d="M72.916 97.9504C72.908 97.8654 72.868 97.7863 72.8039 97.7288C72.7398 97.6713 72.6562 97.6394 72.5695 97.6394C72.4828 97.6394 72.3992 97.6713 72.3351 97.7288C72.271 97.7863 72.2311 97.8654 72.223 97.9504C72.2516 100.603 72.5912 103.244 73.235 105.821C73.2562 105.904 73.3102 105.976 73.3852 106.02C73.4601 106.064 73.5498 106.077 73.6345 106.056C73.7193 106.036 73.7921 105.982 73.837 105.909C73.8819 105.835 73.8952 105.746 73.874 105.663C73.238 103.14 72.9162 100.55 72.916 97.9504V97.9504Z"></path><path id="vector_2" fill="#000000" d="M38.453 106.24C38.293 105.874 37.707 106.188 37.867 106.555C38.187 107.29 38.56 107.972 38.879 108.707C39.039 109.074 39.625 108.759 39.465 108.391C39.146 107.661 38.826 106.971 38.453 106.24Z"></path><path id="vector_3" fill="#000000" d="M57.735 106.24C57.575 105.874 56.989 106.188 57.149 106.555C57.469 107.29 57.842 107.972 58.161 108.707C58.321 109.074 58.907 108.759 58.747 108.391C58.428 107.661 58.108 106.971 57.735 106.24Z"></path><path id="vector_4" fill="#000000" d="M53 110.543C51.048 112.044 47.207 111.99 45 110.979C44.467 110.736 44.1 110.969 44.509 111.662C45.653 113.577 46.967 115.027 49.276 114.897C51.331 114.782 52.995 112.785 53.484 110.859C53.634 110.49 53.263 110.336 53 110.543Z"></path><path id="vector_5" fill="#000000" d="M55.338 134.1C54.7967 133.207 53.9569 132.527 52.9627 132.177C51.9684 131.827 50.8815 131.828 49.8882 132.181C48.8948 132.533 48.0568 133.215 47.5176 134.109C46.9785 135.004 46.7718 136.055 46.933 137.082C43.776 137.627 40.161 138.539 35.896 135.622C34.9588 134.929 34.0854 134.157 33.286 133.313C29.641 129.605 28.686 124.983 27.96 120.039C27.5519 116.924 27.3205 113.789 27.267 110.648C27.2604 110.562 27.221 110.482 27.1569 110.423C27.0927 110.365 27.0085 110.332 26.921 110.332C26.8335 110.332 26.7493 110.365 26.6851 110.423C26.621 110.482 26.5816 110.562 26.575 110.648C26.706 117.604 27.509 127.919 32.115 133.106C32.906 133.418 35.549 137.798 41.542 138.3C43.4126 138.356 45.2823 138.16 47.099 137.718C47.3199 138.366 47.6801 138.96 48.1552 139.459C48.6303 139.958 49.2091 140.35 49.852 140.609C50.7352 140.923 51.6954 140.962 52.6015 140.719C53.5077 140.476 54.3158 139.964 54.9157 139.252C55.5156 138.54 55.878 137.664 55.9536 136.742C56.0291 135.82 55.8142 134.897 55.338 134.1V134.1Z"></path><path id="vector_6" fill="#000000" d="M177 154.299C172.12 152.617 164.216 151.292 159.369 152.883C159.399 152.999 159.689 154.797 159.689 154.982H176.947C177.316 154.982 177.369 154.457 177 154.299Z"></path><path id="vector_7" fill="#000000" d="M161.869 113.166C161.762 113.061 161.709 112.956 161.602 112.851C160.886 112.106 159.949 111.603 158.925 111.414C157.901 111.226 156.843 111.361 155.902 111.801C156.152 111.197 156.313 110.562 156.381 109.913C156.807 106.351 153.434 103.942 150.575 105.506C150.618 104.432 150.417 103.362 149.987 102.374C149.557 101.385 148.909 100.504 148.09 99.7933C143.623 96.3133 138.746 97.1525 132.732 98.9472C133.618 95.2387 128.48 94.1089 126.766 96.2197C126.526 96.4116 126.344 96.6649 126.241 96.9518C126.138 97.2386 126.117 97.548 126.18 97.846C126.525 97.4644 126.976 97.1913 127.478 97.0607C127.979 96.93 128.509 96.9475 129 97.1111C129.405 97.2542 129.766 97.4954 130.052 97.8124C130.337 98.1294 130.536 98.512 130.632 98.9249C130.727 99.3379 130.716 99.7679 130.598 100.175C130.481 100.583 130.261 100.954 129.959 101.256C130.065 101.414 130.122 101.568 130.225 101.729C131.523 103.952 133.374 105.811 135.605 107.133C135.825 106.991 136.056 106.868 136.297 106.765C140.72 104.544 145.697 105.155 149.56 109.756C152.329 113.051 153.801 116.906 154.993 120.985C155.283 121.976 155.425 122.686 155.846 124.342C156.005 124.29 156.165 124.29 156.325 124.237C156.815 124.091 157.295 123.916 157.763 123.713C161.22 122.061 162.954 119.316 163.196 117.05C163.172 115.651 162.709 114.294 161.869 113.166V113.166Z"></path><path id="vector_8" fill="#000000" d="M116.22 88.8747C112.397 91.4849 110.05 95.9578 111.267 100.365C111.278 100.406 111.296 100.445 111.322 100.479C111.348 100.513 111.38 100.542 111.417 100.564C111.454 100.586 111.495 100.601 111.538 100.607C111.581 100.613 111.625 100.611 111.667 100.601C111.708 100.59 111.748 100.572 111.783 100.547C111.817 100.521 111.847 100.489 111.869 100.453C111.891 100.416 111.906 100.376 111.912 100.334C111.919 100.291 111.917 100.248 111.906 100.207C111.558 98.656 111.594 97.045 112.012 95.5107C112.43 93.9763 113.216 92.5636 114.306 91.3923C114.975 90.6648 115.726 90.0139 116.543 89.4519C116.911 89.1869 116.6 88.6176 116.22 88.8747Z"></path><path id="vector_9" fill="#000000" d="M117.339 90.9204C115.925 91.9227 114.842 93.3134 114.227 94.9185C113.611 96.5237 113.489 98.2721 113.877 99.945C113.898 100.028 113.952 100.1 114.027 100.144C114.102 100.189 114.192 100.202 114.277 100.181C114.361 100.16 114.434 100.107 114.479 100.033C114.524 99.9592 114.537 99.8709 114.516 99.7874C114.165 98.2543 114.276 96.6537 114.834 95.1815C115.392 93.7093 116.374 92.4292 117.659 91.4976C118.031 91.2878 117.712 90.7106 117.339 90.9204Z"></path><path id="vector_10" fill="#000000" d="M118.351 93.8066C117.61 94.5564 117.075 95.4793 116.795 96.4887C116.515 97.4981 116.5 98.561 116.751 99.5777C116.772 99.6612 116.826 99.7329 116.901 99.7771C116.976 99.8214 117.066 99.8345 117.15 99.8136C117.235 99.7927 117.308 99.7395 117.353 99.6657C117.398 99.5919 117.411 99.5035 117.39 99.4201C117.168 98.5214 117.183 97.5816 117.435 96.6906C117.687 95.7995 118.166 94.9869 118.828 94.3306C119.156 94.0223 118.671 93.5436 118.351 93.8066Z"></path><path id="vector_11" fill="#000000" d="M111.746 71.4027C110.918 70.196 110.449 68.785 110.392 67.3294C110.336 65.8738 110.694 64.4317 111.426 63.1661C111.641 62.7997 111.054 62.4845 110.841 62.8509C110.054 64.2221 109.668 65.7808 109.724 67.3548C109.78 68.9288 110.277 70.4569 111.16 71.7701C111.426 72.0853 112.012 71.7179 111.746 71.4027Z"></path><path id="vector_12" fill="#000000" d="M113.664 69.8819C113.134 69.1144 112.833 68.2158 112.795 67.2883C112.758 66.3608 112.985 65.4415 113.451 64.6348C113.665 64.2683 113.078 63.9531 112.865 64.3196C112.348 65.2328 112.094 66.2681 112.132 67.3132C112.169 68.3583 112.497 69.3733 113.078 70.2483C113.344 70.5635 113.927 70.2512 113.664 69.8819Z"></path><path id="vector_13" fill="#000000" d="M131.028 58.9159C130.065 56.2564 127.628 53.9909 126.607 53.722C125.702 53.3546 124.367 53.8796 124.476 54.9808C124.595 56.1756 126.338 56.7262 130.495 59.3355C130.523 59.3571 130.554 59.373 130.588 59.3822C130.622 59.3913 130.658 59.3935 130.693 59.3886C130.728 59.3837 130.761 59.3718 130.792 59.3537C130.822 59.3356 130.848 59.3116 130.868 59.2833C130.904 59.2711 130.937 59.2516 130.966 59.226C130.994 59.2004 131.016 59.1693 131.031 59.1347C131.046 59.1 131.054 59.0626 131.053 59.0249C131.053 58.9872 131.044 58.9501 131.028 58.9159V58.9159Z"></path><path id="vector_14" fill="#000000" d="M156.382 76.5976C157.089 77.743 157.532 79.0276 157.68 80.3603C157.827 81.6931 157.675 83.0415 157.235 84.3101C157.079 84.7307 157.714 84.8873 157.874 84.4667C158.372 83.117 158.55 81.6726 158.393 80.2447C158.236 78.8168 157.748 77.4434 156.968 76.2301C156.759 75.912 156.163 76.2331 156.382 76.5976Z"></path><path id="vector_15" fill="#000000" d="M153.879 77.6988C154.546 78.4495 154.976 79.3749 155.118 80.3624C155.26 81.3498 155.108 82.3566 154.679 83.2601C154.466 83.6275 155.054 83.9959 155.265 83.5753C155.759 82.5454 155.936 81.3957 155.775 80.2678C155.614 79.1398 155.122 78.0828 154.359 77.227C154.092 76.8596 153.613 77.3314 153.879 77.6988Z"></path><path id="vector_16" fill="#000000" d="M159.312 74.4464C159.043 74.1332 158.565 74.604 158.833 74.9182C161.899 78.5194 162.133 83.0455 160.484 85.9886C160.276 86.359 160.858 86.7234 161.07 86.3038C162.001 84.3779 162.331 82.2231 162.018 80.1123C161.705 78.0015 160.763 76.0296 159.312 74.4464V74.4464Z"></path><path id="vector_17" fill="#000000" d="M150.715 79.4196C150.338 79.0649 149.859 78.8341 149.343 78.7589C148.827 78.6838 148.3 78.768 147.835 79C146.304 79.7781 146.258 81.8397 147.035 81.4625C147.835 81.0764 150.495 79.9416 150.607 79.9416C150.651 79.916 150.689 79.8817 150.718 79.8408C150.748 79.7999 150.768 79.7534 150.778 79.7042C150.789 79.655 150.788 79.6043 150.777 79.5553C150.766 79.5063 150.745 79.46 150.715 79.4196V79.4196Z"></path></g></g><g id="line"><g id="group_2"><path id="vector_18" fill="#000000" d="M72.223 97.9504C72.2516 100.603 72.5912 103.244 73.235 105.821C73.2562 105.904 73.3102 105.976 73.3851 106.02C73.46 106.064 73.5497 106.077 73.6345 106.057C73.7192 106.036 73.7921 105.982 73.837 105.909C73.8819 105.835 73.8952 105.746 73.874 105.663C73.2378 103.158 72.9161 100.586 72.916 98.0036C72.862 97.5308 72.219 97.5308 72.223 97.9504Z"></path><path id="vector_19" fill="#000000" d="M38.453 106.24C38.293 105.874 37.707 106.188 37.867 106.555C38.187 107.29 38.56 107.972 38.879 108.707C39.039 109.074 39.625 108.759 39.465 108.391C39.146 107.661 38.826 106.971 38.453 106.24Z"></path><path id="vector_20" fill="#000000" d="M57.735 106.24C57.575 105.874 56.989 106.188 57.149 106.555C57.469 107.29 57.842 107.972 58.161 108.707C58.321 109.074 58.907 108.759 58.747 108.391C58.428 107.661 58.108 106.971 57.735 106.24Z"></path><path id="vector_21" fill="#000000" d="M53 110.543C51.037 112.052 47.174 111.974 45.024 110.993C44.465 110.738 44.144 111.211 44.371 111.435C44.9159 112.563 45.7415 113.538 46.771 114.268C49.612 116.034 52.701 113.935 53.482 110.858C53.634 110.49 53.263 110.336 53 110.543ZM45.862 112.379C45.752 112.224 45.649 112.065 45.542 111.907C47.8669 112.664 50.3956 112.532 52.627 111.539C50.874 115.125 47.609 114.857 45.857 112.379H45.862Z"></path><path id="vector_22" fill="#000000" d="M48.787 73.0822C48.344 74.1657 47.852 75.2807 47.434 76.3573C46.748 75.3723 45.167 73.1324 45.058 72.9768C44.798 72.6054 44.206 72.9768 44.472 73.292L46.872 76.7543C47.292 77.3748 47.544 77.7393 47.887 76.9069C48.387 75.6846 48.932 74.4622 49.429 73.2398C49.586 72.8192 48.956 72.6655 48.787 73.0822Z"></path><path id="vector_23" fill="#000000" d="M50.5439 132.054C49.4094 132.294 48.4077 132.945 47.7368 133.878C47.066 134.811 46.7748 135.957 46.921 137.091C43.757 137.628 40.178 138.55 35.896 135.622C34.6033 134.652 33.4243 133.543 32.381 132.316C29.535 128.688 28.7139 125.147 27.9599 120.039C27.5518 116.924 27.3205 113.789 27.267 110.648C27.2603 110.562 27.221 110.482 27.1568 110.423C27.0927 110.365 27.0084 110.332 26.9209 110.332C26.8335 110.332 26.7492 110.365 26.6851 110.423C26.6209 110.482 26.5816 110.562 26.575 110.648C26.6091 113.49 26.8047 116.327 27.1609 119.148C28.0419 126.212 29.4369 131.424 34.7249 135.516C40.4249 140.069 46.172 137.739 47.076 137.721C47.2968 138.386 47.6653 138.995 48.1546 139.503C48.6439 140.011 49.2418 140.406 49.9049 140.658C50.5655 140.893 51.2725 140.975 51.9704 140.896C52.6683 140.817 53.3383 140.58 53.9277 140.204C54.5171 139.827 55.0099 139.322 55.3676 138.726C55.7253 138.131 55.9382 137.462 55.9894 136.771C56.0407 136.081 55.929 135.389 55.663 134.748C55.3971 134.108 54.9843 133.537 54.4567 133.08C53.9292 132.623 53.3015 132.293 52.6226 132.115C51.9438 131.937 51.2323 131.916 50.5439 132.054V132.054ZM54.7519 138.402C54.3248 139.102 53.6824 139.649 52.9181 139.965C52.1538 140.281 51.3072 140.348 50.5012 140.158C49.6952 139.968 48.9717 139.53 48.4356 138.907C47.8995 138.285 47.5787 137.51 47.5197 136.696C47.4608 135.881 47.6668 135.07 48.1077 134.378C48.5487 133.687 49.2018 133.152 49.9723 132.851C50.7427 132.551 51.5905 132.499 52.3926 132.705C53.1946 132.911 53.9093 133.363 54.4329 133.995C54.9401 134.608 55.2429 135.361 55.3 136.149C55.3571 136.938 55.1657 137.725 54.7519 138.402V138.402Z"></path><path id="vector_24" fill="#000000" d="M148.286 89.7139C148.331 89.2933 147.637 89.2933 147.594 89.7139C147.295 93.1234 147.384 96.5551 147.86 99.9451L148.66 100.733C148.139 97.0834 148.014 93.3896 148.286 89.7139Z"></path><path id="vector_25" fill="#000000" d="M177 154.35C172.081 152.653 164.183 151.352 159.369 152.932C159.423 153.142 159.423 153.353 159.476 153.615C163.576 152.201 169.233 152.972 173.431 153.982C173.857 154.087 174.231 154.193 174.656 154.298H159.561L159.632 154.979H176.889C176.965 154.977 177.038 154.949 177.096 154.899C177.154 154.85 177.192 154.783 177.205 154.709C177.218 154.635 177.205 154.559 177.168 154.493C177.13 154.428 177.071 154.377 177 154.35V154.35Z"></path><path id="vector_26" fill="#000000" d="M156.382 76.5976C157.089 77.743 157.532 79.0276 157.68 80.3603C157.827 81.6931 157.675 83.0415 157.235 84.3101C157.079 84.7307 157.714 84.8873 157.874 84.4667C158.372 83.117 158.55 81.6726 158.393 80.2447C158.236 78.8168 157.748 77.4434 156.968 76.2301C156.759 75.912 156.163 76.2331 156.382 76.5976Z"></path><path id="vector_27" fill="#000000" d="M153.879 77.6988C154.546 78.4495 154.976 79.3749 155.118 80.3624C155.26 81.3498 155.108 82.3566 154.679 83.2601C154.466 83.6275 155.054 83.9959 155.265 83.5753C155.759 82.5454 155.936 81.3957 155.775 80.2678C155.614 79.1398 155.122 78.0828 154.359 77.227C154.092 76.8596 153.613 77.3314 153.879 77.6988Z"></path><path id="vector_28" fill="#000000" d="M159.312 74.4464C159.043 74.1332 158.565 74.604 158.833 74.9182C161.899 78.5194 162.133 83.0455 160.484 85.9886C160.276 86.359 160.858 86.7234 161.07 86.3038C162.001 84.3779 162.331 82.2231 162.018 80.1123C161.705 78.0015 160.763 76.0296 159.312 74.4464V74.4464Z"></path><path id="vector_29" fill="#000000" d="M151.117 80.1406C150.992 79.8563 150.809 79.6003 150.579 79.3887C150.35 79.1771 150.078 79.0144 149.782 78.9107C149.485 78.807 149.17 78.7646 148.857 78.7861C148.543 78.8075 148.237 78.8924 147.958 79.0354C147.478 79.2707 147.094 79.6608 146.87 80.1409C146.646 80.621 146.596 81.1621 146.727 81.6742C146.859 82.1864 147.165 82.6387 147.594 82.9559C148.023 83.2731 148.549 83.4361 149.085 83.4177C149.465 83.3912 149.834 83.2755 150.16 83.0802C150.486 82.8849 150.76 82.6157 150.959 82.2951C151.157 81.9744 151.275 81.6115 151.303 81.2368C151.331 80.862 151.267 80.4862 151.117 80.1406V80.1406ZM149.769 79.6126C148.917 79.9791 148.118 80.2943 147.319 80.6617C147.387 80.4183 147.509 80.1929 147.677 80.0022C147.845 79.8115 148.054 79.6603 148.289 79.5596C148.524 79.459 148.779 79.4115 149.035 79.4207C149.291 79.4299 149.542 79.4955 149.769 79.6126ZM149.618 82.5785C149.39 82.672 149.145 82.7149 148.899 82.7041C148.652 82.6934 148.412 82.6293 148.193 82.5165C147.975 82.4036 147.785 82.2447 147.636 82.0511C147.488 81.8575 147.384 81.634 147.333 81.3965C148.333 80.9335 149.379 80.51 150.382 80.0874C150.533 80.2912 150.633 80.5266 150.676 80.7752C150.719 81.0237 150.703 81.2787 150.629 81.52C150.554 81.7613 150.425 81.9825 150.249 82.1661C150.074 82.3498 149.858 82.4909 149.618 82.5785V82.5785Z"></path><path id="vector_30" fill="#000000" d="M174.6 128.486V125.81C174.593 125.724 174.554 125.644 174.49 125.585C174.426 125.527 174.341 125.494 174.254 125.494C174.166 125.494 174.082 125.527 174.018 125.585C173.954 125.644 173.915 125.724 173.908 125.81V128.486C173.915 128.572 173.954 128.653 174.018 128.711C174.082 128.77 174.166 128.802 174.254 128.802C174.341 128.802 174.426 128.77 174.49 128.711C174.554 128.653 174.593 128.572 174.6 128.486V128.486Z"></path><path id="vector_31" fill="#000000" d="M163.094 109.231C163.894 108.969 164.745 108.759 165.544 108.497C165.97 108.391 165.757 107.709 165.384 107.867C164.584 108.129 163.733 108.339 162.934 108.601C162.892 108.612 162.853 108.63 162.818 108.655C162.783 108.681 162.754 108.713 162.732 108.749C162.709 108.786 162.695 108.826 162.688 108.868C162.682 108.91 162.684 108.953 162.695 108.995C162.705 109.036 162.724 109.075 162.749 109.109C162.775 109.143 162.808 109.172 162.845 109.194C162.882 109.216 162.923 109.231 162.966 109.237C163.008 109.243 163.052 109.241 163.094 109.231V109.231Z"></path><path id="vector_32" fill="#000000" d="M186.9 85.5168C183.863 80.4933 178.538 69.9804 178.538 69.8819C178.492 69.8166 178.423 69.7699 178.345 69.7505C178.267 69.7311 178.184 69.7404 178.112 69.7765C178.058 69.7765 178.005 69.8287 177.952 69.8819C175.858 73.0231 173.687 76.1563 170.476 80.9011C169.956 79.4916 167.896 79.1931 166.233 82.0013C164.071 85.5059 162.556 89.36 161.759 93.385C158.644 88.4885 156.343 84.3545 150.52 84.9918C149.002 85.1648 147.572 85.7867 146.42 86.7756C145.482 87.6689 144.739 88.7415 144.236 89.9276C143.259 92.0946 142.917 94.17 143.936 98.043C144.202 98.0952 144.468 98.2006 144.681 98.2528C144.092 96.3935 143.905 94.4332 144.133 92.4985C144.728 89.4538 146.795 86.2171 150.259 85.7305C155.714 84.8342 157.746 88.4994 160.752 93.0757C160.992 93.5012 161.338 93.9385 161.599 94.366C161.441 95.6012 161.186 97.2284 161.077 98.5188C159.469 94.3794 156.98 90.6272 153.777 87.5144C153.746 87.4812 153.709 87.4546 153.667 87.4361C153.625 87.4176 153.58 87.4075 153.535 87.4066C153.489 87.4056 153.443 87.4138 153.401 87.4306C153.359 87.4474 153.32 87.4725 153.288 87.5043C153.255 87.5361 153.23 87.5741 153.213 87.6159C153.196 87.6576 153.188 87.7024 153.189 87.7474C153.19 87.7924 153.2 87.8368 153.218 87.8778C153.237 87.9188 153.264 87.9557 153.298 87.9862C156.748 91.4041 159.37 95.5457 160.968 100.102C161.073 100.513 161.607 100.299 161.607 99.9973C161.707 98.4045 161.952 96.4818 162.207 94.8556H173.235C172.909 97.3487 172.285 99.7952 171.378 102.145C169.739 106.294 167.778 109.208 163.368 110.174C161.721 110.515 160.026 110.568 158.361 110.332C157.669 110.227 156.976 110.07 156.284 109.912C156.271 110.142 156.235 110.371 156.177 110.594C161.099 111.893 165.277 110.808 167.603 109.005C168.452 111.525 169.624 113.929 171.092 116.156C178.428 128.007 177.874 127.801 174.917 150.576C174.451 150.529 159.272 147.937 158.617 147.83C159.66 143.57 160.412 139.245 160.866 134.886C161.13 131.754 160.366 130.829 157.476 123.361C157.273 123.471 157.058 123.559 156.836 123.624C157.209 124.568 157.616 125.709 157.989 126.6C158.482 127.874 159.878 130.961 160.067 132.634C160.447 136.751 159.014 142.595 158.149 146.643C158.249 147.348 158.469 148.139 158.469 148.479C162.783 149.214 173.809 151.05 175.034 151.26C175.295 151.345 175.498 151.025 175.534 150.731C176.846 140.151 177.518 136.653 177.591 132.267C177.591 120.683 171.176 117.822 168.208 108.495C169.688 107.013 170.841 105.245 171.592 103.303C173.424 99.0447 174.29 94.4435 174.129 89.8212C174.122 89.4016 174.075 88.9298 174.075 88.5102H174.288C176.33 88.3942 178.343 87.9693 180.254 87.2504C181.161 87.038 182.007 86.6224 182.725 86.0359H186.646C186.707 86.0362 186.767 86.0193 186.819 85.9874C186.871 85.9554 186.913 85.9096 186.939 85.8553C186.966 85.801 186.976 85.7404 186.969 85.6804C186.962 85.6205 186.938 85.5638 186.9 85.5168ZM182.426 85.044C182.291 85.9738 180.504 86.4348 179.603 86.7756C175.797 88.1546 173.145 87.5764 173.371 88.2443C173.522 90.2372 173.486 92.2397 173.264 94.2262H162.295C163.084 89.8454 164.691 85.6468 167.035 81.8437C168.202 80.1072 169.45 80.1761 169.805 81.0045C170.417 82.4328 168.9 83.733 168.314 84.8342C168.207 85.044 168.314 85.3651 168.58 85.3592C173.226 85.2607 177.445 82.3008 178.541 81.7915C180.064 81.0833 181.025 82.1461 180.618 82.7883C180.19 83.2817 179.687 83.7065 179.127 84.0472C178.559 84.3954 177.951 84.677 177.316 84.8864C176.887 85.0361 177.103 85.6744 177.475 85.5168C178.221 85.2538 178.967 84.9918 179.766 84.782C180.709 84.516 181.566 84.0698 181.95 84.2048C182.122 84.2608 182.266 84.3779 182.354 84.5331C182.443 84.6883 182.47 84.8705 182.429 85.044H182.426ZM183.053 85.3592C183.161 85.0589 183.157 84.7307 183.042 84.433C182.927 84.1352 182.709 83.8872 182.426 83.733C182.405 83.7127 182.38 83.6974 182.352 83.6882C182.324 83.679 182.295 83.6761 182.266 83.6798C181.891 83.6061 181.502 83.6428 181.148 83.7852C180.987 83.8344 180.775 83.8896 180.615 83.9428C180.722 83.8374 180.881 83.733 180.988 83.6276C181.212 83.4429 181.377 83.1986 181.463 82.9239C181.55 82.6491 181.554 82.3557 181.475 82.0787C181.396 81.8018 181.238 81.5531 181.019 81.3626C180.801 81.172 180.531 81.0477 180.242 81.0045C178.496 80.5022 177.242 82.3224 172.998 83.8896C171.796 84.3239 170.544 84.6063 169.27 84.7298C169.763 83.9792 170.659 82.8415 170.654 81.8733L178.221 70.7231C179.466 73.2979 183.314 80.7986 186.051 85.3612L183.053 85.3592Z"></path><path id="vector_33" fill="#000000" d="M138.485 132.106H140.669C140.756 132.1 140.838 132.061 140.897 131.998C140.957 131.935 140.99 131.852 140.99 131.766C140.99 131.679 140.957 131.596 140.897 131.533C140.838 131.47 140.756 131.431 140.669 131.425H138.485C138.393 131.425 138.305 131.461 138.24 131.525C138.175 131.588 138.139 131.675 138.139 131.766C138.139 131.856 138.175 131.943 138.24 132.006C138.305 132.07 138.393 132.106 138.485 132.106Z"></path><path id="vector_34" fill="#000000" d="M116.22 88.8747C112.397 91.4849 110.05 95.9578 111.267 100.365C111.277 100.406 111.296 100.445 111.322 100.479C111.348 100.513 111.38 100.542 111.417 100.564C111.454 100.586 111.495 100.601 111.538 100.607C111.581 100.613 111.625 100.611 111.666 100.601C111.708 100.59 111.748 100.572 111.783 100.547C111.817 100.521 111.847 100.489 111.869 100.453C111.891 100.416 111.906 100.376 111.912 100.334C111.919 100.291 111.916 100.248 111.906 100.207C111.558 98.656 111.594 97.045 112.012 95.5107C112.429 93.9763 113.216 92.5636 114.306 91.3923C114.975 90.6648 115.726 90.0139 116.543 89.4519C116.911 89.1869 116.6 88.6176 116.22 88.8747Z"></path><path id="vector_35" fill="#000000" d="M117.339 90.9204C115.925 91.9227 114.842 93.3134 114.226 94.9185C113.611 96.5237 113.489 98.2721 113.877 99.945C113.898 100.028 113.952 100.1 114.027 100.144C114.102 100.189 114.192 100.202 114.276 100.181C114.361 100.16 114.434 100.107 114.479 100.033C114.524 99.9592 114.537 99.8709 114.516 99.7874C114.165 98.2543 114.276 96.6537 114.834 95.1815C115.392 93.7093 116.374 92.4292 117.659 91.4976C118.031 91.2878 117.712 90.7106 117.339 90.9204Z"></path><path id="vector_36" fill="#000000" d="M118.351 93.8066C117.61 94.5564 117.075 95.4793 116.795 96.4887C116.515 97.4981 116.5 98.561 116.751 99.5777C116.772 99.6612 116.826 99.7329 116.901 99.7771C116.976 99.8214 117.066 99.8345 117.15 99.8136C117.235 99.7927 117.308 99.7395 117.353 99.6657C117.398 99.5919 117.411 99.5035 117.39 99.4201C117.168 98.5214 117.183 97.5816 117.435 96.6906C117.687 95.7995 118.166 94.9869 118.828 94.3306C119.156 94.0223 118.671 93.5436 118.351 93.8066Z"></path><path id="vector_37" fill="#000000" d="M161.815 113.219C161.709 113.114 161.656 113.009 161.549 112.904C160.833 112.158 159.896 111.655 158.872 111.466C157.848 111.278 156.79 111.414 155.849 111.855C156.098 111.25 156.259 110.614 156.328 109.965C156.754 106.405 153.38 103.994 150.522 105.559C150.537 104.358 150.248 103.173 149.681 102.11C149.113 101.047 148.286 100.141 147.273 99.4723C143.073 96.4385 137.664 97.5121 132.678 99.0004C133.197 96.8275 131.622 95.3333 129.478 95.223C127.189 95.1038 125.885 96.9753 126.027 97.7062C125.681 98.1 125.467 98.5899 125.416 99.1083C125.364 99.6267 125.477 100.148 125.738 100.601C126 101.053 126.398 101.415 126.877 101.636C127.356 101.856 127.892 101.926 128.413 101.833C128.925 101.726 129.396 101.48 129.773 101.122C131.131 103.545 133.102 105.581 135.495 107.032C134.813 107.435 134.181 107.915 133.614 108.464C132.689 106.641 131.368 105.04 129.745 103.776C129.265 103.329 128.647 103.055 127.99 102.998C127.332 102.941 126.675 103.104 126.123 103.461C124.951 101.73 121.702 97.1122 121.329 96.535C121.297 96.4877 121.253 96.4489 121.202 96.4221C121.151 96.3952 121.094 96.3812 121.036 96.3812C120.978 96.3812 120.921 96.3952 120.87 96.4221C120.819 96.4489 120.775 96.4877 120.743 96.535C119.731 98.0046 115.921 103.528 115.028 104.773H114.028C113.698 104.75 113.37 104.837 113.097 105.02C112.823 105.202 112.619 105.469 112.517 105.779C112.415 106.089 112.422 106.423 112.536 106.729C112.649 107.035 112.863 107.295 113.144 107.467C111.857 109.248 110.728 110.804 110.673 110.859C110.513 111.069 110.62 111.436 110.886 111.436H114.999C114.099 112.078 113.578 112.695 113.762 113.692C113.838 113.993 113.983 114.272 114.186 114.509C114.389 114.746 114.645 114.933 114.934 115.056C116.467 115.487 119.845 113.654 121.113 112.8C120.078 114.672 118.797 115.191 118.713 116.315C118.701 116.56 118.738 116.805 118.823 117.035C118.907 117.266 119.038 117.478 119.206 117.658C119.375 117.839 119.578 117.985 119.804 118.088C120.03 118.19 120.275 118.248 120.524 118.256C121.062 118.26 121.592 118.134 122.069 117.889C122.556 117.659 123.004 117.359 123.4 116.997C124.118 116.341 124.729 115.58 125.211 114.741C125.219 117.026 125.415 119.308 125.797 121.562C126.135 123.795 126.983 125.924 128.276 127.788C128.225 128.3 128.093 129.871 127.768 134.993C127.774 135.075 127.809 135.152 127.868 135.21C127.927 135.267 128.005 135.302 128.088 135.308H129.579C129.579 135.337 128.94 154.462 128.94 156.819C128.94 157.239 129.579 157.239 129.632 156.819C129.632 155.74 130.297 135.718 130.277 135.308H132.936C132.936 135.362 133.574 156.651 133.574 156.819C133.581 156.905 133.62 156.985 133.684 157.044C133.748 157.102 133.832 157.135 133.92 157.135C134.007 157.135 134.092 157.102 134.156 157.044C134.22 156.985 134.259 156.905 134.266 156.819C134.266 155.932 133.634 136.297 133.628 135.308H155.45C155.492 135.556 159.365 156.852 159.365 156.924C159.418 157.344 160.111 157.186 160.004 156.767C159.932 156.373 159.525 154.2 159.525 153.829C159.525 153.73 156.125 135.739 156.117 135.287C156.381 135.277 156.491 135.257 156.64 135.257C156.74 135.257 157.021 135.089 157.021 134.888C156.968 133.891 156.915 132.842 156.808 131.845C156.508 128.728 155.721 124.621 155.608 124.178C158.225 123.57 160.494 121.971 161.922 119.726C163.455 117.157 163.194 114.831 161.815 113.219ZM128.684 101.103C128.314 101.235 127.912 101.252 127.532 101.15C127.153 101.048 126.814 100.833 126.564 100.534C126.313 100.236 126.162 99.8679 126.132 99.4816C126.101 99.0952 126.193 98.709 126.394 98.376C126.604 98.0236 126.925 97.749 127.309 97.5947C127.693 97.4405 128.118 97.4151 128.518 97.5225C128.918 97.6299 129.271 97.8641 129.523 98.189C129.774 98.5138 129.91 98.9111 129.909 99.3196C129.907 99.7023 129.789 100.076 129.571 100.392C129.353 100.709 129.044 100.955 128.684 101.098V101.103ZM121.014 97.2737C122.273 99.1659 128.081 107.508 128.152 107.609C128.205 107.715 128.312 107.819 128.365 107.925C123.819 106.612 120.734 105.287 115.847 104.829C115.762 104.822 120.86 97.4717 121.014 97.2688V97.2737ZM111.64 110.705C112.012 110.233 112.332 109.761 112.652 109.289C112.924 108.886 113.41 108.254 113.745 107.783C115.483 108.747 118.299 108.975 118.457 109.131C118.706 109.376 116.594 110.548 116.274 110.707C116.062 110.819 116.878 110.7 111.64 110.7V110.705ZM125.808 113.486C125.805 113.413 125.778 113.343 125.732 113.286C125.685 113.229 125.621 113.189 125.549 113.171C125.476 113.153 125.401 113.159 125.332 113.187C125.264 113.216 125.206 113.265 125.169 113.328C124.263 115.06 123.038 117.159 120.961 117.631C120.215 117.788 119.203 117.211 119.361 116.372C119.468 115.795 120.107 115.27 120.48 114.85C121.273 114.026 121.873 113.041 122.237 111.964C122.352 111.6 121.918 111.44 121.651 111.65C120.268 112.725 117.126 114.483 115.419 114.483C115.216 114.475 115.019 114.412 114.85 114.301C114.681 114.19 114.546 114.035 114.461 113.853C113.816 112.584 115.882 111.618 117.23 110.915C117.816 110.6 119.521 109.761 119.041 108.869C118.829 108.451 118.428 108.507 117.341 108.292C115.984 108.089 114.681 107.625 113.506 106.928C113.379 106.851 113.275 106.742 113.207 106.611C113.139 106.481 113.108 106.334 113.119 106.188C113.13 106.041 113.182 105.9 113.269 105.781C113.356 105.662 113.475 105.568 113.612 105.511C113.955 105.399 114.319 105.363 114.678 105.406C119.403 105.406 124.237 107.502 129.006 108.764C129.272 108.816 129.534 108.505 129.379 108.292C128.39 106.928 126.468 104.026 126.449 103.989C128.26 102.677 130.497 105.092 131.51 106.403C132.24 107.397 132.881 108.452 133.427 109.555C133.704 110.074 135.927 114.539 136.783 116.323C133.583 119.103 130.444 121.937 127.408 124.875C125.945 121.087 125.808 117.511 125.808 113.481V113.486ZM156.223 134.63H128.471C128.563 133.274 128.852 129.834 128.931 128.742C129.787 130.139 131.008 131.284 132.466 132.059C134.312 133.018 136.348 133.573 138.432 133.685C139.318 133.764 140.209 133.764 141.095 133.685C143.089 133.493 144.997 132.786 146.624 131.634C148.252 130.482 149.542 128.928 150.363 127.127C151.938 123.429 150.963 118.235 149.618 114.483C149.466 114.06 148.818 114.273 148.978 114.64C150.178 118.186 151.148 122.21 150.15 125.815C149.565 127.637 148.479 129.263 147.012 130.514C145.545 131.764 143.755 132.589 141.841 132.898C139.066 133.306 136.232 132.961 133.641 131.901C130.944 130.525 128.876 128.195 127.852 125.379C129.373 123.883 135.488 118.385 137.094 116.957C137.745 118.338 138.321 119.752 138.82 121.192C138.98 121.508 139.566 121.508 139.513 121.087L139.193 116.523C139.185 116.438 139.145 116.359 139.081 116.301C139.017 116.244 138.933 116.212 138.846 116.212C138.76 116.212 138.676 116.244 138.612 116.301C138.548 116.359 138.508 116.438 138.5 116.523L138.66 118.887C137.243 115.496 135.569 112.135 134.12 109.346C134.081 109.268 134.011 109.183 133.943 109.05C135.245 107.812 136.846 106.921 138.595 106.461C140.189 106.015 141.876 106.01 143.472 106.444C145.069 106.878 146.514 107.736 147.65 108.923C153.6 114.565 155.726 126.474 156.223 134.625V134.63ZM161.815 118.418C161.202 119.682 160.314 120.797 159.214 121.685C158.114 122.573 156.829 123.211 155.451 123.555C154.796 120.584 153.842 117.686 152.601 114.902C148.336 105.712 141.817 103.837 136.17 106.67C133.641 105.213 131.573 103.092 130.197 100.545C130.462 100.084 130.572 99.5517 130.51 99.0252C130.449 98.4987 130.219 98.0051 129.853 97.6159C129.488 97.2267 129.007 96.9619 128.479 96.8599C127.951 96.7578 127.403 96.8238 126.916 97.0482C127.281 95.8662 129.916 95.1767 131.446 96.6177C131.796 96.9346 132.025 97.3604 132.095 97.8238C132.164 98.2872 132.069 98.76 131.827 99.163C131.721 99.425 131.88 99.7392 132.2 99.6348C135.449 98.6902 138.805 97.7456 142.214 98.113C146.536 98.6143 150.473 102.208 149.724 106.19C149.708 106.262 149.716 106.338 149.748 106.405C149.779 106.472 149.831 106.528 149.897 106.563C149.963 106.599 150.039 106.612 150.113 106.602C150.188 106.591 150.257 106.557 150.31 106.505C151.883 104.665 155.91 105.878 155.637 109.705C155.566 110.667 155.274 111.6 154.784 112.434C154.625 112.696 154.948 113.123 155.264 112.906C159.1 110.283 163.809 113.951 161.815 118.413V118.418Z"></path><path id="vector_38" fill="#000000" d="M149.784 83.1696C149.578 83.2469 149.364 83.2998 149.145 83.3272C149.202 84.0058 149.245 84.6323 149.245 85.307L149.884 85.1494C149.884 84.52 149.837 83.799 149.784 83.1696Z"></path><path id="vector_39" fill="#000000" d="M130.5 59.3355C130.752 59.4941 131.151 59.169 130.98 58.9159C130.343 57.2857 129.321 55.8289 127.997 54.6666C127.598 54.2469 127.106 53.9237 126.559 53.722C125.653 53.3546 124.322 53.8796 124.428 54.9808C124.825 56.2997 126.266 56.6809 130.5 59.3355ZM126.4 54.2992C126.854 54.4815 127.256 54.7695 127.572 55.1384C128.518 55.9855 129.295 56.9999 129.862 58.1288C127.91 56.9055 128.682 57.5221 126.662 56.2406C126.236 56.0052 125.827 55.7419 125.437 55.4526C124.756 54.5612 125.537 54.0381 126.394 54.2992H126.4Z"></path><path id="vector_40" fill="#000000" d="M194.52 58.9159C192.01 55.5669 192.143 55.0547 190.52 52.8827C187.586 48.7335 183.722 45.3046 179.228 42.8613C176.489 41.484 173.537 40.5621 170.493 40.1329C162.799 39.0061 158.383 40.5367 153.882 42.162C146.788 44.7471 140.596 49.2808 136.038 55.2261C134.214 57.6974 133.524 58.1082 131.769 62.4313C130.979 64.3292 130.532 66.3488 130.45 68.3985C119.717 60.9361 116.209 58.2342 116.002 58.2342C115.951 58.2049 115.893 58.1885 115.834 58.1866C115.775 58.1846 115.717 58.1973 115.664 58.2233C115.611 58.2493 115.566 58.2879 115.532 58.3355C115.498 58.3832 115.477 58.4385 115.47 58.4963V78.3814C115.469 78.4428 115.485 78.5033 115.517 78.5558C115.549 78.6084 115.596 78.6509 115.652 78.6783C115.708 78.7058 115.77 78.7171 115.832 78.7109C115.894 78.7047 115.953 78.6813 116.002 78.6434C116.733 78.2839 117.462 77.948 118.192 77.5895C119.083 84.78 122.867 89.0697 127.135 90.6053C132.888 92.7309 139.701 89.1061 141.197 82.1057C141.656 79.869 141.993 77.6098 142.209 75.3378C142.209 72.9009 145.138 70.8255 146.896 72.5571C147.95 73.9361 148.691 78.0987 148.691 78.9212C148.904 78.9734 149.117 78.9734 149.383 79.0256C149.208 77.238 148.839 75.474 148.283 73.7638C148.141 73.2565 147.899 72.782 147.57 72.3678C147.24 71.9535 146.831 71.6077 146.365 71.3505C145.932 71.2193 145.476 71.1796 145.026 71.2339C144.576 71.2882 144.143 71.4354 143.755 71.6657C142.955 72.1283 142.322 72.8253 141.944 73.6593C140.244 72.5049 138.482 71.5081 136.724 70.5073C134.86 69.4573 133.049 68.3561 131.185 67.3071C131.579 64.711 132.42 62.2 133.671 59.8821C134.684 59.5981 135.746 59.5217 136.791 59.6576C138.428 59.9974 137.968 60.1826 139.991 60.1826C140.63 60.0772 141.482 59.7098 141.535 58.9228C141.589 58.1889 140.742 57.7063 140.15 57.4019C138.827 56.82 137.384 56.5502 135.937 56.6139C136.842 55.3131 137.839 54.0765 138.92 52.9133C144.202 47.2677 151.028 43.2461 158.577 41.3326C162.289 51.3048 162.906 52.2011 163.787 54.5563C163.84 54.7661 164 54.8183 164.213 54.7661C165.336 54.5764 166.469 54.4534 167.607 54.3977C168.82 55.9361 169.778 57.6542 170.445 59.4881C172.649 64.6858 173.842 70.2451 173.961 75.8766C174.12 75.6668 174.569 75.0423 174.622 74.9379C174.484 72.6585 174.209 70.3891 173.801 68.1414C172.677 62.2008 170.182 56.743 168.401 54.3415C172.861 54.2243 175.924 55.7205 178.378 59.7462C180.018 62.2855 179.404 62.9534 179.869 65.7803C179.883 66.0813 179.968 66.375 180.115 66.6388C180.263 66.9026 180.47 67.1296 180.721 67.3022C180.993 67.4464 181.299 67.5175 181.607 67.5081C181.916 67.4988 182.217 67.4094 182.479 67.249C183.761 66.4462 183.811 64.7589 183.811 63.2617C184.686 65.2021 184.62 66.6274 185.675 67.4066C185.84 67.5621 186.036 67.6811 186.252 67.7555C186.467 67.83 186.696 67.8583 186.923 67.8384C187.151 67.8185 187.371 67.751 187.57 67.6403C187.768 67.5297 187.941 67.3784 188.075 67.1968C188.333 66.7066 188.484 66.1693 188.521 65.6186C188.558 65.0678 188.478 64.5156 188.288 63.9965C188.182 63.6813 188.128 63.3671 188.022 63.0519C188.541 63.8037 189.129 64.5064 189.78 65.1509C189.987 65.3062 190.231 65.4074 190.489 65.4452C190.746 65.483 191.009 65.4561 191.254 65.3672C191.498 65.2782 191.715 65.1299 191.886 64.9361C192.057 64.7423 192.175 64.5093 192.23 64.2585C192.333 63.2489 192.047 62.2381 191.43 61.4256C193.506 63.8872 196.071 61.7517 194.52 58.9159ZM116.274 77.751V59.1257C116.38 59.2005 129.256 68.2024 131.241 69.7243C130.655 70.0917 130.123 70.4059 129.541 70.7733C128.711 69.6494 127.541 68.0852 126.132 67.9926C125.815 67.9515 125.495 68.0321 125.237 68.2177C124.979 68.4033 124.803 68.6797 124.747 68.9895C124.569 70.1281 125.82 71.6696 126.447 72.5571C125.7 72.9304 116.41 77.6624 116.274 77.751ZM130.282 71.0353C130.282 71.6125 130.229 72.2429 130.229 72.8191C130.156 72.2926 130.024 71.7756 129.835 71.2776C129.973 71.1783 130.123 71.0968 130.282 71.0353V71.0353ZM141.705 74.3203C141.389 76.767 141.144 79.2935 140.616 81.7393C139.028 88.7781 132.756 91.7991 127.616 90.0813C123.379 88.6619 119.7 84.5347 118.827 77.227C121.497 75.7653 125.027 74.013 127.083 72.8723C127.161 72.8236 127.216 72.7464 127.236 72.6577C127.256 72.5691 127.239 72.4762 127.19 72.3995C126.413 71.4954 125.801 70.4661 125.379 69.3569C125.156 68.4773 126.333 68.0764 127.563 69.4613C128.261 70.1284 128.836 70.9095 129.263 71.7701C129.639 73.1496 129.924 74.5516 130.116 75.9672C130.14 76.0414 130.19 76.1047 130.257 76.1454C130.324 76.1861 130.404 76.2016 130.482 76.1889C130.559 76.1761 130.63 76.1361 130.68 76.0762C130.73 76.0163 130.757 75.9405 130.755 75.8628C130.861 74.1312 130.915 72.3473 130.968 70.6157C131.287 70.4059 131.66 70.1961 131.98 69.9863C132.119 69.9863 132.192 69.4613 131.98 69.4613C131.954 69.4445 131.594 69.1943 131.069 68.8299C131.068 68.5663 131.086 68.303 131.123 68.0419C137.855 71.9563 139.622 72.8507 141.705 74.3203ZM139.191 57.8255C139.794 57.9717 140.335 58.3024 140.735 58.7701C141.055 59.2419 140.203 59.5039 139.83 59.6093C138.092 59.7807 137.137 58.5258 134.13 59.0843L135.249 57.3537C136.582 57.2443 137.923 57.4049 139.191 57.8255ZM193.029 61.8019C192.177 61.6443 191.629 60.7657 191.111 60.1225C190.45 59.3 189.673 58.5465 189.087 57.66C188.874 57.2926 188.287 57.6078 188.501 57.9742C189.16 58.9779 190.247 60.9046 190.901 62.1191C191.186 62.5313 191.385 62.9949 191.487 63.4833C191.62 64.5294 190.754 65.1026 189.996 64.4801C188.791 63.1209 187.704 61.6642 186.747 60.1254C186.703 60.0517 186.632 59.9977 186.548 59.9749C186.464 59.9521 186.375 59.9623 186.299 60.0032C186.223 60.0442 186.166 60.1128 186.14 60.1944C186.114 60.2761 186.122 60.3644 186.161 60.4406C187.067 62.4491 188.108 64.7293 187.599 66.3172C187.492 66.6836 187.279 67.051 186.853 67.051C185.075 67.051 185.372 63.9187 183.604 61.3853C183.564 61.3268 183.506 61.282 183.439 61.2568C183.372 61.2316 183.299 61.2273 183.229 61.2443C183.159 61.2614 183.097 61.2991 183.05 61.3523C183.002 61.4055 182.973 61.4716 182.965 61.5419C182.997 62.8805 183.47 65.5912 182.112 66.527C181.919 66.6675 181.686 66.7433 181.446 66.7433C181.207 66.7433 180.974 66.6675 180.781 66.527C180.096 65.8512 180.581 62.6855 179.716 60.6504C179.424 60.0486 179.086 59.4696 178.704 58.9188C177.598 57.1684 176.058 55.724 174.229 54.7217C170.971 53.061 167.587 53.5722 164.322 53.9869C160.349 44.5674 160.215 43.4366 159.208 41.0283C165.553 39.626 172.188 40.2885 178.118 42.9165C183.646 45.7161 188.247 50.0119 191.381 55.2989C192.232 56.8355 192.981 57.8333 193.831 59.1286C194.691 60.9716 193.878 61.9871 193.029 61.8019Z"></path><path id="vector_41" fill="#000000" d="M111.746 71.4027C110.918 70.196 110.449 68.785 110.392 67.3294C110.336 65.8738 110.694 64.4317 111.426 63.1661C111.641 62.7997 111.054 62.4845 110.841 62.8509C110.054 64.2221 109.668 65.7808 109.724 67.3548C109.78 68.9288 110.277 70.4569 111.16 71.7701C111.426 72.0853 112.012 71.7179 111.746 71.4027Z"></path><path id="vector_42" fill="#000000" d="M113.664 69.8819C113.134 69.1144 112.833 68.2158 112.795 67.2883C112.758 66.3608 112.985 65.4415 113.451 64.6348C113.665 64.2683 113.078 63.9531 112.865 64.3196C112.348 65.2328 112.094 66.2681 112.132 67.3132C112.169 68.3583 112.497 69.3733 113.078 70.2483C113.344 70.5635 113.927 70.2512 113.664 69.8819Z"></path><path id="vector_43" fill="#000000" d="M129.856 59.3354C129.368 59.1587 128.835 59.1399 128.336 59.2819C127.836 59.4239 127.396 59.7192 127.078 60.1248C126.761 60.5305 126.583 61.0253 126.571 61.5373C126.558 62.0494 126.712 62.5519 127.01 62.9718C127.308 63.3917 127.734 63.7071 128.226 63.8721C128.718 64.0371 129.251 64.043 129.747 63.8891C130.243 63.7352 130.676 63.4294 130.984 63.0163C131.291 62.6032 131.456 62.1042 131.456 61.5921C131.454 61.1003 131.3 60.6208 131.014 60.2176C130.728 59.8144 130.324 59.5067 129.856 59.3354V59.3354ZM127.672 62.6933C127.449 62.4177 127.316 62.0827 127.289 61.7316C127.262 61.3805 127.343 61.0296 127.521 60.7243C127.699 60.419 127.966 60.1734 128.288 60.0194C128.609 59.8653 128.97 59.81 129.324 59.8604C129.72 59.9402 130.077 60.1487 130.337 60.4524C130.598 60.7561 130.748 61.1374 130.762 61.5349C130.779 61.8955 130.68 62.2522 130.479 62.5541C130.278 62.856 129.985 63.0877 129.643 63.2161C129.3 63.3445 128.925 63.3631 128.571 63.2692C128.217 63.1753 127.903 62.9738 127.672 62.6933V62.6933Z"></path><path id="vector_44" fill="#000000" d="M130.176 77.3314V81.0045C130.183 81.0904 130.222 81.1707 130.286 81.2292C130.35 81.2878 130.434 81.3203 130.522 81.3203C130.609 81.3203 130.694 81.2878 130.758 81.2292C130.822 81.1707 130.861 81.0904 130.868 81.0045V77.3314C130.868 77.241 130.832 77.1543 130.767 77.0904C130.702 77.0265 130.614 76.9906 130.522 76.9906C130.43 76.9906 130.342 77.0265 130.277 77.0904C130.212 77.1543 130.176 77.241 130.176 77.3314V77.3314Z"></path><path id="vector_45" fill="#000000" d="M175.291 43.8582C174.339 43.475 173.376 43.1687 172.415 42.8092C171.99 42.6486 171.83 43.279 172.255 43.4386C173.216 43.8001 174.179 44.1044 175.132 44.4876C175.507 44.6393 175.667 44.0089 175.291 43.8582Z"></path><path id="vector_46" fill="#000000" d="M185.146 56.9222C184.988 56.5538 184.346 56.7114 184.506 57.0798C184.776 57.7082 185.036 58.3406 185.306 58.968C185.464 59.3364 186.106 59.1788 185.946 58.8114C185.675 58.183 185.415 57.5506 185.146 56.9222Z"></path><path id="vector_47" fill="#000000" d="M187.383 54.4568C187.221 54.0372 186.583 54.247 186.744 54.6134C187.008 55.3703 187.328 56.1071 187.702 56.8178C187.862 57.1842 188.453 56.868 188.288 56.5026C187.978 55.8161 187.646 55.1394 187.383 54.4568Z"></path><path id="vector_48" fill="#000000" d="M122.878 156.714C120.67 144.026 112.191 124.635 106.578 114.115V74.6561C106.577 74.5894 106.556 74.5244 106.517 74.4699C106.478 74.4155 106.422 74.3741 106.359 74.3513C106.295 74.3285 106.226 74.3254 106.16 74.3423C106.095 74.3593 106.036 74.3956 105.992 74.4463C101.944 77.6968 80.084 95.8267 79.081 96.6787C78.6065 95.185 77.6422 93.8887 76.3391 92.9931C75.036 92.0975 73.468 91.6532 71.881 91.7301C68.587 86.1008 64.11 81.361 57.948 79.1152C50.469 76.3858 40.591 77.3639 32.381 82.8927C26.362 86.9853 22.047 93.1239 19.281 99.682C17.0315 105.004 15.7164 110.663 15.392 116.419C14.461 126.881 14.592 138.602 14.592 145.293C12.6421 147.151 10.8097 149.125 9.10498 151.203C7.66698 152.987 6.33498 154.823 5.05698 156.713C5.02765 156.759 5.01151 156.813 5.01022 156.868C5.00892 156.923 5.02252 156.977 5.04962 157.025C5.07671 157.073 5.11633 157.113 5.16437 157.141C5.21242 157.169 5.26717 157.184 5.32298 157.184H122.559C122.613 157.176 122.664 157.158 122.709 157.129C122.755 157.101 122.794 157.063 122.824 157.018C122.854 156.974 122.875 156.924 122.884 156.872C122.893 156.819 122.891 156.765 122.878 156.714ZM106.047 126.073C106.098 126.103 106.156 126.119 106.215 126.121C106.274 126.123 106.333 126.11 106.385 126.084C106.438 126.058 106.484 126.019 106.517 125.971C106.551 125.923 106.572 125.868 106.579 125.81V115.566C108.823 119.211 113.988 131.239 114.679 133.047C114.679 133.047 92.201 132.995 91.295 133.047C90.1174 128.926 88.4737 124.949 86.395 121.189C84.872 118.19 81.624 111.403 80.627 108.536C80.637 108.405 80.642 108.272 80.642 108.137C82.076 109.319 83.328 110.27 84.158 110.854C84.2091 110.883 84.2667 110.899 84.3257 110.901C84.3848 110.903 84.4433 110.89 84.496 110.864C84.5488 110.838 84.5942 110.799 84.628 110.751C84.6619 110.704 84.6832 110.649 84.69 110.591C84.49 108.359 84.877 102.021 87.3 101.619C87.7726 101.574 88.2494 101.646 88.6863 101.829C89.1232 102.012 89.5062 102.301 89.8 102.669C90.483 103.539 90.9235 104.57 91.078 105.659C91.7567 109.026 91.954 112.47 91.664 115.89C91.6628 115.944 91.6772 115.998 91.7056 116.044C91.7339 116.09 91.7749 116.128 91.824 116.152C94.328 117.836 105.72 125.819 106.047 126.073ZM95.234 151.099C91.7198 146.384 87.475 142.242 82.655 138.825C82.496 135.428 81.916 127.978 80.955 120.984C79.991 114.223 79.184 111.907 79.41 111.907C79.8605 111.278 80.1922 110.574 80.389 109.828C82.779 115.943 85.509 120.689 87.879 125.81C90.12 130.617 91.26 135.007 95.234 151.099ZM105.887 75.3377V125.128C105.277 124.678 96.387 118.471 92.304 115.684C92.594 112.688 92.479 105.131 90.604 102.568C90.3058 102.135 89.9201 101.767 89.471 101.487C89.022 101.207 88.5191 101.022 87.994 100.942C85.41 100.624 84.58 103.437 84.212 105.978C83.9885 107.279 83.8994 108.599 83.946 109.918C81.151 107.883 75.746 103.097 74.038 101.841C83.06 94.2714 93.605 85.3177 105.887 75.3377ZM78.543 97.1377C77.277 98.2134 75.66 99.5884 73.289 101.57C73.2539 101.599 73.2257 101.635 73.2063 101.676C73.187 101.717 73.1769 101.761 73.1769 101.806C73.1769 101.851 73.187 101.896 73.2063 101.936C73.2257 101.977 73.2539 102.013 73.289 102.042C73.95 102.572 77.641 105.659 79.989 107.604C79.9705 108.676 79.7195 109.731 79.253 110.699C76.913 115.053 69.703 114.198 68.121 107.184C68.0974 107.109 68.0474 107.046 67.9801 107.005C67.9128 106.965 67.8328 106.949 67.7548 106.962C67.6769 106.975 67.6064 107.015 67.5562 107.075C67.506 107.135 67.4797 107.211 67.482 107.289C67.482 114.04 62.524 121.71 54.645 123.345C52.1506 123.816 49.5933 123.87 47.081 123.502C43.8986 123.218 40.8299 122.195 38.1264 120.517C35.4229 118.839 33.1616 116.554 31.528 113.849C29.4463 110.331 28.3609 106.326 28.385 102.254C33.285 101.992 63.805 100.208 66.629 100.156C66.68 100.154 66.73 100.141 66.7752 100.117C66.8205 100.094 66.8598 100.061 66.8905 100.02C66.9211 99.9801 66.9423 99.9336 66.9524 99.8843C66.9625 99.835 66.9613 99.784 66.949 99.7352C66.47 96.7447 68.281 93.3327 71.37 92.5447C74.577 91.7183 77.494 94.297 78.543 97.1377ZM16.668 111.382C18.053 102.169 22.668 91.8059 30.304 85.3069C38.317 78.5193 50.475 75.9593 60.398 80.8468C65.018 83.3093 68.536 87.3646 71.228 91.8562C69.6425 92.4107 68.2913 93.4726 67.3904 94.8722C66.4895 96.2719 66.0908 97.9285 66.258 99.5776C61.358 99.8396 30.891 101.623 28.066 101.676C27.9819 101.678 27.902 101.712 27.8426 101.771C27.7832 101.829 27.749 101.908 27.747 101.991C27.747 110.892 32.162 118.17 38.666 121.613C43.1204 123.897 48.1622 124.828 53.154 124.289C61.306 123.333 67.109 116.465 68.069 109.022C70.205 114.284 75.73 115.358 78.809 112.554C80.1488 118.793 81.045 125.116 81.491 131.478C81.647 133.672 81.853 136.143 81.962 138.352C71.454 131.214 59.406 128.004 45.481 129.375C34.057 130.747 23.411 137.183 15.256 144.679C15.1 137.001 15.343 119.045 16.668 111.382ZM72.932 134.165C72.832 134.239 52.512 148.152 51.503 148.896C49.053 147.32 30.576 135.52 29.834 135.05C38.6 130.733 46.017 128.902 56.667 129.951C62.2749 130.531 67.7599 131.952 72.932 134.165V134.165ZM5.96098 156.503C11.8146 147.715 19.7477 140.459 29.078 135.36C52.328 150.262 51.365 149.766 51.556 149.577C51.669 149.5 70.356 136.658 73.608 134.519C80.3889 137.594 86.4333 142.046 91.345 147.584C92.837 149.263 94.222 150.995 95.607 152.778C95.6503 152.849 95.7181 152.902 95.7979 152.928C95.8777 152.954 95.9643 152.951 96.0418 152.919C96.1193 152.887 96.1825 152.829 96.22 152.754C96.2575 152.68 96.2667 152.596 96.246 152.515C94.646 146.273 93.21 140.029 91.452 133.838H114.984C117.54 140.183 120.962 149.795 122.084 156.503H5.96098Z"></path></g></g></g></svg>