<svg xmlns="http://www.w3.org/2000/svg" fill="none" viewBox="0 0 200 200" height="400" width="400"><path fill="#000000" d="M89.356 94.3102L117.785 86.3832C117.878 86.3521 117.955 86.2868 118.001 86.2007C118.047 86.1146 118.058 86.0142 118.033 85.92C118.007 85.8258 117.946 85.7449 117.863 85.6938C117.78 85.6428 117.681 85.6254 117.585 85.6452L89.153 93.5722C89.0605 93.6033 88.9834 93.6686 88.9374 93.7547C88.8914 93.8408 88.88 93.9412 88.9055 94.0354C88.9311 94.1296 88.9916 94.2105 89.0748 94.2616C89.1579 94.3126 89.2575 94.33 89.353 94.3102H89.356Z"></path><path fill="#000000" d="M91.231 99.82C91.1385 99.8511 91.0614 99.9164 91.0154 100.002C90.9694 100.089 90.958 100.189 90.9835 100.283C91.0091 100.377 91.0696 100.458 91.1528 100.509C91.2359 100.56 91.3355 100.578 91.431 100.558L119.761 92.1C119.854 92.0689 119.931 92.0036 119.977 91.9175C120.023 91.8314 120.034 91.731 120.009 91.6368C119.983 91.5426 119.922 91.4617 119.839 91.4106C119.756 91.3596 119.657 91.3422 119.561 91.362C113.343 93.218 91.328 99.79 91.231 99.82Z"></path><path fill="#000000" d="M93.0841 105.914C92.989 105.943 92.909 106.008 92.861 106.095C92.8129 106.182 92.8006 106.285 92.8265 106.38C92.8525 106.476 92.9147 106.558 93.0001 106.609C93.0855 106.66 93.1873 106.676 93.2841 106.653L121.258 98.2172C121.351 98.1861 121.428 98.1208 121.474 98.0347C121.52 97.9486 121.531 97.8482 121.506 97.754C121.48 97.6598 121.419 97.5789 121.336 97.5278C121.253 97.4768 121.154 97.4593 121.058 97.4792L93.0841 105.914Z"></path><path fill="#000000" d="M135.3 76.606L138.638 71.248C138.899 70.829 138.238 70.448 137.977 70.862L134.639 76.22C134.376 76.639 135.038 77.023 135.3 76.606Z"></path><path fill="#000000" d="M31.966 114.338C30.879 112.345 29.361 110.394 27.066 109.813C25.9542 109.551 24.7994 109.526 23.6774 109.741C22.5553 109.955 21.4913 110.405 20.555 111.059C14.202 115.359 14.273 123.886 5.28101 127.428C5.22518 127.445 5.17379 127.474 5.13064 127.513C5.08748 127.552 5.05367 127.601 5.03169 127.655C5.00971 127.708 5.00012 127.767 5.00364 127.825C5.00716 127.883 5.02369 127.94 5.05201 127.99C7.45302 132.4 10.752 136.257 14.736 139.312C16.498 136.633 18.5838 134.181 20.946 132.012C24.853 128.425 29.554 126.218 34.919 126.538C34.572 123.057 33.648 117.421 31.966 114.338ZM30.892 120.17C30.62 122.479 28.115 123.587 25.968 123.223C25.1383 123.017 24.3906 122.564 23.8234 121.924C23.2563 121.285 22.8963 120.488 22.791 119.639C22.6292 118.891 22.6576 118.114 22.8735 117.379C23.0894 116.644 23.486 115.975 24.027 115.432C26.713 113.163 31.338 116.378 30.892 120.17V120.17Z"></path><path fill="#000000" d="M67.244 93.6324L60.63 92.0323C60.152 91.9163 59.948 92.6543 60.43 92.7703L67.044 94.3704C67.52 94.4864 67.724 93.7484 67.244 93.6324Z"></path><path fill="#000000" d="M111.335 50.9232C111.243 50.9544 111.165 51.0196 111.119 51.1057C111.073 51.1918 111.062 51.2922 111.088 51.3864C111.113 51.4806 111.174 51.5615 111.257 51.6126C111.34 51.6637 111.439 51.6811 111.535 51.6612C113.796 50.9772 118.959 49.4182 119.278 49.3192C119.371 49.2881 119.448 49.2228 119.494 49.1367C119.54 49.0507 119.551 48.9503 119.526 48.8561C119.5 48.7619 119.439 48.681 119.356 48.6299C119.273 48.5788 119.174 48.5614 119.078 48.5812C116.817 49.2652 111.654 50.8252 111.335 50.9232Z"></path><path fill="#000000" d="M110.232 190.192L110.12 190.08V193.11C110.125 193.208 110.167 193.301 110.239 193.368C110.31 193.436 110.404 193.474 110.502 193.474C110.601 193.474 110.695 193.436 110.766 193.368C110.837 193.301 110.88 193.208 110.885 193.11V190.142L110.695 190.251C110.622 190.292 110.537 190.309 110.454 190.298C110.37 190.288 110.292 190.251 110.232 190.192V190.192Z"></path><path fill="#000000" d="M98.222 177.982C98.211 178.107 98.152 178.905 98.215 182.482C98.22 182.58 98.2625 182.673 98.3337 182.741C98.4049 182.808 98.4993 182.846 98.5975 182.846C98.6957 182.846 98.7902 182.808 98.8614 182.741C98.9325 182.673 98.975 182.58 98.98 182.482V178.94C98.313 178.272 98.2 178.221 98.222 177.982Z"></path><path fill="#000000" d="M52.378 64.634C51.706 66.683 50.169 71.366 50.072 71.659C49.919 72.128 50.657 72.329 50.81 71.859L53.116 64.834C53.27 64.369 52.531 64.168 52.378 64.634Z"></path><path fill="#000000" d="M48.928 65.6752C48.283 67.6152 46.806 72.0502 46.714 72.3282C46.558 72.7962 47.297 72.9972 47.452 72.5282C48.098 70.5882 49.574 66.1542 49.666 65.8762C49.822 65.4112 49.083 65.2102 48.928 65.6752Z"></path><path fill="#000000" d="M118.233 176.835C116.682 176.363 115.119 175.928 113.577 175.427C113.498 175.4 113.412 175.404 113.335 175.436C113.259 175.468 113.197 175.528 113.161 175.603C113.121 175.66 113.097 175.727 113.093 175.796C112.998 177.319 112.77 178.831 112.679 180.355C112.68 180.422 112.699 180.488 112.733 180.545C112.767 180.603 112.815 180.651 112.873 180.684C112.931 180.718 112.997 180.735 113.064 180.736C113.131 180.736 113.197 180.719 113.255 180.686C114.755 179.795 118.115 177.665 118.324 177.535C118.387 177.496 118.438 177.439 118.469 177.372C118.501 177.305 118.513 177.23 118.503 177.156C118.494 177.082 118.463 177.013 118.415 176.956C118.367 176.899 118.304 176.857 118.233 176.835V176.835Z"></path><path fill="#000000" d="M129.205 183.218C129.205 183.32 129.245 183.417 129.317 183.489C129.389 183.561 129.486 183.601 129.588 183.601C129.69 183.601 129.787 183.561 129.859 183.489C129.931 183.417 129.971 183.32 129.971 183.218V179.318L129.205 179.188C129.205 179.948 129.187 182.159 129.205 183.218Z"></path><path fill="#000000" d="M149.752 164.775L145.104 162.175C145.017 162.128 144.915 162.117 144.819 162.144C144.724 162.171 144.643 162.234 144.593 162.32C144.543 162.405 144.528 162.507 144.551 162.603C144.575 162.699 144.634 162.783 144.718 162.836L149.518 165.515V165.124C149.518 165.049 149.54 164.976 149.582 164.914C149.624 164.852 149.683 164.804 149.752 164.775V164.775Z"></path><path fill="#000000" d="M144.718 180.991C149.518 183.675 149.634 183.757 149.741 183.779C149.674 183.759 149.615 183.72 149.57 183.667C149.525 183.613 149.496 183.548 149.488 183.479C149.468 183.379 149.479 182.924 149.479 182.774L145.1 180.33C144.674 180.09 144.288 180.751 144.718 180.991Z"></path><path fill="#000000" d="M167.879 156.315C167.88 156.254 167.863 156.193 167.831 156.14C167.799 156.087 167.753 156.044 167.698 156.015C167.698 156.015 162.953 153.365 162.749 153.25C162.318 153.01 161.932 153.671 162.362 153.911L166.686 156.327C166.895 156.227 167.105 156.127 167.311 156.015C167.367 155.985 167.429 155.969 167.493 155.969C167.556 155.968 167.619 155.984 167.675 156.013C167.732 156.043 167.78 156.086 167.815 156.139C167.851 156.192 167.873 156.252 167.879 156.315V156.315Z"></path><path fill="#000000" d="M142.158 185.138C142.232 180.915 142.183 180.951 142.144 181.138C142.116 181.235 142.05 181.317 141.963 181.367C141.875 181.417 141.771 181.431 141.673 181.406L141.392 181.354V185.142C141.392 185.244 141.432 185.341 141.504 185.413C141.576 185.485 141.673 185.525 141.775 185.525C141.877 185.525 141.974 185.485 142.046 185.413C142.118 185.341 142.158 185.244 142.158 185.142V185.138Z"></path><path fill="#000000" d="M160.448 167.034C160.172 166.919 159.873 166.868 159.574 166.886C159.275 166.905 158.984 166.992 158.724 167.14C158.189 167.338 157.714 167.669 157.342 168.102C156.97 168.534 156.714 169.054 156.598 169.612C156.557 170.051 156.649 170.492 156.862 170.878C157.075 171.264 157.399 171.577 157.792 171.777C158.777 172.162 159.919 171.477 160.614 170.816C161.737 169.75 161.744 167.737 160.448 167.034Z"></path><path fill="#000000" d="M137.344 168.915L132.69 168.134C132.592 168.11 132.489 168.124 132.402 168.174C132.314 168.223 132.249 168.305 132.22 168.401C131.832 169.671 131.42 170.935 131.058 172.211C131.031 172.309 131.044 172.413 131.094 172.502C131.144 172.59 131.227 172.655 131.325 172.682C136.608 173.73 136.316 173.682 136.408 173.671C136.492 173.685 136.579 173.665 136.648 173.615C136.717 173.565 136.765 173.49 136.779 173.406L137.611 169.386C137.637 169.288 137.623 169.184 137.574 169.096C137.524 169.008 137.441 168.943 137.344 168.915V168.915Z"></path><path fill="#000000" d="M144.981 61.5843C144.894 61.5376 144.792 61.5266 144.696 61.5535C144.601 61.5805 144.52 61.6434 144.47 61.7289C144.42 61.8145 144.405 61.9161 144.428 62.0123C144.452 62.1086 144.511 62.1921 144.595 62.2453C149.082 64.7318 154.263 65.6689 159.337 64.9113V64.4813C159.339 64.4027 159.364 64.3265 159.409 64.2626C159.455 64.1987 159.519 64.1501 159.593 64.1233C154.575 64.9319 149.432 64.0381 144.981 61.5843Z"></path><path fill="#000000" d="M150.369 87.2422C149.888 87.1422 149.683 87.8802 150.169 87.9802C153.288 88.6281 156.482 88.8414 159.659 88.6142C159.672 88.6142 159.681 88.6062 159.693 88.6052C159.598 88.5971 159.509 88.5539 159.444 88.4841C159.379 88.4142 159.342 88.3227 159.34 88.2272C159.34 87.8112 159.34 87.9272 159.34 87.8662C156.335 88.0622 153.318 87.8523 150.369 87.2422Z"></path><path fill="#000000" d="M102.9 14.1764C102.965 13.7901 102.922 13.3933 102.774 13.0304C102.41 12.4051 101.965 11.8302 101.452 11.3204C100.67 10.3696 100.176 9.21486 100.028 7.99243C99.97 7.50943 99.208 7.50343 99.263 7.99243C99.3761 9.04908 99.7173 10.0686 100.263 10.9804C101.509 12.7974 102.249 13.0544 102.147 13.8724L99.746 12.9004C99.6473 12.8742 99.5423 12.8882 99.4539 12.9394C99.3656 12.9906 99.3012 13.0748 99.275 13.1734C99.241 13.3014 99.267 13.5364 99.321 16.3294C98.8995 16.1818 98.5389 15.8987 98.2956 15.5243C98.0522 15.15 97.9398 14.7055 97.976 14.2604C98.049 13.7784 97.307 13.5704 97.239 14.0604C97.1435 14.7411 97.3061 15.4328 97.6946 15.9998C98.0832 16.5667 98.6697 16.9679 99.339 17.1244C99.388 19.6564 99.915 47.0544 99.916 47.0734C99.921 47.1715 99.9635 47.2639 100.035 47.3315C100.106 47.3992 100.2 47.4369 100.298 47.4369C100.397 47.4369 100.491 47.3992 100.562 47.3315C100.633 47.2639 100.676 47.1715 100.681 47.0734L100.105 17.1734C100.705 17.0772 101.266 16.8154 101.726 16.4176C102.185 16.0197 102.524 15.5016 102.705 14.9214L115.242 20.0004C115.642 19.8754 116.051 19.7774 116.459 19.6744L102.9 14.1764ZM100.089 16.4124C100.078 15.8244 100.067 15.2371 100.055 14.6504C100.055 14.3904 100.062 14.1164 100.061 13.8504L101.98 14.6284C101.862 15.0724 101.622 15.4747 101.288 15.7898C100.954 16.105 100.538 16.3206 100.088 16.4124H100.089Z"></path><path fill="#000000" d="M177.324 42.3364L150.958 35.0084C151.132 34.7363 151.219 34.4173 151.207 34.0943C151.195 33.7713 151.084 33.4597 150.89 33.2014C150.631 32.9376 150.319 32.7327 149.974 32.6007C149.628 32.4687 149.259 32.4127 148.89 32.4364C148.447 32.4365 148.007 32.513 147.59 32.6624C148.185 31.5674 149.041 30.5484 148.768 29.2254C148.704 28.9056 148.56 28.6071 148.351 28.3572C148.141 28.1074 147.872 27.9142 147.568 27.7954C147.233 27.7051 146.879 27.7105 146.546 27.8111C146.214 27.9116 145.916 28.1033 145.687 28.3644C144.318 29.5978 143.114 31.0032 142.106 32.5454C135.365 30.6724 135.701 30.7694 135.645 30.7714C135.562 30.7712 135.481 30.7979 135.415 30.8475C135.348 30.8972 135.3 30.9671 135.276 31.0467C135.253 31.1263 135.256 31.2114 135.285 31.2891C135.314 31.3667 135.368 31.4329 135.438 31.4774C135.465 31.4934 137.938 32.1874 141.665 33.2294C140.7 34.5543 140.088 36.1029 139.887 37.7294C139.884 37.7805 139.892 37.8316 139.91 37.8794C139.929 37.9272 139.957 37.9705 139.993 38.0067C140.029 38.0429 140.072 38.071 140.12 38.0892C140.168 38.1074 140.219 38.1153 140.27 38.1124C142.99 38.0212 145.711 38.2882 148.361 38.9064C149.468 39.1284 150.772 39.5064 151.803 38.8204C152.025 38.677 152.21 38.4841 152.344 38.2568C152.478 38.0295 152.557 37.7741 152.575 37.5109C152.593 37.2477 152.55 36.9839 152.449 36.7403C152.347 36.4967 152.191 36.28 151.991 36.1074C163.327 39.2644 176.429 42.9074 177.078 43.0664C177.154 42.8214 177.239 42.5784 177.324 42.3364Z"></path><path fill="#000000" d="M192.234 69.0743C192.493 69.4154 192.652 69.8217 192.694 70.248C192.735 70.6742 192.657 71.1036 192.469 71.4883C191.689 72.5773 189.895 72.2333 189.269 74.0243C188.788 76.4833 191.296 77.2013 192.009 78.8243C192.114 79.0277 192.175 79.2508 192.188 79.4793C192.2 79.7077 192.165 79.9363 192.084 80.1503C191.87 80.6013 191.342 80.8433 190.984 81.1593C190.626 81.4753 191.156 82.0243 191.525 81.7003C191.884 81.4465 192.222 81.1635 192.534 80.8543C193.426 79.7543 192.752 78.1113 191.819 77.2783C191.073 76.6959 190.47 75.951 190.055 75.1003C189.938 74.7571 189.957 74.3821 190.108 74.0524C190.259 73.7227 190.53 73.4632 190.866 73.3273C191.532 73.0607 192.166 72.7195 192.755 72.3103C193.061 72.0297 193.285 71.6719 193.405 71.2746C193.525 70.8772 193.535 70.455 193.435 70.0523C193.209 69.1647 192.778 68.3427 192.176 67.6523C191.558 67.002 191.147 66.1837 190.993 65.3003C190.905 63.5293 191.673 62.5903 190.339 65.8833C190.631 67.2093 191.593 67.9543 192.234 69.0743Z"></path><path fill="#000000" d="M59.164 166.339C58.0749 167.167 56.9097 167.89 55.684 168.498C55.243 168.716 55.63 169.376 56.071 169.158C57.2967 168.551 58.462 167.828 59.551 167C59.937 166.706 59.557 166.041 59.164 166.339Z"></path><path fill="#000000" d="M52.34 90.5723C51.546 88.5663 50.7524 86.56 49.959 84.5533C49.78 84.1013 49.039 84.2983 49.221 84.7533L51.6 90.7763C51.781 91.2293 52.522 91.0313 52.34 90.5723Z"></path><path fill="#000000" d="M56.848 103.947L54.586 97.5424C54.424 97.0814 53.686 97.2794 53.849 97.7424C54.6024 99.8757 55.356 102.011 56.11 104.147C56.273 104.611 57.013 104.413 56.848 103.947Z"></path><path fill="#000000" d="M156.115 104.471C156.096 104.429 156.069 104.391 156.034 104.359C156 104.328 155.959 104.304 155.915 104.289C155 103.461 147.34 97.0374 101.501 58.4384C108.968 60.1584 139.241 67.0014 140.63 67.3214C140.726 67.3412 140.825 67.3238 140.908 67.2727C140.991 67.2216 141.052 67.1407 141.078 67.0465C141.103 66.9523 141.092 66.8519 141.046 66.7659C141 66.6798 140.923 66.6145 140.83 66.5834C137.615 65.8194 102.06 57.7834 100.213 57.3714C99.8701 57.2944 99.8621 57.4044 99.7571 57.4824C97.8821 58.8824 55.9661 90.1454 55.8801 90.2434C55.5231 90.5434 55.8941 91.1804 56.2801 90.8884C56.8101 90.4884 95.8801 61.3114 99.0801 58.9254C95.7251 66.0144 81.5581 96.3664 80.8571 97.9174C79.5571 100.792 69.7311 123.711 69.5041 124.283C69.3221 124.741 70.0621 124.939 70.2421 124.483C71.2301 121.997 75.6061 111.628 76.7911 108.925C78.0501 106.053 99.9661 58.7944 100.186 58.3344C130.986 84.2704 144.686 95.8344 150.737 100.919C145.092 99.2744 144.397 99.0704 144.383 99.0664C144.287 99.0467 144.188 99.0643 144.104 99.1156C144.021 99.1669 143.961 99.248 143.935 99.3423C143.91 99.4367 143.921 99.5373 143.967 99.6235C144.013 99.7097 144.09 99.7751 144.183 99.8064L152.195 102.14C154.473 104.049 155.195 104.632 155.385 104.758V109.669C155.387 109.72 155.399 109.77 155.42 109.816C155.441 109.862 155.471 109.903 155.508 109.938C155.545 109.972 155.589 109.999 155.636 110.016C155.684 110.034 155.734 110.042 155.785 110.039C155.882 110.037 155.975 109.997 156.044 109.928C156.112 109.859 156.152 109.767 156.154 109.669C156.245 104.3 156.176 104.6 156.115 104.471Z"></path><path fill="#000000" d="M104.685 152.581C104.716 152.674 104.781 152.751 104.868 152.797C104.954 152.843 105.054 152.854 105.148 152.829C105.242 152.803 105.323 152.742 105.374 152.659C105.426 152.576 105.443 152.477 105.423 152.381L101.8 140.126C101.769 140.034 101.704 139.956 101.618 139.91C101.531 139.864 101.431 139.853 101.337 139.879C101.243 139.904 101.162 139.965 101.111 140.048C101.06 140.131 101.042 140.23 101.062 140.326C102.272 144.413 103.445 148.507 104.685 152.581Z"></path><path fill="#000000" d="M133.966 144.857C133.997 144.95 134.062 145.027 134.148 145.073C134.235 145.119 134.335 145.13 134.429 145.105C134.523 145.079 134.604 145.019 134.655 144.936C134.706 144.852 134.724 144.753 134.704 144.657C133.497 140.573 132.325 136.479 131.085 132.405C131.054 132.313 130.989 132.236 130.902 132.19C130.816 132.144 130.716 132.132 130.622 132.158C130.528 132.183 130.447 132.244 130.396 132.327C130.345 132.41 130.327 132.51 130.347 132.605L133.966 144.857Z"></path><path fill="#000000" d="M83.592 56.1054C82.92 58.1534 81.383 62.8374 81.286 63.1304C81.132 63.5994 81.871 63.8004 82.024 63.3304L84.33 56.3054C84.484 55.8394 83.745 55.6384 83.592 56.1054Z"></path><path fill="#000000" d="M80.142 57.1461L77.928 63.8001C77.772 64.2691 78.511 64.4701 78.666 64.0001C79.312 62.0601 80.788 57.6251 80.88 57.3471C81.036 56.8811 80.3 56.6801 80.142 57.1461Z"></path><path fill="#000000" d="M110.345 48.6324C112.606 47.9484 117.769 46.3894 118.088 46.2904C118.18 46.2593 118.258 46.194 118.304 46.1079C118.35 46.0219 118.361 45.9215 118.335 45.8273C118.31 45.7331 118.249 45.6522 118.166 45.6011C118.083 45.55 117.984 45.5326 117.888 45.5524C115.626 46.2364 110.463 47.7964 110.144 47.8944C110.051 47.9256 109.974 47.9908 109.928 48.0769C109.882 48.163 109.871 48.2634 109.897 48.3576C109.922 48.4518 109.983 48.5327 110.066 48.5838C110.149 48.6349 110.248 48.6523 110.344 48.6324H110.345Z"></path><path fill="#000000" d="M112.4 53.9003C112.307 53.9314 112.23 53.9967 112.184 54.0828C112.138 54.1689 112.127 54.2693 112.152 54.3635C112.178 54.4577 112.239 54.5386 112.322 54.5896C112.405 54.6407 112.504 54.6581 112.6 54.6383C114.861 53.9543 120.024 52.3953 120.343 52.2963C120.435 52.2652 120.513 52.1999 120.559 52.1138C120.605 52.0277 120.616 51.9273 120.59 51.8331C120.565 51.7389 120.504 51.658 120.421 51.6069C120.338 51.5559 120.239 51.5385 120.143 51.5583C117.882 52.2443 112.719 53.8003 112.4 53.9003Z"></path><path fill="#000000" d="M78.3001 132.924L77.4311 134.84C77.2311 135.285 77.8891 135.675 78.0921 135.226C78.3821 134.588 78.6717 133.949 78.9611 133.31C79.1651 132.865 78.5061 132.475 78.3001 132.924Z"></path><path fill="#000000" d="M85.161 132.4L84.314 134.626C84.139 135.087 84.878 135.286 85.052 134.826L85.9 132.6C86.075 132.145 85.335 131.945 85.161 132.4Z"></path><path fill="#000000" d="M150.6 127.988C151.555 127.098 152.446 126.141 153.266 125.125C153.573 124.746 153.035 124.201 152.725 124.584C151.905 125.6 151.014 126.557 150.058 127.446C149.7 127.783 150.241 128.323 150.6 127.988Z"></path><path fill="#000000" d="M153.512 138.753L158.272 140.432C158.737 140.596 158.937 139.857 158.472 139.694L153.712 138.015C153.25 137.851 153.05 138.59 153.512 138.753Z"></path><path fill="#000000" d="M80.854 163.051C81.8288 162.278 82.6872 161.369 83.403 160.351C83.687 159.951 83.025 159.566 82.742 159.965C82.0584 160.926 81.2404 161.784 80.313 162.513C79.926 162.815 80.471 163.354 80.854 163.051Z"></path><path fill="#000000" d="M145.578 10.7551C145.09 10.7951 145.086 11.5551 145.578 11.5201C153.323 10.8933 161.038 13.0479 167.338 17.5971C167.738 17.8861 168.121 17.2211 167.725 16.9361C161.304 12.3259 153.458 10.1364 145.578 10.7551V10.7551Z"></path><path fill="#000000" d="M169.7 11.7382C162.305 7.78983 153.939 6.02426 145.579 6.64722C145.091 6.68422 145.087 7.44722 145.579 7.41222C153.804 6.78998 162.037 8.51994 169.316 12.4002C169.75 12.6312 170.137 11.9702 169.7 11.7382Z"></path><path fill="#000000" d="M25.358 95.0074C25.2247 97.3441 25.0884 99.6807 24.949 102.017C24.92 102.509 25.686 102.507 25.714 102.017C25.8514 99.6807 25.9877 97.3441 26.123 95.0074C26.152 94.5154 25.387 94.5174 25.358 95.0074Z"></path><path fill="#000000" d="M22.206 101.5L19.206 95.828C18.975 95.392 18.314 95.779 18.545 96.214L21.545 101.886C21.775 102.319 22.436 101.932 22.206 101.5Z"></path><path fill="#000000" d="M14.365 99.8232C13.952 99.5532 13.565 100.215 13.979 100.484L19.747 104.267C20.16 104.538 20.547 103.876 20.133 103.606L14.365 99.8232Z"></path><path fill="#000000" d="M94.741 119.993C94.6979 119.764 94.6085 119.546 94.4782 119.353C94.348 119.16 94.1796 118.995 93.9835 118.869C93.7874 118.743 93.5676 118.658 93.3376 118.62C93.1076 118.582 92.8723 118.591 92.646 118.647C92.2921 118.809 91.9831 119.054 91.746 119.362C90.746 120.638 90.592 121.053 88.722 124.708C88.9127 123.918 89.05 123.117 89.133 122.308C89.2897 121.478 89.1732 120.619 88.801 119.86C88.5345 119.491 88.1466 119.228 87.7053 119.117C87.264 119.005 86.7976 119.053 86.388 119.251C85.5788 119.621 84.895 120.219 84.42 120.971C83.02 123.227 82.105 126.331 80.677 128.588C81.296 126.605 82.01 123.437 81.349 121.469C81.2038 121.191 80.9885 120.956 80.7244 120.787C80.4603 120.618 80.1566 120.52 79.8434 120.505C79.5301 120.489 79.2182 120.556 78.9386 120.698C78.6589 120.84 78.4212 121.052 78.249 121.314C77.6177 122.066 77.0863 122.897 76.668 123.785C75.105 127.03 74.991 127.537 74.615 127.939C74.143 128.439 73.22 128.289 70.224 129.233C69.756 129.38 69.955 130.119 70.424 129.971C73.877 128.883 74.829 129.292 75.537 127.955C76.481 126.171 76.73 125.146 77.824 123.241C78.1574 122.499 78.682 121.858 79.344 121.384C79.5545 121.266 79.8021 121.231 80.0371 121.288C80.272 121.344 80.4767 121.488 80.61 121.689C80.9028 122.893 80.925 124.147 80.675 125.36C80.2792 127.418 79.6693 129.429 78.855 131.36C78.855 131.68 79.235 131.987 79.486 131.668C83.268 126.843 83.645 122.914 85.554 120.753C86.054 120.19 87.012 119.536 87.794 119.926C88.439 120.248 88.444 121.19 88.394 121.911C88.0915 124.722 87.3028 127.459 86.063 130C85.855 130.431 86.497 130.831 86.724 130.386C90.3 123.398 92.133 119.15 93.103 119.359C93.781 119.418 94.028 119.964 94.086 120.588C94.0984 121.673 93.9 122.75 93.502 123.759C92.021 128.306 90.686 131.867 90.676 132.051C90.591 132.475 91.266 132.642 91.422 132.199C94.6 123.131 95.165 121.56 94.741 119.993Z"></path><g><path fill="#000000" d="M118.118 86.259C118.164 86.1722 118.184 86.074 118.176 85.9761C118.167 85.8782 118.131 85.7849 118.071 85.7072C118.01 85.6296 117.929 85.571 117.836 85.5385C117.744 85.506 117.644 85.5009 117.548 85.524L89.117 93.452C89.0022 93.4893 88.9045 93.5662 88.8412 93.669C88.7778 93.7718 88.7531 93.8937 88.7714 94.013C88.7896 94.1323 88.8497 94.2413 88.9409 94.3204C89.032 94.3995 89.1483 94.4437 89.269 94.445C89.369 94.445 117.721 86.531 117.821 86.503C117.884 86.4842 117.943 86.453 117.994 86.4111C118.045 86.3691 118.087 86.3174 118.118 86.259V86.259Z"></path><path fill="#000000" d="M119.8 92.2193C119.93 92.1827 120.04 92.0961 120.105 91.9785C120.171 91.8609 120.188 91.722 120.151 91.5923C120.114 91.4626 120.028 91.3527 119.91 91.2869C119.793 91.2211 119.654 91.2047 119.524 91.2413L91.2 99.7003C91.0717 99.738 90.9635 99.8247 90.8988 99.9417C90.8341 100.059 90.8181 100.196 90.8543 100.325C90.8905 100.454 90.9759 100.563 91.0921 100.629C91.2083 100.695 91.3459 100.713 91.475 100.678L119.8 92.2193Z"></path><path fill="#000000" d="M121.3 98.3373C121.425 98.2968 121.529 98.2094 121.591 98.0936C121.653 97.9778 121.668 97.8425 121.632 97.7161C121.596 97.5897 121.513 97.4821 121.4 97.4157C121.286 97.3494 121.152 97.3296 121.024 97.3603L93.047 105.8C92.9221 105.841 92.8177 105.928 92.7559 106.044C92.694 106.16 92.6794 106.295 92.7151 106.422C92.7508 106.548 92.834 106.656 92.9473 106.722C93.0607 106.788 93.1953 106.808 93.323 106.777L121.3 98.3373Z"></path><path fill="#000000" d="M137.868 70.8003L134.531 76.1583C134.18 76.7223 135.059 77.2313 135.405 76.6773L138.741 71.3193C139.09 70.7543 138.215 70.2403 137.868 70.8003Z"></path><path fill="#000000" d="M67.274 93.5109L60.659 91.9109C60.5307 91.8814 60.3959 91.9028 60.2831 91.9707C60.1703 92.0386 60.0883 92.1477 60.0543 92.2749C60.0203 92.4021 60.0371 92.5375 60.101 92.6526C60.1649 92.7677 60.2711 92.8535 60.397 92.8919L67.012 94.4919C67.1421 94.5266 67.2807 94.5083 67.3972 94.4408C67.5138 94.3734 67.5988 94.2625 67.6335 94.1324C67.6683 94.0023 67.6499 93.8637 67.5825 93.7472C67.5151 93.6306 67.4041 93.5456 67.274 93.5109V93.5109Z"></path><path fill="#000000" d="M193.186 55.0533C193.512 54.8285 193.814 54.57 194.086 54.2823C194.695 53.7271 195.062 52.9554 195.108 52.1328C195.154 51.3101 194.876 50.5022 194.333 49.8823C193.897 49.409 193.35 49.0516 192.742 48.8423C193.467 48.5296 194.041 47.9451 194.34 47.2144C194.639 46.4836 194.64 45.6647 194.342 44.9333C193.857 44.1167 193.085 43.5105 192.176 43.2333C189.983 42.505 187.7 42.0787 185.392 41.9663C186.049 40.9375 186.374 39.7311 186.321 38.5113C186.241 37.1113 184.781 36.2953 183.396 36.3243C179.763 36.4003 177.907 40.3623 177.245 42.1863L169.105 39.9243C168.98 37.1033 168.778 34.2673 168.505 31.4923C167.89 25.2503 166.978 20.6373 160.805 18.1083C158.58 17.2106 156.25 16.6016 153.87 16.2963C146.05 15.2593 139.511 15.5793 132.378 16.0593C126.604 16.4473 124.978 16.4453 119.442 18.5763C118.47 18.9536 117.478 19.2771 116.471 19.5453L103.036 14.1003C103.083 13.7169 103.03 13.3279 102.881 12.9713C102.514 12.34 102.065 11.7597 101.547 11.2453C100.779 10.3131 100.293 9.18058 100.147 7.98133C100.069 7.33733 99.058 7.35333 99.134 8.01033C99.534 11.5913 101.914 12.6103 102.025 13.6923L99.775 12.7803C99.6444 12.7455 99.5053 12.764 99.3883 12.8317C99.2713 12.8994 99.186 13.0108 99.151 13.1413C99.1097 14.1413 99.1224 15.1427 99.189 16.1413C98.8387 15.9789 98.5466 15.7131 98.3519 15.3797C98.1572 15.0463 98.0693 14.6612 98.1 14.2763C98.2 13.6333 97.209 13.3763 97.114 14.0363C97.0176 14.7315 97.1775 15.4379 97.564 16.0237C97.9505 16.6095 98.537 17.0345 99.214 17.2193C99.27 20.1393 99.683 41.6953 99.714 43.3193C36.679 61.0353 40.8 59.7883 40.643 60.1003C40.6156 60.1551 40.6003 60.2152 40.598 60.2764C40.5958 60.3377 40.6067 60.3987 40.63 60.4553C40.63 60.4553 47.494 79.9913 47.7 80.6333C47.7386 80.7606 47.8249 80.868 47.9407 80.9332C48.0566 80.9984 48.1932 81.0164 48.322 80.9833C48.914 80.8213 80.595 71.5833 80.595 71.5833C76.96 74.3003 56.675 89.4603 55.819 90.1373C55.727 90.1954 55.6564 90.2818 55.618 90.3836C55.5795 90.4854 55.5753 90.5969 55.606 90.7013C56.379 92.8223 68.193 125.275 68.655 126.566C67.6785 130.915 65.7868 135.006 63.106 138.566C61.0522 141.351 58.6363 143.849 55.922 145.994C54.4041 142.392 52.5854 138.924 50.485 135.627C49.5284 134.119 48.3998 132.728 47.122 131.48C43.7336 128.549 39.4973 126.777 35.031 126.422C34.7345 123.229 34.1229 120.073 33.205 117C32.272 113.978 30.176 110.472 27.095 109.692C25.9661 109.426 24.7938 109.401 23.6547 109.619C22.5155 109.837 21.4351 110.293 20.484 110.956C14.072 115.292 14.184 123.788 5.24301 127.308C5.1123 127.348 5.00255 127.437 4.93786 127.557C4.87317 127.678 4.85884 127.819 4.89801 127.949C5.99939 129.994 7.29539 131.928 8.76801 133.723C10.497 135.795 12.4413 137.677 14.568 139.338C10.208 145.965 7.32001 154.116 5.98301 163.565C5.88549 163.859 5.88026 164.176 5.96801 164.472C6.07254 164.63 6.19101 164.779 6.32201 164.915C9.86061 169.081 14.404 172.275 19.522 174.193C29.815 178.125 45.348 178.371 54.88 174.693C60.57 172.493 69.296 167.011 76.798 158.181C77.4292 160.462 78.1823 162.707 79.054 164.907C79.1107 165.004 79.1976 165.079 79.3012 165.121C79.4048 165.162 79.5193 165.169 79.627 165.139C80.527 164.887 160.372 141.939 160.994 141.753C161.124 141.715 161.233 141.628 161.299 141.51C161.365 141.392 161.382 141.253 161.346 141.122L154.858 121.611C154.82 121.484 154.733 121.376 154.617 121.31C154.501 121.244 154.364 121.226 154.235 121.258C153.525 121.449 93.027 138.464 88.513 139.733C88.988 138.7 89.439 137.671 89.856 136.669C91.302 133.185 94.193 124.777 94.703 122.857C101.803 120.745 152.09 106.22 155.264 105.306V109.676C155.271 109.81 155.329 109.936 155.427 110.027C155.525 110.119 155.654 110.169 155.788 110.167C155.918 110.165 156.042 110.112 156.133 110.02C156.225 109.928 156.277 109.804 156.279 109.674C156.362 104.659 156.312 104.574 156.24 104.448C156.24 104.448 154.84 100.882 154.076 98.9583L168.69 99.3323C168.822 99.3309 168.948 99.2786 169.042 99.1864C169.137 99.0942 169.192 98.9691 169.196 98.8373C169.396 96.9523 169.496 92.8313 169.496 86.5873C174.145 84.7585 178.382 82.0181 181.956 78.5273C185.531 75.0366 188.371 70.8661 190.309 66.2613C190.696 67.4193 191.54 68.1123 192.127 69.1363C192.438 69.6793 192.883 70.6983 192.368 71.4163C191.622 72.4563 189.799 72.1303 189.142 74.0003C188.642 76.5443 191.187 77.2743 191.895 78.8783C191.991 79.0646 192.047 79.2689 192.06 79.4782C192.072 79.6875 192.041 79.897 191.967 80.0933C191.667 80.7193 190.626 80.9443 190.737 81.4933C190.756 81.5821 190.797 81.6645 190.857 81.7326C190.917 81.8007 190.994 81.8523 191.079 81.8824C191.165 81.9125 191.257 81.9201 191.346 81.9045C191.436 81.8889 191.52 81.8507 191.59 81.7933C191.959 81.533 192.305 81.242 192.625 80.9233C193.525 79.8133 192.947 78.1133 191.902 77.1823C191.171 76.6115 190.578 75.8831 190.167 75.0513C190.062 74.7384 190.08 74.3971 190.217 74.0968C190.354 73.7965 190.601 73.5596 190.906 73.4343C191.586 73.1618 192.232 72.8125 192.833 72.3933C193.155 72.0974 193.392 71.7202 193.518 71.3012C193.644 70.8822 193.655 70.437 193.55 70.0123C193.318 69.1085 192.88 68.2708 192.269 67.5653C191.669 66.9338 191.266 66.1406 191.111 65.2833C191.086 64.7584 191.131 64.2325 191.244 63.7193C191.429 63.1383 191.598 62.5463 191.744 61.9563C192.487 61.8584 193.187 61.5539 193.765 61.0774C194.343 60.6009 194.776 59.9717 195.014 59.2613C195.211 58.4565 195.139 57.6094 194.809 56.8495C194.478 56.0896 193.909 55.4587 193.186 55.0533V55.0533ZM11.747 146.6C15.162 138.885 21.786 129.9 30.135 127.829C34.5301 126.872 39.1243 127.59 43.017 129.844C45.757 131.333 47.839 133.036 50.373 137.337C52.1558 140.312 53.7308 143.407 55.087 146.599C53.517 147.71 51.7922 148.585 49.968 149.194C49.864 149.227 49.7727 149.291 49.7069 149.378C49.6412 149.465 49.6041 149.57 49.601 149.679C49.601 149.679 49.53 173.479 49.527 175.208C41.609 176.853 29.456 176.903 20.047 173.308C14.9475 171.417 10.4285 168.229 6.93501 164.06C7.68623 158.038 9.30711 152.157 11.747 146.6V146.6ZM15.137 138.5C11.4499 135.662 8.37895 132.102 6.11101 128.039C8.0645 127.204 9.83625 125.995 11.327 124.481C12.9722 122.656 14.3886 120.637 15.545 118.469C18.093 114.158 21.098 110.213 25.681 110.484C30.487 110.771 32.358 117.15 32.94 119.884C33.4216 122.028 33.7775 124.199 34.006 126.384C24.7 126.091 17.765 134.654 15.137 138.5ZM94.864 119.97C94.8177 119.723 94.7209 119.487 94.5796 119.278C94.4382 119.07 94.2554 118.893 94.0425 118.758C93.8296 118.623 93.5911 118.533 93.3421 118.495C93.0931 118.456 92.8388 118.469 92.595 118.533C92.2243 118.703 91.9007 118.961 91.652 119.284C90.6931 120.574 89.8804 121.965 89.229 123.434L89.113 123.468C89.175 123.095 89.224 122.718 89.261 122.344C89.4198 121.475 89.2958 120.578 88.907 119.785C88.6231 119.393 88.2104 119.113 87.741 118.994C87.2716 118.876 86.7753 118.925 86.339 119.135C84.322 120.078 83.755 121.762 82.079 125.57L81.515 125.739C81.8197 124.311 81.8027 122.832 81.465 121.411C81.3106 121.115 81.0815 120.863 80.8004 120.682C80.5192 120.5 80.1957 120.395 79.8616 120.377C79.5276 120.359 79.1945 120.428 78.8952 120.578C78.596 120.727 78.3409 120.952 78.155 121.23C76.427 123.25 75.26 126.996 74.546 127.83C74.197 127.935 70.926 128.899 70.64 128.984C70.355 128.187 57.3 92.4143 56.766 90.9003C67.038 88.0683 77.513 85.1623 87.907 82.2643C86.159 86.0693 74.359 112.314 73.271 114.864C72.171 117.447 69.616 123.681 69.396 124.238C69.152 124.846 70.123 125.144 70.366 124.538C71.317 122.145 75.699 111.755 76.913 108.984C78.213 106.023 88.621 83.1553 89.19 81.9113C89.19 81.9113 109.055 76.3653 118.317 73.7673L150.239 100.65C150.239 100.65 144.655 99.0173 144.423 98.9563C144.359 98.9394 144.293 98.9355 144.228 98.9448C144.163 98.9541 144.1 98.9764 144.044 99.0103C143.959 99.0607 143.891 99.1346 143.848 99.2229C143.804 99.3113 143.787 99.4104 143.798 99.5082C143.81 99.606 143.85 99.6984 143.913 99.7742C143.975 99.85 144.059 99.906 144.153 99.9353L152.16 102.267L154.7 104.4C148.408 106.107 98.338 120.727 94.918 121.729C95.0167 121.145 94.9984 120.547 94.864 119.97V119.97ZM50.623 150.026C52.7228 149.282 54.6925 148.212 56.46 146.856C62.6142 142.164 67.1152 135.635 69.311 128.214C69.442 128.595 69.655 129.185 69.838 129.765C69.8753 129.894 69.9616 130.003 70.0783 130.068C70.1951 130.134 70.3329 130.151 70.462 130.115C70.782 130.023 73.71 129.363 74.738 128.939C75.1274 128.727 75.4451 128.403 75.651 128.01C76.634 126.152 76.821 125.243 77.941 123.291C78.2653 122.569 78.7752 121.945 79.419 121.483C79.5988 121.386 79.808 121.358 80.0071 121.405C80.2062 121.451 80.3812 121.569 80.499 121.736C80.591 121.946 80.6439 122.171 80.655 122.399C81.023 125.578 79.462 129.58 78.775 131.153C78.544 131.678 79.207 132.258 79.588 131.771C83.159 127.244 83.861 122.862 85.652 120.834C86.043 120.393 86.982 119.658 87.742 120.034C88.301 120.313 88.326 121.134 88.277 121.899C87.9686 124.694 87.1815 127.414 85.95 129.941C85.668 130.526 86.533 131.028 86.836 130.441C89.845 124.56 92.188 119.291 93.093 119.481C94.145 119.572 94.069 121.039 93.847 122.071C93.477 123.802 89.995 133.607 89.368 135.187C85.3341 145.562 79.106 154.943 71.11 162.687C64.521 168.939 57.249 173.287 50.616 174.95C50.617 172.708 50.632 151.618 50.623 150.026ZM119.497 73.4263C121.581 72.8423 134.581 69.2003 140.429 67.5603C142.944 74.0803 154.098 101.771 154.57 102.96L119.497 73.4263ZM142.491 31.7683C142.343 31.9733 142.191 32.1843 142.051 32.3983C141.603 32.2713 139.53 31.6813 138.289 31.3323C139.705 31.2159 141.13 31.3654 142.491 31.7733V31.7683ZM147.191 33.8283C147.61 33.5374 148.101 33.3664 148.61 33.334C149.119 33.3016 149.627 33.4089 150.08 33.6443C150.217 33.7714 150.299 33.9463 150.31 34.1325C150.321 34.3188 150.26 34.5021 150.139 34.6443L147.191 33.8283ZM151.644 37.7123C151.113 38.6043 149.911 38.3193 148.901 38.1123C146.263 37.4755 143.557 37.1668 140.843 37.1933C140.97 36.5852 141.175 35.9962 141.454 35.4413C141.766 34.8021 142.112 34.1796 142.489 33.5763L148.928 35.3663C148.568 35.4793 148.367 35.4913 148.239 35.7313C148.194 35.8177 148.174 35.9153 148.183 36.0125C148.191 36.1098 148.227 36.2025 148.287 36.2798C148.346 36.357 148.427 36.4156 148.519 36.4485C148.611 36.4814 148.71 36.4872 148.805 36.4653C149.818 36.2373 150.839 36.1223 151.449 36.8143C151.568 36.9279 151.651 37.0745 151.687 37.2354C151.722 37.3963 151.709 37.5641 151.648 37.7173L151.644 37.7123ZM143.078 32.6853C144.072 31.2215 145.261 29.9003 146.612 28.7583C146.697 28.6991 146.792 28.6571 146.893 28.6348C146.994 28.6126 147.098 28.6104 147.2 28.6285C147.301 28.6467 147.398 28.6847 147.485 28.7404C147.572 28.7962 147.647 28.8685 147.706 28.9533C148.076 29.4833 147.994 30.1843 147.454 31.1533C146.959 31.9044 146.552 32.7096 146.24 33.5533L143.078 32.6853ZM85.708 69.0323L98.718 59.3573C97.618 61.6573 96.543 63.9013 95.455 66.1923L85.708 69.0323ZM106.7 63.9753L117.381 72.9703C113.663 74.0113 95.987 78.9533 89.763 80.6833C90.84 78.3833 95.681 68.0893 96.179 67.0403L106.7 63.9753ZM101.973 58.6753C103.927 59.1103 110.902 60.6663 112.901 61.1143L106.934 62.8523L101.973 58.6753ZM105.767 63.1923L96.767 65.8163C97.267 64.7663 100.245 58.5393 100.245 58.5393L105.767 63.1923ZM129.677 64.9033C129.099 66.5543 128.597 68.2493 128.177 69.9463L118.555 72.6463L107.863 63.6463L114.946 61.5823C116.916 62.0123 126.5 64.1743 129.673 64.9003L129.677 64.9033ZM129.307 69.6313C129.727 67.9953 130.174 66.5203 130.67 65.1313C131.452 65.3113 136.098 66.3843 138.708 66.9973C135.569 67.874 132.433 68.751 129.3 69.6283L129.307 69.6313ZM151.876 38.9313C152.084 38.7966 152.263 38.6207 152.401 38.4145C152.539 38.2082 152.633 37.9759 152.678 37.7319C152.723 37.4879 152.718 37.2372 152.662 36.9953C152.607 36.7535 152.503 36.5255 152.356 36.3253L168.126 40.7003C168.155 41.4483 168.178 42.1957 168.195 42.9423H148.378C148.342 41.6137 148.23 40.2883 148.044 38.9723C149.355 39.2453 150.774 39.6533 151.872 38.9263L151.876 38.9313ZM94.876 67.4253C93.842 69.6123 88.476 81.0473 88.476 81.0473C84.113 82.2633 64.916 87.5993 58.534 89.3623C66.334 83.4833 76.428 75.9473 83.38 70.7753L94.876 67.4253ZM151.15 34.9363C151.296 34.6484 151.357 34.3252 151.328 34.0038C151.298 33.6824 151.179 33.3759 150.983 33.1193C150.713 32.8428 150.386 32.628 150.025 32.4899C149.664 32.3518 149.277 32.2936 148.891 32.3193C148.543 32.32 148.196 32.3664 147.86 32.4573C148.471 31.4073 149.153 30.4473 148.898 29.2083C148.83 28.8672 148.677 28.5487 148.453 28.2826C148.229 28.0165 147.942 27.8114 147.617 27.6863C147.26 27.5884 146.884 27.5918 146.529 27.6962C146.174 27.8006 145.856 28.0018 145.609 28.2773C144.697 29.0754 143.868 29.9636 143.135 30.9283C140.695 30.2234 138.12 30.129 135.635 30.6533C135.346 30.6433 135.213 30.8683 135.106 31.0443C134.673 31.983 134.375 32.9782 134.22 34.0003C134 34.9313 133.681 35.8333 132.841 36.1253C132.298 36.2291 131.735 36.142 131.249 35.8786C130.762 35.6153 130.381 35.192 130.171 34.6803C129.494 33.2933 129.93 31.5963 130.284 30.1083C130.312 29.9918 130.299 29.8689 130.245 29.7614C130.192 29.6539 130.103 29.5687 129.992 29.5209C129.882 29.473 129.759 29.4656 129.644 29.4999C129.529 29.5342 129.43 29.608 129.364 29.7083C128.21 31.2413 128.45 33.4393 127.064 34.7153C126.836 34.9971 126.51 35.1831 126.152 35.2368C125.793 35.2905 125.428 35.2079 125.127 35.0053C124.344 34.3123 124.409 32.7953 124.327 28.8393C124.326 28.7169 124.28 28.599 124.199 28.5072C124.118 28.4154 124.007 28.3558 123.886 28.3393C123.764 28.3228 123.641 28.3505 123.539 28.4173C123.436 28.4842 123.361 28.5857 123.327 28.7033C122.767 30.5513 122.02 32.5143 120.127 32.4683C118.265 32.4203 118.51 30.0123 118.727 28.1973C118.868 27.1064 119.092 26.0277 119.395 24.9703C119.412 24.9051 119.417 24.837 119.408 24.77C119.399 24.7031 119.376 24.6386 119.342 24.5803C119.308 24.5219 119.263 24.471 119.209 24.4303C119.155 24.3896 119.093 24.3601 119.028 24.3433C118.771 24.2773 116.588 24.3123 116.556 24.3133C115.858 24.3858 115.152 24.3429 114.468 24.1863C114.184 24.1237 113.926 23.9725 113.733 23.7546C113.54 23.5367 113.421 23.2632 113.393 22.9733C113.416 22.6142 113.532 22.2672 113.73 21.967C113.929 21.6668 114.202 21.4238 114.524 21.2623C115.222 20.915 115.966 20.6673 116.733 20.5263C118.933 19.9653 121.453 18.7823 123.696 18.1743C126.376 17.5509 129.11 17.1938 131.86 17.1083C141.047 16.4853 151.487 16.0323 159.11 18.5493C165.104 20.5273 166.567 23.8493 167.289 29.6643C167.656 32.6313 167.907 35.8043 168.078 39.6363L151.15 34.9363ZM112.608 23.9143C113.49 25.7673 115.99 25.2763 118.26 25.3243C118.029 26.2019 117.854 27.0934 117.737 27.9933C117.516 29.1201 117.502 30.2776 117.696 31.4093C118.133 33.8983 121.689 34.4293 123.368 31.4153C123.429 33.0973 123.4 34.6563 124.292 35.6093C125.547 36.9493 127.887 36.2763 128.877 33.7473C129.184 36.2363 131.622 38.0213 133.692 36.8293C134.462 36.2667 134.984 35.4265 135.146 34.4863C135.304 33.5505 135.555 32.6328 135.897 31.7473L141.476 33.2983C140.543 34.6091 139.954 36.1329 139.762 37.7303C139.759 37.7985 139.77 37.8665 139.795 37.93C139.82 37.9935 139.857 38.0512 139.906 38.0992C139.954 38.1471 140.012 38.1844 140.076 38.2086C140.14 38.2327 140.208 38.2432 140.276 38.2393C142.523 38.131 144.774 38.3091 146.976 38.7693C147.413 42.2067 147.536 45.6767 147.344 49.1363C138.751 50.2033 133.563 54.6363 130.025 63.9433C127.391 63.3433 119.541 61.5643 116.96 60.9843C119.201 60.3303 128.76 57.5463 128.811 57.5313C128.94 57.4925 129.049 57.405 129.114 57.2874C129.179 57.1697 129.196 57.0312 129.161 56.9013L122.672 37.3883C122.634 37.2605 122.548 37.1524 122.431 37.0868C122.315 37.0212 122.178 37.0031 122.049 37.0363C121.428 37.2033 100.723 43.0363 100.723 43.0363L100.223 17.2813C100.803 17.1692 101.343 16.907 101.79 16.521C102.237 16.135 102.575 15.6386 102.77 15.0813L114.878 19.9913C112.562 20.8583 112 22.6453 112.608 23.9143ZM99.723 44.3683C99.739 45.9953 99.761 46.4683 99.777 46.7883C99.79 47.0693 99.761 47.2493 99.947 47.4233C100.018 47.4906 100.108 47.5357 100.204 47.5532C100.301 47.5707 100.401 47.5599 100.491 47.522C100.582 47.4842 100.659 47.4209 100.715 47.3398C100.77 47.2588 100.801 47.1634 100.803 47.0653L100.745 44.0813C102.378 43.6283 120.015 38.7363 121.863 38.1603C122.663 40.5533 127.532 55.2073 128.029 56.7013L114.913 60.5233C113.749 60.2623 100.794 57.3713 100.258 57.2523C100.167 57.2107 100.065 57.1989 99.9664 57.2184C99.8681 57.238 99.7784 57.288 99.71 57.3613C98.67 58.1333 85.078 68.2403 82.927 69.8433C82.927 69.8433 49.875 79.4623 48.508 79.8663L41.774 60.6583L99.723 44.3683ZM81.09 127.6C81.167 127.312 81.24 127.032 81.28 126.869L81.494 126.805C81.355 127.088 81.221 127.351 81.09 127.6ZM140.885 66.4763C140.185 66.2763 132.185 64.4373 131.022 64.1693C134.438 55.2923 139.635 50.9473 147.848 50.0883C147.98 50.0835 148.105 50.0287 148.198 49.9348C148.291 49.841 148.345 49.7153 148.348 49.5833C148.391 47.9133 148.43 45.9463 148.394 43.9613H168.209C168.245 46.3283 168.073 53.1423 168.12 60.6923C164.698 62.885 160.748 64.1149 156.686 64.2527C152.623 64.3905 148.599 63.4311 145.036 61.4753C144.978 61.4424 144.914 61.4214 144.847 61.4137C144.781 61.4059 144.714 61.4115 144.65 61.4301C144.586 61.4488 144.526 61.4801 144.474 61.5222C144.422 61.5643 144.379 61.6164 144.348 61.6753C144.287 61.7896 144.272 61.9229 144.305 62.0481C144.339 62.1733 144.419 62.281 144.529 62.3493C148.995 64.8296 154.151 65.778 159.207 65.0493C159.207 66.9073 159.184 85.8883 159.207 87.7433C156.254 87.9256 153.291 87.7144 150.394 87.1153C149.75 86.9803 149.494 87.9643 150.14 88.0973C156.249 89.3548 162.583 88.9609 168.489 86.9563C168.489 89.1143 168.474 95.4233 168.228 98.2993L153.673 97.9273C140.5 65.0083 141.164 66.4003 140.885 66.4763ZM100.185 14.0313L101.826 14.6973C101.705 15.0707 101.494 15.4087 101.213 15.6817C100.931 15.9547 100.586 16.1544 100.209 16.2633C100.2 15.6813 100.19 14.5183 100.186 14.0313H100.185ZM169.148 40.9883C171.195 41.5573 176.194 42.9713 176.919 43.1573C175.068 49.2783 175.566 55.0703 169.13 59.9833C169.037 49.2083 169.414 48.0443 169.149 40.9883H169.148ZM160.238 64.9003C167.027 63.6673 172.673 59.6003 174.989 54.2663C177.514 48.4473 177.008 40.4423 181.613 37.8443C182.74 37.2083 184.351 37.0443 185.167 38.1153C185.404 38.7108 185.409 39.3736 185.18 39.9723C184.932 40.7498 184.564 41.4834 184.088 42.1463C184.055 42.2048 184.034 42.2693 184.025 42.3361C184.017 42.4029 184.023 42.4706 184.041 42.5353C184.273 43.3573 184.931 42.3913 191.009 43.8973C191.807 44.0847 192.547 44.4621 193.168 44.9973C194.073 45.9853 193.555 47.8793 190.975 48.3843C190.449 48.4843 190.512 49.1923 190.954 49.3613C191.77 49.5375 192.552 49.8412 193.273 50.2613C193.6 50.5394 193.845 50.9008 193.984 51.3071C194.122 51.7135 194.147 52.1497 194.057 52.5693C193.946 52.8625 193.778 53.1312 193.564 53.3603C193.018 54.0324 192.271 54.511 191.432 54.7253C191.36 54.7962 191.31 54.8858 191.287 54.984C191.264 55.0821 191.269 55.1848 191.302 55.2801C191.335 55.3754 191.394 55.4595 191.473 55.5227C191.551 55.5859 191.646 55.6257 191.746 55.6373C192.222 55.6944 192.674 55.8791 193.053 56.1718C193.433 56.4646 193.726 56.8545 193.903 57.3004C194.079 57.7463 194.131 58.2315 194.054 58.7046C193.977 59.1778 193.773 59.6214 193.465 59.9883C193.197 60.2909 192.87 60.536 192.505 60.7087C192.14 60.8814 191.743 60.9783 191.339 60.9933C191.229 60.9949 191.121 61.032 191.034 61.0992C190.946 61.1664 190.882 61.2601 190.852 61.3663C186.731 76.0663 174.719 86.3773 160.228 87.6773C160.229 85.6793 160.239 66.5113 160.238 64.9003ZM77.575 157.263C81.686 152.27 85.1684 146.791 87.944 140.949C89.658 140.467 151.726 123.077 154.044 122.381C154.044 122.381 159.869 139.894 160.211 140.921L79.779 164.038C79.505 163.363 78.9 161.629 77.575 157.263Z"></path><path fill="#000000" d="M23.9471 115.336C23.3893 115.894 22.98 116.582 22.7568 117.338C22.5335 118.094 22.5034 118.894 22.6691 119.665C23.1411 121.833 24.4881 123.418 26.8011 123.418C27.7785 123.493 28.7492 123.205 29.5271 122.608C30.3049 122.012 30.8351 121.149 31.0161 120.185C31.4761 116.274 26.7071 113 23.9471 115.336ZM25.8471 115.583C28.9171 115.389 31.3631 119.541 29.2471 121.543C28.6348 122.058 27.8691 122.355 27.07 122.388C26.2708 122.421 25.4833 122.187 24.8311 121.724C24.0901 120.969 23.6524 119.967 23.6011 118.91C23.5871 117.375 24.2801 115.679 25.8511 115.583H25.8471Z"></path><path fill="#000000" d="M111.3 50.8003C111.17 50.8369 111.061 50.9235 110.995 51.0411C110.929 51.1587 110.912 51.2976 110.949 51.4273C110.986 51.557 111.072 51.6668 111.19 51.7326C111.307 51.7985 111.446 51.8149 111.576 51.7783C111.576 51.7783 119.11 49.5013 119.321 49.4363C119.385 49.4171 119.445 49.3853 119.496 49.3427C119.548 49.3001 119.59 49.2476 119.621 49.1883C119.666 49.1014 119.685 49.0033 119.676 48.9058C119.667 48.8082 119.63 48.7154 119.569 48.6385C119.509 48.5615 119.427 48.5036 119.335 48.4719C119.242 48.4401 119.142 48.4357 119.047 48.4593L111.3 50.8003Z"></path><path fill="#000000" d="M53.78 71.5271C53.933 71.5271 61.993 69.3001 62.355 69.2081C62.4419 69.1851 62.5211 69.1393 62.5845 69.0755C62.6478 69.0117 62.6931 68.9322 62.7155 68.8451C62.7379 68.758 62.7367 68.6665 62.712 68.58C62.6873 68.4936 62.64 68.4152 62.575 68.3531C61.223 67.1781 56.743 63.0161 56.693 62.9691C56.6297 62.9086 56.552 62.8653 56.4672 62.8434C56.3825 62.8215 56.2935 62.8217 56.2089 62.844C56.1242 62.8663 56.0467 62.9099 55.9837 62.9706C55.9207 63.0314 55.8743 63.1073 55.849 63.1911C55.149 65.4211 53.309 70.8241 53.287 70.8911C53.2682 70.9663 53.2667 71.0447 53.2827 71.1205C53.2987 71.1964 53.3316 71.2676 53.3791 71.3288C53.4265 71.39 53.4873 71.4397 53.5567 71.4741C53.6262 71.5084 53.7025 71.5265 53.78 71.5271V71.5271ZM54.558 70.2811L56.571 64.2331L61.2 68.4701L54.558 70.2811Z"></path><path fill="#000000" d="M63.673 68.1872C66.017 70.0152 69.8 67.0242 68.727 63.7202C68.4991 63.0264 68.0547 62.4239 67.4592 62.0013C66.8636 61.5787 66.1482 61.3582 65.418 61.3722C64.5892 61.4526 63.8156 61.8239 63.2344 62.4203C62.6532 63.0166 62.302 63.7996 62.243 64.6302C62.186 65.2937 62.2858 65.9613 62.5341 66.5791C62.7825 67.197 63.1726 67.7478 63.673 68.1872V68.1872ZM64.406 67.4702C63.9893 67.138 63.6648 66.7043 63.4638 66.2106C63.2628 65.717 63.1919 65.1801 63.258 64.6512C63.3084 64.1253 63.5208 63.628 63.8657 63.2279C64.2107 62.8278 64.6713 62.5445 65.184 62.4172C65.6658 62.3425 66.1589 62.4228 66.5921 62.6466C67.0253 62.8704 67.3761 63.226 67.594 63.6622C68.823 66.0142 66.071 68.5582 64.406 67.4702Z"></path><path fill="#000000" d="M71.239 66.0852C71.2706 66.192 71.3359 66.2858 71.4251 66.3527C71.5142 66.4195 71.6226 66.4558 71.734 66.4562C71.911 66.4562 76.519 65.1762 76.688 65.1292C76.8178 65.0932 76.928 65.0072 76.9944 64.89C77.0608 64.7728 77.0779 64.634 77.042 64.5042C76.924 64.0892 75.479 59.1752 75.242 58.8382C75.1833 58.77 75.1058 58.7207 75.0191 58.6965C74.9324 58.6723 74.8406 58.6743 74.755 58.7022L70.055 60.0952C69.9264 60.1325 69.8174 60.2187 69.7514 60.3353C69.6855 60.4519 69.6677 60.5897 69.702 60.7192C70.066 62.0422 70.857 64.7682 71.239 66.0852ZM70.821 60.9282L74.554 59.8212L75.914 64.2872L72.079 65.3282L70.821 60.9282Z"></path><path fill="#000000" d="M50.929 71.9004L53.235 64.8753C53.435 64.2523 52.465 63.9664 52.259 64.5934L49.959 71.6183C49.747 72.2523 50.725 72.5234 50.929 71.9004Z"></path><path fill="#000000" d="M48.8101 65.6362L46.6001 72.2882C46.3911 72.9162 47.3681 73.1932 47.5761 72.5712C48.2211 70.6312 49.6981 66.1962 49.7901 65.9182C49.9941 65.2902 49.0161 65.0172 48.8101 65.6362Z"></path><path fill="#000000" d="M113.319 180.793C114.608 180.027 117.206 178.384 118.391 177.641C118.474 177.589 118.541 177.514 118.583 177.425C118.624 177.336 118.64 177.237 118.627 177.14C118.614 177.042 118.574 176.951 118.51 176.875C118.447 176.8 118.363 176.745 118.269 176.716C117.713 176.547 114.604 175.629 113.615 175.308C113.54 175.287 113.461 175.284 113.385 175.298C113.309 175.312 113.236 175.344 113.174 175.39C113.112 175.436 113.061 175.496 113.025 175.565C112.989 175.634 112.97 175.711 112.968 175.788C112.873 177.311 112.645 178.831 112.554 180.357C112.555 180.446 112.58 180.533 112.625 180.61C112.67 180.686 112.735 180.75 112.812 180.794C112.889 180.838 112.977 180.861 113.065 180.861C113.154 180.861 113.242 180.838 113.319 180.793V180.793ZM113.648 179.393C113.686 178.966 113.885 177.016 113.93 176.464L116.91 177.364L113.648 179.393Z"></path><path fill="#000000" d="M167.759 155.906C167.759 155.906 163.014 153.256 162.81 153.141C162.694 153.077 162.557 153.062 162.429 153.097C162.301 153.133 162.192 153.217 162.126 153.332C162.059 153.447 162.04 153.583 162.073 153.712C162.106 153.84 162.188 153.951 162.301 154.02L166.419 156.32L149.755 164.633L145.165 162.07C145.049 162.009 144.913 161.995 144.787 162.032C144.661 162.068 144.554 162.152 144.488 162.265C144.423 162.379 144.403 162.514 144.435 162.641C144.466 162.769 144.546 162.879 144.657 162.949L149.389 165.592C149.389 167.671 149.359 180.676 149.355 182.562L145.165 180.221C145.049 180.16 144.913 180.146 144.787 180.183C144.661 180.219 144.554 180.303 144.488 180.416C144.423 180.53 144.403 180.665 144.435 180.792C144.466 180.92 144.546 181.03 144.657 181.1C149.834 183.994 149.727 184.019 150.019 183.9C150.156 183.87 167.593 174.425 167.759 174.331C167.836 174.287 167.901 174.223 167.945 174.146C167.99 174.069 168.013 173.981 168.012 173.892V156.345C168.014 156.256 167.992 156.168 167.947 156.09C167.902 156.013 167.837 155.949 167.759 155.906V155.906ZM167 157.165V173.587L150.373 182.573C150.392 173.804 150.396 188.192 150.396 165.442L167 157.165Z"></path><path fill="#000000" d="M145.666 164.975C145.699 164.843 145.679 164.703 145.61 164.586C145.54 164.468 145.427 164.383 145.295 164.349L128.649 161.991C128.556 161.977 128.46 161.985 128.371 162.016C128.282 162.047 128.201 162.099 128.136 162.167C128.002 162.313 128.215 161.925 124.828 173.091C124.353 172.583 119.251 167.124 118.928 166.797C118.849 166.719 118.746 166.668 118.635 166.653C118.524 166.639 118.412 166.661 118.315 166.716C117.582 167.122 98.392 177.545 98.269 177.636C97.982 177.836 98.013 178.207 98.088 182.486C98.09 182.553 98.1051 182.619 98.1326 182.68C98.1601 182.741 98.1994 182.795 98.2482 182.841C98.297 182.887 98.3544 182.922 98.417 182.946C98.4796 182.969 98.5463 182.98 98.613 182.977C98.7422 182.972 98.8646 182.918 98.9558 182.827C99.0469 182.735 99.0998 182.612 99.104 182.483V179.242L109.992 190.131V193.114C109.992 193.249 110.046 193.378 110.141 193.473C110.236 193.569 110.365 193.622 110.5 193.622C110.635 193.622 110.764 193.569 110.859 193.473C110.955 193.378 111.008 193.249 111.008 193.114V190.214C111.008 190.214 127.477 180.73 129.078 179.802V183.222C129.078 183.357 129.132 183.486 129.227 183.581C129.322 183.677 129.451 183.73 129.586 183.73C129.721 183.73 129.85 183.677 129.945 183.581C130.041 183.486 130.094 183.357 130.094 183.222V179.471C131.389 179.7 140.127 181.253 141.266 181.458V185.146C141.272 185.277 141.328 185.4 141.422 185.49C141.516 185.58 141.642 185.631 141.773 185.631C141.903 185.631 142.029 185.58 142.123 185.49C142.217 185.4 142.273 185.277 142.279 185.146V181.1L145.666 164.975ZM144.566 165.265L141.377 180.446C138.267 179.87 128.55 178.093 124.504 177.593C125.25 175.224 128.517 164.302 128.891 163.045L144.566 165.265ZM99.437 178.138C101.273 177.138 117.155 168.515 118.475 167.795L124.489 174.214C124.242 175.024 123.659 176.928 123.352 177.884C123.318 178.016 123.338 178.155 123.407 178.272C123.477 178.389 123.589 178.474 123.721 178.508C123.948 178.567 124.388 178.508 128.176 179.142C127.341 179.622 111.383 188.815 110.576 189.28L99.437 178.138Z"></path><path fill="#000000" d="M157.736 171.888C158.694 172.305 159.929 171.639 160.7 170.907C161.873 169.792 161.9 167.678 160.5 166.918C160.207 166.797 159.89 166.745 159.573 166.764C159.257 166.783 158.949 166.873 158.672 167.028C158.113 167.228 157.616 167.57 157.231 168.021C156.846 168.473 156.586 169.017 156.477 169.6C156.432 170.064 156.528 170.531 156.752 170.939C156.977 171.348 157.32 171.678 157.736 171.888V171.888ZM159.166 167.912C160.51 167.238 160.997 169.119 160.091 170.081C159.868 170.352 159.591 170.573 159.277 170.73C158.963 170.886 158.62 170.975 158.27 170.99C157.759 170.926 157.478 170.232 157.48 169.778C157.483 168.862 158.444 168.274 159.166 167.912Z"></path><path fill="#000000" d="M131.3 172.8C135.79 173.693 136.306 173.806 136.406 173.793C136.519 173.807 136.633 173.777 136.725 173.71C136.817 173.643 136.879 173.543 136.9 173.431L137.732 169.413C137.765 169.284 137.746 169.147 137.68 169.031C137.614 168.915 137.506 168.829 137.378 168.791L132.719 168.008C132.59 167.976 132.454 167.995 132.338 168.06C132.223 168.126 132.137 168.234 132.099 168.361C130.899 172.282 130.823 172.269 130.982 172.553C131.015 172.614 131.061 172.667 131.115 172.709C131.17 172.752 131.233 172.783 131.3 172.8V172.8ZM132.075 171.921L132.944 169.071L136.639 169.692L136.015 172.703L132.075 171.921Z"></path><path fill="#000000" d="M142.78 45.5883C143.108 45.1635 143.327 44.6654 143.42 44.1368C143.512 43.6083 143.475 43.0651 143.311 42.5542C143.147 42.0433 142.862 41.5799 142.479 41.2039C142.096 40.8278 141.628 40.5505 141.114 40.3957C140.6 40.2409 140.056 40.2132 139.529 40.3152C139.003 40.4171 138.509 40.6456 138.09 40.9809C137.671 41.3162 137.34 41.7482 137.125 42.2399C136.91 42.7316 136.818 43.2681 136.856 43.8033C136.898 44.4756 137.145 45.1187 137.564 45.6464C137.983 46.1741 138.553 46.5611 139.197 46.7555C139.842 46.9498 140.531 46.9421 141.172 46.7335C141.812 46.5248 142.373 46.1252 142.78 45.5883V45.5883ZM140.559 41.2943C140.969 41.3686 141.352 41.5531 141.665 41.828C141.979 42.1029 142.212 42.4578 142.339 42.8549C142.467 43.252 142.484 43.6762 142.389 44.0822C142.294 44.4883 142.09 44.8608 141.799 45.1599C141.509 45.4591 141.142 45.6736 140.739 45.7806C140.336 45.8876 139.912 45.8829 139.511 45.7672C139.11 45.6515 138.749 45.429 138.465 45.1236C138.181 44.8182 137.985 44.4413 137.899 44.0333C137.821 43.6643 137.835 43.2817 137.94 42.9193C138.044 42.5569 138.237 42.2258 138.499 41.9552C138.762 41.6846 139.087 41.4827 139.447 41.3675C139.806 41.2523 140.188 41.2271 140.559 41.2943Z"></path><path fill="#000000" d="M56.126 169.27C57.3588 168.659 58.5308 167.932 59.626 167.099C60.145 166.704 59.613 165.842 59.089 166.24C58.0057 167.063 56.8472 167.781 55.629 168.386C55.035 168.68 55.542 169.562 56.126 169.27Z"></path><path fill="#000000" d="M52.4561 90.5271L50.0751 84.5071C49.8361 83.9071 48.8601 84.1861 49.1051 84.8071L51.4861 90.8261C51.7241 91.4271 52.7001 91.1431 52.4561 90.5271Z"></path><path fill="#000000" d="M56.966 103.905L54.7 97.4999C54.483 96.8859 53.5 97.1609 53.727 97.7869L55.988 104.187C56.21 104.806 57.187 104.531 56.966 103.905Z"></path><path fill="#000000" d="M104.812 152.915C104.899 152.961 104.997 152.981 105.095 152.972C105.193 152.963 105.286 152.926 105.363 152.866C105.44 152.805 105.498 152.723 105.53 152.63C105.562 152.538 105.566 152.437 105.542 152.342L101.923 140.088C101.883 139.962 101.796 139.857 101.679 139.795C101.563 139.732 101.427 139.717 101.3 139.753C101.173 139.789 101.065 139.873 100.999 139.987C100.933 140.102 100.914 140.237 100.946 140.365C104.743 153.223 104.492 152.747 104.812 152.915Z"></path><path fill="#000000" d="M133.846 144.894C133.887 145.019 133.974 145.123 134.09 145.185C134.206 145.247 134.341 145.262 134.467 145.226C134.594 145.19 134.701 145.107 134.768 144.994C134.834 144.88 134.854 144.746 134.823 144.618C134.458 143.252 132.033 135.086 131.204 132.366C131.184 132.302 131.153 132.243 131.11 132.191C131.067 132.14 131.015 132.097 130.956 132.066C130.897 132.035 130.832 132.016 130.765 132.01C130.699 132.004 130.632 132.012 130.568 132.032C130.444 132.071 130.341 132.156 130.277 132.269C130.214 132.382 130.196 132.515 130.227 132.641L133.846 144.894Z"></path><path fill="#000000" d="M82.143 63.372L84.443 56.347C84.651 55.718 83.672 55.447 83.468 56.066L81.168 63.091C80.961 63.723 81.939 63.992 82.143 63.372Z"></path><path fill="#000000" d="M78.784 64.041L81 57.389C81.208 56.767 80.235 56.48 80.026 57.106L77.811 63.759C77.6 64.387 78.577 64.662 78.784 64.041Z"></path><path fill="#000000" d="M110.257 48.7669C110.37 48.7669 118.025 46.4409 118.125 46.4089C118.189 46.3892 118.248 46.3571 118.299 46.3144C118.351 46.2717 118.393 46.2193 118.424 46.1602C118.455 46.1011 118.474 46.0364 118.48 45.9699C118.486 45.9035 118.478 45.8365 118.458 45.7729C118.418 45.6495 118.333 45.5458 118.22 45.4827C118.107 45.4196 117.974 45.4018 117.848 45.4329C117.848 45.4329 110.324 47.7069 110.105 47.7749C109.99 47.8116 109.891 47.8883 109.828 47.9912C109.764 48.094 109.739 48.2162 109.757 48.3358C109.776 48.4554 109.836 48.5646 109.928 48.6436C110.019 48.7226 110.136 48.7663 110.257 48.7669V48.7669Z"></path><path fill="#000000" d="M112.364 53.7822C112.234 53.8188 112.124 53.9054 112.059 54.023C111.993 54.1406 111.976 54.2795 112.013 54.4092C112.05 54.5389 112.136 54.6488 112.254 54.7146C112.371 54.7804 112.51 54.7968 112.64 54.7602L120.384 52.4182C120.448 52.399 120.508 52.3672 120.559 52.3246C120.611 52.282 120.653 52.2295 120.684 52.1702C120.729 52.0833 120.748 51.9852 120.739 51.8877C120.73 51.7902 120.693 51.6973 120.632 51.6204C120.572 51.5434 120.49 51.4856 120.398 51.4538C120.305 51.422 120.205 51.4177 120.11 51.4412L112.364 53.7822Z"></path><path fill="#000000" d="M24.63 147.538C29.91 150.985 40.009 152.811 49.15 150.511C49.2772 150.473 49.3845 150.387 49.449 150.271C49.5135 150.155 49.5301 150.019 49.4952 149.891C49.4603 149.763 49.3768 149.653 49.2624 149.586C49.148 149.519 49.0118 149.499 48.883 149.531C39.526 151.804 29.863 149.812 25.154 146.669C24.6 146.3 24.082 147.181 24.63 147.538Z"></path><path fill="#000000" d="M78.209 135.278L79.077 133.361C79.346 132.769 78.463 132.269 78.189 132.872L77.321 134.789C77.05 135.385 77.937 135.877 78.209 135.278Z"></path><path fill="#000000" d="M85.169 134.876L86.016 132.65C86.25 132.037 85.279 131.743 85.045 132.358L84.197 134.583C83.961 135.2 84.938 135.483 85.169 134.876Z"></path><path fill="#000000" d="M124.517 23.3472C124.206 24.3524 124.034 25.3954 124.006 26.4472C124.006 26.5819 124.06 26.7111 124.155 26.8064C124.25 26.9017 124.379 26.9552 124.514 26.9552C124.649 26.9552 124.778 26.9017 124.873 26.8064C124.968 26.7111 125.022 26.5819 125.022 26.4472C125.051 25.4882 125.21 24.5375 125.494 23.6212C125.523 23.4941 125.502 23.3609 125.435 23.249C125.368 23.137 125.261 23.055 125.136 23.0198C125.01 22.9847 124.876 22.999 124.761 23.0599C124.646 23.1209 124.558 23.2237 124.517 23.3472V23.3472Z"></path><path fill="#000000" d="M130.968 24.743C130.364 25.6953 130.087 26.8191 130.181 27.943C130.238 28.594 131.256 28.579 131.196 27.92C131.111 26.9865 131.337 26.0511 131.84 25.26C132.2 24.705 131.32 24.191 130.968 24.743Z"></path><path fill="#000000" d="M163.012 23.8659C161.823 22.8558 160.559 21.9372 159.231 21.1179C159.115 21.0504 158.977 21.0314 158.848 21.0651C158.718 21.0988 158.607 21.1825 158.538 21.2978C158.47 21.4132 158.45 21.5509 158.483 21.6809C158.515 21.8109 158.598 21.9227 158.713 21.9919C159.977 22.7684 161.18 23.6392 162.313 24.5969C162.812 25.0209 163.514 24.2909 163.012 23.8659Z"></path><path fill="#000000" d="M165.237 84.4222L170.809 82.4222C171.421 82.2022 171.145 81.2222 170.521 81.4482L164.948 83.4482C164.331 83.6702 164.618 84.6452 165.237 84.4222Z"></path><path fill="#000000" d="M185.539 48.6371H188.739C188.806 48.6351 188.871 48.6199 188.932 48.5922C188.992 48.5646 189.047 48.5251 189.092 48.4761C189.158 48.4044 189.202 48.3152 189.219 48.2191C189.236 48.123 189.225 48.024 189.187 47.934C189.15 47.844 189.087 47.7668 189.007 47.7115C188.926 47.6562 188.832 47.6251 188.734 47.6221H185.541C185.41 47.6279 185.287 47.6839 185.196 47.7784C185.106 47.873 185.056 47.9987 185.056 48.1296C185.056 48.2604 185.106 48.3862 185.196 48.4807C185.287 48.5753 185.41 48.6313 185.541 48.6371H185.539Z"></path><path fill="#000000" d="M185.566 56.5379C186.471 56.3712 187.389 56.2849 188.309 56.2799C188.44 56.2741 188.563 56.2181 188.654 56.1236C188.744 56.029 188.795 55.9033 188.795 55.7724C188.795 55.6416 188.744 55.5158 188.654 55.4213C188.563 55.3267 188.44 55.2707 188.309 55.2649C187.34 55.2515 186.373 55.3451 185.424 55.5439C184.824 55.6649 185 56.5379 185.566 56.5379Z"></path><path fill="#000000" d="M150.687 128.079C151.646 127.185 152.541 126.224 153.365 125.204C153.774 124.697 153.047 123.991 152.63 124.504C150.379 127.29 149.704 127.263 149.83 127.804C149.85 127.893 149.892 127.975 149.954 128.043C150.015 128.11 150.093 128.16 150.18 128.188C150.266 128.216 150.359 128.22 150.448 128.201C150.537 128.182 150.619 128.14 150.687 128.079V128.079Z"></path><path fill="#000000" d="M153.47 138.871L158.23 140.55C158.852 140.765 159.137 139.794 158.517 139.576L153.757 137.898C153.132 137.678 152.855 138.653 153.47 138.871Z"></path><path fill="#000000" d="M80.931 163.149C81.9156 162.367 82.7825 161.448 83.505 160.42C83.888 159.876 83.016 159.359 82.64 159.889C81.9633 160.841 81.1533 161.69 80.235 162.412C79.713 162.822 80.423 163.552 80.931 163.149Z"></path><path fill="#000000" d="M145.588 11.6449C153.304 11.0236 160.988 13.1701 167.265 17.6999C167.805 18.0869 168.326 17.2159 167.798 16.8359C161.357 12.1991 153.479 10.0017 145.568 10.6359C144.91 10.6829 144.938 11.6999 145.588 11.6449Z"></path><path fill="#000000" d="M145.59 7.53712C159.881 6.45912 168.825 12.5721 169.501 12.5721C169.612 12.5723 169.721 12.5359 169.81 12.4685C169.898 12.401 169.962 12.3063 169.992 12.1989C170.021 12.0915 170.015 11.9773 169.973 11.874C169.931 11.7707 169.857 11.6839 169.761 11.6271C162.348 7.65962 153.956 5.88869 145.572 6.52212C144.924 6.57112 144.926 7.58012 145.59 7.53712Z"></path><path fill="#000000" d="M25.839 102.024L26.248 95.0139C26.286 94.3609 25.272 94.3379 25.233 94.9999L24.824 102.01C24.785 102.668 25.8 102.679 25.839 102.024Z"></path><path fill="#000000" d="M21.435 101.941C21.735 102.523 22.624 102.019 22.317 101.441L19.317 95.7689C19.01 95.1889 18.128 95.6899 18.435 96.2689L21.435 101.941Z"></path><path fill="#000000" d="M13.91 100.589C20.028 104.602 19.746 104.457 19.945 104.457C20.0533 104.449 20.1562 104.407 20.2398 104.338C20.3233 104.269 20.3833 104.175 20.4114 104.071C20.4395 103.966 20.4343 103.855 20.3966 103.753C20.359 103.651 20.2906 103.564 20.201 103.502L14.434 99.7193C13.88 99.3563 13.364 100.23 13.91 100.589Z"></path></g></svg>