<svg xmlns="http://www.w3.org/2000/svg" fill="none" viewBox="0 0 200 200" height="400" width="400"><path fill="#000000" d="M194.914 14.4567C194.913 14.3546 194.872 14.2569 194.8 14.1847C194.728 14.1124 194.63 14.0715 194.528 14.0707C141.147 13.6887 12.664 14.0167 5.76399 14.0367C5.46399 14.0367 5.09499 14.0417 5.08899 14.4567V65.4927C5.08899 65.5951 5.12966 65.6933 5.20205 65.7657C5.27443 65.8381 5.37262 65.8787 5.47499 65.8787C5.57736 65.8787 5.67554 65.8381 5.74793 65.7657C5.82032 65.6933 5.86099 65.5951 5.86099 65.4927C5.86099 65.4927 5.89999 15.4007 5.87599 14.8417C5.87599 14.8417 36.884 14.8827 38.131 14.8477C38.131 14.8477 38.131 57.3607 38.131 57.3847C38.136 57.4836 38.1788 57.5767 38.2506 57.6449C38.3223 57.7131 38.4175 57.7511 38.5165 57.7511C38.6155 57.7511 38.7107 57.7131 38.7824 57.6449C38.8541 57.5767 38.897 57.4836 38.902 57.3847C38.902 57.3847 38.938 15.2957 38.921 14.8417C38.921 14.8417 99.092 14.8797 99.798 14.8527V57.3847C99.798 57.4871 99.8387 57.5853 99.911 57.6577C99.9834 57.7301 100.082 57.7707 100.184 57.7707C100.286 57.7707 100.385 57.7301 100.457 57.6577C100.529 57.5853 100.57 57.4871 100.57 57.3847C100.57 57.3847 100.615 16.4627 100.575 14.8417C100.575 14.8417 140.831 14.8887 142.464 14.8467C142.464 14.8467 142.464 68.2297 142.464 68.2597C142.469 68.3586 142.512 68.4517 142.584 68.5199C142.655 68.5881 142.751 68.6261 142.849 68.6261C142.948 68.6261 143.044 68.5881 143.115 68.5199C143.187 68.4517 143.23 68.3586 143.235 68.2597C143.235 68.2597 143.27 15.4397 143.248 14.8417C143.248 14.8417 193.573 14.8767 194.148 14.8557C194.148 14.8557 194.148 68.2297 194.148 68.2557C194.153 68.3546 194.196 68.4477 194.268 68.5159C194.339 68.5841 194.435 68.6221 194.533 68.6221C194.632 68.6221 194.728 68.5841 194.799 68.5159C194.871 68.4477 194.914 68.3546 194.919 68.2557C194.946 66.4557 194.93 16.7217 194.914 14.4567Z"></path><path fill="#000000" d="M54.164 121.753C54.584 119.873 55.602 115.311 55.602 115.311C55.71 114.827 54.967 114.62 54.858 115.105C54.439 116.985 53.42 121.547 53.42 121.547C53.312 122.031 54.056 122.238 54.164 121.753Z"></path><path fill="#000000" d="M57.162 123.434L61.485 118.44C61.808 118.066 61.265 117.518 60.939 117.894L56.616 122.894C56.293 123.263 56.836 123.811 57.162 123.434Z"></path><path fill="#000000" d="M122.6 89.494C122.59 89.4841 122.579 89.4747 122.568 89.466C119.012 76.586 106.003 78.577 103.927 89.378C102.104 91.737 101.817 94.922 103.998 96.878C104.061 96.934 104.139 96.9696 104.223 96.9804C104.306 96.9911 104.391 96.9763 104.466 96.938C104.872 96.7329 105.2 96.4007 105.399 95.992C106.592 93.533 106.193 91.533 104.722 89.344C106.641 80.844 115.133 78.579 119.561 84.736C120.618 86.2131 121.384 87.8781 121.818 89.642C120.042 91.976 119.74 95.142 121.918 97.099C121.981 97.1552 122.059 97.1911 122.143 97.2018C122.226 97.2125 122.311 97.1976 122.386 97.159C122.792 96.9539 123.12 96.6217 123.319 96.213C124.526 93.741 124.123 91.723 122.6 89.494Z"></path><path fill="#000000" d="M146.247 18.9007L149.142 21.3087C149.521 21.6237 150.07 21.0807 149.687 20.7627L146.787 18.3557C146.413 18.0427 145.864 18.5857 146.247 18.9007Z"></path><path fill="#000000" d="M190.556 18.6502C189.525 19.3276 188.493 20.0042 187.462 20.6802C187.049 20.9522 187.435 21.6202 187.852 21.3472L190.946 19.3162C191.359 19.0452 190.973 18.3772 190.556 18.6502Z"></path><path fill="#000000" d="M108.5 18.248H104.146C104.044 18.2516 103.947 18.2939 103.876 18.3664C103.804 18.4389 103.763 18.5361 103.76 18.638C103.737 20.19 103.713 21.746 103.76 23.298C103.76 23.4004 103.801 23.4986 103.873 23.571C103.945 23.6434 104.044 23.684 104.146 23.684C104.248 23.684 104.347 23.6434 104.419 23.571C104.491 23.4986 104.532 23.4004 104.532 23.298C104.494 21.874 104.509 20.448 104.532 19.023C105.856 19.023 107.18 19.031 108.504 19.016C108.606 19.016 108.704 18.9756 108.776 18.9036C108.848 18.8316 108.888 18.7339 108.888 18.632C108.888 18.5302 108.848 18.4325 108.776 18.3605C108.704 18.2885 108.606 18.248 108.504 18.248H108.5Z"></path><path fill="#000000" d="M140.253 18.334C138.853 18.309 137.461 18.279 136.065 18.252C135.963 18.252 135.864 18.2926 135.792 18.365C135.72 18.4374 135.679 18.5356 135.679 18.638C135.679 18.7403 135.72 18.8385 135.792 18.9109C135.864 18.9833 135.963 19.024 136.065 19.024C137.332 19.058 138.6 19.073 139.865 19.098V23.298C139.865 23.4003 139.906 23.4985 139.978 23.5709C140.05 23.6433 140.149 23.684 140.251 23.684C140.353 23.684 140.452 23.6433 140.524 23.5709C140.596 23.4985 140.637 23.4003 140.637 23.298V18.72C140.635 18.6186 140.594 18.5218 140.522 18.45C140.451 18.3781 140.354 18.3365 140.253 18.334V18.334Z"></path><path fill="#000000" d="M40.464 17.7811L43.537 20.7521C43.894 21.0971 44.437 20.5521 44.082 20.2061L41.009 17.2351C40.652 16.8901 40.106 17.4351 40.464 17.7811Z"></path><path fill="#000000" d="M96.97 17.824L93.425 20.547C93.3392 20.601 93.2772 20.6856 93.2514 20.7836C93.2256 20.8816 93.238 20.9858 93.286 21.075C93.3377 21.1633 93.4224 21.2274 93.5214 21.2533C93.6204 21.2792 93.7257 21.2647 93.814 21.213L97.359 18.491C97.4446 18.4368 97.5064 18.3522 97.532 18.2542C97.5576 18.1562 97.5451 18.0521 97.497 17.963C97.4716 17.9192 97.4377 17.8809 97.3975 17.8502C97.3572 17.8196 97.3113 17.7971 97.2623 17.7842C97.2134 17.7713 97.1624 17.7682 97.1122 17.775C97.062 17.7818 97.0137 17.7985 96.97 17.824V17.824Z"></path><path fill="#000000" d="M7.971 18.9685L9.832 22.3815C10.07 22.8175 10.732 22.4285 10.499 21.9925L8.637 18.5795C8.4 18.1435 7.733 18.5325 7.971 18.9685Z"></path><path fill="#000000" d="M35.4 18.9125L33.579 22.4015C33.35 22.8415 34.015 23.2325 34.245 22.7915C34.851 21.6295 35.4563 20.4671 36.061 19.3045C36.291 18.8615 35.625 18.4715 35.4 18.9125Z"></path><path fill="#000000" d="M8.90001 100.434C8.30868 101.292 7.71802 102.15 7.12802 103.007C6.84502 103.416 7.51402 103.807 7.79402 103.396L9.56602 100.824C9.85202 100.414 9.18301 100.027 8.90001 100.434Z"></path><path fill="#000000" d="M32.947 99.5662C32.618 99.1932 32.074 99.7402 32.401 100.112L35.362 103.473C35.691 103.847 36.235 103.299 35.907 102.927L32.947 99.5662Z"></path><path fill="#000000" d="M42.91 99.8623C42.116 100.91 41.3227 101.959 40.53 103.007C40.23 103.407 40.9 103.787 41.196 103.396L43.576 100.252C43.876 99.8563 43.206 99.4713 42.91 99.8623Z"></path><path fill="#000000" d="M95.177 99.0703C94.844 98.7003 94.299 99.2483 94.631 99.6163L98.107 103.473C98.44 103.843 98.985 103.296 98.653 102.927C97.4943 101.643 96.3356 100.357 95.177 99.0703Z"></path><path fill="#000000" d="M82.221 35.3354L80.31 35.4424C79.918 32.5604 78.424 29.4484 75.874 27.9344C71.522 25.3504 65.711 29.1124 65.053 35.3754L63.362 35.3354C63.2631 35.3404 63.17 35.3832 63.1018 35.455C63.0336 35.5267 62.9956 35.6219 62.9956 35.7209C62.9956 35.8199 63.0336 35.915 63.1018 35.9868C63.17 36.0585 63.2631 36.1013 63.362 36.1064L67.431 36.2064C67.5333 36.2064 67.6315 36.1657 67.7039 36.0933C67.7763 36.0209 67.817 35.9228 67.817 35.8204C67.817 35.718 67.7763 35.6198 67.7039 35.5474C67.6315 35.4751 67.5333 35.4344 67.431 35.4344L65.822 35.3964C66.734 28.1304 74.372 24.9654 78.058 31.3274C78.8132 32.6065 79.3143 34.0193 79.534 35.4884L77.712 35.5884C77.219 35.6164 77.212 36.3884 77.712 36.3604L82.221 36.1074C82.715 36.0794 82.718 35.3074 82.221 35.3354Z"></path><path fill="#000000" d="M25.114 46.7929H25.103C25.2929 46.6865 25.4502 46.5304 25.5582 46.3414C25.6662 46.1524 25.7207 45.9375 25.716 45.7199C25.6598 45.3876 25.5014 45.0811 25.2628 44.843C25.0243 44.605 24.7174 44.4473 24.385 44.3919C24.1053 44.326 23.818 44.2987 23.531 44.3109C23.8189 43.9634 24.0036 43.5421 24.064 43.0949C24.1264 42.6752 24.0207 42.2479 23.7697 41.9058C23.5188 41.5637 23.143 41.3344 22.724 41.2679C20.838 40.9789 19.78 43.1829 19.305 45.0379C19.0576 46.0893 18.864 47.1527 18.725 48.2239C18.7189 48.2753 18.724 48.3273 18.7399 48.3765C18.7559 48.4257 18.7823 48.4709 18.8173 48.5089C18.8524 48.5469 18.8953 48.5769 18.943 48.5967C18.9908 48.6166 19.0423 48.6258 19.094 48.6239C20.2299 48.5867 21.367 48.6422 22.494 48.7899C23.407 48.9019 24.648 49.3729 25.448 48.7089C25.6108 48.5892 25.737 48.4264 25.8124 48.2389C25.8877 48.0514 25.9093 47.8465 25.8746 47.6474C25.8398 47.4483 25.7503 47.2629 25.6159 47.1119C25.4815 46.9609 25.3077 46.8505 25.114 46.7929Z"></path><path fill="#000000" d="M74.4 184.047C70.8295 184.064 67.2716 183.622 63.814 182.731C59.7728 181.707 55.7947 180.448 51.9 178.961C51.3347 178.751 50.7915 178.486 50.278 178.17C49.878 177.918 49.55 178.459 49.81 178.776C52.08 181.541 55.566 183.192 58.887 184.326C62.4296 185.533 66.1645 186.075 69.904 185.926C71.5126 185.871 73.0925 185.485 74.546 184.793C74.6284 184.759 74.6965 184.697 74.7386 184.618C74.7807 184.539 74.7944 184.449 74.7772 184.361C74.76 184.273 74.7131 184.194 74.6444 184.137C74.5757 184.08 74.4893 184.048 74.4 184.047V184.047Z"></path><path fill="#000000" d="M101.09 175.901C101.067 175.831 101.025 175.769 100.968 175.721C100.911 175.674 100.842 175.644 100.769 175.634C100.696 175.625 100.621 175.636 100.554 175.667C100.487 175.698 100.43 175.747 100.39 175.809C97.515 180.592 94.128 182.357 88.666 183.509C86.1954 184.024 83.6937 184.375 81.177 184.561C80.671 184.525 80.682 185.395 81.177 185.333C85.651 185.505 92.603 185.055 96.887 183.586C97.6733 183.395 98.4048 183.025 99.0245 182.504C99.6443 181.984 100.136 181.327 100.46 180.586C101.147 179.126 101.367 177.49 101.09 175.901V175.901Z"></path><path fill="#000000" d="M51.633 146.164V175.6C51.633 175.703 51.6737 175.801 51.7461 175.873C51.8184 175.946 51.9166 175.986 52.019 175.986C52.1214 175.986 52.2195 175.946 52.2919 175.873C52.3643 175.801 52.405 175.703 52.405 175.6V145.85C52.4048 145.766 52.3769 145.684 52.3256 145.617C52.2743 145.549 52.2025 145.501 52.121 145.478C51.71 145.368 5.603 134.188 5.578 134.178C5.095 134.061 4.889 134.805 5.372 134.922C15.313 137.339 51.433 146.127 51.633 146.164Z"></path><path fill="#000000" d="M188.726 90.8684C188.726 90.8684 182.735 54.5024 182.511 53.1394C181.936 49.6494 181.327 46.0104 179.043 43.1724C178.193 42.0924 177.09 41.2376 175.832 40.683C174.575 40.1284 173.2 39.8909 171.829 39.9914C172.182 39.5294 172.534 39.0664 172.887 38.6024C173.187 38.2074 172.518 37.8234 172.221 38.2134L171.139 39.6334L170.049 38.3334C169.73 37.9524 169.187 38.5004 169.503 38.8794C169.842 39.2848 170.181 39.6898 170.518 40.0944C168.729 40.2879 167.022 40.9445 165.564 41.9994C162.392 44.3194 161.783 48.3414 161.112 51.9334C158.048 68.3434 158.183 68.0474 157.547 69.3724C157.182 70.1575 156.598 70.8202 155.865 71.2804C154.966 71.6839 153.982 71.8588 152.999 71.7894C152.9 71.7945 152.807 71.8373 152.739 71.909C152.671 71.9808 152.633 72.076 152.633 72.1749C152.633 72.2739 152.671 72.3691 152.739 72.4409C152.807 72.5126 152.9 72.5554 152.999 72.5604H171.415C171.427 74.7491 171.448 76.9384 171.477 79.1284C172.311 79.1448 173.143 79.0438 173.949 78.8284C174.709 78.5224 175.374 78.0216 175.879 77.3764C176.384 76.7313 176.71 75.9646 176.824 75.1534C177.478 72.1534 177.369 60.1024 177.283 56.8994C177.283 56.7971 177.324 56.6989 177.396 56.6265C177.468 56.5541 177.567 56.5134 177.669 56.5134C177.771 56.5134 177.87 56.5541 177.942 56.6265C178.014 56.6989 178.055 56.7971 178.055 56.8994C178.173 60.7994 178.164 65.8084 177.981 70.6884C178.043 72.6769 177.774 74.6619 177.186 76.5624C176.889 77.3703 176.387 78.0876 175.731 78.6445C175.074 79.2013 174.285 79.5789 173.439 79.7404C172.792 79.8336 172.14 79.8853 171.487 79.8954C171.531 82.9268 171.598 85.9568 171.687 88.9854C171.646 90.3067 171.885 91.6216 172.387 92.8444C172.92 93.876 173.782 94.7 174.837 95.1854C177.82 96.5614 181.948 96.3684 185.032 95.5534C187.7 95.0114 189.046 92.9804 188.726 90.8684ZM174.826 63.2214C174.551 64.1075 173.963 64.8635 173.172 65.3487C172.381 65.8339 171.441 66.0154 170.526 65.8594C169.597 65.8439 168.679 65.6518 167.821 65.2934C166.151 64.5704 165.721 62.7434 165.746 60.9464C165.752 58.8861 165.867 56.8276 166.091 54.7794C166.298 54.6261 166.528 54.5066 166.772 54.4254C167.664 54.2164 168.24 54.7494 168.98 55.2874C169.38 55.5794 169.768 54.9104 169.369 54.6214C168.888 54.2037 168.335 53.8776 167.736 53.6594C167.22 53.5347 166.677 53.5952 166.201 53.8304C166.316 52.6715 166.497 51.52 166.742 50.3814C166.926 49.6036 167.409 48.9296 168.086 48.5054C169.04 48.0892 170.073 47.8852 171.114 47.9076C172.155 47.9301 173.179 48.1784 174.114 48.6354C175.899 49.5544 175.72 52.2684 175.586 54.4354C174.98 54.0489 174.262 53.8761 173.547 53.9444C172.831 54.0127 172.159 54.3183 171.637 54.8124C171.255 55.1304 171.801 55.6684 172.183 55.3584C172.642 54.9373 173.247 54.7108 173.87 54.7265C174.493 54.7421 175.086 54.9988 175.524 55.4424C175.311 58.9364 175.249 61.8944 174.824 63.2214H174.826Z"></path><path fill="#000000" d="M171.546 58.0271C171.373 58.2007 171.159 58.3288 170.924 58.4001C170.689 58.4714 170.441 58.4838 170.2 58.4361C169.715 58.3361 169.509 59.0751 169.994 59.1801C170.367 59.2653 170.755 59.2543 171.122 59.1481C171.49 59.0419 171.824 58.8441 172.094 58.5731C172.166 58.5007 172.207 58.4025 172.207 58.3001C172.207 58.1977 172.166 58.0995 172.094 58.0271C172.022 57.9547 171.923 57.9141 171.821 57.9141C171.719 57.9141 171.62 57.9547 171.548 58.0271H171.546Z"></path><path fill="#000000" d="M134.764 52.324C128.864 40.524 115.475 44.068 113.081 54.133C112.673 55.769 112.538 57.461 112.681 59.141C112.699 59.327 112.844 59.556 113.067 59.527C114.205 59.375 114.729 59.243 118.923 58.382C118.189 57.6105 117.683 56.6508 117.462 55.6094C117.24 54.568 117.311 53.4855 117.667 52.482C118.036 52.315 118.447 52.2594 118.847 52.3221C119.248 52.3848 119.621 52.5631 119.922 52.835C120.289 53.168 120.837 52.623 120.467 52.29C120.145 51.9904 119.76 51.7678 119.34 51.6391C118.919 51.5104 118.475 51.4789 118.041 51.547C118.506 50.6088 119.199 49.8023 120.057 49.201C120.914 48.5997 121.908 48.2229 122.949 48.105C123.103 52.012 124.001 54.885 127.516 57.805C129.733 59.5503 132.184 60.974 134.799 62.034C134.905 62.0764 135.023 62.0761 135.128 62.0332C135.234 61.9903 135.319 61.9082 135.365 61.804C135.939 60.2709 136.183 58.6336 136.079 56.9996C135.976 55.3657 135.527 53.7723 134.764 52.324V52.324Z"></path><path fill="#000000" d="M121.223 55.6922C121.656 54.7953 121.9 53.8192 121.941 52.8242C121.961 52.3242 121.189 52.3242 121.17 52.8242C121.136 53.6836 120.928 54.5271 120.557 55.3032C120.343 55.7492 121.007 56.1402 121.223 55.6922Z"></path><path fill="#000000" d="M72.258 35.3753C72.677 35.6453 73.064 34.9753 72.648 34.7083C72.148 34.3863 71.641 34.0753 71.148 33.7423C70.84 33.5343 70.47 33.9013 70.625 34.2423C70.708 34.4273 70.779 34.4213 72.258 35.3753Z"></path><path fill="#000000" d="M75.291 33.4721C74.8448 33.8461 74.3741 34.1899 73.882 34.5011C73.46 34.7601 73.846 35.4271 74.272 35.1671C74.8248 34.8274 75.348 34.4417 75.836 34.0141C76.217 33.6841 75.645 33.1611 75.291 33.4721Z"></path><path fill="#000000" d="M23.937 51.5533C22.9312 51.9039 21.858 52.0179 20.801 51.8863C20.7025 51.8626 20.5987 51.8772 20.5105 51.9271C20.4223 51.9771 20.3564 52.0586 20.326 52.1553C20.2987 52.2539 20.3117 52.3594 20.3621 52.4485C20.4126 52.5375 20.4963 52.6029 20.595 52.6303C21.7876 52.7916 23.0013 52.6777 24.143 52.2973C24.607 52.1323 24.407 51.3873 23.937 51.5533Z"></path><path fill="#000000" d="M23.2 53.5831C23.168 53.4877 23.102 53.4075 23.0145 53.3578C22.927 53.3082 22.8243 53.2926 22.726 53.3141C22.6274 53.3412 22.5435 53.4064 22.4929 53.4952C22.4423 53.5841 22.429 53.6894 22.456 53.7881C22.7052 54.3823 23.0353 54.9393 23.437 55.4431C23.717 55.8021 24.302 55.3001 23.983 54.8981C23.6738 54.4903 23.4112 54.0492 23.2 53.5831V53.5831Z"></path><path fill="#000000" d="M113.169 93.9878C113.026 94.4518 111.749 94.5938 111.684 94.0358C111.627 93.5478 110.855 93.5428 110.912 94.0358C111.083 95.4948 113.506 95.5158 113.912 94.1938C114.059 93.7178 113.315 93.5138 113.169 93.9878Z"></path><path fill="#000000" d="M37.636 128.18C36.836 128.973 36.093 129.811 35.3 130.606C35.048 130.859 35.371 131.306 35.488 131.35L37.853 132.207C38.131 132.326 38.333 132.034 38.341 131.835C38.3944 130.757 38.386 129.678 38.316 128.601C38.246 128.215 37.937 127.88 37.636 128.18ZM37.587 129.343C37.608 129.994 37.602 130.671 37.587 131.291L36.2 130.791C36.643 130.327 37.143 129.801 37.587 129.343Z"></path><g><path fill="#000000" d="M5.49001 65.9278C5.60404 65.9236 5.71225 65.8764 5.79293 65.7957C5.87361 65.7151 5.9208 65.6068 5.92501 65.4928C5.92501 65.4928 5.95601 15.4458 5.94101 14.9068C5.94101 14.9068 36.841 14.9448 38.066 14.9128V57.3858C38.0736 57.5 38.1243 57.607 38.2079 57.6851C38.2915 57.7633 38.4016 57.8068 38.516 57.8068C38.6304 57.8068 38.7406 57.7633 38.8241 57.6851C38.9077 57.607 38.9584 57.5 38.966 57.3858C38.966 57.3858 39 15.3408 38.986 14.9068C38.986 14.9068 99.047 14.9318 99.734 14.9068C99.734 14.9068 99.734 57.3558 99.734 57.3808C99.734 57.5002 99.7814 57.6146 99.8658 57.699C99.9502 57.7834 100.065 57.8308 100.184 57.8308C100.303 57.8308 100.418 57.7834 100.502 57.699C100.587 57.6146 100.634 57.5002 100.634 57.3808C100.634 57.3808 100.677 16.5008 100.641 14.9018C100.641 14.9018 140.788 14.9458 142.399 14.9018V68.2598C142.407 68.374 142.457 68.481 142.541 68.5591C142.624 68.6373 142.735 68.6808 142.849 68.6808C142.963 68.6808 143.074 68.6373 143.157 68.5591C143.241 68.481 143.291 68.374 143.299 68.2598C143.299 68.2598 143.32 15.4838 143.305 14.9068C143.305 14.9068 193.527 14.9278 194.077 14.9128V68.2598C194.085 68.374 194.135 68.481 194.219 68.5591C194.302 68.6373 194.413 68.6808 194.527 68.6808C194.641 68.6808 194.752 68.6373 194.835 68.5591C194.919 68.481 194.969 68.374 194.977 68.2598V14.4598C194.975 14.341 194.927 14.2275 194.843 14.1436C194.759 14.0598 194.645 14.0121 194.526 14.0108C128.778 13.5558 76.416 14.0108 5.47301 14.0108C5.35424 14.0121 5.24068 14.0598 5.1566 14.1437C5.07251 14.2276 5.02457 14.341 5.02301 14.4598C5.02301 14.4598 5.02301 65.4678 5.02301 65.4968C5.0252 65.5558 5.03903 65.6138 5.06372 65.6675C5.08841 65.7211 5.12346 65.7694 5.16686 65.8094C5.21027 65.8495 5.26116 65.8806 5.31662 65.9009C5.37208 65.9212 5.431 65.9304 5.49001 65.9278V65.9278Z"></path><path fill="#000000" d="M194.528 71.719H185.637C184.153 62.719 182.682 53.783 182.573 53.119C181.996 49.619 181.394 45.961 179.089 43.119C178.246 42.0512 177.157 41.2027 175.915 40.6456C174.674 40.0885 173.316 39.8392 171.958 39.919L172.942 38.627C173.002 38.5238 173.018 38.4013 172.988 38.286C172.958 38.1707 172.883 38.0719 172.781 38.011C172.677 37.9535 172.555 37.9381 172.441 37.9681C172.326 37.9981 172.227 38.0711 172.165 38.172L171.137 39.522C170.79 39.1067 170.442 38.6907 170.095 38.274C169.723 37.83 169.089 38.474 169.458 38.911L170.385 40.021C168.266 40.237 166.277 41.1477 164.729 42.6112C163.181 44.0748 162.16 46.0091 161.826 48.113C161.491 49.422 161.526 49.338 158.543 65.329C158.119 67.598 157.806 70.004 155.833 71.212C155.09 71.5607 154.276 71.7319 153.456 71.712C146.805 71.601 144.27 71.596 143.271 71.649C142.918 71.668 142.39 71.685 142.399 72.162V80.815C140.027 73.531 133.54 65.915 126.068 64.773C120.646 64.0146 115.132 65.2245 110.526 68.1833C105.919 71.1421 102.526 75.6538 100.961 80.9C100.872 81.168 100.788 81.439 100.704 81.709C100.704 81.709 100.759 63.29 100.762 62.403C100.762 61.787 101.913 62.886 76.592 44.439C75.6252 43.6498 74.5248 43.0402 73.343 42.639C72.0864 42.338 70.7635 42.4991 69.616 43.093C63.98 45.641 45.916 57.308 38.438 61.76C38.3274 61.8105 38.2337 61.8915 38.1677 61.9936C38.1018 62.0957 38.0665 62.2145 38.066 62.336C38.054 62.895 38.057 62.716 38.057 71.896C34.7602 68.2242 30.3757 65.7028 25.544 64.7C26.5917 61.9023 27.0559 58.9198 26.908 55.936C26.908 55.8167 26.8606 55.7022 26.7762 55.6178C26.6918 55.5334 26.5773 55.486 26.458 55.486C26.3386 55.486 26.2242 55.5334 26.1398 55.6178C26.0554 55.7022 26.008 55.8167 26.008 55.936C26.1103 58.8671 25.6479 61.7906 24.646 64.547C22.3868 64.2506 20.0935 64.3419 17.865 64.817C17.4559 63.8405 17.184 62.8121 17.057 61.761C16.8126 59.8295 16.7504 57.8792 16.871 55.936C16.896 55.357 15.996 55.358 15.971 55.936C15.8649 57.7846 15.9141 59.6387 16.118 61.479C16.2409 62.6866 16.53 63.8715 16.977 65C13.0029 66.016 9.21069 67.6431 5.736 69.823C5.448 69.996 5.061 70.133 5.025 70.509C5.016 70.609 5.025 86.309 5.025 105.338C5.0263 105.457 5.07412 105.571 5.15824 105.655C5.24235 105.739 5.35605 105.787 5.475 105.788C5.475 105.788 96.718 105.8 99 105.8C94.8053 109.735 91.7335 114.716 90.1 120.231C88.632 120.74 64.769 128.852 64.518 128.931C64.0235 128.054 63.3015 127.326 62.4281 126.824C61.5546 126.323 60.5621 126.066 59.555 126.081C54.581 126.069 51.137 132.594 53.202 136.445C53.74 137.445 54.858 138.455 56.073 138.011C56.5725 137.75 57.0112 137.387 57.36 136.944C57.7089 136.502 57.9601 135.991 58.097 135.444C58.374 134.691 59.052 132.973 60.147 133.344C60.5965 133.552 60.9879 133.868 61.287 134.263C61.4423 134.436 61.5885 134.618 61.725 134.806C61.625 135.271 61.547 135.742 61.492 136.215C61.297 137.16 61.4763 138.144 61.992 138.959C61.392 139.044 53.035 140.215 52.392 140.278L49.192 121.56C49.188 121.463 49.1477 121.371 49.0789 121.302C49.0101 121.234 48.918 121.194 48.821 121.19L25.593 117.345C25.5165 117.326 25.4365 117.328 25.3606 117.349C25.2847 117.37 25.2156 117.41 25.1599 117.466C25.1042 117.522 25.0638 117.591 25.0427 117.667C25.0215 117.742 25.0202 117.823 25.039 117.899C25.493 119.947 28.883 135.31 29.063 136.05C29.0815 136.126 29.1206 136.196 29.176 136.251C29.2313 136.306 29.3009 136.346 29.377 136.364C31.2 136.8 51.9 141.2 51.9 141.2C53.076 141.173 53.965 141 62.76 139.762C63.3499 140.221 64.0701 140.481 64.8172 140.505C65.5643 140.53 66.2998 140.316 66.918 139.896C66.9876 140.416 67.2607 140.887 67.6773 141.206C68.0939 141.524 68.62 141.665 69.14 141.596C70.1009 141.405 71.0066 141 71.7906 140.412C72.5746 139.825 73.2168 139.069 73.67 138.2L87.063 135.24C87.027 135.531 86.991 135.822 86.957 136.113C83.3372 136.741 79.9525 138.329 77.157 140.713C74.8797 142.697 72.848 144.946 71.105 147.413C67.229 152.682 64.0368 158.422 61.605 164.494C60.452 167.367 59.285 170.526 60.242 173.627C61.788 178.643 67.442 181.4 72.425 180.851C84.457 179.526 90.807 164.863 96.739 160.325C100.463 157.477 106.09 159.237 110.526 161.018C114.366 162.481 116.996 164.142 121.84 164.718C124.019 165.012 126.235 164.803 128.321 164.108C130.016 163.413 131.537 162.355 132.778 161.008C134.346 159.367 135.694 157.528 136.786 155.538C138.086 153.573 140.869 146.196 140.919 145.889C144.448 132.407 144.082 115.219 133.844 105.781H194.521C194.64 105.78 194.754 105.732 194.838 105.648C194.923 105.564 194.971 105.45 194.972 105.331C195.207 74.553 194.972 72.265 194.972 72.162C194.968 72.0455 194.921 71.9347 194.838 71.8523C194.755 71.77 194.645 71.7223 194.528 71.719ZM24.193 65.391C23.9236 65.9266 23.5159 66.3805 23.0122 66.7056C22.5085 67.0307 21.927 67.2153 21.328 67.2403C20.729 67.2653 20.1342 67.1298 19.6052 66.8477C19.0761 66.5656 18.6321 66.1473 18.319 65.636C20.2538 65.2615 22.2337 65.179 24.193 65.391ZM5.925 71.93C5.925 71.548 5.949 71.148 5.925 70.761C9.45742 68.5135 13.3281 66.8482 17.389 65.829C17.7569 66.5302 18.3128 67.115 18.9944 67.5179C19.676 67.9208 20.4564 68.1258 21.248 68.11C21.236 68.461 21.46 71.333 21.585 74.361C21.8142 76.1905 21.4478 78.0452 20.54 79.65C20.073 80.3292 19.4631 80.898 18.7532 81.3167C18.0432 81.7355 17.2503 81.9939 16.43 82.074C14.474 82.274 12.556 81.702 10.606 81.701C9.73586 81.6493 8.865 81.7897 8.05518 82.1122C7.24535 82.4346 6.5164 82.9313 5.92 83.567L5.925 71.93ZM37.992 104.888C37.992 104.888 6.228 104.876 5.925 104.878V84.344C6.00915 84.4019 6.11097 84.4282 6.21263 84.4185C6.31428 84.4089 6.40928 84.3637 6.481 84.291C7.00572 83.6998 7.66109 83.2391 8.39505 82.9456C9.129 82.652 9.9213 82.5337 10.709 82.6C12.709 82.621 14.669 83.2 16.672 82.946C18.389 82.7385 19.9544 81.8608 21.027 80.504C22.1109 78.9651 22.6353 77.1014 22.513 75.223C22.502 73.699 22.249 68.323 22.113 68.008C22.7714 67.8496 23.3854 67.5443 23.909 67.115C24.4327 66.6857 24.8525 66.1435 25.137 65.529C30.2236 66.5086 34.799 69.2577 38.052 73.289C38.05 73.391 37.992 104.739 37.992 104.888ZM29.869 135.552C29.435 133.591 26.052 118.33 26.052 118.33C26.588 118.419 47.488 121.885 48.358 122.023C48.712 124.093 51.372 139.641 51.465 140.189L29.869 135.552ZM54.6 104.876C54.6865 104.871 54.7686 104.836 54.8317 104.777C54.8948 104.718 54.935 104.638 54.945 104.552C55.2546 103.041 55.6462 101.547 56.118 100.078C56.546 98.645 57.657 95.203 57.756 94.906C58.356 93.517 61.478 86.332 62.435 84.129C62.487 87.621 62.115 87.774 62.449 89.45C63.057 92.399 65.99 92.065 67.542 89.606C68.3057 88.4148 68.8818 87.1133 69.25 85.747C69.1124 87.0036 69.2266 88.2751 69.586 89.487C69.752 89.8053 69.984 90.0845 70.2665 90.3059C70.549 90.5274 70.8755 90.686 71.2242 90.7711C71.5729 90.8563 71.9358 90.8661 72.2886 90.7999C72.6414 90.7337 72.9759 90.5929 73.27 90.387C74.4324 89.5003 75.2578 88.2439 75.61 86.825C75.5683 87.3656 75.639 87.909 75.8174 88.421C75.9959 88.9329 76.2783 89.4025 76.647 89.8C77.0016 90.1236 77.4307 90.3546 77.8961 90.4724C78.3614 90.5903 78.8487 90.5913 79.3146 90.4754C79.7805 90.3595 80.2105 90.1304 80.5665 89.8082C80.9224 89.4861 81.1933 89.081 81.355 88.629C82.928 85.063 83.164 78.54 82.8 74.66C82.313 70.13 79.428 65.003 74.637 64.054C72.7961 63.7331 70.9179 63.6849 69.063 63.911C61.444 64.73 51.727 68.329 41.929 75.938C41.838 75.975 41.423 76.344 39.27 78.178C38.828 78.555 39.47 79.189 39.906 78.815L41.862 77.149C45.547 83.678 51.407 89.674 56.811 94.898C55.7425 97.9882 54.83 101.13 54.077 104.312C54.0654 104.38 54.0685 104.45 54.0861 104.517C54.1037 104.583 54.1355 104.645 54.1791 104.699C54.2228 104.752 54.2775 104.796 54.3394 104.826C54.4013 104.857 54.469 104.874 54.538 104.876C45.745 104.876 39.128 104.876 38.903 104.883C38.903 103.598 39.003 62.993 38.975 62.498C48.607 56.767 58.311 50.198 68.005 44.951C69.305 44.245 70.731 43.306 72.274 43.378C73.7121 43.6092 75.0533 44.2498 76.137 45.223C82.356 49.754 98.178 61.248 99.861 62.475C99.744 103.454 99.716 104.888 99.716 104.888C99.716 104.888 72.618 104.877 54.6 104.876ZM76.555 80.209C76.555 80.0897 76.5076 79.9752 76.4232 79.8908C76.3388 79.8064 76.2243 79.759 76.105 79.759C75.9856 79.759 75.8712 79.8064 75.7868 79.8908C75.7024 79.9752 75.655 80.0897 75.655 80.209C75.8125 82.6522 75.3964 85.0983 74.44 87.352C74.1821 88.0196 73.8099 88.6372 73.34 89.177C72.477 90.137 70.846 90.264 70.373 89.054C70.18 88.4403 70.1024 87.7961 70.144 87.154C70.137 86.543 70.202 82.342 70.185 80.854C70.1774 80.7399 70.1267 80.6329 70.0431 80.5547C69.9596 80.4765 69.8494 80.433 69.735 80.433C69.6206 80.433 69.5104 80.4765 69.4269 80.5547C69.3433 80.6329 69.2926 80.7399 69.285 80.854C69.0677 83.4044 68.4046 85.8968 67.326 88.218C66.9278 89.053 66.3361 89.7808 65.6 90.341C65.3435 90.5366 65.0302 90.6432 64.7077 90.6444C64.3851 90.6457 64.071 90.5416 63.813 90.348C63.5515 90.011 63.3795 89.6134 63.313 89.192C62.987 87.921 63.548 86.622 63.263 82.136C63.2563 82.0589 63.2329 81.9841 63.1944 81.9169C63.1559 81.8498 63.1032 81.7918 63.04 81.747C62.9807 81.7142 62.9149 81.695 62.8473 81.6907C62.7796 81.6863 62.7119 81.697 62.6489 81.722C62.5859 81.7469 62.5292 81.7855 62.4829 81.835C62.4366 81.8844 62.4018 81.9435 62.381 82.008C61.778 83.4 57.174 94 57.174 94C51.974 88.966 46.042 82.927 42.564 76.575C50.413 70.394 62.919 64.151 72.883 64.726C77.843 64.875 82.646 69.593 82.036 79.074C82.0149 81.4687 81.7421 83.8545 81.222 86.192C80.869 87.656 80.222 89.98 78.295 89.649C77.8915 89.5772 77.5184 89.3874 77.2226 89.1037C76.9268 88.8201 76.7216 88.4552 76.633 88.055C76.4765 87.3037 76.4334 86.5331 76.505 85.769C76.532 80.647 76.614 81.414 76.555 80.209ZM73.155 137.418C72.978 137.527 72.91 137.751 72.81 137.918C72.1104 139.122 71.01 140.042 69.701 140.518C69.3161 140.712 68.8745 140.762 68.456 140.659C68.1863 140.494 67.9766 140.247 67.8577 139.954C67.7387 139.662 67.7167 139.338 67.795 139.032C68.1864 138.496 68.4246 137.863 68.484 137.202C68.481 137.105 68.4469 137.011 68.3867 136.935C68.3264 136.858 68.2433 136.803 68.1494 136.778C68.0555 136.752 67.956 136.758 67.8653 136.793C67.7747 136.828 67.6978 136.892 67.646 136.974C67.347 137.501 67.1171 138.065 66.962 138.651C66.6194 139.081 66.1496 139.391 65.6199 139.537C65.0902 139.683 64.5279 139.657 64.0136 139.463C63.4994 139.27 63.0596 138.919 62.7575 138.46C62.4554 138.001 62.3064 137.458 62.332 136.909C62.476 134.887 62.805 134.794 62.524 134.377C61.962 133.544 61.024 132.439 59.944 132.403C58.391 132.352 57.644 134.075 57.197 135.284C56.9945 135.953 56.604 136.55 56.072 137.003C55.419 137.466 54.759 137.049 54.315 136.503C51.92 133.569 55.059 126.223 60.407 127.05C61.1493 127.152 61.8543 127.439 62.458 127.882C63.0617 128.326 63.545 128.914 63.864 129.592C64.004 129.91 64.222 129.975 64.418 129.907C67.563 128.807 116.375 112.226 116.551 112.169L116.76 127.757C69.489 138.2 73.337 137.342 73.152 137.418H73.155ZM132.69 159.806C131.55 161.15 130.154 162.254 128.582 163.052C126.628 163.828 124.513 164.112 122.423 163.878C118.26 163.497 115.777 162.218 112.209 160.731C112.566 160.658 134.368 156.192 135.522 155.951C134.695 157.319 133.746 158.609 132.687 159.806H132.69ZM126.29 156.934C128.366 156.51 130.442 156.084 132.517 155.656C130.439 156.085 128.363 156.511 126.29 156.934ZM136.112 154.909C132.633 155.628 111.604 159.897 110.636 160.134H110.617C110.517 160.056 110.569 160.078 109.551 159.717C105.521 158.287 100.646 156.833 97.015 159.077C91.394 162.552 86.463 174.177 77.231 178.549C74.7358 179.816 71.9097 180.281 69.14 179.88C65.624 179.263 62.064 176.797 61.04 173.139C60.6934 171.711 60.7106 170.219 61.09 168.799C62.782 162.427 68.578 151.149 75.173 143.864C83.9 134.1 94.5 136.1 107.287 138.929C111.453 139.852 137.229 145.729 139.869 146.2C138.836 149.193 137.581 152.104 136.113 154.909H136.112ZM140.138 145.33C138.846 145.017 126.02 142.23 109.251 138.446C102.087 136.846 94.891 135.057 87.874 135.971C87.91 135.66 87.984 135.04 87.984 135.04C87.984 135.04 112.202 129.686 117.331 128.554C117.425 128.527 117.509 128.47 117.568 128.392C117.628 128.314 117.66 128.218 117.661 128.12L117.439 111.556C117.438 111.496 117.426 111.437 117.403 111.383C117.379 111.328 117.345 111.278 117.303 111.236C117.26 111.194 117.21 111.162 117.154 111.139C117.099 111.117 117.04 111.106 116.98 111.107C116.68 111.107 91.958 119.584 91.197 119.848C93.811 112.062 98.697 105.616 105.962 102.185C105.47 102.946 105.099 103.778 104.862 104.653C104.591 105.753 104.735 107.364 106.044 107.725C108.511 108.406 111.917 103.835 116.264 100.16C120.443 100.21 124.56 101.184 128.319 103.01C142.632 110.349 144.084 129.781 140.139 145.33H140.138ZM106.412 103.33C106.754 102.701 107.135 102.094 107.552 101.513C109.887 100.608 112.37 100.144 114.875 100.144C111.462 103.167 110.556 104.544 108.149 106.195C107.678 106.519 106.96 107.021 106.349 106.854C105.771 106.696 105.669 105.954 105.7 105.454C105.798 104.706 106.04 103.984 106.413 103.328L106.412 103.33ZM142.4 86.43C142.4 86.43 142.323 104.349 142.335 104.888H132.819C126.059 99.318 115.319 97.927 107.87 100.44C105.262 101.365 102.822 102.708 100.645 104.416C100.778 83.686 100.67 84.984 100.995 84.016C101.703 80.9959 102.88 78.1056 104.485 75.451C106.757 71.9703 109.967 69.2031 113.745 67.4691C117.522 65.735 121.713 65.1047 125.834 65.651C133.334 66.806 139.879 74.773 141.866 82.121C142.319 83.5099 142.5 84.9727 142.4 86.43ZM157.858 70.494C158.542 69.3531 158.996 68.0888 159.193 66.773C159.432 65.297 161.123 56.436 161.676 53.473C162.387 49.666 162.735 45.593 165.61 43.025C168.43 40.641 173.21 40.08 176.195 41.791C180.141 44.052 180.995 49.003 181.666 53.091C181.84 54.151 187.925 91.091 187.925 91.091C187.995 91.6835 187.894 92.2837 187.634 92.8207C187.374 93.3577 186.966 93.8092 186.458 94.122C185.914 94.4378 185.32 94.6593 184.702 94.777C181.844 95.523 178.052 95.667 175.392 94.522C174.411 94.1098 173.606 93.3667 173.116 92.422C172.666 91.26 172.464 90.0167 172.523 88.772C172.446 86.18 172.269 75.112 172.253 72.172C172.251 72.0532 172.204 71.9396 172.119 71.8556C172.035 71.7715 171.922 71.7236 171.803 71.722H156.707C157.156 71.3802 157.543 70.9651 157.853 70.494H157.858ZM194.073 104.888C194.073 104.888 143.855 104.867 143.305 104.882C143.305 104.882 143.336 73.833 143.305 72.619H171.353C171.384 78.073 171.453 83.53 171.626 88.982C171.586 90.3146 171.828 91.6405 172.336 92.873C172.874 93.9147 173.744 94.747 174.809 95.238C177.776 96.61 181.891 96.448 185.054 95.612C187.791 95.055 189.111 92.949 188.79 90.85C188.79 90.85 187.306 81.839 185.79 72.619C186.877 72.619 193.578 72.638 194.083 72.625C194.078 72.625 194.066 104.587 194.068 104.888H194.073Z"></path><path fill="#000000" d="M85.32 178.914C86.9379 179.036 88.565 178.896 90.138 178.498C93.78 177.486 96.43 173.698 96.99 170.045C97.1585 167.8 96.9256 165.542 96.302 163.379C96.2884 163.286 96.2467 163.201 96.1827 163.133C96.1186 163.065 96.0353 163.019 95.944 163C95.8526 162.981 95.7577 162.99 95.672 163.027C95.5863 163.064 95.5141 163.126 95.465 163.206C91.865 168.849 87.3231 173.832 82.037 177.938C81.691 178.213 82.02 178.665 82.355 178.707C83.337 178.828 84.333 178.864 85.32 178.914ZM95.637 164.576C96.0149 166.103 96.195 167.673 96.173 169.247C96.015 171.052 95.3674 172.78 94.3001 174.244C93.2328 175.709 91.7861 176.855 90.116 177.558C88.675 177.972 87.1724 178.129 85.677 178.022C84.947 178.009 84.216 177.968 83.486 177.91C88.1966 174.115 92.295 169.618 95.637 164.576V164.576Z"></path><path fill="#000000" d="M54.226 121.768C54.646 119.888 55.664 115.325 55.664 115.325C55.791 114.761 54.923 114.52 54.796 115.086C54.376 116.966 53.418 121.261 53.358 121.529C53.232 122.093 54.1 122.334 54.226 121.768Z"></path><path fill="#000000" d="M57.208 123.48L61.53 118.486C61.908 118.05 61.274 117.41 60.894 117.849C59.63 119.308 56.571 122.849 56.571 122.849C56.193 123.28 56.828 123.919 57.208 123.48Z"></path><path fill="#000000" d="M113.643 88.8811C112.596 88.8707 111.579 89.2342 110.776 89.9061C109.973 90.5781 109.436 91.5145 109.261 92.5471C109.109 93.3054 109.184 94.0915 109.474 94.8081C109.765 95.5247 110.259 96.1404 110.896 96.5791C113.435 98.1001 116.911 96.7461 117.267 93.7481C117.42 92.624 117.126 91.4849 116.448 90.575C115.771 89.6652 114.764 89.057 113.643 88.8811V88.8811ZM114.719 95.9561C112.669 96.9331 110.131 95.8361 110.094 93.4381C110.077 92.9623 110.156 92.4878 110.326 92.0434C110.497 91.599 110.756 91.1937 111.088 90.852C111.419 90.5103 111.817 90.2393 112.256 90.0552C112.695 89.8712 113.167 89.7779 113.643 89.7811C116.415 90.0721 117.631 94.5731 114.719 95.9561Z"></path><path fill="#000000" d="M116.141 81.0014C111.292 79.0014 105.211 82.4014 103.87 89.3604C102.07 91.4684 101.705 94.9554 103.957 96.9274C104.029 96.994 104.121 97.0365 104.218 97.049C104.316 97.0615 104.415 97.0435 104.502 96.9974C104.922 96.7927 105.259 96.4514 105.459 96.0294C105.814 95.3156 106.042 94.5454 106.133 93.7534C106.238 92.167 105.762 90.5966 104.794 89.3354C107.149 78.9934 118.915 78.2664 121.752 89.6354C119.982 91.7434 119.652 95.1934 121.881 97.1484C121.953 97.2152 122.045 97.2578 122.142 97.2705C122.24 97.2833 122.339 97.2654 122.426 97.2194C122.845 97.0143 123.183 96.6726 123.382 96.2504C123.738 95.5368 123.966 94.7666 124.057 93.9744C124.159 92.3512 123.661 90.747 122.657 89.4674C122.48 89.2074 121.313 83.1354 116.141 81.0014ZM105.254 93.5454C105.193 94.2131 105.016 94.8649 104.73 95.4714C104.638 95.6861 104.502 95.879 104.33 96.0374C103.668 95.219 103.307 94.1991 103.304 93.1467C103.302 92.0944 103.659 91.0728 104.317 90.2514C104.991 91.2127 105.321 92.3733 105.254 93.5454ZM123.178 93.7664C123.117 94.4342 122.94 95.0861 122.654 95.6924C122.562 95.9071 122.426 96.1 122.254 96.2584C121.592 95.44 121.231 94.4201 121.228 93.3677C121.226 92.3154 121.583 91.2938 122.241 90.4724C122.915 91.4339 123.245 92.5943 123.178 93.7664V93.7664Z"></path><path fill="#000000" d="M174.886 63.237C175.308 61.974 175.403 58.664 175.574 55.637C175.602 55.6733 175.628 55.711 175.652 55.75C175.916 56.266 176.693 55.811 176.43 55.296C176.245 54.9382 175.977 54.6297 175.649 54.396C175.78 52.25 175.967 49.513 174.149 48.573C173.204 48.111 172.169 47.86 171.117 47.8376C170.065 47.8151 169.02 48.0217 168.056 48.443C167.364 48.8755 166.87 49.5637 166.682 50.358C166.435 51.4866 166.256 52.629 166.145 53.779C165.586 54.0625 165.087 54.4516 164.676 54.925C164.306 55.325 163.913 55.914 164.499 56.325C164.884 56.595 165.244 56.136 165.119 55.776C165.391 55.4614 165.69 55.1719 166.014 54.911C165.798 56.9135 165.688 58.9259 165.684 60.94C165.66 62.754 166.114 64.614 167.79 65.34C168.658 65.7044 169.587 65.8996 170.528 65.915C171.517 66.0426 172.52 65.8254 173.368 65.3C174.068 64.7784 174.596 64.0602 174.886 63.237V63.237ZM171.867 64.973C170.999 65.1013 170.114 65.0647 169.26 64.865C168.471 64.7778 167.746 64.3916 167.234 63.786C166.525 62.637 166.485 61.686 166.646 58.286C166.708 57.004 166.819 55.726 166.963 54.451C167.722 54.332 168.363 54.914 168.945 55.339C169.415 55.68 169.864 54.899 169.399 54.561C168.913 54.14 168.355 53.8116 167.751 53.592C167.528 53.5368 167.298 53.5182 167.069 53.537C167.143 52.9503 167.223 52.3643 167.31 51.779C167.395 50.286 168.017 49.079 169.499 48.873C170.74 48.622 172.025 48.715 173.217 49.142C173.642 49.2612 174.017 49.5123 174.29 49.859C174.616 50.4396 174.791 51.093 174.799 51.759C174.825 52.4967 174.815 53.2353 174.767 53.972C174.213 53.8372 173.634 53.8389 173.081 53.9769C172.528 54.1148 172.016 54.3849 171.59 54.764C171.506 54.8489 171.46 54.9633 171.46 55.0825C171.46 55.2017 171.506 55.3161 171.59 55.401C171.676 55.4827 171.79 55.5283 171.908 55.5283C172.027 55.5283 172.141 55.4827 172.227 55.401C172.567 55.1196 172.973 54.9273 173.406 54.8416C173.839 54.7559 174.287 54.7794 174.709 54.91C174.609 56.657 174.487 60.188 174.199 62.295C174.122 62.9231 173.858 63.5137 173.443 63.9909C173.027 64.4681 172.478 64.8101 171.867 64.973V64.973Z"></path><path fill="#000000" d="M165.62 77.023C165.074 76.7475 164.442 76.6943 163.858 76.8746C163.274 77.0549 162.782 77.4547 162.486 77.99C161.271 80.163 162.917 82.98 165.225 82.421C165.745 82.2826 166.201 81.9712 166.52 81.5381C166.838 81.105 167 80.5762 166.977 80.039C167.036 79.4613 166.942 78.8783 166.704 78.3487C166.465 77.8192 166.092 77.3619 165.62 77.023V77.023ZM165.246 81.47C163.883 82.093 162.613 80.454 163.063 78.922C163.106 78.7114 163.192 78.5118 163.315 78.3357C163.438 78.1596 163.596 78.0106 163.78 77.8981C163.963 77.7856 164.167 77.7119 164.38 77.6816C164.593 77.6513 164.81 77.6651 165.017 77.722C165.895 78.069 166.097 79.208 166.076 80.035C166.097 80.3298 166.03 80.6243 165.882 80.8801C165.734 81.136 165.512 81.3415 165.246 81.47Z"></path><path fill="#000000" d="M146.838 18.3122C146.396 17.9442 145.755 18.5782 146.201 18.9482L149.101 21.3562C149.544 21.7242 150.184 21.0912 149.738 20.7192L146.838 18.3122Z"></path><path fill="#000000" d="M190.524 18.5943L187.43 20.6253C186.947 20.9423 187.398 21.7253 187.884 21.4023L190.984 19.3723C191.461 19.0553 191.01 18.2763 190.524 18.5943Z"></path><path fill="#000000" d="M108.5 19.0799C108.619 19.0799 108.734 19.0325 108.818 18.9481C108.903 18.8637 108.95 18.7492 108.95 18.6299C108.95 18.5105 108.903 18.3961 108.818 18.3117C108.734 18.2273 108.619 18.1799 108.5 18.1799C107.049 18.1569 105.6 18.1799 104.146 18.1879C104.027 18.1897 103.914 18.2376 103.829 18.3216C103.745 18.4056 103.697 18.519 103.695 18.6379C103.674 20.1899 103.654 21.7449 103.695 23.2979C103.703 23.412 103.753 23.519 103.837 23.5972C103.92 23.6754 104.031 23.7189 104.145 23.7189C104.259 23.7189 104.37 23.6754 104.453 23.5972C104.537 23.519 104.587 23.412 104.595 23.2979C104.558 21.8979 104.572 20.4899 104.595 19.0879L108.5 19.0799Z"></path><path fill="#000000" d="M140.269 23.7335C140.383 23.7295 140.491 23.6825 140.571 23.6019C140.652 23.5214 140.699 23.4133 140.703 23.2995V18.7205C140.701 18.6018 140.653 18.4887 140.569 18.4048C140.485 18.3209 140.372 18.2728 140.253 18.2705L136.065 18.1895C135.946 18.1895 135.831 18.2369 135.747 18.3213C135.662 18.4056 135.615 18.5201 135.615 18.6395C135.615 18.7588 135.662 18.8733 135.747 18.9577C135.831 19.042 135.946 19.0895 136.065 19.0895L139.803 19.1625V23.3015C139.808 23.4205 139.859 23.5328 139.947 23.6138C140.034 23.6947 140.15 23.7378 140.269 23.7335V23.7335Z"></path><path fill="#000000" d="M40.418 17.8272L43.491 20.8012C43.908 21.2012 44.545 20.5682 44.128 20.1642L41.055 17.1912C40.638 16.7882 40 17.4242 40.418 17.8272Z"></path><path fill="#000000" d="M96.937 17.7688L93.393 20.4908C93.2921 20.5531 93.2191 20.6518 93.1889 20.7664C93.1587 20.8811 93.1738 21.003 93.231 21.1068C93.2608 21.1579 93.3004 21.2027 93.3474 21.2385C93.3945 21.2743 93.4482 21.3005 93.5054 21.3156C93.5626 21.3306 93.6223 21.3342 93.6809 21.3262C93.7395 21.3182 93.7959 21.2987 93.847 21.2688L97.392 18.5458C97.4925 18.4832 97.5653 18.3845 97.5952 18.2699C97.6251 18.1553 97.6101 18.0336 97.553 17.9298C97.5232 17.8788 97.4835 17.8341 97.4364 17.7984C97.3893 17.7627 97.3356 17.7366 97.2784 17.7217C97.2212 17.7067 97.1616 17.7032 97.103 17.7113C97.0444 17.7194 96.988 17.7389 96.937 17.7688V17.7688Z"></path><path fill="#000000" d="M7.91602 19.0012L9.77702 22.4142C10.054 22.9232 10.832 22.4692 10.554 21.9592L8.69302 18.5472C8.41602 18.0382 7.63802 18.4912 7.91602 19.0012Z"></path><path fill="#000000" d="M35.34 18.8779L33.523 22.3649C33.256 22.8779 34.033 23.3339 34.301 22.8199C34.9057 21.6566 35.511 20.4942 36.117 19.3329C36.384 18.8199 35.608 18.3639 35.34 18.8779Z"></path><path fill="#000000" d="M8.848 100.4L7.075 102.972C6.746 103.45 7.525 103.901 7.853 103.426L9.625 100.854C9.955 100.377 9.174 99.9263 8.848 100.4Z"></path><path fill="#000000" d="M32.992 99.5213C32.608 99.0853 31.974 99.7213 32.355 100.157L35.316 103.519C35.7 103.954 36.335 103.319 35.953 102.882L32.992 99.5213Z"></path><path fill="#000000" d="M40.636 103.59C40.7397 103.648 40.8618 103.664 40.9766 103.633C41.0914 103.603 41.1901 103.53 41.252 103.429L43.631 100.284C43.6905 100.181 43.707 100.059 43.6769 99.9439C43.6467 99.8288 43.5724 99.7302 43.47 99.6695C43.3665 99.6118 43.2447 99.5963 43.1301 99.6263C43.0155 99.6563 42.9169 99.7295 42.855 99.8305L40.475 102.974C40.4154 103.078 40.3989 103.2 40.429 103.316C40.4592 103.431 40.5335 103.53 40.636 103.59Z"></path><path fill="#000000" d="M95.222 99.0261C94.834 98.5951 94.199 99.2331 94.586 99.6621L98.062 103.52C98.45 103.951 99.085 103.313 98.698 102.883L95.222 99.0261Z"></path><path fill="#000000" d="M77.712 36.4245L82.221 36.1725C82.797 36.1395 82.801 35.2395 82.221 35.2725L80.365 35.3725C79.958 32.4875 78.448 29.4075 75.906 27.8725C71.451 25.2745 65.681 29.0955 65 35.3105L63.365 35.2715C63.2509 35.2791 63.1439 35.3298 63.0657 35.4134C62.9875 35.497 62.944 35.6071 62.944 35.7215C62.944 35.8359 62.9875 35.9461 63.0657 36.0296C63.1439 36.1132 63.2509 36.1639 63.365 36.1715L67.434 36.2715C67.5482 36.2639 67.6552 36.2132 67.7333 36.1296C67.8115 36.0461 67.855 35.9359 67.855 35.8215C67.855 35.7071 67.8115 35.597 67.7333 35.5134C67.6552 35.4298 67.5482 35.3791 67.434 35.3715C66.922 35.3595 66.409 35.3485 65.897 35.3355C66.667 29.5075 71.506 26.7775 75.088 28.4575C76.3107 29.133 77.3195 30.1377 78 31.3575C78.7494 32.6044 79.2446 33.9873 79.457 35.4265L77.71 35.5265C77.136 35.5565 77.133 36.4565 77.712 36.4245Z"></path><path fill="#000000" d="M25.257 46.7948C26.286 46.0948 25.813 44.2408 23.657 44.2408C23.8842 44.008 24.0445 43.7183 24.121 43.4021C24.1975 43.086 24.1873 42.755 24.0916 42.4441C23.996 42.1333 23.8183 41.8539 23.5772 41.6354C23.3362 41.417 23.0408 41.2675 22.722 41.2028C20.795 40.9168 19.722 43.1348 19.24 45.0198C18.978 46.0378 18.832 47.0788 18.657 48.1138C18.62 48.5038 18.849 48.6938 19.091 48.6828C20.227 48.6466 21.364 48.7021 22.491 48.8488C23.43 48.9658 24.66 49.4208 25.491 48.7488C25.6556 48.6324 25.7857 48.4737 25.8676 48.2894C25.9494 48.1052 25.98 47.9023 25.956 47.7021C25.932 47.5019 25.8544 47.3119 25.7314 47.1522C25.6084 46.9925 25.4445 46.869 25.257 46.7948V46.7948ZM25.057 47.8558C24.995 48.1708 24.567 48.2148 24.32 48.2068C22.7673 47.9394 21.1955 47.7986 19.62 47.7858C19.92 45.9618 20.37 42.7768 22.12 42.1248C22.3136 42.0493 22.5281 42.0472 22.723 42.1191C22.9179 42.191 23.0798 42.3317 23.178 42.5148C23.557 43.4408 22.491 44.2308 21.878 44.7078C21.455 45.0338 21.993 45.6328 22.423 45.4148C22.9261 45.155 23.5013 45.0699 24.058 45.1728C24.343 45.2298 24.965 45.4438 24.875 45.8398C24.725 46.4958 22.688 46.4538 22.013 46.4918C21.8937 46.4918 21.7792 46.5392 21.6948 46.6236C21.6104 46.708 21.563 46.8224 21.563 46.9418C21.563 47.0611 21.6104 47.1756 21.6948 47.26C21.7792 47.3444 21.8937 47.3918 22.013 47.3918C22.8474 47.3252 23.6867 47.3588 24.513 47.4918C24.691 47.5298 25.114 47.5908 25.062 47.8558H25.057Z"></path><path fill="#000000" d="M99.231 128.966L95.816 129.666C95.249 129.781 95.489 130.649 96.056 130.534L99.471 129.834C100.038 129.718 99.8 128.85 99.231 128.966Z"></path><path fill="#000000" d="M74.4 183.983C67.67 184.093 60.946 182.083 54.251 179.764C52.8905 179.336 51.5723 178.784 50.313 178.115C49.857 177.815 49.464 178.452 49.768 178.822C52.045 181.595 55.535 183.274 58.868 184.387C62.4093 185.623 66.1554 186.167 69.902 185.987C71.5202 185.938 73.1101 185.551 74.569 184.849C74.6623 184.807 74.7387 184.735 74.7858 184.644C74.8328 184.553 74.8478 184.449 74.8282 184.349C74.8086 184.249 74.7556 184.158 74.6779 184.091C74.6001 184.025 74.5022 183.987 74.4 183.983ZM52.282 180.001C57.974 182.192 65.787 184.467 71.947 184.807C66.335 185.992 57.3 183.951 52.282 180.001Z"></path><path fill="#000000" d="M80.744 184.957C80.7359 185.015 80.7413 185.075 80.7599 185.131C80.7784 185.187 80.8096 185.238 80.8509 185.28C80.8923 185.322 80.9428 185.353 80.9985 185.373C81.0542 185.392 81.1136 185.398 81.172 185.391C85.828 185.57 92.521 185.136 96.899 183.642C97.8136 183.327 98.6646 182.851 99.412 182.237C99.8903 181.779 100.265 181.224 100.512 180.609C101.209 179.136 101.433 177.483 101.154 175.878C101.128 175.795 101.079 175.72 101.012 175.664C100.945 175.608 100.864 175.572 100.777 175.561C100.691 175.549 100.602 175.563 100.523 175.6C100.444 175.637 100.378 175.696 100.331 175.77C97.437 180.57 94.131 182.257 88.646 183.441C86.18 183.948 83.6844 184.299 81.174 184.491C81.113 184.485 81.0515 184.494 80.9944 184.516C80.9372 184.538 80.8859 184.573 80.8443 184.618C80.8028 184.663 80.7721 184.717 80.7547 184.776C80.7373 184.835 80.7337 184.897 80.744 184.957V184.957ZM100.407 177.29C100.345 178.791 99.835 180.239 98.942 181.447C98.2988 182.036 97.5381 182.482 96.71 182.756C94.3586 183.539 91.9176 184.022 89.445 184.194C94.214 183.1 97.7 181.32 100.407 177.29Z"></path><path fill="#000000" d="M115.66 166.532L107.245 184.205C106.997 184.725 107.773 185.183 108.022 184.659C108.976 182.659 116.093 167.709 116.438 166.986C116.685 166.466 115.909 166.009 115.66 166.532Z"></path><path fill="#000000" d="M136.791 161.264C136.557 160.736 135.781 161.193 136.013 161.719C136.35 162.48 146.139 184.648 146.145 184.66C146.378 185.189 147.154 184.732 146.922 184.206C135.293 157.876 136.949 161.64 136.791 161.264Z"></path><path fill="#000000" d="M140.655 155.384C140.392 155.899 141.169 156.355 141.433 155.838C142.377 153.918 143.182 151.932 143.842 149.897C146.653 142.055 147.564 133.659 146.501 125.397C146.469 125.282 146.393 125.185 146.289 125.126C146.186 125.067 146.063 125.051 145.948 125.082C145.834 125.116 145.738 125.193 145.68 125.296C145.621 125.399 145.604 125.521 145.633 125.636C146.4 131.258 146.163 136.971 144.933 142.511C144.013 146.954 142.577 151.274 140.655 155.384V155.384Z"></path><path fill="#000000" d="M52.139 145.416C51.728 145.307 5.61999 134.127 5.59499 134.116C5.03199 133.98 4.79499 134.847 5.35499 134.985C5.76899 135.085 51.043 146.107 51.569 146.212V175.6C51.569 175.719 51.6164 175.834 51.7008 175.918C51.7852 176.003 51.8996 176.05 52.019 176.05C52.1383 176.05 52.2528 176.003 52.3372 175.918C52.4216 175.834 52.469 175.719 52.469 175.6V145.85C52.4689 145.752 52.4366 145.656 52.377 145.577C52.3174 145.499 52.2338 145.442 52.139 145.416V145.416Z"></path><path fill="#000000" d="M123.317 44.9267C120.841 45.1484 118.502 46.1619 116.647 47.817C114.791 49.472 113.519 51.6807 113.017 54.1157C112.609 55.7573 112.472 57.4548 112.612 59.1407C112.633 59.3577 112.802 59.6257 113.062 59.5907C114.242 59.4337 114.862 59.2787 118.897 58.4517C119.505 59.0573 120.227 59.5362 121.022 59.8607C121.816 60.1851 122.667 60.3486 123.525 60.3417C124.384 60.3349 125.232 60.1577 126.021 59.8206C126.81 59.4834 127.525 58.993 128.123 58.3777C128.786 58.8836 129.477 59.3511 130.194 59.7777C131.682 60.6417 133.22 61.4174 134.8 62.1007C134.858 62.1295 134.922 62.1452 134.987 62.1464C135.052 62.1477 135.117 62.1346 135.176 62.1081C135.236 62.0815 135.289 62.0422 135.331 61.9928C135.374 61.9435 135.405 61.8854 135.422 61.8227C135.999 60.2816 136.245 58.6359 136.141 56.9935C136.038 55.3511 135.588 53.7491 134.822 52.2927C132.49 47.5317 128.653 44.4007 123.317 44.9267ZM113.482 58.6267C113.329 56.0367 113.892 53.4546 115.11 51.1637C115.896 49.7391 117.007 48.5204 118.353 47.6068C119.699 46.6933 121.242 46.1107 122.856 45.9067C122.842 46.6197 122.84 47.3337 122.863 48.0447C121.829 48.1645 120.841 48.5428 119.991 49.1447C119.141 49.7466 118.456 50.5526 118 51.4887C117.443 51.5924 116.926 51.8531 116.512 52.2402C116.098 52.6273 115.802 53.1246 115.661 53.6737C115.629 53.7888 115.645 53.9117 115.704 54.0155C115.763 54.1193 115.86 54.1955 115.975 54.2272C116.091 54.2589 116.214 54.2435 116.317 54.1845C116.421 54.1256 116.497 54.0278 116.529 53.9127C116.605 53.6379 116.736 53.3812 116.913 53.1579C117.09 52.9346 117.311 52.7492 117.561 52.6127C117.286 53.4522 117.205 54.3432 117.324 55.2186C117.443 56.0939 117.759 56.931 118.248 57.6667C117.045 57.9137 114.605 58.4317 113.482 58.6217V58.6267ZM125.182 59.1927C121.012 60.4847 116.793 56.7737 118.596 52.3707C119.072 52.3846 119.527 52.5688 119.878 52.8897C120.307 53.2767 120.946 52.6417 120.515 52.2527C120.092 51.8739 119.573 51.618 119.015 51.5127C119.418 50.8096 119.981 50.2118 120.659 49.7679C121.336 49.324 122.11 49.0467 122.915 48.9587C122.97 50.6758 123.403 52.3598 124.183 53.8907C124.962 55.4215 126.07 56.7617 127.427 57.8157C126.8 58.45 126.028 58.9211 125.177 59.1877L125.182 59.1927ZM134.742 61.0977C129.651 58.7577 124.862 55.9627 123.953 50.3757C123.724 48.8634 123.66 47.3308 123.762 45.8047C128.352 45.5047 131.547 48.0827 133.756 52.1787C134.539 53.5112 135.032 54.9943 135.201 56.5307C135.37 58.067 135.212 59.6217 134.737 61.0927L134.742 61.0977Z"></path><path fill="#000000" d="M124.93 184.434V166.761C124.93 166.641 124.883 166.527 124.798 166.442C124.714 166.358 124.599 166.311 124.48 166.311C124.361 166.311 124.246 166.358 124.162 166.442C124.077 166.527 124.03 166.641 124.03 166.761V184.434C124.03 184.553 124.077 184.667 124.162 184.752C124.246 184.836 124.361 184.884 124.48 184.884C124.599 184.884 124.714 184.836 124.798 184.752C124.883 184.667 124.93 184.553 124.93 184.434V184.434Z"></path><path fill="#000000" d="M171.5 57.9821C171.334 58.1472 171.13 58.2693 170.907 58.3376C170.683 58.406 170.446 58.4185 170.216 58.3741C169.65 58.2561 169.409 59.1231 169.977 59.2421C170.36 59.3309 170.76 59.3201 171.138 59.2109C171.516 59.1017 171.859 58.8976 172.136 58.6181C172.215 58.5328 172.259 58.42 172.257 58.3034C172.255 58.1868 172.207 58.0756 172.125 57.9931C172.042 57.9107 171.931 57.8635 171.815 57.8614C171.698 57.8593 171.585 57.9026 171.5 57.9821V57.9821Z"></path><path fill="#000000" d="M121.105 52.8248C121.074 53.6725 120.87 54.5049 120.505 55.2707C120.255 55.7907 121.031 56.2477 121.282 55.7257C121.721 54.8193 121.969 53.8321 122.009 52.8257C122.029 52.2447 121.129 52.2468 121.105 52.8248Z"></path><path fill="#000000" d="M75.575 33.3134C74.275 30.7454 69.955 31.3674 69.835 34.3624C69.7872 35.2687 70.0792 36.1601 70.654 36.8624C71.1146 37.3413 71.7189 37.6568 72.3751 37.7609C73.0314 37.865 73.7036 37.752 74.2898 37.4391C74.876 37.1262 75.344 36.6305 75.6227 36.0274C75.9014 35.4242 75.9756 34.7466 75.834 34.0974C75.9073 34.0429 75.9616 33.9666 75.9892 33.8795C76.0167 33.7923 76.0161 33.6987 75.9874 33.612C75.9587 33.5252 75.9035 33.4497 75.8295 33.3961C75.7554 33.3425 75.6664 33.3136 75.575 33.3134V33.3134ZM74.684 35.8644C74.4974 36.1595 74.2421 36.405 73.94 36.58C73.6379 36.755 73.2979 36.8543 72.949 36.8693C72.6002 36.8844 72.2529 36.8147 71.9369 36.6664C71.6208 36.518 71.3453 36.2954 71.134 36.0174C70.8604 35.5493 70.7219 35.0145 70.734 34.4724L72.222 35.4304C72.71 35.7454 73.162 34.9664 72.676 34.6534C71.053 33.6064 71.107 33.6074 70.923 33.6234C71.1383 33.2985 71.4338 33.0347 71.7809 32.8575C72.128 32.6802 72.515 32.5956 72.9044 32.6118C73.2938 32.628 73.6725 32.7444 74.0037 32.9499C74.3349 33.1553 74.6075 33.4428 74.795 33.7844C74.4911 34.0233 74.1743 34.2453 73.846 34.4494C73.352 34.7494 73.804 35.5304 74.3 35.2264C74.538 35.0814 74.767 34.9264 74.992 34.7614C74.9893 35.1499 74.883 35.5307 74.684 35.8644V35.8644Z"></path><path fill="#000000" d="M23.92 51.4908C23.757 51.5488 23.59 51.5908 23.42 51.6358C23.2578 50.9143 22.8365 50.2774 22.236 49.8458C20.631 48.8678 18.784 50.3948 18.807 52.2738C18.807 53.6538 18.843 55.0368 18.936 56.4138C18.9364 56.9298 19.0126 57.443 19.162 57.9368C19.2948 58.3608 19.5536 58.7342 19.9039 59.0073C20.2542 59.2805 20.6795 59.4404 21.123 59.4658C21.5815 59.4354 22.0224 59.2774 22.3959 59.0097C22.7695 58.742 23.0608 58.3753 23.237 57.9508C23.538 57.2094 23.6971 56.418 23.706 55.6178C23.7945 55.6171 23.8809 55.5903 23.9543 55.5408C24.0277 55.4914 24.0849 55.4214 24.1188 55.3396C24.1527 55.2578 24.1618 55.1679 24.1449 55.0809C24.1281 54.994 24.086 54.914 24.024 54.8508C23.918 54.7188 23.824 54.5728 23.732 54.4288C23.7393 53.7884 23.6985 53.1482 23.61 52.5138C23.793 52.4658 23.977 52.4228 24.157 52.3588C24.7 52.1668 24.468 51.2998 23.92 51.4908ZM22.533 57.3068C22.322 57.9288 21.768 58.6358 21.033 58.5628C20.7483 58.5005 20.4899 58.3518 20.293 58.137C20.0961 57.9222 19.9703 57.6518 19.933 57.3628C19.781 56.5628 19.713 53.4388 19.71 52.2768C19.681 51.1118 20.751 50.0328 21.75 50.6038C22.1597 50.8954 22.4451 51.33 22.55 51.8218C21.9771 51.9023 21.3958 51.9023 20.823 51.8218C20.708 51.7934 20.5865 51.8101 20.4834 51.8685C20.3804 51.9269 20.3036 52.0226 20.269 52.1358C20.2373 52.2509 20.2526 52.3739 20.3115 52.4777C20.3704 52.5816 20.468 52.6578 20.583 52.6898C21.2965 52.7898 22.0205 52.7898 22.734 52.6898C22.76 52.8732 22.7803 53.0575 22.795 53.2428C22.7289 53.2456 22.6643 53.2635 22.6061 53.2949C22.5479 53.3264 22.4976 53.3707 22.4591 53.4244C22.4205 53.4782 22.3947 53.54 22.3836 53.6052C22.3725 53.6705 22.3764 53.7373 22.395 53.8008C22.5212 54.1045 22.6686 54.3988 22.836 54.6818C22.874 55.5673 22.7717 56.4533 22.533 57.3068V57.3068Z"></path><path fill="#000000" d="M127.866 106.893L118.899 110.518C118.786 110.552 118.69 110.629 118.631 110.732C118.572 110.835 118.556 110.957 118.584 111.072C118.616 111.187 118.692 111.285 118.796 111.343C118.9 111.402 119.023 111.418 119.138 111.386L128.105 107.761C128.219 107.727 128.315 107.651 128.373 107.548C128.432 107.445 128.449 107.323 128.42 107.208C128.388 107.093 128.312 106.995 128.208 106.936C128.104 106.877 127.981 106.861 127.866 106.893Z"></path><path fill="#000000" d="M119.777 128.354L129.984 126.02C130.549 125.89 130.31 125.02 129.745 125.152L119.538 127.486C118.973 127.615 119.212 128.484 119.777 128.354Z"></path><path fill="#000000" d="M84.053 140.271L80.526 142.217C80.019 142.496 80.472 143.274 80.98 142.994L84.508 141.048C85.015 140.768 84.562 139.991 84.053 140.271Z"></path><path fill="#000000" d="M67.171 130.242C66.2586 130.203 65.3643 130.503 64.66 131.085C64.5757 131.169 64.5284 131.283 64.5284 131.403C64.5284 131.522 64.5757 131.636 64.66 131.721C64.7453 131.803 64.8595 131.85 64.9785 131.85C65.0974 131.85 65.2117 131.803 65.297 131.721C65.8297 131.305 66.4965 131.099 67.171 131.142C67.751 131.17 67.749 130.269 67.171 130.242Z"></path><path fill="#000000" d="M70.291 133.335C69.3945 133.855 68.634 134.58 68.072 135.451C67.751 135.935 68.53 136.386 68.85 135.906C69.3391 135.172 69.9888 134.558 70.75 134.112C70.853 134.052 70.9279 133.953 70.958 133.837C70.9882 133.722 70.9713 133.599 70.911 133.496C70.8811 133.445 70.8415 133.4 70.7943 133.365C70.7472 133.329 70.6935 133.303 70.6363 133.288C70.5208 133.258 70.398 133.275 70.295 133.335H70.291Z"></path><path fill="#000000" d="M113.107 93.9709C113.034 94.2079 112.737 94.2849 112.517 94.3079C112.317 94.3279 111.783 94.3279 111.749 94.0359C111.746 93.9174 111.697 93.8045 111.613 93.7208C111.53 93.637 111.417 93.5887 111.298 93.5859C111.239 93.5858 111.18 93.5974 111.126 93.6199C111.071 93.6425 111.021 93.6756 110.98 93.7174C110.938 93.7593 110.905 93.8089 110.882 93.8636C110.859 93.9182 110.848 93.9768 110.848 94.0359C111.027 95.5669 113.548 95.6059 113.975 94.2109C114.146 93.6559 113.277 93.4179 113.107 93.9709Z"></path><path fill="#000000" d="M37.59 128.134C36.79 128.927 36.047 129.764 35.255 130.559C35.2032 130.626 35.1673 130.704 35.1501 130.787C35.133 130.87 35.1349 130.956 35.1558 131.038C35.1767 131.12 35.2161 131.197 35.2709 131.261C35.3256 131.326 35.3944 131.377 35.472 131.411L37.835 132.268C38.127 132.392 38.395 132.104 38.405 131.834C38.4548 130.761 38.4482 129.687 38.385 128.614C38.311 127.978 37.843 127.883 37.59 128.134ZM37.522 131.199L36.311 130.761L37.527 129.497C37.542 130.064 37.537 130.633 37.522 131.2V131.199Z"></path><path fill="#000000" d="M69.172 74.9593L69.289 78.4963C69.308 79.0743 70.209 79.0763 70.189 78.4963L70.072 74.9593C70.053 74.3823 69.153 74.3793 69.172 74.9593Z"></path><path fill="#000000" d="M76.564 74.1004C76.5612 73.9819 76.5129 73.8691 76.4291 73.7853C76.3453 73.7015 76.2325 73.6532 76.114 73.6504C76.0549 73.6504 75.9964 73.662 75.9418 73.6846C75.8872 73.7073 75.8376 73.7404 75.7958 73.7822C75.754 73.824 75.7209 73.8736 75.6983 73.9282C75.6756 73.9828 75.664 74.0413 75.664 74.1004C75.7826 75.1312 75.8244 76.1694 75.789 77.2064C75.769 77.7854 76.669 77.7844 76.689 77.2064C76.7244 76.1694 76.6826 75.1312 76.564 74.1004V74.1004Z"></path></g></svg>