<svg xmlns="http://www.w3.org/2000/svg" fill="none" viewBox="0 0 200 200" height="400" width="400"><path fill="#000000" d="M182.052 62.02V71.26C182.057 71.3526 182.097 71.4398 182.164 71.5036C182.232 71.5674 182.321 71.603 182.413 71.603C182.506 71.603 182.595 71.5674 182.663 71.5036C182.73 71.4398 182.77 71.3526 182.775 71.26V62.02C182.77 61.9274 182.73 61.8402 182.663 61.7764C182.595 61.7126 182.506 61.677 182.413 61.677C182.321 61.677 182.232 61.7126 182.164 61.7764C182.097 61.8402 182.057 61.9274 182.052 62.02V62.02Z"></path><path fill="#000000" d="M191.4 65.51C188.946 67.8827 186.532 70.297 184.158 72.753C184.097 72.822 184.065 72.9118 184.067 73.004C184.07 73.0961 184.108 73.1837 184.173 73.2489C184.238 73.3141 184.326 73.352 184.418 73.3548C184.51 73.3576 184.6 73.3251 184.669 73.264C187.123 70.89 189.537 68.4757 191.912 66.021C191.975 65.9522 192.009 65.8617 192.007 65.7683C192.005 65.6749 191.967 65.5859 191.901 65.52C191.835 65.454 191.746 65.4161 191.653 65.4143C191.559 65.4124 191.469 65.4467 191.4 65.51V65.51Z"></path><path fill="#000000" d="M194.651 74.645H186.659C186.566 74.6499 186.479 74.6901 186.415 74.7574C186.352 74.8246 186.316 74.9138 186.316 75.0065C186.316 75.0992 186.352 75.1884 186.415 75.2557C186.479 75.3229 186.566 75.3631 186.659 75.368H194.651C194.744 75.3631 194.831 75.3229 194.895 75.2557C194.958 75.1884 194.994 75.0992 194.994 75.0065C194.994 74.9138 194.958 74.8246 194.895 74.7574C194.831 74.6901 194.744 74.6499 194.651 74.645Z"></path><path fill="#000000" d="M16.338 89.13H5.34904C5.25329 89.13 5.16147 89.168 5.09377 89.2357C5.02607 89.3034 4.98804 89.3953 4.98804 89.491C4.98804 89.5867 5.02607 89.6786 5.09377 89.7463C5.16147 89.814 5.25329 89.852 5.34904 89.852H16.338C16.4338 89.852 16.5256 89.814 16.5933 89.7463C16.661 89.6786 16.699 89.5867 16.699 89.491C16.699 89.3953 16.661 89.3034 16.5933 89.2357C16.5256 89.168 16.4338 89.13 16.338 89.13V89.13Z"></path><path fill="#000000" d="M16.831 87.249C16.9 87.3101 16.9898 87.3426 17.0819 87.3398C17.1741 87.337 17.2617 87.2991 17.3269 87.2339C17.3921 87.1687 17.43 87.0811 17.4328 86.989C17.4356 86.8968 17.4031 86.807 17.342 86.738C15.2973 84.622 13.2167 82.5427 11.1 80.5C11.031 80.4389 10.9412 80.4064 10.849 80.4092C10.7569 80.412 10.6693 80.4499 10.6041 80.5151C10.5389 80.5803 10.501 80.6679 10.4982 80.7601C10.4954 80.8522 10.5279 80.942 10.589 81.011C12.6337 83.1237 14.7143 85.203 16.831 87.249Z"></path><path fill="#000000" d="M17.081 91.7329L11.087 97.7269C11.0259 97.796 10.9935 97.8857 10.9963 97.9779C10.9991 98.07 11.0369 98.1576 11.1021 98.2228C11.1673 98.288 11.2549 98.3259 11.3471 98.3287C11.4393 98.3315 11.529 98.299 11.598 98.2379L17.592 92.2439C17.6532 92.1749 17.6856 92.0851 17.6828 91.993C17.68 91.9008 17.6422 91.8132 17.577 91.748C17.5118 91.6828 17.4242 91.6449 17.332 91.6421C17.2398 91.6393 17.1501 91.6718 17.081 91.7329V91.7329Z"></path><path fill="#000000" d="M91.9131 128.246C90.8033 129.887 89.4932 131.383 88.0131 132.7C87.6661 133.01 88.1781 133.52 88.5241 133.211C90.0471 131.85 91.3946 130.305 92.5351 128.611C92.8001 128.224 92.1721 127.862 91.9131 128.246Z"></path><path fill="#000000" d="M93.1 129.59C92.688 131.59 92.2756 133.59 91.863 135.59C91.769 136.044 92.463 136.238 92.563 135.783C92.975 133.783 93.3873 131.783 93.8 129.783C93.889 129.329 93.192 129.135 93.1 129.59Z"></path><path fill="#000000" d="M90.0641 128.111C88.0879 129.109 86.0411 129.96 83.9401 130.658C83.5011 130.804 83.6891 131.503 84.1321 131.358C86.2934 130.64 88.3991 129.764 90.4321 128.738C90.8441 128.526 90.4791 127.9 90.0641 128.111Z"></path><path fill="#000000" d="M91.9591 53.864C92.0398 53.8136 92.0982 53.7342 92.1222 53.6422C92.1462 53.5501 92.134 53.4523 92.0881 53.369C92.0642 53.328 92.0325 53.2921 91.9947 53.2634C91.9569 53.2347 91.9138 53.2137 91.8679 53.2017C91.822 53.1898 91.7742 53.187 91.7272 53.1935C91.6802 53.2001 91.635 53.2159 91.5941 53.24C88.5619 55.5644 86.0425 58.4902 84.1941 61.834C83.9691 62.241 84.5941 62.606 84.8181 62.198C86.6018 58.9597 89.0325 56.1229 91.9591 53.864V53.864Z"></path><path fill="#000000" d="M89.8681 52.056C89.9493 52.0061 90.0083 51.9269 90.0329 51.8348C90.0574 51.7427 90.0457 51.6447 90.0001 51.561C89.9762 51.52 89.9445 51.4841 89.9067 51.4554C89.8689 51.4267 89.8258 51.4057 89.7799 51.3938C89.734 51.3818 89.6862 51.379 89.6392 51.3855C89.5922 51.3921 89.5469 51.4079 89.5061 51.432C86.4736 53.7562 83.9542 56.682 82.1061 60.026C81.8811 60.433 82.5061 60.798 82.7301 60.39C84.5129 57.152 86.9426 54.3153 89.8681 52.056V52.056Z"></path><path fill="#000000" d="M157.278 97.428C155.598 97.062 155.007 99.837 153.887 99.528C153.378 99.389 153.112 98.716 152.836 98.323C152.676 98.0413 152.449 97.8029 152.175 97.6287C151.902 97.4544 151.59 97.3495 151.267 97.323C149.277 97.466 148.816 99.24 147.567 99.93C145.918 100.837 144.867 98.038 143.023 98.312C142.824 98.3312 142.631 98.3924 142.457 98.4915C142.283 98.5906 142.132 98.7253 142.014 98.8869C141.895 99.0485 141.813 99.2332 141.771 99.429C141.729 99.6248 141.729 99.8272 141.771 100.023C141.914 100.464 142.612 100.275 142.471 99.831C142.313 99.177 143.2 98.804 143.839 99.16C144.56 99.49 145.078 100.131 145.763 100.522C146.08 100.707 146.437 100.81 146.804 100.823C147.17 100.836 147.534 100.757 147.863 100.594C148.481 100.221 149.022 99.7329 149.457 99.157C149.666 98.8549 149.937 98.5999 150.25 98.4086C150.564 98.2172 150.915 98.0937 151.279 98.046C151.862 98.069 152.179 98.606 152.46 99.046C152.707 99.547 153.114 99.9516 153.616 100.196C153.845 100.273 154.089 100.29 154.326 100.247C154.563 100.205 154.786 100.103 154.973 99.951C155.39 99.5971 155.759 99.1915 156.073 98.744C156.321 98.45 156.661 98.027 157.095 98.121C157.539 98.223 157.733 97.527 157.278 97.428Z"></path><path fill="#000000" d="M107.36 114.516C107.377 115.17 107.351 116.349 106.651 116.686C106.451 116.76 106.231 116.761 106.03 116.69C105.829 116.618 105.659 116.478 105.551 116.294C105.25 115.764 105.121 115.154 105.18 114.548C105.18 114.452 105.142 114.36 105.074 114.293C105.007 114.225 104.915 114.187 104.819 114.187C104.723 114.187 104.632 114.225 104.564 114.293C104.496 114.36 104.458 114.452 104.458 114.548C104.395 115.329 104.589 116.109 105.01 116.77C105.196 117.046 105.464 117.257 105.776 117.373C106.088 117.49 106.428 117.506 106.75 117.42C107.925 117.098 108.115 115.544 108.084 114.52C108.079 114.427 108.039 114.34 107.972 114.276C107.904 114.213 107.815 114.177 107.723 114.177C107.63 114.177 107.541 114.213 107.473 114.276C107.406 114.34 107.366 114.427 107.361 114.52L107.36 114.516Z"></path><path fill="#000000" d="M38.933 79.371C37.879 80.391 36.859 81.445 35.822 82.482L35.0081 81.315C34.7441 80.936 34.1171 81.297 34.3841 81.68C35.3701 83.094 35.372 83.157 35.544 83.209C35.5956 83.2839 35.6749 83.3353 35.7643 83.3518C35.8538 83.3683 35.9461 83.3486 36.0211 83.297C36.0911 83.249 39.0211 80.323 39.4441 79.882C39.5052 79.813 39.5376 79.7232 39.5348 79.631C39.532 79.5389 39.4942 79.4513 39.429 79.3861C39.3638 79.3209 39.2762 79.283 39.184 79.2802C39.0918 79.2774 39.0021 79.3099 38.933 79.371V79.371Z"></path><path fill="#000000" d="M108.681 113.393H109.513C109.606 113.388 109.693 113.348 109.757 113.281C109.82 113.213 109.856 113.124 109.856 113.031C109.856 112.939 109.82 112.85 109.757 112.782C109.693 112.715 109.606 112.675 109.513 112.67H108.681C108.588 112.675 108.501 112.715 108.437 112.782C108.374 112.85 108.338 112.939 108.338 113.031C108.338 113.124 108.374 113.213 108.437 113.281C108.501 113.348 108.588 113.388 108.681 113.393V113.393Z"></path><path fill="#000000" d="M103.676 112.67H102.844C102.751 112.675 102.664 112.715 102.6 112.782C102.537 112.85 102.501 112.939 102.501 113.031C102.501 113.124 102.537 113.213 102.6 113.281C102.664 113.348 102.751 113.388 102.844 113.393H103.676C103.769 113.388 103.856 113.348 103.92 113.281C103.983 113.213 104.019 113.124 104.019 113.031C104.019 112.939 103.983 112.85 103.92 112.782C103.856 112.715 103.769 112.675 103.676 112.67V112.67Z"></path><path fill="#000000" d="M98.738 65.2659V60.1469C98.7331 60.0543 98.6929 59.9672 98.6257 59.9033C98.5584 59.8395 98.4692 59.804 98.3765 59.804C98.2838 59.804 98.1946 59.8395 98.1274 59.9033C98.0601 59.9672 98.0199 60.0543 98.015 60.1469V65.2659C98.0199 65.3585 98.0601 65.4457 98.1274 65.5095C98.1946 65.5733 98.2838 65.6089 98.3765 65.6089C98.4692 65.6089 98.5584 65.5733 98.6257 65.5095C98.6929 65.4457 98.7331 65.3585 98.738 65.2659V65.2659Z"></path><path fill="#000000" d="M98.14 67.014V67.889C98.1449 67.9816 98.1851 68.0688 98.2524 68.1326C98.3196 68.1964 98.4088 68.232 98.5015 68.232C98.5942 68.232 98.6834 68.1964 98.7507 68.1326C98.8179 68.0688 98.8581 67.9816 98.863 67.889V67.014C98.8581 66.9214 98.8179 66.8342 98.7507 66.7704C98.6834 66.7066 98.5942 66.671 98.5015 66.671C98.4088 66.671 98.3196 66.7066 98.2524 66.7704C98.1851 66.8342 98.1449 66.9214 98.14 67.014V67.014Z"></path><path fill="#000000" d="M109.793 133.1H116.538V132.377H109.793C109.7 132.382 109.613 132.422 109.549 132.489C109.486 132.557 109.45 132.646 109.45 132.738C109.45 132.831 109.486 132.92 109.549 132.988C109.613 133.055 109.7 133.095 109.793 133.1Z"></path><path fill="#000000" d="M109.793 130.185H116.538V129.462H109.793C109.7 129.467 109.613 129.507 109.549 129.574C109.486 129.642 109.45 129.731 109.45 129.824C109.45 129.916 109.486 130.005 109.549 130.073C109.613 130.14 109.7 130.18 109.793 130.185Z"></path><g><path fill="#000000" d="M47.452 75.389C47.4553 75.4805 47.4931 75.5674 47.5578 75.6322C47.6226 75.697 47.7095 75.7348 47.801 75.738H56.459C56.5516 75.7331 56.6388 75.6929 56.7026 75.6257C56.7664 75.5584 56.802 75.4692 56.802 75.3765C56.802 75.2838 56.7664 75.1946 56.7026 75.1274C56.6388 75.0601 56.5516 75.0199 56.459 75.015H47.8C47.7526 75.0167 47.706 75.0277 47.6628 75.0474C47.6197 75.0671 47.5808 75.0951 47.5485 75.1299C47.5162 75.1646 47.491 75.2054 47.4745 75.2498C47.4579 75.2943 47.4503 75.3416 47.452 75.389V75.389Z"></path><path fill="#000000" d="M56.307 72.3671C56.304 72.2756 56.2664 72.1887 56.2018 72.1239C56.1372 72.0592 56.0504 72.0213 55.959 72.0181H47.3C47.2074 72.0229 47.1202 72.0631 47.0564 72.1304C46.9926 72.1977 46.957 72.2869 46.957 72.3796C46.957 72.4723 46.9926 72.5615 47.0564 72.6287C47.1202 72.696 47.2074 72.7362 47.3 72.7411H55.958C56.0055 72.7395 56.0522 72.7286 56.0955 72.709C56.1388 72.6893 56.1778 72.6613 56.2102 72.6265C56.2426 72.5918 56.2679 72.551 56.2845 72.5065C56.3011 72.4619 56.3087 72.4146 56.307 72.3671Z"></path><path fill="#000000" d="M55.308 69.676C55.305 69.5844 55.2673 69.4974 55.2025 69.4326C55.1377 69.3678 55.0506 69.33 54.959 69.327H46.3C46.2074 69.3319 46.1202 69.3721 46.0564 69.4394C45.9926 69.5066 45.957 69.5958 45.957 69.6885C45.957 69.7812 45.9926 69.8704 46.0564 69.9377C46.1202 70.0049 46.2074 70.0452 46.3 70.05H54.957C55.0531 70.0469 55.1441 70.0058 55.2099 69.9356C55.2757 69.8655 55.311 69.7721 55.308 69.676V69.676Z"></path><path fill="#000000" d="M109.444 46.3C109.447 46.3915 109.485 46.4785 109.55 46.5431C109.615 46.6078 109.702 46.6453 109.793 46.648H118.45C118.497 46.648 118.544 46.6387 118.588 46.6205C118.632 46.6024 118.672 46.5758 118.705 46.5423C118.739 46.5088 118.765 46.469 118.784 46.4252C118.802 46.3814 118.811 46.3344 118.811 46.287C118.811 46.2396 118.802 46.1927 118.784 46.1489C118.765 46.1051 118.739 46.0653 118.705 46.0318C118.672 45.9982 118.632 45.9716 118.588 45.9535C118.544 45.9354 118.497 45.926 118.45 45.926H109.793C109.697 45.9294 109.607 45.9707 109.541 46.0408C109.476 46.1109 109.441 46.2042 109.444 46.3Z"></path><path fill="#000000" d="M108.944 43.3C108.947 43.3916 108.985 43.4785 109.05 43.5432C109.115 43.608 109.202 43.6458 109.293 43.649H117.95C118.043 43.6442 118.13 43.6039 118.194 43.5367C118.257 43.4694 118.293 43.3802 118.293 43.2875C118.293 43.1948 118.257 43.1056 118.194 43.0384C118.13 42.9711 118.043 42.9309 117.95 42.926H109.293C109.197 42.9294 109.107 42.9707 109.041 43.0408C108.976 43.1109 108.941 43.2042 108.944 43.3V43.3Z"></path><path fill="#000000" d="M107.945 40.6111C107.948 40.7024 107.986 40.7892 108.05 40.8538C108.115 40.9184 108.202 40.9561 108.293 40.9591H116.951C117.042 40.9523 117.127 40.9113 117.189 40.8443C117.252 40.7774 117.286 40.6894 117.286 40.5981C117.286 40.5067 117.252 40.4187 117.189 40.3518C117.127 40.2848 117.042 40.2438 116.951 40.2371H108.293C108.246 40.2386 108.199 40.2495 108.156 40.2692C108.112 40.2889 108.073 40.3169 108.041 40.3516C108.009 40.3864 107.984 40.4272 107.967 40.4717C107.951 40.5163 107.943 40.5636 107.945 40.6111V40.6111Z"></path><path fill="#000000" d="M105.794 38.5311H114.451C114.535 38.5156 114.612 38.471 114.667 38.4051C114.722 38.3391 114.752 38.256 114.752 38.1701C114.752 38.0842 114.722 38.0011 114.667 37.9351C114.612 37.8691 114.535 37.8245 114.451 37.8091H105.794C105.698 37.8091 105.606 37.8471 105.539 37.9148C105.471 37.9825 105.433 38.0743 105.433 38.1701C105.433 38.2658 105.471 38.3576 105.539 38.4254C105.606 38.4931 105.698 38.5311 105.794 38.5311V38.5311Z"></path><path fill="#000000" d="M184.613 88.557C184.613 87.278 184.36 86.0116 183.87 84.8302C183.38 83.6488 182.661 82.5757 181.756 81.6721C180.851 80.7685 179.776 80.0522 178.594 79.5642C177.412 79.0762 176.145 78.8261 174.866 78.828H154.466C152.9 78.8491 151.363 79.248 149.984 79.991C149.984 79.991 149.984 51.811 149.95 51.46C149.789 49.8515 149.036 48.3602 147.837 47.2757C146.639 46.1913 145.08 45.5912 143.463 45.592H124.844C124.411 42.721 122.963 40.1005 120.762 38.207C118.561 36.3135 115.753 35.2728 112.85 35.274C112.75 35.254 113.35 35.274 92.818 35.274C90.1666 35.1831 87.5583 35.9626 85.3915 37.4932C83.2247 39.0239 81.6184 41.2217 80.818 43.751C80.3326 45.4446 80.1386 47.2084 80.244 48.967V76.127H62.4C62.4598 75.1248 62.4115 74.119 62.256 73.127C61.8876 71.0631 60.8032 69.1952 59.1937 67.8518C57.5842 66.5084 55.5525 65.7755 53.456 65.782C38.612 65.737 34.563 65.747 33.436 65.768C28.071 65.868 24.673 69.403 24.178 73.683C24.09 74.612 24.147 72.661 24.117 96.215C24.1037 98.402 24.8913 100.518 26.3312 102.164C27.7711 103.81 29.7637 104.872 31.933 105.15C33.044 105.292 35.638 104.93 38.262 107.082C39.121 107.79 39.8283 108.663 40.3416 109.651C40.8548 110.638 41.1635 111.719 41.249 112.829C41.282 113.305 41.149 112.141 41.27 128.204C41.271 128.299 41.3094 128.391 41.3769 128.458C41.4443 128.526 41.5356 128.564 41.631 128.565H62.031C62.1262 128.563 62.2172 128.525 62.2845 128.458C62.3519 128.39 62.3904 128.299 62.392 128.204C62.392 128.204 62.392 113.604 62.392 113.304C62.3581 110.956 61.4015 108.716 59.7291 107.069C58.0567 105.421 55.8029 104.497 53.455 104.498C52.3766 104.498 51.3086 104.286 50.3122 103.874C49.3157 103.462 48.4102 102.857 47.6473 102.095C46.8845 101.333 46.2793 100.428 45.8662 99.4314C45.4532 98.4352 45.2404 97.3674 45.24 96.289C45.24 96.275 45.24 95.794 45.24 95.504C46.275 96.0346 47.4181 96.3203 48.581 96.339C48.628 96.351 67.691 96.288 67.74 96.288C67.74 114.365 67.681 112.613 67.853 114.055C68.1321 115.556 68.9244 116.913 70.0942 117.894C71.264 118.875 72.7385 119.418 74.265 119.431C74.365 119.463 73.756 119.447 88.483 119.447C91.22 124.015 97.061 127.447 103.872 127.957C103.872 127.957 103.857 131.915 103.872 133.517C103.887 135.238 104.557 136.888 105.746 138.132C106.935 139.375 108.554 140.119 110.272 140.211C110.372 140.211 130.959 140.242 131.084 140.193C131.98 140.182 132.865 139.99 133.685 139.628C134.505 139.267 135.244 138.744 135.857 138.09C136.47 137.437 136.945 136.666 137.253 135.825C137.562 134.983 137.697 134.088 137.651 133.193V113.215C137.736 113.215 157.641 113.215 157.721 113.187C159.877 113.135 161.934 112.269 163.478 110.763V151.509C163.479 151.605 163.517 151.696 163.585 151.764C163.652 151.831 163.743 151.87 163.839 151.871H184.239C184.334 151.869 184.425 151.831 184.493 151.763C184.56 151.696 184.599 151.604 184.6 151.509C184.6 151.509 184.615 89.441 184.613 88.557ZM116.944 36.757C118.805 37.4807 120.446 38.6763 121.706 40.2262C122.965 41.7761 123.799 43.627 124.127 45.597H123.059C121.581 45.5988 120.148 46.1016 118.993 47.0234C117.838 47.9452 117.029 49.2315 116.7 50.672C116.468 51.741 116.537 51.263 116.537 66.29H109.793C109.697 66.29 109.605 66.3281 109.538 66.3958C109.47 66.4635 109.432 66.5553 109.432 66.651C109.432 66.7468 109.47 66.8386 109.538 66.9063C109.605 66.974 109.697 67.012 109.793 67.012H116.537V68.981H109.793C109.7 68.9859 109.613 69.0261 109.549 69.0934C109.486 69.1606 109.45 69.2498 109.45 69.3425C109.45 69.4352 109.486 69.5244 109.549 69.5917C109.613 69.6589 109.7 69.6992 109.793 69.704H116.537V71.978H109.793C109.7 71.9829 109.613 72.0231 109.549 72.0904C109.486 72.1576 109.45 72.2468 109.45 72.3395C109.45 72.4322 109.486 72.5214 109.549 72.5887C109.613 72.6559 109.7 72.6962 109.793 72.701H116.537V74.892H109.793C109.697 74.892 109.605 74.9301 109.538 74.9978C109.47 75.0655 109.432 75.1573 109.432 75.253C109.432 75.3488 109.47 75.4406 109.538 75.5083C109.605 75.576 109.697 75.614 109.793 75.614H116.537V84.999H109.793C109.7 85.0039 109.613 85.0441 109.549 85.1114C109.486 85.1786 109.45 85.2678 109.45 85.3605C109.45 85.4532 109.486 85.5424 109.549 85.6097C109.613 85.6769 109.7 85.7172 109.793 85.722H116.537V87.69H109.793C109.7 87.6949 109.613 87.7351 109.549 87.8024C109.486 87.8696 109.45 87.9588 109.45 88.0515C109.45 88.1442 109.486 88.2334 109.549 88.3007C109.613 88.3679 109.7 88.4082 109.793 88.413H116.537V90.688H109.793C109.697 90.688 109.605 90.7261 109.538 90.7938C109.47 90.8615 109.432 90.9533 109.432 91.049C109.432 91.1448 109.47 91.2366 109.538 91.3043C109.605 91.372 109.697 91.41 109.793 91.41H116.537V100.22C112.859 98.3211 108.739 97.4462 104.607 97.687C104.607 43.055 104.667 47.196 104.468 45.627C104.134 43.459 103.223 41.4208 101.829 39.7264C100.436 38.032 98.6126 36.7438 96.55 35.997C113.273 35.992 114.409 35.785 116.944 36.752V36.757ZM101.456 45.993C101.624 44.6858 102.021 43.4185 102.629 42.249C103.478 43.9607 103.908 45.8496 103.884 47.76V60.468C103.594 59.968 101.915 57.088 101.366 56.146C101.366 46.7 101.341 47.111 101.456 45.988V45.993ZM103.884 61.9V71.61C92.302 71.61 87.384 71.617 86.984 71.599C87.27 71.109 98.203 52.355 98.266 52.257L103.884 61.9ZM101.366 72.333H103.884C103.884 95.365 103.85 97.566 103.905 97.726C103.053 97.7949 102.206 97.9084 101.366 98.066V72.333ZM53.466 105.216C55.5532 105.221 57.5608 106.017 59.083 107.446C60.6052 108.874 61.5284 110.826 61.666 112.909C61.713 113.709 61.659 127.733 61.666 127.836H42V113.833C42.0509 112.638 41.8618 111.445 41.444 110.324C41.0261 109.203 40.388 108.177 39.5671 107.307C38.7463 106.437 37.7594 105.74 36.6648 105.258C35.5702 104.775 34.3901 104.517 33.194 104.498C32.1027 104.516 31.0189 104.316 30.0057 103.91C28.9926 103.505 28.0705 102.901 27.2933 102.135C26.5162 101.368 25.8996 100.455 25.4795 99.4477C25.0595 98.4404 24.8444 97.3594 24.847 96.268C24.847 95.648 24.798 75.614 24.856 74.324C24.9549 72.2535 25.8334 70.2971 27.3151 68.8475C28.7967 67.3979 30.7719 66.5623 32.8441 66.5087C34.9162 66.455 36.932 67.1871 38.4867 68.5581C40.0414 69.9291 41.02 71.8374 41.226 73.9H29.326C29.2307 73.9016 29.1398 73.9401 29.0724 74.0075C29.0051 74.0748 28.9665 74.1658 28.965 74.261V87.861C28.9665 87.9563 29.0051 88.0472 29.0724 88.1146C29.1398 88.182 29.2307 88.2205 29.326 88.222H41.277C41.2536 88.8986 41.2897 89.5758 41.385 90.246C41.5521 91.2233 41.9172 92.1561 42.4578 92.9872C42.9985 93.8183 43.7033 94.5302 44.529 95.079V96.152C44.5112 97.3364 44.7292 98.5126 45.1702 99.6119C45.6112 100.711 46.2665 101.712 47.0979 102.556C47.9293 103.4 48.9202 104.07 50.0129 104.527C51.1057 104.984 52.2784 105.219 53.463 105.219L53.466 105.216ZM41.266 74.622C41.281 75.339 41.276 73.351 41.276 87.496H29.685V74.625L41.266 74.622ZM48.661 95.622C47.7748 95.6248 46.897 95.4502 46.0794 95.1085C45.2617 94.7668 44.5207 94.2649 43.9 93.6325C43.2793 93 42.7914 92.2497 42.4651 91.4258C42.1388 90.6019 41.9806 89.721 42 88.835C42 88.835 42.006 74.691 41.994 74.378C41.9322 72.683 41.3873 71.041 40.4235 69.6453C39.4597 68.2495 38.1172 67.1583 36.554 66.5H53.463C55.2749 66.495 57.0372 67.0911 58.474 68.195C59.9108 69.2988 60.9409 70.848 61.403 72.6C61.6731 73.7583 61.7642 74.9512 61.673 76.137C60.4487 76.1758 59.2592 76.5533 58.2365 77.2275C57.2139 77.9017 56.3982 78.8462 55.88 79.956H47.8C47.7042 79.956 47.6124 79.9941 47.5447 80.0618C47.477 80.1295 47.439 80.2213 47.439 80.317C47.439 80.4128 47.477 80.5046 47.5447 80.5723C47.6124 80.64 47.7042 80.678 47.8 80.678H55.6C55.389 81.3133 55.2784 81.9776 55.272 82.647H47.8C47.7074 82.6519 47.6202 82.6921 47.5564 82.7594C47.4926 82.8266 47.457 82.9158 47.457 83.0085C47.457 83.1012 47.4926 83.1904 47.5564 83.2577C47.6202 83.3249 47.7074 83.3652 47.8 83.37H55.261C55.261 83.411 55.261 88.636 55.261 88.993C55.2618 90.7461 54.5677 92.428 53.3308 93.6704C52.0939 94.9127 50.4151 95.6141 48.662 95.621L48.661 95.622ZM67.751 82.867V95.588H51.812C53.0951 94.9707 54.1719 93.9951 54.9125 92.779C55.653 91.5629 56.0255 90.1583 55.985 88.735C55.928 82.99 55.872 82.025 56.33 80.735C56.8036 79.4205 57.7293 78.3173 58.9417 77.6227C60.1541 76.9282 61.5741 76.6876 62.9476 76.944C64.3211 77.2003 65.5586 77.937 66.4388 79.0221C67.319 80.1073 67.7845 81.4702 67.752 82.867H67.751ZM74.4 118.722C73.6077 118.727 72.8226 118.572 72.0916 118.266C71.3607 117.96 70.6989 117.51 70.146 116.943C69.5931 116.375 69.1604 115.702 68.8738 114.963C68.5872 114.225 68.4525 113.436 68.478 112.644V83.183C68.5581 81.8906 68.2593 80.6028 67.6182 79.4777C66.9772 78.3526 66.0217 77.439 64.869 76.849L80.245 76.843V80.51H73.095C72.9992 80.51 72.9074 80.5481 72.8397 80.6158C72.772 80.6835 72.734 80.7753 72.734 80.871C72.734 80.9668 72.772 81.0586 72.8397 81.1263C72.9074 81.194 72.9992 81.232 73.095 81.232H80.245V83.507H73.595C73.4992 83.507 73.4074 83.5451 73.3397 83.6128C73.272 83.6805 73.234 83.7723 73.234 83.868C73.234 83.9638 73.272 84.0556 73.3397 84.1233C73.4074 84.191 73.4992 84.229 73.595 84.229H80.245V88.445H73.595C73.5024 88.4499 73.4152 88.4901 73.3514 88.5574C73.2876 88.6246 73.252 88.7138 73.252 88.8065C73.252 88.8992 73.2876 88.9884 73.3514 89.0557C73.4152 89.1229 73.5024 89.1632 73.595 89.168H80.245V91.136H73.595C73.5024 91.1409 73.4152 91.1811 73.3514 91.2484C73.2876 91.3156 73.252 91.4048 73.252 91.4975C73.252 91.5902 73.2876 91.6794 73.3514 91.7467C73.4152 91.8139 73.5024 91.8542 73.595 91.859H80.245V109.559H73.595C73.4992 109.559 73.4074 109.597 73.3397 109.665C73.272 109.732 73.234 109.824 73.234 109.92C73.234 110.016 73.272 110.108 73.3397 110.175C73.4074 110.243 73.4992 110.281 73.595 110.281H80.245V112.472H73.595C73.5024 112.477 73.4152 112.517 73.3514 112.584C73.2876 112.652 73.252 112.741 73.252 112.834C73.252 112.926 73.2876 113.015 73.3514 113.083C73.4152 113.15 73.5024 113.19 73.595 113.195H80.221C80.1434 114.687 79.4963 116.091 78.4131 117.12C77.33 118.148 75.8936 118.722 74.4 118.722V118.722ZM77.323 118.722C78.4612 118.153 79.4108 117.268 80.0575 116.172C80.7042 115.077 81.0204 113.817 80.968 112.546C80.968 112.546 80.968 48.47 80.968 47.474C80.93 36.109 96.056 31.49 102.215 41.497C101.189 43.3402 100.649 45.4144 100.647 47.524C100.647 49.105 100.647 54.904 100.647 54.904C100.366 54.419 99.486 52.911 98.575 51.346C98.5424 51.2924 98.4966 51.2481 98.442 51.2174C98.3873 51.1866 98.3257 51.1704 98.263 51.1704C98.2003 51.1704 98.1386 51.1866 98.084 51.2174C98.0293 51.2481 97.9835 51.2924 97.951 51.346L86.037 71.792C86.006 71.8471 85.9898 71.9093 85.9901 71.9725C85.9903 72.0358 86.007 72.0978 86.0384 72.1527C86.0699 72.2075 86.115 72.2532 86.1695 72.2854C86.2239 72.3175 86.2858 72.335 86.349 72.336H100.649V98.206C97.0336 98.948 93.6896 100.663 90.978 103.167C88.8192 105.059 87.3594 107.622 86.8334 110.443C86.3074 113.265 86.7458 116.182 88.078 118.724L77.323 118.722ZM87.35 113.98C86.655 107.262 92.029 101.715 98.185 99.652C101.173 98.5991 104.348 98.1781 107.507 98.4159C110.667 98.6536 113.743 99.5448 116.54 101.033V124.643C104.707 131.185 88.5 125.092 87.347 113.982L87.35 113.98ZM105.289 136.3C104.325 134.478 104.607 132.1 104.607 130.092V128C108.739 128.248 112.861 127.374 116.537 125.47V129.47H109.793C109.7 129.475 109.613 129.515 109.549 129.582C109.486 129.65 109.45 129.739 109.45 129.832C109.45 129.924 109.486 130.013 109.549 130.081C109.613 130.148 109.7 130.188 109.793 130.193H116.537V132.384H109.793C109.7 132.389 109.613 132.429 109.549 132.496C109.486 132.564 109.45 132.653 109.45 132.746C109.45 132.838 109.486 132.927 109.549 132.995C109.613 133.062 109.7 133.102 109.793 133.107H116.537C116.537 133.202 116.537 133.296 116.537 133.391C116.549 134.249 116.38 135.1 116.041 135.889C115.701 136.677 115.2 137.385 114.568 137.966C113.891 138.573 113.085 139.018 112.211 139.267C111.336 139.516 110.416 139.561 109.521 139.401C108.626 139.24 107.78 138.877 107.047 138.34C106.313 137.803 105.712 137.105 105.289 136.3V136.3ZM136.833 134.659C136.556 136.065 135.785 137.325 134.659 138.212C133.533 139.098 132.128 139.553 130.696 139.493H113.557C114.736 138.906 115.715 137.985 116.373 136.844C117.031 135.703 117.339 134.394 117.257 133.08V52.287C117.242 51.4872 117.389 50.6925 117.688 49.9507C117.988 49.2089 118.434 48.5352 119 47.97C119.717 47.2716 120.602 46.7701 121.569 46.5144C122.537 46.2586 123.554 46.2571 124.522 46.5102C125.49 46.7632 126.377 47.2621 127.095 47.9585C127.814 48.6549 128.341 49.5252 128.624 50.485C128.96 51.685 129.114 47.116 128.856 104.729C128.829 106.917 129.659 109.028 131.17 110.61C132.68 112.193 134.751 113.121 136.937 113.196V130.556C137.031 131.924 136.997 133.298 136.833 134.66V134.659ZM129.581 104.846C129.581 104.569 129.581 52.432 129.581 52.124C129.579 50.9207 129.244 49.7414 128.615 48.7161C127.985 47.6907 127.084 46.8592 126.012 46.313H143.461C144.236 46.3156 145.002 46.4727 145.715 46.7752C146.428 47.0777 147.074 47.5195 147.614 48.0747C148.154 48.6298 148.578 49.2872 148.861 50.0083C149.144 50.7294 149.28 51.4997 149.261 52.274V80.419C147.513 81.5488 146.174 83.2095 145.441 85.157C144.916 86.8686 144.713 88.6624 144.841 90.448C143.798 90.448 142.754 90.448 141.711 90.448C139.872 90.4448 138.094 91.1123 136.711 92.3254C135.329 93.5385 134.436 95.214 134.2 97.0382C133.963 98.8624 134.4 100.71 135.428 102.235C136.457 103.761 138.005 104.859 139.785 105.324C141.441 105.607 143.125 105.688 144.801 105.567C144.619 107.52 143.69 109.328 142.209 110.615C140.728 111.902 138.808 112.568 136.849 112.475C134.889 112.382 133.04 111.538 131.687 110.117C130.334 108.696 129.581 106.809 129.584 104.847L129.581 104.846ZM163.489 109.676C162.79 110.528 161.915 111.218 160.925 111.702C159.935 112.185 158.852 112.449 157.751 112.476C157.228 112.485 160.946 112.476 140.565 112.476C141.935 111.873 143.117 110.913 143.989 109.697C144.861 108.481 145.391 107.054 145.523 105.563H163.489V109.676ZM163.489 104.843H141.771C140.043 104.865 138.371 104.231 137.091 103.07C135.812 101.91 135.019 100.307 134.872 98.5856C134.726 96.8639 135.236 95.1506 136.301 93.7901C137.367 92.4296 138.907 91.5228 140.614 91.252C141.514 91.134 139.808 91.17 163.489 91.17V104.843ZM163.489 90.443H145.564C145.564 89.043 145.534 88.543 145.617 87.504C145.871 85.2728 146.952 83.2179 148.648 81.7459C150.344 80.274 152.531 79.4921 154.776 79.5549C157.02 79.6178 159.16 80.5208 160.771 82.0853C162.382 83.6499 163.347 85.7621 163.475 88.004C163.518 88.816 163.489 89.636 163.489 90.446V90.443ZM183.882 151.143H164.211C164.211 151.143 164.211 89.422 164.211 88.543C164.202 86.616 163.625 84.7344 162.552 83.1337C161.479 81.5329 159.958 80.2839 158.179 79.543H174.866C177.183 79.5272 179.417 80.4094 181.098 82.0046C182.779 83.5998 183.777 85.784 183.882 88.099C183.909 88.755 183.832 150.018 183.882 151.148V151.143Z"></path><path fill="#000000" d="M178.5 136.83H169.843C169.747 136.83 169.655 136.868 169.588 136.936C169.52 137.004 169.482 137.095 169.482 137.191C169.482 137.287 169.52 137.379 169.588 137.446C169.655 137.514 169.747 137.552 169.843 137.552H178.5C178.596 137.552 178.688 137.514 178.755 137.446C178.823 137.379 178.861 137.287 178.861 137.191C178.861 137.095 178.823 137.004 178.755 136.936C178.688 136.868 178.596 136.83 178.5 136.83Z"></path><path fill="#000000" d="M178.5 133.916H169.843C169.75 133.921 169.663 133.961 169.599 134.028C169.536 134.096 169.5 134.185 169.5 134.278C169.5 134.37 169.536 134.459 169.599 134.527C169.663 134.594 169.75 134.634 169.843 134.639H178.5C178.593 134.634 178.68 134.594 178.744 134.527C178.807 134.459 178.843 134.37 178.843 134.278C178.843 134.185 178.807 134.096 178.744 134.028C178.68 133.961 178.593 133.921 178.5 133.916V133.916Z"></path><path fill="#000000" d="M178.5 94.983H169.843C169.75 94.9879 169.663 95.0281 169.599 95.0954C169.536 95.1626 169.5 95.2518 169.5 95.3445C169.5 95.4372 169.536 95.5264 169.599 95.5937C169.663 95.6609 169.75 95.7012 169.843 95.706H178.5C178.593 95.7012 178.68 95.6609 178.744 95.5937C178.807 95.5264 178.843 95.4372 178.843 95.3445C178.843 95.2518 178.807 95.1626 178.744 95.0954C178.68 95.0281 178.593 94.9879 178.5 94.983Z"></path><path fill="#000000" d="M178.5 92.292H169.843C169.75 92.2969 169.663 92.3371 169.599 92.4043C169.536 92.4716 169.5 92.5608 169.5 92.6535C169.5 92.7462 169.536 92.8354 169.599 92.9026C169.663 92.9699 169.75 93.0101 169.843 93.015H178.5C178.593 93.0101 178.68 92.9699 178.744 92.9026C178.807 92.8354 178.843 92.7462 178.843 92.6535C178.843 92.5608 178.807 92.4716 178.744 92.4043C178.68 92.3371 178.593 92.2969 178.5 92.292Z"></path><path fill="#000000" d="M178.5 89.379H169.843C169.747 89.379 169.655 89.4171 169.588 89.4848C169.52 89.5525 169.482 89.6443 169.482 89.74C169.482 89.8358 169.52 89.9276 169.588 89.9953C169.655 90.063 169.747 90.101 169.843 90.101H178.5C178.596 90.101 178.688 90.063 178.755 89.9953C178.823 89.9276 178.861 89.8358 178.861 89.74C178.861 89.6443 178.823 89.5525 178.755 89.4848C178.688 89.4171 178.596 89.379 178.5 89.379V89.379Z"></path><path fill="#000000" d="M178.5 86.3821H169.843C169.747 86.3821 169.655 86.4201 169.588 86.4878C169.52 86.5555 169.482 86.6473 169.482 86.7431C169.482 86.8388 169.52 86.9306 169.588 86.9983C169.655 87.066 169.747 87.1041 169.843 87.1041H178.5C178.596 87.1041 178.688 87.066 178.755 86.9983C178.823 86.9306 178.861 86.8388 178.861 86.7431C178.861 86.6473 178.823 86.5555 178.755 86.4878C178.688 86.4201 178.596 86.3821 178.5 86.3821V86.3821Z"></path><path fill="#000000" d="M56.629 122.521H47.971C47.8784 122.526 47.7913 122.566 47.7274 122.633C47.6636 122.701 47.6281 122.79 47.6281 122.882C47.6281 122.975 47.6636 123.064 47.7274 123.132C47.7913 123.199 47.8784 123.239 47.971 123.244H56.629C56.7216 123.239 56.8088 123.199 56.8726 123.132C56.9364 123.064 56.972 122.975 56.972 122.882C56.972 122.79 56.9364 122.701 56.8726 122.633C56.8088 122.566 56.7216 122.526 56.629 122.521V122.521Z"></path><path fill="#000000" d="M47.622 120.2C47.6252 120.292 47.663 120.378 47.7278 120.443C47.7926 120.508 47.8795 120.546 47.971 120.549H56.629C56.7216 120.544 56.8088 120.504 56.8726 120.437C56.9364 120.369 56.972 120.28 56.972 120.188C56.972 120.095 56.9364 120.006 56.8726 119.938C56.8088 119.871 56.7216 119.831 56.629 119.826H47.971C47.8752 119.83 47.7848 119.871 47.7194 119.941C47.654 120.011 47.619 120.104 47.622 120.2V120.2Z"></path><path fill="#000000" d="M46.123 109.577C46.126 109.668 46.1636 109.755 46.2282 109.82C46.2928 109.885 46.3796 109.923 46.471 109.926H55.129C55.2248 109.926 55.3166 109.888 55.3843 109.82C55.452 109.753 55.49 109.661 55.49 109.565C55.49 109.469 55.452 109.377 55.3843 109.31C55.3166 109.242 55.2248 109.204 55.129 109.204H46.471C46.4237 109.206 46.3771 109.216 46.3339 109.236C46.2908 109.256 46.2519 109.284 46.2196 109.318C46.1872 109.353 46.1621 109.394 46.1455 109.438C46.1289 109.482 46.1213 109.53 46.123 109.577V109.577Z"></path><path fill="#000000" d="M43.623 107.149C43.6262 107.241 43.664 107.327 43.7288 107.392C43.7936 107.457 43.8805 107.495 43.972 107.498H52.63C52.7226 107.493 52.8098 107.453 52.8736 107.386C52.9374 107.318 52.973 107.229 52.973 107.137C52.973 107.044 52.9374 106.955 52.8736 106.887C52.8098 106.82 52.7226 106.78 52.63 106.775H43.972C43.8762 106.778 43.7856 106.82 43.7201 106.89C43.6547 106.96 43.6198 107.053 43.623 107.149Z"></path><path fill="#000000" d="M178.5 116.226H169.843C169.75 116.231 169.663 116.271 169.599 116.338C169.536 116.406 169.5 116.495 169.5 116.588C169.5 116.68 169.536 116.769 169.599 116.837C169.663 116.904 169.75 116.944 169.843 116.949H178.5C178.593 116.944 178.68 116.904 178.744 116.837C178.807 116.769 178.843 116.68 178.843 116.588C178.843 116.495 178.807 116.406 178.744 116.338C178.68 116.271 178.593 116.231 178.5 116.226V116.226Z"></path><path fill="#000000" d="M178.5 113.229H169.843C169.75 113.234 169.663 113.274 169.599 113.341C169.536 113.409 169.5 113.498 169.5 113.591C169.5 113.683 169.536 113.772 169.599 113.84C169.663 113.907 169.75 113.947 169.843 113.952H178.5C178.593 113.947 178.68 113.907 178.744 113.84C178.807 113.772 178.843 113.683 178.843 113.591C178.843 113.498 178.807 113.409 178.744 113.341C178.68 113.274 178.593 113.234 178.5 113.229V113.229Z"></path><path fill="#000000" d="M178.5 107.624H169.843C169.75 107.629 169.663 107.669 169.599 107.736C169.536 107.804 169.5 107.893 169.5 107.986C169.5 108.078 169.536 108.167 169.599 108.235C169.663 108.302 169.75 108.342 169.843 108.347H178.5C178.593 108.342 178.68 108.302 178.744 108.235C178.807 108.167 178.843 108.078 178.843 107.986C178.843 107.893 178.807 107.804 178.744 107.736C178.68 107.669 178.593 107.629 178.5 107.624V107.624Z"></path><path fill="#000000" d="M178.5 104.628H169.843C169.747 104.628 169.655 104.666 169.588 104.734C169.52 104.801 169.482 104.893 169.482 104.989C169.482 105.085 169.52 105.177 169.588 105.244C169.655 105.312 169.747 105.35 169.843 105.35H178.5C178.596 105.35 178.688 105.312 178.755 105.244C178.823 105.177 178.861 105.085 178.861 104.989C178.861 104.893 178.823 104.801 178.755 104.734C178.688 104.666 178.596 104.628 178.5 104.628V104.628Z"></path><path fill="#000000" d="M177.35 83.4C177.347 83.3086 177.309 83.2217 177.245 83.1569C177.18 83.0921 177.093 83.0543 177.002 83.051H168.344C168.248 83.051 168.156 83.0891 168.089 83.1568C168.021 83.2245 167.983 83.3163 167.983 83.412C167.983 83.5078 168.021 83.5996 168.089 83.6673C168.156 83.735 168.248 83.773 168.344 83.773H177C177.048 83.7717 177.094 83.761 177.138 83.7415C177.181 83.7221 177.22 83.6942 177.253 83.6595C177.285 83.6248 177.311 83.584 177.327 83.5395C177.344 83.495 177.352 83.4476 177.35 83.4V83.4Z"></path><path fill="#000000" d="M174.851 80.9C174.848 80.8084 174.81 80.7214 174.746 80.6566C174.681 80.5918 174.594 80.554 174.502 80.551H165.845C165.752 80.5559 165.665 80.5961 165.601 80.6634C165.538 80.7306 165.502 80.8198 165.502 80.9125C165.502 81.0052 165.538 81.0944 165.601 81.1617C165.665 81.2289 165.752 81.2692 165.845 81.274H174.5C174.548 81.2726 174.595 81.2618 174.638 81.2422C174.681 81.2226 174.721 81.1947 174.753 81.1599C174.786 81.1252 174.811 81.0843 174.828 81.0397C174.845 80.9951 174.853 80.9477 174.851 80.9V80.9Z"></path><path fill="#000000" d="M135.545 88.456H144.2C144.293 88.4512 144.38 88.4109 144.444 88.3437C144.507 88.2764 144.543 88.1872 144.543 88.0945C144.543 88.0018 144.507 87.9126 144.444 87.8454C144.38 87.7781 144.293 87.7379 144.2 87.733H135.542C135.449 87.7379 135.362 87.7781 135.298 87.8454C135.235 87.9126 135.199 88.0018 135.199 88.0945C135.199 88.1872 135.235 88.2764 135.298 88.3437C135.362 88.4109 135.449 88.4512 135.542 88.456H135.545Z"></path><path fill="#000000" d="M135.545 85.4591H144.2C144.293 85.4542 144.38 85.414 144.444 85.3467C144.507 85.2795 144.543 85.1903 144.543 85.0976C144.543 85.0049 144.507 84.9157 144.444 84.8484C144.38 84.7812 144.293 84.741 144.2 84.7361H135.542C135.449 84.741 135.362 84.7812 135.298 84.8484C135.235 84.9157 135.199 85.0049 135.199 85.0976C135.199 85.1903 135.235 85.2795 135.298 85.3467C135.362 85.414 135.449 85.4542 135.542 85.4591H135.545Z"></path><path fill="#000000" d="M135.545 82.768H144.2C144.293 82.7632 144.38 82.723 144.444 82.6557C144.507 82.5884 144.543 82.4993 144.543 82.4065C144.543 82.3138 144.507 82.2246 144.444 82.1574C144.38 82.0901 144.293 82.0499 144.2 82.045H135.542C135.449 82.0499 135.362 82.0901 135.298 82.1574C135.235 82.2246 135.199 82.3138 135.199 82.4065C135.199 82.4993 135.235 82.5884 135.298 82.6557C135.362 82.723 135.449 82.7632 135.542 82.768H135.545Z"></path><path fill="#000000" d="M135.545 75.3551H144.2C144.296 75.3551 144.388 75.317 144.455 75.2493C144.523 75.1816 144.561 75.0898 144.561 74.9941C144.561 74.8983 144.523 74.8065 144.455 74.7388C144.388 74.6711 144.296 74.6331 144.2 74.6331H135.542C135.446 74.6331 135.354 74.6711 135.287 74.7388C135.219 74.8065 135.181 74.8983 135.181 74.9941C135.181 75.0898 135.219 75.1816 135.287 75.2493C135.354 75.317 135.446 75.3551 135.542 75.3551H135.545Z"></path><path fill="#000000" d="M135.545 72.358H144.2C144.296 72.358 144.388 72.32 144.455 72.2523C144.523 72.1846 144.561 72.0927 144.561 71.997C144.561 71.9012 144.523 71.8094 144.455 71.7417C144.388 71.674 144.296 71.636 144.2 71.636H135.542C135.446 71.636 135.354 71.674 135.287 71.7417C135.219 71.8094 135.181 71.9012 135.181 71.997C135.181 72.0927 135.219 72.1846 135.287 72.2523C135.354 72.32 135.446 72.358 135.542 72.358H135.545Z"></path><path fill="#000000" d="M135.545 61.541H144.2C144.293 61.5361 144.38 61.4959 144.444 61.4286C144.507 61.3614 144.543 61.2722 144.543 61.1795C144.543 61.0868 144.507 60.9976 144.444 60.9303C144.38 60.8631 144.293 60.8229 144.2 60.818H135.542C135.449 60.8229 135.362 60.8631 135.298 60.9303C135.235 60.9976 135.199 61.0868 135.199 61.1795C135.199 61.2722 135.235 61.3614 135.298 61.4286C135.362 61.4959 135.449 61.5361 135.542 61.541H135.545Z"></path><path fill="#000000" d="M135.545 58.544H144.2C144.293 58.5392 144.38 58.499 144.444 58.4317C144.507 58.3644 144.543 58.2753 144.543 58.1825C144.543 58.0898 144.507 58.0006 144.444 57.9334C144.38 57.8661 144.293 57.8259 144.2 57.821H135.542C135.449 57.8259 135.362 57.8661 135.298 57.9334C135.235 58.0006 135.199 58.0898 135.199 58.1825C135.199 58.2753 135.235 58.3644 135.298 58.4317C135.362 58.499 135.449 58.5392 135.542 58.544H135.545Z"></path><path fill="#000000" d="M41.644 132.351H61.707C61.7996 132.346 61.8868 132.306 61.9506 132.239C62.0144 132.171 62.05 132.082 62.05 131.99C62.05 131.897 62.0144 131.808 61.9506 131.74C61.8868 131.673 61.7996 131.633 61.707 131.628H41.644C41.5514 131.633 41.4642 131.673 41.4004 131.74C41.3366 131.808 41.301 131.897 41.301 131.99C41.301 132.082 41.3366 132.171 41.4004 132.239C41.4642 132.306 41.5514 132.346 41.644 132.351Z"></path><path fill="#000000" d="M41.644 134.805H61.707C61.7996 134.8 61.8868 134.76 61.9506 134.693C62.0144 134.625 62.05 134.536 62.05 134.444C62.05 134.351 62.0144 134.262 61.9506 134.194C61.8868 134.127 61.7996 134.087 61.707 134.082H41.644C41.5514 134.087 41.4642 134.127 41.4004 134.194C41.3366 134.262 41.301 134.351 41.301 134.444C41.301 134.536 41.3366 134.625 41.4004 134.693C41.4642 134.76 41.5514 134.8 41.644 134.805Z"></path><path fill="#000000" d="M184.2 164.008H164.141C164.048 164.013 163.961 164.053 163.897 164.12C163.834 164.188 163.798 164.277 163.798 164.37C163.798 164.462 163.834 164.551 163.897 164.619C163.961 164.686 164.048 164.726 164.141 164.731H184.2C184.293 164.726 184.38 164.686 184.444 164.619C184.507 164.551 184.543 164.462 184.543 164.37C184.543 164.277 184.507 164.188 184.444 164.12C184.38 164.053 184.293 164.013 184.2 164.008Z"></path><path fill="#000000" d="M184.2 161.3H164.141C164.048 161.305 163.961 161.345 163.897 161.412C163.834 161.48 163.798 161.569 163.798 161.662C163.798 161.754 163.834 161.843 163.897 161.911C163.961 161.978 164.048 162.018 164.141 162.023H184.2C184.293 162.018 184.38 161.978 184.444 161.911C184.507 161.843 184.543 161.754 184.543 161.662C184.543 161.569 184.507 161.48 184.444 161.412C184.38 161.345 184.293 161.305 184.2 161.3V161.3Z"></path><path fill="#000000" d="M61.7071 136.978H41.6441C41.3041 136.978 41.1291 137.491 41.4621 137.651C42.6101 138.203 51.0841 142.31 51.4841 142.47C51.8221 142.606 52.2841 142.27 52.5911 142.122C56.8351 140.08 59.5911 138.692 61.8451 137.673C61.9215 137.64 61.9844 137.583 62.0233 137.509C62.0621 137.436 62.0744 137.351 62.0582 137.27C62.0421 137.188 61.9983 137.115 61.9344 137.061C61.8704 137.008 61.7902 136.979 61.7071 136.978ZM51.6761 141.763L43.2271 137.7H60.1271L51.6761 141.763Z"></path><path fill="#000000" d="M184.409 158.534C184.24 158.445 174.709 153.843 174.364 153.704C174.019 153.565 173.559 153.904 173.257 154.052C173.121 154.117 168.757 156.228 163.957 158.523C163.624 158.683 163.799 159.196 164.139 159.196H184.2C184.277 159.199 184.352 159.175 184.413 159.127C184.474 159.08 184.516 159.013 184.532 158.938C184.569 158.868 184.577 158.786 184.554 158.711C184.531 158.635 184.479 158.572 184.409 158.534V158.534ZM165.724 158.474L174.172 154.412L182.621 158.474H165.724Z"></path><path fill="#000000" d="M182.427 71.6091C182.518 71.6056 182.605 71.5677 182.67 71.5029C182.734 71.4382 182.772 71.3514 182.775 71.2601V62.0201C182.775 61.9243 182.737 61.8325 182.669 61.7648C182.602 61.6971 182.51 61.6591 182.414 61.6591C182.318 61.6591 182.226 61.6971 182.159 61.7648C182.091 61.8325 182.053 61.9243 182.053 62.0201V71.2601C182.055 71.3076 182.065 71.3543 182.085 71.3976C182.105 71.4408 182.133 71.4798 182.167 71.5122C182.202 71.5447 182.243 71.5699 182.288 71.5865C182.332 71.6031 182.379 71.6108 182.427 71.6091V71.6091Z"></path><path fill="#000000" d="M191.892 65.51C191.825 65.447 191.737 65.4119 191.645 65.4119C191.553 65.4119 191.465 65.447 191.398 65.51C188.943 67.882 186.529 70.2963 184.156 72.753C184.095 72.822 184.062 72.9118 184.065 73.0039C184.068 73.0961 184.106 73.1837 184.171 73.2489C184.236 73.3141 184.324 73.352 184.416 73.3548C184.508 73.3576 184.598 73.3251 184.667 73.264L191.909 66.021C191.942 65.9863 191.967 65.9456 191.984 65.9012C192 65.8567 192.008 65.8094 192.007 65.7619C192.005 65.7145 191.994 65.6678 191.974 65.6245C191.955 65.5813 191.927 65.5424 191.892 65.51V65.51Z"></path><path fill="#000000" d="M194.651 74.645H186.659C186.566 74.6499 186.479 74.6901 186.415 74.7574C186.352 74.8246 186.316 74.9138 186.316 75.0065C186.316 75.0992 186.352 75.1884 186.415 75.2557C186.479 75.3229 186.566 75.3631 186.659 75.368H194.651C194.744 75.3631 194.831 75.3229 194.895 75.2557C194.958 75.1884 194.994 75.0992 194.994 75.0065C194.994 74.9138 194.958 74.8246 194.895 74.7574C194.831 74.6901 194.744 74.6499 194.651 74.645Z"></path><path fill="#000000" d="M16.686 89.478C16.683 89.3867 16.6454 89.2999 16.5808 89.2353C16.5162 89.1706 16.4294 89.133 16.338 89.13H5.34904C5.25329 89.13 5.16147 89.168 5.09377 89.2357C5.02607 89.3034 4.98804 89.3953 4.98804 89.491C4.98804 89.5867 5.02607 89.6786 5.09377 89.7463C5.16147 89.814 5.25329 89.852 5.34904 89.852H16.338C16.3855 89.8503 16.4321 89.8393 16.4752 89.8196C16.5184 89.7999 16.5572 89.7719 16.5896 89.7371C16.6219 89.7024 16.647 89.6616 16.6636 89.6172C16.6801 89.5727 16.6878 89.5254 16.686 89.478V89.478Z"></path><path fill="#000000" d="M16.831 87.249C16.8997 87.3123 16.9902 87.3466 17.0835 87.3448C17.1769 87.3429 17.266 87.305 17.3321 87.2391C17.3982 87.1731 17.4362 87.0841 17.4383 86.9907C17.4403 86.8974 17.4062 86.8068 17.343 86.738C15.299 84.62 13.218 82.5407 11.1 80.5C11.031 80.4389 10.9412 80.4064 10.849 80.4092C10.7569 80.412 10.6693 80.4499 10.6041 80.5151C10.5389 80.5803 10.501 80.6679 10.4982 80.7601C10.4954 80.8522 10.5279 80.942 10.589 81.011C12.6337 83.1237 14.7143 85.203 16.831 87.249Z"></path><path fill="#000000" d="M17.081 91.733L11.087 97.726C11.0259 97.7951 10.9935 97.8848 10.9963 97.977C10.9991 98.0692 11.0369 98.1568 11.1021 98.222C11.1673 98.2872 11.2549 98.325 11.3471 98.3278C11.4393 98.3306 11.529 98.2982 11.598 98.237L17.592 92.244C17.6532 92.175 17.6856 92.0853 17.6828 91.9931C17.68 91.9009 17.6422 91.8133 17.577 91.7481C17.5118 91.6829 17.4242 91.6451 17.332 91.6423C17.2398 91.6395 17.1501 91.6719 17.081 91.733V91.733Z"></path><path fill="#000000" d="M91.97 128.173L88.015 132.7C87.715 133.049 88.215 133.562 88.527 133.211L92.481 128.684C92.785 128.335 92.276 127.822 91.97 128.173Z"></path><path fill="#000000" d="M93.1 129.591C92.688 131.591 92.2756 133.591 91.863 135.591C91.769 136.045 92.463 136.239 92.563 135.783C92.975 133.783 93.3873 131.783 93.8 129.783C93.889 129.329 93.193 129.135 93.1 129.591Z"></path><path fill="#000000" d="M90.151 128.075L83.94 130.658C83.517 130.834 83.703 131.534 84.133 131.358L90.343 128.775C90.766 128.6 90.58 127.9 90.151 128.075Z"></path><path fill="#000000" d="M84.2001 61.8341C83.9751 62.2411 84.6001 62.6061 84.8241 62.1981C86.6171 58.9675 89.0448 56.1327 91.9611 53.8641C92.0418 53.8137 92.1002 53.7344 92.1242 53.6423C92.1482 53.5502 92.136 53.4524 92.0901 53.3691C92.0662 53.3281 92.0345 53.2922 91.9967 53.2635C91.9589 53.2348 91.9158 53.2139 91.8699 53.2019C91.824 53.1899 91.7762 53.1871 91.7292 53.1936C91.6822 53.2002 91.637 53.216 91.5961 53.2401C88.566 55.5657 86.0482 58.4913 84.2001 61.8341V61.8341Z"></path><path fill="#000000" d="M82.731 60.39C84.5245 57.1597 86.9521 54.3251 89.868 52.056C89.9494 52.0063 90.0086 51.9271 90.0331 51.8349C90.0577 51.7427 90.0459 51.6446 90 51.561C89.9761 51.52 89.9444 51.4841 89.9066 51.4554C89.8688 51.4267 89.8257 51.4057 89.7798 51.3938C89.7339 51.3818 89.6861 51.379 89.6391 51.3855C89.5921 51.3921 89.5469 51.4079 89.506 51.432C86.4743 53.757 83.9551 56.6827 82.106 60.026C81.882 60.433 82.506 60.8 82.731 60.39Z"></path><path fill="#000000" d="M143.018 98.316C142.819 98.3352 142.626 98.3964 142.452 98.4955C142.278 98.5945 142.127 98.7293 142.009 98.8909C141.89 99.0524 141.808 99.2372 141.766 99.433C141.724 99.6288 141.724 99.8312 141.766 100.027C141.779 100.073 141.8 100.116 141.829 100.154C141.859 100.191 141.895 100.223 141.936 100.246C141.978 100.27 142.023 100.285 142.071 100.291C142.118 100.297 142.166 100.294 142.212 100.281C142.258 100.268 142.301 100.247 142.339 100.218C142.376 100.188 142.408 100.152 142.431 100.111C142.455 100.069 142.47 100.024 142.476 99.9762C142.482 99.9289 142.479 99.8809 142.466 99.835C142.317 99.156 143.214 98.818 143.834 99.164C144.469 99.472 144.817 99.93 145.758 100.526C146.074 100.713 146.432 100.818 146.799 100.831C147.166 100.843 147.53 100.763 147.858 100.598C149.621 99.532 149.686 98.173 151.273 98.05C151.841 98.097 152.132 98.519 152.455 99.05C152.944 100.044 154.063 100.706 154.968 99.956C155.384 99.6015 155.754 99.1956 156.068 98.748C156.315 98.454 156.656 98.031 157.09 98.125C157.543 98.225 157.737 97.525 157.282 97.425C156.153 97.217 155.669 98.166 154.939 98.988C154.678 99.288 154.325 99.648 153.891 99.529C152.936 99.268 153.026 97.468 151.271 97.329C150.733 97.3952 150.217 97.5793 149.758 97.8682C149.3 98.157 148.911 98.5435 148.619 99C147.443 100.4 146.647 100.395 145.47 99.45C145.162 99.1012 144.785 98.8203 144.363 98.6251C143.941 98.4299 143.483 98.3246 143.018 98.316V98.316Z"></path><path fill="#000000" d="M106.749 117.42C107.924 117.098 108.109 115.544 108.083 114.52C108.078 114.427 108.038 114.34 107.971 114.276C107.903 114.213 107.814 114.177 107.722 114.177C107.629 114.177 107.54 114.213 107.472 114.276C107.405 114.34 107.365 114.427 107.36 114.52C107.377 115.175 107.35 116.354 106.651 116.69C106.451 116.763 106.231 116.764 106.03 116.693C105.829 116.621 105.66 116.481 105.551 116.298C105.253 115.767 105.123 115.158 105.179 114.552C105.179 114.456 105.141 114.364 105.073 114.297C105.006 114.229 104.914 114.191 104.818 114.191C104.722 114.191 104.63 114.229 104.563 114.297C104.495 114.364 104.457 114.456 104.457 114.552C104.394 115.333 104.588 116.113 105.01 116.774C105.197 117.049 105.465 117.259 105.776 117.375C106.088 117.491 106.428 117.506 106.749 117.42Z"></path><path fill="#000000" d="M35.544 83.208C35.5695 83.2452 35.6021 83.2769 35.6398 83.3015C35.6776 83.3261 35.7198 83.3431 35.7641 83.3513C35.8084 83.3596 35.8539 83.359 35.898 83.3497C35.9421 83.3404 35.9839 83.3225 36.0211 83.297C36.1271 83.224 38.8981 80.447 39.4441 79.882C39.5052 79.813 39.5376 79.7232 39.5348 79.631C39.532 79.5389 39.4942 79.4513 39.429 79.3861C39.3638 79.3209 39.2762 79.283 39.184 79.2802C39.0918 79.2774 39.0021 79.3099 38.933 79.371L35.822 82.482L35.0081 81.315C34.7441 80.936 34.1171 81.297 34.3841 81.68C35.4591 83.221 35.387 83.162 35.544 83.208Z"></path><path fill="#000000" d="M108.681 113.393H109.513C109.606 113.388 109.693 113.348 109.757 113.281C109.82 113.213 109.856 113.124 109.856 113.032C109.856 112.939 109.82 112.85 109.757 112.782C109.693 112.715 109.606 112.675 109.513 112.67H108.681C108.588 112.675 108.501 112.715 108.437 112.782C108.374 112.85 108.338 112.939 108.338 113.032C108.338 113.124 108.374 113.213 108.437 113.281C108.501 113.348 108.588 113.388 108.681 113.393V113.393Z"></path><path fill="#000000" d="M103.677 112.67H102.844C102.751 112.675 102.664 112.715 102.6 112.782C102.537 112.85 102.501 112.939 102.501 113.032C102.501 113.124 102.537 113.213 102.6 113.281C102.664 113.348 102.751 113.388 102.844 113.393H103.677C103.77 113.388 103.857 113.348 103.921 113.281C103.984 113.213 104.02 113.124 104.02 113.032C104.02 112.939 103.984 112.85 103.921 112.782C103.857 112.715 103.77 112.675 103.677 112.67V112.67Z"></path><path fill="#000000" d="M98.738 65.2661V60.1471C98.7331 60.0545 98.6929 59.9673 98.6257 59.9035C98.5584 59.8397 98.4692 59.8041 98.3765 59.8041C98.2838 59.8041 98.1946 59.8397 98.1274 59.9035C98.0601 59.9673 98.0199 60.0545 98.015 60.1471V65.2661C98.0199 65.3586 98.0601 65.4458 98.1274 65.5096C98.1946 65.5735 98.2838 65.609 98.3765 65.609C98.4692 65.609 98.5584 65.5735 98.6257 65.5096C98.6929 65.4458 98.7331 65.3586 98.738 65.2661V65.2661Z"></path><path fill="#000000" d="M98.489 66.666C98.3975 66.6692 98.3106 66.707 98.2458 66.7718C98.1811 66.8365 98.1432 66.9234 98.14 67.015V67.889C98.1449 67.9816 98.1851 68.0688 98.2524 68.1326C98.3196 68.1964 98.4088 68.232 98.5015 68.232C98.5942 68.232 98.6834 68.1964 98.7507 68.1326C98.8179 68.0688 98.8581 67.9816 98.863 67.889V67.015C98.8596 66.9191 98.8183 66.8285 98.7482 66.7631C98.6781 66.6977 98.5849 66.6627 98.489 66.666V66.666Z"></path></g></svg>