<svg xmlns="http://www.w3.org/2000/svg" viewBox="0 0 200 200" height="400" width="400"><g><path d="M167.893,45.161c-.956-.545-1.287.014-.546-.589,2.725-2.215-.13-3.8-2.6-2.354a1.279,1.279,0,0,0-.521-1.452,2.621,2.621,0,0,0-2.405.051,9.373,9.373,0,0,0-4.885,4.245c2.942-1.289,6.6,1.943,5.011,4.772a17.342,17.342,0,0,1,5.231-1.688,1.849,1.849,0,0,0,1.588-1.213A1.742,1.742,0,0,0,167.893,45.161Z" fill="#000000"></path><path d="M114.89,82.826a.337.337,0,0,0,.236.414.343.343,0,0,0,.414-.235l1.78-4.245-.613-.267C114.641,83.419,115.177,82.143,114.89,82.826Z" fill="#000000"></path><path d="M133.135,90.306c-.19.388.39.73.581.34l1.914-3.9-.616-.269Z" fill="#000000"></path><path d="M159.874,45.083a3.366,3.366,0,0,0-4.864,3.068c.3,2.42,3.357,3.87,5.322,3.1a3.18,3.18,0,0,0,1.949-2.333A3.664,3.664,0,0,0,159.874,45.083Z" fill="#ffaaaa"></path><path d="M150.73,87.3c-1.219-1.824-1.952-3.188-2.529-3.952-.292.668-1.717,3.938-1.717,3.938C148.089,87.3,148.7,87.3,150.73,87.3Z" fill="#ffd7d7"></path><path d="M178.466,66.386c-1.785-4.077-5.64-7.229-9.885-8.876a13.887,13.887,0,0,0-6.069-.968,28.093,28.093,0,0,0-7.282,1.234,19.821,19.821,0,0,1-.017,8.543,1.467,1.467,0,0,1,.278.66,9.577,9.577,0,0,1-.054,2,6.992,6.992,0,0,0,.311,3.111,30,30,0,0,0,2.855,5,12.48,12.48,0,0,0,2.69,2.87c1.433,1.089,2.724.993,3.6-.555,1.068-1.883.789-2.405,1.589-5.008a6.323,6.323,0,0,1,12.135,1.384,9.8,9.8,0,0,1-.069,2.687,28.339,28.339,0,0,1-2.221,8.836h4.549a.344.344,0,0,1,.337.336C180.778,81.181,181.062,72.313,178.466,66.386Zm-9.911-5.865c-1.771.524-3.533,1.094-5.273,1.708-.41.145-.585-.506-.179-.649,1.74-.614,3.485-1.246,5.273-1.709a.337.337,0,0,1,.179.65Z" fill="#ffd7d7"></path><path d="M132.933,52.868a.577.577,0,0,0-.529.223c-.456.472-.5,2.419.7,3.535a22.821,22.821,0,0,0,.389-2.519C133.52,53.672,133.374,52.943,132.933,52.868Z" fill="#ffe660"></path><path d="M138.387,54.838c.037-.126.052-.252-.035-.319a.824.824,0,0,0-.439-.12c-.594.033-.753,1.383-.732,1.984A3.617,3.617,0,0,0,138.387,54.838Z" fill="#ffe660"></path><path d="M145.635,59.891a.5.5,0,0,0-.014-.465c-.14-.243-.429-.007-.6.132a25.739,25.739,0,0,0-2.045,2.107,4.715,4.715,0,0,0,1.578-.65A2.54,2.54,0,0,0,145.635,59.891Z" fill="#ffe660"></path><path d="M142.131,57.561a1.288,1.288,0,0,0,.133-.565c.015-.075-.053-.143-.118-.183a.423.423,0,0,0-.343.015c-.967.351-1.31,1.708-1.271,2.707A6.075,6.075,0,0,0,142.131,57.561Z" fill="#ffe660"></path><path d="M143.911,44.014a19.692,19.692,0,0,0-25.467,9.124c-.335.661-.452.959-1.767,3.975a2.734,2.734,0,0,1,.916-.428,1.514,1.514,0,0,1,1.633,2.293c-.515.988-1.149,1.049-2.119,1.991-.779.92.767,1.54,1.4,1.83.792.362,1.891,1.178,1.4,2.189a1.572,1.572,0,0,1-1.656.855c-1.578-.239-3.065-1.982-3.334-2.022a1.406,1.406,0,0,0,.133.244c.964,1.747,2.1,2.546,2.3,3.595.138.717-.226,1.645-1.091,1.562-.906-.087-1.624-.856-2.775-1.643-.086-.059-.31-.273-.412-.207-.012.007-.012,0,.035.062s.443.638.693,1.042c.382.617,1,1.533.773,2.3a1.561,1.561,0,0,1-2.3.871,10.277,10.277,0,0,1-1.411-1.2c-.609,1.4-1.853,4.25-1.867,4.282a.342.342,0,0,0,.121.461l35.486,15.471a.342.342,0,0,0,.461-.121c.372-.855,2.842-6.521,3.134-7.189a3.314,3.314,0,0,0-2.655-1.568c-.867-.014-1.943.081-2.563-.67a1.432,1.432,0,0,1-.022-1.809c.935-.859,2.066-.888,4.825-1.358a4.094,4.094,0,0,0-.862-.139,22.056,22.056,0,0,1-2.763-.3,3.213,3.213,0,0,1-1.575-.545,1.514,1.514,0,0,1,.574-2.576c1.486-.6,2.392-.118,4.581-.181.066,0,.254.023.208-.1-.036-.1-.237-.124-.329-.157-.466-.169-.93-.344-1.393-.52-.662-.252-1.487-.42-1.794-1.136a1.456,1.456,0,0,1,.326-1.631c.565-.536,1.544-.409,2.26-.388a10.689,10.689,0,0,1,4.511,1.105c.563-3.491.639-4.406,1.414-5.278a1.587,1.587,0,0,1,1.58-.255c.038.011.066.033.1.047a1.343,1.343,0,0,1,.587.435A19.663,19.663,0,0,0,143.911,44.014Zm1.928,16.795a5.071,5.071,0,0,1-3.518,1.592A84.631,84.631,0,0,0,128.34,83.242c-.187.392-.767.05-.582-.339a85.058,85.058,0,0,1,13.773-20.631,2.625,2.625,0,0,1-1.464-1.606l-.015.009a1.6,1.6,0,0,1-1.63.112,4.829,4.829,0,0,1-1.765-3.217,3.375,3.375,0,0,1-3.077.175,63.163,63.163,0,0,1-9.641,23.579c-.241.359-.824.021-.582-.34a62.567,62.567,0,0,0,9.606-23.6c-1.562-1.191-1.93-3.526-1.136-4.64a1.269,1.269,0,0,1,1.368-.5c.859.241,1.031,1.385.955,2.139a24.406,24.406,0,0,1-.434,2.685,2.707,2.707,0,0,0,2.844-.209,5.455,5.455,0,0,1,.083-1.761,1.81,1.81,0,0,1,.8-1.24,1.25,1.25,0,0,1,1.476.288c.674.876-.769,2.4-1.655,3.052A5.172,5.172,0,0,0,138.516,60a1.155,1.155,0,0,0,.433.292,1.569,1.569,0,0,0,.95-.3c-.291-2.2.909-3.859,2.106-3.882.8-.015,1.067.782.854,1.418A6.4,6.4,0,0,1,140.65,60.3a1.839,1.839,0,0,0,1.381,1.405c.734-.813,1.465-1.648,2.262-2.4a2.057,2.057,0,0,1,1.129-.66C146.416,58.589,146.673,60.035,145.839,60.809Z" fill="#ffe660"></path><path d="M81.978,66.236a13.3,13.3,0,0,0-6.434-8.928c-4.775-2.778-11.071-3.08-16.573-2.583A18.261,18.261,0,0,0,48.209,59.2c-2.925,2.754-7.67,1.466-8.273-1.475a6.343,6.343,0,0,1-.073-1.964.344.344,0,0,1-.336.336H27.581a.34.34,0,0,1-.337-.336A16.62,16.62,0,0,0,29.6,66.855c3.243,4.825,8.453,7.415,14.213,8.27-.057,2.867-.274,15.433-.326,18.848a16.945,16.945,0,0,1,5.053,3.677c3.823-2.61,4.56-6.415,4.557-11.064,0-5.472.439-.542-.212-18.523a6.222,6.222,0,0,1,0-1.424,1.736,1.736,0,0,1,3.44.289c.294,1.568.627,4.632.75,6.169a4.159,4.159,0,0,1,5.737.405c.922-1.651,3.733-1.432,4.6,1.806a10.888,10.888,0,0,1,.535,2.2,48.639,48.639,0,0,1-3.464,23.818,33.212,33.212,0,0,1-8.418,12.016,62.545,62.545,0,0,1,1.29,7.524.242.242,0,0,1-.038.153c.1.276.461,1.281.538,1.506l12.133.1c0-14.634-.052-13.887.081-14.04.075-.1-.212.1,13.007-7.939C83.172,91.168,83.4,72.9,81.978,66.236Z" fill="#6596e1"></path><path d="M66.3,36.75a2.992,2.992,0,0,0-.334-1.545.147.147,0,0,1-.053-.068,3.35,3.35,0,0,0-2.151-.85,4.778,4.778,0,0,0-2.327.112,1.825,1.825,0,0,0-1.019,1.748,34.714,34.714,0,0,0-.014,5.979,2.981,2.981,0,0,1,4.449-2.088,3.353,3.353,0,0,1,1.342,2.081A36.939,36.939,0,0,0,66.3,36.75Z" fill="#000000"></path><path d="M40.351,83.363c-2.155-2.543-6.192-2-8.474.252a12.493,12.493,0,0,0-2.778,4.3c-.938,2.35-1.745,5.17-2.037,5.714a15.519,15.519,0,0,1-7.248,5.994c-1.752.69-3.615,1.039-5.164,2.176a7.965,7.965,0,0,0-2.97,4.306,4.32,4.32,0,0,0,1.641,4.716A6.857,6.857,0,0,0,9.6,113.98c-1.282,2.7.307,5.247,2.586,5.374a7.183,7.183,0,0,0-1.655,2.832,3.454,3.454,0,0,0,.807,3.4,3.72,3.72,0,0,0,3.178.743c.069-.011.138-.027.207-.041.259-1.35,2.493-12.17,2.9-13.816,1.558-6.29,4.451-12.968,9.712-16.791a16.355,16.355,0,0,1,13.715-2.6c.144.039.53.146.671.2C41.8,88.994,42.28,85.639,40.351,83.363Zm-.83,5.089a3.5,3.5,0,0,1-3.735,2.659A3.607,3.607,0,0,1,32.5,87.6a3.033,3.033,0,0,1,2.251-3.148,4.656,4.656,0,0,1,3.1.254A3.353,3.353,0,0,1,39.521,88.452Z" fill="#000000"></path><path d="M37.855,84.706a4.051,4.051,0,0,0-4.676.74,3.594,3.594,0,0,0,2.607,5.665,3.5,3.5,0,0,0,3.735-2.659A3.353,3.353,0,0,0,37.855,84.706Z" fill="#ffd7d7"></path><path d="M67.951,77.512c.148,1.455-.564,3.009-2.047,3.1a2.791,2.791,0,0,1-2.364-1.606,2.1,2.1,0,0,1-3.731.51A4.738,4.738,0,0,0,60.12,81.9c.19.388-.391.729-.582.34-.909-1.849.092-3.8-.715-5.308a1.5,1.5,0,0,0-2.639.17,10,10,0,0,0-.8,3.926c-.041.428-.715.431-.674,0,.173-1.787.225-3.342,1.158-4.666a2.122,2.122,0,0,1,3.1-.266,3.039,3.039,0,0,0-.211-.631c-.182-.391.4-.732.581-.34A11.157,11.157,0,0,1,59.878,78a2,2,0,0,0,1.378,1.723,1.365,1.365,0,0,0,1.644-.929,5.555,5.555,0,0,0,.159-2.565,8.671,8.671,0,0,0-.432-1.909.338.338,0,1,1,.632-.238,10,10,0,0,1,.524,3.633.326.326,0,0,1,.057.137,2.44,2.44,0,0,0,1.972,2.089A1.341,1.341,0,0,0,67,79.172a3.138,3.138,0,0,0,.274-1.66c-.018-.434.656-.431.674,0a11.616,11.616,0,0,0-.535-2.2,4.932,4.932,0,0,0-1.057-1.988,2.175,2.175,0,0,0-3.544.182,4.159,4.159,0,0,0-5.737-.405c-.123-1.532-.455-4.6-.75-6.169a1.736,1.736,0,0,0-3.44-.289,19.29,19.29,0,0,0,.059,3.084c.56,15.144.148,12.411.152,16.863,0,4.648-.733,8.454-4.557,11.064,3.963,4.132,6.234,10.1,7.527,15.7a33.212,33.212,0,0,0,8.418-12.016A48.47,48.47,0,0,0,67.951,77.512Z" fill="#ffd7d7"></path><path d="M64.848,40.038a3,3,0,0,0-4.5,2.764,2.733,2.733,0,0,0,2.08,2.271,3.22,3.22,0,0,0,3.672-1.8A2.981,2.981,0,0,0,64.848,40.038Z" fill="#ae877c"></path><path d="M56.069,113.346c-1.984-8.686-6.383-17.941-15.015-20.264a16.358,16.358,0,0,0-13.715,2.6c-6.066,4.407-8.972,12.551-10.4,19.918a3.262,3.262,0,0,0-.115.619,7.031,7.031,0,0,1,11.568-3.707,7.246,7.246,0,0,1,2.329,5.935c-.018,1.09.07,9.159.094,12.1a57.572,57.572,0,0,1,3.992-7.3c2.689-4.245,6.595-8.951,11.542-9.815a8.59,8.59,0,0,1,6.475,1.311,11.257,11.257,0,0,1,4.047,5.091c.159.4.306.8.455,1.194a.242.242,0,0,0,.038-.153A61.347,61.347,0,0,0,56.069,113.346Z" fill="#c0c195"></path><path d="M52.257,42.4c.612.079,1.227.138,1.841.194a8.894,8.894,0,0,0,1.771.091c1.983-.224,2.257-2.883-.843-3.031a13.28,13.28,0,0,1-3.275-.618c.065-.251,1.3-.272,2.1-.19a5.127,5.127,0,0,0,1.6-.083,1.116,1.116,0,0,0,.684-1.415c-.481-1.423-3.45-1.7-5.007-1.8a24.25,24.25,0,0,0-9.088,1.026c-8.387,2.665-13.906,10.5-14.8,19.188a.34.34,0,0,0,.337.336H39.527a.344.344,0,0,0,.336-.336,8.749,8.749,0,0,1,2.392-5.52c.578-.564,1.3-.961,1.78-.319.5.661,1.691,3.725,3.555,2.5,1.987-1.309-.9-4.118.3-5.412a2.712,2.712,0,0,1,1.923-.674c2.643-.04,3.8,1.068,5.249,1.043,1.311.061,2.417-1.288,1.58-2.345a3.936,3.936,0,0,0-1.466-1.13,11.558,11.558,0,0,0-2.633-.84c-.232-.044-.862-.026-.873-.371S52.02,42.367,52.257,42.4Zm-.546-3.379L51.7,39Zm-5.671,1.62c.251-.347.839-.009.581.34a2.459,2.459,0,0,0,.528,3.455c.352.25.017.829-.34.581A3.124,3.124,0,0,1,46.04,40.639Zm-16.525,10.7c.071-.427.72-.245.65.179l-.431,2.61c-.071.427-.72.245-.65-.179Z" fill="#ae877c"></path><path d="M72.627,32.127a.337.337,0,0,0-.582-.34c-1.117,1.818-3.6,6.009-3.745,6.27a.337.337,0,0,0,.581.34Z" fill="#000000"></path><path d="M70.793,39.062l3.837-2.894c.342-.258.007-.843-.339-.582l-3.838,2.9C70.112,38.738,70.447,39.323,70.793,39.062Z" fill="#000000"></path><path d="M57.859,122.529c-.263-.756-.718-2.015-.993-2.7a11.338,11.338,0,0,0-3.418-4.63c-3.649-2.873-8.246-2.329-11.986.457-4.419,3.292-8.521,10.192-10.652,15.034,0,.594.057,9.047.058,9.272H69.992V122.626ZM47.817,129.7c-1.252,3.078-2.463,6.332-3.591,9.719a.337.337,0,0,1-.65-.179q1.637-4.916,3.592-9.719C47.33,129.124,47.981,129.3,47.817,129.7Zm4.1-11.692-1.976-.695c-.407-.143-.231-.793.179-.649l1.977.694C52.505,117.5,52.329,118.151,51.919,118.008Zm7.712,15.311a23.813,23.813,0,0,1-1.52,5.993.337.337,0,0,1-.651-.175c1.951-5.361,2.35-9.676.1-15.767-.152-.408.506-.581.649-.179A21.606,21.606,0,0,1,59.631,133.319Z" fill="#6596e1"></path><path d="M185.985,116.559c-3.691-3.042-10.76-9.064-13.782-12.789-6.479,4.028-12.447,7.852-16.267,14.5a42.438,42.438,0,0,0,16.438,12.086.338.338,0,0,0,.328-.087c3.282-3.216,12.113-12.057,13.283-13.234A.338.338,0,0,0,185.985,116.559Z" fill="#ffd7d7"></path><path d="M118.509,62.8c-.635-.29-2.181-.91-1.4-1.83a7.21,7.21,0,0,1,1.167-.921c2.383-1.7.7-4.537-1.6-2.935-.444.309-.858.691-1.223.989a27.611,27.611,0,0,0-5.146,4.811A5.817,5.817,0,0,0,110,69.522a6.839,6.839,0,0,0,1.137,1.157,7.788,7.788,0,0,0,1.143.966,1.56,1.56,0,0,0,2.3-.871c.23-.765-.391-1.681-.773-2.3-.25-.405-.641-.975-.693-1.042s-.047-.055-.035-.062c.1-.066.326.148.412.207,1.169.8,1.87,1.556,2.775,1.643.865.083,1.229-.845,1.091-1.562a4.91,4.91,0,0,0-1.163-1.905,14.405,14.405,0,0,1-1.271-1.934c.27.04,1.766,1.785,3.334,2.022a1.572,1.572,0,0,0,1.656-.855C120.4,63.977,119.3,63.161,118.509,62.8ZM113.03,61a.315.315,0,0,1,.229.155c.261.449.546.883.8,1.333a.337.337,0,0,1-.581.34c-.273-.441-.536-.889-.8-1.333A.339.339,0,0,1,113.03,61Zm-2.325,6.112-.746-1.031c-.255-.351.329-.687.581-.339l.746,1.03C111.541,67.123,110.957,67.459,110.705,67.111Z" fill="#ffaaaa"></path><path d="M47.168,129.521q-1.953,4.8-3.592,9.719a.337.337,0,0,0,.65.179c1.091-3.274,2.3-6.545,3.591-9.719C47.981,129.3,47.33,129.124,47.168,129.521Z" fill="#6596e1"></path><path d="M181.215,87.634a.345.345,0,0,0-.337-.336h-4.549a15.605,15.605,0,0,1-9.123,8.518c-4.048,1.249-8.957.19-13.38-4.555a30.959,30.959,0,0,1-3.1-3.963s-3.676-.008-4.246-.014c-.1.229-1.045,2.4-1.417,3.251a.342.342,0,0,1-.461.121s-.592-.257-.836-.365a36.1,36.1,0,0,0,1.99,7.223c-4.008,3.445-9.473,8.765-11.592,13.6a56.449,56.449,0,0,0-3.9,18.133.34.34,0,0,0,.336.337h21.356a.34.34,0,0,0,.325-.248,28.7,28.7,0,0,1,10.865-19.364,79.636,79.636,0,0,1,9.052-6.2c3.6-2.149,6.659-4.771,8.1-8.685a16.227,16.227,0,0,0,.875-3.8A33.384,33.384,0,0,0,181.215,87.634Zm-38.625,17.6a14.941,14.941,0,0,0-1.751,2.336.337.337,0,0,1-.582-.339,13.553,13.553,0,0,1,1.857-2.473C142.409,104.44,142.884,104.917,142.59,105.235Zm8.316-11.014c-.117.261-1.776,1.1-4.455,3.566-.3.278-.74-.135-.511-.429a37.029,37.029,0,0,1,4.509-3.577C150.75,93.577,151.027,93.95,150.906,94.221Z" fill="#ffaaaa"></path><path d="M34.63,143.417c-.764,0-1.528-.016-2.291-.035-.469-.012-.95-.043-1.423-.026-.028-1.131-.218-23.823-.2-24.913a8.9,8.9,0,0,0-.514-3.338,6.986,6.986,0,0,0-9.148-3.9,7.138,7.138,0,0,0-4.254,5.07c-1.869,8.264-3.861,19.767-5.138,27.243a9.481,9.481,0,0,0-4.643.3c-2.594.91-2.461,3.373-.88,3.907.808.219.871.156,4.754.236-.709,3.277-1.54,4.171-.888,5.243a1.733,1.733,0,0,0,2.213.66,6.109,6.109,0,0,0,1.269-1.007c2.787-2.47,5.489-5.812,6.72-4.591.721.943,1.147,3.22,2.014,4.883a1.486,1.486,0,0,0,1.748.854,2.592,2.592,0,0,0,1.688-1.782c.367-1.349.467-3.364,1.012-3.943a3.656,3.656,0,0,1,2.3-.391c1.077.032,5.048.176,5.954.177A2.313,2.313,0,0,0,37.19,146.3,2.554,2.554,0,0,0,34.63,143.417Zm-12.263,1.258a10.252,10.252,0,0,0-1.2,1.08c-.3.314-.776-.164-.476-.477a11.255,11.255,0,0,1,1.339-1.185C22.374,143.832,22.708,144.416,22.367,144.675Zm-6.48-.218-1.806,1c-.38.209-.72-.373-.34-.582l1.806-1C15.927,143.666,16.267,144.248,15.887,144.457Zm.955-16.425a16.738,16.738,0,0,0,.723-2.952c.065-.427.713-.245.65.179a16.829,16.829,0,0,1-.724,2.952C17.351,128.619,16.7,128.443,16.842,128.032Z" fill="#ffd7d7"></path><path d="M152.964,134.53a28.72,28.72,0,0,0-18.943-1.876,24.439,24.439,0,0,0-5.026,1.87.338.338,0,0,0,.157.634h23.642C153.109,135.158,153.277,134.677,152.964,134.53Z" fill="#000000"></path><path d="M190.564,118.18c-4.551,4.56-5.335,6.428-8.2,9.283a22.964,22.964,0,0,1-8.357,5.37.351.351,0,0,0-.008.688c3.453,1.348,8.437.034,12.02-5.252a54.931,54.931,0,0,0,5.074-9.681C191.233,118.258,190.857,117.887,190.564,118.18Z" fill="#000000"></path><path d="M117.722,44.149c.335.269.815-.2.477-.476l-4.025-3.231c-.334-.268-.814.2-.476.477Z" fill="#000000"></path><path d="M178.619,75.775a6.323,6.323,0,0,0-12.135-1.384c-.779,2.534-.527,3.136-1.589,5.008-.881,1.554-2.18,1.635-3.6.555a12.48,12.48,0,0,1-2.69-2.87,30.825,30.825,0,0,1-2.7-4.631,6.661,6.661,0,0,1-.471-3.479,9.577,9.577,0,0,0,.054-2,1.371,1.371,0,0,0-.865-1.095c-.036-.014-.064-.036-.1-.047a1.587,1.587,0,0,0-1.58.255,3.162,3.162,0,0,0-.745,1.524c-.315,1.3-.412,2.175-.669,3.754a10.689,10.689,0,0,0-4.511-1.105c-.716-.021-1.695-.148-2.26.388a1.456,1.456,0,0,0-.326,1.631c.307.716,1.132.884,1.794,1.136.463.176.927.351,1.393.52.092.033.293.053.329.157.046.127-.142.1-.208.1-2.173.063-3.1-.417-4.581.181a1.514,1.514,0,0,0-.574,2.576,3.213,3.213,0,0,0,1.575.545,22.122,22.122,0,0,0,2.763.3,4.155,4.155,0,0,1,.862.139c-2.73.465-3.9.506-4.825,1.358a1.432,1.432,0,0,0,.022,1.809c.62.751,1.7.655,2.563.67,3.13.054,3.368,4.215,8.28,9.483,4.431,4.752,9.341,5.8,13.38,4.555a15.61,15.61,0,0,0,9.123-8.518,27.251,27.251,0,0,0,2.221-8.836A9.8,9.8,0,0,0,178.619,75.775ZM155.5,81.5c.209.116,4.993,2.858,4.993,2.858a.336.336,0,0,1-.339.581c-.209-.116-4.994-2.857-4.994-2.857a.337.337,0,0,1,.34-.582Zm7.305,11.689a5.408,5.408,0,0,0,3.016-.045c.415-.132.591.519.179.649a5.733,5.733,0,0,1-3.374.046.337.337,0,0,1,.179-.65Zm-11.5-19.008c.427.07.245.719-.179.65l-1.685-.273c-.427-.069-.245-.718.179-.65ZM149.628,78a7.725,7.725,0,0,0,1.866.312c.433.018.434.692,0,.673a8.286,8.286,0,0,1-2.045-.335.337.337,0,0,1,.179-.65Z" fill="#ffaaaa"></path><path d="M134.619,37.235l-.832-5.364c-.067-.427-.716-.245-.65.179l.832,5.364C134.035,37.841,134.685,37.659,134.619,37.235Z" fill="#000000"></path><path d="M150.137,39.516l2.783-5.669c.19-.387-.391-.729-.582-.339l-2.782,5.668C149.365,39.563,149.946,39.905,150.137,39.516Z" fill="#000000"></path><path d="M163.282,62.229c1.74-.614,3.5-1.184,5.273-1.708a.337.337,0,0,0-.179-.65c-1.788.463-3.533,1.095-5.273,1.709C162.7,61.723,162.872,62.374,163.282,62.229Z" fill="#000000"></path><path d="M103.359,55.786a.337.337,0,0,0-.414.235.343.343,0,0,0,.235.414l5.2,2.182a.337.337,0,0,0,.414-.235.343.343,0,0,0-.235-.414Z" fill="#000000"></path><path d="M194.157,81.684H188.48a.337.337,0,0,0,0,.674h5.677a.337.337,0,1,0,0-.674Z" fill="#000000"></path><path d="M182.8,68.422h4.129a.337.337,0,0,0,0-.674H182.8a.337.337,0,0,0,0,.674Z" fill="#000000"></path><path d="M194.673,61.732h-8.2a.337.337,0,0,0,0,.673h8.2a.337.337,0,0,0,0-.673Z" fill="#000000"></path><path d="M67.951,77.512c-.018-.431-.692-.434-.674,0A3.128,3.128,0,0,1,67,79.172a1.341,1.341,0,0,1-1.191.767A2.44,2.44,0,0,1,63.84,77.85a.32.32,0,0,0-.057-.137,9.993,9.993,0,0,0-.524-3.633.338.338,0,1,0-.632.238,8.671,8.671,0,0,1,.432,1.909,5.568,5.568,0,0,1-.159,2.565,1.366,1.366,0,0,1-1.644.929c-1.986-.642-1.134-2.926-1.923-4.594-.185-.392-.763-.051-.581.34a3.1,3.1,0,0,1,.211.631,2.137,2.137,0,0,0-3.1.266c-.932,1.323-.982,2.848-1.158,4.666-.042.431.632.428.674,0a10,10,0,0,1,.8-3.926,1.5,1.5,0,0,1,2.639-.17c.8,1.5-.192,3.465.715,5.308.191.389.772.048.582-.34a4.749,4.749,0,0,1-.311-2.384,2.1,2.1,0,0,0,3.731-.51A2.791,2.791,0,0,0,65.9,80.614C67.384,80.522,68.1,78.95,67.951,77.512Z" fill="#ffaaaa"></path><path d="M125.12,142.33c0-26.5.057-32.134-.022-33.4-.025-.4-.064-.36-.122-.4-.105-.079-26.935-16.657-27.035-16.718a.334.334,0,0,0-.34,0c-.588.352-27.236,16.53-27.341,16.609-.4.3-.259.291-.268.375,0,35.818-.033,33.872.046,34.151.081.118-1.844-1.245,27.16,18.989a.325.325,0,0,0,.34,0c5.922-4.075,27.376-18.826,27.483-18.921C125.18,142.85,125.12,142.539,125.12,142.33ZM97.773,92.5s26.143,16.172,26.346,16.3c0,0-26.272,15.774-26.567,15.979-.845-.508-25.6-15.441-26.562-15.994C75.069,106.309,97.675,92.57,97.773,92.5Zm.163,58.22a.337.337,0,0,1-.674,0V133.689a.338.338,0,0,1,.349-.325.334.334,0,0,1,.325.325C97.994,137.04,98.012,146.33,97.936,150.722Z" fill="#ffc431"></path><path d="M117.644,107.669a3.6,3.6,0,0,0-3.184-1.586s-33.263-.024-33.735.015a3.317,3.317,0,0,0-2.967,1.883c-.56,1.552,1.024,3.4,4.006,3.192,0,0,32.111-.006,32.641,0C116.98,111.2,118.509,109.282,117.644,107.669Zm-10.489.038a.337.337,0,0,1,.674,0v1.717a.337.337,0,0,1-.674,0Zm-20.474,0a.337.337,0,0,1,.673,0V109.3a.337.337,0,0,1-.673,0Z" fill="#6596e1"></path><path d="M49.943,117.313l1.976.695c.41.144.587-.507.18-.65l-1.977-.694C49.712,116.52,49.536,117.171,49.943,117.313Z" fill="#6596e1"></path><path d="M160.5,84.353s-4.784-2.742-4.993-2.858a.337.337,0,0,0-.34.582s4.785,2.741,4.994,2.857a.337.337,0,0,0,.339-.581Z" fill="#000000"></path><path d="M124.447,146.335v8a.337.337,0,0,0,.673,0v-8a.337.337,0,0,0-.673,0Z" fill="#000000"></path><path d="M15.547,143.876l-1.806,1c-.38.209-.04.791.34.582l1.806-1C16.267,144.248,15.927,143.666,15.547,143.876Z" fill="#ffaaaa"></path><path d="M71.526,154.335v-8a.337.337,0,0,0-.674,0v8a.337.337,0,0,0,.674,0Z" fill="#000000"></path><path d="M97.031,163.884v4.162a.337.337,0,0,0,.674,0v-4.162a.337.337,0,0,0-.674,0Z" fill="#000000"></path><path d="M22.028,144.093a11.255,11.255,0,0,0-1.339,1.185c-.3.313.176.791.476.477a10.252,10.252,0,0,1,1.2-1.08C22.708,144.416,22.374,143.832,22.028,144.093Z" fill="#ffaaaa"></path><path d="M17.565,125.08a16.738,16.738,0,0,1-.723,2.952c-.141.411.509.587.649.179a16.829,16.829,0,0,0,.724-2.952C18.278,124.835,17.63,124.653,17.565,125.08Z" fill="#ffaaaa"></path><path d="M97.936,150.722V133.689a.337.337,0,0,0-.674,0v17.033a.337.337,0,0,0,.674,0Z" fill="#000000"></path><path d="M58.206,123.191a.339.339,0,0,0-.188-.2c-.237-.1-.574.076-.461.38,2.236,6.045,1.871,10.357-.1,15.767a.337.337,0,0,0,.651.175,24.652,24.652,0,0,0,1.52-5.993A21.61,21.61,0,0,0,58.206,123.191Z" fill="#6596e1"></path><path d="M46.809,45.015c.357.248.692-.331.34-.581a2.459,2.459,0,0,1-.528-3.455c.258-.349-.33-.687-.581-.34A3.124,3.124,0,0,0,46.809,45.015Z" fill="#000000"></path><path d="M29.734,54.124l.431-2.61c.07-.424-.579-.606-.65-.179l-.431,2.61C29.014,54.369,29.663,54.551,29.734,54.124Z" fill="#000000"></path><path d="M165.825,93.139a5.408,5.408,0,0,1-3.016.045.337.337,0,0,0-.179.65A5.733,5.733,0,0,0,166,93.788C166.416,93.658,166.24,93.007,165.825,93.139Z" fill="#ffaaaa"></path><path d="M149.442,74.553l1.685.273c.424.069.606-.58.179-.65l-1.685-.273C149.2,73.835,149.015,74.484,149.442,74.553Z" fill="#ffaaaa"></path><path d="M151.494,78.316A7.725,7.725,0,0,1,149.628,78a.337.337,0,0,0-.179.65,8.239,8.239,0,0,0,2.045.335C151.928,79.008,151.927,78.334,151.494,78.316Z" fill="#ffaaaa"></path><path d="M150.449,93.781a40.018,40.018,0,0,0-4.475,3.529.338.338,0,0,0,.477.477,37.846,37.846,0,0,1,4.338-3.425C151.13,94.131,150.816,93.534,150.449,93.781Z" fill="#ffaaaa"></path><path d="M142.114,104.759a13.553,13.553,0,0,0-1.857,2.473.337.337,0,0,0,.582.339,14.941,14.941,0,0,1,1.751-2.336C142.884,104.917,142.409,104.44,142.114,104.759Z" fill="#ffaaaa"></path><path d="M110.54,65.741c-.252-.348-.836-.012-.581.339l.746,1.031c.252.348.836.012.581-.34Z" fill="#ffaaaa"></path><path d="M113.481,62.827a.337.337,0,0,0,.581-.34c-.257-.45-.542-.884-.8-1.333a.337.337,0,0,0-.582.34C112.945,61.938,113.208,62.386,113.481,62.827Z" fill="#ffaaaa"></path></g><g><path d="M155.937,50.232c1.864,1.782,4.836,1.932,6.1-.3a17.2,17.2,0,0,1,5.167-1.66c2.691-.57,1.841-3.147.066-3.477,2.964-2.232.356-4.158-2.358-2.806a1.363,1.363,0,0,0-.617-1.323,2.711,2.711,0,0,0-2.52.038,9.508,9.508,0,0,0-4.929,4.265A3.158,3.158,0,0,0,155.937,50.232Zm7.882-7.277a.466.466,0,0,0,.785.327c1.318-1.213,4.032-1.069,2.711.252a8.119,8.119,0,0,1-2.485,1.631c-.5.214-.159,1.018.348.849l.055-.018c.781-.258,1.85-.611,2.493.045a.777.777,0,0,1,.247.768c-.514.9-1.966.288-5.534,1.9.241-2.18-2.026-4.19-4.3-4.059a8.472,8.472,0,0,1,4.848-3.352.905.905,0,0,1,.974.32C164.082,41.983,163.88,42.187,163.819,42.955ZM160.6,50.2c-1.923,1.445-5.751-.808-4.58-3.219,1.163-2.395,4.725-1.59,5.464.979A2.26,2.26,0,0,1,160.6,50.2Z" fill="#000000"></path><path d="M60.221,42.807a2.906,2.906,0,0,0,2.954,2.483,3.374,3.374,0,0,0,3.04-1.978,2.248,2.248,0,0,0,.1-1.2,36.889,36.889,0,0,0,.106-5.363c.1-1.852-.855-2.338-2.638-2.585a4.919,4.919,0,0,0-2.4.118,1.956,1.956,0,0,0-1.1,1.853,35.683,35.683,0,0,0-.017,5.992A3.143,3.143,0,0,0,60.221,42.807ZM65.5,40.459a3.025,3.025,0,0,0-4.412,0,29.379,29.379,0,0,1,.138-4.484.927.927,0,0,1,.432-.806,2.777,2.777,0,0,1,1.193-.152,6.342,6.342,0,0,1,1.416.179c.985.131,1.346.675,1.246,1.893C65.566,38.253,65.563,39.252,65.5,40.459Zm-.569.783a2.18,2.18,0,0,1,.508,1.286c-.009,1.076-1.384,1.911-2.434,1.84a2.079,2.079,0,0,1-1.863-1.575C60.983,40.57,63.828,39.6,64.933,41.242Z" fill="#000000"></path><path d="M35.775,91.235a3.633,3.633,0,0,0,3.868-2.755,3.484,3.484,0,0,0-1.736-3.887,4.2,4.2,0,0,0-4.828.778A3.719,3.719,0,0,0,35.775,91.235Zm-1.163-5.893c1.876-.719,4.089.114,4.182,2.174a2.662,2.662,0,0,1-2.285,2.768,2.805,2.805,0,0,1-3.175-2.327A2.393,2.393,0,0,1,34.612,85.342Z" fill="#000000"></path><path d="M68.377,38.623a.465.465,0,0,0,.612-.162l3.748-6.275a.462.462,0,0,0-.8-.465c-1.13,1.838-3.607,6.026-3.748,6.274A.458.458,0,0,0,68.377,38.623Z" fill="#000000"></path><path d="M70.869,39.162l3.837-2.894c.471-.356-.01-1.145-.491-.782l-3.837,2.9C69.905,38.738,70.386,39.525,70.869,39.162Z" fill="#000000"></path><path d="M186.074,117.123a.466.466,0,0,0-.009-.66c-3.059-2.521-10.467-8.764-13.672-12.658a21.972,21.972,0,0,0,5.622-4.565c2.511-2.89,3.63-6.8,3.324-11.613-.572-9.072-.007-19.017-5.012-24.862a18.829,18.829,0,0,0-10.872-6.225,25.641,25.641,0,0,0-10.137,1.076,19.815,19.815,0,0,0-36.985-4.534c-.345.68-.508,1.08-1.756,3.948-.438.3-.849.686-1.2.975a27.735,27.735,0,0,0-5.168,4.834,6.253,6.253,0,0,0-.989,5.347,4.583,4.583,0,0,0,1.5,2.291l-1.824,4.186a.466.466,0,0,0,.18.636l7.474,3.259-1.774,4.236a.461.461,0,0,0,.885.259l1.731-4.128,17.458,7.611-1.821,3.715c-.263.534.539.992.806.45l1.861-3.8,7.968,3.474a36.4,36.4,0,0,0,1.953,7.1c-4.123,3.55-9.447,8.771-11.557,13.59-2.469,5.637-3.638,13.085-3.911,18.184a.465.465,0,0,0,.462.461h21.357a.471.471,0,0,0,.448-.356,30.618,30.618,0,0,1,3.548-10.866,42.761,42.761,0,0,0,16.382,11.986.466.466,0,0,0,.45-.117C176.108,127.106,185.049,118.153,186.074,117.123ZM171.591,104.3c3.38,4.047,10.457,10.039,13.475,12.533-4.5,4.5-7.376,7.651-12.7,12.66a41.535,41.535,0,0,1-15.918-11.835C160.329,111.534,165.822,107.836,171.591,104.3ZM131.1,128.788a58.359,58.359,0,0,1,2.954-15.2c.94-2.735,2.428-5.894,6.905-10.454a83.408,83.408,0,0,1,9.764-8.572c.166-.111.231-.155.282-.258,1.073-.815,2.176-1.618,3.28-2.389,3.882,3.9,8.6,5.367,12.958,4.024a15.482,15.482,0,0,0,8.765-7.711h4.439a14.917,14.917,0,0,1-2.64,9.8c-3.042,4.107-7.007,5.053-14.489,10.8a29.309,29.309,0,0,0-11.749,19.97Zm14.423-68.951a2.423,2.423,0,0,1-1.036,1.073,4.567,4.567,0,0,1-1.121.525,22.772,22.772,0,0,1,1.756-1.8C145.575,59.272,145.622,59.634,145.523,59.837Zm-4.867-.576c.059-2.16,1.5-2.562,1.483-2.265C142.139,57.72,141.2,58.772,140.656,59.261Zm-3.349-3.14a3.258,3.258,0,0,1,.306-1.362c.248-.413.736-.237.658.033A3.377,3.377,0,0,1,137.307,56.121Zm-4.849-2.892a.406.406,0,0,1,.682-.088c.367.587.262,1.131-.118,3.226A2.992,2.992,0,0,1,132.458,53.229Zm1.213,4.692a3.482,3.482,0,0,0,2.9-.161,4.863,4.863,0,0,0,1.8,3.139,1.735,1.735,0,0,0,1.639-.046,2.749,2.749,0,0,0,1.32,1.462,85.38,85.38,0,0,0-13.5,20.159l-3.5-1.523A63.231,63.231,0,0,0,133.671,57.921Zm8.706,4.605a5.169,5.169,0,0,0,3.547-1.625c.911-.845.621-2.449-.528-2.381-.765.161-1.109.5-3.41,3.044a1.731,1.731,0,0,1-1.192-1.22,6.562,6.562,0,0,0,2.184-2.776A1.106,1.106,0,0,0,142,55.985a1.941,1.941,0,0,0-1.4.747,4.2,4.2,0,0,0-.833,3.194,1.351,1.351,0,0,1-.783.247.993.993,0,0,1-.377-.26,4.958,4.958,0,0,1-1.209-2.664,4.722,4.722,0,0,0,1.805-2.4c.146-1.037-1.03-1.486-1.83-1.1a1.933,1.933,0,0,0-.85,1.319,5.589,5.589,0,0,0-.094,1.726,2.568,2.568,0,0,1-2.568.2,23.938,23.938,0,0,0,.415-2.6c.073-.714-.066-2-1.045-2.271a1.4,1.4,0,0,0-1.5.549c-.811,1.138-.5,3.5,1.1,4.765a61.931,61.931,0,0,1-9.352,23.143c-1.244-.546-12.248-5.373-13.573-5.935l1.529-3.509a2.159,2.159,0,0,0,2.044.821,1.692,1.692,0,0,0,1.057-.773c.542-.9-.042-1.839-.557-2.67-.132-.214-.258-.415-.522-.806,1.163.8,1.862,1.551,2.8,1.641.907.087,1.392-.847,1.226-1.709-.185-.958-1-1.528-2.161-3.362a6.663,6.663,0,0,0,2.919,1.691c1.587.237,3.287-1.942.209-3.333-.831-.376-1.835-.882-1.251-1.575a7.175,7.175,0,0,1,1.152-.908c2.1-1.5,1.167-3.839-.544-3.631,0,0,.629-1.441.847-1.944a18.891,18.891,0,0,1,35.885,11.132,1.719,1.719,0,0,0-1.683.3c-.792.891-.872,1.768-1.418,5.174a10.786,10.786,0,0,0-4.41-1.043c-.77-.021-1.748-.149-2.35.422a1.586,1.586,0,0,0-.355,1.771c.363.846,1.2.924,3.317,1.746-2,.044-3.039-.409-4.521.187a1.637,1.637,0,0,0-.6,2.8,3.341,3.341,0,0,0,1.623.565,24.008,24.008,0,0,0,2.9.311c-1.867.3-3.245.425-4.177,1.283a1.564,1.564,0,0,0,.023,1.966c.65.787,1.7.7,2.656.716a2.861,2.861,0,0,1,2.029.9s-2.682,6.1-3.039,6.958l-15.858-6.914A84.175,84.175,0,0,1,142.377,62.526Zm-32.451,3.723.678.935c.343.477,1.14.006.784-.486l-.747-1.031a.481.481,0,0,0-.631-.135,7.549,7.549,0,0,1,2.575-3.95s.61,1.021.789,1.311a.462.462,0,0,0,.8-.468c-.259-.455-.537-.878-.8-1.334a.457.457,0,0,0-.109-.126c.873-.758,3.474-2.932,4.036-3.291.183-.117.808-.462,1.182-.027a.889.889,0,0,1,.02,1c-.429.791-1.379,1.1-1.986,1.789a1.561,1.561,0,0,0-.374,1.344c.484,1.67,2.45,1.416,3.011,2.474a.44.44,0,0,1-.014.491.865.865,0,0,1-.767.308c-1.309-.309-1.933-1.129-2.949-1.868a.839.839,0,0,0-1.164.17c-.305.411-.043.852.166,1.207,1.27,2.156,2.516,2.92,2.136,3.7-.2.405-.887-.095-1.256-.365-.314-.229-.238-.161-.934-.679s-1.029-.765-1.478-.641a.832.832,0,0,0-.58,1.017c.105.38.86,1.11,1.4,2.394a.76.76,0,0,1,.006.763.751.751,0,0,1-.958.239,5.212,5.212,0,0,1-1.032-.862,6.572,6.572,0,0,1-1.043-1.026A4.975,4.975,0,0,1,109.926,66.249Zm44.924,5.664a27.318,27.318,0,0,0,2.955,5.423c.736,1.076,3.322,4.552,5.762,4.112,2.119-.383,2.981-3.808,3.2-4.857a9.1,9.1,0,0,1,.739-2.5A5.535,5.535,0,0,1,175,71.855a5.432,5.432,0,0,1,2.889,4.547,15.685,15.685,0,0,1-.216,2.766,25.625,25.625,0,0,1-2.343,8.4c-2.1,4.235-6.443,7.939-11.3,7.939-6.873,0-11.5-6.528-14.395-11.454-.958-1.631-2.129-3.067-4.023-3.067-.709,0-1.684.132-2.05-.444-.551-.867.816-1.2,1.835-1.395,2.212-.427,3.282-.255,3.277-1.215,0-.852-1.169-.905-1.795-.935a15.663,15.663,0,0,1-3.541-.508.711.711,0,0,1-.471-.65c.027-.508.671-.76.859-.822a6.18,6.18,0,0,1,2.319-.071,8.126,8.126,0,0,0,2.074.017.881.881,0,0,0,.031-1.682c-.467-.183-2.171-.81-2.56-.959a.631.631,0,0,1,.094-1.237,10.488,10.488,0,0,1,5.871,1.228.462.462,0,0,0,.636-.169,8.408,8.408,0,0,0,.236-1.31,14.305,14.305,0,0,1,.833-3.815.691.691,0,0,1,.819-.464.648.648,0,0,1,.651.647C154.724,69.57,154.335,69.867,154.85,71.913Zm-8.176,15.248,1.555-3.566c.49.685,1.127,1.859,2.268,3.577C149.754,87.171,147.456,87.166,146.674,87.161Zm-1.493,3.424,1.085-2.489h4.863a29.082,29.082,0,0,0,2.508,3.145c-2.038,1.438-5.615,4.095-7.295,5.576a34.952,34.952,0,0,1-1.675-6A.471.471,0,0,0,145.181,90.585Zm31.337-3.413a28.354,28.354,0,0,0,2.155-8.69A7.135,7.135,0,0,0,178,73.566a6.453,6.453,0,0,0-11.63.788c-.778,2.532-.528,3.13-1.578,4.984a2.852,2.852,0,0,1-1,1.058c-.719.424-1.816-.085-2.416-.542a12.327,12.327,0,0,1-2.663-2.841,33.037,33.037,0,0,1-2.049-3.333,11.86,11.86,0,0,1-.951-2.142c-.5-2.158.084-2.559-.091-4.578a1.586,1.586,0,0,0-.268-.668,19.8,19.8,0,0,0,.156-7.765,29.663,29.663,0,0,1,5.414-1.084,16.154,16.154,0,0,1,5.539.214,17.415,17.415,0,0,1,10.566,7.655c3.213,5.43,2.943,14.933,3.367,21.86Z" fill="#000000"></path><path d="M125.245,108.9a.513.513,0,0,0-.194-.47c-.123-.093-26.8-16.579-27.046-16.725a.456.456,0,0,0-.469,0l-14.328,8.715c.071-7.2.364-27.305-1.107-34.213a13.377,13.377,0,0,0-6.494-9.01c-4.053-2.357-9.653-3.232-16.647-2.6a18.4,18.4,0,0,0-10.836,4.51c-2.869,2.7-7.487,1.419-8.065-1.408-.572-2.791,1.075-7.016,3.093-7.931.533-.242.838.244,1.115.754.833,1.529,1.934,2.962,3.392,2,2.072-1.364-.794-4.228.316-5.422a2.57,2.57,0,0,1,1.843-.643c2.528-.045,3.814,1.067,5.241,1.043,1.424.062,2.588-1.407,1.684-2.547a4.073,4.073,0,0,0-1.512-1.167,10.934,10.934,0,0,0-2.845-.872c-.218-.022-.583-.06-.588-.229-.011-.306.361-.147,2.282.026a9.03,9.03,0,0,0,1.8.091,1.57,1.57,0,0,0,1.52-1.974,2.322,2.322,0,0,0-2.361-1.3A18.419,18.419,0,0,1,52.011,39c1.273-.259,2.05.191,3.48-.121a1.246,1.246,0,0,0,.761-1.573c-.367-1.086-2.041-1.7-5.118-1.88A24.242,24.242,0,0,0,42,36.457c-13.531,4.3-18.483,21.57-12.5,30.467,3.012,4.482,7.917,7.353,14.19,8.308-.059,2.973-.264,14.839-.321,18.547a15,15,0,0,0-1.516-.591c.08-4.013.558-7.59-1.4-9.906-2.179-2.571-6.286-2.094-8.657.244-2.279,2.245-3.087,4.932-4.161,8.157-.306.923-.549,1.651-.673,1.884a15.349,15.349,0,0,1-7.188,5.942c-1.739.686-3.625,1.041-5.192,2.193a8.13,8.13,0,0,0-3.017,4.373,4.475,4.475,0,0,0,1.5,4.727,6.689,6.689,0,0,0-3.566,3.125c-1.3,2.718.247,5.228,2.437,5.528a7.335,7.335,0,0,0-1.513,2.7,3.583,3.583,0,0,0,.847,3.53,3.817,3.817,0,0,0,3.277.77c.1-.017.069-.793-2.981,16.934a9.372,9.372,0,0,0-4.581.316c-2.7.946-2.583,3.568-.872,4.146.817.221.893.162,4.632.237-.716,3.224-1.521,4.067-.84,5.186a1.856,1.856,0,0,0,2.384.7c1.316-.783,4-3.776,5.646-5.024a4.421,4.421,0,0,1,1.319-.776.824.824,0,0,1,.861.171c.7.913,1.135,3.2,2,4.861a1.619,1.619,0,0,0,1.9.919,2.708,2.708,0,0,0,1.77-1.868c.355-1.3.483-3.359.967-3.876a3.3,3.3,0,0,1,2.079-.371l6.1.182a2.342,2.342,0,0,0,1.8-3.924,2.776,2.776,0,0,0-2.087-.973c-.968,0-3.6-.064-3.6-.064-.023-.947-.037-1.952-.044-3.141H69.868v2a2.065,2.065,0,0,0,.042.871c0,.136-.748-.421,27.223,19.09a.456.456,0,0,0,.475,0s26.871-18.486,27.472-18.915C125.334,143.089,125.245,144.865,125.245,108.9ZM10.7,151.739a36.143,36.143,0,0,0,1.056-4.108.464.464,0,0,0-.459-.46c-.87-.014-3.748-.061-4.3-.094a1.3,1.3,0,0,1-1.033-.423,1.163,1.163,0,0,1,.193-1.386,2.734,2.734,0,0,1,1.239-.733,7.564,7.564,0,0,1,1.7-.343,21.253,21.253,0,0,1,2.843.153.465.465,0,0,0,.448-.351c.5-2.932,4.431-26.13,5.622-28.856a6.036,6.036,0,0,1,3.406-3.235,6.257,6.257,0,0,1,8.5,5.774c.006.637.213,26,.213,26.036a.464.464,0,0,0,.468.459c.646-.034,3.1.059,4.044.044a1.836,1.836,0,0,1,1.792,1.476,1.469,1.469,0,0,1-1.357,1.573c-.183.009-5.516-.147-6.007-.174a7.615,7.615,0,0,0-1.963.126,2.119,2.119,0,0,0-1.166.684,2.71,2.71,0,0,0-.362.8c-.642,2.382-.347,2.883-.985,3.91a1.413,1.413,0,0,1-1.079.648.549.549,0,0,1-.457-.29,11.942,11.942,0,0,1-1.16-2.854,5.756,5.756,0,0,0-1.286-2.572l-.011-.009c-1.989-1.556-4.856,2.366-8.167,5.183a1.474,1.474,0,0,1-1,.514A.986.986,0,0,1,10.7,151.739Zm.89-30.11a10.151,10.151,0,0,1,1.759-2.384.465.465,0,0,0-.455-.769,2.412,2.412,0,0,1-2.9-1.907,4.134,4.134,0,0,1,1.8-3.983,8.538,8.538,0,0,1,2.476-1.28.465.465,0,0,0,0-.887,3.235,3.235,0,0,1-1.911-3.586,6.617,6.617,0,0,1,2.5-4.184c1.427-1.139,3.146-1.51,4.851-2.132a16.152,16.152,0,0,0,7.535-5.739,5.053,5.053,0,0,0,1-1.994c1.307-3.986,2.622-8.647,6.506-10.008a4.9,4.9,0,0,1,4.091.307,5.028,5.028,0,0,1,2.094,3.8,47.292,47.292,0,0,1,0,6.039,15.879,15.879,0,0,0-5.73-.4c-11.748,1.3-16.486,13.254-18.388,23.04-.029.1-1.6,7.6-2.056,9.918a3.5,3.5,0,0,1-2.278-.092C11.052,124.809,10.9,122.962,11.586,121.629Zm39.4-82.322c.135.457.7.594,1.08.684,2.512.6,3.987.3,4.418,1.021a.5.5,0,0,1,.058.411.916.916,0,0,1-.85.475c-1.336-.041-3.461-.3-3.55-.314a1.122,1.122,0,0,0-1.158,1.575,1.26,1.26,0,0,0,1.01.614,8.443,8.443,0,0,1,3.558,1.283,1.318,1.318,0,0,1,.592.821.664.664,0,0,1-.212.4c-.878.77-2.356-.082-3.407-.375-1.673-.466-4.05-.674-5.234.594a1.9,1.9,0,0,0-.515,1.442,9.193,9.193,0,0,0,.551,2.181c.144.46.343,1.088.052,1.452a.82.82,0,0,1-1.336-.034c-1.224-1.487-1.053-2.2-2.147-2.668a1.864,1.864,0,0,0-1.656.364A8.512,8.512,0,0,0,39.118,55.3H28.105A23.391,23.391,0,0,1,32.12,44.87c4.52-6.489,12.328-9.6,20.889-8.312a7.327,7.327,0,0,1,1.443.362c.382.116,1.083.529.924.9-.055.124-.212.2-.444.226-1.3.12-1.913-.209-3.223.1A.972.972,0,0,0,50.986,39.307ZM28,56.226h11.03c-.428,5.019,6.047,7,9.7,3.579,3.341-3.132,8.118-4.6,14.59-4.472,7.866.148,12.9,2.158,15.844,6.326a12.89,12.89,0,0,1,2.039,4.781,52.2,52.2,0,0,1,.857,8.351c.26,7.405.367,12.41.216,26.2-7.81,4.75-12.163,7.376-12.264,7.474-.222.175-.146-.16-.146,13.711L57.9,122.125c-.114-.3-.348-.838-.446-1.095.23-.566-1.1-6.965-1.251-7.64a33.555,33.555,0,0,0,8.4-12.012A48.562,48.562,0,0,0,68.075,77.5a11.035,11.035,0,0,0-.538-2.221,5.087,5.087,0,0,0-1.084-2.039,2.317,2.317,0,0,0-3.66.06,4.274,4.274,0,0,0-5.61-.442c-.139-1.635-.453-4.459-.73-5.939a1.861,1.861,0,0,0-3.689-.292,19.258,19.258,0,0,0,.058,3.1c.569,15.394.148,12.248.152,16.859,0,4.7-.749,8.349-4.416,10.9a17,17,0,0,0-4.273-3.251c.03-1.977.333-19.257.334-19.39a.461.461,0,0,0-.339-.446l-.018,0A22.129,22.129,0,0,1,34.1,70.446C29.578,67.2,27.417,62.155,28,56.226Zm19.931,73.521c.227-.557-.658-.821-.881-.273-1.291,3.173-2.495,6.428-3.582,9.69-.208.016-7.892,0-12.48,0-.006-1.3-.033-5.538-.041-6.67a40.068,40.068,0,0,1,3.588-7.216,34.2,34.2,0,0,1,6.026-7.842c5.973-5.648,13.013-3.733,15.538,2.619,2.4,6.034,3.492,10.625,1.993,16.234-.208.777-.645,2.392-.766,2.875H44.444C45.5,136,46.678,132.832,47.933,129.747ZM66.89,79.119a1.224,1.224,0,0,1-1.071.7c-1.324-.08-1.627-1.438-1.91-2.127a10.128,10.128,0,0,0-.5-3.552,1.162,1.162,0,0,1,1.154-.849,1.965,1.965,0,0,1,1.525.961,6.211,6.211,0,0,1,.657,1.582,8.994,8.994,0,0,1,.409,1.7A2.893,2.893,0,0,1,66.89,79.119ZM53.927,85.813a145.881,145.881,0,0,0-.154-15.051c-.075-1.738-.134-3.111-.124-3.77.014-.973,1.545-1.39,1.8-.341a21.872,21.872,0,0,1,.465,2.975c.083.818.382,3.311.42,4.2a.466.466,0,0,0,.794.314,3.411,3.411,0,0,1,5.383.237,8.561,8.561,0,0,1,.421,1.873,5.455,5.455,0,0,1-.155,2.506,1.238,1.238,0,0,1-1.487.847c-1.9-.613-1.042-2.822-1.848-4.529-.257-.545-1.058-.09-.808.447a2.682,2.682,0,0,1,.113.28,2.2,2.2,0,0,0-2.988.492c-.959,1.361-1.012,2.957-1.18,4.726-.057.6.865.614.922.024a9.893,9.893,0,0,1,.795-3.891,1.376,1.376,0,0,1,2.413-.158c.777,1.453-.211,3.426.713,5.3.269.546,1.065.074.809-.442a4.627,4.627,0,0,1-.329-2.034A2.194,2.194,0,0,0,63.55,79.3a2.925,2.925,0,0,0,2.362,1.441,2.145,2.145,0,0,0,1.455-.7c.7,12.7-3.751,25.327-11.41,32.334-1.464-6-3.622-10.526-6.78-14.212C53.757,94.942,53.847,90.094,53.927,85.813Zm-14.4,31.272c-3.32,3.212-6.651,8.689-8.6,12.895-.007-.837-.1-10.77-.088-11.535a8.952,8.952,0,0,0-.522-3.385,7.134,7.134,0,0,0-12-2.045C19.993,106,24.362,94.694,35.18,93.45a14.669,14.669,0,0,1,7.655,1.1c8.479,3.71,11.935,14.754,13.337,23.626C52.134,111.651,45.148,111.646,39.527,117.085Zm18.8,6.065-.009-.023H69.867v16.036H58.3C60.413,133.52,60.417,129.014,58.324,123.15Zm12.909-14.362c15.116-9.194,26.449-16.073,26.544-16.136,1.434.887,23.9,14.785,26.1,16.151-2.419,1.452-24.885,14.942-26.329,15.835C97.55,124.638,73.248,109.983,71.233,108.788Zm-.442.827,26.531,15.963a.457.457,0,0,0,.468,0c.182-.108,23.956-14.387,26.532-15.956v32.915c-1.65,1.132-25.411,17.448-26.963,18.543,0,0-25.544-17.848-26.568-18.546Z" fill="#000000"></path><path d="M153.016,134.417a28.161,28.161,0,0,0-24.043-.021.463.463,0,0,0,.164.887h23.656A.464.464,0,0,0,153.016,134.417Zm-2.526-.058H131.334A27.562,27.562,0,0,1,150.49,134.359Z" fill="#000000"></path><path d="M190.476,118.091c-4.439,4.448-5.427,6.52-8.2,9.283a22.662,22.662,0,0,1-8.294,5.335.476.476,0,0,0-.028.928c3.424,1.338,8.481.141,12.169-5.3a54.3,54.3,0,0,0,5.086-9.7A.463.463,0,0,0,190.476,118.091Zm-1.155,2.571a54.4,54.4,0,0,1-3.439,6.383c-1.927,3.085-4.105,4.93-6.856,5.806a7.523,7.523,0,0,1-3.527.25C182.412,130.088,184.9,125.534,189.321,120.662Z" fill="#000000"></path><path d="M113.62,41.016c4.361,3.5,4.087,3.338,4.322,3.338a.447.447,0,0,0,.335-.779l-4.025-3.23C113.79,39.973,113.15,40.639,113.62,41.016Z" fill="#000000"></path><path d="M133.846,37.433c.091.592.987.373.9-.218l-.832-5.363c-.09-.587-.987-.376-.9.217Z" fill="#000000"></path><path d="M150.25,39.571l2.782-5.669c.262-.533-.54-.991-.806-.45l-2.783,5.669C149.181,39.655,149.983,40.112,150.25,39.571Z" fill="#000000"></path><path d="M168.344,59.751c-1.788.462-3.545,1.1-5.282,1.711a.471.471,0,0,0,.1.913c.206,0,1.674-.625,5.423-1.734a.462.462,0,0,0-.246-.89Z" fill="#000000"></path><path d="M103.131,56.551c5.66,2.375,5.212,2.2,5.334,2.2a.462.462,0,0,0,.446-.34.467.467,0,0,0-.308-.562l-5.212-2.187a.462.462,0,0,0-.26.886Z" fill="#000000"></path><path d="M194.158,81.56h-5.683a.462.462,0,0,0,0,.923h5.678a.462.462,0,1,0,0-.923Z" fill="#000000"></path><path d="M182.8,68.546h4.139a.462.462,0,0,0,0-.923H182.8a.462.462,0,0,0,0,.923Z" fill="#000000"></path><path d="M194.675,61.607h-8.21a.462.462,0,0,0,0,.923h8.208a.462.462,0,0,0,0-.923Z" fill="#000000"></path><path d="M114.4,111.3a3.733,3.733,0,0,0,3.28-1.554c.982-1.621-.347-3.756-3.224-3.785-1.359,0-33.273-.023-33.746.015a3.435,3.435,0,0,0-3.074,1.966c-.589,1.632,1.065,3.583,4.124,3.358C82.085,111.3,113.88,111.292,114.4,111.3Zm.487-.945c-.4.036-31.839,0-33.747.022-1.149.02-2.562-.527-2.7-1.682,0-1.331,1.539-1.811,3.185-1.811h32.828c.994.011,2.516.454,2.631,1.632C117.2,109.575,115.939,110.261,114.891,110.352Z" fill="#000000"></path><path d="M52.14,117.24l-1.976-.694c-.565-.2-.826.687-.262.885a13.592,13.592,0,0,0,2.132.722A.471.471,0,0,0,52.14,117.24Z" fill="#000000"></path><path d="M155.1,82.184s4.789,2.744,5,2.86a.448.448,0,0,0,.22.057.463.463,0,0,0,.243-.857c-.193-.116-4.787-2.743-5-2.858a.46.46,0,0,0-.627.186A.466.466,0,0,0,155.1,82.184Z" fill="#000000"></path><path d="M124.767,145.885a.463.463,0,0,0-.445.446v8.009a.462.462,0,0,0,.923,0v-8.005A.458.458,0,0,0,124.767,145.885Z" fill="#000000"></path><path d="M87,107.257a.463.463,0,0,0-.446.45v1.6a.462.462,0,0,0,.924,0v-1.6A.456.456,0,0,0,87,107.257Z" fill="#000000"></path><path d="M107.476,107.257a.464.464,0,0,0-.446.45v1.721a.462.462,0,0,0,.924,0V107.7A.459.459,0,0,0,107.476,107.257Z" fill="#000000"></path><path d="M13.918,145.622c.157,0,.057.03,2.029-1.055a.462.462,0,0,0-.46-.8l-1.807,1A.464.464,0,0,0,13.918,145.622Z" fill="#000000"></path><path d="M70.727,146.335v8a.462.462,0,0,0,.924,0v-8.009A.462.462,0,0,0,70.727,146.335Z" fill="#000000"></path><path d="M97.352,163.435a.463.463,0,0,0-.446.445v4.17a.462.462,0,0,0,.924,0V163.88A.456.456,0,0,0,97.352,163.435Z" fill="#000000"></path><path d="M20.84,145.97c.415.1.393-.275,1.6-1.195.471-.359-.01-1.144-.491-.781a11.333,11.333,0,0,0-1.353,1.2A.469.469,0,0,0,20.84,145.97Z" fill="#000000"></path><path d="M17.609,128.252a16.835,16.835,0,0,0,.729-2.974c.088-.587-.806-.811-.9-.216a16.8,16.8,0,0,1-.718,2.93C16.527,128.563,17.415,128.814,17.609,128.252Z" fill="#000000"></path><path d="M97.6,151.172a.464.464,0,0,0,.462-.45V133.685a.472.472,0,0,0-.478-.446.464.464,0,0,0-.446.446v17.042A.461.461,0,0,0,97.6,151.172Z" fill="#000000"></path><path d="M47.221,44.332a2.332,2.332,0,0,1-.5-3.279c.358-.486-.437-.966-.784-.487a3.247,3.247,0,0,0,.8,4.552C47.23,45.46,47.709,44.678,47.221,44.332Z" fill="#000000"></path><path d="M29.392,51.315l-.431,2.609c-.1.586.8.814.9.22l.431-2.61C30.385,50.951,29.491,50.72,29.392,51.315Z" fill="#000000"></path><path d="M162.594,93.954a5.837,5.837,0,0,0,3.448-.047.462.462,0,0,0-.255-.887,5.29,5.29,0,0,1-2.947.044.462.462,0,0,0-.246.89Z" fill="#000000"></path><path d="M149.422,74.676c1.711.278,1.7.28,1.767.28.528,0,.7-.812.137-.9l-1.685-.273C149.055,73.686,148.828,74.58,149.422,74.676Z" fill="#000000"></path><path d="M151.5,78.191a7.634,7.634,0,0,1-1.842-.309.462.462,0,0,0-.244.891,8.007,8.007,0,0,0,2.075.341C152.1,79.134,152.085,78.216,151.5,78.191Z" fill="#000000"></path><path d="M142.022,104.674a13.584,13.584,0,0,0-1.873,2.5.462.462,0,0,0,.406.684c.544,0,.411-.683,2.127-2.534C143.087,104.882,142.43,104.233,142.022,104.674Z" fill="#000000"></path></g></svg>