<svg xmlns="http://www.w3.org/2000/svg" fill="none" viewBox="0 0 200 200" height="400" width="400"><path fill="#000000" d="M159.823 108.268C161.115 109.332 164.066 111.759 164.248 111.91C164.611 112.21 165.134 111.691 164.768 111.39L160.342 107.748C159.98 107.45 159.457 107.967 159.823 108.268Z"></path><path fill="#000000" d="M161.085 106.88L164.255 108.034C164.7 108.197 164.892 107.487 164.455 107.326L161.285 106.171C160.836 106.009 160.644 106.719 161.085 106.88Z"></path><path fill="#000000" d="M127.867 108.416L124.467 110.994C124.095 111.276 124.461 111.914 124.838 111.629L128.238 109.05C128.61 108.768 128.244 108.13 127.867 108.416Z"></path><path fill="#000000" d="M127.867 106.306L122.052 108.982C121.623 109.182 121.996 109.813 122.423 109.616L128.238 106.94C128.667 106.743 128.294 106.109 127.867 106.306Z"></path><path fill="#000000" d="M149.776 91.0795C150.967 90.367 151.925 89.325 152.537 88.0795C153.037 87.0525 153.537 85.1865 152.409 84.3655C151.246 83.6185 149.909 84.6035 149.658 85.9745C149.508 86.8075 149.536 86.8745 149.088 90.6245C147.956 91.2195 146.288 91.4675 145.341 90.4605C147.541 88.9265 148.064 85.8305 146.975 84.2035C146.817 83.9249 146.593 83.6892 146.323 83.5173C146.053 83.3453 145.744 83.2423 145.425 83.2172C145.106 83.1921 144.785 83.2458 144.491 83.3735C144.197 83.5012 143.939 83.6989 143.74 83.9495C143.344 84.5645 143.167 85.2955 143.24 86.0235C143.239 87.4858 143.586 88.9273 144.251 90.2295C143.418 90.6053 142.477 90.6644 141.604 90.3955C141.743 88.5082 141.496 86.6124 140.879 84.8235C140.342 83.3815 138.848 82.5765 137.863 83.6115C137.488 84.1145 137.319 84.7412 137.389 85.3645C137.415 86.5169 137.752 87.6407 138.364 88.6175C138.976 89.5943 139.841 90.3879 140.866 90.9145C140.878 92.5265 141.316 101.767 141.366 102.603C141.596 106.352 142.495 118.584 142.683 120.953H143.419C143.274 119.138 141.934 99.8445 141.845 97.9685C141.769 96.3565 141.614 91.8145 141.605 91.1575C142.639 91.4129 143.731 91.299 144.69 90.8355C144.995 91.2059 145.39 91.4928 145.836 91.6695C146.875 91.9987 147.999 91.9274 148.988 91.4695C148.612 94.5525 145.588 120.951 145.588 120.951H146.323C148.453 101.086 148.882 98.5805 149.776 91.0795ZM138.116 85.0535C138.127 84.5755 138.281 83.9085 138.87 83.8865C139.548 83.8615 139.952 84.5655 140.195 85.0965C140.779 86.6923 141.007 88.3965 140.862 90.0895C140.002 89.565 139.296 88.8234 138.814 87.9394C138.332 87.0554 138.091 86.0601 138.116 85.0535V85.0535ZM144.026 86.8285C143.892 86.1301 143.929 85.4096 144.134 84.7285C144.219 84.455 144.403 84.2232 144.651 84.079C144.898 83.9348 145.191 83.8886 145.471 83.9495C145.769 84.0485 146.037 84.2247 146.245 84.4602C146.453 84.6957 146.596 84.9822 146.658 85.2905C146.856 86.1427 146.795 87.0348 146.483 87.8521C146.171 88.6695 145.621 89.3748 144.905 89.8775C144.392 88.9377 144.092 87.8969 144.026 86.8285ZM150.414 85.9845C150.605 84.8105 152.371 84.1395 152.334 86.0235C152.243 86.842 151.978 87.6316 151.556 88.3388C151.134 89.0461 150.565 89.6547 149.888 90.1235C149.991 88.7357 150.167 87.3541 150.414 85.9845V85.9845Z"></path><path fill="#000000" d="M190.164 135.555C189.143 136.134 181.54 140.694 181.171 140.92C181.091 140.971 181.034 141.051 181.011 141.144C180.989 141.236 181.003 141.334 181.051 141.416C181.099 141.498 181.177 141.558 181.269 141.584C181.36 141.61 181.458 141.6 181.542 141.555C182.563 140.975 190.167 136.416 190.535 136.19C190.615 136.139 190.672 136.059 190.695 135.966C190.717 135.874 190.703 135.776 190.655 135.694C190.607 135.612 190.529 135.552 190.437 135.526C190.346 135.5 190.248 135.51 190.164 135.555Z"></path><path fill="#000000" d="M194.586 146.741C193.086 146.716 181.342 146.761 181.342 146.761C181.248 146.766 181.159 146.807 181.094 146.875C181.029 146.943 180.993 147.034 180.993 147.128C180.993 147.223 181.029 147.313 181.094 147.382C181.159 147.45 181.248 147.491 181.342 147.496C181.342 147.496 194.042 147.485 194.586 147.476C194.68 147.471 194.769 147.43 194.834 147.362C194.899 147.293 194.935 147.203 194.935 147.108C194.935 147.014 194.899 146.923 194.834 146.855C194.769 146.787 194.68 146.746 194.586 146.741V146.741Z"></path><path fill="#000000" d="M190.535 157.301L181.542 152.682C181.122 152.467 180.75 153.101 181.171 153.317L190.164 157.935C190.584 158.153 190.957 157.519 190.535 157.301Z"></path><path fill="#000000" d="M31.926 175.839C29.156 175.624 26.796 174.444 25.787 171.818C21.1713 171.204 16.4804 171.495 11.976 172.675C9.65864 173.28 7.40901 174.119 5.26198 175.181C5.22174 175.196 5.18519 175.22 5.15464 175.251C5.12409 175.281 5.10021 175.318 5.08451 175.358C5.06882 175.398 5.06164 175.441 5.06344 175.484C5.06525 175.528 5.07599 175.57 5.09498 175.609C5.11175 175.685 5.15473 175.753 5.21647 175.801C5.2782 175.849 5.3548 175.874 5.43298 175.872C33.185 175.359 31.93 175.939 31.926 175.839Z"></path><path fill="#000000" d="M77.025 27.8663V17.4553C77.0201 17.3611 76.9793 17.2724 76.9109 17.2075C76.8425 17.1426 76.7518 17.1064 76.6575 17.1064C76.5633 17.1064 76.4726 17.1426 76.4042 17.2075C76.3358 17.2724 76.295 17.3611 76.29 17.4553V27.8663C76.295 27.9604 76.3358 28.0491 76.4042 28.114C76.4726 28.1789 76.5633 28.2151 76.6575 28.2151C76.7518 28.2151 76.8425 28.1789 76.9109 28.114C76.9793 28.0491 77.0201 27.9604 77.025 27.8663Z"></path><path fill="#000000" d="M74.467 27.4003L70.793 23.7253C70.7231 23.661 70.631 23.6261 70.536 23.628C70.4411 23.6299 70.3505 23.6685 70.2833 23.7357C70.2161 23.8029 70.1775 23.8935 70.1756 23.9884C70.1737 24.0834 70.2086 24.1755 70.273 24.2453L73.948 27.9203C74.0182 27.9825 74.1095 28.0155 74.2032 28.0126C74.297 28.0097 74.3861 27.9712 74.4524 27.9048C74.5186 27.8384 74.557 27.7492 74.5597 27.6555C74.5624 27.5617 74.5293 27.4705 74.467 27.4003Z"></path><path fill="#000000" d="M79.1629 28.1263L82.8369 24.4513C82.8993 24.3812 82.9324 24.29 82.9297 24.1962C82.927 24.1025 82.8886 24.0133 82.8223 23.9469C82.7561 23.8805 82.667 23.8419 82.5732 23.839C82.4795 23.8361 82.3882 23.8692 82.3179 23.9313L78.6429 27.6063C78.5786 27.6762 78.5437 27.7682 78.5456 27.8632C78.5475 27.9582 78.5861 28.0488 78.6533 28.116C78.7205 28.1831 78.8111 28.2217 78.906 28.2237C79.001 28.2256 79.0931 28.1907 79.1629 28.1263V28.1263Z"></path><g><path fill="#000000" d="M159.779 108.31L164.205 111.952C164.628 112.3 165.238 111.697 164.811 111.346L160.386 107.704C159.963 107.356 159.352 107.959 159.779 108.31Z"></path><path fill="#000000" d="M164.239 108.094C164.759 108.283 164.982 107.454 164.467 107.267C163.41 106.882 162.353 106.497 161.297 106.112C160.778 105.923 160.554 106.751 161.069 106.939L164.239 108.094Z"></path><path fill="#000000" d="M127.836 108.363L124.436 110.941C124.34 111 124.271 111.095 124.243 111.204C124.214 111.313 124.229 111.429 124.283 111.528C124.311 111.576 124.349 111.619 124.394 111.653C124.439 111.687 124.49 111.712 124.544 111.726C124.599 111.74 124.655 111.744 124.711 111.736C124.767 111.728 124.821 111.709 124.869 111.681C126.002 110.822 127.136 109.963 128.269 109.103C128.365 109.044 128.435 108.95 128.463 108.841C128.492 108.731 128.478 108.615 128.423 108.517C128.395 108.468 128.357 108.425 128.312 108.391C128.267 108.357 128.216 108.332 128.161 108.318C128.107 108.303 128.05 108.3 127.994 108.308C127.938 108.315 127.885 108.334 127.836 108.363Z"></path><path fill="#000000" d="M127.836 106.253L122.021 108.929C121.521 109.16 121.956 109.899 122.454 109.669L128.268 106.993C128.769 106.763 128.334 106.024 127.836 106.253Z"></path><path fill="#000000" d="M142.907 46.0108C143.824 45.5254 144.803 45.17 145.818 44.9548C147.748 44.5238 149.975 44.0808 151.13 42.2858C153.369 38.8078 149.011 33.4688 151.691 29.5388C152.01 29.0045 152.469 28.5676 153.018 28.275C153.567 27.9825 154.186 27.8455 154.807 27.8788C154.917 27.9059 155.033 27.89 155.131 27.8341C155.229 27.7783 155.302 27.6869 155.335 27.5788C155.35 27.5245 155.354 27.4678 155.347 27.4118C155.34 27.3559 155.322 27.302 155.294 27.253C155.266 27.204 155.229 27.1611 155.185 27.1265C155.14 27.092 155.089 27.0666 155.035 27.0518C152.401 26.6848 150.321 29.1008 150.027 31.5208C149.559 35.3698 151.386 37.9908 150.871 40.6258C150.765 41.1595 150.535 41.661 150.2 42.0901C149.865 42.5192 149.435 42.8639 148.943 43.0968C146.425 44.2308 145.162 43.9048 142.808 45.0828C141.709 45.6497 140.82 46.5525 140.27 47.6598C138.658 50.7548 139.435 54.2848 140.36 57.4478C140.395 57.5522 140.468 57.6393 140.565 57.6911C140.662 57.743 140.775 57.7556 140.881 57.7263C140.987 57.697 141.078 57.6281 141.135 57.5339C141.191 57.4396 141.21 57.3272 141.186 57.2198C140.444 54.4628 139.656 51.4818 140.733 48.7008C141.141 47.5891 141.906 46.6435 142.907 46.0108V46.0108Z"></path><path fill="#000000" d="M106.249 140.246L106.264 140.266L106.249 140.246Z"></path><path fill="#000000" d="M5.03797 175.625C5.05716 175.714 5.10715 175.794 5.17919 175.85C5.25122 175.906 5.34071 175.935 5.43197 175.932H31.869C31.9238 176.933 32.1798 177.912 32.6216 178.812C33.0634 179.711 33.6819 180.513 34.4403 181.168C35.1987 181.823 36.0814 182.318 37.0356 182.625C37.9898 182.931 38.9959 183.042 39.994 182.951H79.184C81.8654 182.994 84.5235 182.447 86.971 181.351C97.831 176.306 96.605 160.605 83.428 158.135C84.2302 156.334 85.3508 154.692 86.736 153.289C86.91 153.563 87.081 153.84 87.262 154.111L87.278 154.128L87.285 154.147C93.225 163.032 103.451 169.419 114.196 167.392C114.355 167.365 114.513 167.331 114.673 167.301V170.736C114.675 170.849 114.72 170.957 114.8 171.037C114.88 171.117 114.988 171.163 115.101 171.165H174.058C174.171 171.162 174.278 171.116 174.358 171.036C174.438 170.956 174.484 170.849 174.487 170.736V121.319C174.485 121.206 174.44 121.098 174.36 121.017C174.279 120.937 174.171 120.892 174.058 120.89H156.805V107.2C161.38 104.516 164.944 100.4 166.947 95.4889C168.951 90.5775 169.282 85.1432 167.89 80.0249C166.498 74.9066 163.46 70.3887 159.245 67.1686C155.03 63.9486 149.872 62.2053 144.568 62.2079C139.264 62.2105 134.108 63.9588 129.896 67.1831C125.684 70.4073 122.65 74.9281 121.263 80.0478C119.876 85.1675 120.213 90.6014 122.221 95.5108C124.229 100.42 127.797 104.532 132.375 107.212V120.89H115.1C114.987 120.892 114.879 120.938 114.799 121.018C114.719 121.098 114.674 121.206 114.672 121.319V144.751C113.182 144.917 111.676 144.63 110.352 143.926C108.742 143.024 107.35 141.778 106.275 140.278L106.263 140.266C106.215 140.213 106.155 140.172 106.087 140.147C106.147 140.168 106.202 140.202 106.248 140.247C106.125 140.086 105.586 139.369 105.061 138.567C101.921 133.7 102.012 128.286 98.179 123.401C93.502 117.724 85.255 116.035 77.81 116.101C70.2764 116.18 62.8896 118.194 56.359 121.951C55.368 109.703 55.545 111.598 55.107 99.7591C54.892 93.9261 54.825 88.7261 53.398 83.3071C64.26 83.0881 66.617 82.8991 69.984 82.2211C72.7818 81.6565 75.2452 80.0139 76.842 77.6481C80.009 73.1941 81.951 64.3791 82.773 58.9871C83.2827 55.6813 83.6221 52.3516 83.79 49.0111H88.637C89.6304 53.0386 91.8511 56.6577 94.9917 59.3678C98.1323 62.0778 102.038 63.7448 106.167 64.1379C110.297 64.5311 114.446 63.6311 118.042 61.5624C121.638 59.4938 124.501 56.3587 126.237 52.5911C126.273 52.5256 126.292 52.452 126.291 52.3773C126.29 52.3026 126.271 52.2293 126.233 52.1645C126.196 52.0997 126.143 52.0455 126.079 52.0073C126.015 51.969 125.942 51.9479 125.867 51.9461H108.067C106.096 51.9442 104.199 51.1901 102.765 49.8378C101.331 48.4854 100.467 46.6367 100.349 44.6689C100.231 42.7011 100.869 40.7626 102.132 39.249C103.395 37.7354 105.188 36.7608 107.145 36.5241C107.851 36.4521 106.567 36.4721 125.874 36.4721C125.949 36.4705 126.022 36.4496 126.086 36.4114C126.151 36.3732 126.204 36.319 126.241 36.2541C126.278 36.1892 126.298 36.1158 126.299 36.0409C126.299 35.9661 126.28 35.8924 126.244 35.8271C124.508 32.0594 121.644 28.9244 118.049 26.8558C114.453 24.7872 110.303 23.8873 106.174 24.2806C102.044 24.6739 98.139 26.3409 94.9984 29.0511C91.8579 31.7612 89.6373 35.3805 88.644 39.4081H87.564C87.2163 38.3472 86.6306 37.3799 85.8517 36.5802C85.0728 35.7805 84.1213 35.1695 83.07 34.7941C80.4722 33.9103 77.695 33.6886 74.99 34.1491C72.124 34.6341 69.528 36.0851 68.49 38.8381C67.4755 36.904 65.9343 35.2965 64.0446 34.2016C62.1549 33.1067 59.9939 32.5691 57.8114 32.6509C55.629 32.7327 53.5142 33.4306 51.7118 34.6639C49.9093 35.8972 48.4928 37.6155 47.626 39.6201C47.5899 39.6855 47.5712 39.7591 47.5719 39.8338C47.5725 39.9085 47.5923 39.9818 47.6295 40.0466C47.6667 40.1115 47.72 40.1656 47.7841 40.2039C47.8483 40.2421 47.9213 40.2632 47.996 40.2651C47.996 40.2651 57.027 40.2811 58.129 40.2651C58.6486 40.2546 59.1652 40.3469 59.6491 40.5367C60.133 40.7264 60.5746 41.01 60.9485 41.371C61.3224 41.732 61.6214 42.1633 61.8281 42.6402C62.0348 43.117 62.1453 43.6301 62.1531 44.1498C62.161 44.6695 62.066 45.1856 61.8738 45.6685C61.6815 46.1514 61.3957 46.5915 61.0329 46.9636C60.67 47.3357 60.2371 47.6324 59.7592 47.8367C59.2813 48.041 58.7677 48.1489 58.248 48.1541H48C47.9253 48.1559 47.8523 48.177 47.7881 48.2153C47.7239 48.2535 47.6707 48.3077 47.6335 48.3725C47.5963 48.4373 47.5765 48.5106 47.5759 48.5853C47.5752 48.66 47.5939 48.7336 47.63 48.7991C48.517 50.8545 49.9815 52.6084 51.8457 53.8478C53.71 55.0872 55.894 55.7588 58.1325 55.7813C60.3711 55.8037 62.568 55.176 64.4568 53.9742C66.3456 52.7724 67.8449 51.0483 68.773 49.0111H69.393C68.431 56.6461 68.405 57.1021 68.027 58.7581C67.8394 59.9298 67.4033 61.0478 66.7478 62.0369C66.0924 63.0261 65.2329 63.8636 64.227 64.4931C62.147 65.6671 59.675 65.9101 57.344 66.1681C50.475 66.9291 39.303 67.7931 35.044 67.6491C30.1529 67.4857 25.3112 68.6713 21.049 71.0761C18.423 72.6072 16.1972 74.7387 14.554 77.2961C11.123 82.8331 10.768 88.2961 10.27 94.8641C9.90397 99.6811 9.68297 104.507 9.55197 109.336C9.53597 109.936 6.40997 169.436 6.40897 169.469C6.41027 169.582 6.45592 169.691 6.53612 169.771C6.61632 169.851 6.72469 169.896 6.83797 169.897L25.238 169.743C25.3055 170.426 25.4594 171.098 25.696 171.743C18.7055 170.83 11.601 172 5.27197 175.105C5.21924 175.119 5.17031 175.145 5.12873 175.18C5.08715 175.216 5.05396 175.26 5.03156 175.31C5.00916 175.359 4.99811 175.413 4.99922 175.468C5.00033 175.523 5.01357 175.576 5.03797 175.625V175.625ZM88.084 160.771C97.344 166.387 94.691 182.061 79.184 182.094C79.184 182.094 39.789 182.094 39.302 182.094C37.6266 182.1 36.0125 181.465 34.7899 180.319C33.5674 179.174 32.829 177.604 32.726 175.932H74.954C75.064 175.927 75.1678 175.879 75.2438 175.799C75.3199 175.72 75.3623 175.614 75.3623 175.504C75.3623 175.393 75.3199 175.287 75.2438 175.208C75.1678 175.128 75.064 175.08 74.954 175.075H32.28C30.542 175.086 28.8655 174.433 27.593 173.249C24.405 169.766 26.817 162.984 28.655 158.667H75.955C80.6 158.667 83.885 158.3 88.084 160.771V160.771ZM124.358 74.8271C126.134 71.7177 128.604 69.06 131.575 67.0603C134.545 65.0606 137.937 63.7729 141.487 63.2972C145.036 62.8216 148.647 63.1708 152.039 64.3177C155.432 65.4646 158.514 67.3784 161.047 69.9103C163.579 72.4421 165.494 75.5239 166.641 78.916C167.789 82.3081 168.139 85.9192 167.664 89.4686C167.19 93.018 165.903 96.4101 163.904 99.3813C161.905 102.353 159.248 104.823 156.139 106.6C156.059 106.643 155.996 106.712 155.961 106.796C155.926 106.88 155.921 106.974 155.948 107.061V120.89H146.39C146.56 119.3 149.765 91.6601 149.83 91.1181C151.018 90.3991 151.976 89.3554 152.59 88.1101C153.104 87.0501 153.601 85.1521 152.44 84.3101C151.223 83.5321 149.84 84.5861 149.599 85.9551C149.46 86.6911 149.512 86.5701 149.032 90.5801C147.968 91.1331 146.332 91.3871 145.432 90.4671C147.622 88.8991 148.126 85.8081 147.032 84.1671C146.868 83.8794 146.637 83.6363 146.357 83.4592C146.078 83.2821 145.759 83.1763 145.429 83.1512C145.099 83.1261 144.768 83.1825 144.465 83.3153C144.162 83.4482 143.896 83.6534 143.691 83.9131C143.288 84.5352 143.107 85.2752 143.178 86.0131C143.179 87.4633 143.517 88.8935 144.167 90.1901C143.376 90.5279 142.493 90.5813 141.667 90.3411C141.811 88.4573 141.562 86.564 140.934 84.7821C140.427 83.3681 138.87 82.4601 137.822 83.5581C137.434 84.0732 137.258 84.7173 137.33 85.3581C137.352 86.5163 137.687 87.6471 138.299 88.6307C138.911 89.6142 139.777 90.4139 140.807 90.9451C140.863 98.2451 142.225 115.894 142.62 120.883C142.62 120.883 133.42 120.875 133.239 120.872V106.972C133.242 106.897 133.225 106.822 133.188 106.757C133.151 106.692 133.096 106.638 133.03 106.602C130.374 105.085 128.043 103.06 126.17 100.642C124.297 98.2243 122.918 95.4612 122.113 92.5106C121.308 89.56 121.092 86.4797 121.477 83.4456C121.862 80.4114 122.841 77.4829 124.358 74.8271V74.8271ZM145.815 91.7271C146.833 92.0538 147.936 91.9973 148.915 91.5681C148.542 94.6171 145.826 118.191 145.536 120.889H143.475C143.332 119.095 141.995 99.8431 141.906 97.9671C141.83 96.3551 141.675 91.8671 141.666 91.2331C142.677 91.465 143.737 91.3502 144.675 90.9071C144.982 91.27 145.373 91.552 145.815 91.7281V91.7271ZM144.087 86.8271C143.955 86.1349 143.992 85.4212 144.193 84.7461C144.274 84.4881 144.448 84.2695 144.681 84.1332C144.915 83.9969 145.191 83.9526 145.455 84.0091C145.743 84.1055 146.001 84.2766 146.202 84.5049C146.403 84.7332 146.54 85.0107 146.599 85.3091C146.792 86.1384 146.736 87.0063 146.438 87.8038C146.139 88.6014 145.612 89.293 144.922 89.7921C144.441 88.8728 144.156 87.8633 144.087 86.8281V86.8271ZM149.964 89.9871C150.064 88.6502 150.234 87.3194 150.472 86.0001C150.648 84.8951 152.31 84.2181 152.272 86.0231C152.187 86.8089 151.937 87.568 151.54 88.2511C151.142 88.9342 150.605 89.526 149.964 89.9881V89.9871ZM140.801 89.9781C139.976 89.4529 139.301 88.7233 138.841 87.8601C138.382 86.997 138.153 86.0296 138.178 85.0521C138.192 84.6101 138.32 83.9691 138.87 83.9461C139.523 83.9191 139.91 84.6181 140.142 85.1261C140.712 86.6766 140.936 88.3328 140.8 89.9791L140.801 89.9781ZM115.53 121.748H173.63V170.3H115.53V167.125C118.399 166.499 121.171 165.492 123.774 164.133C126.477 162.79 128.897 160.938 130.9 158.68C130.694 159.724 130.707 160.8 130.939 161.839C131.099 162.303 131.371 162.719 131.731 163.052C132.091 163.384 132.529 163.622 133.003 163.744C133.478 163.867 133.976 163.869 134.452 163.752C134.928 163.634 135.367 163.401 135.731 163.072C136.454 162.301 136.924 161.326 137.078 160.28C137.241 159.727 137.408 159.18 137.578 158.624C138.1 160.41 138.421 161.819 139.24 162.802C139.608 163.261 140.093 163.613 140.644 163.819C141.195 164.025 141.792 164.078 142.371 163.973C142.974 163.815 143.523 163.498 143.962 163.054C144.4 162.611 144.711 162.059 144.863 161.454C145.321 159.815 145.101 159.575 145.263 160.139C145.647 161.488 146.363 163.039 147.873 163.363C151.706 164.174 151.835 159.137 151.616 156.282H154.13C154.243 156.281 154.351 156.235 154.432 156.155C154.512 156.075 154.557 155.966 154.559 155.853V153.29C154.557 153.177 154.512 153.069 154.432 152.989C154.352 152.909 154.244 152.864 154.131 152.862H151.131C150.807 151.111 150.329 149.393 149.703 147.726C147.852 142.944 143.097 139.795 138.115 139.176C134.87 138.923 131.605 139.262 128.481 140.176V130.376C128.481 130.262 128.436 130.153 128.355 130.073C128.275 129.992 128.166 129.947 128.052 129.947C127.938 129.947 127.829 129.992 127.749 130.073C127.668 130.153 127.623 130.262 127.623 130.376V140.417C121.69 142.107 118.714 144.067 115.53 144.632V121.748ZM150.771 156.285C150.997 158.444 150.907 162.485 148.671 162.591C148.359 162.611 148.047 162.558 147.76 162.435C147.472 162.313 147.218 162.125 147.016 161.886C146.153 160.509 145.676 158.926 145.634 157.301C145.61 156.845 144.885 156.686 144.792 157.187C144.592 158.265 144.392 159.345 144.203 160.425C144.178 160.973 144.007 161.505 143.709 161.965C143.41 162.426 142.994 162.798 142.503 163.044C142.056 163.195 141.574 163.208 141.119 163.081C140.665 162.954 140.259 162.693 139.955 162.332C139.375 161.538 138.971 160.629 138.768 159.667C138.501 158.78 138.242 157.889 137.989 156.996C137.962 156.908 137.907 156.831 137.832 156.776C137.758 156.721 137.668 156.692 137.575 156.692C137.483 156.692 137.393 156.721 137.319 156.776C137.244 156.831 137.189 156.908 137.162 156.996C135.738 161.696 135.912 161.455 135.523 162.052C135.308 162.356 135.017 162.6 134.68 162.759C134.344 162.919 133.971 162.989 133.6 162.962C133.228 162.936 132.869 162.815 132.558 162.609C132.247 162.404 131.994 162.122 131.823 161.791C131.412 160.585 131.667 159.812 131.873 157.445C132.189 157.067 132.513 156.696 132.849 156.335C138.4 156.334 150.343 156.285 150.771 156.285V156.285ZM133.727 155.476C134.28 154.953 134.924 154.535 135.627 154.243C136.667 153.909 137.754 153.743 138.847 153.75C139.73 153.75 153.702 153.717 153.702 153.717V155.423C151.612 155.425 134.642 155.476 133.727 155.476ZM113.976 145.66C117.543 145.526 119.324 144.147 124.822 142.211C131.477 139.867 138.429 138.421 144.297 142.367C146.342 143.735 147.936 145.679 148.877 147.952C149.477 149.546 149.942 151.188 150.266 152.86H141.491C139.004 152.884 136.21 152.634 134.054 154.119C132.965 154.929 131.994 155.885 131.167 156.961L131.14 157.007C129.343 159.435 127.023 161.429 124.353 162.842C121.492 164.468 118.398 165.643 115.179 166.327C112.266 167.05 109.232 167.145 106.279 166.606C99.028 165.216 92.488 160.222 88.212 153.973C93.261 148.673 99.461 144.618 105.846 141.1C107.874 143.616 110.6 145.786 113.976 145.66ZM75.405 117.042C84.276 116.486 94.512 118.304 98.918 126.022C101.712 131.047 101.396 135.154 105.318 140.411C98.953 143.923 92.762 148 87.731 153.243C83.043 145.995 81.103 137.368 80.68 128.843C80.652 128.293 79.794 128.29 79.822 128.843C80.336 139.143 82.879 146.803 86.276 152.527C84.6983 154.091 83.4366 155.945 82.56 157.986C81.6531 157.863 80.7391 157.8 79.824 157.798C77.681 157.791 29.229 157.791 29.031 157.79C31.961 150.963 35.15 144.19 39.55 138.175C43.9841 132.078 49.6114 126.946 56.09 123.09C61.963 119.583 68.5806 117.511 75.405 117.042V117.042ZM81.205 35.1251C82.6567 35.3825 84.0075 36.0406 85.105 37.0251C85.8302 37.7464 86.3866 38.6195 86.7341 39.5816C87.0817 40.5436 87.2117 41.5707 87.115 42.5891C87.1888 43.2153 87.1351 43.8501 86.957 44.4551C86.9071 44.6119 86.8268 44.7573 86.7207 44.8831C86.6146 45.0088 86.4847 45.1125 86.3386 45.188C86.1924 45.2636 86.0328 45.3097 85.8688 45.3236C85.7049 45.3375 85.5398 45.319 85.383 45.2691C85.1022 45.1309 84.8551 44.933 84.6589 44.6892C84.4626 44.4455 84.3221 44.1618 84.247 43.8581C83.792 42.6361 83.008 40.2371 82.467 38.7431C82.315 38.3241 81.567 38.3431 81.625 38.8571C81.7526 40.3167 81.8024 41.7821 81.774 43.2471C81.774 44.1201 81.692 45.3961 80.693 45.5761C80.2754 45.5768 79.8665 45.4577 79.5148 45.2327C79.163 45.0077 78.8833 44.6864 78.709 44.3071C78.1714 43.2989 77.733 42.241 77.4 41.1481C77.127 40.3481 76.869 39.5481 76.637 38.7411C76.6065 38.644 76.5428 38.5608 76.4569 38.5063C76.3711 38.4517 76.2687 38.4293 76.1679 38.4429C76.0671 38.4565 75.9744 38.5054 75.9061 38.5808C75.8379 38.6563 75.7985 38.7534 75.795 38.8551C75.388 42.1621 75.495 42.8901 75.357 43.7551C75.244 44.4761 74.927 45.2941 74.116 45.3911C73.211 45.4991 72.64 44.4811 72.393 43.7641C71.864 42.2241 72.041 40.5391 71.532 38.9861C71.5252 38.9714 71.5171 38.9574 71.508 38.9441C71.4837 38.8612 71.4319 38.7891 71.3613 38.7395C71.2906 38.6899 71.2052 38.6658 71.119 38.6711L69.494 38.6981C71.373 34.8271 77.037 34.2001 81.2 35.1251H81.205ZM68.5 48.1511C68.4249 48.1499 68.351 48.169 68.2859 48.2063C68.2208 48.2436 68.1669 48.2978 68.13 48.3631C67.3367 50.2529 66.0179 51.8755 64.33 53.0383C62.6422 54.2011 60.6562 54.8553 58.6077 54.9232C56.5593 54.9911 54.5343 54.4699 52.7732 53.4214C51.012 52.3729 49.5887 50.8412 48.672 49.0081H58.249C59.4272 49.0124 60.5659 48.5833 61.4481 47.8024C62.3304 47.0215 62.8947 45.9433 63.0334 44.7733C63.1721 43.6032 62.8757 42.423 62.2005 41.4575C61.5253 40.4919 60.5185 39.8083 59.372 39.5371C58.2924 39.3702 57.1975 39.3259 56.108 39.4051H48.689C49.3973 37.9849 50.4129 36.7403 51.6622 35.7616C52.9114 34.7829 54.3628 34.0945 55.9112 33.7466C57.4596 33.3986 59.066 33.3998 60.6138 33.75C62.1617 34.1001 63.6122 34.7905 64.86 35.7711C66.2879 36.904 67.4113 38.3745 68.129 40.0501C68.1661 40.1152 68.22 40.1692 68.2851 40.2065C68.3501 40.2438 68.424 40.263 68.499 40.2621H70.952C71.0582 41.4878 71.2527 42.7043 71.534 43.9021C71.65 44.4495 71.913 44.9549 72.2946 45.3642C72.6762 45.7734 73.162 46.071 73.7 46.2251C74.1763 46.2838 74.6584 46.1776 75.066 45.9241C75.4735 45.6707 75.782 45.2853 75.94 44.8321C76.38 43.7721 76.251 42.8321 76.429 40.9321C76.8034 42.2638 77.3264 43.5492 77.988 44.7641C79.35 47.1861 82.33 47.0081 82.61 44.1351C82.6778 43.3594 82.6832 42.5796 82.626 41.8031C82.69 41.9911 83.201 43.4341 83.383 43.9701C83.5591 44.5099 83.83 45.0141 84.183 45.4591C84.5361 45.8766 85.0406 46.1368 85.5855 46.1825C86.1304 46.2283 86.6712 46.0558 87.089 45.7031C88.181 44.7831 88.009 43.2151 87.965 41.9381C87.9489 41.3761 87.8881 40.8163 87.783 40.2641H88.974C89.0676 40.2631 89.1584 40.2319 89.2328 40.1752C89.3072 40.1184 89.3613 40.0391 89.387 39.9491C90.2584 36.0974 92.2994 32.6095 95.2305 29.9631C98.1615 27.3168 101.839 25.6415 105.759 25.1667C109.68 24.692 113.651 25.4412 117.129 27.3115C120.607 29.1818 123.421 32.0817 125.187 35.6141C125.187 35.6141 107.798 35.6141 107.153 35.6651C104.967 35.9019 102.955 36.9674 101.531 38.6425C100.107 40.3176 99.379 42.4748 99.497 44.6702C99.615 46.8657 100.57 48.9324 102.165 50.4452C103.761 51.9581 105.875 52.8019 108.074 52.8031H125.183C123.413 56.3281 120.597 59.2206 117.121 61.0854C113.645 62.9502 109.679 63.6964 105.763 63.222C101.847 62.7476 98.1727 61.0757 95.2426 58.4348C92.3126 55.7939 90.2693 52.3128 89.392 48.4671C89.3661 48.3772 89.312 48.2981 89.2376 48.2416C89.1631 48.185 89.0724 48.1539 88.979 48.1531L68.5 48.1511ZM70.236 49.0971H82.929C82.776 52.2254 82.4629 55.3438 81.991 58.4401H68.96C69.292 56.8191 69.435 55.4741 70.235 49.1001L70.236 49.0971ZM12.084 86.2341C13.084 80.6391 15.684 75.7341 20.333 72.5401C24.622 69.7589 29.6563 68.3497 34.766 68.5001C40.402 68.6281 51.266 67.6951 57.116 67.0521C61.107 66.6131 64.963 66.1841 67.261 62.8521C67.9654 61.7648 68.4732 60.5622 68.761 59.2991H81.851C81.371 62.3742 80.7079 65.418 79.865 68.4141C79.1726 71.133 78.1295 73.7502 76.762 76.2001C76.1178 77.3944 75.2424 78.4486 74.1867 79.3012C73.131 80.1538 71.9162 80.7877 70.613 81.1661C68.2482 81.7428 65.8283 82.0639 63.395 82.1241C59.88 82.2431 56.364 82.3881 52.847 82.4571C52.7813 82.4581 52.7167 82.4741 52.6581 82.5038C52.5995 82.5334 52.5484 82.576 52.5086 82.6283C52.4688 82.6805 52.4415 82.7412 52.4285 82.8056C52.4156 82.87 52.4175 82.9365 52.434 83.0001C54.156 89.5251 53.997 92.9001 54.655 110.7H30.736C30.6228 110.702 30.5148 110.747 30.4347 110.827C30.3546 110.907 30.3088 111.015 30.307 111.128C30.281 112.551 30.25 113.974 30.214 115.395H14.514C14.514 113.973 14.514 112.551 14.514 111.128C14.5124 111.015 14.4668 110.907 14.3869 110.827C14.307 110.747 14.199 110.702 14.086 110.7H10.379C10.516 104.933 11.043 91.6241 12.084 86.2341ZM29.884 136.313C29.901 137.451 29.996 138.772 29.105 139.638C28.8798 139.892 28.5652 140.05 28.2268 140.078C27.8883 140.106 27.552 140.003 27.288 139.789C26.9232 139.445 26.6688 139 26.557 138.511C26.115 136.449 25.7987 134.361 25.61 132.26C25.552 131.724 24.754 131.695 24.753 132.26C24.714 133.912 24.536 135.56 24.339 137.198C24.2536 137.99 24.0441 138.764 23.718 139.491C23.5228 139.941 23.1948 140.32 22.778 140.577C22.5457 140.685 22.2849 140.717 22.0333 140.668C21.7818 140.619 21.5523 140.491 21.378 140.303C20.253 139.241 20.16 137.609 19.994 136.103C19.8566 134.857 19.7156 133.612 19.571 132.368C19.571 132.254 19.5258 132.145 19.4453 132.065C19.3649 131.984 19.2557 131.939 19.142 131.939C19.0282 131.939 18.9191 131.984 18.8386 132.065C18.7582 132.145 18.713 132.254 18.713 132.368C18.629 133.846 18.485 135.322 18.423 136.801C18.4611 137.636 18.3597 138.471 18.123 139.273C18.0065 139.59 17.8237 139.878 17.587 140.118C17.379 140.328 17.1105 140.468 16.819 140.518C16.6195 140.541 16.4173 140.516 16.23 140.443C15.9743 140.337 15.7455 140.175 15.56 139.969C15.0089 139.263 14.6913 138.402 14.651 137.507C14.613 136.853 14.522 116.383 14.522 116.261H30.191C30.11 119.461 29.874 126.289 29.871 126.511C29.8701 126.605 29.9006 126.697 29.9576 126.772C30.0147 126.846 30.095 126.9 30.186 126.924C33.178 127.691 35.414 128.11 36.244 129.017C36.4152 129.229 36.4961 129.499 36.469 129.77C36.446 129.91 36.3927 130.044 36.313 130.162C35.469 131.507 31.562 131.393 29.983 131.225C29.9267 131.225 29.8709 131.236 29.8189 131.257C29.7668 131.279 29.7195 131.31 29.6797 131.35C29.6398 131.39 29.6082 131.437 29.5866 131.489C29.5651 131.541 29.554 131.597 29.554 131.653C29.723 133.2 29.856 134.751 29.879 136.313H29.884ZM25.194 168.883C23.264 168.899 7.86397 169.009 7.29897 169.027C7.31597 168.727 10.359 111.635 10.361 111.56H13.666C13.666 112.982 13.728 136.616 13.787 137.417C13.905 139.024 14.693 141.381 16.675 141.375C18.581 141.369 19.252 139.231 19.27 137.288C19.3403 138.265 19.6244 139.214 20.102 140.069C20.3304 140.566 20.7153 140.974 21.1977 141.231C21.6801 141.488 22.2334 141.579 22.773 141.492C24.608 141.008 25.117 138.331 25.285 136.447C25.511 137.819 25.637 139.347 26.56 140.281C28.06 141.814 30.686 140.629 30.748 137.511C30.7645 135.707 30.6693 133.903 30.463 132.111C31.5695 132.206 32.6825 132.196 33.787 132.079C34.5843 132.002 35.3624 131.788 36.087 131.446C36.5101 131.26 36.8578 130.936 37.0734 130.527C37.2889 130.118 37.3596 129.648 37.274 129.194C36.883 127.706 34.815 127.249 33.244 126.81C32.416 126.578 31.581 126.369 30.744 126.172C30.828 123.972 31.133 112.984 31.159 111.561C31.159 111.561 54.223 111.58 54.7 111.568C54.732 112.157 55.418 120.874 55.544 122.422C41.189 130.985 34.381 143.035 28.004 158.022V158.045C27.991 158.069 27.978 158.095 27.965 158.125C27.0532 160.151 26.3153 162.25 25.759 164.401C25.3802 165.865 25.1886 167.371 25.189 168.883H25.194ZM26.123 172.666C26.7038 173.726 27.6106 174.571 28.709 175.075C5.42597 175.075 9.69397 175.081 7.45197 175.057C13.3392 172.572 19.7944 171.745 26.118 172.666H26.123Z"></path><path fill="#000000" d="M151.564 46.0108C152.48 45.5255 153.46 45.17 154.474 44.9548C156.404 44.5238 158.632 44.0808 159.786 42.2858C162.031 38.7998 157.666 33.4698 160.348 29.5388C160.667 29.0045 161.126 28.5676 161.675 28.275C162.224 27.9825 162.843 27.8455 163.464 27.8788C163.574 27.9064 163.69 27.8906 163.788 27.8347C163.886 27.7788 163.959 27.6871 163.991 27.5788C164.006 27.5245 164.01 27.4678 164.003 27.4118C163.996 27.3559 163.978 27.302 163.95 27.253C163.923 27.204 163.885 27.1611 163.841 27.1265C163.796 27.092 163.745 27.0666 163.691 27.0518C161.057 26.6848 158.976 29.1008 158.682 31.5208C158.207 35.4338 160.049 37.9538 159.526 40.6258C159.421 41.1599 159.191 41.662 158.857 42.0916C158.522 42.5212 158.092 42.8665 157.6 43.0998C155.011 44.2658 153.869 43.8828 151.466 45.0858C150.367 45.6527 149.478 46.5555 148.928 47.6628C147.316 50.7578 148.096 54.2868 149.017 57.4508C149.049 57.5586 149.122 57.6496 149.22 57.7041C149.318 57.7587 149.434 57.7726 149.542 57.7427C149.651 57.7128 149.743 57.6416 149.8 57.5444C149.856 57.4472 149.872 57.3317 149.844 57.2228C149.101 54.4658 148.313 51.4848 149.39 48.7038C149.798 47.5911 150.562 46.6444 151.564 46.0108Z"></path><path fill="#000000" d="M172.145 27.8788C172.255 27.9062 172.37 27.8903 172.469 27.8344C172.567 27.7785 172.64 27.687 172.672 27.5788C172.687 27.5245 172.691 27.4678 172.684 27.4118C172.677 27.3559 172.659 27.302 172.631 27.253C172.604 27.204 172.566 27.1611 172.522 27.1265C172.477 27.092 172.426 27.0666 172.372 27.0518C169.738 26.6848 167.657 29.1008 167.363 31.5208C166.887 35.4338 168.73 37.9538 168.207 40.6258C168.101 41.16 167.872 41.6621 167.538 42.0918C167.203 42.5214 166.772 42.8666 166.28 43.0998C163.757 44.2368 162.505 43.8998 160.146 45.0858C159.047 45.6523 158.158 46.5552 157.608 47.6628C155.996 50.7578 156.773 54.2878 157.697 57.4508C157.729 57.5586 157.802 57.6496 157.9 57.7041C157.998 57.7587 158.114 57.7726 158.222 57.7427C158.331 57.7128 158.423 57.6416 158.48 57.5444C158.536 57.4472 158.552 57.3317 158.524 57.2228C157.781 54.4658 156.993 51.4848 158.071 48.7038C158.479 47.5916 159.243 46.6455 160.245 46.0128C161.161 45.5274 162.141 45.172 163.155 44.9568C165.085 44.5258 167.313 44.0828 168.468 42.2878C170.713 38.7988 166.344 33.4768 169.029 29.5408C169.348 29.006 169.806 28.5685 170.355 28.2756C170.905 27.9826 171.523 27.8454 172.145 27.8788V27.8788Z"></path><path fill="#000000" d="M103.762 111.879C102.871 109.856 100.427 108.91 98.3399 108.936C97.4034 108.927 96.4786 109.145 95.6455 109.573C94.8124 110.001 94.0959 110.625 93.5579 111.392C93.0199 112.159 92.6766 113.045 92.5576 113.974C92.4386 114.903 92.5475 115.847 92.8749 116.724C92.8879 116.75 92.9037 116.775 92.9219 116.797C92.9351 116.846 92.9587 116.891 92.9911 116.93C93.0235 116.968 93.064 117 93.1096 117.021C93.1553 117.043 93.2051 117.054 93.2556 117.054C93.306 117.055 93.356 117.044 93.4019 117.023C93.8559 116.835 94.3139 116.658 94.7689 116.474C94.9186 117.056 95.1933 117.598 95.574 118.063C95.9547 118.527 96.4322 118.903 96.9732 119.164C97.5141 119.426 98.1055 119.566 98.7062 119.575C99.3068 119.584 99.9022 119.462 100.451 119.217C100.999 118.972 101.488 118.611 101.883 118.158C102.277 117.705 102.568 117.172 102.736 116.595C102.903 116.018 102.942 115.411 102.851 114.818C102.759 114.224 102.54 113.657 102.207 113.157C102.674 112.927 103.144 112.702 103.607 112.465C103.703 112.406 103.773 112.312 103.801 112.203C103.83 112.094 103.816 111.978 103.762 111.879ZM102.037 115.622C101.994 116.294 101.745 116.937 101.325 117.464C100.904 117.99 100.332 118.375 99.6863 118.566C99.0402 118.757 98.351 118.745 97.712 118.532C97.0729 118.318 96.5148 117.914 96.1129 117.373C95.8493 117.008 95.6643 116.593 95.5699 116.153C97.5479 115.339 99.5013 114.468 101.43 113.54C101.855 114.149 102.068 114.88 102.037 115.622ZM93.5509 116.045C93.2553 115.105 93.2637 114.096 93.575 113.161C93.8864 112.226 94.4847 111.413 95.2849 110.838C96.4314 110.003 97.8581 109.648 99.2622 109.847C100.666 110.047 101.937 110.786 102.806 111.907C99.7879 113.431 96.7029 114.81 93.5509 116.045Z"></path><path fill="#000000" d="M190.134 135.5C189.113 136.081 181.14 140.866 181.14 140.866C181.046 140.926 180.98 141.02 180.954 141.127C180.928 141.235 180.944 141.349 181 141.445C181.056 141.54 181.147 141.611 181.254 141.641C181.361 141.671 181.475 141.659 181.573 141.606C182.595 141.026 190.566 136.241 190.566 136.241C190.662 136.18 190.73 136.084 190.755 135.973C190.78 135.862 190.761 135.746 190.7 135.649C190.643 135.557 190.552 135.49 190.447 135.462C190.341 135.435 190.23 135.448 190.134 135.5V135.5Z"></path><path fill="#000000" d="M194.586 146.68C193.086 146.656 181.886 146.689 181.342 146.7C181.232 146.706 181.128 146.753 181.052 146.833C180.976 146.913 180.934 147.019 180.934 147.129C180.934 147.239 180.976 147.345 181.052 147.425C181.128 147.505 181.232 147.552 181.342 147.557C182.842 147.582 194.042 147.537 194.586 147.536C194.7 147.536 194.808 147.491 194.889 147.411C194.969 147.331 195.014 147.222 195.014 147.108C195.014 146.995 194.969 146.886 194.889 146.806C194.808 146.726 194.7 146.68 194.586 146.68V146.68Z"></path><path fill="#000000" d="M190.566 157.249L181.573 152.63C181.083 152.379 180.649 153.118 181.14 153.37L190.134 157.99C190.623 158.241 191.057 157.5 190.566 157.249Z"></path><path fill="#000000" d="M159.755 143.145C159.864 143.141 159.967 143.096 160.044 143.02C160.12 142.943 160.165 142.84 160.169 142.731V130.378C160.164 130.268 160.116 130.164 160.036 130.088C159.957 130.012 159.851 129.97 159.741 129.97C159.63 129.97 159.524 130.012 159.445 130.088C159.365 130.164 159.317 130.268 159.312 130.378V142.731C159.314 142.787 159.327 142.843 159.35 142.894C159.373 142.945 159.406 142.992 159.448 143.03C159.489 143.068 159.537 143.098 159.59 143.118C159.643 143.138 159.699 143.147 159.755 143.145V143.145Z"></path><path fill="#000000" d="M103.366 164.1C104.85 164.75 106.464 165.053 108.083 164.984C108.633 164.959 108.636 164.102 108.083 164.127C106.615 164.199 105.15 163.937 103.798 163.359C103.699 163.305 103.583 163.29 103.474 163.319C103.365 163.348 103.271 163.417 103.212 163.513C103.183 163.562 103.165 163.615 103.157 163.671C103.149 163.727 103.153 163.784 103.167 163.839C103.181 163.893 103.206 163.944 103.24 163.989C103.275 164.034 103.317 164.072 103.366 164.1V164.1Z"></path><path fill="#000000" d="M156.373 152.434C157.561 150.664 160.281 146.613 160.452 146.357C160.761 145.898 160.018 145.469 159.712 145.925C158.524 147.695 155.804 151.745 155.633 152.001C155.324 152.46 156.066 152.89 156.373 152.434Z"></path><path fill="#000000" d="M117.405 172.759C117.4 172.649 117.352 172.545 117.272 172.469C117.193 172.393 117.087 172.351 116.976 172.351C116.866 172.351 116.76 172.393 116.681 172.469C116.601 172.545 116.553 172.649 116.548 172.759C116.469 177.3 116.529 177.098 116.584 177.525C116.69 178.015 116.982 178.445 117.398 178.725C117.813 179.005 118.321 179.114 118.815 179.029C119.309 178.944 119.752 178.672 120.05 178.269C120.348 177.866 120.479 177.363 120.416 176.866V172.759C120.416 172.645 120.371 172.536 120.29 172.456C120.21 172.375 120.101 172.33 119.987 172.33C119.873 172.33 119.764 172.375 119.684 172.456C119.603 172.536 119.558 172.645 119.558 172.759C119.532 174.214 119.544 175.67 119.558 177.126C119.574 177.411 119.475 177.691 119.285 177.904C119.094 178.117 118.827 178.245 118.541 178.261C118.256 178.276 117.976 178.178 117.764 177.987C117.551 177.797 117.423 177.529 117.407 177.244C117.354 176.572 117.407 175.877 117.407 175.203L117.405 172.759Z"></path><path fill="#000000" d="M169.337 172.759C169.337 172.645 169.292 172.536 169.211 172.456C169.131 172.375 169.022 172.33 168.908 172.33C168.794 172.33 168.685 172.375 168.605 172.456C168.524 172.536 168.479 172.645 168.479 172.759C168.395 177.604 168.47 177.169 168.516 177.525C168.623 178.015 168.914 178.445 169.33 178.725C169.745 179.005 170.253 179.114 170.747 179.029C171.241 178.944 171.684 178.672 171.982 178.269C172.28 177.866 172.411 177.363 172.348 176.866V172.759C172.343 172.649 172.295 172.545 172.215 172.469C172.136 172.393 172.03 172.351 171.92 172.351C171.809 172.351 171.703 172.393 171.624 172.469C171.544 172.545 171.496 172.649 171.491 172.759C171.464 174.214 171.477 175.67 171.491 177.126C171.499 177.407 171.397 177.68 171.207 177.886C171.016 178.093 170.753 178.217 170.472 178.233C170.192 178.248 169.917 178.153 169.705 177.969C169.493 177.784 169.362 177.524 169.339 177.244C169.286 176.572 169.339 175.877 169.339 175.203L169.337 172.759Z"></path><path fill="#000000" d="M38.6079 58.1904C38.5859 55.7434 36.4159 53.7734 34.2179 53.0814C33.3714 52.7989 32.4705 52.7183 31.5873 52.846C30.704 52.9737 29.8629 53.3062 29.131 53.8168C28.3991 54.3275 27.7967 55.0022 27.372 55.7871C26.9473 56.572 26.712 57.4453 26.6849 58.3374C26.6781 58.4176 26.6976 58.4978 26.7406 58.5659C26.7835 58.6339 26.8476 58.6861 26.9229 58.7144C27.0449 58.7874 27.1229 58.7664 28.5229 58.8014C28.4316 59.394 28.4705 59.9995 28.6368 60.5756C28.8032 61.1518 29.093 61.6848 29.4862 62.1375C29.8794 62.5903 30.3665 62.952 30.9137 63.1975C31.4608 63.4429 32.0548 63.5662 32.6545 63.5589C33.2541 63.5515 33.8449 63.4136 34.3859 63.1548C34.9268 62.896 35.4049 62.5225 35.7868 62.0602C36.1688 61.5979 36.4455 61.0579 36.5976 60.4779C36.7498 59.8979 36.7738 59.2916 36.6679 58.7014C37.1729 58.6754 37.6769 58.6434 38.1809 58.6224C38.294 58.619 38.4014 58.5723 38.4809 58.4919C38.5605 58.4114 38.6059 58.3035 38.6079 58.1904V58.1904ZM35.5619 60.8474C35.265 61.4557 34.7876 61.9575 34.1948 62.2842C33.602 62.611 32.9228 62.7468 32.2499 62.673C31.5771 62.5993 30.9434 62.3196 30.4354 61.8722C29.9275 61.4248 29.5701 60.8315 29.4119 60.1734C29.3077 59.7303 29.2992 59.27 29.3869 58.8234C31.5269 58.8594 33.6669 58.8324 35.8069 58.7424C35.9589 59.4519 35.8728 60.1917 35.5619 60.8474V60.8474ZM27.5889 57.9204C27.6835 57.0403 28.0246 56.2048 28.573 55.5101C29.1214 54.8154 29.8549 54.2896 30.6889 53.9934C31.3989 53.7468 32.1523 53.6506 32.9015 53.7107C33.6506 53.7708 34.3791 53.9859 35.0406 54.3425C35.7022 54.699 36.2824 55.1892 36.7445 55.7819C37.2066 56.3746 37.5405 57.0568 37.7249 57.7854C34.3476 57.9887 30.9689 58.0337 27.5889 57.9204Z"></path><path fill="#000000" d="M159.725 150.1C159.617 150.104 159.514 150.149 159.437 150.226C159.36 150.302 159.316 150.405 159.312 150.514V162.867C159.317 162.977 159.365 163.081 159.445 163.157C159.524 163.233 159.63 163.275 159.741 163.275C159.851 163.275 159.957 163.233 160.036 163.157C160.116 163.081 160.164 162.977 160.169 162.867V150.512C160.165 150.398 160.115 150.291 160.032 150.214C159.949 150.137 159.838 150.096 159.725 150.1Z"></path><path fill="#000000" d="M30.892 110.193C31.0005 110.189 31.1036 110.145 31.1805 110.068C31.2574 109.992 31.3022 109.888 31.306 109.78V89.88C31.3007 89.7699 31.2532 89.6661 31.1734 89.5901C31.0936 89.5141 30.9877 89.4717 30.8775 89.4717C30.7673 89.4717 30.6613 89.5141 30.5815 89.5901C30.5018 89.6661 30.4543 89.7699 30.449 89.88V109.78C30.4509 109.836 30.4639 109.891 30.4872 109.943C30.5105 109.994 30.5437 110.04 30.5849 110.078C30.626 110.117 30.6743 110.147 30.727 110.166C30.7797 110.186 30.8358 110.195 30.892 110.193V110.193Z"></path><path fill="#000000" d="M13.5609 89.6155C13.4524 89.6193 13.3494 89.6641 13.2727 89.741C13.196 89.8178 13.1514 89.921 13.1479 90.0295V109.93C13.1533 110.04 13.2007 110.143 13.2805 110.219C13.3603 110.295 13.4663 110.338 13.5764 110.338C13.6866 110.338 13.7926 110.295 13.8724 110.219C13.9522 110.143 13.9996 110.04 14.0049 109.93V90.0295C14.003 89.9732 13.99 89.9177 13.9666 89.8664C13.9433 89.8151 13.91 89.7689 13.8688 89.7305C13.8275 89.692 13.7791 89.6621 13.7263 89.6424C13.6735 89.6226 13.6173 89.6135 13.5609 89.6155V89.6155Z"></path><path fill="#000000" d="M16.329 109.931C17.159 109.127 17.9756 108.31 18.779 107.481C18.8561 107.4 18.8985 107.292 18.8972 107.18C18.8959 107.068 18.8509 106.961 18.7718 106.882C18.6928 106.803 18.5859 106.757 18.474 106.756C18.3622 106.754 18.2541 106.797 18.173 106.874C17.3416 107.674 16.525 108.491 15.723 109.325C15.6489 109.406 15.609 109.513 15.6116 109.623C15.6143 109.734 15.6592 109.838 15.7372 109.916C15.8151 109.994 15.92 110.039 16.0302 110.042C16.1404 110.045 16.2474 110.005 16.329 109.931V109.931Z"></path><path fill="#000000" d="M71.7549 79.0006L74.2039 76.7006C74.6039 76.3226 74.0039 75.7166 73.5979 76.0936L71.1479 78.3936C70.7449 78.7736 71.3519 79.3796 71.7549 79.0006Z"></path><path fill="#000000" d="M51.633 81.0931C51.6654 81.2013 51.7382 81.2929 51.8364 81.3487C51.9345 81.4046 52.0504 81.4205 52.16 81.3931C52.2696 81.363 52.3628 81.2905 52.4191 81.1917C52.4753 81.0929 52.49 80.9758 52.46 80.8661C51.126 77.5491 49.1266 74.5406 46.585 72.0261C46.192 71.6381 45.585 72.2441 45.979 72.6321C48.4206 75.0376 50.3447 77.9169 51.633 81.0931V81.0931Z"></path><path fill="#000000" d="M49.905 159.343C46.8885 160.087 44.0151 161.323 41.4 163C40.937 163.3 41.367 164.039 41.833 163.74C44.3866 162.103 47.1925 160.899 50.138 160.174C50.669 160.038 50.442 159.211 49.905 159.343Z"></path><path fill="#000000" d="M19.176 127.586C19.0674 127.59 18.9643 127.634 18.8874 127.711C18.8106 127.788 18.7657 127.891 18.762 127.999V130.347C18.7673 130.457 18.8147 130.561 18.8945 130.637C18.9743 130.713 19.0803 130.756 19.1905 130.756C19.3007 130.756 19.4066 130.713 19.4864 130.637C19.5662 130.561 19.6136 130.457 19.619 130.347V128C19.6172 127.944 19.6043 127.889 19.581 127.837C19.5577 127.786 19.5246 127.74 19.4834 127.701C19.4423 127.663 19.3939 127.633 19.3412 127.613C19.2884 127.593 19.2323 127.584 19.176 127.586V127.586Z"></path><path fill="#000000" d="M25.045 127.33C24.9363 127.334 24.833 127.379 24.7561 127.455C24.6792 127.532 24.6345 127.636 24.631 127.744V130.194C24.6363 130.304 24.6838 130.408 24.7635 130.484C24.8433 130.56 24.9493 130.603 25.0595 130.603C25.1697 130.603 25.2756 130.56 25.3554 130.484C25.4352 130.408 25.4827 130.304 25.488 130.194V127.744C25.4838 127.631 25.4349 127.523 25.3519 127.446C25.2689 127.368 25.1585 127.327 25.045 127.33V127.33Z"></path><path fill="#000000" d="M75.531 37.95C75.919 38.343 76.526 37.736 76.137 37.343C75.6621 36.8643 75.2354 36.3401 74.863 35.778C74.563 35.32 73.818 35.748 74.123 36.211C74.5345 36.8352 75.0061 37.4176 75.531 37.95V37.95Z"></path><path fill="#000000" d="M81.587 37.9469C81.887 38.4049 82.633 37.9759 82.327 37.5139C81.827 36.7531 81.2363 36.056 80.568 35.4379C80.163 35.0639 79.555 35.6689 79.962 36.0439C80.5785 36.6103 81.1241 37.2493 81.587 37.9469V37.9469Z"></path><path fill="#000000" d="M76.229 17.4542V27.8662C76.2343 27.9763 76.2818 28.0801 76.3616 28.1561C76.4413 28.2321 76.5473 28.2745 76.6575 28.2745C76.7677 28.2745 76.8737 28.2321 76.9534 28.1561C77.0332 28.0801 77.0807 27.9763 77.086 27.8662V17.4542C77.0807 17.3441 77.0332 17.2403 76.9534 17.1643C76.8737 17.0883 76.7677 17.0459 76.6575 17.0459C76.5473 17.0459 76.4413 17.0883 76.3616 17.1643C76.2818 17.2403 76.2343 17.3441 76.229 17.4542Z"></path><path fill="#000000" d="M70.23 23.7001C70.1557 23.7796 70.1144 23.8843 70.1144 23.9931C70.1144 24.1019 70.1557 24.2066 70.23 24.2861L73.905 27.9611C73.9866 28.0352 74.0936 28.0751 74.2038 28.0724C74.314 28.0698 74.4189 28.0248 74.4968 27.9469C74.5748 27.869 74.6197 27.764 74.6224 27.6538C74.625 27.5436 74.5851 27.4367 74.511 27.3551L70.836 23.6801C70.753 23.6024 70.6425 23.5609 70.5289 23.5647C70.4153 23.5684 70.3078 23.6171 70.23 23.7001V23.7001Z"></path><path fill="#000000" d="M82.274 23.8878L78.6 27.5628C78.5259 27.6444 78.486 27.7513 78.4886 27.8615C78.4913 27.9717 78.5362 28.0767 78.6142 28.1546C78.6921 28.2325 78.7971 28.2775 78.9072 28.2801C79.0174 28.2828 79.1244 28.2429 79.206 28.1688L82.881 24.4938C82.958 24.4126 83.0002 24.3046 82.9987 24.1927C82.9972 24.0808 82.952 23.974 82.8728 23.8949C82.7937 23.8159 82.6868 23.7709 82.5749 23.7696C82.463 23.7682 82.355 23.8107 82.274 23.8878V23.8878Z"></path></g></svg>