<svg width="3000" height="3000" viewBox="0 0 3000 3000" fill="none" xmlns="http://www.w3.org/2000/svg">
<g clip-path="url(#clip0_1393_1375)">
<path d="M3256.6 3112.5H-257V899.835C-9.29333 1032.34 48.3067 1222.45 -84.2 1470.15C-98.4 1340.75 -40.8 1268.95 88.6 1254.75C166.347 1140.5 262.347 1122.25 376.6 1199.99C461.56 1169.75 519.16 1197.11 549.4 1282.07C564.173 1181.65 621.773 1138.82 722.2 1153.58C775.673 1091.86 833.273 1087.74 895 1141.21C1002.9 1133.91 1060.5 1184.2 1067.8 1292.1C1121.02 1153.33 1217.02 1110.55 1355.8 1163.77C1391.57 1084.35 1449.17 1062.52 1528.6 1098.28C1666.84 1044.53 1762.84 1086.77 1816.6 1225.01C1853.22 1069.64 1949.22 1010.26 2104.6 1046.88C2108.19 935.272 2165.79 881.262 2277.4 884.855C2325.37 817.622 2382.97 807.992 2450.2 855.965C2527.57 818.125 2585.17 837.888 2623 915.255C2856.33 956.582 2952.33 1093.91 2911 1327.23C2896.35 1197.38 2953.95 1125.13 3083.8 1110.48C3090.85 1002.32 3148.45 951.768 3256.6 958.815V3112.5Z" fill="#ADE8F4"/>
</g>
<defs>
<clipPath id="clip0_1393_1375">
<rect width="3000" height="3000" fill="white"/>
</clipPath>
</defs>
</svg>
