<svg width="3000" height="3000" viewBox="0 0 3000 3000" fill="none" xmlns="http://www.w3.org/2000/svg">
<g clip-path="url(#clip0_1393_1373)">
<path d="M3228 3405H-228V2071.32C-53.5867 2053.73 42.4133 2132.14 60 2306.55C151.9 2283.25 209.5 2317.55 232.8 2409.44C258.66 2243.3 354.66 2173.16 520.8 2199.03C500.047 2063.08 557.647 1984.72 693.6 1963.96C701.2 1856.36 758.8 1806.36 866.4 1813.97C917.22 1749.59 974.82 1742.81 1039.2 1793.63C1143.29 1782.52 1200.89 1829 1212 1933.09C1460.59 1989.68 1556.59 2142.28 1500 2390.87C1430.44 2129.31 1500 1894.19 1788 1894.19C2040.5 1963.96 2075.31 2180.82 1960.8 2410.53C1894.18 2151.92 1990.18 1989.3 2248.8 1922.68C2267.59 1826.28 2325.19 1787.48 2421.6 1806.27C2484.63 1754.1 2542.23 1759.52 2594.4 1822.55C2711.97 1824.92 2769.57 1884.88 2767.2 2002.44C2829.05 1949.09 2886.65 1953.33 2940 2015.18C2987.65 1870.83 3083.65 1822.47 3228 1870.12V3405Z" fill="#90E0EF"/>
</g>
<defs>
<clipPath id="clip0_1393_1373">
<rect width="3000" height="3000" fill="white"/>
</clipPath>
</defs>
</svg>
