<svg width="1170" height="2532" viewBox="0 0 1170 2532" fill="none" xmlns="http://www.w3.org/2000/svg">
<g clip-path="url(#clip0_1370_1783)">
<path d="M3513.6 2234H-0.000352621V973.21C-14.7937 843.217 42.8063 770.823 172.8 756.03C171.16 639.183 228.76 579.94 345.6 578.3C367.8 485.3 425.4 449.9 518.4 472.1C692.88 531.38 750.48 648.26 691.2 822.74C819.453 835.793 877.053 906.447 864 1034.7C798.406 853.907 856.006 730.717 1036.8 665.13C1059.98 573.117 1117.58 538.7 1209.6 561.88C1316.79 477.067 1412.79 488.253 1497.6 595.44C1554.43 460.273 1650.43 421.107 1785.6 477.94C1906.68 407.027 2002.68 432.11 2073.6 553.19C2213.25 500.837 2309.25 544.487 2361.6 684.14C2539.51 746.853 2597.11 867.167 2534.4 1045.08C2509.23 904.713 2566.83 821.947 2707.2 796.78C2722.45 696.827 2780.05 654.477 2880 669.73C2944.28 618.81 3001.88 625.49 3052.8 689.77C3189.86 634.83 3285.86 675.887 3340.8 812.94C3373.34 730.28 3430.94 705.22 3513.6 737.76V2234Z" fill="#CAF0F8"/>
<path d="M3513.6 2234H0V940.26C247.707 1072.77 305.307 1262.87 172.8 1510.58C158.6 1381.18 216.2 1309.38 345.6 1295.18C423.347 1180.93 519.347 1162.67 633.6 1240.42C718.56 1210.18 776.16 1237.54 806.4 1322.5C821.173 1222.07 878.773 1179.24 979.2 1194.01C1032.67 1132.29 1090.27 1128.17 1152 1181.64C1259.9 1174.33 1317.5 1224.63 1324.8 1332.53C1378.02 1193.76 1474.02 1150.98 1612.8 1204.2C1648.57 1124.77 1706.17 1102.94 1785.6 1138.71C1923.84 1084.96 2019.84 1127.2 2073.6 1265.44C2110.22 1110.07 2206.22 1050.69 2361.6 1087.31C2365.19 975.696 2422.79 921.686 2534.4 925.28C2582.37 858.046 2639.97 848.416 2707.2 896.39C2784.57 858.55 2842.17 878.313 2880 955.68C3113.33 997.006 3209.33 1134.33 3168 1367.66C3153.35 1237.81 3210.95 1165.56 3340.8 1150.91C3347.85 1042.75 3405.45 992.193 3513.6 999.24V2234Z" fill="#ADE8F4"/>
<path d="M3456 2234H0V1625.29C174.413 1607.7 270.413 1686.11 288 1860.52C379.9 1837.22 437.5 1871.52 460.8 1963.41C486.66 1797.27 582.66 1727.13 748.8 1753C728.047 1617.05 785.647 1538.69 921.6 1517.93C929.2 1410.33 986.8 1360.33 1094.4 1367.94C1145.22 1303.56 1202.82 1296.78 1267.2 1347.6C1371.29 1336.49 1428.89 1382.97 1440 1487.06C1688.59 1543.65 1784.59 1696.25 1728 1944.84C1658.44 1683.28 1728 1448.16 2016 1448.16C2268.5 1517.93 2303.31 1734.79 2188.8 1964.5C2122.18 1705.89 2218.18 1543.27 2476.8 1476.65C2495.59 1380.25 2553.19 1341.45 2649.6 1360.24C2712.63 1308.07 2770.23 1313.49 2822.4 1376.52C2939.97 1378.89 2997.57 1438.85 2995.2 1556.41C3057.05 1503.06 3114.65 1507.3 3168 1569.15C3215.65 1424.8 3311.65 1376.44 3456 1424.09V2234Z" fill="#90E0EF"/>
<path d="M2735.6 2729.66H-778V2381.31C-679.52 2287.79 -583.52 2290.27 -490 2388.75C-443.673 2243.08 -347.673 2193.4 -202 2239.73C-203.267 2123.26 -145.667 2064.39 -29.2 2063.12C25.78 1926.1 121.78 1885.08 258.8 1940.07C400.213 1889.48 496.213 1934.9 546.8 2076.31C693.34 2030.85 789.34 2081.39 834.8 2227.93C857.187 2058.32 953.187 1984.71 1122.8 2007.1C1194.06 1886.35 1290.06 1861.61 1410.8 1932.87C1491.85 1821.92 1587.85 1806.98 1698.8 1888.03C1805.36 1802.59 1901.36 1813.15 1986.8 1919.71C2183.04 1923.95 2279.04 2024.19 2274.8 2220.42C2384.03 2137.65 2480.03 2150.87 2562.8 2260.09C2661.14 2243.23 2718.74 2283.97 2735.6 2382.31V2729.66Z" fill="#48CAE4"/>
</g>
<defs>
<clipPath id="clip0_1370_1783">
<rect width="1170" height="2532" fill="white"/>
</clipPath>
</defs>
</svg>
