<svg xmlns="http://www.w3.org/2000/svg" fill="none" viewBox="0 0 200 200" height="400" width="400"><g id="team-coding-1--development-team-coding-1"><g id="color"><g id="group"><path id="vector" fill="#d5e04f" d="M103.593 17.7C103.142 17.5517 102.653 17.5688 102.213 17.7481C101.773 17.9275 101.412 18.2575 101.193 18.679L75.4569 68.335C75.1829 68.863 77.7569 66.519 32.1219 106.161C31.8761 106.375 31.686 106.645 31.5684 106.949C31.4508 107.252 31.4091 107.58 31.4469 107.903C31.4847 108.227 31.601 108.536 31.7856 108.805C31.9701 109.073 32.2174 109.292 32.5059 109.443L112.321 151.2C112.675 151.385 113.075 151.46 113.472 151.415C113.868 151.37 114.242 151.208 114.546 150.949C165.119 107.796 162.046 110.528 162.324 109.987L193.5 49.755C193.633 49.498 193.709 49.215 193.722 48.9259C193.735 48.6367 193.685 48.3481 193.576 48.0801C193.466 47.812 193.3 47.5709 193.088 47.3734C192.877 47.1759 192.625 47.0266 192.35 46.936L103.593 17.7Z"></path><path id="vector_2" fill="#000000" d="M47.6669 161.208C40.8429 161.608 33.5669 161.291 27.2609 158.59C17.4609 154.436 9.46094 145.071 5.73294 135.139C5.57194 134.711 4.82394 134.871 5.03794 135.352C8.75694 145.113 16.2869 154.303 25.8539 158.765C24.1149 161.978 22.1539 165.541 20.4769 168.74C20.2629 169.167 20.9039 169.54 21.1179 169.114C22.8599 165.892 24.8369 162.302 26.5329 159.073C29.3259 160.283 32.2641 161.127 35.2739 161.581C39.4017 162.097 43.5675 162.24 47.7209 162.009C48.1479 161.955 48.1479 161.208 47.6669 161.208Z"></path><path id="vector_3" fill="#ffaaaa" d="M104.4 165.962C103.846 166.073 86.5149 167.917 85.0609 168.099C84.9787 168.098 84.8987 168.072 84.8318 168.025C84.7649 167.977 84.7143 167.91 84.6869 167.832C84.0479 163.993 82.33 153.646 81.055 149.776C79.229 144.234 73.811 139.018 68.555 137.169C66.3326 138.422 63.9869 139.443 61.555 140.214C58.403 141.264 52.627 142.671 52.527 142.671C48.2763 144.97 44.4027 147.906 41.041 151.378C40.299 152.178 38.028 154.754 37.841 155.011C37.27 155.582 37.2049 155.866 36.7729 155.866C41.4442 156.69 46.1879 157.03 50.929 156.881C56.748 156.797 63.6289 155.819 69.6289 159.819C74.5149 163.201 76.8889 169.309 78.3369 175.097C78.3642 175.174 78.4146 175.242 78.4814 175.289C78.5481 175.337 78.6279 175.363 78.7099 175.364H106.398C106.245 172.143 105.57 168.967 104.4 165.962V165.962Z"></path><path id="vector_4" fill="#ffd7d7" d="M108.6 149.255C108.6 149.255 75.6439 131.8 75.4459 131.666C75.2459 131.866 73.0229 133.832 72.6149 134.177C71.4072 135.32 70.0611 136.307 68.6079 137.115C71.4427 138.193 74.0118 139.869 76.1399 142.03C80.3779 146.214 81.1599 149.507 81.9629 153.03C83.1159 158.091 83.8209 162.024 84.7409 167.774C84.7409 167.935 84.9549 168.041 85.1149 168.041C85.2149 168.029 109.965 165.317 110.222 165.317C110.271 165.318 110.321 165.309 110.366 165.291C110.412 165.273 110.454 165.245 110.489 165.21C110.524 165.175 110.552 165.134 110.57 165.088C110.588 165.042 110.597 164.992 110.596 164.943C109.994 156.811 108.6 149.255 108.6 149.255Z"></path><path id="vector_5" fill="#ffaaaa" d="M100.927 113.717C100.66 113.512 100.374 113.333 100.072 113.183C100.759 113.005 101.347 112.562 101.708 111.951C102.07 111.341 102.174 110.612 102 109.924C101.549 108.293 99.685 107.965 97.993 107.894C100.293 106.408 100.304 104.521 98.634 103.194C97.112 101.984 94.841 102.551 93.078 102.82C88.7768 103.477 84.565 104.624 80.525 106.239C81.1991 104.938 81.7033 103.556 82.025 102.126C82.556 98.1371 78.682 97.1541 76.525 99.8821C75.015 101.791 73.794 105.971 72.893 108.269C72.7808 108.527 72.6915 108.795 72.626 109.069C70.275 110.19 67.978 111.369 65.734 112.648C65.521 112.755 65.521 113.022 65.681 113.235C70.081 118.335 73.941 123.792 77.647 128.887C77.6737 128.938 77.7117 128.982 77.7582 129.017C77.8046 129.051 77.8582 129.074 77.9149 129.084C77.9715 129.094 78.0298 129.092 78.0853 129.076C78.1408 129.06 78.192 129.032 78.235 128.994C88.122 118.824 89.357 117.494 95.703 117.829C96.9291 117.996 98.1745 117.961 99.389 117.723C99.8634 117.629 100.307 117.419 100.68 117.111C101.053 116.804 101.344 116.408 101.526 115.96C101.659 115.618 101.704 115.248 101.657 114.884C101.611 114.52 101.474 114.174 101.259 113.876C101.195 113.88 101.131 113.867 101.072 113.839C101.014 113.812 100.964 113.77 100.927 113.717V113.717ZM89.5 108C91.296 107.854 93.0984 107.801 94.9 107.84C94.9992 107.84 95.0943 107.879 95.1644 107.95C95.2346 108.02 95.274 108.115 95.274 108.214C95.274 108.313 95.2346 108.408 95.1644 108.479C95.0943 108.549 94.9992 108.588 94.9 108.588C93.0984 108.547 91.2959 108.6 89.5 108.748C89.4008 108.748 89.3057 108.709 89.2355 108.639C89.1654 108.568 89.126 108.473 89.126 108.374C89.126 108.275 89.1654 108.18 89.2355 108.11C89.3057 108.039 89.4008 108 89.5 108V108ZM90.088 112.755C91.8814 112.592 93.683 112.539 95.483 112.594C95.5822 112.594 95.6773 112.633 95.7474 112.704C95.8176 112.774 95.857 112.869 95.857 112.968C95.857 113.067 95.8176 113.162 95.7474 113.233C95.6773 113.303 95.5822 113.342 95.483 113.342C93.6831 113.293 91.8818 113.346 90.088 113.502C89.6 113.552 89.655 112.8 90.083 112.756L90.088 112.755Z"></path><path id="vector_6" fill="#ffaaaa" d="M90.0829 112.756C89.6019 112.804 89.6019 113.556 90.0829 113.503C91.8767 113.347 93.678 113.294 95.4779 113.343C95.5771 113.343 95.6722 113.304 95.7424 113.234C95.8125 113.163 95.8519 113.068 95.8519 112.969C95.8519 112.87 95.8125 112.775 95.7424 112.705C95.6722 112.634 95.5771 112.595 95.4779 112.595C93.678 112.546 91.8767 112.6 90.0829 112.756V112.756Z"></path><path id="vector_7" fill="#ffaaaa" d="M89.5 108.749C91.296 108.603 93.0984 108.55 94.9 108.589C94.9992 108.589 95.0943 108.55 95.1644 108.479C95.2346 108.409 95.274 108.314 95.274 108.215C95.274 108.116 95.2346 108.021 95.1644 107.951C95.0943 107.88 94.9992 107.841 94.9 107.841C93.0984 107.8 91.2959 107.853 89.5 108.001C89.4008 108.001 89.3057 108.04 89.2355 108.111C89.1654 108.181 89.126 108.276 89.126 108.375C89.126 108.474 89.1654 108.569 89.2355 108.639C89.3057 108.71 89.4008 108.749 89.5 108.749Z"></path><path id="vector_8" fill="#ffd7d7" d="M77.5289 129C76.8939 128.069 70.3409 118.885 65.5629 113.348C65.5226 113.308 65.4915 113.261 65.4721 113.208C65.4526 113.155 65.4452 113.098 65.4504 113.042C65.4555 112.985 65.4732 112.931 65.502 112.883C65.5308 112.834 65.57 112.792 65.6169 112.761C62.9459 114.31 60.3809 115.961 57.8169 117.729C56.1169 112.954 53.4859 106.051 50.5519 101.649C49.0761 99.2753 46.9417 97.3821 44.4089 96.2C44.3089 96.16 41.4669 94.758 40.5089 94.758C40.6159 94.811 40.6689 94.865 40.7759 94.918C41.6849 95.745 43.3539 97.451 43.4469 98.711C43.4741 99.034 43.3796 99.3555 43.1821 99.6124C42.9845 99.8694 42.6981 100.043 42.3789 100.1C41.2208 99.9463 40.1578 99.3778 39.3869 98.5C38.0094 97.0717 36.2764 96.0362 34.3659 95.5C33.7199 95.277 33.0593 95.0986 32.3889 94.966C32.3061 94.9477 32.2327 94.9 32.1821 94.8319C32.1316 94.7637 32.1074 94.6796 32.114 94.595C32.1206 94.5105 32.1575 94.4311 32.2179 94.3716C32.2783 94.312 32.3582 94.2763 32.4429 94.271C31.8854 94.3214 31.332 94.4106 30.7869 94.538C25.3095 95.7067 20.2947 98.4554 16.3629 102.444C11.1729 107.793 8.67491 116.228 9.15091 123.599C9.71343 130.506 12.1721 137.124 16.2559 142.723C20.2779 148.337 24.6899 152.144 31.0559 154.423C32.9449 155.117 34.8938 155.635 36.8779 155.972C37.5119 155.972 37.0719 156.14 41.2589 151.485C45.9969 146.218 52.6459 142.876 52.8509 142.671C52.9509 142.671 59.5929 141.677 69.7849 136.581C72.399 134.672 74.8473 132.545 77.1039 130.224C77.4779 129.85 77.8519 129.424 78.2259 129.049C78.1774 129.092 78.1206 129.126 78.0589 129.147C77.9973 129.168 77.932 129.176 77.8671 129.172C77.8021 129.167 77.7386 129.15 77.6806 129.12C77.6225 129.091 77.5709 129.05 77.5289 129V129Z"></path><path id="vector_9" fill="#ffaaaa" d="M49.537 141.763C44.1925 141.202 39.0986 139.209 34.793 135.993C29.487 132.203 25.463 126.393 21.118 120.341C20.85 119.968 20.207 120.341 20.477 120.715C23.1772 124.669 26.1209 128.452 29.291 132.04C34.6047 137.814 41.8014 141.507 49.591 142.457C50.019 142.5 50.018 141.763 49.537 141.763Z"></path><path id="vector_10" fill="#ffaaaa" d="M38 106.666C37.68 106.345 37.144 106.88 37.466 107.2C42.3948 112.119 46.9646 117.386 51.14 122.959C51.605 123.566 51.714 122.759 56.108 119.54C56.479 119.268 56.108 118.629 55.734 118.899C54.282 119.955 52.903 121.089 51.567 122.211C47.4376 116.699 42.9026 111.503 38 106.666V106.666Z"></path><path id="vector_11" fill="#ffaaaa" d="M54.5589 138.771H50.8729C50.7737 138.771 50.6786 138.81 50.6084 138.881C50.5383 138.951 50.4989 139.046 50.4989 139.145C50.4989 139.244 50.5383 139.339 50.6084 139.409C50.6786 139.48 50.7737 139.519 50.8729 139.519H54.5589C54.6581 139.519 54.7532 139.48 54.8234 139.409C54.8935 139.339 54.9329 139.244 54.9329 139.145C54.9329 139.046 54.8935 138.951 54.8234 138.881C54.7532 138.81 54.6581 138.771 54.5589 138.771Z"></path><path id="vector_12" fill="#000000" d="M111.611 181.774C103.781 178.153 94.9752 177.213 86.5569 179.1C84.2315 179.717 81.9895 180.614 79.8799 181.771C79.8131 181.817 79.7627 181.883 79.736 181.96C79.7093 182.036 79.7077 182.119 79.7314 182.197C79.7552 182.274 79.8031 182.342 79.8681 182.391C79.9331 182.439 80.0119 182.465 80.0929 182.466H111.5C111.948 182.469 111.884 181.956 111.611 181.774Z"></path><path id="vector_13" fill="#000000" d="M113.374 180.011C111.226 176.36 106.103 173.368 105.041 173.011C99.1593 170.084 92.519 169.04 86.0229 170.02C85.6499 170.082 85.7029 170.605 86.0229 170.714C87.4229 171.194 112.754 180.49 112.947 180.49C113.011 180.503 113.077 180.5 113.139 180.479C113.2 180.459 113.256 180.423 113.299 180.374C113.342 180.326 113.372 180.266 113.385 180.203C113.398 180.139 113.395 180.073 113.374 180.011V180.011Z"></path><path id="vector_14" fill="#000000" d="M40.028 75.1481C39.6827 75.3175 39.3741 75.5534 39.12 75.8421C37.3805 77.5204 35.8066 79.3622 34.42 81.3421C34.42 81.4721 34.311 81.606 34.474 81.769C34.4988 81.8182 34.5371 81.8593 34.5844 81.8876C34.6316 81.9159 34.6859 81.9303 34.741 81.929C36.877 81.638 39.676 80.5871 40.941 78.9381C42.842 76.7631 41.408 74.4581 40.028 75.1481Z"></path><path id="vector_15" fill="#ffaaaa" d="M37.2 83.535C36.6258 83.323 35.9987 83.3007 35.4108 83.4714C34.823 83.6421 34.3053 83.9967 33.9339 84.4833C33.5625 84.9698 33.3568 85.5627 33.3472 86.1747C33.3375 86.7868 33.5243 87.3858 33.8802 87.8838C34.2361 88.3819 34.7423 88.7527 35.3244 88.9418C35.9066 89.131 36.5341 89.1285 37.1147 88.9347C37.6954 88.741 38.1986 88.3662 38.5505 87.8653C38.9024 87.3645 39.0845 86.764 39.07 86.152C39.0601 85.5777 38.876 85.02 38.5421 84.5527C38.2081 84.0853 37.7401 83.7305 37.2 83.535V83.535Z"></path><path id="vector_16" fill="#ffaaaa" d="M42.5389 96.783C40.3629 94.271 40.9559 94.923 38.2649 94.326C36.2995 94.0596 34.3097 94.0237 32.3359 94.219C32.0149 94.326 31.8549 94.86 32.2819 94.913C32.3639 94.94 33.2229 95.1191 33.9379 95.3411C38.1469 96.6411 38.5089 97.97 40.1889 99.187C40.7718 99.7318 41.5282 100.053 42.3249 100.095C42.6491 100.049 42.9423 99.8776 43.1421 99.6181C43.3418 99.3586 43.4322 99.0313 43.3939 98.706C43.3926 98.3437 43.3159 97.9857 43.1687 97.6546C43.0215 97.3236 42.807 97.0268 42.5389 96.783V96.783Z"></path><path id="vector_17" fill="#c4aff9" d="M144.839 129.156V128.888C132.323 133.609 121.084 143.022 118.77 156.293C118.16 160.028 118.342 163.85 119.304 167.511C119.332 167.603 119.395 167.681 119.481 167.726C119.566 167.772 119.665 167.782 119.758 167.754C119.85 167.726 119.927 167.662 119.973 167.577C120.018 167.492 120.028 167.392 120 167.3C116.26 155.164 123.374 137.723 145.214 129.532C145.164 129.535 145.114 129.527 145.067 129.509C145.02 129.491 144.978 129.463 144.942 129.428C144.907 129.392 144.879 129.35 144.862 129.303C144.844 129.256 144.836 129.206 144.839 129.156V129.156Z"></path><path id="vector_18" fill="#c4aff9" d="M181.966 138.344C181.12 141.012 179.718 143.469 177.852 145.555C175.101 148.229 170.398 150.107 166.634 151.111C165.259 151.478 164.483 151.654 164.034 151.757C163.362 151.912 163.434 151.901 163.32 152.126C162.893 153.889 159.572 166.975 159.42 167.618C159.307 168.097 160.009 168.259 160.115 167.832C160.548 166.07 163.801 153.141 163.961 152.554C166.753 151.998 169.476 151.138 172.081 149.989C175.668 148.423 178.156 146.841 180.094 143.789C183.028 139.174 183.414 136.211 183.513 130.701C183.277 130.896 183.027 131.075 182.765 131.235C182.846 133.631 182.577 136.026 181.966 138.344V138.344Z"></path><path id="vector_19" fill="#c4aff9" d="M154.721 134.6C146.197 137.474 138.521 145.738 136.291 158.052C135.748 161.263 135.533 164.52 135.65 167.774C135.65 167.873 135.689 167.968 135.759 168.038C135.83 168.109 135.925 168.148 136.024 168.148C136.123 168.148 136.218 168.109 136.288 168.038C136.358 167.968 136.398 167.873 136.398 167.774C136.186 156.624 139.047 146.316 147.83 139.301C149.973 137.585 152.394 136.249 154.988 135.348C155.416 135.139 155.2 134.442 154.721 134.6Z"></path><path id="vector_20" fill="#c4aff9" d="M148.364 143.365C147.037 144.439 145.853 145.678 144.839 147.051C144.569 147.424 145.212 147.799 145.48 147.425C146.432 146.099 147.564 144.912 148.845 143.899C149.265 143.569 148.744 143.051 148.364 143.365Z"></path><path id="vector_21" fill="#c4aff9" d="M131.857 139.946C130.394 141.128 129.052 142.452 127.851 143.899C127.538 144.28 128.073 144.814 128.385 144.434C129.586 142.987 130.928 141.662 132.392 140.481C132.772 140.168 132.238 139.634 131.857 139.946Z"></path><path id="vector_22" fill="#ffaaaa" d="M135.33 103.781C129.798 103.781 122.23 103.416 117.167 105.864C109.592 109.525 107.2 116.425 109.207 120.822C110.391 123.416 113.053 123.281 113.962 121.463C114.562 123.276 116.686 123.28 117.915 122.051C117.915 123.338 117.956 125.613 118.663 126.698C119.396 127.824 121.363 127.974 122.616 126.324C123.941 124.58 123.977 122.056 124.325 118.578C125.172 119.742 126.297 121.578 127.958 122.371C130.558 123.609 133.985 121.654 132.819 118.739C134.147 119.023 134.919 119.262 135.279 119.272C135.595 119.28 135.609 119.094 135.62 118.994C135.693 118.367 135.65 115.743 135.65 104.155C135.638 104.069 135.601 103.988 135.544 103.921C135.488 103.855 135.413 103.806 135.33 103.781V103.781Z"></path><path id="vector_23" fill="#ffaaaa" d="M112.466 114.144C112.311 113.715 111.609 113.878 111.771 114.358C112.298 115.91 112.84 117.403 113.321 118.952C113.481 119.38 114.18 119.218 114.015 118.739C113.5 117.237 113.021 115.686 112.466 114.144Z"></path><path id="vector_24" fill="#ffaaaa" d="M118.556 114.305C118.396 115.747 118.209 117.186 118.022 118.632C117.959 119.111 118.716 119.113 118.77 118.632C118.93 117.189 119.116 115.751 119.304 114.305C119.366 113.825 118.609 113.824 118.556 114.305Z"></path><path id="vector_25" fill="#ffaaaa" d="M127.424 112.488C127.055 112.162 126.524 112.697 126.889 113.023C128.281 114.285 129.584 115.641 130.789 117.083C131.053 117.459 131.696 117.083 131.43 116.709C130.206 115.2 128.867 113.789 127.424 112.488V112.488Z"></path><path id="vector_26" fill="#000000" d="M189.07 129.156C189.065 129.06 189.023 128.97 188.954 128.904C188.884 128.838 188.792 128.801 188.696 128.801C188.601 128.801 188.508 128.838 188.439 128.904C188.369 128.97 188.328 129.06 188.323 129.156C188.323 130.656 188.323 132.094 188.269 133.536C187.578 146.318 179.469 153.418 167.008 156.186C166.96 156.198 166.916 156.22 166.877 156.25C166.838 156.28 166.805 156.318 166.781 156.361C166.757 156.404 166.742 156.451 166.737 156.5C166.731 156.549 166.736 156.599 166.751 156.646C166.765 156.693 166.789 156.736 166.821 156.774C166.853 156.812 166.892 156.842 166.936 156.864C166.98 156.886 167.028 156.899 167.077 156.902C167.126 156.905 167.176 156.898 167.222 156.881C171.521 156.001 175.613 154.31 179.28 151.9C179.68 152.9 185.491 167.14 185.758 167.835C185.919 168.262 186.658 168.106 186.453 167.621C185.67 165.766 180.073 151.903 179.889 151.466C185.777 147.145 188.459 141.303 189.017 134.233C189.124 132.684 189.124 131.082 189.124 129.533C189.075 129.414 189.056 129.284 189.07 129.156Z"></path><path id="vector_27" fill="#000000" d="M174.914 80.436C173.827 77.076 172.573 72.757 170.373 70.019C166.84 65.619 161.622 66.907 161.025 70.233C160.91 70.873 160.971 71.462 160.865 72.103C160.677 73.975 159.037 78.603 157.659 80.276C157.612 80.3305 157.581 80.3971 157.569 80.4683C157.558 80.5395 157.566 80.6125 157.594 80.6791C157.622 80.7457 157.668 80.8032 157.726 80.8452C157.785 80.8872 157.854 80.9121 157.926 80.917H174.487C174.807 80.864 175.021 80.65 174.914 80.436ZM165.779 75.736C165.233 75.8397 164.669 75.7722 164.163 75.5427C163.657 75.3131 163.235 74.9328 162.954 74.4539C162.673 73.9749 162.546 73.4207 162.592 72.8673C162.638 72.3138 162.854 71.788 163.211 71.3621C163.567 70.9361 164.047 70.6308 164.583 70.488C165.12 70.3451 165.688 70.3717 166.209 70.5641C166.73 70.7565 167.179 71.1052 167.494 71.5626C167.809 72.02 167.975 72.5636 167.969 73.119C167.954 73.7385 167.729 74.3345 167.331 74.8096C166.933 75.2848 166.386 75.611 165.779 75.735V75.736Z"></path><path id="vector_28" fill="#ffaaaa" d="M166.153 70.5001C165.632 70.314 165.067 70.2909 164.533 70.4338C163.998 70.5767 163.52 70.8789 163.162 71.3001C162.796 71.7385 162.579 72.2821 162.542 72.8523C162.505 73.4224 162.652 73.9893 162.959 74.4708C163.266 74.9524 163.719 75.3235 164.251 75.5305C164.784 75.7374 165.368 75.7694 165.92 75.6218C166.472 75.4742 166.963 75.1546 167.321 74.7095C167.679 74.2644 167.886 73.7168 167.912 73.1461C167.938 72.5754 167.781 72.0113 167.465 71.5355C167.149 71.0598 166.689 70.6971 166.153 70.5001V70.5001Z"></path><path id="vector_29" fill="#c0c195" d="M190.139 111.634C189.855 104.592 188.399 97.2151 183.889 91.7611C181.551 88.9388 178.427 86.8751 174.914 85.8321C173.102 85.294 171.241 84.936 169.358 84.7631C169.418 84.7673 169.476 84.7871 169.527 84.8206C169.577 84.8542 169.617 84.9002 169.644 84.9543C169.671 85.0083 169.684 85.0684 169.68 85.1287C169.677 85.189 169.658 85.2474 169.625 85.2981C168.807 86.9551 167.574 88.3721 166.046 89.4111C165.702 89.6331 165.313 89.7769 164.906 89.8322C164.5 89.8875 164.087 89.8529 163.696 89.7311C162.845 89.4257 162.141 88.8102 161.725 88.0078C161.309 87.2054 161.211 86.2754 161.452 85.4041C161.462 85.3452 161.487 85.2899 161.525 85.2432C161.562 85.1966 161.611 85.1601 161.666 85.1371H161.612C151.171 87.2261 143.838 94.8721 141.9 103.837C138.911 103.91 135.937 103.784 135.33 103.784C135.543 103.784 135.65 103.944 135.65 104.158C135.65 115.758 135.697 118.372 135.62 118.997C135.589 119.254 135.42 119.261 135.32 119.297C138.528 120.009 141.781 120.503 145.056 120.777C145.143 123.574 145.089 126.373 144.896 129.164C144.895 129.213 144.904 129.263 144.922 129.308C144.941 129.354 144.968 129.396 145.003 129.431C145.038 129.465 145.08 129.493 145.126 129.511C145.171 129.529 145.221 129.538 145.27 129.537H160.6C171.92 138.867 187.742 133.381 189.82 120.296C190.21 117.426 190.317 114.525 190.139 111.634V111.634Z"></path><path id="vector_30" fill="#ffaaaa" d="M169.305 84.763C166.751 84.5576 164.181 84.7016 161.666 85.191H161.612C161.557 85.214 161.508 85.2506 161.471 85.2972C161.434 85.3439 161.409 85.3992 161.399 85.458C160.739 88.59 163.507 90.858 165.993 89.464C167.519 88.4225 168.751 87.0062 169.572 85.351C169.786 85.084 169.572 84.817 169.305 84.763Z"></path><path id="vector_31" fill="#6596e1" d="M181.111 129.156C181.966 128.621 182.874 128.087 183.728 127.556C183.813 127.506 183.875 127.425 183.9 127.33C183.925 127.235 183.911 127.134 183.861 127.049C183.812 126.964 183.73 126.902 183.635 126.877C183.54 126.852 183.439 126.865 183.354 126.915C182.5 127.449 181.592 127.983 180.737 128.515C180.31 128.728 180.683 129.369 181.111 129.156Z"></path><path id="vector_32" fill="#6596e1" d="M174.861 117.777C176.634 119.661 177.741 121.162 179.134 122.799C179.454 123.173 179.996 122.632 179.668 122.264C178.225 120.641 178.868 121.146 175.395 117.243C175.021 116.922 174.487 117.457 174.861 117.777Z"></path><path id="vector_33" fill="#6596e1" d="M145.266 119.7V107.574C145.266 107.475 145.227 107.38 145.156 107.31C145.086 107.239 144.991 107.2 144.892 107.2C144.793 107.2 144.698 107.239 144.627 107.31C144.557 107.38 144.518 107.475 144.518 107.574V119.7C144.518 119.914 144.678 120.021 144.892 120.074H144.945C145.052 120.021 145.266 119.914 145.266 119.7Z"></path><path id="vector_34" fill="#000000" d="M68.9819 23.6C66.1659 21.822 62.2899 23.238 61.0759 28.568C60.3559 31.727 60.5759 34.429 58.4049 37.65C56.8519 39.957 54.6659 42.03 52.9559 45.022C49.3749 51.287 51.8349 54.507 51.0329 58.964C50.6178 60.4996 50.0828 62.0002 49.4329 63.452C47.7659 68.269 52.1849 74.4 57.3359 74.4C57.516 74.4089 57.6963 74.3907 57.8709 74.346C57.7099 74.079 57.5469 73.867 57.3899 73.599C51.3629 63.307 52.0059 51.266 61.2899 41.867C63.7404 39.2796 66.8396 37.3962 70.2649 36.413C70.3719 36.146 70.4249 35.724 70.5319 35.513C71.2369 33.6163 71.7211 31.6446 71.9749 29.637C72.0599 28.4553 71.8272 27.2723 71.301 26.2108C70.7747 25.1492 69.974 24.2478 68.9819 23.6ZM67.0049 32.041C66.4535 32.0856 65.9006 31.9741 65.4095 31.7193C64.9184 31.4645 64.509 31.0766 64.2279 30.6C63.9646 30.0668 63.8899 29.46 64.0159 28.8788C64.142 28.2976 64.4614 27.7763 64.9219 27.4C66.9219 25.813 70.0709 26.974 69.7299 29.59C69.662 30.2641 69.345 30.8885 68.8411 31.3413C68.3371 31.794 67.6824 32.0425 67.0049 32.038V32.041Z"></path><path id="vector_35" fill="#ae877c" d="M64.922 27.39C64.4729 27.7746 64.1621 28.2955 64.0368 28.8733C63.9115 29.451 63.9786 30.0539 64.228 30.59C65.328 32.737 69.29 32.541 69.728 29.682V29.58C70.075 26.934 66.8 25.792 64.922 27.39Z"></path><path id="vector_36" fill="#c4aff9" d="M94.2999 73.4381C94.2999 73.4381 94.1369 73.0001 83.7809 57.0911C83.733 57.0173 83.712 56.9293 83.7215 56.8418C83.7309 56.7544 83.7703 56.6729 83.8329 56.6111C86.2316 54.1688 89.0095 52.1305 92.0589 50.5751C92.3339 50.4371 93.7109 49.8021 93.7689 49.7751C89.8339 42.9311 85.1329 37.0251 77.7999 35.8841C76.4755 35.6734 75.1309 35.6197 73.7939 35.7241C73.8697 35.7255 73.9427 35.7528 74.0008 35.8013C74.059 35.8499 74.0989 35.9168 74.1139 35.9911C74.3687 36.7553 74.5564 37.5403 74.6749 38.3371C74.9249 40.4261 73.8819 41.4571 71.0159 39.4101C70.2159 38.7691 69.4539 38.0881 68.7159 37.3801C68.4979 37.1701 68.6089 36.8991 68.8759 36.7921C61.9329 39.5431 54.3459 48.1451 53.6499 58.0531C53.441 62.1167 54.1216 66.1769 55.6441 69.9503C57.1666 73.7237 59.4944 77.1193 62.4649 79.9001C67.2199 84.6551 75.2519 87.6001 82.3369 86.4171C86.0059 85.8061 88.8489 84.0581 91.3649 80.3811C92.8068 78.2031 94.0069 75.8743 94.9439 73.4361C94.8369 73.7051 94.4629 73.6521 94.2999 73.4381Z"></path><path id="vector_37" fill="#c4aff9" d="M80.8999 82.4661H76.0329C75.9337 82.4661 75.8386 82.5055 75.7685 82.5756C75.6983 82.6457 75.6589 82.7409 75.6589 82.8401C75.6589 82.9392 75.6983 83.0344 75.7685 83.1045C75.8386 83.1747 75.9337 83.2141 76.0329 83.2141H80.8999C80.9991 83.2141 81.0943 83.1747 81.1644 83.1045C81.2345 83.0344 81.2739 82.9392 81.2739 82.8401C81.2739 82.7409 81.2345 82.6457 81.1644 82.5756C81.0943 82.5055 80.9991 82.4661 80.8999 82.4661V82.4661Z"></path><path id="vector_38" fill="#c4aff9" d="M78.4909 63.716C76.5539 59.18 73.1199 49.916 70.6379 45.716C70.4239 45.289 69.7379 45.658 69.9969 46.09C72.2999 49.94 75.9999 59.478 78.1699 64.784C78.2034 64.839 78.2504 64.8845 78.3066 64.9161C78.3627 64.9477 78.426 64.9643 78.4904 64.9643C78.5548 64.9643 78.6182 64.9477 78.6743 64.9161C78.7304 64.8845 78.7775 64.839 78.8109 64.784C80.1753 62.0958 81.9608 59.6431 84.0999 57.519C83.9929 57.359 83.9399 57.252 83.8329 57.092C83.7877 57.0266 83.7681 56.9468 83.7779 56.8679C83.7877 56.7889 83.8261 56.7164 83.8859 56.664C81.7176 58.707 79.8956 61.0887 78.4909 63.716V63.716Z"></path><path id="vector_39" fill="#ae877c" d="M74.1249 36.05C74.1077 35.9666 74.0596 35.8927 73.9902 35.8432C73.9209 35.7937 73.8354 35.7722 73.7509 35.783C72.2835 35.8896 70.8324 36.1579 69.4239 36.583C69.2201 36.6307 69.0227 36.7025 68.8359 36.797C68.6219 36.904 68.4619 37.224 68.6759 37.384C69.706 38.4587 70.8734 39.3927 72.1479 40.162C73.2829 40.811 74.5229 40.7 74.6749 39.253C74.6852 38.161 74.4989 37.076 74.1249 36.05V36.05Z"></path><path id="vector_40" fill="#ae877c" d="M111.611 57.786C111.477 57.3181 111.232 56.8893 110.898 56.536C110.563 56.1826 110.148 55.9151 109.688 55.756C107.699 55.0483 105.665 54.4773 103.598 54.047C104.298 53.94 104.988 53.838 105.682 53.78C106.866 53.8122 108.049 53.7045 109.207 53.459C111.959 52.542 112.464 49.499 109.635 48.277C108.349 47.8114 106.995 47.559 105.628 47.53C100.911 47.3562 96.2321 48.4252 92.059 50.63C89.0131 52.1912 86.2361 54.2288 83.833 56.666C83.7745 56.7191 83.7371 56.7914 83.7275 56.8698C83.718 56.9482 83.7369 57.0274 83.781 57.093C85.422 59.555 94.281 73.474 94.303 73.493C94.463 73.706 94.831 73.757 94.944 73.493C96.0693 70.764 97.4263 68.1364 99 65.639C100.153 66.273 101.259 66.9871 102.312 67.776C105.642 69.652 108.406 67.007 106.319 63.876C105.439 62.3343 104.214 61.0177 102.739 60.03C104.222 60.466 106.284 61.13 107.654 61.419C110.5 62.007 112.14 59.728 111.611 57.786Z"></path><path id="vector_41" fill="#000000" d="M96.5469 54.688C97.6022 54.265 98.7228 54.0282 99.8589 53.988C99.9546 53.983 100.045 53.9415 100.111 53.872C100.177 53.8025 100.214 53.7103 100.214 53.6145C100.214 53.5186 100.177 53.4264 100.111 53.3569C100.045 53.2874 99.9546 53.2459 99.8589 53.241C98.6524 53.2673 97.4594 53.5021 96.3329 53.935C95.9059 54.154 96.1209 54.853 96.5469 54.688Z"></path><path id="vector_42" fill="#000000" d="M96.44 58.855C97.5774 58.8135 98.714 58.9577 99.805 59.282C100.289 59.435 100.446 58.694 100.019 58.588C98.8611 58.2328 97.649 58.0878 96.44 58.16C95.959 58.107 95.959 58.866 96.44 58.855Z"></path><path id="vector_43" fill="#ffffff" d="M132.872 118.739C134.046 121.673 130.581 123.562 128.011 122.371C126.405 121.627 125.316 119.871 124.379 118.578C123.995 121.138 124.205 124.303 122.669 126.324C121.407 127.987 119.418 127.812 118.716 126.698C118.014 125.584 117.968 123.369 117.968 122.051C117.61 122.496 117.093 122.783 116.526 122.851C116.009 122.997 115.455 122.933 114.985 122.673C114.515 122.413 114.166 121.978 114.015 121.462C113.135 123.223 110.541 123.482 109.261 120.821C106.634 115.364 111.537 106.66 120.853 104.635L82.2839 86.366C77.9245 87.0039 73.4737 86.3734 69.4629 84.55L52.9559 98.866L72.8819 108.322C74.3709 104.449 75.0629 101.773 76.5139 99.935C78.7949 97.047 82.6259 98.421 82.0139 102.178C81.6907 103.608 81.1866 104.99 80.5139 106.292C82.8124 105.375 85.1676 104.606 87.5649 103.992C87.5649 103.892 95.4779 95.918 95.5779 95.818C95.8989 95.498 96.4329 95.979 96.1119 96.353C93.7119 98.81 91.3049 101.214 88.9009 103.671C90.2903 103.351 91.6789 103.084 93.0669 102.871C94.8299 102.602 97.0779 102.064 98.6229 103.245C100.223 104.468 100.368 106.402 97.9819 107.945C99.2283 107.886 100.456 108.264 101.454 109.013C101.847 109.462 102.069 110.036 102.079 110.633C102.089 111.229 101.886 111.81 101.508 112.272C101.119 112.712 100.622 113.044 100.066 113.233C100.236 113.302 100.398 113.392 100.546 113.5C103.698 110.135 106.925 106.838 110.002 103.4C110.33 103.033 110.865 103.567 110.536 103.934C107.459 107.368 104.286 110.612 101.136 113.977C101.351 114.275 101.488 114.621 101.534 114.985C101.581 115.349 101.536 115.719 101.403 116.061C101.22 116.508 100.929 116.903 100.556 117.211C100.183 117.518 99.7399 117.729 99.2659 117.823C97.5659 118.306 95.8789 117.748 92.9659 117.93L122.827 132.087L137.093 119.7C136.48 119.6 133.62 118.9 132.872 118.739ZM83.2999 89.251C75.4779 96.874 74.4889 98.051 69.2499 103.407C68.9329 103.731 68.3859 103.238 68.7159 102.873C69.7029 101.779 79.0259 92.349 82.7159 88.716C83.0849 88.4 83.6229 88.934 83.2999 89.251Z"></path><path id="vector_44" fill="#000000" d="M99.2179 81.772C138.866 98.11 137.794 97.431 137.947 97.584C138.375 97.744 138.588 97.05 138.161 96.89C138.054 96.85 93.7129 78.719 92.7539 78.3C92.6469 78.513 92.4869 78.727 92.3799 78.941C93.0739 79.193 96.1359 80.5 99.2179 81.772Z"></path><path id="vector_45" fill="#000000" d="M116.472 66.4941C116.572 66.9761 117.262 66.7631 117.172 66.2801C116.872 64.7381 114.772 53.2991 114.661 52.8181C115.943 52.0701 125.78 46.3671 126.253 46.0871C126.295 46.0625 126.332 46.0299 126.361 45.9911C126.391 45.9523 126.412 45.9081 126.425 45.861C126.437 45.8138 126.44 45.7647 126.434 45.7165C126.427 45.6682 126.411 45.6217 126.386 45.5796C126.362 45.5375 126.329 45.5006 126.29 45.4712C126.252 45.4417 126.207 45.4201 126.16 45.4077C126.113 45.3953 126.064 45.3923 126.016 45.3989C125.968 45.4055 125.921 45.4215 125.879 45.4461C124.562 46.2261 114.554 52.0171 114.079 52.2841C114.007 52.3254 113.951 52.3907 113.922 52.4686C113.892 52.5465 113.891 52.6323 113.918 52.7111C114.022 53.2601 116.056 64.4291 116.472 66.4941Z"></path><path id="vector_46" fill="#000000" d="M119.09 67.1881C118.663 67.5091 119.037 68.1501 119.411 67.8831C122.546 65.6431 142.702 52.0651 142.702 51.9631C143.076 51.6961 142.702 51.0551 142.328 51.3221C140.651 52.5201 118.989 67.1881 119.09 67.1881Z"></path><path id="vector_47" fill="#000000" d="M148.685 68.2001C148.585 68.2571 137.9 74.0811 137.199 74.4501C136.777 74.6731 137.148 75.3081 137.573 75.0911C138.924 74.4031 149.164 68.7911 149.273 68.7341C149.382 68.6771 149.487 68.5211 149.434 68.4141C149.273 66.7581 148.104 54.3141 148.045 53.7231C147.996 53.2421 147.245 53.2421 147.297 53.7231C147.589 56.5431 148.428 65.6331 148.685 68.2001Z"></path><path id="vector_48" fill="#000000" d="M144.465 54.8C144.775 54.206 145.065 53.577 145.373 52.983C145.594 52.56 144.953 52.183 144.732 52.609C144.422 53.203 144.132 53.833 143.824 54.426C143.6 54.844 144.243 55.218 144.465 54.8Z"></path><path id="vector_49" fill="#000000" d="M134.208 73.011C133.677 74.2284 132.872 75.3069 131.857 76.163C131.482 76.482 132.018 77.017 132.392 76.697C133.497 75.7476 134.374 74.5607 134.956 73.225C135.116 72.744 134.422 72.584 134.208 73.011Z"></path><path id="vector_50" fill="#000000" d="M105.094 26.5891C105.311 27.0151 105.956 26.6391 105.735 26.2151C105.062 24.9221 104.346 23.6511 103.705 22.3691C103.491 21.9411 102.84 22.3211 103.064 22.7431C103.727 23.9891 104.41 25.2481 105.094 26.5891Z"></path><path id="vector_51" fill="#000000" d="M184.209 51.322C185.757 50.942 189.285 50.043 189.551 49.987C190.033 49.887 189.818 49.132 189.338 49.287C187.788 49.661 184.261 50.563 183.996 50.623C183.566 50.725 183.781 51.428 184.209 51.322Z"></path><path id="vector_52" fill="#000000" d="M112.145 142.991V146.838C112.145 146.937 112.184 147.032 112.254 147.103C112.325 147.173 112.42 147.212 112.519 147.212C112.618 147.212 112.713 147.173 112.783 147.103C112.853 147.032 112.893 146.937 112.893 146.838V142.991C112.893 142.892 112.853 142.797 112.783 142.727C112.713 142.656 112.618 142.617 112.519 142.617C112.42 142.617 112.325 142.656 112.254 142.727C112.184 142.797 112.145 142.892 112.145 142.991V142.991Z"></path><path id="vector_53" fill="#ffaaaa" d="M150.5 112.862C152.751 116.762 154.934 121.623 157.925 125.256L174.486 116.762C173.364 115.213 171.975 113.61 170.853 112.008C172.034 111.158 173.142 110.211 174.165 109.176C175.258 108.205 175.976 106.882 176.195 105.437C176.302 103.995 175.125 102.427 173.684 102.552C171.984 102.7 168.632 106.742 165.297 106.452C163.615 101.645 163.074 95.583 160.062 96.195C159.448 96.3535 158.915 96.7346 158.567 97.264C157.08 99.351 157.974 102.355 158.513 106.131C157.613 103.418 154.608 97.44 152.156 98.92C151.256 99.464 151.202 100.788 151.356 101.804C151.687 104.074 152.429 106.264 153.546 108.268C152.296 106.08 148.971 101.781 146.762 103.033C146.357 103.309 146.047 103.703 145.874 104.162C145.702 104.621 145.676 105.123 145.8 105.597C146.288 107.909 149.044 110.342 150.5 112.862Z"></path><path id="vector_54" fill="#ffaaaa" d="M155.576 113.343C155.79 113.771 156.422 113.401 156.217 112.969C155.717 111.911 155.245 110.838 154.717 109.817C154.499 109.392 153.871 109.76 154.076 110.191C154.583 111.25 155.042 112.275 155.576 113.343Z"></path><path id="vector_55" fill="#ffaaaa" d="M160.651 111.206C160.816 111.632 161.551 111.477 161.345 110.993C160.898 109.933 160.491 108.802 160.01 107.734C159.85 107.307 159.102 107.467 159.315 107.948C159.743 109.07 160.235 110.133 160.651 111.206Z"></path></g></g><g id="line"><g id="group_2"><path id="vector_56" fill="#000000" d="M68.074 26.856C67.5469 26.6668 66.9801 26.6166 66.428 26.7101C65.8759 26.8036 65.3572 27.0378 64.922 27.39C64.4729 27.7746 64.1621 28.2955 64.0368 28.8733C63.9115 29.4511 63.9786 30.054 64.228 30.59C64.5087 31.067 64.9181 31.4552 65.4092 31.7104C65.9003 31.9656 66.4533 32.0774 67.005 32.033C67.6309 32.0422 68.2404 31.8329 68.7287 31.4411C69.2169 31.0493 69.5533 30.4995 69.6799 29.8865C69.8065 29.2734 69.7154 28.6354 69.4222 28.0823C69.1291 27.5291 68.6523 27.0955 68.074 26.856V26.856ZM67.274 31.236C66.8673 31.32 66.4456 31.2952 66.0516 31.164C65.6576 31.0329 65.3051 30.8 65.03 30.489C64.7787 30.1308 64.6576 29.6974 64.6867 29.2608C64.7158 28.8242 64.8934 28.4107 65.19 28.089C65.4133 27.8624 65.6794 27.6824 65.9729 27.5596C66.2663 27.4368 66.5813 27.3735 66.8995 27.3735C67.2176 27.3735 67.5326 27.4368 67.8261 27.5596C68.1195 27.6824 68.3857 27.8624 68.609 28.089C68.8096 28.3679 68.9349 28.6938 68.973 29.0352C69.011 29.3766 68.9605 29.7221 68.8263 30.0383C68.692 30.3546 68.4786 30.6309 68.2065 30.8407C67.9344 31.0504 67.6129 31.1866 67.273 31.236H67.274Z"></path><path id="vector_57" fill="#000000" d="M80.8999 82.4661H76.0329C75.9337 82.4661 75.8386 82.5055 75.7685 82.5756C75.6983 82.6457 75.6589 82.7409 75.6589 82.8401C75.6589 82.9392 75.6983 83.0344 75.7685 83.1045C75.8386 83.1747 75.9337 83.2141 76.0329 83.2141H80.8999C80.9991 83.2141 81.0943 83.1747 81.1644 83.1045C81.2345 83.0344 81.2739 82.9392 81.2739 82.8401C81.2739 82.7409 81.2345 82.6457 81.1644 82.5756C81.0943 82.5055 80.9991 82.4661 80.8999 82.4661V82.4661Z"></path><path id="vector_58" fill="#000000" d="M47.6669 161.208C40.8429 161.608 33.5669 161.291 27.2609 158.59C17.4609 154.436 9.46094 145.071 5.73294 135.139C5.57194 134.711 4.82394 134.871 5.03794 135.352C9.19194 146.252 17.4929 154.975 25.8379 158.809C24.0979 162.024 22.1619 165.536 20.4819 168.74C20.2679 169.167 20.9089 169.54 21.1229 169.114C22.8689 165.886 24.8229 162.346 26.5229 159.114C29.3273 160.303 32.2706 161.132 35.2829 161.583C39.4107 162.099 43.5765 162.242 47.7299 162.011C48.1479 161.955 48.1479 161.208 47.6669 161.208Z"></path><path id="vector_59" fill="#000000" d="M90.0829 112.756C89.6019 112.804 89.6019 113.556 90.0829 113.503C91.8767 113.347 93.678 113.294 95.4779 113.343C95.5771 113.343 95.6722 113.304 95.7424 113.234C95.8125 113.163 95.8519 113.068 95.8519 112.969C95.8519 112.87 95.8125 112.775 95.7424 112.705C95.6722 112.634 95.5771 112.595 95.4779 112.595C93.678 112.546 91.8767 112.6 90.0829 112.756V112.756Z"></path><path id="vector_60" fill="#000000" d="M89.5 108.749C91.296 108.603 93.0984 108.55 94.9 108.589C94.9992 108.589 95.0943 108.55 95.1644 108.479C95.2346 108.409 95.274 108.314 95.274 108.215C95.274 108.116 95.2346 108.021 95.1644 107.951C95.0943 107.88 94.9992 107.841 94.9 107.841C93.0984 107.8 91.2959 107.853 89.5 108.001C89.4008 108.001 89.3057 108.04 89.2355 108.111C89.1654 108.181 89.126 108.276 89.126 108.375C89.126 108.474 89.1654 108.569 89.2355 108.639C89.3057 108.71 89.4008 108.749 89.5 108.749Z"></path><path id="vector_61" fill="#000000" d="M49.537 141.763C44.3 141.395 39.203 138.946 34.937 135.895C29.631 132.105 25.468 126.395 21.123 120.341C20.855 119.968 20.212 120.341 20.482 120.715C23.1822 124.669 26.1259 128.452 29.296 132.04C34.6097 137.814 41.8064 141.507 49.596 142.457C50.019 142.5 50.018 141.763 49.537 141.763Z"></path><path id="vector_62" fill="#000000" d="M38 106.666C37.68 106.345 37.144 106.88 37.466 107.2C42.3948 112.119 46.9646 117.386 51.14 122.959C51.333 123.211 51.465 123.219 51.868 122.911C52.435 122.477 53.54 121.42 56.108 119.54C56.479 119.268 56.108 118.629 55.734 118.899C54.282 119.955 52.903 121.089 51.567 122.211C47.4376 116.699 42.9026 111.503 38 106.666V106.666Z"></path><path id="vector_63" fill="#000000" d="M54.5589 138.771H50.8729C50.7737 138.771 50.6786 138.81 50.6084 138.881C50.5383 138.951 50.4989 139.046 50.4989 139.145C50.4989 139.244 50.5383 139.339 50.6084 139.409C50.6786 139.48 50.7737 139.519 50.8729 139.519H54.5589C54.6581 139.519 54.7532 139.48 54.8234 139.409C54.8935 139.339 54.9329 139.244 54.9329 139.145C54.9329 139.046 54.8935 138.951 54.8234 138.881C54.7532 138.81 54.6581 138.771 54.5589 138.771Z"></path><path id="vector_64" fill="#000000" d="M111.611 181.774C103.781 178.153 94.9752 177.213 86.5569 179.1C84.2315 179.717 81.9895 180.614 79.8799 181.771C79.8131 181.817 79.7627 181.883 79.736 181.96C79.7093 182.036 79.7077 182.119 79.7314 182.197C79.7552 182.274 79.8031 182.342 79.8681 182.391C79.9331 182.439 80.0119 182.465 80.0929 182.466H111.5C111.948 182.469 111.884 181.956 111.611 181.774ZM81.4289 181.721C89.6569 177.607 101.056 178.193 109.581 181.721H81.4289Z"></path><path id="vector_65" fill="#000000" d="M40.99 78.941C42.817 76.707 41.395 74.464 40.028 75.148C39.3135 75.5855 38.681 76.1446 38.159 76.8C36.7725 78.212 35.5205 79.75 34.419 81.394C34.3948 81.4499 34.3843 81.5108 34.3883 81.5716C34.3923 81.6323 34.4108 81.6913 34.4422 81.7435C34.4736 81.7957 34.517 81.8397 34.5688 81.8718C34.6206 81.9039 34.6793 81.9231 34.74 81.928C36.932 81.633 39.652 80.576 40.99 78.941ZM35.59 80.971C36.7789 79.3653 38.0823 77.8477 39.49 76.43C39.803 76.102 40.401 75.36 40.826 75.949C41.627 77.055 40.225 80.045 35.594 80.971H35.59Z"></path><path id="vector_66" fill="#000000" d="M33.9919 84.4431C33.6181 84.8931 33.3926 85.4477 33.3465 86.0309C33.3003 86.6142 33.4357 87.1973 33.7341 87.7006C34.0325 88.2038 34.4792 88.6024 35.0131 88.8416C35.5469 89.0809 36.1417 89.1492 36.7159 89.0371C37.3305 88.9213 37.8904 88.6077 38.3103 88.1442C38.7301 87.6806 38.9868 87.0925 39.0413 86.4694C39.0958 85.8464 38.945 85.2226 38.6121 84.6932C38.2791 84.1638 37.7821 83.7578 37.1969 83.5371C36.6343 83.3405 36.0249 83.322 35.4514 83.4841C34.8779 83.6462 34.3683 83.9811 33.9919 84.4431V84.4431ZM38.3189 86.2591C38.3151 86.6963 38.1759 87.1216 37.9204 87.4765C37.665 87.8313 37.3058 88.0983 36.8924 88.2406C36.4789 88.3829 36.0315 88.3935 35.6118 88.2711C35.192 88.1487 34.8205 87.8991 34.5484 87.5569C34.2763 87.2146 34.117 86.7964 34.0924 86.3599C34.0677 85.9233 34.179 85.4899 34.4108 85.1192C34.6427 84.7485 34.9838 84.4587 35.3871 84.2899C35.7904 84.121 36.2361 84.0812 36.6629 84.1761C37.134 84.2845 37.5543 84.5496 37.8551 84.928C38.156 85.3064 38.3195 85.7757 38.3189 86.2591Z"></path><path id="vector_67" fill="#000000" d="M113.267 179.958C111.556 177.309 109.179 175.156 106.375 173.714C105.953 171.048 105.276 168.43 104.353 165.894C110.264 165.164 110.753 165.479 110.753 164.894C110.053 155.427 109.115 149.847 108.99 148.921L108.082 148.547C109.532 158.093 109.769 163.228 109.898 164.52C107.585 164.698 86.015 167.02 85.748 167.074C84.608 159.893 83.253 152.81 82.481 149.723C81.055 144.398 75.505 139.023 69.572 136.583C72.2304 134.666 74.7159 132.52 77 130.17C81.113 126.058 84.4 122.529 86.455 120.929C88.314 119.318 89.636 118.237 92.225 117.991C95.761 117.637 97.416 118.262 99.276 117.777C99.7482 117.678 100.189 117.466 100.562 117.159C100.934 116.852 101.226 116.459 101.413 116.014C101.578 115.627 101.62 115.2 101.534 114.788C101.448 114.377 101.238 114.002 100.932 113.714C100.665 113.509 100.379 113.33 100.078 113.18C100.763 113 101.349 112.557 101.709 111.948C102.069 111.338 102.174 110.61 102 109.924C101.532 108.289 99.685 107.965 97.993 107.894C100.313 106.394 100.287 104.508 98.634 103.194C97.112 101.984 94.841 102.553 93.078 102.82C88.7776 103.48 84.5662 104.627 80.525 106.239C81.2016 104.939 81.7059 103.556 82.025 102.126C82.239 100.684 81.812 99.026 80.316 98.493C79.6174 98.3186 78.8825 98.3578 78.2063 98.6054C77.5302 98.853 76.9438 99.2977 76.523 99.882C74.823 102.052 72.989 108.282 72.623 109.017C67.4511 111.452 62.4993 114.329 57.823 117.617C55.823 112.008 51.95 101.526 47.46 98.012C45.1848 96.2223 42.5162 94.9999 39.675 94.446C34.451 93.285 29.795 94.203 24.916 96.356C21.6211 97.8132 18.6308 99.879 16.102 102.445C13.4968 105.241 11.5445 108.58 10.386 112.221C7.935 119.468 8.48 126.83 11.241 133.963C13.5363 139.806 17.157 145.036 21.818 149.241C29.608 156.078 40.465 157.108 51.039 156.987C56.858 156.904 63.739 155.926 69.739 159.925C74.625 163.308 77 169.419 78.446 175.204C78.4747 175.279 78.5262 175.343 78.5933 175.388C78.6603 175.432 78.7396 175.455 78.82 175.452H98.94C100.149 175.905 112.725 180.492 112.893 180.492C113.161 180.581 113.5 180.193 113.267 179.958ZM73.256 109.658C73.3502 109.472 73.4217 109.274 73.469 109.071C73.576 108.857 76.558 99.503 79.239 99.188C79.6383 99.1372 80.0433 99.2196 80.391 99.4225C80.7387 99.6253 81.0097 99.9373 81.162 100.31C81.5178 101.363 81.4408 102.514 80.948 103.51C80.5463 104.656 80.0444 105.764 79.448 106.822C79.293 107.092 79.555 107.516 79.876 107.356C84.6074 105.363 89.5853 104.016 94.676 103.35C95.595 103.189 96.535 103.189 97.454 103.35C97.8603 103.443 98.2358 103.64 98.5445 103.92C98.8532 104.2 99.0848 104.555 99.217 104.95C99.537 106.286 97.717 107.35 96.706 107.888C96.385 108.049 96.546 108.576 96.92 108.583C98.491 108.613 101.237 108.576 101.514 110.239C101.605 110.592 101.586 110.965 101.46 111.307C100.98 112.482 99.484 112.696 98.36 112.696C98.2693 112.698 98.1824 112.732 98.1145 112.792C98.0467 112.853 98.0024 112.935 97.9896 113.025C97.9767 113.114 97.9962 113.206 98.0444 113.283C98.0926 113.359 98.1666 113.417 98.253 113.444C100.024 113.697 101.47 114.199 100.871 115.844C100.644 116.241 100.318 116.573 99.9248 116.807C99.5316 117.041 99.0845 117.169 98.627 117.179C97.4342 117.242 96.2384 117.224 95.048 117.126C90.73 117.018 89.105 117.858 86.341 120.171C84.891 121.384 81.119 124.834 77.9 128.237C73.867 122.562 70.545 118.014 66.468 113.173C70.321 110.966 73.118 109.841 73.256 109.657V109.658ZM40.47 95.408C41.3222 96.171 42.0601 97.0527 42.661 98.026C42.874 98.453 43.035 99.308 42.287 99.254C41.743 99.254 40.878 98.529 40.364 98.186C38.7974 96.5716 36.8495 95.3775 34.7 94.714C36.6484 94.626 38.598 94.8605 40.47 95.408V95.408ZM26.46 151.592C20.36 148.069 13.86 140.28 11.021 131.079C8.85282 124.365 9.11763 117.103 11.769 110.565C13.0496 107.412 14.9608 104.553 17.3854 102.165C19.8099 99.7767 22.6968 97.9089 25.869 96.676C28.0436 95.8026 30.3168 95.1981 32.638 94.876C34.7843 95.3029 36.8045 96.2151 38.544 97.543C39.102 98.0921 39.6906 98.6092 40.307 99.092C40.8854 99.6442 41.645 99.9669 42.444 100C42.7681 99.9537 43.0613 99.7825 43.2608 99.5229C43.4604 99.2634 43.5505 98.9361 43.512 98.611C43.2612 97.5763 42.713 96.6377 41.935 95.911C45.0718 96.9078 47.7846 98.9261 49.641 101.644C52.841 106.334 55.283 112.951 57.227 118.365C57.2391 118.42 57.2646 118.472 57.3013 118.515C57.338 118.559 57.3847 118.592 57.4374 118.613C57.4902 118.634 57.5472 118.642 57.6036 118.636C57.66 118.63 57.7141 118.61 57.761 118.578C60.325 116.762 62.942 115.106 65.614 113.503C69.566 118.103 73.675 123.785 77.206 128.728C75.845 130.218 74.381 131.61 72.825 132.895C70.125 135.173 69.754 135.712 66.308 137.436C62.3467 139.274 58.1884 140.654 53.914 141.549C52.909 141.749 52.324 141.749 51.938 142.137C43.41 147.008 40.892 150.367 36.66 155.171C33.0849 154.552 29.6378 153.343 26.46 151.592V151.592ZM79.078 174.723C76.578 165.574 72.966 158.778 63.8 156.723C59.325 155.797 56.5 156.152 53.17 156.243C48.4057 156.43 43.6342 156.215 38.906 155.601C38.4886 155.548 38.0745 155.472 37.666 155.371C39.4684 153.181 41.3987 151.1 43.447 149.138C44.9666 147.727 46.6118 146.457 48.362 145.345C49.7939 144.291 51.313 143.362 52.903 142.567C55.8434 141.932 58.7495 141.147 61.61 140.216C64.1066 139.428 66.5108 138.374 68.781 137.07C71.6067 138.156 74.1698 139.829 76.301 141.979C79.4009 144.904 81.4477 148.771 82.123 152.979C85.497 167.796 84.51 167.99 85.275 167.99C85.375 167.977 101.775 166.204 103.601 165.984C104.479 168.342 105.138 170.777 105.568 173.256C101.574 171.284 97.2455 170.078 92.807 169.7C90.5233 169.539 88.2285 169.646 85.97 170.021C85.597 170.083 85.649 170.608 85.97 170.715C86.878 171.036 96.896 174.698 96.91 174.703C77.941 174.7 79.219 174.7 79.078 174.723ZM87.626 170.556C95.836 169.556 107.383 173.034 112.145 179.477C112.066 179.445 88.282 170.775 87.626 170.556Z"></path><path id="vector_68" fill="#000000" d="M154.721 134.6C146.197 137.474 138.521 145.738 136.291 158.052C135.748 161.263 135.533 164.52 135.65 167.774C135.65 167.873 135.689 167.968 135.759 168.038C135.83 168.109 135.925 168.148 136.024 168.148C136.123 168.148 136.218 168.109 136.288 168.038C136.358 167.968 136.398 167.873 136.398 167.774C136.186 156.624 139.047 146.316 147.83 139.301C149.973 137.585 152.394 136.249 154.988 135.348C155.416 135.139 155.2 134.442 154.721 134.6Z"></path><path id="vector_69" fill="#000000" d="M148.364 143.365C147.037 144.439 145.853 145.678 144.839 147.051C144.569 147.424 145.212 147.799 145.48 147.425C146.432 146.099 147.564 144.912 148.845 143.899C149.265 143.569 148.744 143.051 148.364 143.365Z"></path><path id="vector_70" fill="#000000" d="M131.857 139.946C130.394 141.128 129.052 142.452 127.851 143.899C127.538 144.28 128.073 144.814 128.385 144.434C129.586 142.987 130.928 141.662 132.392 140.481C132.772 140.168 132.238 139.634 131.857 139.946Z"></path><path id="vector_71" fill="#000000" d="M112.47 114.083C112.316 113.654 111.613 113.817 111.776 114.297C112.302 115.849 112.844 117.342 113.325 118.891C113.485 119.318 114.185 119.156 114.02 118.677C113.5 117.176 113.025 115.625 112.47 114.083Z"></path><path id="vector_72" fill="#000000" d="M118.56 114.243C118.4 115.686 118.213 117.124 118.026 118.57C117.964 119.05 118.72 119.051 118.774 118.57C118.934 117.128 119.121 115.689 119.308 114.243C119.37 113.764 118.614 113.763 118.56 114.243Z"></path><path id="vector_73" fill="#000000" d="M127.428 112.427C127.059 112.1 126.528 112.635 126.894 112.961C128.286 114.223 129.589 115.579 130.794 117.021C131.058 117.398 131.702 117.021 131.435 116.647C130.21 115.139 128.871 113.728 127.428 112.427V112.427Z"></path><path id="vector_74" fill="#000000" d="M189.07 129.156C189.065 129.06 189.023 128.97 188.954 128.904C188.884 128.838 188.792 128.801 188.696 128.801C188.601 128.801 188.508 128.838 188.439 128.904C188.369 128.97 188.328 129.06 188.323 129.156C188.323 130.656 188.323 132.094 188.269 133.536C187.578 146.318 179.469 153.418 167.008 156.186C166.96 156.198 166.916 156.22 166.877 156.25C166.838 156.28 166.805 156.318 166.781 156.361C166.757 156.404 166.742 156.451 166.737 156.5C166.731 156.549 166.736 156.599 166.751 156.646C166.765 156.693 166.789 156.736 166.821 156.774C166.853 156.812 166.892 156.842 166.936 156.864C166.98 156.886 167.028 156.899 167.077 156.902C167.126 156.905 167.176 156.898 167.222 156.881C171.52 155.989 175.612 154.299 179.286 151.897C179.767 153.076 185.491 167.137 185.758 167.832C185.919 168.259 186.658 168.103 186.453 167.618C185.67 165.763 180.153 152.044 179.897 151.466C185.681 147.266 188.452 141.385 189.017 134.23C189.141 132.542 189.159 130.847 189.07 129.156V129.156Z"></path><path id="vector_75" fill="#000000" d="M157.98 80.864H174.54C174.598 80.8614 174.654 80.8463 174.706 80.8197C174.757 80.7931 174.803 80.7557 174.838 80.7099C174.874 80.6642 174.899 80.6112 174.912 80.5548C174.925 80.4983 174.926 80.4397 174.914 80.383C173.827 77.022 172.573 72.703 170.373 69.966C166.84 65.566 161.622 66.853 161.025 70.18C160.91 70.819 160.971 71.408 160.865 72.049C160.677 73.922 159.037 78.549 157.659 80.223C157.553 80.49 157.659 80.864 157.98 80.864ZM161.719 71.782C161.699 71.1166 161.771 70.4517 161.933 69.806C162.174 69.2175 162.607 68.7279 163.162 68.417C163.89 68.0428 164.705 67.8702 165.522 67.9171C166.339 67.9641 167.129 68.2288 167.809 68.684C171.309 70.695 172.796 76.484 174.009 80.116H158.674C160.315 77.6084 161.357 74.7568 161.719 71.782V71.782Z"></path><path id="vector_76" fill="#000000" d="M165.779 75.7351C166.358 75.6147 166.882 75.3103 167.273 74.8673C167.664 74.4244 167.902 73.8667 167.95 73.2776C167.998 72.6885 167.854 72.0996 167.54 71.599C167.226 71.0984 166.758 70.7129 166.207 70.5001C165.815 70.3631 165.398 70.3177 164.986 70.3673C164.574 70.4168 164.179 70.5602 163.832 70.7862C163.484 71.0122 163.193 71.3149 162.98 71.671C162.767 72.0272 162.639 72.4273 162.606 72.8406C162.572 73.254 162.633 73.6696 162.785 74.0555C162.937 74.4415 163.175 74.7875 163.482 75.067C163.788 75.3464 164.154 75.552 164.553 75.6678C164.951 75.7836 165.37 75.8066 165.779 75.7351V75.7351ZM163.589 72.0491C163.803 71.6929 164.125 71.4142 164.509 71.2534C164.892 71.0927 165.317 71.0582 165.721 71.1551C166.125 71.252 166.488 71.4751 166.757 71.7921C167.026 72.1091 167.187 72.5035 167.216 72.9181C167.246 73.3328 167.142 73.746 166.921 74.098C166.7 74.4499 166.372 74.7223 165.986 74.8755C165.6 75.0287 165.175 75.0549 164.772 74.9502C164.37 74.8454 164.012 74.6153 163.749 74.2931C163.495 73.9806 163.344 73.5977 163.315 73.1963C163.287 72.7949 163.382 72.3944 163.589 72.0491Z"></path><path id="vector_77" fill="#000000" d="M154.721 109.817C154.516 109.386 153.875 109.76 154.08 110.191C154.58 111.25 155.052 112.323 155.58 113.343C155.798 113.768 156.426 113.401 156.221 112.969L154.721 109.817Z"></path><path id="vector_78" fill="#000000" d="M160.063 107.787C159.898 107.362 159.163 107.516 159.369 108.001C159.816 109.061 160.224 110.191 160.704 111.26C160.865 111.687 161.609 111.528 161.399 111.046C160.911 109.928 160.479 108.86 160.063 107.787Z"></path><path id="vector_79" fill="#000000" d="M181.111 129.156C181.966 128.621 182.874 128.087 183.728 127.556C183.813 127.506 183.875 127.425 183.9 127.33C183.925 127.235 183.911 127.134 183.861 127.049C183.812 126.964 183.73 126.902 183.635 126.877C183.54 126.852 183.439 126.865 183.354 126.915C182.5 127.449 181.592 127.983 180.737 128.515C180.31 128.728 180.683 129.369 181.111 129.156Z"></path><path id="vector_80" fill="#000000" d="M179.207 121.546C178.579 120.84 173.328 114.613 171.442 112.008C173.442 110.553 176.488 107.899 176.623 105.384C176.709 103.784 175.4 101.946 173.632 102.178C171.769 102.423 168.547 106.131 165.566 106.131C164.809 103.793 163.733 99.2311 162.788 97.5311C161.157 94.4311 157.671 95.6841 157.388 99.7211C157.362 100.905 157.47 102.088 157.709 103.247C157.297 102.32 155.726 99.5781 154.183 98.7061C153.934 98.5255 153.647 98.4046 153.344 98.3528C153.041 98.3011 152.731 98.3198 152.436 98.4077C152.142 98.4955 151.871 98.65 151.646 98.8592C151.421 99.0685 151.247 99.3268 151.138 99.6141C150.801 100.919 150.856 102.294 151.298 103.567C151.444 104.164 151.623 104.753 151.833 105.33C151.04 104.332 150.06 103.497 148.948 102.873C146.598 101.828 144.83 103.873 145.582 106.131C146.16 107.947 148.282 109.987 149.803 112.275C151.855 115.36 154.503 121.385 157.816 125.523C157.876 125.57 157.947 125.6 158.022 125.609C158.097 125.618 158.174 125.607 158.243 125.576C160.113 124.615 173.896 117.483 174.495 117.166C176.142 118.924 177.208 120.354 178.669 122.08C178.993 122.454 179.534 121.914 179.207 121.546ZM158.087 124.828C155.829 121.554 153.439 117.296 151.302 113.45C148.793 109.116 145.95 107.242 146.067 104.903C146.069 104.682 146.118 104.463 146.21 104.262C146.303 104.061 146.436 103.881 146.603 103.735C146.769 103.589 146.964 103.479 147.176 103.414C147.387 103.348 147.61 103.328 147.83 103.354C149.861 103.654 152.094 106.795 153.172 108.535C153.222 108.62 153.303 108.682 153.398 108.707C153.493 108.732 153.594 108.718 153.679 108.669C153.764 108.619 153.826 108.538 153.851 108.442C153.876 108.347 153.863 108.246 153.813 108.161C153.17 106.927 152.635 105.641 152.213 104.315C151.828 103.124 151.63 101.881 151.625 100.629C151.76 99.4101 152.446 98.8101 153.655 99.3471C155.518 100.323 157.47 104.221 158.142 106.238C158.156 106.284 158.179 106.327 158.209 106.364C158.24 106.401 158.277 106.432 158.32 106.454C158.362 106.477 158.409 106.491 158.456 106.496C158.504 106.5 158.553 106.496 158.598 106.482C158.644 106.468 158.687 106.445 158.724 106.414C158.761 106.384 158.792 106.346 158.815 106.304C158.837 106.261 158.851 106.215 158.856 106.167C158.861 106.119 158.856 106.071 158.842 106.025C158.242 102.438 157.729 99.9651 158.414 98.2791C158.537 97.9072 158.739 97.5665 159.006 97.2806C159.274 96.9946 159.6 96.7703 159.963 96.6231C162.647 95.8171 163.263 101.681 164.931 106.559C164.952 106.64 165.001 106.712 165.069 106.761C165.138 106.81 165.221 106.833 165.305 106.826C167.779 106.971 170.231 105.093 172.517 103.46C172.826 103.181 173.217 103.01 173.632 102.972C174.046 102.933 174.462 103.03 174.817 103.247C175.155 103.499 175.424 103.831 175.602 104.214C175.779 104.596 175.858 105.016 175.832 105.437C175.623 106.731 174.983 107.917 174.016 108.802C173.045 109.844 171.97 110.785 170.809 111.61C170.502 111.851 170.423 111.98 170.544 112.221C171.612 113.721 172.844 115.159 173.963 116.655C173.238 117.035 158.517 124.594 158.087 124.828Z"></path><path id="vector_81" fill="#000000" d="M190.085 111.687C189.78 104.674 188.337 97.201 183.835 91.815C182.434 90.031 180.715 88.5221 178.764 87.365C174.861 85.3974 170.521 84.4568 166.154 84.632C154.64 84.864 144.285 92.557 141.847 103.832C135.933 103.977 131.238 103.373 125.558 103.932C119.664 104.386 113.689 106.217 110.28 111.785C108.68 114.349 107.88 117.928 109.212 120.813C110.388 123.426 113.059 123.268 113.966 121.454C114.572 123.271 116.709 123.254 117.919 122.042C117.919 123.301 117.97 125.642 118.667 126.689C119.377 127.805 121.34 127.98 122.62 126.315C123.947 124.547 123.987 121.998 124.33 118.569C125.169 119.723 126.311 121.585 127.962 122.362C130.545 123.609 133.995 121.662 132.823 118.73C136.466 119.51 141.3 120.693 144.999 120.821C145.094 123.51 145.041 126.201 144.842 128.884C127.694 135.354 114.931 149.884 119.31 167.506C119.322 167.554 119.344 167.598 119.374 167.637C119.404 167.676 119.442 167.709 119.485 167.733C119.528 167.757 119.575 167.772 119.624 167.777C119.673 167.782 119.723 167.778 119.77 167.763C119.817 167.749 119.86 167.725 119.898 167.693C119.935 167.661 119.966 167.622 119.988 167.578C120.01 167.534 120.023 167.486 120.026 167.437C120.029 167.388 120.022 167.338 120.005 167.292C116.088 154.581 124.07 137.512 145.105 129.567C145.205 129.595 144.246 129.582 160.543 129.582C166.811 134.748 175.889 136.052 182.766 131.328C182.843 133.693 182.574 136.056 181.966 138.343C181.124 141.012 179.721 143.471 177.852 145.554C174.435 148.875 168.263 150.874 163.589 151.854C163.482 151.854 163.375 152.014 163.322 152.121C162.895 153.884 159.583 166.972 159.422 167.613C159.315 168.094 160.01 168.254 160.117 167.827C160.544 166.064 163.803 153.136 163.963 152.549C166.755 151.994 169.479 151.134 172.083 149.984C175.636 148.435 178.161 146.851 180.096 143.784C182.929 139.357 183.412 136.21 183.513 130.792C189.946 125.848 190.377 119.566 190.085 111.687ZM162.033 85.775C164.203 85.411 166.406 85.2856 168.603 85.401C167.952 86.6187 167.04 87.6773 165.932 88.501C164.41 89.469 163.199 89.161 162.407 87.86C162.037 87.2322 161.904 86.4924 162.033 85.775ZM134.907 118.41C133.999 118.196 133.144 117.983 132.236 117.769C132.166 117.753 132.093 117.756 132.026 117.78C131.958 117.803 131.898 117.845 131.853 117.901C131.809 117.957 131.781 118.024 131.773 118.095C131.765 118.167 131.777 118.239 131.808 118.303C133.673 121.203 130.222 122.614 128.336 121.562C126.729 120.445 125.411 118.962 124.49 117.235C124.452 117.169 124.396 117.115 124.327 117.082C124.258 117.049 124.181 117.037 124.106 117.049C124.03 117.06 123.96 117.094 123.905 117.147C123.849 117.199 123.811 117.267 123.795 117.342C123.367 120.017 123.517 125.552 121.071 126.53C120.799 126.653 120.497 126.694 120.203 126.646C119.908 126.599 119.634 126.466 119.415 126.263C118.584 125.1 118.615 121.563 118.774 120.013C118.827 119.532 118.074 119.532 118.026 120.013C117.985 120.472 117.804 120.908 117.508 121.261C117.212 121.614 116.815 121.868 116.37 121.989C116.117 122.05 115.854 122.048 115.602 121.982C115.351 121.917 115.119 121.791 114.928 121.615C114.66 121.142 114.445 120.64 114.287 120.12C114.18 119.799 113.646 119.746 113.587 120.12C113.196 122.337 110.903 122.799 109.848 120.387C108.975 118.482 108.996 115.296 110.97 112.053C112.594 109.675 114.826 107.776 117.433 106.553C121.983 104.278 129.764 104.439 134.902 104.523L134.907 118.41ZM186.72 126.217C182.396 132.917 173.12 135.579 164.657 131.346C163.446 130.733 162.301 130 161.238 129.156C161.087 128.972 160.882 128.841 160.651 128.782H145.533C145.916 123.8 145.664 125.588 145.664 108.224C145.664 108.125 145.625 108.03 145.554 107.96C145.484 107.889 145.389 107.85 145.29 107.85C145.191 107.85 145.096 107.889 145.026 107.96C144.955 108.03 144.916 108.125 144.916 108.224V120.07C141.797 119.866 138.699 119.407 135.655 118.697V104.584C137.773 104.637 139.943 104.684 142.061 104.636C142.143 104.635 142.223 104.609 142.29 104.562C142.357 104.514 142.408 104.447 142.435 104.369C143.44 99.8278 145.75 95.6792 149.081 92.4333C152.412 89.1874 156.619 86.9857 161.185 86.099C161.093 86.8553 161.246 87.6212 161.62 88.2845C161.995 88.9478 162.573 89.4736 163.268 89.785C165.693 90.846 168.175 87.912 169.468 85.618C184.387 86.536 189.154 98.883 189.394 113.771C189.444 118.1 189.177 122.531 186.72 126.217V126.217Z"></path><path id="vector_82" fill="#000000" d="M109.688 55.7001C107.699 54.9929 105.664 54.4216 103.598 53.9901C104.298 53.8841 104.987 53.7771 105.682 53.7231C106.865 53.7516 108.048 53.6442 109.207 53.4031C111.951 52.4881 112.473 49.4371 109.635 48.2211C108.348 47.7574 106.995 47.5048 105.628 47.4731C101.557 47.3079 97.503 48.0919 93.787 49.7631C88.123 39.9321 81.579 33.6891 70.487 36.2921C71.3338 34.1711 71.9051 31.9503 72.187 29.6841C72.442 25.9391 69.208 22.2341 65.777 22.9531C63.202 23.4931 61.717 26.1581 61.183 28.5621C60.809 30.1621 60.702 31.7681 60.328 33.3701C59.602 36.8781 57.771 38.6051 55.68 41.2761C48.38 50.1991 52.146 53.7601 51.14 58.9581C50.679 61.7221 48.823 63.4471 49.216 66.4371C49.4281 67.963 50.005 69.4153 50.8979 70.6707C51.7908 71.9262 52.9732 72.9479 54.345 73.6491C55.4483 74.2163 56.6888 74.462 57.925 74.3581C61.55 79.8681 65.366 82.8581 69.089 84.4401C71.4183 85.5264 73.9076 86.2298 76.461 86.5231C92.655 88.0941 92.611 75.3891 99 65.5861C100.282 66.0131 101.228 67.0551 102.366 67.7221C105.578 69.6081 108.497 67.0101 106.372 63.8221C105.487 62.2841 104.263 60.9683 102.793 59.9751C105.93 60.8981 108.069 61.6821 109.257 61.4181C109.904 61.3038 110.495 60.9773 110.937 60.4899C111.378 60.0025 111.644 59.382 111.694 58.7265C111.743 58.0709 111.573 57.4176 111.209 56.8695C110.846 56.3215 110.311 55.91 109.688 55.7001V55.7001ZM73.615 36.5261C73.839 37.2196 73.9822 37.9367 74.042 38.6631C74.042 40.5091 72.783 39.8921 71.371 38.7161C70.837 38.2891 70.303 37.7551 69.771 37.2741C71.0241 36.8969 72.3119 36.6463 73.615 36.5261V36.5261ZM49.858 66.1201C49.604 63.1581 51.851 61.5101 51.941 57.3591C52.062 51.8081 49.965 49.2441 56.482 41.2791C57.9786 39.6175 59.2532 37.7687 60.274 35.7791C61.183 33.5891 61.236 31.1321 61.774 28.8351C62.352 26.4531 63.491 24.2521 65.888 23.6531C68.933 23.0651 71.336 26.4291 71.388 29.1531C71.3733 30.2038 71.2113 31.2473 70.907 32.2531C70.478 34.0411 69.583 36.4341 69.573 36.5531C65.217 38.1301 59.2 43.3131 56.163 49.5091C52.212 57.5691 53.303 66.4631 57.45 73.6091C53.514 73.7891 50.126 69.7401 49.858 66.1201ZM82.123 85.7201C62.77 88.8531 45.923 63.9201 59.046 46.0291C61.5789 42.417 64.9814 39.5015 68.939 37.5521C69.6214 38.231 70.343 38.8694 71.1 39.4641C74.456 41.8641 75.493 40.1111 74.363 36.5371C82.2 36.2301 87.2 40.6911 91.418 47.3691C91.993 48.2581 92.518 49.1471 93.091 50.0861C92.623 50.3131 92.31 50.4491 92.059 50.5751C86.3734 53.5495 81.6552 58.0852 78.459 63.6491C76.668 59.3411 72.949 49.6111 70.606 45.6491C70.392 45.2221 69.706 45.5901 69.965 46.0231C72.253 49.8501 74.41 55.5901 78.138 64.7231C78.1714 64.7781 78.2185 64.8236 78.2746 64.8552C78.3307 64.8868 78.3941 64.9034 78.4585 64.9034C78.5229 64.9034 78.5862 64.8868 78.6424 64.8552C78.6985 64.8236 78.7455 64.7781 78.779 64.7231C80.1232 62.034 81.9036 59.5862 84.048 57.4791C93.419 71.7501 93.862 72.9001 94.205 73.2881C91.367 79.6001 88.964 84.6301 82.123 85.7251V85.7201ZM110.757 59.5441C109.688 61.4141 107.284 60.3991 105.735 59.9181C104.186 59.4911 102.635 58.9561 101.087 58.5291C101.007 58.5144 100.925 58.5247 100.851 58.5585C100.777 58.5924 100.716 58.6482 100.675 58.7184C100.634 58.7885 100.616 58.8695 100.623 58.9504C100.63 59.0312 100.662 59.1079 100.714 59.1701C101.811 59.966 102.863 60.822 103.865 61.7341C104.808 62.6763 105.601 63.7576 106.216 64.9401C106.425 65.3538 106.47 65.8315 106.341 66.2769C106.212 66.7223 105.919 67.1022 105.521 67.3401C105.061 67.4978 104.57 67.5461 104.088 67.4812C103.606 67.4163 103.145 67.2399 102.743 66.9661C101.515 66.2191 100.5 65.0971 99.111 64.6661C99.012 64.6626 98.9134 64.6799 98.8214 64.7167C98.7295 64.7536 98.6462 64.8092 98.577 64.8801C97.0528 67.3046 95.7134 69.8404 94.57 72.4661C94.457 72.2911 84.718 57.0521 84.634 56.9211C86.594 54.9654 88.8034 53.2769 91.205 51.8991C97.143 48.5591 103.265 47.6391 107.818 48.4271C108.973 48.6371 110.318 49.0371 110.757 50.1361C111.184 51.1511 110.276 52.1661 109.421 52.5361C107.748 53.2211 105.743 52.4311 101.889 53.6041C101.568 53.7111 101.515 54.2451 101.889 54.3041C104.512 54.7346 107.087 55.4144 109.581 56.3341C109.886 56.4471 110.163 56.6251 110.393 56.8558C110.623 57.0864 110.8 57.3642 110.912 57.6699C111.023 57.9757 111.067 58.302 111.041 58.6265C111.014 58.9509 110.917 59.2657 110.757 59.5491V59.5441Z"></path><path id="vector_83" fill="#000000" d="M96.5469 54.688C97.6022 54.265 98.7228 54.0282 99.8589 53.988C99.9546 53.983 100.045 53.9415 100.111 53.872C100.177 53.8025 100.214 53.7103 100.214 53.6145C100.214 53.5186 100.177 53.4264 100.111 53.3569C100.045 53.2874 99.9546 53.2459 99.8589 53.241C98.6524 53.2673 97.4594 53.5021 96.3329 53.935C95.9059 54.154 96.1209 54.853 96.5469 54.688Z"></path><path id="vector_84" fill="#000000" d="M100.019 58.534C98.8592 58.1878 97.6486 58.0434 96.4399 58.107C96.3407 58.107 96.2456 58.1464 96.1755 58.2166C96.1053 58.2867 96.0659 58.3818 96.0659 58.481C96.0659 58.5802 96.1053 58.6753 96.1755 58.7455C96.2456 58.8156 96.3407 58.855 96.4399 58.855C97.5769 58.8218 98.7122 58.9659 99.8049 59.282C99.9041 59.3104 100.011 59.2982 100.101 59.2482C100.191 59.1981 100.258 59.1142 100.286 59.015C100.314 58.9158 100.302 58.8094 100.252 58.7192C100.202 58.629 100.118 58.5624 100.019 58.534Z"></path><path id="vector_85" fill="#000000" d="M194.626 47.583C194.526 47.551 106.754 18.907 102.126 17.557C101.907 17.493 101.949 17.478 101.868 17.622C100.839 19.43 89.155 42.129 88.851 42.722C89.0136 42.948 89.1921 43.1622 89.385 43.363C91.567 39.218 102.367 18.363 102.367 18.309C105.358 19.27 193.662 48.117 193.982 48.224C193.074 49.933 174.377 85.084 174.056 85.618C174.323 85.672 174.537 85.778 174.804 85.832C195.989 46.111 194.737 48.324 194.837 48.224C195 47.9 194.893 47.636 194.626 47.583Z"></path><path id="vector_86" fill="#000000" d="M113.481 150.417C113.293 150.326 76.002 132.055 75.499 131.717C75.304 131.912 75.108 132.063 74.913 132.251C75.981 132.785 113.213 151.162 113.321 151.215C113.39 151.247 113.467 151.259 113.542 151.25C113.618 151.241 113.689 151.21 113.748 151.162C115.297 149.826 144.411 124.879 144.999 124.452V123.44C142 126.048 113.763 150.134 113.481 150.417Z"></path><path id="vector_87" fill="#000000" d="M62.9449 80.383C62.7849 80.223 62.5719 80.062 62.4109 79.902L43.7679 95.928C44.0273 96.0314 44.2776 96.1565 44.5159 96.302C50.6593 90.96 56.8023 85.6536 62.9449 80.383Z"></path><path id="vector_88" fill="#000000" d="M99.2179 81.7721C138.866 98.1101 137.794 97.4311 137.947 97.5841C138.375 97.7441 138.588 97.0501 138.161 96.8901C138.029 96.8401 93.5609 78.6301 92.5759 78.2001C92.4699 78.4141 92.3089 78.6281 92.2029 78.8411C93.1649 79.1911 91.9459 78.7751 99.2179 81.7721Z"></path><path id="vector_89" fill="#000000" d="M52.689 98.706C52.6483 98.7454 52.6168 98.7933 52.5971 98.8464C52.5773 98.8995 52.5697 98.9563 52.5748 99.0127C52.5799 99.0691 52.5975 99.1237 52.6265 99.1724C52.6554 99.2211 52.6949 99.2626 52.742 99.294C53.383 99.614 70.905 107.948 72.721 108.802C72.828 108.589 72.882 108.322 72.988 108.108C70.62 106.924 53.7 98.991 53.6 98.92C55.68 97.1 66.471 87.7 69.783 84.87C69.516 84.763 69.302 84.657 69.035 84.55C65.83 87.3 57.673 94.345 52.689 98.706Z"></path><path id="vector_90" fill="#000000" d="M120.212 104.8C120.597 104.685 120.99 104.596 121.387 104.533C120.587 104.159 85.0079 87.2781 82.8179 86.2631C82.3952 86.36 81.9671 86.4315 81.5359 86.4771C84.0609 87.7001 118.435 103.943 120.212 104.8Z"></path><path id="vector_91" fill="#000000" d="M122.776 131.613C122.676 131.561 97.107 119.505 93.769 117.884C93.2511 117.893 92.7341 117.929 92.22 117.991C92.32 118.039 122.573 132.414 122.829 132.414C123.015 132.414 121.951 133.376 137.52 119.754C137.212 119.708 136.908 119.636 136.612 119.54C135.091 120.843 128.666 126.564 122.776 131.613Z"></path><path id="vector_92" fill="#000000" d="M116.472 66.4941C116.572 66.9761 117.262 66.7631 117.172 66.2801C116.872 64.7381 114.772 53.2991 114.661 52.8181C115.943 52.0701 125.78 46.3671 126.253 46.0871C126.295 46.0625 126.332 46.0299 126.361 45.9911C126.391 45.9523 126.412 45.9081 126.425 45.861C126.437 45.8138 126.44 45.7647 126.434 45.7165C126.427 45.6682 126.411 45.6217 126.386 45.5796C126.362 45.5375 126.329 45.5006 126.29 45.4712C126.252 45.4417 126.207 45.4201 126.16 45.4077C126.113 45.3953 126.064 45.3923 126.016 45.3989C125.968 45.4055 125.921 45.4215 125.879 45.4461C124.562 46.2261 114.554 52.0171 114.079 52.2841C114.007 52.3254 113.951 52.3907 113.922 52.4686C113.892 52.5465 113.891 52.6323 113.918 52.7111C114.022 53.2601 116.056 64.4291 116.472 66.4941Z"></path><path id="vector_93" fill="#000000" d="M119.09 67.1881C118.663 67.5091 119.037 68.1501 119.411 67.8831C122.546 65.6431 142.702 52.0651 142.702 51.9631C143.076 51.6961 142.702 51.0551 142.328 51.3221C140.651 52.5201 118.989 67.1881 119.09 67.1881Z"></path><path id="vector_94" fill="#000000" d="M148.685 68.2001C148.585 68.2571 137.9 74.0811 137.199 74.4501C136.777 74.6731 137.148 75.3081 137.573 75.0911C138.924 74.4031 149.164 68.7911 149.273 68.7341C149.382 68.6771 149.487 68.5211 149.434 68.4141C149.273 66.7581 148.104 54.3141 148.045 53.7231C147.996 53.2421 147.245 53.2421 147.297 53.7231C147.589 56.5431 148.428 65.6331 148.685 68.2001Z"></path><path id="vector_95" fill="#000000" d="M144.465 54.8C144.775 54.206 145.065 53.577 145.373 52.983C145.594 52.56 144.953 52.183 144.732 52.609C144.422 53.203 144.132 53.833 143.824 54.426C143.6 54.844 144.243 55.218 144.465 54.8Z"></path><path id="vector_96" fill="#000000" d="M134.208 73.0111C133.677 74.2285 132.872 75.3071 131.857 76.1631C131.482 76.4821 132.018 77.0171 132.392 76.6971C133.497 75.7477 134.374 74.5608 134.956 73.2251C135.116 72.7441 134.422 72.5841 134.208 73.0111Z"></path><path id="vector_97" fill="#000000" d="M82.7639 88.716C79.0919 92.363 69.7969 101.816 68.7639 102.873C68.4479 103.197 68.9819 103.731 69.2979 103.407C72.9179 99.707 82.2799 90.266 83.3479 89.251C83.6189 88.93 83.0859 88.4 82.7639 88.716Z"></path><path id="vector_98" fill="#000000" d="M96.1189 96.356C96.4399 96.035 95.9059 95.501 95.5849 95.821C92.9139 98.492 90.2969 101.221 87.6259 103.888C87.5719 103.941 87.5719 103.941 87.5719 103.995C87.9999 103.888 88.4799 103.781 88.9079 103.674C91.3119 101.217 93.7149 98.759 96.1189 96.356Z"></path><path id="vector_99" fill="#000000" d="M101.141 113.931C104.293 110.565 107.466 107.322 110.541 103.888C110.87 103.521 110.322 103.028 110.007 103.354C106.8 106.667 103.707 110.085 100.551 113.454C100.774 113.577 100.974 113.738 101.141 113.931V113.931Z"></path><path id="vector_100" fill="#000000" d="M105.094 26.5891C105.311 27.0151 105.956 26.6391 105.735 26.2151C105.062 24.9221 104.346 23.6511 103.705 22.3691C103.491 21.9411 102.84 22.3211 103.064 22.7431C103.727 23.9891 104.41 25.2481 105.094 26.5891Z"></path><path id="vector_101" fill="#000000" d="M184.209 51.322C185.757 50.942 189.285 50.043 189.551 49.987C190.033 49.887 189.818 49.132 189.338 49.287C187.788 49.661 184.261 50.563 183.996 50.623C183.566 50.725 183.781 51.428 184.209 51.322Z"></path><path id="vector_102" fill="#000000" d="M112.145 142.991V146.838C112.145 146.937 112.184 147.032 112.254 147.103C112.325 147.173 112.42 147.212 112.519 147.212C112.618 147.212 112.713 147.173 112.783 147.103C112.853 147.032 112.893 146.937 112.893 146.838V142.991C112.893 142.892 112.853 142.797 112.783 142.727C112.713 142.656 112.618 142.617 112.519 142.617C112.42 142.617 112.325 142.656 112.254 142.727C112.184 142.797 112.145 142.892 112.145 142.991V142.991Z"></path></g></g></g></svg>