<svg xmlns="http://www.w3.org/2000/svg" fill="none" viewBox="0 0 200 200" height="400" width="400"><path fill="#000000" d="M122.2 25.4997C121.212 23.6472 119.985 21.9325 118.55 20.3997C118.526 18.8477 118.425 17.2947 118.301 15.7477C118.268 13.3555 117.461 11.0385 116 9.14368C112.637 4.72868 104.814 7.66668 102.476 14.2037C101.186 17.8117 101.313 21.7207 101.537 25.4907C98.884 24.8637 95.912 24.3707 93.502 25.9657C92.5056 26.6144 91.7662 27.59 91.411 28.7247C91.2675 29.3095 91.2523 29.9184 91.3664 30.5096C91.4805 31.1008 91.7212 31.6603 92.072 32.1497C92.669 32.979 93.3988 33.7041 94.232 34.2957C92.4645 34.2394 90.7112 34.6269 89.132 35.4227C88.2783 35.9239 87.564 36.6314 87.0547 37.4803C86.5454 38.3293 86.2574 39.2925 86.217 40.2817C86.1995 41.7098 86.6915 43.0975 87.6047 44.1956C88.5179 45.2938 89.7926 46.0305 91.2 46.2737C92.9766 43.8419 94.9143 41.5321 97 39.3597C99.961 36.3657 103.689 33.8457 107.922 33.1597C107.938 33.1597 107.952 33.1597 107.967 33.1597L107.985 33.1517C109.7 32.8953 111.447 32.9631 113.137 33.3517L113.155 33.3607C113.166 33.3607 113.179 33.3607 113.189 33.3607C116.863 34.377 120.163 36.4372 122.689 39.2917C125.293 34.8517 124.6 29.9927 122.2 25.4997ZM115.789 20.3677C115.758 22.1237 115.83 25.2927 113.32 25.2947C112.877 25.2962 112.44 25.1919 112.046 24.9905C111.652 24.7891 111.311 24.4963 111.053 24.1367C110.685 23.4886 110.517 22.746 110.571 22.0027C110.52 20.1027 110.627 18.2027 110.678 16.3027C110.674 15.8411 110.789 15.3863 111.012 14.982C111.235 14.5778 111.558 14.2377 111.951 13.9946C112.343 13.7515 112.791 13.6135 113.253 13.5939C113.714 13.5743 114.172 13.6737 114.584 13.8827C114.971 14.2159 115.278 14.6312 115.484 15.0983C115.69 15.5653 115.79 16.0724 115.775 16.5827C115.872 17.8397 115.806 19.1197 115.785 20.3707L115.789 20.3677Z"></path><path fill="#000000" d="M110.112 79.4466C110.039 79.3732 109.939 79.332 109.835 79.332C109.732 79.332 109.632 79.3732 109.559 79.4466C109.486 79.5199 109.444 79.6194 109.444 79.7231C109.444 79.8268 109.486 79.9262 109.559 79.9996C111.432 81.7713 113.9 82.7777 116.477 82.8204C119.055 82.8632 121.555 81.9392 123.486 80.2306C123.856 79.8876 123.302 79.3356 122.933 79.6776C121.147 81.2353 118.847 82.0741 116.478 82.0315C114.109 81.9888 111.84 81.0676 110.112 79.4466V79.4466Z"></path><path fill="#000000" d="M113.416 77.8049C113.022 77.4979 112.473 78.0399 112.863 78.3579C113.918 79.1729 115.204 79.6336 116.536 79.6742C117.869 79.7148 119.18 79.3332 120.283 78.5839C120.683 78.2839 120.296 77.6129 119.888 77.9079C118.942 78.5892 117.801 78.9472 116.635 78.9286C115.469 78.9101 114.34 78.516 113.416 77.8049V77.8049Z"></path><path fill="#000000" d="M106.964 81.6484C106.639 81.2634 106.087 81.8204 106.411 82.2014C107.621 83.6315 109.118 84.7903 110.806 85.6021C112.494 86.414 114.335 86.8606 116.207 86.9129C118.08 86.9652 119.942 86.622 121.673 85.9056C123.403 85.1892 124.963 84.1158 126.251 82.7554C126.598 82.3904 126.051 81.8364 125.698 82.2024C124.483 83.4909 123.009 84.5074 121.373 85.1849C119.737 85.8625 117.976 86.1858 116.207 86.1334C114.437 86.0811 112.698 85.6543 111.105 84.8813C109.512 84.1082 108.1 83.0064 106.964 81.6484V81.6484Z"></path><path fill="#000000" d="M194.25 40.2998L181.55 51.1568C182.013 51.0808 182.479 51.0228 182.95 50.9898L194.8 40.8528C195.186 40.5248 194.631 39.9738 194.25 40.2998Z"></path><path fill="#000000" d="M124.915 65.3685C124.05 63.0705 122.822 60.9262 121.278 59.0175C119.945 57.4775 117.909 56.1095 115.8 56.9235C113.8 57.6945 112.6 59.7805 111.4 61.4325L108.764 65.0775C108.728 65.1405 108.71 65.2124 108.712 65.285C108.714 65.3577 108.736 65.4284 108.776 65.4892C108.816 65.5501 108.871 65.5988 108.937 65.6299C109.003 65.661 109.076 65.6733 109.148 65.6655C109.521 65.6825 110.636 65.6855 114.255 65.7325C114.1 65.3499 114.037 64.9363 114.072 64.525C114.106 64.1137 114.237 63.7162 114.453 63.3645C114.669 63.0129 114.965 62.7169 115.316 62.5005C115.667 62.2841 116.065 62.1532 116.476 62.1185C116.93 62.0787 117.386 62.1584 117.799 62.3499C118.212 62.5413 118.568 62.8376 118.831 63.2094C119.094 63.5812 119.255 64.0154 119.298 64.4688C119.341 64.9222 119.265 65.3789 119.076 65.7935C120.265 65.8085 123.907 65.8625 124.54 65.8635C124.6 65.8628 124.659 65.8484 124.712 65.8214C124.766 65.7945 124.813 65.7556 124.849 65.7078C124.885 65.6601 124.91 65.6047 124.921 65.5458C124.933 65.487 124.931 65.4264 124.915 65.3685V65.3685Z"></path><path fill="#000000" d="M157.453 37.1882C157.128 36.7311 156.678 36.3776 156.156 36.1702C155.635 35.9628 155.065 35.9104 154.515 36.0192C150.515 36.8402 148.1 42.2882 147.063 46.2192C147.277 45.664 147.637 45.1768 148.105 44.8084C148.572 44.44 149.13 44.2041 149.72 44.1254C150.31 44.0467 150.91 44.128 151.458 44.3609C152.005 44.5938 152.48 44.9697 152.833 45.4492C153.862 44.1222 154.98 42.8666 156.179 41.6912C157.3 40.5312 158.408 38.7902 157.453 37.1882Z"></path><path fill="#000000" d="M189.5 76.6209C190.412 72.9554 190.308 69.1109 189.2 65.4999C189.052 65.0199 188.3 65.2249 188.446 65.7069C189.513 69.1825 189.618 72.882 188.752 76.4129C188.724 76.5129 188.738 76.6197 188.789 76.7099C188.84 76.8001 188.925 76.8663 189.025 76.8939C189.125 76.9215 189.232 76.9082 189.322 76.857C189.412 76.8058 189.478 76.7209 189.506 76.6209H189.5Z"></path><path fill="#000000" d="M192.38 63.6765C192.212 63.2055 191.456 63.4085 191.626 63.8845C193.282 68.53 193.252 73.6098 191.542 78.2355C191.368 78.7085 192.124 78.9125 192.297 78.4435C194.048 73.682 194.078 68.4575 192.38 63.6765Z"></path><path fill="#000000" d="M107.76 114.768C107.68 112.781 107.19 110.65 105.444 109.558C104.665 109.147 103.786 108.962 102.908 109.025C102.029 109.087 101.185 109.394 100.472 109.911C98.5637 111.159 97.0948 112.974 96.272 115.1C96.9812 114.204 97.9023 113.499 98.9522 113.047C100.002 112.596 101.148 112.413 102.286 112.515C103.424 112.617 104.519 113.001 105.472 113.631C106.425 114.262 107.206 115.12 107.745 116.128C107.775 115.676 107.78 115.222 107.76 114.768V114.768Z"></path><path fill="#000000" d="M64.4629 29.0494C64.4617 28.7045 64.3916 28.3633 64.2568 28.0458C64.122 27.7283 63.9252 27.4409 63.6779 27.2004C62.3399 26.1454 61.6469 26.7004 60.3859 25.7954C59.8419 25.2804 59.9919 24.3954 59.7859 23.7314C59.5923 23.1676 59.2741 22.6546 58.855 22.2306C58.4359 21.8066 57.9267 21.4825 57.3651 21.2823C56.8036 21.0821 56.2042 21.0109 55.6114 21.0741C55.0186 21.1373 54.4476 21.3333 53.9409 21.6474C53.4768 22.024 53.1037 22.5006 52.8495 23.0416C52.5953 23.5825 52.4665 24.1739 52.4728 24.7716C52.479 25.3693 52.6201 25.9578 52.8856 26.4934C53.1511 27.0289 53.534 27.4975 54.0059 27.8644C54.2699 28.0644 54.6459 28.1894 54.8249 28.4804C54.9626 28.8667 54.9755 29.2864 54.8619 29.6804C54.8123 30.0135 54.8321 30.3534 54.9202 30.6785C55.0084 31.0036 55.1628 31.3069 55.3739 31.5694C56.7049 33.2134 58.9909 32.9274 61.3569 33.4804C61.9864 33.586 62.5662 33.8885 63.0129 34.3444C63.0221 34.3539 63.0318 34.3629 63.0419 34.3714C63.0689 34.4088 63.1037 34.44 63.1438 34.4627C63.184 34.4854 63.2286 34.4992 63.2745 34.5031C63.3205 34.507 63.3668 34.5009 63.4102 34.4853C63.4536 34.4696 63.4931 34.4448 63.5259 34.4124C63.5966 34.3726 63.6521 34.3104 63.6835 34.2356C63.715 34.1609 63.7208 34.0778 63.6999 33.9994C63.2589 32.4044 64.4719 31.2374 64.4629 29.0494Z"></path><path fill="#000000" d="M51.0369 32.8861C50.1377 35.1212 50.0107 37.5926 50.6759 39.9081C50.7035 40.0081 50.7697 40.093 50.8599 40.1442C50.9501 40.1954 51.0569 40.2087 51.1569 40.1811C51.2569 40.1535 51.3418 40.0873 51.393 39.9971C51.4442 39.9069 51.4575 39.8001 51.4299 39.7001C50.8464 37.5155 50.9728 35.202 51.7909 33.0941C51.9769 32.6261 51.2199 32.4221 51.0369 32.8861Z"></path><path fill="#000000" d="M47.891 31.5449C46.6722 34.4978 46.3505 37.7443 46.966 40.8789C47.066 41.3719 47.815 41.1639 47.72 40.6709C47.1455 37.6718 47.4676 34.57 48.646 31.7529C48.839 31.2889 48.082 31.0859 47.891 31.5449Z"></path><path fill="#000000" d="M103.692 105.07C101.975 104.898 100.241 105.049 98.58 105.515C98.4815 105.543 98.3983 105.61 98.3482 105.699C98.2982 105.789 98.2854 105.895 98.3125 105.994C98.3397 106.093 98.4047 106.177 98.4934 106.228C98.5822 106.28 98.6876 106.294 98.787 106.269C107.323 104.064 113.996 109.912 113.837 116.535C113.837 116.638 113.878 116.738 113.952 116.811C114.025 116.885 114.124 116.926 114.228 116.926C114.332 116.926 114.431 116.885 114.504 116.811C114.578 116.738 114.619 116.638 114.619 116.535C114.763 111.115 110.4 105.661 103.692 105.07Z"></path><path fill="#000000" d="M91.8581 13.6188C89.5481 12.2248 84.1831 9.18683 83.8481 8.99983C83.8037 8.97389 83.7547 8.95694 83.7039 8.94994C83.653 8.94294 83.6012 8.94603 83.5516 8.95903C83.4512 8.98528 83.3654 9.05032 83.3131 9.13983C83.2607 9.22934 83.246 9.33599 83.2723 9.43632C83.2985 9.53666 83.3636 9.62245 83.4531 9.67483C85.7651 11.0668 91.1281 14.1068 91.4641 14.2938C91.5533 14.3421 91.6579 14.3537 91.7556 14.3263C91.8533 14.2989 91.9365 14.2346 91.9876 14.1469C92.0388 14.0593 92.0539 13.9552 92.0297 13.8567C92.0055 13.7581 91.944 13.6728 91.8581 13.6188V13.6188Z"></path><path fill="#000000" d="M91.661 17.2884L79.621 16.6384C79.121 16.6114 79.121 17.3934 79.621 17.4204L91.661 18.0704C92.164 18.0994 92.163 17.3154 91.661 17.2884Z"></path><path fill="#000000" d="M91.1121 21.1115C88.8591 22.3645 83.4531 25.5115 83.4531 25.5115C83.3636 25.5638 83.2985 25.6496 83.2723 25.75C83.246 25.8503 83.2607 25.957 83.3131 26.0465C83.3654 26.136 83.4512 26.201 83.5516 26.2273C83.6519 26.2535 83.7585 26.2388 83.8481 26.1865C86.1001 24.9325 91.1921 21.9765 91.5061 21.7865C91.592 21.7325 91.6535 21.6472 91.6777 21.5486C91.7019 21.4501 91.6868 21.346 91.6356 21.2583C91.5845 21.1707 91.5013 21.1064 91.4036 21.079C91.3059 21.0516 91.2013 21.0632 91.1121 21.1115V21.1115Z"></path><path fill="#000000" d="M5.64997 43.1136C5.24997 42.8076 4.86097 43.4866 5.24997 43.7886L18.269 53.7886C18.304 53.4886 18.336 53.1886 18.369 52.8886L5.64997 43.1136Z"></path><path fill="#000000" d="M100.6 117.953H96.4699C96.3662 117.953 96.2667 117.994 96.1934 118.068C96.12 118.141 96.0789 118.24 96.0789 118.344C96.0789 118.448 96.12 118.547 96.1934 118.621C96.2667 118.694 96.3662 118.735 96.4699 118.735H100.6C100.704 118.735 100.803 118.694 100.876 118.621C100.95 118.547 100.991 118.448 100.991 118.344C100.991 118.24 100.95 118.141 100.876 118.068C100.803 117.994 100.704 117.953 100.6 117.953V117.953Z"></path><path fill="#000000" d="M105.592 117.952C105.488 117.952 105.389 117.994 105.315 118.067C105.242 118.14 105.201 118.24 105.201 118.343C105.201 118.447 105.242 118.546 105.315 118.62C105.389 118.693 105.488 118.734 105.592 118.734H109.719C109.823 118.73 109.921 118.686 109.991 118.61C110.062 118.534 110.1 118.433 110.097 118.329C110.094 118.23 110.053 118.136 109.983 118.065C109.913 117.995 109.818 117.955 109.719 117.952C108.273 117.927 107.04 117.927 105.592 117.952Z"></path><path fill="#000000" d="M103.841 120.625C103.762 120.795 103.635 120.938 103.477 121.038C103.319 121.139 103.135 121.191 102.948 121.191C102.761 121.19 102.578 121.135 102.42 121.034C102.263 120.932 102.138 120.788 102.06 120.617C102.032 120.517 101.966 120.432 101.876 120.381C101.786 120.33 101.679 120.317 101.579 120.344C101.479 120.372 101.394 120.438 101.343 120.528C101.292 120.618 101.278 120.725 101.306 120.825C101.431 121.16 101.656 121.448 101.949 121.652C102.242 121.856 102.591 121.966 102.948 121.967C103.306 121.968 103.655 121.86 103.949 121.657C104.244 121.455 104.469 121.167 104.596 120.833C104.618 120.735 104.602 120.632 104.55 120.545C104.498 120.459 104.415 120.396 104.318 120.369C104.221 120.342 104.117 120.354 104.028 120.402C103.939 120.449 103.872 120.529 103.841 120.625V120.625Z"></path><path fill="#000000" d="M148.576 27.7429C147.597 28.2006 146.703 28.8226 145.934 29.5819C145.359 28.1139 144.402 26.8265 143.162 25.8532C141.922 24.8799 140.443 24.2563 138.881 24.0469C138.381 23.9809 138.388 24.7609 138.881 24.8289C140.344 25.0252 141.722 25.6278 142.859 26.5682C143.997 27.5086 144.847 28.7492 145.315 30.1489C145.383 30.3579 145.955 30.6969 146.215 30.4079C146.986 29.5612 147.925 28.8839 148.972 28.4189C149.428 28.2109 149.031 27.5349 148.576 27.7429Z"></path><path fill="#000000" d="M81.0559 132.079C80.3832 132.835 79.9564 133.778 79.8325 134.782C79.7085 135.786 79.8932 136.804 80.3619 137.7C80.9744 138.787 81.3589 139.988 81.4919 141.228C81.471 141.741 81.2596 142.228 80.8989 142.593C80.5383 142.958 80.0545 143.176 79.5419 143.203C76.9689 143.377 74.9999 141.275 72.4919 141.103C71.8961 141.061 71.3001 141.184 70.7704 141.461C70.2408 141.737 69.7981 142.154 69.4919 142.667C67.7509 146.247 71.0919 149.288 70.9919 152.751C71.0151 153.312 70.858 153.865 70.5438 154.33C70.2296 154.795 69.7748 155.148 69.2459 155.335C68.0075 155.585 66.7207 155.342 65.6579 154.659C63.7179 153.681 61.7719 151.959 59.1089 152.35C58.5622 152.438 58.0508 152.677 57.6326 153.04C57.2143 153.403 56.9058 153.875 56.7419 154.404C56.4378 155.687 56.6398 157.038 57.3059 158.175C57.9219 159.397 58.8359 160.46 59.3379 161.744C59.529 162.261 59.6053 162.812 59.5615 163.361C59.5177 163.91 59.3548 164.443 59.0842 164.922C58.8136 165.402 58.4418 165.817 57.9947 166.138C57.5475 166.459 57.0357 166.679 56.4949 166.782C53.7619 167.268 52.8189 164.66 50.6519 163.53C49.9117 163.191 49.0927 163.06 48.2836 163.153C47.4745 163.245 46.7062 163.557 46.0617 164.055C45.4173 164.553 44.9213 165.218 44.6275 165.977C44.3337 166.737 44.2533 167.562 44.3949 168.364C44.9999 171.801 47.9599 173.756 47.9779 176.937C47.8219 179.531 45.0779 180.953 42.6009 180.198C39.4159 179.226 38.6409 176.122 35.3559 176.032C34.7167 176.01 34.081 176.136 33.4987 176.401C32.9164 176.666 32.4034 177.062 31.9999 177.558C30.7459 179.126 31.2269 181.124 31.9829 182.802C33.0049 185.074 35.3059 188.036 34.1399 190.371C33.8288 190.884 33.3962 191.313 32.8804 191.62C32.3646 191.926 31.7813 192.101 31.1819 192.129C29.6878 192.116 28.2125 191.795 26.8479 191.186C26.3749 191.012 26.1709 191.767 26.6399 191.94C28.0705 192.574 29.6171 192.905 31.1819 192.911C33.7099 192.755 35.6729 190.889 35.1459 188.068C34.6459 185.377 32.6929 183.443 32.1049 180.809C31.957 180.304 31.9386 179.77 32.0516 179.256C32.1646 178.742 32.4053 178.264 32.7515 177.868C33.0977 177.471 33.5382 177.168 34.0323 176.986C34.5265 176.805 35.0584 176.751 35.5789 176.829C38.4139 177.043 39.0119 180.235 42.9139 181.083C43.5259 181.232 44.1611 181.258 44.7832 181.16C45.4053 181.062 46.0019 180.843 46.5389 180.514C47.0758 180.185 47.5424 179.753 47.9119 179.243C48.2814 178.733 48.5465 178.155 48.6919 177.542C49.0919 175.402 47.7829 173.487 46.7259 171.742C45.6909 170.034 44.3969 167.81 45.5259 165.837C45.7771 165.357 46.1332 164.938 46.5677 164.614C47.0023 164.289 47.5042 164.066 48.0365 163.962C48.5687 163.857 49.1177 163.874 49.6427 164.01C50.1678 164.146 50.6555 164.398 51.0699 164.748C51.9569 165.612 52.9087 166.407 53.9169 167.126C57.0629 168.92 61.1029 165.658 60.2689 162.139C59.827 160.818 59.1801 159.575 58.3519 158.454C57.9597 157.922 57.6789 157.315 57.5261 156.672C57.3734 156.028 57.3519 155.36 57.4629 154.708C58.2119 152.121 61.5119 153.193 63.1479 154.108C64.2348 154.81 65.3828 155.413 66.5779 155.908C67.1406 156.147 67.7485 156.262 68.3597 156.243C68.9708 156.225 69.5707 156.074 70.1179 155.801C72.4469 154.423 71.8379 151.366 71.0419 149.27C70.4289 147.653 68.9729 144.61 70.3329 142.808C70.7499 142.355 71.3002 142.046 71.9043 141.926C72.5084 141.805 73.1351 141.88 73.6939 142.139C75.8349 142.817 77.7839 144.663 80.5539 143.76C81.0679 143.545 81.5061 143.181 81.8124 142.715C82.1187 142.249 82.2794 141.703 82.2739 141.145C82.2579 138.672 79.8109 136.607 80.8349 133.902C81.0779 133.265 81.4833 132.703 82.0109 132.271C83.9109 130.722 86.3389 131.771 88.1929 130.13C88.6029 129.826 88.9142 129.408 89.0879 128.927C89.2617 128.447 89.2902 127.927 89.1699 127.43C89.1386 127.335 89.0716 127.255 88.9828 127.207C88.8941 127.159 88.7904 127.147 88.6932 127.174C88.5961 127.201 88.513 127.264 88.4611 127.351C88.4093 127.437 88.3928 127.54 88.4149 127.638C88.5081 127.983 88.4924 128.348 88.3699 128.683C88.2474 129.019 88.0242 129.308 87.7309 129.511C85.7839 131.159 83.1469 129.791 81.0559 132.079Z"></path><g><path fill="#000000" d="M123.532 80.2772C123.964 79.8772 123.317 79.2332 122.887 79.6322C121.115 81.18 118.83 82.0136 116.478 81.9709C114.125 81.9282 111.873 81.0123 110.158 79.4012C110.072 79.3156 109.956 79.2676 109.835 79.2676C109.715 79.2676 109.599 79.3156 109.513 79.4012C109.427 79.4867 109.379 79.6027 109.379 79.7237C109.379 79.8446 109.427 79.9606 109.513 80.0462C111.397 81.832 113.882 82.8464 116.478 82.8892C119.073 82.932 121.59 81.9999 123.532 80.2772V80.2772Z"></path><path fill="#000000" d="M112.818 78.4C113.883 79.2256 115.182 79.6931 116.53 79.7355C117.877 79.7779 119.203 79.393 120.318 78.636C120.42 78.5727 120.494 78.4727 120.524 78.3566C120.555 78.2406 120.54 78.1172 120.482 78.012C120.452 77.9602 120.412 77.9149 120.364 77.8786C120.316 77.8424 120.262 77.8159 120.204 77.8006C120.146 77.7854 120.086 77.7818 120.026 77.7899C119.967 77.798 119.91 77.8177 119.858 77.848C118.92 78.5131 117.796 78.8627 116.646 78.846C115.497 78.8292 114.383 78.4471 113.465 77.755C113 77.4 112.362 78.033 112.818 78.4Z"></path><path fill="#000000" d="M125.653 82.1558C124.444 83.438 122.977 84.4495 121.349 85.1236C119.721 85.7976 117.968 86.119 116.207 86.0664C114.445 86.0139 112.715 85.5887 111.13 84.8188C109.544 84.0489 108.14 82.9518 107.01 81.5998C106.631 81.1508 105.988 81.7998 106.365 82.2448C107.582 83.6791 109.088 84.841 110.784 85.6549C112.48 86.4689 114.328 86.9166 116.209 86.9689C118.089 87.0213 119.96 86.6771 121.698 85.9588C123.437 85.2405 125.005 84.1641 126.3 82.7998C126.7 82.3758 126.058 81.7298 125.653 82.1558Z"></path><path fill="#000000" d="M5.68297 43.058C5.57842 42.9977 5.45431 42.9809 5.33752 43.0115C5.22072 43.042 5.12065 43.1172 5.05897 43.221C5.00038 43.3261 4.98463 43.4498 5.01499 43.5662C5.04536 43.6827 5.11951 43.7829 5.22197 43.846C6.71597 44.992 17.748 53.464 18.206 53.816C17.99 55.716 16.894 65.495 16.521 68.486C16.1276 71.0743 15.9254 73.688 15.916 76.306C16.016 80.669 17.216 85.444 20.848 88.206C24.921 91.301 31.479 92.206 36.386 91.293C40.629 90.617 42.931 87.704 44.815 83.8C46.0097 81.4524 46.9723 78.9938 47.689 76.459L82.408 103.119C80.591 104.943 79.3148 107.235 78.721 109.74C78.357 107.489 77.632 105.259 75.837 103.84C75.2991 103.361 74.6199 103.071 73.9021 103.012C73.1843 102.954 72.467 103.131 71.859 103.517C70.507 104.504 70.752 106.274 71.21 107.666C71.844 109.59 72.545 111.493 73.222 113.402C60.3649 114.155 47.5926 115.976 35.037 118.844C29.3215 119.865 23.8158 121.83 18.745 124.658C11.987 128.412 11.31 130.473 10.514 134.646C9.22797 141.852 9.11397 151.146 8.94497 158.925C8.80524 162.394 8.89076 165.868 9.20097 169.325C9.39015 172.183 9.94122 175.006 10.841 177.725C11.9174 180.396 13.6679 182.743 15.9216 184.536C18.1753 186.328 20.8552 187.507 23.7 187.955C27.243 188.383 30.829 188.597 34.392 188.869C34.388 189.719 34.0479 190.532 33.4461 191.132C32.8442 191.731 32.0295 192.068 31.18 192.069C29.6916 192.056 28.222 191.735 26.863 191.128C26.311 190.928 26.073 191.806 26.62 192.008C28.0564 192.644 29.609 192.976 31.18 192.982C31.7156 192.988 32.2472 192.888 32.7442 192.688C33.2411 192.488 33.6936 192.192 34.0756 191.816C34.4577 191.441 34.7617 190.993 34.9703 190.5C35.1789 190.007 35.2878 189.477 35.291 188.941C35.363 188.947 62.971 190.941 70.781 191.36C86.189 192.168 101.621 192.6 117.051 192.428C132.811 192.254 159.958 191.002 174.668 188.436C177.746 187.899 180.743 187.323 183.329 185.465C185.572 183.857 187.299 181.631 188.3 179.059C190.062 174.537 190.289 167.969 190.467 163.01C190.649 157.981 190.631 152.946 190.321 147.924C190.038 142.949 189.072 138.036 187.451 133.324C186.676 131.033 185.594 128.858 184.233 126.858C182.824 124.88 180.894 123.331 178.658 122.383C168.696 118.483 144.944 116.851 141.908 116.483C137.321 115.84 133.821 110.65 129.195 109.597C128.032 109.38 126.837 109.405 125.684 109.671C124.531 109.937 123.445 110.437 122.495 111.142C120.481 112.662 118.726 114.497 117.295 116.575C116.948 116.952 116.711 117.417 116.608 117.919C116.506 118.421 116.542 118.941 116.713 119.424C117.467 121.243 119.948 121.649 121.629 120.747C124.757 119.096 125.479 117.973 127.888 117.63C128.427 117.588 128.657 117.771 128.381 118.289C128.145 118.743 127.841 119.159 127.481 119.523C123.542 123.976 125.53 130.93 130.681 130.559C130.387 131.653 130.369 132.802 130.629 133.905C130.889 135.007 131.418 136.028 132.169 136.875C133.702 138.427 136.25 139.045 138.033 137.547C138.74 136.936 139.202 136.09 139.333 135.165C141.986 136.7 144.733 138.076 147.306 139.742C150.253 141.492 152.71 143.958 154.451 146.91C155.885 149.118 156.64 150.132 157.893 152.3C137.416 146.513 121.506 144.707 104.422 145.143C92.602 145.443 81.688 146.203 70.431 147.51C68.864 143.383 70.608 141.231 73.68 142.204C75.816 142.881 77.78 144.734 80.574 143.824C81.1023 143.605 81.5531 143.233 81.8684 142.756C82.1836 142.279 82.3489 141.719 82.343 141.147C82.1929 139.861 81.7984 138.616 81.181 137.479C80.8058 136.777 80.634 135.985 80.6851 135.191C80.7361 134.397 81.008 133.633 81.47 132.985C83.77 136.81 88.35 140.619 92.789 140.017C93.7142 139.883 94.596 139.537 95.3653 139.006C96.1347 138.475 96.7708 137.773 97.224 136.955C97.7045 136.163 97.9098 135.235 97.808 134.314C97.7061 133.394 97.3029 132.533 96.661 131.865C94.209 129.697 90.761 133.03 88.285 130.138C88.6914 129.825 88.9977 129.4 89.1666 128.916C89.3355 128.432 89.3596 127.909 89.236 127.411C89.1993 127.3 89.1211 127.206 89.0177 127.151C88.9142 127.096 88.7933 127.082 88.6802 127.113C88.567 127.145 88.4703 127.218 88.4099 127.319C88.3495 127.419 88.3302 127.539 88.356 127.654C88.4436 127.974 88.4325 128.312 88.3242 128.626C88.2159 128.939 88.0153 129.212 87.749 129.409C87.385 128.818 87.1359 128.163 87.015 127.479C86.7632 125.851 86.8621 124.187 87.305 122.6C87.5863 122.903 87.9335 123.137 88.3198 123.285C88.7061 123.433 89.1211 123.489 89.5328 123.451C89.9446 123.413 90.342 123.281 90.6946 123.065C91.0471 122.849 91.3453 122.555 91.5662 122.205C91.787 121.855 91.9246 121.46 91.9684 121.049C92.0121 120.637 91.9609 120.222 91.8185 119.833C91.6762 119.445 91.4466 119.095 91.1474 118.809C90.8482 118.524 90.4875 118.311 90.093 118.187C89.673 118.053 89.2258 118.026 88.793 118.111C89.8814 115.671 91.4064 113.451 93.293 111.559L96.632 114.159C96.479 114.459 96.341 114.759 96.212 115.071C95.5076 115.962 95.0318 117.012 94.8261 118.129C94.6204 119.245 94.691 120.396 95.0318 121.479C95.3726 122.563 95.9733 123.546 96.7814 124.344C97.5895 125.142 98.5806 125.73 99.6682 126.058C100.756 126.385 101.907 126.441 103.021 126.221C104.135 126.001 105.179 125.512 106.061 124.797C106.943 124.081 107.636 123.161 108.081 122.116C108.526 121.071 108.708 119.933 108.612 118.801H109.712C109.829 118.796 109.94 118.745 110.021 118.66C110.102 118.575 110.148 118.462 110.148 118.345C110.148 118.227 110.102 118.114 110.021 118.029C109.94 117.944 109.829 117.894 109.712 117.888H108.468C108.324 117.271 108.103 116.675 107.809 116.114C107.825 116.029 107.817 116.15 107.824 115.828C109.411 114.449 110.996 113.068 112.579 111.684C113.399 113.167 113.809 114.842 113.765 116.536C113.765 116.657 113.813 116.773 113.899 116.858C113.984 116.944 114.1 116.992 114.221 116.992C114.342 116.992 114.458 116.944 114.543 116.858C114.629 116.773 114.677 116.657 114.677 116.536C114.707 114.623 114.224 112.736 113.277 111.073C113.513 110.867 140.207 87.007 140.352 86.866C147.86 89.015 153.352 90.881 159.144 92.16C160.886 92.5918 162.677 92.7912 164.471 92.753C167.95 92.5858 171.291 91.3347 174.024 89.1749C176.757 87.015 178.746 84.0546 179.713 80.708C181.952 73.459 183.162 65.733 181.06 58.443C182.532 57.7766 183.936 56.9674 185.25 56.027C186.15 55.363 187.542 54.319 187.266 53.038C186.874 51.228 184.966 50.81 183.121 50.916L194.849 40.9C195.297 40.518 194.649 39.875 194.204 40.255L181.519 51.1C179.531 51.43 177.504 52.1 176.125 52.406C176.325 51.032 178.425 47.928 178.867 47.027C179.098 46.5832 179.227 46.0933 179.244 45.5933C179.261 45.0933 179.167 44.5958 178.967 44.137C178.682 43.6368 178.232 43.2505 177.695 43.0434C177.158 42.8362 176.565 42.8209 176.018 43C175.387 43.1631 174.793 43.4418 174.264 43.822C172.249 45.2522 170.398 46.9013 168.746 48.739C168.768 47.072 168.781 45.404 168.772 43.739C168.802 42.4873 168.759 41.2348 168.644 39.988C168.452 38.434 167.751 36.816 166.008 36.588C164.008 36.329 162.596 38.1 161.908 39.749C161.23 41.4836 160.692 43.2696 160.299 45.09C159.279 49.7341 158.774 54.4763 158.791 59.231C155.534 58.1302 152.152 57.4409 148.724 57.179C148.825 54.9983 148.946 52.8183 149.087 50.639C149.767 50.871 150.503 50.8802 151.189 50.6654C151.875 50.4506 152.474 50.0228 152.9 49.4443C153.327 48.8657 153.557 48.1664 153.559 47.4479C153.561 46.7293 153.334 46.0288 152.911 45.448C153.93 44.1375 155.036 42.897 156.222 41.735C157.368 40.558 158.478 38.787 157.506 37.158C157.172 36.6906 156.71 36.3291 156.176 36.1164C155.643 35.9036 155.059 35.8487 154.495 35.958C152.683 36.4367 151.119 37.5853 150.121 39.172C150.273 38.028 150.452 36.842 150.705 35.699C150.798 34.9694 151.032 34.265 151.395 33.625C151.495 33.543 151.628 33.336 152.044 32.952C154.073 31.1 157.184 30.352 159.694 29.021C160.796 28.526 161.754 27.7577 162.477 26.789C162.811 26.2787 162.944 25.6626 162.85 25.06C162.34 23.098 160.035 22.76 158.209 23.445C157.148 23.758 156.091 24.088 155.036 24.421L159.186 21.811C159.877 21.4992 160.472 21.0078 160.908 20.388C161.608 18.969 160.062 17.541 158.434 17.843C157.598 18.0103 156.783 18.2685 156.003 18.613C154.568 19.1811 153.173 19.8473 151.829 20.607C153.139 19.3724 154.366 18.0529 155.502 16.657C155.723 16.3105 155.815 15.8979 155.763 15.4904C155.712 15.083 155.519 14.7064 155.219 14.426C153.799 13.064 151.733 14.193 150.361 15.038C145.929 17.957 145.453 19.369 141.522 21.32C140.012 22.0969 138.301 22.3952 136.617 22.175C133.929 21.794 132.59 19.368 129.946 19.091C129.244 19.0208 128.539 19.1803 127.936 19.5455C127.332 19.9107 126.864 20.4618 126.601 21.116C126.206 23.405 128.756 25.051 130.965 25.742C131.1 32.223 130.499 43.907 130.136 50.428C127.712 46.028 125.836 42.591 122.765 39.288C126.411 33.009 123.451 25.611 118.607 20.376C118.583 18.833 118.507 17.287 118.359 15.751C118.328 13.3413 117.514 11.0071 116.041 9.10001C115.633 8.52387 115.106 8.04279 114.494 7.68979C113.883 7.33679 113.203 7.12025 112.5 7.05501C107.99 6.55501 103.858 10.017 102.4 14.186C101.09 17.763 101.233 21.658 101.454 25.408C98.806 24.786 95.832 24.288 93.454 25.908C92.4374 26.5604 91.6856 27.5527 91.333 28.708C91.1878 29.3011 91.1722 29.9186 91.2873 30.5183C91.4024 31.118 91.6455 31.6858 92 32.183C92.5664 32.9709 93.2543 33.6638 94.038 34.236C92.3182 34.2024 90.6163 34.5904 89.081 35.366C88.2186 35.8745 87.4972 36.5907 86.9825 37.4494C86.4678 38.308 86.1761 39.2818 86.134 40.282C86.115 41.7093 86.6 43.0975 87.5038 44.2024C88.4076 45.3072 89.6722 46.0578 91.075 46.322C89.4538 48.5306 87.6918 50.6323 85.8 52.614C80.967 49.153 73.369 48.33 67.42 48.514C56.176 48.889 46.829 52.914 38.1 63.756C38.24 62.74 39.584 52.974 40.115 49.108C41.527 48.972 45.768 48.574 46.472 48.481C47.0484 48.4156 47.5946 48.1889 48.048 47.827C48.4223 47.4548 48.6606 46.9675 48.7245 46.4435C48.7883 45.9195 48.674 45.3892 48.4 44.938C46.353 41.514 41.285 44.292 39.779 42.048C39.922 40.807 41.248 35.678 41.948 31.848C42.4365 29.9802 42.552 28.0345 42.288 26.122C41.588 22.952 38.719 22.122 36.496 24.322C35.2188 25.7635 34.3984 27.5517 34.139 29.46C33.577 32.281 33.282 33.36 32.73 36.514C31.384 34.414 28.067 28.837 26.089 26.865C25.7828 26.5895 25.4196 26.3852 25.0252 26.2665C24.6308 26.1479 24.2151 26.1179 23.8078 26.1788C23.4005 26.2397 23.0117 26.3899 22.6692 26.6186C22.3268 26.8474 22.0392 27.1491 21.827 27.502C20.738 29.367 21.605 31.202 22.203 33.362C22.503 34.427 23.688 38.903 23.99 40.075C21.901 38.965 19.814 37.851 17.747 36.7C17.0138 36.1987 16.1694 35.884 15.287 35.783C14.8374 35.7594 14.3886 35.8424 13.9773 36.0253C13.5659 36.2081 13.2036 36.4856 12.9199 36.8352C12.6362 37.1847 12.4391 37.5963 12.3448 38.0365C12.2504 38.4767 12.2614 38.9329 12.377 39.368C12.7462 40.3559 13.36 41.2339 14.161 41.92C15.707 43.5262 17.3551 45.031 19.095 46.425C18.823 48.537 18.5666 50.6513 18.326 52.768L5.68297 43.058ZM154.01 144.652C150.396 139.419 143.704 136.817 139.149 134.006C139.08 133.965 139.001 133.942 138.92 133.942C138.839 133.941 138.76 133.962 138.69 134.002C138.62 134.042 138.562 134.1 138.522 134.17C138.482 134.24 138.461 134.319 138.462 134.4C138.491 134.819 138.429 135.24 138.279 135.632C138.13 136.025 137.897 136.381 137.597 136.674C137.296 136.968 136.936 137.193 136.54 137.334C136.144 137.474 135.722 137.527 135.304 137.489C132.716 137.234 130.545 134.28 131.709 130.165C132.284 128.132 134.643 126.865 136.575 126.557C136.691 126.524 136.79 126.447 136.849 126.342C136.909 126.237 136.925 126.113 136.894 125.996C136.859 125.881 136.782 125.783 136.677 125.724C136.573 125.665 136.45 125.648 136.333 125.677C134.182 126.025 131.664 127.443 130.924 129.62C130.109 129.736 129.277 129.592 128.549 129.207C127.821 128.821 127.234 128.216 126.871 127.476C126.44 126.504 126.251 125.442 126.322 124.381C126.392 123.319 126.72 122.291 127.276 121.385C128.076 119.963 128.528 119.926 129.127 118.826C129.359 118.428 129.431 117.956 129.327 117.507C129.24 117.273 129.083 117.071 128.879 116.928C128.674 116.786 128.431 116.708 128.181 116.707C126 116.745 124.996 117.713 122.107 119.407C121.626 119.735 121.108 120.006 120.565 120.216C119.496 120.493 117.957 120.216 117.512 118.975C117.162 117.886 118.126 116.965 118.752 116.182C120.969 113.325 123.859 110.392 127.476 110.326C131.093 110.26 134.155 113.543 137.524 115.674C139.147 116.805 141.064 117.439 143.042 117.5C151.626 118.1 166.964 119.9 175.283 122.182C177.606 122.688 179.774 123.742 181.606 125.257C183.298 126.849 184.625 128.788 185.498 130.941C187.424 135.349 188.644 140.033 189.115 144.82C189.694 150.654 189.846 156.522 189.571 162.378C179.507 158.956 169.402 155.534 159.158 152.648C157.575 149.9 155.81 147.259 154.01 144.652ZM106.487 146.019C106.559 147.988 106.41 151.674 105.011 153.134C103.247 154.976 100.169 153.647 99.43 151.083C98.9741 149.497 98.6326 147.881 98.408 146.246C101.1 146.14 103.793 146.058 106.487 146.019V146.019ZM97.419 146.285C97.867 148.485 98.146 151.392 99.471 153.118C99.8594 153.646 100.362 154.079 100.942 154.385C101.522 154.691 102.164 154.861 102.819 154.883C107.238 155.163 107.511 149.341 107.452 146.007C111.033 145.971 114.613 146.007 118.189 146.192C142.718 147.504 166.261 155.412 189.544 163.328C189.492 166.936 189.178 170.535 188.606 174.097C188.042 177.258 187.201 180.269 185.025 182.719C183.134 184.833 180.621 186.294 177.848 186.891C174.016 187.696 170.144 188.3 166.248 188.7C123.443 193.546 77.874 191.468 35.197 188.007C34.623 185.16 32.76 183.456 32.165 180.793C32.0195 180.297 32.0015 179.773 32.1126 179.268C32.2237 178.764 32.4603 178.295 32.8005 177.906C33.1407 177.518 33.5735 177.221 34.0588 177.044C34.5441 176.867 35.0663 176.815 35.577 176.893C37.126 177.01 38.103 178.108 39.163 179.103C42.972 182.874 48.023 181.247 48.753 177.558C49.128 175.393 47.848 173.471 46.78 171.708C45.759 170.022 44.475 167.822 45.58 165.868C45.8435 165.414 46.1951 165.018 46.6141 164.702C47.0331 164.386 47.5111 164.157 48.02 164.028C50.72 163.403 51.82 166.005 53.88 167.18C57.068 169.004 61.18 165.706 60.329 162.12C59.8856 160.794 59.2367 159.545 58.406 158.42C58.0178 157.895 57.7395 157.297 57.5878 156.663C57.4361 156.028 57.414 155.369 57.523 154.725C58.258 152.187 61.517 153.271 63.112 154.166C64.204 154.869 65.3574 155.471 66.558 155.966C67.1289 156.208 67.7455 156.323 68.3653 156.304C68.9851 156.285 69.5933 156.131 70.148 155.854C72.505 154.454 71.909 151.375 71.102 149.248C70.991 148.955 70.875 148.666 70.76 148.377C79.523 147.369 88.174 146.67 97.419 146.285V146.285ZM70.919 152.756C70.9421 153.303 70.7895 153.842 70.4836 154.296C70.1777 154.75 69.7345 155.094 69.219 155.277C67.9975 155.522 66.7288 155.282 65.681 154.608C63.733 153.626 61.767 151.896 59.081 152.292C58.523 152.383 58.0014 152.627 57.5749 152.998C57.1484 153.369 56.8339 153.852 56.667 154.392C56.3575 155.692 56.5625 157.061 57.239 158.213C57.852 159.429 58.763 160.488 59.264 161.766C60.637 165.266 56.188 168.428 53.511 165.812C52.652 164.934 51.7004 164.152 50.673 163.479C49.9216 163.134 49.09 163.001 48.2684 163.094C47.4468 163.188 46.6664 163.505 46.012 164.01C45.3576 164.516 44.8541 165.191 44.556 165.962C44.2579 166.734 44.1766 167.572 44.321 168.386C44.873 171.773 47.883 173.741 47.902 176.942C47.747 179.507 44.992 180.9 42.602 180.142C39.464 179.225 38.666 176.05 35.34 175.974C34.6931 175.954 34.0502 176.082 33.4607 176.349C32.8713 176.616 32.351 177.015 31.94 177.515C30.683 179.123 31.14 181.131 31.913 182.838C32.686 184.545 33.813 186.113 34.257 187.938C33.423 187.87 27.941 187.375 26.029 187.256C24.3962 187.173 22.7792 186.896 21.212 186.431C18.3506 185.373 15.8232 183.571 13.89 181.211C12.1656 178.957 11.0554 176.295 10.668 173.484C9.95733 169.266 9.66924 164.987 9.80797 160.711C29.4357 154.969 49.5098 150.88 69.82 148.489C70.4762 149.821 70.8517 151.273 70.923 152.756H70.919ZM79.899 134.028C79.076 137.187 81.489 138.882 81.423 141.228C81.4057 141.725 81.2023 142.197 80.8531 142.551C80.5039 142.905 80.0345 143.114 79.538 143.138C76.538 143.263 75.392 141.21 72.488 141.038C71.8797 140.993 71.271 141.119 70.7306 141.402C70.1902 141.684 69.7397 142.113 69.43 142.638C68.9497 143.653 68.8131 144.796 69.041 145.895C69.1471 146.48 69.3006 147.055 69.5 147.615C61.924 148.515 54.571 149.592 46.483 151.077C55.655 143.45 68.652 133.889 79.796 129.137C80.0853 130.156 80.4763 131.143 80.963 132.083C80.4604 132.639 80.0962 133.305 79.9 134.028H79.899ZM87.526 130.665C88.0698 131.302 88.7731 131.782 89.5638 132.058C90.3545 132.333 91.2042 132.394 92.026 132.233C92.9877 132.01 93.9786 131.941 94.962 132.028C97.416 132.528 97.818 136.361 94.671 138.368C90.556 140.991 84.661 136.637 82.11 132.303C83.706 130.984 85.738 131.637 87.53 130.665H87.526ZM91.04 120.991C91.0035 121.278 90.8974 121.551 90.731 121.788C90.5647 122.024 90.343 122.216 90.0853 122.347C89.8277 122.479 89.5419 122.545 89.2528 122.54C88.9638 122.535 88.6802 122.46 88.4269 122.321C88.1736 122.182 87.9581 121.983 87.7994 121.741C87.6406 121.499 87.5434 121.223 87.5161 120.935C87.4888 120.647 87.5322 120.357 87.6427 120.09C87.7532 119.823 87.9274 119.586 88.15 119.402C88.422 119.168 88.7592 119.022 89.1164 118.984C89.4735 118.947 89.8337 119.019 90.1485 119.192C90.4633 119.365 90.7178 119.63 90.8778 119.951C91.0379 120.273 91.0958 120.636 91.044 120.991H91.04ZM87.552 118.691C87.1559 119.017 86.8616 119.45 86.7037 119.939C86.5458 120.427 86.531 120.951 86.661 121.447C85.944 124.194 85.483 127.525 86.983 129.921C85.483 130.681 83.325 130.192 81.647 131.456C81.1688 130.477 80.797 129.449 80.538 128.391C80.5055 128.275 80.4283 128.176 80.3231 128.116C80.218 128.057 80.0935 128.041 79.977 128.073C68.286 132.936 54.361 143.231 44.642 151.423C32.799 153.653 21.284 156.408 9.83397 159.755C10.003 152.919 10.087 143.493 11.082 136.728C11.559 133.484 11.903 130.839 14.266 128.828C17.666 125.801 23.982 122.841 28.247 121.455C31.075 120.536 40.886 118.49 45.068 117.716C53.5148 116.153 62.0435 115.07 70.613 114.474C71.692 114.4 72.77 114.312 73.85 114.274C73.9198 114.273 73.9885 114.256 74.0509 114.224C74.1132 114.192 74.1676 114.147 74.2099 114.092C74.2522 114.036 74.2814 113.971 74.2953 113.903C74.3092 113.834 74.3073 113.764 74.29 113.696L72.604 108.904C72.191 107.731 71.31 106.039 71.925 104.798C72.54 103.557 74.225 103.781 75.169 104.471C76.2522 105.382 77.0235 106.61 77.375 107.981C77.8032 109.549 78.0623 111.158 78.148 112.781C78.148 112.902 78.196 113.018 78.2815 113.103C78.367 113.189 78.483 113.237 78.604 113.237C78.7249 113.237 78.8409 113.189 78.9264 113.103C79.0119 113.018 79.06 112.902 79.06 112.781C79.486 109.065 80.949 105.235 84.004 102.901C87.427 100.21 91.979 100.501 93.404 102.091C93.5805 102.227 93.717 102.409 93.7988 102.616C93.8806 102.824 93.9047 103.049 93.8686 103.27C93.8325 103.49 93.7376 103.696 93.5938 103.866C93.45 104.037 93.2628 104.165 93.052 104.238C89.476 105.365 86.4353 107.76 84.502 110.973C83.9596 111.886 83.5103 112.852 83.161 113.855C82.961 114.41 83.848 114.649 84.041 114.098C86.599 106.747 94.165 103.898 96.02 105.508C97.241 106.568 95.643 108.329 94.782 109.008C91.5365 111.517 89.038 114.864 87.556 118.689L87.552 118.691ZM101.663 125.568C100.515 125.579 99.3864 125.268 98.4065 124.669C97.4267 124.07 96.6347 123.208 96.1209 122.181C95.6071 121.154 95.392 120.004 95.5003 118.86C95.6086 117.717 96.0357 116.627 96.7332 115.715C97.4307 114.803 98.3704 114.105 99.4452 113.701C100.52 113.296 101.687 113.202 102.813 113.429C103.938 113.655 104.978 114.194 105.813 114.982C106.647 115.771 107.244 116.778 107.534 117.889H105.587C105.47 117.895 105.359 117.945 105.278 118.03C105.197 118.115 105.151 118.228 105.151 118.346C105.151 118.463 105.197 118.576 105.278 118.661C105.359 118.746 105.47 118.797 105.587 118.802H107.7C107.788 119.651 107.699 120.508 107.437 121.32C107.175 122.132 106.746 122.88 106.178 123.517C105.61 124.154 104.916 124.665 104.139 125.018C103.362 125.37 102.52 125.557 101.667 125.566L101.663 125.568ZM98.157 113.381C98.5756 112.757 99.0579 112.178 99.596 111.653C100.961 110.333 103.196 109.188 105.013 110.293C106.474 111.235 106.856 113.104 106.913 114.815C105.857 113.583 104.4 112.763 102.799 112.5C101.198 112.238 99.5552 112.549 98.161 113.379L98.157 113.381ZM128.911 96.066V90.97C128.911 90.8491 128.863 90.7331 128.777 90.6476C128.692 90.5621 128.576 90.514 128.455 90.514C128.334 90.514 128.218 90.5621 128.133 90.6476C128.047 90.7331 127.999 90.8491 127.999 90.97V96.878C126.623 98.104 113.332 109.821 112.804 110.278C109.756 105.647 103.689 103.946 98.558 105.45C98.4465 105.487 98.3533 105.565 98.2979 105.668C98.2425 105.772 98.229 105.893 98.2602 106.006C98.2915 106.119 98.3651 106.216 98.4657 106.276C98.5664 106.336 98.6864 106.356 98.801 106.33C103.818 105.03 109.219 106.441 112.108 110.885C110.678 112.134 109.247 113.382 107.814 114.63C107.714 112.662 107.186 110.605 105.473 109.501C102.559 107.732 98.832 110.333 97.073 113.355L93.941 110.914C94.417 110.474 94.908 110.048 95.424 109.649C96.697 108.649 98.177 106.536 96.815 105.014C96.504 104.712 96.1308 104.481 95.7215 104.338C95.3122 104.195 94.8765 104.142 94.445 104.185C94.7178 103.823 94.8429 103.37 94.795 102.919C94.502 100.445 90.974 99.755 88.466 100.081C88.65 99.035 88.831 97.988 89.023 96.943C90.5961 89.5796 94.3929 82.877 99.9 77.742C103.061 74.824 106.871 72.6989 111.015 71.542C111.223 72.2283 111.67 72.817 112.276 73.2006C112.882 73.5841 113.606 73.7369 114.315 73.631C114.899 73.4355 115.431 73.1123 115.874 72.6848C116.317 72.2573 116.659 71.7364 116.875 71.16C116.997 71.5564 117.196 71.9246 117.462 72.2433C117.727 72.5619 118.053 72.8246 118.421 73.016C120.121 73.925 121.672 72.738 122.477 70.948C126.47 71.68 130.187 73.4899 133.226 76.1818C136.264 78.8738 138.509 82.3454 139.717 86.221C136.124 89.675 131.549 93.713 128.915 96.064L128.911 96.066ZM111.941 71.293C113.295 70.9621 114.674 70.7381 116.063 70.623C115.804 71.1705 115.464 71.6762 115.055 72.123C114.157 73.277 112.439 72.713 111.945 71.291L111.941 71.293ZM117.692 70.552C118.963 70.5302 120.233 70.6061 121.492 70.779C121.362 71.0413 121.214 71.2943 121.049 71.536C120.826 71.8811 120.493 72.1405 120.103 72.272C119.714 72.4035 119.292 72.3992 118.905 72.26C118.592 72.08 118.321 71.8337 118.113 71.5383C117.905 71.243 117.764 70.9056 117.7 70.55L117.692 70.552ZM159 69.267C159.068 69.284 159.138 69.2855 159.206 69.2715C159.275 69.2575 159.339 69.2282 159.394 69.186C159.45 69.1437 159.495 69.0895 159.527 69.0273C159.558 68.9652 159.575 68.8967 159.577 68.827C159.777 58.966 159.257 51.253 162.027 42.227C162.5 40.681 162.973 38.774 164.439 37.857C164.782 37.614 165.192 37.4836 165.613 37.4836C166.034 37.4836 166.444 37.614 166.787 37.857C168.144 39.117 167.709 40.877 167.821 49.906C167.823 49.9953 167.851 50.0821 167.901 50.1558C167.952 50.2295 168.023 50.287 168.105 50.3212C168.188 50.3554 168.278 50.3649 168.366 50.3486C168.454 50.3322 168.535 50.2907 168.6 50.229C170.147 48.449 173.654 44.963 175.75 44.038C176.48 43.716 177.581 43.627 178.067 44.389C178.945 45.767 177.623 47.364 176.948 48.511C176.434 49.349 175.978 50.2206 175.582 51.12C175.4 51.4247 175.285 51.7645 175.244 52.1171C175.203 52.4696 175.237 52.8268 175.345 53.165C175.384 53.2347 175.441 53.2926 175.511 53.3324C175.58 53.3721 175.659 53.3924 175.739 53.391C178.064 53.043 182.226 51.298 185.067 51.966C185.392 52.0331 185.691 52.1932 185.927 52.4268C186.163 52.6604 186.326 52.9575 186.397 53.282C186.412 54.782 181.681 57.182 180.302 57.804C180.215 57.8552 180.148 57.9334 180.11 58.0266C180.072 58.1198 180.066 58.2229 180.092 58.32C182.146 65.557 181.292 71.304 179.384 78.606C178.919 80.4669 178.238 82.2669 177.354 83.969C175.698 86.8572 173.165 89.1436 170.124 90.4978C167.082 91.852 163.689 92.2036 160.434 91.502C156.094 90.609 151.634 89.279 147.265 87.948C147.383 85.748 148.285 69.048 148.321 68.373C151.894 68.4779 155.459 68.7764 159 69.267V69.267ZM152.885 58.642C152.598 59.2068 152.233 59.7291 151.803 60.194C151.604 60.505 151.324 60.7561 150.994 60.9208C150.663 61.0854 150.294 61.1574 149.926 61.1291C149.558 61.1008 149.204 60.9732 148.903 60.76C148.601 60.5467 148.363 60.2558 148.214 59.918C147.868 59.335 147.642 58.6892 147.547 58.018C149.338 58.1073 151.121 58.3158 152.884 58.642H152.885ZM152.648 47.576C152.619 48.0312 152.465 48.4696 152.204 48.8435C151.943 49.2174 151.584 49.5124 151.167 49.6963C150.749 49.8803 150.29 49.9461 149.837 49.8867C149.385 49.8272 148.958 49.6448 148.602 49.3592C148.247 49.0736 147.976 48.6959 147.821 48.2672C147.665 47.8385 147.63 47.3753 147.719 46.9281C147.809 46.4809 148.02 46.0668 148.328 45.7311C148.637 45.3953 149.032 45.1507 149.47 45.024C149.854 44.9179 150.257 44.9045 150.647 44.9849C151.037 45.0653 151.402 45.2372 151.712 45.4865C152.022 45.7357 152.269 46.0552 152.431 46.4185C152.594 46.7818 152.668 47.1785 152.647 47.576H152.648ZM153.698 37.161C155.92 36.073 157.978 37.671 156.413 40.108C155.429 41.439 154.928 41.625 153.133 43.708C152.841 44.047 152.546 44.397 152.278 44.763C151.75 44.3379 151.107 44.0811 150.432 44.0256C149.757 43.9702 149.081 44.1187 148.491 44.452C149.452 41.775 151.133 38.417 153.7 37.161H153.698ZM131.878 25.4C131.876 25.3006 131.842 25.2045 131.782 25.1254C131.722 25.0463 131.638 24.9884 131.543 24.96C130.242 24.6626 129.053 24.0007 128.115 23.052C127.701 22.6315 127.467 22.0662 127.462 21.476C127.509 21.2389 127.611 21.016 127.76 20.825C127.908 20.6341 128.099 20.4804 128.317 20.376C128.813 20.0953 129.38 19.9646 129.949 20C130.664 20.101 131.343 20.3738 131.929 20.795C133.146 21.739 134.512 22.474 135.971 22.97C139.184 23.722 142.446 22.17 144.971 20.294C147.615 18.332 150.578 15.369 153.23 14.727C153.866 14.619 154.977 14.916 154.881 15.769C154.771 16.1797 154.534 16.5453 154.205 16.814C153.851 17.186 148.599 22.657 148.599 22.657C148.255 23.016 148.715 23.685 149.152 23.374C151.644 21.5963 154.364 20.1627 157.239 19.112C157.906 18.7746 158.664 18.661 159.401 18.788C159.86 18.937 160.358 19.46 160.101 19.964C159.838 20.383 160.401 19.969 151.561 25.526C151.469 25.5842 151.401 25.673 151.369 25.7766C151.337 25.8802 151.342 25.9919 151.384 26.0918C151.427 26.1918 151.503 26.2736 151.6 26.3227C151.696 26.3718 151.807 26.385 151.913 26.36C159.013 24.145 159.452 23.91 160.453 24.051C160.804 24.0787 161.137 24.2132 161.409 24.4363C161.681 24.6595 161.878 24.9606 161.973 25.299C162.147 26.477 160.708 27.373 159.858 27.881C155.958 30.104 150.686 30.871 149.958 34.911C149.503 36.9349 149.177 38.9857 148.982 41.051C147.993 42.9769 147.254 45.0211 146.782 47.134C146.729 47.725 146.834 48.3193 147.085 48.8567C147.337 49.3941 147.726 49.8555 148.213 50.194C148.059 52.502 147.928 54.8113 147.819 57.122C145.431 56.9768 143.034 57.1049 140.675 57.504C136.796 58.4037 133.213 60.2813 130.265 62.958C130.892 54.5 132.082 33.908 131.878 25.4ZM140.2 58.537C142.289 58.0903 144.426 57.9038 146.561 57.982C146.669 58.9816 147.037 59.9354 147.629 60.748C148.989 62.729 151.942 62.848 153.884 58.835C155.544 59.1812 157.18 59.6314 158.784 60.183C158.745 62.509 158.689 67.925 158.684 68.307C155.37 67.807 151.684 67.632 147.9 67.436C147.78 67.4381 147.665 67.4868 147.58 67.5718C147.495 67.6569 147.446 67.7717 147.444 67.892C147.444 67.892 146.702 80.425 146.312 87.658C144.967 87.252 140.612 85.984 140.612 85.984C139.5 82.3877 137.528 79.1166 134.867 76.4543C132.206 73.7919 128.936 71.8185 125.34 70.705C126.858 67.7717 128.959 65.1793 131.514 63.0869C134.069 60.9946 137.025 59.4463 140.2 58.537V58.537ZM87.569 38.283C88.0487 37.4224 88.7374 36.6965 89.5715 36.1722C90.4057 35.6479 91.3585 35.3421 92.342 35.283C93.3595 35.1762 94.3819 35.1238 95.405 35.126C95.5037 35.1231 95.5988 35.0885 95.6763 35.0273C95.7538 34.9662 95.8096 34.8817 95.8354 34.7864C95.8612 34.691 95.8556 34.59 95.8195 34.4981C95.7834 34.4062 95.7187 34.3283 95.635 34.276C94 33.2 91.769 31.539 92.147 29.3C92.525 27.061 94.908 25.739 97.113 25.726C98.7105 25.748 100.298 25.9851 101.832 26.431C101.89 26.4465 101.951 26.4503 102.011 26.4422C102.071 26.4341 102.129 26.4143 102.181 26.3838C102.233 26.3533 102.279 26.3128 102.316 26.2646C102.352 26.2165 102.379 26.1615 102.394 26.103C102.533 25.582 101.694 20.403 102.829 15.919C103.729 11.842 107.191 8.01901 111.518 7.90701C112.159 7.85248 112.804 7.94524 113.403 8.17818C114.003 8.41113 114.541 8.77809 114.977 9.25101C116.449 10.9292 117.305 13.059 117.403 15.289C117.764 19.309 117.661 20.142 117.712 20.597C117.704 20.986 118.406 21.141 120.388 24.123C121.99 26.4729 123.033 29.1586 123.436 31.974C123.687 34.2696 123.223 36.5867 122.106 38.608C119.118 35.554 114.999 33.108 110.542 32.943C102.63 32.651 96.389 39.155 91.716 45.498C90.901 45.4287 90.115 45.1631 89.4251 44.7239C88.7352 44.2846 88.162 43.6848 87.7544 42.9757C87.3468 42.2666 87.1171 41.4694 87.0848 40.6522C87.0525 39.8349 87.2186 39.022 87.569 38.283V38.283ZM112.385 34.075C111.523 35.9152 110.842 37.8349 110.351 39.807C109.897 37.728 109.357 36.007 108.692 33.922C109.924 33.7927 111.168 33.8443 112.385 34.075V34.075ZM107.715 34.061C108.722 36.8831 109.439 39.8 109.857 42.767C109.865 42.8913 109.92 43.0079 110.011 43.0931C110.102 43.1783 110.221 43.2257 110.346 43.2257C110.471 43.2257 110.59 43.1783 110.681 43.0931C110.772 43.0079 110.827 42.8913 110.835 42.767C111.136 39.8083 111.986 36.9316 113.341 34.284C117.132 35.4708 120.481 37.7632 122.96 40.867C125.751 44.127 127.624 47.803 130.041 52.135C129.953 53.656 129.469 61.482 129.285 63.872C127.323 65.7848 125.688 68.0071 124.447 70.45C120.005 69.3299 115.355 69.3251 110.911 70.436C103.411 72.8197 97.0529 77.8832 93.051 84.659C92.1648 86.0721 91.3679 87.5393 90.665 89.052C90.813 86.303 91.558 70.484 91.585 69.88C91.848 63.82 91.285 57.012 86.528 53.173C92.94 46.646 97.719 36.106 107.715 34.061ZM66.771 49.461C66.1373 51.9415 65.6366 54.4541 65.271 56.988C64.731 54.554 64.199 52.119 63.604 49.697C64.6546 49.5777 65.7103 49.4983 66.771 49.459V49.461ZM19.968 46C18.001 44.3948 16.1379 42.6663 14.39 40.825C13.9176 40.3963 13.5455 39.8688 13.3 39.28C13.1394 38.8209 13.1565 38.3184 13.3479 37.8713C13.5392 37.4241 13.891 37.0648 14.334 36.864C15.355 36.412 16.299 36.937 17.181 37.429C18.063 37.921 22.928 40.545 24.464 41.36C24.5427 41.4025 24.632 41.4213 24.7212 41.4141C24.8103 41.4069 24.8955 41.374 24.9664 41.3194C25.0373 41.2648 25.0908 41.1909 25.1205 41.1065C25.1503 41.0221 25.1549 40.931 25.134 40.844C24.34 37.759 23.543 34.672 22.655 31.612C22.3003 30.7101 22.1739 29.7345 22.287 28.772C22.3262 28.4462 22.4475 28.1357 22.6395 27.8696C22.8315 27.6035 23.0879 27.3905 23.3848 27.2506C23.6816 27.1106 24.0091 27.0484 24.3365 27.0696C24.664 27.0909 24.9807 27.1949 25.257 27.372C25.6649 27.7003 26.0198 28.0895 26.309 28.526C28.833 31.713 30.439 34.75 32.583 37.971C32.777 38.264 33.347 38.279 33.416 37.862C33.782 35.651 34.226 33.456 34.693 31.262C35.211 28.826 35.593 25.995 37.711 24.49C38.0007 24.2532 38.3466 24.095 38.7152 24.0305C39.0838 23.966 39.4628 23.9974 39.8158 24.1218C40.1687 24.2461 40.4838 24.4592 40.7306 24.7405C40.9774 25.0218 41.1476 25.3619 41.225 25.728C41.6476 27.3805 41.6442 29.1132 41.215 30.764C40.883 32.737 40.452 34.694 40.008 36.644C38.892 41.549 38.808 41.651 38.885 42.274C39.0814 42.7598 39.4549 43.1529 39.93 43.374C40.4949 43.6519 41.1041 43.8289 41.73 43.897C43.587 44.127 47.107 43.345 47.775 45.854C47.8309 46.0526 47.8413 46.2612 47.8053 46.4643C47.7692 46.6674 47.6878 46.8598 47.567 47.027C46.838 47.718 46.639 47.574 39.718 48.237C39.538 48.255 39.306 48.365 39.278 48.572C38.7446 52.4187 38.2153 56.265 37.69 60.111L18.53 59.077C20.074 45.22 20.109 46.238 19.968 46ZM37.568 61.014C37.3753 62.414 37.183 63.8117 36.991 65.207C36.9671 65.3122 36.981 65.4224 37.0302 65.5184C37.0795 65.6143 37.1609 65.6898 37.2603 65.7317C37.3597 65.7736 37.4707 65.7791 37.5737 65.7474C37.6768 65.7156 37.7654 65.6486 37.824 65.558C40.521 61.9662 43.7064 58.7686 47.288 56.058C51.7899 52.7099 57.0687 50.5607 62.629 49.812C63.47 53.233 64.183 56.683 64.976 60.112C65.0129 60.2182 65.085 60.3086 65.1802 60.3683C65.2755 60.428 65.3882 60.4534 65.4999 60.4403C65.6116 60.4273 65.7154 60.3765 65.7943 60.2965C65.8733 60.2164 65.9225 60.1118 65.934 60C66.2005 56.422 66.8188 52.8789 67.78 49.422C74.95 49.294 84.216 50.442 88.224 56.4C89.3158 58.2578 90.0321 60.3121 90.332 62.446C90.703 64.9055 90.817 67.3969 90.672 69.88C90.502 73.7 89.735 89.161 89.606 91.58C88.5909 94.386 87.8916 97.2962 87.521 100.257C85.89 100.65 84.3738 101.419 83.094 102.504L82.134 101.766C82.313 101.633 82.604 100.866 82.206 78.046C82.206 77.9251 82.1579 77.8091 82.0724 77.7236C81.9869 77.6381 81.8709 77.59 81.75 77.59C81.629 77.59 81.513 77.6381 81.4275 77.7236C81.342 77.8091 81.294 77.9251 81.294 78.046V101.121C81.094 100.967 47.684 75.313 47.661 75.295C47.6006 75.2601 47.533 75.2394 47.4634 75.2346C47.3938 75.2298 47.3241 75.2409 47.2594 75.2672C47.1948 75.2934 47.137 75.334 47.0905 75.386C47.044 75.438 47.0099 75.4999 46.991 75.567C46.466 77.6558 45.732 79.6864 44.8 81.628C43.113 85.444 41.213 89.101 37.175 90.169C32.1135 91.3689 26.7857 90.6192 22.252 88.069C20.7941 87.175 19.5938 85.9171 18.769 84.419C17.642 82.2896 16.9971 79.9384 16.88 77.532C16.636 72.962 17.133 71.508 18.421 59.985L37.568 61.014Z"></path><path fill="#000000" d="M108.882 65.6718C109.03 65.7558 108.629 65.7248 114.215 65.7978C114.418 66.2762 114.756 66.6852 115.187 66.9748C115.619 67.2645 116.125 67.4222 116.645 67.4288C117.164 67.4354 117.675 67.2905 118.113 67.0119C118.552 66.7332 118.9 66.3329 119.115 65.8598L124.541 65.9288C124.611 65.9282 124.68 65.9117 124.743 65.8804C124.805 65.8491 124.86 65.8038 124.902 65.7481C124.945 65.6924 124.974 65.6278 124.988 65.5591C125.001 65.4904 124.999 65.4195 124.981 65.3518C124.119 63.04 122.885 60.8848 121.327 58.9718C119.959 57.4328 117.917 56.0398 115.785 56.8608C113.766 57.6378 112.556 59.7318 111.349 61.3998L108.713 65.0458C108.653 65.1513 108.637 65.2763 108.668 65.3936C108.7 65.5109 108.777 65.6109 108.882 65.6718V65.6718ZM118.465 64.8588C118.445 65.1574 118.35 65.4461 118.189 65.6984C118.028 65.9506 117.806 66.1584 117.544 66.3025C117.282 66.4467 116.987 66.5226 116.688 66.5232C116.389 66.5239 116.094 66.4493 115.831 66.3063C115.568 66.1633 115.346 65.9566 115.184 65.705C115.022 65.4534 114.925 65.1652 114.904 64.8667C114.882 64.5682 114.936 64.2691 115.06 63.9969C115.185 63.7246 115.375 63.488 115.615 63.3088C115.89 63.1106 116.215 62.9942 116.554 62.9728C116.892 62.9514 117.229 63.026 117.527 63.1879C117.825 63.3499 118.071 63.5926 118.237 63.8882C118.403 64.1838 118.482 64.5202 118.465 64.8588V64.8588ZM113.551 59.9158C114.636 58.5028 116.139 57.0658 118.065 57.6878C119.091 58.0894 119.993 58.7549 120.679 59.6168C121.992 61.2532 123.065 63.0685 123.866 65.0078L119.366 64.9508C119.397 64.5832 119.352 64.2131 119.234 63.8637C119.115 63.5142 118.926 63.1929 118.678 62.9197C118.43 62.6465 118.129 62.4273 117.792 62.2758C117.456 62.1242 117.092 62.0435 116.723 62.0388C116.354 62.034 115.988 62.1053 115.648 62.2482C115.308 62.391 115.001 62.6024 114.746 62.8691C114.491 63.1358 114.294 63.4522 114.167 63.7984C114.039 64.1447 113.985 64.5135 114.006 64.8818L109.983 64.8308C111.158 63.1838 112.319 61.5198 113.551 59.9158Z"></path><path fill="#000000" d="M189.025 76.9465C189.137 76.973 189.256 76.956 189.356 76.8988C189.456 76.8417 189.531 76.7487 189.566 76.6385C190.477 72.9608 190.372 69.1046 189.26 65.4825C189.087 64.9235 188.206 65.1615 188.38 65.7255C189.449 69.1887 189.555 72.8777 188.686 76.3965C188.658 76.5143 188.678 76.6385 188.742 76.7416C188.805 76.8448 188.907 76.9184 189.025 76.9465V76.9465Z"></path><path fill="#000000" d="M192.36 78.4607C194.111 73.6878 194.141 68.4529 192.443 63.6607C192.243 63.1127 191.364 63.3487 191.563 63.9037C193.212 68.5383 193.182 73.6045 191.48 78.2197C191.275 78.7697 192.157 79.0077 192.36 78.4607Z"></path><path fill="#000000" d="M63.724 27.1544C62.389 26.0984 61.676 26.6364 60.432 25.7544C59.901 25.2544 60.049 24.3644 59.85 23.7194C59.6535 23.146 59.3304 22.6242 58.9046 22.1928C58.4789 21.7614 57.9614 21.4315 57.3906 21.2275C56.8198 21.0235 56.2105 20.9508 55.6077 21.0146C55.005 21.0785 54.4243 21.2773 53.909 21.5964C53.435 21.9789 53.0538 22.4637 52.7939 23.0146C52.534 23.5655 52.4023 24.168 52.4085 24.7771C52.4148 25.3862 52.5589 25.9859 52.83 26.5313C53.1011 27.0767 53.4922 27.5537 53.974 27.9264C54.228 28.1134 54.597 28.2394 54.774 28.5184C54.9072 28.8951 54.9173 29.3045 54.803 29.6874C54.7557 30.029 54.7783 30.3766 54.8694 30.7092C54.9605 31.0419 55.1182 31.3525 55.333 31.6224C56.676 33.2664 59.033 33.0114 61.345 33.5504C61.9615 33.652 62.5299 33.9468 62.968 34.3924C62.978 34.4024 62.9887 34.4117 63 34.4204C63.0315 34.4639 63.072 34.5001 63.1188 34.5265C63.1657 34.553 63.2176 34.5689 63.2712 34.5734C63.3248 34.5779 63.3786 34.5707 63.4292 34.5524C63.4797 34.5341 63.5257 34.5051 63.564 34.4674C63.6476 34.4204 63.7129 34.3465 63.7492 34.2577C63.7855 34.1689 63.7907 34.0705 63.764 33.9784C63.332 32.4144 64.538 31.2564 64.531 29.0504C64.529 28.6966 64.4566 28.3468 64.3181 28.0212C64.1795 27.6957 63.9776 27.401 63.724 27.1544ZM62.785 33.1004C60.612 32.0844 58.74 32.5934 56.996 31.7464C56.4832 31.539 56.0588 31.1591 55.796 30.6724C55.396 29.7604 56.262 28.6944 55.306 27.7434C55.031 27.5186 54.7392 27.3153 54.433 27.1354C53.8294 26.6272 53.437 25.9122 53.3325 25.1301C53.228 24.3481 53.419 23.5552 53.868 22.9064C55.197 21.1434 58.053 21.7444 58.922 23.8124C59.0303 24.5099 59.19 25.1984 59.4 25.8724C60.085 27.1724 61.564 27.0564 62.606 27.5164C62.9063 27.6451 63.1622 27.8594 63.3416 28.1325C63.521 28.4057 63.6161 28.7256 63.615 29.0524C63.574 30.9184 62.942 31.2724 62.785 33.1004Z"></path><path fill="#000000" d="M110.993 24.1725C111.257 24.5423 111.605 24.8434 112.01 25.0504C112.414 25.2575 112.862 25.3645 113.316 25.3625C115.874 25.3695 115.816 22.1685 115.85 20.3705C115.896 17.7425 116.16 14.8375 114.613 13.8305C114.192 13.6162 113.722 13.5139 113.25 13.5337C112.778 13.5534 112.318 13.6945 111.916 13.9433C111.514 14.1921 111.183 14.5402 110.955 14.9542C110.727 15.3681 110.609 15.8338 110.613 16.3065C110.54 18.2065 110.455 20.1065 110.506 22.0065C110.451 22.7608 110.62 23.5144 110.993 24.1725V24.1725ZM111.521 16.3065C111.519 16.0043 111.591 15.7061 111.73 15.4377C111.868 15.1693 112.071 14.9387 112.319 14.7659C112.567 14.5931 112.853 14.4831 113.153 14.4456C113.453 14.4081 113.757 14.4441 114.04 14.5505C115.2 15.1725 114.971 17.7975 114.94 19.9245C114.998 20.9989 114.924 22.0763 114.719 23.1325C114.658 23.4686 114.492 23.7767 114.245 24.0127C113.999 24.2488 113.683 24.4006 113.345 24.4465C113.007 24.4923 112.662 24.4298 112.362 24.268C112.061 24.1062 111.819 23.8533 111.671 23.5455C111.439 23.0311 111.347 22.4639 111.407 21.9025C111.37 20.0385 111.45 18.1695 111.521 16.3065Z"></path><path fill="#000000" d="M50.9739 32.8693C50.0912 35.1198 49.9645 37.5964 50.6129 39.9253C50.65 40.0362 50.7281 40.1287 50.8313 40.1837C50.9345 40.2388 51.0548 40.2522 51.1676 40.2212C51.2803 40.1902 51.3769 40.1171 51.4374 40.0171C51.4979 39.917 51.5178 39.7976 51.4929 39.6833C50.9119 37.5099 51.0383 35.208 51.8539 33.1113C52.0699 32.5653 51.1879 32.3283 50.9739 32.8693Z"></path><path fill="#000000" d="M48.3899 31.2093C48.2733 31.1801 48.15 31.1969 48.0455 31.2564C47.941 31.3158 47.8634 31.4132 47.8289 31.5283C46.6061 34.4935 46.283 37.7529 46.8999 40.9003C47.0119 41.4763 47.8909 41.2323 47.7799 40.6583C47.2102 37.6703 47.5322 34.5807 48.7059 31.7743C48.7386 31.6575 48.7237 31.5325 48.6645 31.4267C48.6053 31.3208 48.5066 31.2427 48.3899 31.2093Z"></path><path fill="#000000" d="M181.768 131.185C182.168 131.621 182.808 130.974 182.413 130.54L179.153 126.957C178.753 126.521 178.113 127.168 178.508 127.602L181.768 131.185Z"></path><path fill="#000000" d="M91.431 14.3501C91.5351 14.4068 91.6572 14.4207 91.7714 14.3889C91.8856 14.3571 91.9829 14.2821 92.0427 14.1797C92.1025 14.0774 92.1201 13.9558 92.0918 13.8407C92.0635 13.7256 91.9915 13.6261 91.891 13.5631C89.581 12.1701 84.214 9.13515 83.881 8.94415C83.7769 8.88749 83.6548 8.87359 83.5407 8.9054C83.4265 8.93721 83.3292 9.01224 83.2693 9.11457C83.2095 9.2169 83.1919 9.33849 83.2202 9.45359C83.2485 9.56869 83.3206 9.66824 83.421 9.73115C85.731 11.1251 91.431 14.3501 91.431 14.3501Z"></path><path fill="#000000" d="M79.621 17.4861L91.661 18.1361C92.248 18.1681 92.246 17.2551 91.661 17.2231L79.621 16.5741C79.034 16.5421 79.036 17.4551 79.621 17.4861Z"></path><path fill="#000000" d="M19.562 130.711L15.367 133.701C14.893 134.039 15.348 134.831 15.827 134.489L20.027 131.498C20.5 131.16 20.042 130.369 19.562 130.711Z"></path><path fill="#000000" d="M91.079 21.0554L83.421 25.4554C83.3206 25.5183 83.2485 25.6179 83.2202 25.733C83.1919 25.8481 83.2095 25.9697 83.2693 26.072C83.3292 26.1743 83.4265 26.2493 83.5407 26.2812C83.6548 26.313 83.7769 26.2991 83.881 26.2424L91.539 21.8424C91.6435 21.7814 91.7195 21.6814 91.7503 21.5644C91.781 21.4473 91.764 21.3229 91.703 21.2184C91.642 21.1139 91.542 21.0379 91.425 21.0072C91.308 20.9764 91.1835 20.9934 91.079 21.0544V21.0554Z"></path><path fill="#000000" d="M61.5459 34.9909C60.8003 34.6794 59.9748 34.6138 59.1893 34.8034C58.4037 34.9931 57.6991 35.4282 57.1778 36.0456C56.6564 36.663 56.3455 37.4306 56.2901 38.2367C56.2347 39.0429 56.4377 39.8458 56.8697 40.5287C57.3017 41.2116 57.9401 41.7391 58.6923 42.0344C59.4445 42.3297 60.2713 42.3776 61.0525 42.171C61.8337 41.9644 62.5288 41.5142 63.0367 40.8857C63.5446 40.2572 63.8389 39.4831 63.8769 38.6759C63.9136 37.8967 63.7096 37.1251 63.2926 36.4658C62.8755 35.8066 62.2657 35.2916 61.5459 34.9909ZM62.9649 38.6759C62.9321 39.2033 62.7554 39.7116 62.454 40.1455C62.1526 40.5795 61.738 40.9226 61.2553 41.1375C60.7726 41.3523 60.2402 41.4308 59.716 41.3644C59.1919 41.298 58.6959 41.0892 58.2821 40.7607C57.8682 40.4322 57.5523 39.9965 57.3687 39.5011C57.1851 39.0056 57.1407 38.4694 57.2405 37.9505C57.3403 37.4316 57.5803 36.95 57.9346 36.558C58.2889 36.166 58.7438 35.8786 59.2499 35.7269C59.6958 35.5995 60.1656 35.5802 60.6204 35.6707C61.0752 35.7611 61.5019 35.9587 61.8651 36.247C62.2283 36.5353 62.5175 36.906 62.7088 37.3284C62.9001 37.7509 62.9879 38.2128 62.9649 38.6759V38.6759Z"></path><path fill="#000000" d="M111.819 119.539C111.47 119.993 111.275 120.547 111.261 121.12C111.248 121.693 111.418 122.255 111.746 122.724C112.074 123.194 112.544 123.547 113.086 123.732C113.628 123.917 114.215 123.924 114.762 123.753C115.309 123.581 115.787 123.24 116.126 122.779C116.466 122.317 116.65 121.76 116.651 121.187C116.652 120.614 116.47 120.055 116.132 119.592C115.795 119.13 115.318 118.786 114.772 118.613C114.244 118.445 113.678 118.444 113.149 118.61C112.621 118.775 112.156 119.1 111.819 119.539ZM115.605 120.509C115.738 120.837 115.771 121.196 115.7 121.543C115.629 121.889 115.456 122.206 115.205 122.455C114.953 122.703 114.633 122.871 114.286 122.938C113.939 123.005 113.579 122.967 113.254 122.83C112.928 122.692 112.65 122.461 112.456 122.166C112.261 121.871 112.158 121.524 112.161 121.171C112.163 120.817 112.27 120.472 112.468 120.179C112.667 119.886 112.947 119.659 113.275 119.526C113.715 119.351 114.206 119.355 114.642 119.539C115.078 119.723 115.424 120.072 115.605 120.509V120.509Z"></path><path fill="#000000" d="M100.6 117.887H96.4701C96.3527 117.892 96.2419 117.943 96.1608 118.028C96.0797 118.113 96.0344 118.226 96.0344 118.343C96.0344 118.461 96.0797 118.574 96.1608 118.659C96.2419 118.744 96.3527 118.794 96.4701 118.8H100.6C100.717 118.794 100.828 118.744 100.909 118.659C100.99 118.574 101.036 118.461 101.036 118.343C101.036 118.226 100.99 118.113 100.909 118.028C100.828 117.943 100.717 117.892 100.6 117.887Z"></path><path fill="#000000" d="M104.32 120.3C104.207 120.273 104.089 120.29 103.988 120.347C103.887 120.404 103.812 120.498 103.778 120.608C103.703 120.765 103.585 120.896 103.438 120.988C103.291 121.08 103.121 121.128 102.948 121.127C102.774 121.126 102.605 121.076 102.459 120.983C102.313 120.889 102.197 120.756 102.123 120.599C102.086 120.488 102.008 120.395 101.905 120.339C101.801 120.284 101.68 120.27 101.567 120.302C101.454 120.333 101.357 120.406 101.297 120.507C101.237 120.608 101.217 120.728 101.243 120.842C101.373 121.19 101.606 121.489 101.91 121.701C102.215 121.913 102.577 122.027 102.947 122.028C103.318 122.029 103.681 121.917 103.986 121.706C104.292 121.496 104.526 121.198 104.658 120.851C104.672 120.793 104.675 120.732 104.665 120.673C104.656 120.614 104.635 120.557 104.604 120.506C104.572 120.454 104.531 120.41 104.482 120.375C104.434 120.34 104.379 120.314 104.32 120.3V120.3Z"></path><path fill="#000000" d="M161.54 73.7001C161.863 74.1881 162.654 73.7311 162.328 73.2391L160.307 70.1881C159.984 69.7001 159.193 70.1571 159.519 70.6481L161.54 73.7001Z"></path><path fill="#000000" d="M145.252 30.1674C145.338 30.4314 145.971 30.7674 146.26 30.4544C147.03 29.6159 147.962 28.9426 149 28.4754C149.534 28.2324 149.07 27.4454 148.54 27.6874C147.583 28.129 146.71 28.7318 145.958 29.4694C145.367 28.0114 144.4 26.7359 143.156 25.7722C141.913 24.8085 140.436 24.191 138.877 23.9824C138.756 23.9829 138.64 24.0311 138.555 24.1165C138.469 24.2019 138.421 24.3176 138.42 24.4384C138.423 24.5586 138.472 24.6729 138.557 24.7578C138.642 24.8427 138.757 24.8916 138.877 24.8944C140.325 25.0937 141.688 25.6927 142.814 26.6242C143.941 27.5556 144.785 28.7827 145.252 30.1674V30.1674Z"></path><path fill="#000000" d="M40.392 155.418C38.692 157.053 37.018 158.707 35.378 160.398C35.3356 160.44 35.302 160.49 35.2791 160.546C35.2562 160.601 35.2444 160.66 35.2444 160.72C35.2444 160.78 35.2562 160.839 35.2791 160.895C35.302 160.95 35.3356 161 35.378 161.043C35.4203 161.085 35.4706 161.119 35.5259 161.142C35.5813 161.165 35.6406 161.176 35.7005 161.176C35.7604 161.176 35.8197 161.165 35.875 161.142C35.9303 161.119 35.9806 161.085 36.023 161.043C37.723 159.409 39.398 157.755 41.037 156.063C41.1225 155.977 41.1706 155.861 41.1706 155.74C41.1706 155.619 41.1225 155.503 41.037 155.418C40.9514 155.332 40.8354 155.284 40.7145 155.284C40.5935 155.284 40.4775 155.332 40.392 155.418Z"></path><path fill="#000000" d="M161.566 161.788C161.82 162.317 162.607 161.855 162.353 161.328C161.691 159.909 161.146 158.437 160.724 156.928C160.687 156.817 160.609 156.724 160.506 156.668C160.402 156.613 160.281 156.599 160.168 156.631C160.055 156.662 159.958 156.736 159.898 156.836C159.837 156.937 159.818 157.057 159.844 157.171C160.274 158.76 160.851 160.306 161.566 161.788V161.788Z"></path><path fill="#000000" d="M36.8279 73.9441C36.9483 73.9418 37.0631 73.8929 37.1482 73.8077C37.2332 73.7224 37.2819 73.6075 37.2839 73.4871L38.0679 67.6181C38.0677 67.4972 38.0196 67.3812 37.9342 67.2956C37.8487 67.21 37.7329 67.1617 37.6119 67.1611C37.4914 67.1632 37.3763 67.212 37.2911 67.2973C37.2058 67.3825 37.157 67.4976 37.1549 67.6181C36.8936 69.5741 36.6326 71.5305 36.3719 73.4871C36.3719 73.6082 36.42 73.7242 36.5054 73.8099C36.5909 73.8956 36.7069 73.9439 36.8279 73.9441Z"></path><path fill="#000000" d="M27.69 89.2547C28.24 89.4607 28.478 88.5797 27.932 88.3747C27.2956 88.1329 26.7141 87.766 26.222 87.2957C25.797 86.8907 25.15 87.5347 25.577 87.9407C26.1853 88.517 26.9041 88.964 27.69 89.2547V89.2547Z"></path><path fill="#000000" d="M38.0919 41.809C38.0574 41.6986 37.9821 41.6055 37.8815 41.5485C37.7809 41.4915 37.6624 41.4749 37.5499 41.502C35.7448 41.8937 34.0743 42.7531 32.7059 43.994C31.595 45.0521 30.9078 46.4787 30.7729 48.007C29.7258 47.4967 28.5874 47.2006 27.4243 47.1361C26.2613 47.0715 25.0971 47.2398 23.9999 47.631C23.4529 47.831 23.6889 48.712 24.2429 48.51C25.3464 48.1074 26.5259 47.9568 27.6951 48.0693C28.8643 48.1818 29.9935 48.5544 30.9999 49.16C31.0695 49.1991 31.148 49.2195 31.2279 49.2192C31.3077 49.2189 31.3861 49.1978 31.4553 49.1581C31.5246 49.1184 31.5823 49.0614 31.6229 48.9926C31.6635 48.9239 31.6856 48.8458 31.6869 48.766C31.6437 47.9804 31.7774 47.1952 32.0782 46.4683C32.379 45.7413 32.8393 45.0912 33.4249 44.566C34.6714 43.4788 36.1744 42.7272 37.7919 42.382C37.8493 42.3641 37.9025 42.3351 37.9487 42.2966C37.9948 42.2581 38.0329 42.2109 38.0607 42.1577C38.0886 42.1044 38.1057 42.0462 38.111 41.9864C38.1164 41.9266 38.1099 41.8663 38.0919 41.809V41.809Z"></path><path fill="#000000" d="M167.114 55.6873C167.381 54.546 167.65 53.405 167.923 52.2643C168.058 51.6933 167.178 51.4493 167.043 52.0213C166.773 53.1627 166.503 54.3037 166.234 55.4443C166.1 56.0153 166.979 56.2593 167.114 55.6873Z"></path><path fill="#000000" d="M172.537 58.5299C173.162 57.6665 173.641 56.7068 173.957 55.6889C174.132 55.1269 173.257 54.8889 173.077 55.4459C172.78 56.3869 172.332 57.2729 171.749 58.0689C171.4 58.5449 172.2 58.9999 172.537 58.5299Z"></path><path fill="#000000" d="M134.3 66.7694C138.266 67.2234 142.221 67.7628 146.166 68.3874C146.282 68.4167 146.406 68.4 146.51 68.3408C146.615 68.2816 146.692 68.1844 146.727 68.0694C146.743 68.0117 146.748 67.9514 146.74 67.8919C146.733 67.8325 146.714 67.775 146.685 67.7229C146.655 67.6708 146.615 67.625 146.568 67.5882C146.521 67.5514 146.467 67.5243 146.409 67.5084C142.385 66.8711 138.349 66.3204 134.3 65.8564C134.179 65.8575 134.064 65.9058 133.978 65.9911C133.893 66.0764 133.844 66.1917 133.843 66.3124C133.846 66.4328 133.895 66.5474 133.98 66.6325C134.065 66.7176 134.18 66.7666 134.3 66.7694V66.7694Z"></path></g></svg>