<svg xmlns="http://www.w3.org/2000/svg" fill="none" viewBox="0 0 110 110"><path fill="#A5A538" d="M80.2373 53.295L67.733 59.8521C67.6954 59.8739 67.6517 59.8827 67.6086 59.8772C67.5655 59.8718 67.5253 59.8523 67.4943 59.8218C67.458 59.7844 67.4245 59.7443 67.3887 59.7058C67.4102 60.8168 67.5108 65.9488 67.5394 67.4058C68.0454 66.9812 67.7264 67.122 68.5591 65.4109C69.9506 62.5756 72.0265 60.1315 74.5992 58.2994C76.7507 56.8486 79.1626 55.8277 81.7019 55.2931C81.1681 54.6618 80.6787 53.9941 80.2373 53.295V53.295Z"></path><path fill="#A5A538" d="M98.274 58.267C98.1294 58.1548 97.9936 58.0318 97.8675 57.899C97.0463 56.8984 96.3288 55.8171 95.7258 54.6716C95.2715 53.8426 94.8554 52.9949 94.4773 52.1284C94.1183 52.6735 93.5818 53.0777 92.9588 53.2724C92.6514 53.3781 92.3227 53.4063 92.0019 53.3545C91.681 53.3028 91.3779 53.1727 91.1193 52.9758C90.8607 52.7789 90.6547 52.5213 90.5194 52.2257C90.3842 51.9302 90.324 51.6058 90.3441 51.2814C90.4592 50.6408 90.6841 50.0249 91.009 49.4609C91.3411 48.9122 91.506 48.2786 91.4837 47.6377C91.4746 47.5928 91.4804 47.5461 91.5002 47.5048C91.5201 47.4635 91.5529 47.4298 91.5937 47.4089L91.5794 47.3539C91.4056 47.4347 90.3397 47.9979 85.4496 50.562C88.3795 50.7463 90.9012 52.2296 91.5546 55.0445C94.661 56.1154 96.9171 58.5557 98.3774 61.4559C98.2987 58.729 98.3312 59.9368 98.274 58.267Z"></path><path fill="#000001" d="M30.9326 50.4575C29.9558 49.5342 28.8126 48.8046 27.5638 48.3076C26.6973 48.0169 25.7744 47.9355 24.8704 48.0699C23.9664 48.2043 23.1071 48.5508 22.3627 49.081C21.6184 49.6113 21.0101 50.3102 20.5876 51.1206C20.1651 51.931 19.9405 52.8299 19.932 53.7438C19.9795 55.0666 20.3464 56.3582 21.0012 57.5085C22.893 60.7246 24.403 64.1504 25.5008 67.7165C26.0265 69.3722 26.4632 71.0549 26.8092 72.7573C26.3357 65.7008 29.694 58.7581 36.6487 56.0037C34.867 54.0316 32.9575 52.1789 30.9326 50.4575V50.4575ZM28.138 55.7496C27.5165 56.0844 26.8032 56.2083 26.1052 56.1027C25.4072 55.9972 24.7624 55.6679 24.2677 55.1644C23.2898 54.1744 22.9361 52.4881 23.8024 51.3106C24.217 50.7693 24.7851 50.3654 25.4325 50.1514C26.0799 49.9375 26.7768 49.9234 27.4324 50.111C28.6424 50.3761 29.4927 51.0158 29.7264 52.2472C29.8639 52.9239 29.7844 53.6267 29.4992 54.2556C29.214 54.8844 28.7377 55.4073 28.138 55.7496V55.7496Z"></path><path fill="#C0C195" d="M63.316 38.1827C65.1948 38.3378 67.0719 38.505 68.9507 38.6579C69.1768 36.9787 69.4578 35.3078 69.6883 33.6298L63.316 38.1827Z"></path><path fill="#C0C195" d="M102.08 34.0098C101.993 33.2609 101.832 32.5224 101.599 31.8054C100.964 29.8792 99.7528 28.1945 98.1293 26.9791C96.3308 25.6916 94.0709 25.344 91.9358 25.0156C83.9184 23.7831 75.35 23.4338 74.0382 23.2815C70.8026 22.9047 66.8849 23.6995 63.8192 24.8726C59.7822 26.4176 55.7788 29.6516 55.3223 33.9883C55.1924 35.8992 55.4471 37.8168 56.0714 39.6275C56.4443 39.8854 56.6071 40.6219 56.7935 41.0454C57.1785 41.9199 58.6118 45.2309 59.6871 47.8852C59.7558 48.0309 59.5886 48.1492 59.4445 48.1272C58.4144 47.889 57.3391 47.6063 56.2342 47.3176C55.9214 48.5085 55.741 49.7303 55.6963 50.9608C55.616 54.2129 58.1889 58.5084 61.4119 58.119C62.6269 57.9111 63.7455 57.3257 64.609 56.4459C65.7332 57.8853 67.0516 59.3708 67.4943 59.8213C67.5253 59.8518 67.5655 59.8712 67.6086 59.8767C67.6517 59.8821 67.6954 59.8733 67.733 59.8515L80.2373 53.295C79.8184 52.641 79.4524 51.9546 79.1428 51.2424C79.1362 51.1984 79.1467 51.1536 79.172 51.1171C79.1974 51.0807 79.2357 51.0552 79.2792 51.046C81.3054 50.6155 83.3794 50.453 85.448 50.5626C86.5799 49.9686 91.5315 47.3759 91.5777 47.3544L91.592 47.4094C91.9583 47.1845 102.928 45.3871 102.984 45.3777C103.017 45.3688 103.052 45.3688 103.086 45.3777C103.119 45.3866 103.15 45.404 103.174 45.4283C103.24 45.5092 103.3 45.5933 103.364 45.6758C103.39 45.6266 103.401 45.5705 103.393 45.5152C103.034 42.8703 102.901 39.9338 102.08 34.0098ZM64.1971 55.9025C63.2368 54.6183 62.8771 54.131 62.2754 53.257C62.1989 53.527 62.1028 53.7909 61.9877 54.0468C61.8832 54.2773 61.5477 54.0782 61.6478 53.8483C61.7895 53.5217 61.9039 53.1839 61.9899 52.8385C61.0775 51.4805 60.4785 50.4185 59.5793 48.7861C59.4566 48.5633 59.7965 48.3653 59.9192 48.587C61.2547 51.0858 62.8002 53.4665 64.5392 55.7034C64.691 55.9058 64.35 56.1027 64.1976 55.9025H64.1971ZM69.3 38.9235C69.2943 38.9661 69.2723 39.0049 69.2385 39.0315C69.2047 39.0581 69.1618 39.0705 69.119 39.0659C69.119 39.0659 64.9066 38.7035 62.8001 38.533C62.7761 38.5369 62.7515 38.536 62.7278 38.5304C62.7041 38.5247 62.6818 38.5145 62.6621 38.5001C62.6424 38.4858 62.6257 38.4677 62.6131 38.4469C62.6004 38.4261 62.592 38.403 62.5883 38.379V38.3663C62.5754 38.323 62.5791 38.2763 62.5989 38.2356C62.6187 38.1949 62.653 38.163 62.695 38.1463C70.1338 32.8311 69.8219 33.044 69.8769 33.0231C69.9079 33.0059 69.9437 32.9999 69.9786 33.006C70.0134 33.0121 70.0451 33.03 70.0683 33.0566C70.0931 33.0726 70.1131 33.0949 70.1264 33.1212C70.1396 33.1475 70.1456 33.1768 70.1437 33.2062C69.9391 34.749 69.3275 38.8503 69.3 38.9235ZM72.721 48.4352L70.8873 48.4676C70.8351 48.4676 70.785 48.4469 70.7481 48.41C70.7111 48.373 70.6904 48.323 70.6904 48.2707C70.6904 48.2185 70.7111 48.1684 70.7481 48.1315C70.785 48.0946 70.8351 48.0738 70.8873 48.0738C71.4983 48.0579 72.1094 48.0524 72.721 48.0414C72.7666 48.0504 72.8076 48.0749 72.8371 48.1107C72.8666 48.1466 72.8828 48.1916 72.8829 48.2381C72.8829 48.2845 72.8669 48.3295 72.8375 48.3655C72.8081 48.4014 72.7671 48.4261 72.7215 48.4352H72.721ZM74.899 50.7452C74.4046 50.5884 73.9842 50.2568 73.7166 49.8125C73.4489 49.3682 73.3523 48.8416 73.4448 48.3312C73.5701 47.8341 73.8618 47.395 74.2715 47.0868C74.6813 46.7787 75.1841 46.6202 75.6965 46.6378C76.1798 46.6285 76.6536 46.7733 77.0491 47.0513C77.4447 47.3292 77.7415 47.7259 77.8965 48.1838C78.3321 49.8696 76.5468 51.3287 74.8995 50.7424L74.899 50.7452ZM91.3258 47.1751C91.3143 47.135 88.8965 38.2178 88.6688 37.3752C88.369 37.3818 79.1587 37.6194 77.4202 37.7008C77.1666 37.7124 77.1683 37.3158 77.4202 37.307C78.3046 37.2658 87.8234 36.9836 88.8189 36.977C88.862 36.9771 88.9039 36.9912 88.9382 37.0173C88.9725 37.0435 88.9972 37.0801 89.0087 37.1217C89.0967 37.4363 91.6888 47.0052 91.7037 47.069C91.7169 47.1191 91.7098 47.1724 91.684 47.2173C91.6582 47.2622 91.6158 47.2952 91.5658 47.309C91.5159 47.3228 91.4625 47.3164 91.4173 47.2911C91.3721 47.2659 91.3386 47.2238 91.3242 47.174L91.3258 47.1751ZM97.4132 29.9601L95.3304 28.4355C95.128 28.2876 95.3243 27.946 95.5295 28.0956L97.6123 29.6197C97.8153 29.7643 97.6189 30.1059 97.4138 29.9563L97.4132 29.9601Z"></path><path fill="#000001" d="M21.0546 58.4601C19.6691 56.0692 18.8678 53.6569 20.0734 51.1544C20.1867 50.919 20.3132 50.6908 20.4402 50.4631C20.4666 50.418 20.474 50.3643 20.4608 50.3137C20.4476 50.2632 20.4149 50.22 20.3698 50.1936C20.3247 50.1672 20.271 50.1598 20.2205 50.173C20.17 50.1862 20.1267 50.2189 20.1003 50.264C17.6803 54.1629 20.2032 57.5938 21.4918 60.0694C23.3618 63.657 24.8655 69.8726 27.0892 74.9194C26.9924 74.406 26.9172 73.8901 26.8637 73.3717C24.42 67.3024 23.7441 63.101 21.0546 58.4601Z"></path><path fill="#FF9494" d="M59.6871 47.8852C58.6971 45.5235 57.4497 42.5348 56.7936 41.0454C56.6588 40.7396 56.5763 40.4008 56.4267 40.0994C56.5576 40.3744 56.6324 40.6824 56.7567 40.9601C56.8601 41.1922 56.5169 41.3847 56.4168 41.1587C56.1457 40.5482 56.1545 39.9487 55.4554 39.749C54.9405 39.6314 54.4023 39.6683 53.9083 39.8552C53.7388 39.9279 53.5949 40.0494 53.4949 40.2043C53.3948 40.3592 53.3433 40.5404 53.3467 40.7247C53.2769 41.8632 53.8912 43.0809 54.0507 43.9477C54.0887 44.1534 53.795 44.3124 53.691 44.0995C53.1608 43.0127 51.8623 40.7533 50.9696 40.079C49.8548 39.237 48.7971 39.8128 48.7515 41.1092C48.7267 41.8242 48.9946 42.3511 49.4489 44.0792C49.4551 44.1043 49.4562 44.1303 49.4523 44.1558C49.4483 44.1814 49.4393 44.2058 49.4258 44.2278C49.4123 44.2499 49.3945 44.269 49.3735 44.284C49.3526 44.2991 49.3288 44.3099 49.3037 44.3157C49.2577 44.3267 49.2093 44.3207 49.1674 44.2989C49.1254 44.2771 49.0928 44.2408 49.0754 44.1969C49.2169 44.6954 49.4944 45.1447 49.8769 45.4944C50.2593 45.8441 50.7316 46.0804 51.2408 46.1769C55.6331 47.02 55.99 47.3258 59.4457 48.125C59.5837 48.1486 59.7526 48.0408 59.6871 47.8852Z"></path><path fill="#000001" d="M73.4454 48.3285C73.4527 48.2891 73.4737 48.2535 73.5047 48.2282C73.5357 48.2028 73.5747 48.1892 73.6148 48.1899C73.6698 48.1728 77.4351 48.0381 77.7057 48.0364C77.7488 48.0366 77.7906 48.0508 77.8249 48.0769C77.8591 48.103 77.8839 48.1396 77.8954 48.1811C77.385 46.2957 74.1224 45.903 73.4454 48.3285Z"></path><path fill="#E6DEFF" d="M42.9424 61.8332C44.0897 61.5225 45.2408 61.2282 46.3859 60.9081C46.5396 59.8554 46.6932 58.8031 46.8468 57.7511C45.5653 59.1442 44.5253 60.2591 42.9424 61.8332Z"></path><path fill="#E6DEFF" d="M64.4204 64.6003C56.9404 57.9667 50.7578 53.1405 41.0795 54.8015C38.5788 55.1661 36.1753 56.0232 34.0081 57.3232C34.0534 57.2974 34.107 57.2904 34.1574 57.3037C34.2078 57.3169 34.2509 57.3494 34.2776 57.3942C34.5835 57.9598 34.8589 58.5415 35.1026 59.1366C35.1032 59.1542 35.1103 59.1711 35.1224 59.1839C35.1955 59.3697 35.2225 59.5705 35.2011 59.7691C35.1798 59.9677 35.1107 60.1581 34.9999 60.3243C34.889 60.4904 34.7396 60.6272 34.5645 60.7232C34.3893 60.8191 34.1935 60.8712 33.9938 60.8751C33.1617 60.8718 31.5738 60.6469 30.9138 60.5638C30.6575 60.5484 30.5789 60.3317 30.7021 60.2019C29.0648 62.2438 27.8931 64.6185 27.2688 67.1601C26.6444 69.7018 26.5826 72.3491 27.0875 74.9172C28.2562 81.0348 32.4225 87.4077 37.0848 91.2659C37.1223 91.3019 37.1723 91.322 37.2243 91.322C37.2762 91.322 37.3262 91.3019 37.3637 91.2659C45.7116 83.0374 53.5843 74.3111 64.4187 64.8791C64.4555 64.8421 64.4762 64.7922 64.4765 64.74C64.4768 64.6879 64.4567 64.6377 64.4204 64.6003V64.6003ZM47.8104 66.5313C47.7834 66.7222 47.3467 69.7868 47.1553 71.1277C47.1468 71.1608 47.1295 71.191 47.1053 71.2152C47.0812 71.2394 47.0509 71.2566 47.0178 71.2652C41.4309 72.7056 41.602 72.6611 41.547 72.6605C41.5083 72.6724 41.4666 72.6697 41.4298 72.6529C41.393 72.636 41.3636 72.6063 41.3473 72.5692C40.3287 70.5892 36.0673 62.2375 35.7318 61.605C35.7117 61.5673 35.7042 61.5241 35.7104 61.4818C35.7167 61.4396 35.7364 61.4004 35.7666 61.3702C35.7968 61.34 35.8359 61.3203 35.8782 61.314C35.9205 61.3078 35.9637 61.3153 36.0013 61.3355L47.7202 66.3091C47.7566 66.3319 47.7848 66.3658 47.8006 66.4058C47.8164 66.4458 47.8191 66.4897 47.8082 66.5313H47.8104ZM42.1168 62.1258C42.2482 61.886 42.2565 62.1517 46.9634 57.0455C46.9722 57.0254 46.9855 57.0077 47.0023 56.9936C47.0191 56.9796 47.0389 56.9697 47.0602 56.9646L47.0756 56.9602C47.1067 56.9534 47.1389 56.954 47.1697 56.9619C47.2006 56.9698 47.2291 56.9848 47.2531 57.0057C47.2771 57.0266 47.2959 57.0528 47.3079 57.0822C47.32 57.1117 47.325 57.1435 47.3225 57.1753C47.3291 57.2303 47.3401 57.0911 46.7527 61.1171C46.7501 61.1555 46.7329 61.1915 46.7047 61.2178C46.6766 61.244 46.6394 61.2585 46.6009 61.2585C46.5459 61.2744 42.3659 62.4069 42.3071 62.4052C42.2731 62.407 42.2392 62.4 42.2087 62.385C42.1782 62.37 42.152 62.3474 42.1327 62.3193C42.1134 62.2913 42.1016 62.2588 42.0984 62.2249C42.0953 62.1911 42.1008 62.1569 42.1146 62.1258H42.1168ZM32.6485 71.2107L31.4088 69.8907C31.2361 69.7059 31.5139 69.4271 31.6877 69.6124L32.9224 70.9324C33.1424 70.7069 34.6967 69.0806 35.2693 68.5058C35.3063 68.4691 35.3563 68.4484 35.4084 68.4484C35.4606 68.4484 35.5106 68.4691 35.5476 68.5058C35.6966 68.6554 38.0732 71.098 39.1105 72.171C39.1461 72.2086 39.1659 72.2584 39.1659 72.3102C39.1659 72.3619 39.1461 72.4117 39.1105 72.4493C38.9147 72.6589 34.9558 77.0198 34.4278 77.6001C34.4044 77.6296 34.3716 77.6502 34.3349 77.6585C34.2982 77.6668 34.2597 77.6623 34.2259 77.6457C34.0895 77.6012 30.4766 74.1532 30.2714 73.9519C30.2348 73.9148 30.2143 73.8649 30.2143 73.8128C30.2143 73.7607 30.2348 73.7107 30.2714 73.6736L32.6485 71.2107ZM41.5393 86.7295L38.9801 84.4916C38.7887 84.3266 39.0681 84.0472 39.2584 84.2133L41.8176 86.4512C42.009 86.6184 41.7296 86.8956 41.5393 86.7295ZM60.192 68.4052L57.9837 66.3647C57.7973 66.192 58.0761 65.9142 58.262 66.0858L60.4703 68.1263C60.6573 68.299 60.3779 68.5768 60.192 68.4052V68.4052Z"></path><path fill="#FFC580" d="M35.1246 59.1839C35.1125 59.171 35.1054 59.1542 35.1048 59.1366C34.8612 58.5414 34.5858 57.9598 34.2798 57.3941C34.2534 57.3491 34.2103 57.3163 34.1597 57.303C34.1092 57.2897 34.0555 57.297 34.0103 57.3232C32.7577 58.094 31.6411 59.0667 30.7059 60.2019C30.6692 60.2406 30.6494 60.2922 30.6507 60.3456C30.652 60.3989 30.6745 60.4495 30.7131 60.4862C30.811 60.5792 30.9842 60.5638 31.1151 60.5836C32.0703 60.7321 33.0327 60.8294 33.9982 60.8751C34.1981 60.8717 34.3941 60.8199 34.5695 60.7241C34.7448 60.6283 34.8944 60.4913 35.0051 60.325C35.1159 60.1586 35.1847 59.9679 35.2055 59.7691C35.2263 59.5704 35.1986 59.3695 35.1246 59.1839V59.1839Z"></path><path fill="#FFC580" d="M29.7291 52.25C29.4778 50.9982 28.6346 50.3767 27.4351 50.1138C26.7795 49.9262 26.0827 49.9403 25.4352 50.1542C24.7878 50.3682 24.2198 50.7721 23.8051 51.3134C22.9388 52.4909 23.304 54.1651 24.2704 55.1672C24.8626 55.7817 25.6747 56.1359 26.528 56.1516C27.3814 56.1674 28.206 55.8436 28.8205 55.2514C29.2122 54.8679 29.5008 54.3918 29.6597 53.8672C29.8185 53.3426 29.8424 52.7863 29.7291 52.25V52.25ZM26.3318 53.8274C26.0997 53.7262 26.3004 53.3874 26.5309 53.4875C26.9247 53.6591 27.5313 53.9044 27.896 53.5425C28.2062 53.2367 28.1347 52.69 28.0681 52.3034C28.0258 52.0553 28.4053 51.9492 28.4482 52.1989C28.5417 52.7428 28.6 53.4435 28.1424 53.8489C27.6199 54.3169 26.895 54.0694 26.3318 53.8247V53.8274Z"></path><path fill="#ffffff" d="M39.1105 72.166C38.0847 71.082 35.6966 68.6504 35.5476 68.5008C35.5106 68.4641 35.4606 68.4435 35.4084 68.4435C35.3563 68.4435 35.3063 68.4641 35.2693 68.5008C34.6967 69.0756 33.1408 70.7008 32.9224 70.9274C33.0121 71.0237 33.8255 71.891 34.1418 72.2293C34.315 72.4141 34.0373 72.6929 33.8635 72.5076L32.6485 71.2107L30.2714 73.6686C30.2348 73.7057 30.2143 73.7557 30.2143 73.8078C30.2143 73.8599 30.2348 73.9099 30.2714 73.9469C30.7477 74.415 34.1214 77.6061 34.2259 77.6407C34.2597 77.6573 34.2982 77.6618 34.3349 77.6535C34.3716 77.6452 34.4044 77.6246 34.4278 77.5951C34.9558 77.0148 38.9158 72.6544 39.1105 72.4443C39.1456 72.4065 39.1651 72.3568 39.1651 72.3052C39.1651 72.2536 39.1456 72.2039 39.1105 72.166Z"></path><path fill="#000001" d="M33.8635 72.5076C34.0373 72.693 34.3151 72.4141 34.1418 72.2293C33.8256 71.8911 31.79 69.7191 31.6877 69.6097C31.5139 69.4243 31.2362 69.7032 31.4089 69.888L33.8635 72.5076Z"></path><path fill="#F9705A" d="M77.8954 48.18C77.884 48.1384 77.8593 48.1017 77.825 48.0755C77.7907 48.0494 77.7488 48.0353 77.7056 48.0353C76.4736 48.0414 73.6719 48.1712 73.6147 48.1888C73.5748 48.1884 73.5359 48.2021 73.505 48.2274C73.474 48.2528 73.4529 48.2881 73.4453 48.3274C73.3617 48.8369 73.4621 49.3595 73.7285 49.8018C73.995 50.2441 74.41 50.5771 74.8995 50.7413C76.5699 51.337 78.3381 49.8366 77.8954 48.18Z"></path><path fill="#F7DA31" d="M95.8518 57.8468C94.667 56.5773 93.1907 55.6155 91.5508 55.0446C91.8846 56.4867 91.6355 58.3198 90.4986 59.2367C90.0654 59.5749 89.5423 59.7786 88.9944 59.8224C87.8003 59.8511 86.6307 59.4813 85.6702 58.7714C84.1791 57.8182 82.8412 56.6446 81.7019 55.2904C76.8999 56.4454 73.2226 58.4892 70.1904 62.6885C69.2046 64.0564 68.4057 65.5498 67.815 67.1292C67.5917 67.3932 61.0395 73.6835 56.133 78.8035C56.078 78.8585 54.9417 80.0415 54.9065 80.0965C54.9437 80.0631 54.9924 80.0452 55.0424 80.0466C55.0924 80.0479 55.14 80.0683 55.1754 80.1037C55.2304 80.1587 63.5283 88.451 63.8005 88.7282C63.8357 88.7643 63.8558 88.8124 63.8568 88.8627C63.8578 88.913 63.8397 88.9619 63.806 88.9994L63.8181 88.9917C65.3215 87.7135 66.8158 86.4235 68.3012 85.1219H100.636C100.688 85.121 100.738 85.1 100.775 85.0632C100.811 85.0265 100.832 84.9769 100.833 84.925C100.921 72.6803 101.485 63.8435 95.8518 57.8468ZM67.9668 82.5594L66.4268 83.638C66.2189 83.7832 66.022 83.4422 66.2282 83.2975L67.7682 82.2195C67.975 82.0743 68.1714 82.4153 67.9651 82.5594H67.9668ZM81.3164 73.6648C80.5315 74.3556 70.5914 83.099 69.0629 84.4448C68.8737 84.6098 68.5943 84.3348 68.7846 84.1665L81.0381 73.3865C81.2256 73.2199 81.505 73.4971 81.3147 73.6648H81.3164Z"></path><path fill="#F9705A" d="M63.8 88.7282C63.5162 88.4394 55.1798 80.1086 55.1749 80.1036C55.1395 80.0682 55.0919 80.0477 55.0418 80.0463C54.9918 80.045 54.9431 80.063 54.9059 80.0965C54.7767 80.1878 49.4411 85.998 48.2537 87.5803C48.0084 87.847 47.8239 88.1638 47.7132 88.5088C47.6025 88.8539 47.5681 89.2188 47.6124 89.5785C47.9336 90.9414 49.9625 91.2906 51.5047 90.0047C51.3919 90.2237 51.3266 90.4641 51.3132 90.7101C51.2997 90.9561 51.3384 91.2021 51.4267 91.4321C51.515 91.6621 51.6508 91.8709 51.8254 92.0447C52 92.2185 52.2094 92.3534 52.4397 92.4407C52.8235 92.5398 53.2237 92.5573 53.6146 92.492C54.0055 92.4267 54.3783 92.2801 54.709 92.0617C55.9537 91.2477 55.8409 91.0046 55.6336 91.5816C55.5573 91.7616 55.5192 91.9554 55.5218 92.1509C55.5243 92.3464 55.5673 92.5392 55.6481 92.7172C55.729 92.8951 55.8459 93.0544 55.9915 93.1849C56.137 93.3154 56.3081 93.4142 56.4938 93.4752C57.1928 93.6908 58.0002 93.3168 58.6096 92.9984C59.3339 92.6144 60.0194 92.1615 60.6567 91.6459C61.3596 91.0838 63.7648 89.0571 63.8055 88.9993C63.8391 88.9619 63.8573 88.913 63.8563 88.8627C63.8552 88.8123 63.8351 88.7643 63.8 88.7282V88.7282ZM54.9862 86.3379L55.9856 85.3622C56.1671 85.1851 56.4459 85.4634 56.2644 85.6405L55.2645 86.6167C55.0836 86.7938 54.8047 86.515 54.9868 86.3379H54.9862ZM58.8912 88.3778L58.13 89.2551C57.965 89.447 57.6862 89.1671 57.8517 88.9768L58.6129 88.0995C58.7796 87.9076 59.0573 88.1875 58.8918 88.3778H58.8912Z"></path><path fill="#000001" d="M86.6987 50.7227C84.2261 50.3864 81.7132 50.4958 79.2792 51.0455C79.1769 51.0686 79.101 51.1748 79.1615 51.3348C80.5897 54.3757 82.8453 56.9529 85.6702 58.7714C86.6307 59.4813 87.8003 59.8511 88.9944 59.8224C89.5439 59.7829 90.0687 59.5786 90.5004 59.2363C90.9321 58.894 91.2506 58.4295 91.4144 57.9035C92.4093 55.0468 90.75 51.4965 86.6987 50.7227Z"></path><path fill="#FF9494" d="M52.7791 34.8403C52.7629 34.494 52.7239 34.1491 52.6625 33.8079C52.5931 33.5349 52.4691 33.2789 52.298 33.0551C52.1269 32.8314 51.9122 32.6446 51.667 32.5061C51.4217 32.3677 51.1509 32.2803 50.871 32.2493C50.591 32.2184 50.3077 32.2444 50.0381 32.326C49.7685 32.4075 49.5182 32.5429 49.3023 32.7238C49.0865 32.9048 48.9095 33.1275 48.7821 33.3788C48.6547 33.63 48.5796 33.9044 48.5612 34.1855C48.5427 34.4665 48.5815 34.7484 48.675 35.0141C48.9017 35.9615 49.2645 36.8711 49.7519 37.7146C49.8891 37.9598 50.0862 38.1663 50.3248 38.3148C50.5633 38.4633 50.8356 38.549 51.1162 38.564C51.3968 38.5789 51.6766 38.5226 51.9296 38.4002C52.1826 38.2778 52.4005 38.0934 52.5629 37.8642C53.0057 37.208 52.9017 36.927 52.7791 34.8403Z"></path><path fill="#FF9494" d="M55.561 22.3635L55.55 22.3602C55.574 22.3764 55.5941 22.3976 55.609 22.4223C55.6239 22.4471 55.6332 22.4749 55.6361 22.5036C55.6391 22.5323 55.6358 22.5614 55.6263 22.5887C55.6169 22.616 55.6015 22.6409 55.5814 22.6616C53.9198 24.189 54.2691 23.843 52.8424 25.2329C52.8211 25.2535 52.7955 25.2692 52.7674 25.2787C52.7393 25.2881 52.7094 25.2912 52.68 25.2876C52.6505 25.284 52.6223 25.2739 52.5973 25.2579C52.5723 25.242 52.5511 25.2207 52.5355 25.1955C52.538 25.2039 52.5411 25.2122 52.5448 25.2202C52.7988 25.7183 53.2268 26.1059 53.7476 26.3094C54.2684 26.5128 54.8458 26.5181 55.3702 26.3241C55.7621 26.173 56.1017 25.9112 56.3476 25.5707C56.5936 25.2302 56.7352 24.8255 56.7555 24.406C56.7757 23.9864 56.6736 23.57 56.4615 23.2074C56.2494 22.8448 55.9366 22.5516 55.561 22.3635V22.3635Z"></path><path fill="#FF9494" d="M106.648 50.5736C104.969 48.0722 104.216 46.717 103.175 45.4278C103.15 45.4035 103.119 45.3861 103.086 45.3772C103.052 45.3683 103.017 45.3683 102.984 45.3772C99.1766 46.0037 95.3964 46.6164 91.6212 47.3952C91.5728 47.4121 91.5322 47.446 91.5069 47.4906C91.4816 47.5352 91.4734 47.5875 91.4837 47.6377C91.506 48.2787 91.3411 48.9123 91.0091 49.461C90.6841 50.0249 90.4592 50.6408 90.3441 51.2815C90.324 51.6059 90.3843 51.9302 90.5195 52.2258C90.6547 52.5213 90.8607 52.7789 91.1193 52.9758C91.3779 53.1728 91.681 53.3028 92.0019 53.3546C92.3228 53.4063 92.6515 53.3781 92.9588 53.2725C93.5818 53.0777 94.1183 52.6736 94.4774 52.1285C94.8536 52.9953 95.2697 53.843 95.7259 54.6717C96.33 55.8164 97.0475 56.8976 97.8676 57.8991C98.3626 58.4177 99.0314 58.8566 99.7062 58.6141C100.746 58.2423 100.727 56.8893 100.553 56.0016C100.429 55.3707 100.323 55.0556 99.8635 53.2934L101.526 55.8784C101.708 56.2166 101.944 56.5234 102.223 56.787C102.367 56.8916 102.535 56.96 102.711 56.9862C102.887 57.0124 103.067 56.9957 103.236 56.9375C103.404 56.8793 103.556 56.7813 103.679 56.6519C103.801 56.5225 103.891 56.3654 103.94 56.1941C104.069 55.7912 104.111 55.3654 104.063 54.945C103.997 53.7142 103.724 52.5034 103.255 51.3634C103.776 51.788 104.116 52.4381 104.63 52.866C105.235 53.3682 106.247 53.74 106.868 53.0514C107.535 52.3144 107.127 51.2859 106.648 50.5736ZM102.383 48.6112L102.922 49.7112C103.032 49.9384 102.693 50.1375 102.582 49.9098L102.042 48.8098C101.931 48.5832 102.271 48.3835 102.383 48.6112ZM98.4984 50.215L99.1947 51.2463C99.3372 51.4575 98.9956 51.6538 98.8548 51.4454L98.1585 50.4136C98.0161 50.204 98.3576 50.0071 98.4984 50.215Z"></path><path fill="#000001" d="M55.55 22.3602L55.5412 22.352C55.1515 22.1402 54.7091 22.045 54.2668 22.0779C53.8245 22.1108 53.401 22.2703 53.047 22.5373C52.6707 22.8552 52.4147 23.2924 52.3216 23.776C52.2285 24.2597 52.304 24.7607 52.5355 25.1955C52.5638 25.24 52.6087 25.2715 52.6602 25.2832C52.7117 25.2948 52.7657 25.2856 52.8105 25.2576C52.8407 25.2384 53.1674 24.9144 53.1927 24.8897C53.9671 24.1246 54.78 23.3981 55.5814 22.6616C55.6014 22.6409 55.6167 22.616 55.6261 22.5887C55.6355 22.5614 55.6388 22.5324 55.6358 22.5036C55.6328 22.4749 55.6236 22.4472 55.6088 22.4224C55.594 22.3977 55.5739 22.3764 55.55 22.3602V22.3602Z"></path><path fill="#000001" d="M51.546 26.4413L50.2508 27.4483C50.0511 27.6034 50.3316 27.8801 50.5296 27.7266L51.8243 26.7196C52.024 26.565 51.744 26.29 51.546 26.4413Z"></path><path fill="#000001" d="M70.8879 48.4676C71.4989 48.4566 72.1105 48.4511 72.7216 48.4352C72.7738 48.4352 72.8239 48.4144 72.8608 48.3775C72.8977 48.3406 72.9185 48.2905 72.9185 48.2383C72.9185 48.1861 72.8977 48.136 72.8608 48.0991C72.8239 48.0621 72.7738 48.0414 72.7216 48.0414C72.11 48.0524 71.4989 48.0579 70.8879 48.0738C70.8357 48.0738 70.7856 48.0946 70.7486 48.1315C70.7117 48.1684 70.691 48.2185 70.691 48.2707C70.691 48.323 70.7117 48.373 70.7486 48.41C70.7856 48.4469 70.8357 48.4676 70.8879 48.4676V48.4676Z"></path><path fill="#A5A538" d="M91.3264 47.1724C91.3408 47.2222 91.3743 47.2642 91.4195 47.2895C91.4647 47.3148 91.5181 47.3212 91.568 47.3073C91.618 47.2935 91.6604 47.2606 91.6862 47.2157C91.712 47.1707 91.7191 47.1175 91.7059 47.0674C91.6899 47.0036 89.0972 37.4347 89.0109 37.1201C88.9995 37.0785 88.9747 37.0418 88.9404 37.0157C88.9061 36.9896 88.8642 36.9754 88.8211 36.9754C87.8256 36.9804 78.3068 37.2631 77.4224 37.3054C77.1705 37.317 77.1688 37.7108 77.4224 37.6992C79.1609 37.6178 88.3712 37.3802 88.671 37.3736C88.897 38.2151 91.3148 47.135 91.3264 47.1724Z"></path><path fill="#ffffff" d="M34.9652 38.8812C35.6392 39.4782 36.4455 39.9066 37.3176 40.131C38.1897 40.3555 39.1026 40.3695 39.9812 40.172C43.4874 39.1611 42.5662 34.3178 40.1159 31.6366C38.0996 29.4305 35.1027 28.5566 33.4378 29.722C29.8887 32.2064 33.1353 37.3901 34.9652 38.8812ZM36.6641 30.9766C37.7247 31.5672 38.6834 32.3247 39.5032 33.22C39.6754 33.4059 39.3971 33.6853 39.2249 33.4983C38.4146 32.6417 37.4851 31.9063 36.465 31.3148C36.4427 31.3018 36.4232 31.2844 36.4075 31.2638C36.3919 31.2432 36.3805 31.2197 36.374 31.1947C36.3675 31.1696 36.3659 31.1436 36.3694 31.1179C36.373 31.0923 36.3815 31.0676 36.3946 31.0453C36.4077 31.023 36.425 31.0035 36.4456 30.9879C36.4663 30.9723 36.4897 30.9608 36.5148 30.9543C36.5398 30.9478 36.5659 30.9462 36.5915 30.9498C36.6171 30.9533 36.6418 30.9619 36.6641 30.9749V30.9766Z"></path><path fill="#A5A538" d="M64.5376 55.7035C62.8009 53.465 61.2554 51.0844 59.9176 48.587C59.7949 48.367 59.455 48.5634 59.5777 48.7861C60.4918 50.4427 61.0979 51.513 61.9883 52.8385C61.9023 53.184 61.7879 53.5217 61.6462 53.8483C61.5439 54.0782 61.8816 54.2773 61.9861 54.0469C62.1012 53.791 62.1973 53.527 62.2738 53.2571C62.8738 54.1266 63.2088 54.5804 64.1955 55.9026C64.35 56.1028 64.691 55.9059 64.5376 55.7035Z"></path><path fill="#C4AFF9" d="M39.2585 84.2133C39.0682 84.0483 38.7888 84.3233 38.9802 84.4916L41.5393 86.7295C41.7296 86.8945 42.009 86.6195 41.8176 86.4512L39.2585 84.2133Z"></path><path fill="#C4AFF9" d="M58.262 66.0858C58.0761 65.9142 57.7973 66.1919 57.9837 66.3646L60.192 68.4051C60.3779 68.5767 60.6573 68.299 60.4703 68.1263L58.262 66.0858Z"></path><path fill="#C4AFF9" d="M47.3203 57.1753C47.3368 56.9668 47.0332 56.8766 46.9562 57.051C45.1836 58.976 44.033 60.2327 42.1646 62.0587C42.1344 62.0861 42.1133 62.1221 42.1043 62.1618C42.0952 62.2016 42.0985 62.2431 42.1138 62.2809C42.1291 62.3187 42.1556 62.3509 42.1898 62.3731C42.224 62.3954 42.2641 62.4066 42.3049 62.4052C42.3599 62.4052 46.1549 61.3773 46.5916 61.2579C46.6113 61.2595 46.6312 61.2571 46.65 61.2508C46.6688 61.2445 46.6861 61.2345 46.701 61.2213C46.7158 61.2082 46.7279 61.1922 46.7364 61.1743C46.7449 61.1564 46.7497 61.1369 46.7505 61.1171C47.3247 57.1802 47.3269 57.2308 47.3203 57.1753ZM46.3853 60.9081C44.4691 61.4416 42.422 61.9735 42.9418 61.8332C44.468 60.3147 45.5218 59.1932 46.8182 57.7814C46.7412 58.3077 46.6103 59.2444 46.3859 60.9081H46.3853Z"></path><path fill="#000001" d="M28.0681 52.305C28.1347 52.69 28.2062 53.24 27.896 53.5442C27.5313 53.9033 26.9247 53.658 26.5309 53.4892C26.3004 53.3885 26.0997 53.7279 26.3318 53.8291C26.8944 54.0738 27.6199 54.3213 28.1424 53.8555C28.6 53.4479 28.5417 52.7472 28.4482 52.2055C28.4053 51.9492 28.0258 52.0553 28.0681 52.305Z"></path><path fill="#A5A538" d="M69.8753 33.0225C69.8203 33.044 70.1503 32.8191 62.6934 38.1458C62.6536 38.1656 62.6214 38.198 62.6017 38.2379C62.582 38.2778 62.5759 38.3231 62.5844 38.3667C62.5929 38.4104 62.6155 38.4501 62.6487 38.4797C62.6819 38.5094 62.7239 38.5273 62.7682 38.5308C62.7682 38.5308 67.0131 38.8965 69.1196 39.0665C69.1624 39.0709 69.2052 39.0584 69.2389 39.0317C69.2726 39.0049 69.2945 38.9661 69.3 38.9235C69.3391 38.8173 69.9749 34.4685 70.1415 33.2035C70.1405 33.1721 70.1321 33.1415 70.1169 33.114C70.1018 33.0865 70.0804 33.0629 70.0544 33.0453C70.0285 33.0277 69.9987 33.0164 69.9676 33.0125C69.9365 33.0085 69.9048 33.012 69.8753 33.0225V33.0225ZM68.9508 38.6579C67.072 38.505 65.1948 38.3377 63.316 38.1826L69.6883 33.6297C69.4579 35.31 69.1768 36.9787 68.9508 38.6579V38.6579Z"></path><path fill="#A5A538" d="M95.53 28.0918C95.3249 27.9422 95.1285 28.2837 95.3309 28.4317L97.4138 29.9563C97.6189 30.1059 97.8153 29.7643 97.6129 29.6158L95.53 28.0918Z"></path><path fill="#F9705A" d="M98.4984 50.215C98.3576 50.006 98.0161 50.2029 98.1585 50.4136L98.8548 51.4454C98.9956 51.6538 99.3372 51.4575 99.1947 51.2463L98.4984 50.215Z"></path><path fill="#F9705A" d="M102.383 48.6112C102.273 48.3835 101.931 48.5832 102.042 48.8098L102.582 49.9098C102.692 50.1375 103.033 49.9384 102.922 49.7112C102.742 49.3449 102.562 48.9783 102.383 48.6112Z"></path><path fill="#F9705A" d="M81.0364 73.3865L68.783 84.1665C68.5927 84.3343 68.8721 84.612 69.0613 84.4448C70.5914 83.0995 80.5299 74.3562 81.3147 73.6648C81.505 73.4971 81.2256 73.2199 81.0364 73.3865Z"></path><path fill="#F9705A" d="M67.7666 82.2195L66.2266 83.2975C66.0203 83.4422 66.2172 83.7832 66.4251 83.638L67.9651 82.5594C68.1714 82.4153 67.975 82.0743 67.7666 82.2195Z"></path><path fill="#FF4848" d="M58.6135 88.0995L57.8523 88.9768C57.6873 89.1671 57.9623 89.447 58.1306 89.2551L58.8918 88.3778C59.0573 88.1875 58.7796 87.9076 58.6135 88.0995Z"></path><path fill="#FF4848" d="M55.9862 85.36L54.9868 86.3357C54.8048 86.5134 55.0836 86.7917 55.2651 86.6146L56.265 85.6383C56.4465 85.4634 56.1677 85.1851 55.9862 85.36Z"></path><path fill="#2755A0" d="M60.175 60.9779L39.4081 43.2575C40.57 43.0151 41.66 42.5068 42.5926 41.7725C43.0634 41.9061 48.5502 43.4417 48.8763 43.5325C48.8543 43.4511 48.7663 43.1552 48.7487 43.0881C48.4851 42.4043 48.3571 41.6758 48.372 40.9431C48.4721 39.7936 49.3268 39.028 50.4752 39.3827C51.4602 39.6874 52.1087 40.6956 52.7153 41.6064C52.7351 41.6361 53.0151 42.0717 53.0338 42.1014C53.2092 42.3824 53.1883 42.3764 53.1707 42.3071L53.1124 42.075C52.9279 41.4997 52.8966 40.8862 53.0217 40.2952C53.2868 39.4212 54.3351 39.2128 55.2431 39.3052C55.5434 39.333 55.8301 39.4434 56.0714 39.6242C55.8855 39.0065 55.731 38.4065 55.6105 37.8565L52.8677 37.0491C52.8522 37.3448 52.7454 37.6285 52.5619 37.8609C52.3997 38.0907 52.1819 38.2756 51.9289 38.3983C51.6759 38.521 51.3958 38.5775 51.115 38.5626C50.8342 38.5476 50.5617 38.4617 50.3231 38.3128C50.0846 38.1639 49.8876 37.957 49.7508 37.7113C49.4021 37.1431 49.1296 36.5316 48.9401 35.8924L45.9855 35.0262C46.0471 30.5442 42.317 26.4638 37.4528 26.1481C35.6835 26.0233 33.9149 26.3998 32.3499 27.2343C31.1212 27.911 30.1102 28.9232 29.4349 30.1526C28.2075 32.3757 27.892 34.9888 28.5549 37.4401C22.1524 43.0474 21.0221 44.0209 20.8962 44.165L15.1553 43.5539C15.1123 43.5546 15.0707 43.569 15.0366 43.595C15.0024 43.621 14.9775 43.6573 14.9655 43.6986C14.7015 44.561 12.5483 51.0521 12.3514 51.6444C12.1578 51.7929 10.7531 53.0266 2.83965 59.9654C2.80291 60.0024 2.78229 60.0524 2.78229 60.1045C2.78229 60.1567 2.80291 60.2067 2.83965 60.2437L8.1114 65.0188L3.4584 75.6041C3.44391 75.6303 3.43545 75.6593 3.43364 75.6892C3.43183 75.7191 3.43672 75.749 3.44795 75.7767C3.45918 75.8044 3.47646 75.8293 3.49854 75.8495C3.52062 75.8697 3.54693 75.8847 3.57555 75.8934C3.77795 75.9484 26.3665 81.7184 26.3791 81.7234C26.4039 81.7301 26.4299 81.7316 26.4553 81.7279C26.4807 81.7242 26.5052 81.7154 26.5271 81.7019L35.3821 89.722C34.4936 88.8443 33.6606 87.9123 32.8878 86.9313C9.7614 65.9824 3.73285 60.5313 3.28405 60.1012L28.6941 37.84C30.1048 41.4606 34.7254 43.9725 38.901 43.3493L56.1369 58.0492C57.5378 58.9473 58.8861 59.9252 60.175 60.9779V60.9779ZM25.9919 81.2152C22.7101 80.372 4.12005 75.6096 3.905 75.5606L8.415 65.2954L25.9919 81.2152ZM12.9388 51.1186C13.5515 49.2558 15.218 44.1886 15.2928 43.962L20.4771 44.512C18.007 46.6752 12.9388 51.1186 12.9388 51.1186ZM34.9652 38.8811C33.1353 37.3901 29.8887 32.2063 33.4378 29.722C35.1027 28.5571 38.0996 29.4305 40.1159 31.6365C42.57 34.32 43.4863 39.16 39.9812 40.172C39.1026 40.3696 38.1896 40.3556 37.3176 40.1312C36.4455 39.9068 35.6392 39.4783 34.9652 38.8811Z"></path><path fill="#2755A0" d="M47.718 66.3091L35.9991 61.3355C35.9615 61.3153 35.9183 61.3078 35.876 61.314C35.8337 61.3203 35.7946 61.34 35.7644 61.3702C35.7342 61.4004 35.7145 61.4396 35.7082 61.4818C35.7019 61.5241 35.7095 61.5673 35.7296 61.605C35.9199 61.9658 41.3424 72.5626 41.3451 72.5692C41.3614 72.6063 41.3908 72.636 41.4276 72.6529C41.4644 72.6697 41.5061 72.6724 41.5448 72.6605C41.5998 72.6605 41.4348 72.704 47.0156 71.2652C47.0487 71.2566 47.079 71.2394 47.1031 71.2152C47.1273 71.191 47.1446 71.1608 47.1531 71.1277C47.3445 69.7868 47.7812 66.7222 47.8082 66.5313C47.819 66.4895 47.816 66.4453 47.7998 66.4053C47.7835 66.3653 47.7549 66.3316 47.718 66.3091V66.3091Z"></path><path fill="#000001" d="M36.465 31.3164C37.4851 31.9079 38.4146 32.6433 39.2249 33.4999C39.3971 33.6869 39.6754 33.4075 39.5032 33.2216C38.6834 32.3258 37.7248 31.5678 36.6641 30.9765C36.6191 30.9501 36.5653 30.9427 36.5148 30.9559C36.4643 30.9691 36.421 31.0019 36.3946 31.0469C36.3682 31.092 36.3608 31.1457 36.374 31.1963C36.3872 31.2468 36.42 31.29 36.465 31.3164V31.3164Z"></path><path fill="#F9705A" d="M49.4478 44.0803C48.9907 42.3445 48.5854 41.5448 48.8131 40.6593C49.0666 39.6693 50.0099 39.3536 50.9685 40.0791C51.8683 40.7594 53.1482 42.9885 53.6899 44.0995C53.7939 44.3124 54.0876 44.1545 54.0496 43.9477C53.8478 42.8527 52.6383 40.4233 53.9072 39.8552C54.4674 39.6346 55.0888 39.625 55.6556 39.8283C56.1369 40.0329 56.2441 40.7731 56.4157 41.1587C56.5153 41.3836 56.859 41.1933 56.7556 40.9601C56.6367 40.473 56.4069 40.02 56.0841 39.6363C55.7539 39.3878 55.3466 39.2639 54.934 39.2865C54.2399 39.2711 53.4127 39.4658 53.102 40.0917C52.9033 40.7386 52.9069 41.4308 53.1124 42.0755C53.1207 42.1063 53.1823 42.3473 53.1823 42.3473C52.7619 41.6391 52.2929 40.961 51.7787 40.3177C51.4429 39.8875 50.9904 39.5629 50.4752 39.3828C49.4329 39.0687 48.4759 39.6743 48.372 40.9431C48.3496 41.6445 48.4697 42.3431 48.7251 42.9968C48.9621 43.7778 49.0446 44.1408 49.0743 44.1985C49.0927 44.2445 49.1278 44.2818 49.1726 44.3029C49.2173 44.3241 49.2684 44.3276 49.3156 44.3127C49.3628 44.2978 49.4026 44.2657 49.4271 44.2227C49.4516 44.1797 49.459 44.129 49.4478 44.0809V44.0803Z"></path><path fill="#000001" d="M32.5935 24.453C32.6085 24.5026 32.642 24.5445 32.6871 24.5701C32.7321 24.5957 32.7853 24.603 32.8355 24.5905C32.8605 24.5838 32.8839 24.5721 32.9044 24.5563C32.9249 24.5404 32.942 24.5207 32.9548 24.4982C32.9676 24.4757 32.9758 24.4509 32.9789 24.4252C32.982 24.3995 32.98 24.3734 32.973 24.3485L29.7319 16.61C29.7167 16.5604 29.6831 16.5186 29.638 16.493C29.5929 16.4674 29.5397 16.4601 29.4893 16.4725C29.439 16.4865 29.3962 16.5199 29.3705 16.5654C29.3447 16.6108 29.338 16.6647 29.3518 16.7151C29.7181 17.5868 32.461 24.1368 32.5935 24.453Z"></path><path fill="#000001" d="M33.8184 20.1922C33.8734 21.2713 34.0054 23.7309 34.0136 23.8821C34.0268 24.134 34.4206 24.1357 34.4069 23.8821C34.3519 22.803 34.2204 20.3434 34.2122 20.1922C34.199 19.9403 33.8052 19.9386 33.8184 20.1922Z"></path><path fill="#000001" d="M27.4961 22.6562C27.4512 22.6316 27.3984 22.6255 27.349 22.6392C27.2996 22.6529 27.2575 22.6853 27.2317 22.7296C27.2058 22.7739 27.1982 22.8265 27.2105 22.8762C27.2228 22.926 27.2541 22.969 27.2976 22.9961C28.4399 23.7017 31.0706 25.2775 31.2361 25.3721C31.2811 25.3966 31.3339 25.4027 31.3833 25.389C31.4327 25.3753 31.4748 25.3429 31.5006 25.2986C31.5265 25.2544 31.534 25.2018 31.5217 25.152C31.5094 25.1022 31.4782 25.0593 31.4347 25.0322C30.6179 24.53 27.5412 22.682 27.4961 22.6562Z"></path><path fill="#000001" d="M35.7016 61.6214C36.2213 62.6114 40.7874 71.6138 41.3176 72.5851C41.3366 72.6282 41.3706 72.6629 41.4134 72.6827C41.4561 72.7024 41.5046 72.7059 41.5497 72.6924C41.6047 72.6924 41.4111 72.7474 47.0244 71.297C47.0631 71.287 47.0984 71.2668 47.1266 71.2386C47.1549 71.2104 47.175 71.1751 47.185 71.1364C47.3764 69.7955 47.8131 66.7309 47.8401 66.5401C47.8527 66.4913 47.8492 66.4397 47.8302 66.3931C47.8112 66.3464 47.7776 66.3071 47.7345 66.281L36.0156 61.3074C35.9717 61.2839 35.9215 61.2752 35.8722 61.2826C35.823 61.2899 35.7774 61.3128 35.7422 61.348C35.707 61.3832 35.6841 61.4288 35.6768 61.478C35.6695 61.5272 35.6782 61.5775 35.7016 61.6214V61.6214ZM47.3671 66.6303C47.1262 68.3215 47.0371 68.954 46.7621 70.8906L41.635 72.2018C41.4755 71.8894 36.3902 61.9613 36.3902 61.9613C36.4474 61.985 47.3104 66.6083 47.3671 66.6303V66.6303Z"></path><path fill="#000001" d="M27.445 50.0791C26.7819 49.8915 26.0778 49.9069 25.4235 50.1235C24.7693 50.3401 24.195 50.7478 23.7749 51.2941C22.902 52.4848 23.27 54.1755 24.2451 55.1881C24.7363 55.6975 25.3803 56.0326 26.0793 56.1428C26.7783 56.2529 27.4942 56.1319 28.1182 55.7983C28.7422 55.4646 29.2403 54.9364 29.5369 54.294C29.8335 53.6515 29.9124 52.9298 29.7616 52.2384C29.6539 51.6796 29.3715 51.1694 28.9552 50.7813C28.5389 50.3932 28.0101 50.1474 27.445 50.0791V50.0791ZM28.336 55.1067C27.8488 55.4873 27.2507 55.6986 26.6325 55.7085C26.0144 55.7184 25.4098 55.5265 24.9106 55.1617C23.8057 54.3647 23.309 52.6476 24.1714 51.524C25.1064 50.3019 26.8114 50.1556 28.1738 50.809C28.2825 50.862 28.3874 50.9225 28.4878 50.9899C29.59 51.739 29.7996 53.9291 28.3355 55.1067H28.336Z"></path><path fill="#000001" d="M35.5713 68.4778C35.5279 68.4352 35.4695 68.4114 35.4087 68.4114C35.348 68.4114 35.2896 68.4352 35.2462 68.4778L32.923 70.8802L31.713 69.5866C31.5101 69.3704 31.1861 69.6966 31.388 69.9116L32.6051 71.2102L30.25 73.645C30.2072 73.6882 30.1832 73.7465 30.1832 73.8073C30.1832 73.8681 30.2072 73.9264 30.25 73.9695C31.3561 75.0591 33.9658 77.4653 34.1275 77.6182C34.1507 77.6397 34.1778 77.6565 34.2073 77.6677L34.2166 77.671C34.2565 77.6891 34.3013 77.6935 34.3439 77.6836C34.3866 77.6736 34.4248 77.6499 34.4526 77.616C34.9652 77.022 38.9422 72.6765 39.1347 72.4653C39.1768 72.4216 39.2003 72.3634 39.2003 72.3028C39.2003 72.2421 39.1768 72.1839 39.1347 72.1402L35.5713 68.4778ZM34.2766 77.1287L30.7384 73.8001L32.9181 71.5451L33.841 72.5296C34.0434 72.7458 34.3679 72.4196 34.1655 72.2046L33.2376 71.2146L35.409 68.97L38.654 72.3107L34.2766 77.1287Z"></path><path fill="#000001" d="M74.8913 50.7738C76.5578 51.3667 78.3712 49.8867 77.9273 48.1723C77.7583 47.7012 77.4446 47.2956 77.0311 47.0134C76.6176 46.7313 76.1256 46.5872 75.6252 46.6016C75.1249 46.616 74.6419 46.7882 74.2454 47.0936C73.8488 47.399 73.559 47.822 73.4173 48.3021C73.3209 48.8228 73.4173 49.3609 73.6886 49.8157C73.9598 50.2705 74.3873 50.6111 74.8913 50.7738V50.7738ZM74.5652 47.3946C74.7903 47.2475 75.0426 47.1467 75.3071 47.098C75.5717 47.0494 75.8433 47.054 76.1061 47.1114C76.3689 47.1688 76.6176 47.278 76.8377 47.4326C77.0579 47.5872 77.245 47.784 77.3883 48.0117C77.1518 48.0183 74.3237 48.1217 73.969 48.136C74.1028 47.843 74.3077 47.5882 74.5652 47.3946ZM73.8309 48.6046C75.0569 48.5496 76.2828 48.4979 77.5099 48.4704C77.5515 48.8667 77.4574 49.2654 77.243 49.6013C77.0286 49.9372 76.7066 50.1904 76.3296 50.3195C75.1086 50.7749 73.727 49.8086 73.8309 48.603V48.6046Z"></path><path fill="#000001" d="M8.07234 65.0276L3.42979 75.5876C3.39981 75.6418 3.39253 75.7057 3.40954 75.7653C3.42655 75.8249 3.46646 75.8753 3.52054 75.9055C3.57554 75.9352 26.3158 81.7399 26.3708 81.7537C26.4209 81.7671 26.4742 81.7616 26.5204 81.7383C26.5204 81.7383 36.8527 91.1147 37.0639 91.2896C37.1075 91.3316 37.1657 91.355 37.2262 91.355C37.2867 91.355 37.3449 91.3316 37.3884 91.2896C45.7484 83.0544 53.9077 74.4046 64.4435 64.9028C64.4863 64.8595 64.5103 64.8011 64.5103 64.7402C64.5103 64.6794 64.4863 64.621 64.4435 64.5777C64.356 64.5002 39.5477 43.3356 39.4861 43.2839C40.6232 43.0365 41.6882 42.5313 42.5991 41.8072C43.065 41.9392 48.5298 43.4687 48.8499 43.5578C48.9962 44.0842 48.9758 43.9835 49.0369 44.1942C49.1814 44.6998 49.4628 45.1558 49.8501 45.5117C50.2373 45.8676 50.7153 46.1096 51.2314 46.211C53.7135 46.6818 54.9059 46.9953 56.1968 47.3407C55.8872 48.5245 55.7083 49.7386 55.6633 50.9614C55.5846 54.2207 58.152 58.5448 61.4119 58.1526C62.6237 57.9478 63.7406 57.3678 64.6052 56.4944C65.4764 57.6076 66.3931 58.6824 67.3552 59.719C67.5202 67.9921 67.5229 67.3695 67.4679 67.4245C63.5409 71.2844 59.6816 75.0525 56.1093 78.7809C56.0543 78.8359 54.9175 80.019 54.8828 80.074C54.6628 80.2302 49.3152 86.1119 48.2251 87.5644C47.9784 87.8355 47.7931 88.1565 47.6818 88.5058C47.5706 88.855 47.536 89.2241 47.5805 89.5879C47.643 89.84 47.7673 90.0727 47.9423 90.2647C48.1173 90.4568 48.3373 90.6022 48.5826 90.6879C49.0682 90.8374 49.5837 90.8619 50.0813 90.759C50.5788 90.6561 51.0424 90.4292 51.4288 90.0994C51.3322 90.3201 51.2816 90.5582 51.28 90.7991C51.2785 91.04 51.326 91.2788 51.4198 91.5007C51.5136 91.7226 51.6516 91.9231 51.8255 92.09C51.9993 92.2568 52.2053 92.3864 52.4309 92.471C52.8188 92.5724 53.2236 92.5907 53.6191 92.5249C54.0145 92.459 54.3915 92.3104 54.7255 92.0887C55.8074 91.3963 55.7469 91.1653 55.6022 91.5717C55.5248 91.7558 55.4863 91.9539 55.4893 92.1536C55.4923 92.3534 55.5366 92.5503 55.6196 92.7319C55.7026 92.9136 55.8223 93.0761 55.9713 93.2092C56.1202 93.3422 56.2951 93.443 56.485 93.505C57.1961 93.7129 58.0068 93.3438 58.6256 93.0248C59.4658 92.5721 60.2582 92.0357 60.9906 91.4238C62.0026 90.6076 66.8519 86.4325 68.3105 85.1538H100.633C100.694 85.153 100.752 85.1286 100.795 85.0856C100.838 85.0427 100.863 84.9846 100.863 84.9239C100.863 74.7555 101.431 67.6297 98.4032 61.4482C98.3878 60.8713 98.3224 58.795 98.307 58.3336C98.4964 58.4992 98.7244 58.6146 98.97 58.6692C99.2156 58.7238 99.4711 58.7158 99.7128 58.646C100.772 58.267 100.758 56.9014 100.582 55.9933C100.457 55.3553 100.329 54.9582 99.9449 53.4848L101.495 55.8982C101.679 56.2388 101.916 56.5478 102.198 56.8134C102.346 56.922 102.519 56.9932 102.7 57.0208C102.882 57.0484 103.068 57.0317 103.242 56.972C103.416 56.9123 103.573 56.8114 103.7 56.678C103.826 56.5445 103.919 56.3825 103.969 56.2056C104.099 55.8 104.142 55.3715 104.094 54.9483C104.029 53.7567 103.773 52.5833 103.334 51.4734C103.799 51.8953 104.126 52.4942 104.604 52.8924C105.221 53.4056 106.254 53.7807 106.888 53.0778C107.567 52.3248 107.163 51.2826 106.674 50.5566C105.007 48.0728 104.419 46.9843 103.401 45.6715C103.422 45.6192 103.429 45.5624 103.423 45.5065C103.031 42.641 102.962 40.1583 102.11 34.0016C102.023 33.2526 101.861 32.5142 101.628 31.7972C100.992 29.8627 99.777 28.1706 98.1469 26.95C96.3457 25.6603 94.083 25.3121 91.9451 24.9832C83.9256 23.7512 75.35 23.4009 74.0388 23.2485C73.3533 23.1677 72.6631 23.133 71.973 23.1446C71.9541 23.1461 71.9355 23.1506 71.918 23.1578C69.1411 23.2628 66.4013 23.8316 63.8121 24.8408C59.7124 26.3808 55.8063 29.6351 55.2909 33.9884C55.1713 35.2695 55.2643 36.5616 55.5659 37.8125L52.9028 37.0282C52.9135 36.2976 52.8831 35.567 52.8115 34.8398C52.7951 34.4907 52.756 34.1431 52.6944 33.7992C52.6226 33.5234 52.4958 33.2649 52.3217 33.0393C52.1477 32.8136 51.9299 32.6255 51.6813 32.486C51.4328 32.3465 51.1587 32.2586 50.8754 32.2276C50.5921 32.1965 50.3055 32.223 50.0327 32.3053C49.7599 32.3877 49.5065 32.5242 49.2877 32.7068C49.0688 32.8894 48.8891 33.1143 48.7593 33.368C48.6295 33.6217 48.5521 33.8989 48.532 34.1832C48.5118 34.4675 48.5492 34.7529 48.642 35.0224C48.7212 35.2974 48.7998 35.5724 48.8895 35.8474L46.0185 35.002C46.0614 30.69 42.4369 26.4583 37.455 26.1151C35.6813 26.0074 33.9117 26.3846 32.3361 27.2063C28.8106 29.1863 27.6127 33.627 28.4042 37.02C28.4383 37.1569 28.4784 37.2917 28.5219 37.4264L20.8708 44.1271L15.1558 43.5221C15.106 43.5232 15.0579 43.5401 15.0183 43.5703C14.9788 43.6006 14.9499 43.6426 14.9358 43.6904C14.6608 44.594 12.3304 51.6104 12.3304 51.6104L2.81544 59.9429C2.77262 59.9861 2.7486 60.0445 2.7486 60.1054C2.7486 60.1663 2.77262 60.2247 2.81544 60.2679C2.81544 60.2679 7.06749 64.1168 8.07234 65.0276ZM3.95064 75.5381C4.06614 75.2747 8.27364 65.7041 8.42929 65.3505L25.8736 81.1525C23.1957 80.465 4.16074 75.5882 3.95064 75.5381V75.5381ZM60.335 67.9586L58.2835 66.0627C58.0668 65.8625 57.7406 66.1865 57.9584 66.3878L59.9934 68.2693C53.955 73.8018 41.6663 86.2747 41.6663 86.2747L39.2821 84.1902C39.0621 83.996 38.7321 84.32 38.957 84.5147L41.3446 86.6047C40.1346 87.8389 37.3796 90.6455 37.2124 90.8155C32.3724 86.702 28.2557 80.239 27.3377 73.8243C27.0174 71.4916 27.1704 69.1183 27.7878 66.8461C28.4051 64.5739 29.4741 62.4494 30.9309 60.5996C31.4484 60.6546 33.0071 60.9059 33.9966 60.9098C34.1637 60.908 34.3288 60.873 34.4823 60.8069C34.6358 60.7407 34.7746 60.6447 34.8907 60.5245C35.0068 60.4042 35.0978 60.2621 35.1584 60.1063C35.2191 59.9506 35.2482 59.7843 35.244 59.6173C35.2427 59.4566 35.2078 59.2979 35.1417 59.1514C35.0927 59.0046 34.6874 58.08 34.4162 57.5812C38.3787 55.3719 42.9441 54.4884 47.4446 55.06C53.9302 56.0687 59.0221 60.3873 63.9358 64.74C62.7233 65.8 61.523 66.8729 60.335 67.9586ZM26.752 70.6134C25.7483 66.5061 24.2202 62.5451 22.2051 58.828C21.5051 57.7115 20.9506 56.5101 20.5551 55.253C20.3136 54.3941 20.29 53.4886 20.4863 52.6183C20.6827 51.748 21.0928 50.9403 21.6797 50.2683C22.2666 49.5963 23.0117 49.0812 23.8476 48.7695C24.6836 48.4578 25.5841 48.3594 26.4676 48.4831C28.0857 48.7064 29.4041 49.7167 30.6311 50.759C32.603 52.4327 34.4638 54.2332 36.2015 56.149C30.2885 58.6724 27.049 64.2901 26.7542 70.6134H26.752ZM34.0257 57.8265C34.2831 58.3017 34.4987 58.8066 34.7127 59.301C34.7757 59.439 34.7994 59.5917 34.7813 59.7423C34.7631 59.8929 34.7038 60.0355 34.6098 60.1546C34.5027 60.2715 34.3673 60.3587 34.2166 60.408C34.0659 60.4572 33.9051 60.4667 33.7496 60.4357C32.8344 60.3768 32.0567 60.2932 31.2955 60.1827C32.1001 59.2819 33.0187 58.4898 34.0279 57.8265H34.0257ZM52.4634 45.974C51.7612 45.9155 51.077 45.722 50.4482 45.4042C49.9844 45.0873 49.6427 44.6216 49.4796 44.0842C48.8433 41.9348 48.7756 41.7291 48.7811 41.1373C48.8312 39.7282 49.9752 39.2755 51.0636 40.2023C51.9057 40.9112 53.1278 43.0271 53.6596 44.1161C53.7812 44.3647 54.1238 44.1793 54.0798 43.939C53.8813 42.8676 52.6614 40.3706 53.9412 39.8756C56.1082 39.0874 56.232 40.8782 56.3948 41.1884C56.4971 41.4392 58.674 46.5185 59.1145 47.6091C56.9118 47.08 54.7074 46.4266 52.4656 45.974H52.4634ZM60.6853 91.074C59.8389 91.7851 58.0899 93.0424 56.9833 93.1002C56.8348 93.1121 56.6856 93.0891 56.5476 93.0329C56.4096 92.9766 56.2868 92.8888 56.1889 92.7765C56.0911 92.6641 56.0209 92.5304 55.9842 92.386C55.9474 92.2416 55.9451 92.0906 55.9773 91.9452C56.0886 91.5124 56.2922 91.1088 56.5741 90.7621C56.8603 90.3972 57.1748 90.0553 57.5146 89.7397C57.7307 89.5373 57.4046 89.2133 57.1895 89.4146C56.4553 90.1202 55.686 90.7884 54.8845 91.4166C54.3221 91.905 53.5893 92.1509 52.8462 92.1008C52.6723 92.0832 52.5041 92.0287 52.3528 91.9411C52.2016 91.8535 52.0706 91.7348 51.9688 91.5928C51.8669 91.4507 51.7963 91.2886 51.7619 91.1173C51.7274 90.9459 51.7297 90.7692 51.7687 90.5988C51.9567 89.9257 52.3522 89.329 52.899 88.8938C53.4864 88.3141 54.1024 87.7591 54.736 87.23C54.934 87.065 54.6694 86.7158 54.4577 86.8692C53.0618 87.8625 51.6763 89.5455 50.5653 90.1142C50.1295 90.3311 49.6397 90.416 49.1562 90.3584C48.9398 90.3476 48.7297 90.2819 48.5455 90.1677C48.3614 90.0534 48.2093 89.8942 48.1035 89.705C47.8065 89.089 48.1794 88.4098 48.5364 87.9104C48.9879 87.2795 49.5302 86.7031 50.0362 86.1157C51.546 84.364 53.2543 82.4654 55.0412 80.5734C55.0412 80.5734 63.2577 88.797 63.316 88.8586C62.4433 89.6 61.5672 90.3382 60.6875 91.0734L60.6853 91.074ZM99.7353 66.8635C100.703 71.7849 100.418 78.8585 100.407 84.6956C100.407 84.6956 68.409 84.6824 68.2275 84.6956C68.129 84.7242 68.1026 84.7292 67.8975 84.9035C67.5323 85.2148 66.6022 86.064 63.6894 88.5407L55.374 80.2225C61.122 74.14 67.7545 67.8667 68.2 67.3437C68.3118 67.1301 68.4003 66.9051 68.464 66.6727C69.3745 64.4202 70.7332 62.3763 72.4578 60.665C74.1823 58.9537 76.2366 57.6108 78.496 56.7177C79.6321 56.2862 80.7964 55.933 81.9808 55.6606C83.0548 56.87 84.291 57.925 85.6542 58.7956C86.6172 59.5134 87.7943 59.8853 88.9949 59.851C91.0959 59.6734 91.9418 57.6059 91.6745 55.5495C96.2087 57.2198 98.7926 62.0527 99.7364 66.863L99.7353 66.8635ZM91.0514 52.9678C92.1976 53.8021 93.6864 53.3242 94.4718 52.1978C95.2732 54.064 96.2783 55.8361 97.4688 57.4816C97.6013 57.6565 97.7553 57.8298 97.8356 57.9161C97.9176 60.2184 97.906 60.5011 97.9148 60.5501C96.5446 57.9982 94.2921 56.0326 91.5783 55.0204C90.9232 52.2357 88.4372 50.7491 85.5646 50.5395C88.5582 48.9698 91.2494 47.5811 91.4325 47.4854C91.4996 47.6163 91.5887 48.1844 90.981 49.4461C90.6537 50.0153 90.4272 50.6368 90.3116 51.2831C90.2764 51.6041 90.3263 51.9287 90.4561 52.2244C90.5859 52.5201 90.7912 52.7764 91.0514 52.9678V52.9678ZM85.6751 51.0054C87.7002 51.1748 89.755 52.1081 90.7164 53.9842C91.7169 55.9295 91.3687 58.7351 89.4712 59.2983C88.929 59.4132 88.369 59.4161 87.8255 59.3069C87.2821 59.1976 86.7667 58.9785 86.3109 58.663C83.4385 56.9372 81.1302 54.413 79.6675 51.3981C81.6437 51.0006 83.664 50.8685 85.6751 51.0054V51.0054ZM81.6425 55.2701C79.1201 55.8117 76.7241 56.8292 74.5827 58.2681C71.6004 60.3864 69.2973 63.325 67.953 66.7271C67.947 66.4169 67.8183 59.8444 67.8183 59.8444L80.2257 53.3379C80.6543 54.0129 81.1276 54.6584 81.6425 55.2701V55.2701ZM105.906 50.242C106.334 50.8778 107.061 51.7028 106.707 52.5283C106.365 53.3275 105.387 52.9612 104.895 52.5371C103.953 51.6021 103.882 51.0983 102.895 50.6638C102.69 50.5797 102.561 50.8426 102.636 51.001C103.318 52.4333 103.661 54.003 103.64 55.5891C103.638 55.7574 103.601 55.9235 103.53 56.076C103.458 56.2285 103.355 56.3639 103.227 56.4729C103.115 56.5632 102.975 56.6087 102.831 56.6005C102.688 56.5922 102.554 56.5308 102.453 56.4284C102.204 56.1686 101.992 55.8751 101.824 55.5566L99.5593 52.03C99.5302 51.9836 99.4855 51.949 99.4332 51.9325C99.3809 51.916 99.3245 51.9186 99.2739 51.9399C99.2234 51.9612 99.1821 51.9998 99.1574 52.0487C99.1327 52.0977 99.1262 52.1538 99.1391 52.2071C99.4141 53.262 99.6677 54.3235 99.9641 55.3724C100.12 55.8766 100.207 56.3997 100.222 56.9272C100.233 58.3385 99.0869 58.8979 97.8345 57.2066C96.6079 55.4976 95.5768 53.6565 94.7606 51.7176C94.7678 51.6822 94.7674 51.6457 94.7593 51.6105C94.7513 51.5753 94.7358 51.5422 94.714 51.5134C94.6922 51.4846 94.6645 51.4608 94.6327 51.4436C94.601 51.4264 94.5659 51.4161 94.5299 51.4135C94.4939 51.4109 94.4577 51.416 94.4238 51.4285C94.3899 51.441 94.3591 51.4606 94.3333 51.4859C94.3076 51.5112 94.2875 51.5418 94.2745 51.5755C94.2615 51.6092 94.2559 51.6453 94.2579 51.6813C93.6529 52.7813 92.3153 53.3385 91.2934 52.5784C90.2275 51.76 91.0305 50.4158 91.4633 49.4907C91.7476 48.9604 91.9022 48.3702 91.9143 47.7686C95.5394 47.0261 99.2475 46.4173 102.937 45.8123C104.046 47.2049 104.915 48.7707 105.906 50.242V50.242ZM57.9964 29.2468C59.471 27.6544 61.27 26.3967 63.272 25.5585C66.0262 24.3706 68.979 23.7109 71.9768 23.6137C71.9939 23.6125 72.0108 23.61 72.0274 23.606C72.6066 23.6324 73.1824 23.6099 73.761 23.6737C75.0497 23.8161 83.4746 24.2275 90.9089 25.2918C92.9472 25.5833 95.1225 25.8242 96.9771 26.7768C98.9833 27.8932 100.489 29.7318 101.188 31.9187C101.914 33.9812 102.633 42.8945 102.948 45.3497C98.9609 46.0059 95.6835 46.5383 92.0029 47.2868C91.978 47.1907 91.9528 47.0945 91.9275 46.9981C91.9132 46.9453 91.8799 46.8996 91.8341 46.8698C91.7882 46.84 91.733 46.8281 91.6789 46.8364C91.2939 45.4251 89.128 37.427 89.0428 37.1113C89.0293 37.0631 89.0006 37.0206 88.9609 36.9902C88.9213 36.9597 88.8728 36.9429 88.8228 36.9424C87.8273 36.9474 78.3084 37.2301 77.424 37.2724C77.1298 37.2862 77.1281 37.7454 77.424 37.7317C79.1626 37.6508 88.3564 37.4138 88.6479 37.4072C89.1368 39.2172 91.2582 47.0366 91.2582 47.0366L84.6554 50.5016C82.8475 50.4622 81.0413 50.6351 79.2737 51.0169C79.2229 51.0276 79.1781 51.0573 79.1485 51.0999C79.119 51.1426 79.1069 51.195 79.1147 51.2463C79.3581 51.8374 79.6495 52.4077 79.9859 52.9513L68.5003 58.9749C68.2385 59.1118 67.9365 59.2339 67.6791 59.3934C66.6679 58.3073 65.707 57.1769 64.7966 56.0021C62.9749 53.6656 61.3537 51.1796 59.95 48.5705C59.807 48.3115 59.4104 48.543 59.5534 48.8026C60.4714 50.4669 61.0775 51.535 61.9564 52.844C61.8703 53.182 61.7585 53.513 61.622 53.834C61.4988 54.1008 61.897 54.3345 62.0185 54.0661C62.1254 53.8282 62.2158 53.5832 62.2891 53.333C62.887 54.1959 63.3171 54.7795 64.3285 56.1319C62.5306 57.7819 60.555 58.3908 58.68 56.76C57.9024 56.0591 57.275 55.2077 56.8359 54.2573C56.3967 53.307 56.155 52.2774 56.1253 51.2309C56.1518 49.9588 56.3251 48.694 56.6417 47.4617C57.4035 47.6652 58.2488 47.8863 59.4379 48.1613C59.5193 48.18 60.0171 48.1025 59.8653 47.8242C59.0144 45.9245 58.1575 44.0292 57.3903 42.0899C56.5334 39.9212 55.7491 37.6096 55.6919 35.2578C55.6618 33.0329 56.4867 30.8813 57.9964 29.2468V29.2468ZM50.3646 32.6937C50.638 32.646 50.9189 32.6676 51.1818 32.7565C51.4446 32.8454 51.681 32.9987 51.8694 33.2024C52.1683 33.5717 52.3291 34.0336 52.3242 34.5087C52.4262 35.3972 52.4599 36.2923 52.4249 37.1861C52.3667 37.4101 52.2514 37.6152 52.0902 37.7813C51.929 37.9474 51.7275 38.0688 51.5053 38.1337C51.2668 38.17 51.023 38.1435 50.798 38.0567C50.5729 37.9699 50.3744 37.8258 50.2221 37.6387C49.936 37.2471 49.7111 36.8142 49.555 36.355C49.3196 35.7945 49.1391 35.2124 49.016 34.617C48.9767 34.402 48.9806 34.1814 49.0273 33.9679C49.074 33.7544 49.1627 33.5523 49.2882 33.3734C49.4136 33.1944 49.5734 33.0422 49.7582 32.9255C49.943 32.8088 50.1491 32.73 50.3646 32.6937V32.6937ZM49.0743 36.3787C49.236 36.8533 49.4537 37.3069 49.7227 37.73C49.8815 38.0155 50.1191 38.2492 50.4071 38.4032C50.6952 38.5572 51.0215 38.625 51.347 38.5985C51.6725 38.5719 51.9836 38.4523 52.2429 38.2537C52.5022 38.0551 52.6989 37.786 52.8093 37.4787L55.6847 38.3251C55.7837 38.7365 55.8948 39.1435 56.0147 39.5472C55.5906 39.3222 55.1114 39.222 54.6326 39.2583C54.1538 39.2946 53.6952 39.4659 53.3098 39.7524C52.7477 40.2859 52.8946 41.31 53.0931 42.1317C52.8181 41.6917 52.641 41.4299 52.2967 40.9332C51.8846 40.2203 51.2479 39.6638 50.4861 39.3509C50.2599 39.2739 50.0195 39.2475 49.782 39.2734C49.5444 39.2994 49.3155 39.3771 49.1111 39.501C48.5611 39.8569 48.1712 40.6357 48.3912 41.8528C48.459 42.2558 48.5615 42.6522 48.6975 43.0375C48.6975 43.0375 43.5237 41.5905 43.0188 41.448C44.7439 39.9145 45.8082 37.7728 45.9888 35.4717L49.0743 36.3787ZM29.4035 31.1636C30.5756 28.3883 33.0088 26.856 36.0211 26.6079C37.9713 26.3854 39.9375 26.857 41.5745 27.94C42.6072 28.6005 43.4897 29.4706 44.1647 30.4938C44.8398 31.5171 45.2924 32.6707 45.4932 33.88C45.7263 35.7978 45.2786 37.7365 44.2283 39.358C43.178 40.9794 41.5918 42.1807 39.7463 42.7521C35.5784 43.8856 30.4414 41.4205 28.9954 37.4C28.4079 35.3364 28.5521 33.133 29.4035 31.1636ZM15.3164 44L20.4028 44.539L13.0075 51.0147C13.4002 49.8201 15.224 44.2783 15.3164 44ZM28.6891 37.8895C30.404 41.816 34.9448 43.9648 38.9031 43.3895L55.7914 57.7995C51.2264 54.9918 46.5817 53.7625 41.0712 54.7745C39.5622 55.0164 38.0829 55.417 36.658 55.9697C34.8804 54.0021 32.9757 52.1533 30.9562 50.435C29.9733 49.5105 28.8258 48.7785 27.5731 48.2768C26.7018 47.9842 25.7736 47.902 24.8644 48.0372C23.9552 48.1723 23.0909 48.5208 22.3424 49.0542C21.5938 49.5875 20.9821 50.2906 20.5576 51.1058C20.133 51.921 19.9075 52.8252 19.8995 53.7444C19.8759 56.2342 21.5446 58.3864 22.7458 60.8256C24.5779 64.6219 25.9318 68.6309 26.7767 72.7606C26.7806 72.8195 26.8009 73.0747 26.8075 73.1456C24.9089 68.3832 24.2775 65.2361 22.2821 60.709C21.4571 58.9534 20.7889 58.124 20.1316 56.556C19.736 55.7148 19.5284 54.7976 19.5233 53.8681C19.5182 52.9386 19.7156 52.0191 20.1019 51.1737C20.2119 50.9383 20.3379 50.7084 20.4693 50.4829C20.4975 50.4304 20.5042 50.3692 20.488 50.3119C20.4719 50.2546 20.4342 50.2058 20.3829 50.1758C20.3315 50.1457 20.2705 50.1368 20.2127 50.1507C20.1549 50.1647 20.1047 50.2006 20.0728 50.2508C19.546 51.0904 19.2109 52.036 19.0916 53.02C18.7891 55.8289 20.4886 58.2109 21.4637 60.0853C23.4245 63.8528 24.7219 69.6262 27.0583 74.9265C27.9911 79.2135 29.8995 83.2277 32.6353 86.6575C10.973 67.034 3.56784 60.335 3.33079 60.1007L28.6891 37.8895Z"></path><path fill="#000001" d="M55.379 26.3554C55.7177 26.2227 56.0185 26.0084 56.2547 25.7315C56.4908 25.4547 56.6551 25.1239 56.7328 24.7684C56.8105 24.413 56.7994 24.0438 56.7003 23.6937C56.6012 23.3435 56.4173 23.0233 56.1649 22.7612C55.7585 22.3517 55.2188 22.1014 54.6437 22.0556C54.0685 22.0098 53.496 22.1715 53.0299 22.5115C52.6465 22.8393 52.3868 23.2883 52.294 23.7841C52.2011 24.2799 52.2807 24.7925 52.5195 25.2367C52.7794 25.7382 53.2128 26.1282 53.7388 26.334C54.2648 26.5398 54.8477 26.5474 55.379 26.3554V26.3554ZM56.2414 23.7369C56.3393 24.0374 56.3546 24.3586 56.2856 24.667C56.2165 24.9754 56.0657 25.2595 55.849 25.4896C55.6323 25.7196 55.3576 25.887 55.0539 25.9742C54.7501 26.0614 54.4285 26.0653 54.1228 25.9853C53.6566 25.8669 53.2553 25.5708 53.0046 25.1603C53.8175 24.3622 54.6546 23.5889 55.4917 22.8184C55.8419 23.0268 56.1073 23.3521 56.2414 23.7369V23.7369ZM55.0209 22.5973C54.1134 23.4283 53.6124 23.8788 52.7923 24.6873C52.6919 24.3824 52.6807 24.0551 52.76 23.7441C52.8393 23.433 53.0058 23.1511 53.24 22.9315C53.4742 22.7119 53.7662 22.5638 54.0817 22.5046C54.3972 22.4454 54.7231 22.4775 55.0209 22.5973Z"></path><path fill="#000001" d="M50.5532 27.7497L51.8479 26.7426C51.8693 26.7213 51.8862 26.696 51.8977 26.6682C51.9092 26.6404 51.9152 26.6105 51.9152 26.5804C51.9152 26.5502 51.9092 26.5204 51.8977 26.4926C51.8862 26.4647 51.8693 26.4394 51.8479 26.4181C51.8043 26.3761 51.746 26.3526 51.6854 26.3526C51.6248 26.3526 51.5665 26.3761 51.5229 26.4181L50.2282 27.4246C50.1851 27.4677 50.1609 27.5262 50.1609 27.5872C50.1609 27.6481 50.1851 27.7066 50.2282 27.7497C50.2718 27.7917 50.3301 27.8152 50.3907 27.8152C50.4513 27.8152 50.5096 27.7917 50.5532 27.7497V27.7497Z"></path><path fill="#000001" d="M70.8878 48.5001L72.7215 48.4677C72.7805 48.4648 72.8361 48.4393 72.8768 48.3966C72.9175 48.3538 72.9402 48.2971 72.9402 48.238C72.9402 48.179 72.9175 48.1223 72.8768 48.0795C72.8361 48.0368 72.7805 48.0113 72.7215 48.0084L70.8878 48.0409C70.8289 48.0438 70.7733 48.0692 70.7326 48.112C70.6919 48.1547 70.6692 48.2115 70.6692 48.2705C70.6692 48.3295 70.6919 48.3863 70.7326 48.429C70.7733 48.4718 70.8289 48.4972 70.8878 48.5001V48.5001Z"></path><path fill="#000001" d="M33.2365 37.2559C35.9441 41.3913 40.6774 41.3314 42.0574 38.8509C43.1145 36.9506 42.1976 34.0109 40.8963 32.2327C39.9352 30.8818 38.5848 29.8563 37.0254 29.293C36.0183 28.8939 34.9013 28.8697 33.8778 29.2248C31.7988 30.1312 31.1965 32.4104 31.8813 34.4712C32.1846 35.4646 32.6419 36.4043 33.2365 37.2559V37.2559ZM32.1035 32.3169C32.1525 31.8508 32.3008 31.4005 32.5385 30.9966C32.7761 30.5926 33.0976 30.2443 33.4812 29.975C35.5635 28.4548 40.1973 30.2434 41.7461 34.9525C42.0846 35.9483 42.1377 37.019 41.8995 38.0435C41.7303 38.5658 41.4184 39.0304 40.999 39.3848C40.5796 39.7391 40.0695 39.9691 39.5263 40.0488C36.3517 40.5207 33.7694 38.0237 32.5688 35.0603C32.1849 34.1997 32.0248 33.256 32.1035 32.3169V32.3169Z"></path><path fill="#000001" d="M42.35 62.4344C43.615 62.0791 46.5635 61.3256 46.6526 61.2711C46.6995 61.2539 46.7386 61.2203 46.7626 61.1765C46.811 61.0764 46.7313 61.4944 47.3566 57.2116C47.3688 57.1558 47.3608 57.0974 47.3339 57.047C47.3069 56.9966 47.263 56.9575 47.2098 56.9366C47.2054 56.9338 47.2008 56.9314 47.196 56.9294H47.1795C47.1428 56.9203 47.1042 56.921 47.0678 56.9315C47.0314 56.942 46.9984 56.962 46.9722 56.9894C45.3326 58.7989 43.9604 60.2184 43.4307 60.7558C42.3109 61.8926 42.1481 62.012 42.1107 62.0807C42.0846 62.1187 42.0706 62.1637 42.0704 62.2098C42.0703 62.2559 42.084 62.3009 42.1098 62.3391C42.1356 62.3773 42.1724 62.4068 42.2152 62.4238C42.2581 62.4408 42.305 62.4445 42.35 62.4344V62.4344ZM46.7995 57.8507C46.6528 58.8608 46.5062 59.8712 46.3595 60.8817C45.2595 61.1875 44.1551 61.473 43.0534 61.77C44.495 60.3284 45.5587 59.2004 46.7995 57.8507V57.8507Z"></path><path fill="#000001" d="M28.0373 52.3122C28.1011 52.6856 28.1743 53.2235 27.8723 53.5222C27.5203 53.8681 26.9258 53.6239 26.5463 53.4589C26.4933 53.4299 26.4312 53.4222 26.3728 53.4376C26.3144 53.4529 26.2641 53.4901 26.2322 53.5414C26.217 53.5674 26.207 53.5962 26.2029 53.6261C26.1988 53.656 26.2007 53.6864 26.2083 53.7156C26.216 53.7447 26.2293 53.7721 26.2476 53.7961C26.2658 53.8201 26.2887 53.8403 26.3147 53.8555C26.8922 54.1074 27.6292 54.3543 28.1649 53.8769C28.6319 53.4611 28.5747 52.7483 28.479 52.1928C28.43 51.8991 27.9873 52.0223 28.0373 52.3122Z"></path><path fill="#000001" d="M62.8062 38.5666C64.9022 38.736 69.1103 39.0984 69.1185 39.0984C69.1431 39.1018 69.1681 39.1003 69.1921 39.094C69.2161 39.0877 69.2386 39.0768 69.2583 39.0617C69.278 39.0467 69.2946 39.0279 69.3071 39.0065C69.3195 38.985 69.3276 38.9613 69.3308 38.9367C69.3402 38.8674 69.8429 35.7352 70.1751 33.2052C70.1757 33.166 70.1662 33.1274 70.1474 33.0931C70.1287 33.0588 70.1014 33.0298 70.0681 33.0092C70.0349 32.9885 69.9969 32.9768 69.9578 32.9752C69.9187 32.9736 69.8799 32.9822 69.8451 33C69.7901 33.033 67.2975 34.815 62.6813 38.115C62.633 38.1405 62.5948 38.1818 62.5731 38.232C62.5514 38.2822 62.5475 38.3383 62.5621 38.391C62.5766 38.4437 62.6088 38.4899 62.6532 38.5218C62.6976 38.5537 62.7516 38.5695 62.8062 38.5666V38.5666ZM69.646 33.7002C69.4188 35.343 69.1449 36.9793 68.9233 38.6227C67.0846 38.4731 65.2465 38.3097 63.4079 38.1579L69.646 33.7002Z"></path><path fill="#000001" d="M95.315 28.4603L97.3978 29.9844C97.6365 30.1593 97.8659 29.7605 97.6294 29.5878C96.9353 29.0796 96.241 28.5716 95.5465 28.0638C95.3078 27.8889 95.0785 28.2871 95.315 28.4603Z"></path><path fill="#000001" d="M98.5276 50.1996C98.3626 49.9559 97.9649 50.1853 98.1305 50.4317L98.8268 51.4629C98.9918 51.706 99.3894 51.4767 99.2233 51.2308L98.5276 50.1996Z"></path><path fill="#000001" d="M102.014 48.8263L102.553 49.9263C102.683 50.1919 103.079 49.9593 102.95 49.6947C102.77 49.328 102.591 48.9614 102.411 48.5947C102.281 48.3291 101.885 48.5617 102.014 48.8263Z"></path><path fill="#000001" d="M81.015 73.3629C79.4854 74.7093 69.5464 83.4526 68.7621 84.1429C68.5393 84.3387 68.8655 84.6621 69.0866 84.4674C70.6167 83.1221 80.5552 74.3787 81.34 73.6874C81.5606 73.4927 81.235 73.1687 81.015 73.3629Z"></path><path fill="#000001" d="M67.7506 82.1915L66.2079 83.2695C65.9675 83.4378 66.1969 83.836 66.44 83.666L67.98 82.588C68.2225 82.4197 67.9932 82.0215 67.7506 82.1915Z"></path><path fill="#000001" d="M58.1543 89.2782L58.9155 88.4009C59.1085 88.1809 58.7846 87.8509 58.5904 88.0759L57.8292 88.9531C57.6362 89.1753 57.9601 89.502 58.1543 89.2782Z"></path><path fill="#000001" d="M55.2888 86.6399L56.2881 85.6636C56.4999 85.4568 56.1781 85.1323 55.9636 85.3386L54.9637 86.3148C54.752 86.5216 55.077 86.845 55.2888 86.6399Z"></path><path fill="#000001" d="M36.4485 31.3445C37.4663 31.9346 38.3938 32.6684 39.2024 33.523C39.4031 33.743 39.7271 33.413 39.5269 33.1985C38.7012 32.3046 37.7409 31.5452 36.6806 30.9479C36.6269 30.9192 36.564 30.9129 36.5057 30.9305C36.4473 30.948 36.3983 30.9879 36.3693 31.0414C36.3412 31.0925 36.3338 31.1524 36.3485 31.2087C36.3633 31.2651 36.399 31.3137 36.4485 31.3445V31.3445Z"></path><path fill="#000001" d="M32.56 24.4618C32.5777 24.5196 32.6168 24.5685 32.6694 24.5984C32.722 24.6282 32.784 24.6368 32.8427 24.6224C32.8718 24.6144 32.8991 24.6007 32.9229 24.5822C32.9467 24.5636 32.9666 24.5406 32.9816 24.5143C32.9965 24.4881 33.0061 24.4591 33.0098 24.4292C33.0135 24.3992 33.0113 24.3688 33.0033 24.3397L29.7638 16.5995C29.7461 16.5417 29.707 16.4929 29.6544 16.4631C29.6018 16.4333 29.5398 16.4249 29.4811 16.4395C29.452 16.4474 29.4247 16.4611 29.4008 16.4796C29.377 16.4982 29.3571 16.5212 29.3422 16.5475C29.3273 16.5738 29.3178 16.6028 29.3142 16.6327C29.3105 16.6627 29.3129 16.6931 29.3211 16.7222C29.3904 16.8888 32.5342 24.3952 32.56 24.4618Z"></path><path fill="#000001" d="M33.9812 23.8821C33.9966 24.1758 34.4559 24.178 34.4405 23.8821C34.3855 22.803 34.2458 20.1921 34.2458 20.1921C34.2298 19.8979 33.7706 19.8962 33.786 20.1921C33.9042 22.4295 33.9455 23.2127 33.9812 23.8821Z"></path><path fill="#000001" d="M27.28 23.0247C28.4295 23.7177 31.053 25.3061 31.2186 25.4001C31.2451 25.4148 31.2742 25.4241 31.3044 25.4273C31.3345 25.4306 31.365 25.4278 31.394 25.4192C31.4231 25.4105 31.4501 25.3962 31.4735 25.3769C31.4969 25.3577 31.5163 25.334 31.5304 25.3072C31.5579 25.2558 31.565 25.196 31.5502 25.1397C31.5354 25.0834 31.4998 25.0347 31.4507 25.0036C31.4507 25.0036 27.6771 22.7222 27.5121 22.6276C27.486 22.6123 27.4572 22.6024 27.4273 22.5983C27.3974 22.5942 27.3669 22.596 27.3377 22.6037C27.3085 22.6113 27.2811 22.6247 27.257 22.6429C27.233 22.6612 27.2127 22.684 27.1975 22.7101C27.1823 22.7361 27.1723 22.765 27.1682 22.7949C27.1641 22.8248 27.1659 22.8552 27.1736 22.8844C27.1813 22.9137 27.1946 22.9411 27.2129 22.9651C27.2311 22.9892 27.2539 23.0094 27.28 23.0247V23.0247Z"></path></svg>
