<svg xmlns="http://www.w3.org/2000/svg" viewBox="0 0 200 200" height="400" width="400"><g><path d="M166.176,47.982c-2.236-2.728-5.836-4.7-9.435-4.091-3.691.624-6.3,3.887-7.3,7.305a21.775,21.775,0,0,0-.813,6.351A47.757,47.757,0,0,0,149,63.329a54.278,54.278,0,0,1,10.875-.89l.021.005.027-.005A40.747,40.747,0,0,1,172.342,64.4C170.507,57.608,169.36,51.867,166.176,47.982ZM160.992,57.3c-.848,1.643-3.076,2.261-4.815,2.207a.363.363,0,0,1-.344-.452,8.28,8.28,0,0,0,.479-3.019c-.2.03-.405.081-.593.1a11.6,11.6,0,0,1-2.944-.123.363.363,0,0,1-.262-.344,5.008,5.008,0,0,1,.373-2.036c1.217-2.9,5.721-2.968,7.6-.727A4.012,4.012,0,0,1,160.992,57.3Z" fill="#000000"></path><path d="M135.44,138.04a8.447,8.447,0,0,1-3.429.981c-.454.03-14.126.017-20.011.017-.172,1.886-.245,3.635-.272,5.579h22.489a.357.357,0,0,1,0,.714h-22.5a90.453,90.453,0,0,0,.706,10.7c.221,2.311.463,4.129,2.3,6.324,4.462,5.327,12.11,5.119,17.926,1.707a12.98,12.98,0,0,0,2.948-2.315,5.569,5.569,0,0,1-.542-1.353c-.52-1.962-.133-4.97.144-6.983.015-.107,2.032-13.394,3.957-18.595A17.388,17.388,0,0,1,135.44,138.04Z" fill="#6596e1"></path><path d="M66.177,144.617H89.82c-.7-3.518-1.857-7-4.449-9.4-2.435-2.255-5.767-3.209-8.967-4.09l-11.285-3.108c-.054.013-14.208,3.412-14.3,3.433A53.722,53.722,0,0,1,61.532,145.81a13.315,13.315,0,0,1,1.437,4.638,8.1,8.1,0,0,1-.126,2.278,13.873,13.873,0,0,1-4.422,7.251c.885.841.888,1.294,4.764,12.421,1.232,3.539,2.308,4.674,6.753,4.82a89.648,89.648,0,0,0,9.725-.2c4.042-.305,9.411-1.25,11.293-4.87a8.448,8.448,0,0,0,.6-3.382,115.384,115.384,0,0,0-1.6-23.43H66.177A.361.361,0,0,1,66.177,144.617ZM83.326,136.5q.781,1.543,1.561,3.087c.207.41-.409.771-.616.36q-.782-1.543-1.561-3.087C82.5,136.448,83.119,136.087,83.326,136.5Z" fill="#d5e04f"></path><path d="M180.172,123.115a38.015,38.015,0,0,1-8.131-1.972,5.207,5.207,0,0,1-.811,3.884,4.893,4.893,0,0,1-6.016,1.062,4.709,4.709,0,0,1-2.153-3.394c-1.445,3.366-6.625,4.053-8.557.905a8.918,8.918,0,0,1-1.294-4.795,20.683,20.683,0,0,1-6.138,6.256c0,1.707.045,1.795-.09,1.937-.067.1.195-.218-6.534,6.531-1.682,3.868-2.623,8.659-3.456,13.312-.6,3.359-2.361,10.865-1.016,14.057a11.281,11.281,0,0,0,6.781,5.493.356.356,0,0,1-.16.691c7.516,2.225,17.271,1.945,21.533-4.64,2.346-3.624,3.2-8.705,6.047-15.342,1.426-3.322,2.534-4.056,4.766-6.1a18.56,18.56,0,0,0,5.269-7.013C181.5,130.534,181.091,126.668,180.172,123.115ZM143.42,137.258c.577-1.031,1.166-2.056,1.778-3.066a.357.357,0,0,1,.617.36q-.865,1.547-1.778,3.066a.357.357,0,0,1-.617-.36Z" fill="#6596e1"></path><path d="M188.709,76.2a33.235,33.235,0,0,0-18.427-12.425,42.674,42.674,0,0,0-10.359-1.336l-.027.005a.363.363,0,0,1,.323.447,13.419,13.419,0,0,1-1.03,3.893c-.7,1.588-1.823,1.913-2.743,1.483-1.685-.788-2.082-3.472-2.025-5.326a.358.358,0,0,1,.321-.349c-.1-.017-2.59.192-5.051.607-8.389,1.413-12.222,3.821-15.635,7.181a68.188,68.188,0,0,0-13.5,18.657l-.006.018a.331.331,0,0,1,.448-.137c.581.309,15.941,7.322,17.75,8.191a.338.338,0,0,1,.147.418.685.685,0,0,0,.076-.163c.48,2.106.791,4.246,1.068,6.389,0,0,3.155,0,3.513,0a3.415,3.415,0,0,1,3.5,3.447,6.566,6.566,0,0,1,3.638-3.6,14.378,14.378,0,0,1,5.876-.759c9.378.665,7.588.743,16.235,1.857A61.557,61.557,0,0,1,173.1,92.1a.362.362,0,0,1,.344-.262c3.9-.054,13.19-.44,20.459-.969a.359.359,0,0,1,.344.261A34.973,34.973,0,0,0,188.709,76.2Z" fill="#b6dbff"></path><path d="M160.482,52.909c-2.18-2.6-8.062-2.193-7.969,2.763a.363.363,0,0,0,.262.344,12.76,12.76,0,0,0,2,.169,6.714,6.714,0,0,0,1.538-.146,8.28,8.28,0,0,1-.479,3.019.362.362,0,0,0,.261.441,6.707,6.707,0,0,0,3.037-.547A3.82,3.82,0,0,0,160.482,52.909Z" fill="#ffd7d7"></path><path d="M62.969,150.448a13.315,13.315,0,0,0-1.437-4.638,53.894,53.894,0,0,0-10.717-14.359c-2.7.6-5.987,1.194-8.432,1.641-7.962,1.455-18.686,3.144-26.73,3.51-.924.042-1.922.088-2.922.05a.364.364,0,0,1-.35-.319,2.782,2.782,0,0,0,.036.376,10.214,10.214,0,0,0,.667,2.619c1.93,4.856,6.774,8.12,11.478,10.416-2.569.969-5.18,1.826-7.706,2.905A10.726,10.726,0,0,0,12.85,155.1c-1.316,1.485-1.348,3.167-.846,5.091a36.183,36.183,0,0,0,4.576,9.554c1.1,1.673,3.267,4.677,5.183,5.279a5.679,5.679,0,0,0,2.212.042,45.542,45.542,0,0,0,5.384-1.388c9.648-2.773,21.707-6.716,29.062-13.7a13.873,13.873,0,0,0,4.422-7.251A8.1,8.1,0,0,0,62.969,150.448Zm-4.355-2.507q.678,1.593,1.357,3.187c.179.418-.437.782-.616.36Q58.676,149.895,58,148.3C57.819,147.883,58.435,147.519,58.614,147.941Zm-30.342,2.074a10.466,10.466,0,0,1,3.6,2.434c.318.331-.187.837-.506.5a9.6,9.6,0,0,0-3.286-2.249C27.662,150.531,27.847,149.842,28.272,150.015Z" fill="#c0c195"></path><path d="M138.753,97.109c-1.381-.663-17.544-8.055-17.718-8.171a.331.331,0,0,0-.48.117c-.2.248-1.886,3.959-2.725,5.976A157.114,157.114,0,0,0,110.3,71.822a43.089,43.089,0,0,0,6.5-7.147,5.325,5.325,0,0,0,1.281-2.711c.119-2.028-2.3-2.868-4.24-2.285-2.048.613-3.555,2.128-5.286,3.282-1.775,1.182-3.923,1.706-5.38.138a11.149,11.149,0,0,1-1.554-2.172s-5.218-8.258-6.191-9.886c-1.967-3.294-5.016-3.664-6.572-1.98a4.895,4.895,0,0,0-1.07,4.488,25.579,25.579,0,0,0,2.683,5.712c.374.714,1.163,1.83.27,2.479-.652.474-1.573-.108-2.164-.442-2.831-1.6-5.364-4.889-8.59-5.409-3.063-.5-4.628,3.148-3.23,5.718a27.437,27.437,0,0,0,6.966,7.9c.782.628.521,1.121-.427,1.086-2.918-.107-6.22-2.294-9.231-1.653-1.981.422-2.482,2.533-1.631,4.316a7.771,7.771,0,0,0,4.2,3.511c1.919.8,3.928,1.333,5.632,2.575,6.082,4.434,6.709,13.946,8.473,20.1A30.836,30.836,0,0,1,99.1,97.182a3.105,3.105,0,0,1,2.142.5,2.3,2.3,0,0,1,.786,1.628c.13,2.382-2.359,3.536-4.247,4.6l-4.034,2.282a17.481,17.481,0,0,0,1.542,1.932c3.648.094,5.716-.3,8.3-.181,5.585.254,5.942,4.91,1.96,6.656a28.034,28.034,0,0,0,7.083,1.533v-8.938a3.449,3.449,0,0,1,3.58-3.441h19.229a35.431,35.431,0,0,0,3.437-6.155.571.571,0,0,0,.019-.071A.338.338,0,0,0,138.753,97.109ZM102.66,66.09a10.731,10.731,0,0,1-7.039,7.669c-.437.146-.623-.543-.189-.688a10.01,10.01,0,0,0,6.54-7.171C102.078,65.453,102.767,65.643,102.66,66.09Zm14.808,35.019-.129-2.776c-.022-.46.692-.457.714,0l.129,2.776C118.2,101.569,117.49,101.567,117.468,101.109Z" fill="#ffd7d7"></path><path d="M66.012,95.721s-.006-19.646,0-21.738a8.752,8.752,0,0,0-7.821-8.812,34.134,34.134,0,0,0-3.717-.072c-3.348.05-4.658-.029-4.775-.019a.352.352,0,0,1,.327.35,88.753,88.753,0,0,1-2.421,12.406c-.126.449-.353,1.658-.9,1.12-2.41-2.381-6.769-11.21-7.972-13.4a.358.358,0,0,1,.278-.529c-.206-.021-17.253-.108-17.73-.1A28.023,28.023,0,0,1,35.428,70.8c7.328,6.08,12.321,15.351,28.546,24.026.406.217.045.833-.36.616a76.569,76.569,0,0,1-9.907-6.319c-12.051-9.055-14.755-16.4-23.359-20.735a26.418,26.418,0,0,0-9.121-2.751c-.413-.043-.45-.631-.108-.7a8.765,8.765,0,0,0-8.49,6.681c-.392,2.049-.256-2.765-.256,64.683a.373.373,0,0,0,.358.357c1,.038,2.007-.008,2.922-.05,8.045-.366,18.771-2.055,26.73-3.51s5.526-.958,23.324-5.218a18.343,18.343,0,0,0,3.029.383c-.164-.029-.346-.159-.322-.348,1.595-12.776,1.469-19.656,3.072-28.653a.356.356,0,0,1,.417-.251A25.125,25.125,0,0,1,66.012,95.721ZM42.975,111.792a9.653,9.653,0,0,0,3.166,2.661c.407.215.045.832-.36.617a10.5,10.5,0,0,1-3.423-2.918C42.08,111.786,42.7,111.432,42.975,111.792Zm-5.493,1.958c5.477,5.463,15.471,11.006,26.407,13.023.452.083.26.771-.19.688a54.16,54.16,0,0,1-23.608-10.468c-6.155-4.837-7.874-9.159-13.226-13.692a13.79,13.79,0,0,0-8.008-3.327c-.458-.029-.459-.739,0-.714C27.493,99.729,31.467,107.749,37.482,113.75ZM23.2,120.988c-.243-.392.373-.749.617-.361a24.237,24.237,0,0,0,10.17,9.3c.416.2.054.809-.36.617A25.111,25.111,0,0,1,23.2,120.988Zm1.927-2.909a26.15,26.15,0,0,0,10.392,9.013c.415.2.052.815-.36.616a26.817,26.817,0,0,1-10.648-9.269C24.254,118.056,24.873,117.7,25.127,118.079Z" fill="#d5e04f"></path><path d="M108.165,110.753c-.343-2.081-2.77-2.728-4.573-2.81-3.33-.152-7.768.714-12.413-.3l6.6-3.735c1.925-1.09,4.378-2.207,4.247-4.6a2.3,2.3,0,0,0-.786-1.628,3.105,3.105,0,0,0-2.142-.5c-7.661.951-9.755,3.892-15.643,3.922a33.4,33.4,0,0,1-11.531-2.1l-.022,0a.356.356,0,0,0-.417.251c-1.608,9.025-1.461,15.747-3.072,28.653-.024.189.158.319.322.348.012,0,.024.008.035.009,5.519.489,11.176-.024,16.61,1.187,4.979,1.11,6.074,2.352,11.291,2.935a7.723,7.723,0,0,0,2.638-.147,3.806,3.806,0,0,0,2.745-3.417c-.005-1.249-.956-2.158-1.769-2.994-2.437-2.5-4.181-2.926-7.412-4.919-.472-.291-1.229-.623-1.346-1.228a1.491,1.491,0,0,1,.723-1.426c.82-.484.4-.311,8.572-2.342a32.189,32.189,0,0,0,4.729-1.316C107.674,113.665,108.38,112.055,108.165,110.753Zm-24.673-3.117,3.414-.5c.45-.066.642.622.189.689l-3.413.5C83.232,108.391,83.039,107.7,83.492,107.636Zm.389,11.565H87.3a.357.357,0,0,1,0,.714H83.881a.359.359,0,0,1-.371-.357A.351.351,0,0,1,83.881,119.2Z" fill="#ffaaaa"></path><path d="M159.9,62.444c-.1-.024-2.59-.049-5.118.14a.37.37,0,0,0-.357.357,9.745,9.745,0,0,0,.515,3.531,3,3,0,0,0,1.961,1.937c1.136.178,1.866-.657,2.292-1.625a13.419,13.419,0,0,0,1.03-3.893A.363.363,0,0,0,159.9,62.444Z" fill="#ffd7d7"></path><path d="M142.757,166.391A11.373,11.373,0,0,1,136.018,161c-1.527-3.3.585-11.951,1.517-17.063a49.747,49.747,0,0,1,2.9-10.4l-1.269,1.269a45.752,45.752,0,0,0-1.825,6.477c-.052.237-2.37,13.183-2.392,13.39-.223,2.027-.407,4.782.424,6.628a12.151,12.151,0,0,0,7.19,5.777.357.357,0,0,0,.19-.688Z" fill="#6596e1"></path><path d="M49.7,65.08c-.014,0-10.5-.074-10.685-.056a.358.358,0,0,0-.278.529c1.388,2.53,5.56,11.02,7.972,13.4.194.192.517.161.672-.329.061-.192.4-1.4.667-2.448A94.489,94.489,0,0,0,50.026,65.43.352.352,0,0,0,49.7,65.08Z" fill="#ffaaaa"></path><path d="M141.329,123.9c-.543.14,1.134.1-22.221.1a3.084,3.084,0,0,1-3.084-3.084V109.921a3.083,3.083,0,0,1,3.084-3.083H140.6a3.084,3.084,0,0,1,3.084,3.083v4.331c.923-2.113,2.282-5,3.375-7.052a3.416,3.416,0,0,0-3.5-3.447c-.358,0-27.342,0-27.342,0a3.449,3.449,0,0,0-3.58,3.441v19.335c-.263.226-7.055,7.152-9.126,9.146-1.234,1.189-.811,3.586,2.063,3.363,0,0,25.185.065,26.439-.017a8.447,8.447,0,0,0,3.429-.981c1.859-1.126,1.7-1.266,11.529-11.023.148-.221.1-.036.1-1.956C144.268,126.656,142.065,125.722,141.329,123.9Zm-7.806,10.719h-24.2a.357.357,0,0,1,0-.714h24.2a.357.357,0,0,1,0,.714Zm3.769-3.868h-24.5a.357.357,0,0,1,0-.714h24.5a.357.357,0,0,1,0,.714Z" fill="#ffe660"></path><path d="M143.683,109.921a3.083,3.083,0,0,0-3.084-3.083H119.108a3.083,3.083,0,0,0-3.084,3.083v10.992A3.084,3.084,0,0,0,119.108,124c23.219,0,21.679.042,22.221-.1-.681-1.647-.026-3.89.644-5.541,1.182-2.914.825-2.081,1.71-4.107Z" fill="#ffffff"></path><path d="M21.227,65.634a27.524,27.524,0,0,1,13.165,5.247c7.184,5.561,12.379,15.553,29.222,24.558.405.217.766-.4.36-.616C45.077,84.72,41.07,73.352,31.53,68.2a27.732,27.732,0,0,0-10.3-3.277C20.78,64.885,20.77,65.586,21.227,65.634Z" fill="#c0c195"></path><path d="M194.245,91.125a.359.359,0,0,0-.344-.261c-8.03.584-17.265.925-20.459.969a.362.362,0,0,0-.344.262,61.557,61.557,0,0,0-.291,12.606c-8.7-1.121-6.836-1.191-16.235-1.857a14.378,14.378,0,0,0-5.876.759,6.561,6.561,0,0,0-3.638,3.6,114.386,114.386,0,0,0-5.085,11.159,15.032,15.032,0,0,0-.84,2.832c-.763,4.016,2.8,6.687,7.5,2.767a21.231,21.231,0,0,0,4.576-5.153A8.918,8.918,0,0,0,154.5,123.6c1.972,3.214,7.148,2.377,8.557-.905a4.708,4.708,0,0,0,2.153,3.394,4.893,4.893,0,0,0,6.016-1.062,5.207,5.207,0,0,0,.811-3.884,37.977,37.977,0,0,0,8.131,1.972,13.043,13.043,0,0,0,6.648-.8c3.92-1.657,6.4-5.875,7.117-9.885A68.757,68.757,0,0,0,194.245,91.125Zm-7.306,28.1a11,11,0,0,0,2.187-1.939c.352-.406.94.186.589.589a11.816,11.816,0,0,1-2.355,2.069C186.912,120.243,186.5,119.522,186.939,119.225Zm-5.98-12.5a51.072,51.072,0,0,0-6.923-1.088c-.531-.047-.534-.88,0-.833a52.725,52.725,0,0,1,7.144,1.118C181.7,106.037,181.481,106.84,180.959,106.721Zm-17.514,10.832a12.256,12.256,0,0,0,1.114-3.255c.1-.527.906-.3.8.222a13.089,13.089,0,0,1-1.2,3.453C163.92,118.451,163.2,118.029,163.445,117.553Zm-9.667-3.272,1.213-3.364c.181-.5.985-.284.8.222q-.606,1.682-1.213,3.364C154.4,115,153.6,114.786,153.778,114.281Z" fill="#ffaaaa"></path><path d="M63.889,126.773c-10.9-2.01-20.907-7.536-26.407-13.023-6-5.988-10-14.018-18.625-14.49-.459-.025-.458.685,0,.714a13.79,13.79,0,0,1,8.008,3.327c5.4,4.57,7.042,8.833,13.226,13.692A54.181,54.181,0,0,0,63.7,127.461C64.149,127.544,64.341,126.856,63.889,126.773Z" fill="#c0c195"></path><path d="M46.865,52.63c-.264-1.988-2.465-2.951-4.231-2.658A4.348,4.348,0,0,0,39.583,52.9a5.344,5.344,0,0,0-.506,2.979,2.643,2.643,0,0,0,1.22,1.658,4.268,4.268,0,0,0,4.523.212C46.574,56.734,47.1,54.405,46.865,52.63Zm-2.419,2.435a1.514,1.514,0,0,1-1.359.9,1.354,1.354,0,0,1-1.08-1.269c-.075-.45.613-.642.688-.19.042.251.124.7.441.75s.558-.323.693-.55a.355.355,0,0,1,.493-.112A.359.359,0,0,1,44.446,55.065Z" fill="#ffaaaa"></path><path d="M47.1,44.973c1.373-1.046,2.311-1.561,2.124-2.591a1.819,1.819,0,0,0-1.641-1.375,4.357,4.357,0,0,0-2.911.857c.029-.082.062-.162.089-.244.436-1.074.167-2.462-1.006-2.74-1.188-.173-1.968.837-2.273,1.984a37.858,37.858,0,0,0-1.075,3.975,6.037,6.037,0,0,0-.26,1.835,2.331,2.331,0,0,0,2.242,2.059c2.063.059,4.134.079,6.2,0,.708-.026,1.539-.071,1.891-.8C51.222,46.384,49.387,44.472,47.1,44.973Z" fill="#000000"></path><path d="M29.939,181.216a35.116,35.116,0,0,1-10.148-4.379,14.771,14.771,0,0,1-5.021-5.349,63.894,63.894,0,0,1-4.909-10.971l-.01-.017c-.145-.377-.722-.247-.691.11,0,4.308-.522,8.859.957,13,1.645,4.611,5.537,7.248,10.249,7.926a43.268,43.268,0,0,0,9.479.379C30.225,181.888,30.353,181.318,29.939,181.216Z" fill="#000000"></path><path d="M134.217,145.331a.357.357,0,0,0,0-.714H66.177a.357.357,0,0,0,0,.714C88.77,145.74,111.493,145.742,134.217,145.331Z" fill="#ffe660"></path><path d="M123.4,189.734c-1.055-.206-19.429-3.535-21.953-3.974V148.942a.357.357,0,0,0-.714,0v36.824c-1.269.248-5.874,1.32-22.075,3.69-.453.066-.26.754.19.688,3.722-.543,17.088-2.59,22.268-3.725,5.881.908,16.5,2.915,22.094,4C123.659,190.51,123.851,189.822,123.4,189.734Z" fill="#ffe660"></path><path d="M109.431,30.73c-6.139-.044-5.625-.045-5.806.106-.155.206-.194-.8-.106,11.553a.362.362,0,0,0,.357.357h5.554a.363.363,0,0,0,.358-.357v-11.3A.361.361,0,0,0,109.431,30.73Z" fill="#ffe660"></path><path d="M118.952,27.358c-6.4-.046-5.825-.043-6,.106-.161.214-.219-1.029-.1,14.925a.361.361,0,0,0,.357.357h5.752a.362.362,0,0,0,.357-.357V27.715A.361.361,0,0,0,118.952,27.358Z" fill="#ffe660"></path><path d="M131.648,19.82c-7.829-.056-7.226-.045-7.393.106-.162.216-.277-1.6-.1,22.463a.361.361,0,0,0,.357.357h7.141a.362.362,0,0,0,.357-.357V20.177A.361.361,0,0,0,131.648,19.82Z" fill="#ffe660"></path><path d="M133.583,9.576a64.364,64.364,0,0,1-10.24,3.6.357.357,0,0,0,.19.688,59.967,59.967,0,0,0,7.034-2.269A217.354,217.354,0,0,1,94.639,28c-.431.151-.245.842.19.689a219,219,0,0,0,35.8-16.313c-1.568,1.529-3.156,3.039-4.857,4.413-.357.289.151.792.505.5,2.289-1.85,5.15-4.652,7.595-7.089A.354.354,0,0,0,133.583,9.576Z" fill="#ffe660"></path><path d="M174.869,29.6c.219-.4-.4-.765-.617-.36l-5.17,9.539c-.219.4.4.765.616.36C170.282,38.062,174.654,30,174.869,29.6Z" fill="#000000"></path><path d="M172.679,41.134l7.78-5.593c.37-.266.014-.886-.36-.617l-7.78,5.593C171.949,40.783,172.305,41.4,172.679,41.134Z" fill="#000000"></path><path d="M21.191,46.005c.879-3.705,4-9.105,7.426-11.03a.358.358,0,0,0-.361-.617,13.142,13.142,0,0,0-4.121,3.922A23.673,23.673,0,0,0,20.5,45.815C20.4,46.262,21.085,46.453,21.191,46.005Z" fill="#000000"></path><path d="M24.894,32.117c.322-.329-.185-.836-.5-.5a44.193,44.193,0,0,0-8.367,13.613c-.149.436.538.623.688.19A43.594,43.594,0,0,1,24.894,32.117Z" fill="#000000"></path><path d="M25.127,118.079c-.254-.381-.873-.023-.616.36a26.817,26.817,0,0,0,10.648,9.269c.412.2.775-.416.36-.616A26.152,26.152,0,0,1,25.127,118.079Z" fill="#000000"></path><path d="M33.627,130.544c.414.192.776-.421.36-.617a24.249,24.249,0,0,1-10.17-9.3c-.244-.388-.86-.031-.617.361A25.111,25.111,0,0,0,33.627,130.544Z" fill="#000000"></path><path d="M159.756,89.469c-.376-1.752-3.626-16.894-3.63-16.916-.08-.368-.581-.309-.689,0-.375,1.076-5.944,17.023-6.095,17.5-.129.409.3.816.521,1.134,3.851,5.639,3.612,5.314,3.7,5.375a.322.322,0,0,0,.483,0c1.214-1.41,4.961-5.5,5.572-6.177C159.935,90.025,159.866,89.979,159.756,89.469Z" fill="#6596e1"></path><path d="M43.829,54.7c-.135.227-.378.6-.693.55s-.4-.5-.441-.75c-.075-.452-.763-.26-.688.19a1.354,1.354,0,0,0,1.08,1.269,1.514,1.514,0,0,0,1.359-.9.358.358,0,0,0-.617-.361Z" fill="#000000"></path><path d="M94.7,182.8a42.486,42.486,0,0,0-15.4-3.829,33.294,33.294,0,0,0-16.49,3.829.36.36,0,0,0,.181.665H94.52C94.85,183.465,95.037,182.951,94.7,182.8Z" fill="#000000"></path><path d="M159.971,175.792c-6.5-2.91-14.111-4.617-21.2-3.511a41.73,41.73,0,0,0-8.787-2.311,31.075,31.075,0,0,0-17.014,1.925,32.38,32.38,0,0,0-3.355,1.515.363.363,0,0,0,.18.67h22.132a33.991,33.991,0,0,0-3.849,1.712.36.36,0,0,0,.181.665h31.534C160.121,176.457,160.309,175.943,159.971,175.792Z" fill="#000000"></path><path d="M185.248,130.482c.048-.457-.664-.453-.714,0a22.063,22.063,0,0,1-10.827,16.558.857.857,0,0,0-.306.644c1.966,7.438,4.083,17.88,5.478,25.36.084.451.773.26.689-.19-1.627-8.718-3.464-17.164-5.447-25.23A22.755,22.755,0,0,0,185.248,130.482Z" fill="#ffe660"></path><path d="M12.41,147.079c.354.286.861-.215.5-.5A19.5,19.5,0,0,1,6.108,127.85c.09-.449-.6-.641-.689-.19A20.207,20.207,0,0,0,12.41,147.079Z" fill="#ffe660"></path><path d="M144.037,137.618q.916-1.517,1.778-3.066a.357.357,0,0,0-.617-.36c-.612,1.01-1.2,2.035-1.778,3.066a.357.357,0,0,0,.617.36Z" fill="#6596e1"></path><path d="M84.271,139.945c.207.411.823.05.616-.36q-.78-1.543-1.561-3.087c-.207-.411-.823-.05-.616.36Q83.49,138.4,84.271,139.945Z" fill="#c0c195"></path><path d="M28.272,150.015c-.425-.173-.61.516-.19.689a9.6,9.6,0,0,1,3.286,2.249c.319.333.824-.173.506-.5A10.466,10.466,0,0,0,28.272,150.015Z" fill="#c0c195"></path><path d="M59.355,151.488c.179.422.8.058.616-.36q-.678-1.594-1.357-3.187c-.179-.422-.795-.058-.616.36Q58.676,149.894,59.355,151.488Z" fill="#c0c195"></path><path d="M130.39,114.349c-.025-1.064-.032-2.137-.025-3.2.754.034,1.541.12,2.289.178.458.036.456-.679,0-.714-.749-.058-1.53-.13-2.281-.168,0-.339.007-.675.015-1.008a.357.357,0,0,0-.714,0c-.01.32-.017.651-.022.99-2.855,0-3.762,2.43-2.571,3.6.577.569,1.417.59,2.612.869.041,1.374.109,2.74.191,3.987a4.894,4.894,0,0,1-2.488-.953c-.37-.272-.729.349-.361.617a5.6,5.6,0,0,0,2.9,1.057c.014.184.025.365.039.542.038.454.752.458.715,0-.015-.177-.029-.356-.042-.536C133.868,119.316,134.032,115.542,130.39,114.349Zm-2.585-.663a1.13,1.13,0,0,1-.294-1.64,2.576,2.576,0,0,1,2.133-.9c-.006.975,0,2,.03,3.035A6.824,6.824,0,0,1,127.805,113.686Zm2.79,5.223c-.082-1.219-.145-2.5-.185-3.8C133,116.009,132.978,118.778,130.6,118.909Z" fill="#ffe660"></path><path d="M137.292,130.037h-24.5a.357.357,0,0,0,0,.714h24.5a.357.357,0,0,0,0-.714Z" fill="#ffffff"></path><path d="M133.523,133.905h-24.2a.357.357,0,0,0,0,.714h24.2a.357.357,0,0,0,0-.714Z" fill="#ffffff"></path><path d="M101.972,65.9a10.01,10.01,0,0,1-6.54,7.171c-.434.145-.248.834.189.688a10.731,10.731,0,0,0,7.039-7.669C102.767,65.643,102.078,65.453,101.972,65.9Z" fill="#ffaaaa"></path><path d="M83.682,108.324l3.413-.5c.453-.067.261-.755-.189-.689l-3.414.5C83.039,107.7,83.232,108.391,83.682,108.324Z" fill="#ffaaaa"></path><path d="M83.881,119.2a.357.357,0,0,0,0,.714H87.3a.357.357,0,0,0,0-.714Z" fill="#ffaaaa"></path><path d="M45.781,115.07c.405.215.767-.4.36-.617a9.653,9.653,0,0,1-3.166-2.661c-.276-.36-.9-.006-.617.36A10.5,10.5,0,0,0,45.781,115.07Z" fill="#c0c195"></path><path d="M153.778,114.281c-.183.5.622.723.8.222q.606-1.683,1.213-3.364c.182-.506-.622-.723-.8-.222Z" fill="#ffaaaa"></path><path d="M165.363,114.52c.1-.524-.7-.749-.8-.222a12.256,12.256,0,0,1-1.114,3.255c-.243.476.475.9.72.42A13.089,13.089,0,0,0,165.363,114.52Z" fill="#ffaaaa"></path><path d="M181.18,105.918a52.725,52.725,0,0,0-7.144-1.118c-.534-.047-.531.786,0,.833a51.072,51.072,0,0,1,6.923,1.088C181.481,106.84,181.7,106.037,181.18,105.918Z" fill="#ffaaaa"></path><path d="M189.126,117.286a11,11,0,0,1-2.187,1.939c-.443.3-.027,1.018.421.719a11.816,11.816,0,0,0,2.355-2.069C190.066,117.472,189.478,116.88,189.126,117.286Z" fill="#ffaaaa"></path><path d="M118.182,101.109l-.129-2.776c-.022-.457-.736-.46-.714,0l.129,2.776C117.49,101.567,118.2,101.569,118.182,101.109Z" fill="#ffaaaa"></path><path d="M137.7,87.915q.395,3.433.944,6.848c.072.453.761.261.688-.19q-.534-3.318-.917-6.658C138.366,87.464,137.651,87.458,137.7,87.915Z" fill="#6596e1"></path></g><g><path d="M152.76,56.074a11.741,11.741,0,0,0,2.959.125c.172-.017.36-.061.544-.092a8.5,8.5,0,0,1-.487,2.935.422.422,0,0,0,.4.528A6.93,6.93,0,0,0,159.161,59a3.882,3.882,0,0,0,1.363-6.137c-2.289-2.672-8.213-2.13-8.07,2.805A.422.422,0,0,0,152.76,56.074Zm2.472-3.682a4.316,4.316,0,0,1,4.7,1.064A3.06,3.06,0,0,1,158.7,58.3a6.576,6.576,0,0,1-1.984.436,6.725,6.725,0,0,0,.3-3.187.424.424,0,0,0-.4-.306,12.985,12.985,0,0,1-1.727.169,11.367,11.367,0,0,1-1.586-.1A3.087,3.087,0,0,1,155.232,52.392Z" fill="#000000"></path><path d="M172.391,64.355c-2-7.4-3.054-12.61-6.173-16.415-2.25-2.746-5.873-4.718-9.493-4.106-3.711.627-6.3,3.922-7.346,7.347a21.935,21.935,0,0,0-.814,6.365,43.992,43.992,0,0,0,.369,5.735c-7.712,1.42-11.384,3.576-14.92,7.057-1.189,1.17-2.386,2.32-3.493,3.572a78.434,78.434,0,0,0-7.017,9.661,84.2,84.2,0,0,0-5.66,11.269,157.112,157.112,0,0,0-7.476-23,42.655,42.655,0,0,0,6.481-7.134,5.452,5.452,0,0,0,1.288-2.74,2.251,2.251,0,0,0-1.407-2.2c-3.171-1.353-6.037,1.692-8.208,3.141-1.755,1.17-3.872,1.692-5.308.147a12.419,12.419,0,0,1-1.545-2.161c-1.013-1.713-5.218-8.257-6.19-9.885C93.5,47.7,90.406,47.3,88.813,49.019a4.956,4.956,0,0,0-1.085,4.546,25.655,25.655,0,0,0,2.688,5.726c.357.68,1.143,1.771.291,2.4-.625.461-1.535-.122-2.1-.443-2.845-1.611-5.4-4.917-8.605-5.415-3.043-.52-4.734,3.073-3.3,5.806a26.979,26.979,0,0,0,6.975,7.91c.229.184.56.394.4.735-.141.3-.507.259-.786.25-2.988-.123-6.211-2.3-9.247-1.651a2.587,2.587,0,0,0-1.94,1.716,3.888,3.888,0,0,0,.274,2.687,7.835,7.835,0,0,0,4.235,3.538c1.915.8,3.917,1.33,5.618,2.569C88.282,83.8,88.94,93.353,90.664,99.4a18.636,18.636,0,0,1-7.209,1.641c-6.028,0-12.447-1.616-17.383-5.353V73.983a8.8,8.8,0,0,0-7.881-8.872,34.646,34.646,0,0,0-3.717-.072c-.143,0-33.3-.181-33.358-.168A8.875,8.875,0,0,0,12.572,71.6a15.54,15.54,0,0,0-.257,3.753c0,65.742-.094,60.914.194,62.283,1.2,5.664,6.722,9.554,11.9,12.1-2.53.95-5.1,1.8-7.586,2.861a10.649,10.649,0,0,0-4.018,2.458,4.458,4.458,0,0,0-1.159,2.8c-.136,4.1,4.322,11.613,7.043,14.811a7.842,7.842,0,0,0,3.055,2.408,5.537,5.537,0,0,0,2.228.043,20.2,20.2,0,0,0,2.842-.66c10.107-2.869,23.257-6.72,31.341-14.158.746.745.516.409,4.642,12.251a9.541,9.541,0,0,0,1.623,3.216c1.731,1.994,4.733,1.866,7.136,1.9a85.068,85.068,0,0,0,9-.319c3.812-.348,8.193-1.269,10.394-4.38a7.026,7.026,0,0,0,1-3.878,114.221,114.221,0,0,0-1.569-23.706h-.846a115.641,115.641,0,0,1,1.58,23.762,5.98,5.98,0,0,1-1.132,3.727c-1.61,1.934-4.242,2.819-6.634,3.268a69.182,69.182,0,0,1-12.921.669,13.625,13.625,0,0,1-3.6-.447,4.3,4.3,0,0,1-2.509-2.245c-1.153-2.539-1-3-4.4-12.338a5.9,5.9,0,0,0-1.182-2.042,13.6,13.6,0,0,0,4.156-7,8.218,8.218,0,0,0,.128-2.294,12.875,12.875,0,0,0-1.445-4.668,54.577,54.577,0,0,0-10.65-14.293c2.355-.538,12.953-3.106,13.472-3.233l10.257,2.825c3.512.967,7.41,1.778,10.221,4.259,2.641,2.33,3.8,5.782,4.5,9.22H66.177a.417.417,0,0,0,0,.833h45.482a89.7,89.7,0,0,0,.706,10.642,19.371,19.371,0,0,0,.361,2.542c.888,3.832,4.824,7.517,9.927,7.937a16.812,16.812,0,0,0,12.933-4.659,11.755,11.755,0,0,0,3.325,3.5,12.282,12.282,0,0,0,3.67,1.79c5.861,1.754,13.5,2.047,18.513-1.516,5.249-3.725,5.029-8.927,9.134-18.493a13.6,13.6,0,0,1,2.1-3.556c1.821-2.116,6.192-4.87,7.941-9.568,1.275-3.424.893-7.269-.018-10.822a13,13,0,0,0,6.6-.813c4.062-1.773,6.446-6.046,7.144-9.92,1.638-9.109,1.507-21.235-2.061-30.353C188.518,73.377,181.052,67.253,172.391,64.355ZM149.424,56.3c.124-3.108.772-6.371,2.822-8.814a7.42,7.42,0,0,1,7.177-2.815,10.989,10.989,0,0,1,6.843,4.713c2.4,3.492,3.3,7.68,5.181,14.673a43.534,43.534,0,0,0-13.175-1.682,55.843,55.843,0,0,0-8.531.754A40.808,40.808,0,0,1,149.424,56.3Zm9.965,6.915a13.619,13.619,0,0,1-.719,2.825c-.268.687-.735,1.814-1.645,1.616-1.451-.316-1.845-2.827-1.822-4.32Q157.294,63.2,159.389,63.215ZM83.041,78.966a17.5,17.5,0,0,0-5.368-2.616,8.136,8.136,0,0,1-4.446-3.229,2.994,2.994,0,0,1-.254-2.477,2.285,2.285,0,0,1,2.237-1.065c2.538-.023,4.6,1.423,7.724,1.764.756.068,1.6.037,1.923-.777a1.262,1.262,0,0,0-.05-1.046,3.229,3.229,0,0,0-.9-.853,27.693,27.693,0,0,1-5.939-6.545A5.113,5.113,0,0,1,77.04,60a3.692,3.692,0,0,1,.244-1.853,2.367,2.367,0,0,1,3.043-1.391,12,12,0,0,1,4.252,2.537,22.488,22.488,0,0,0,4.066,2.921,2.551,2.551,0,0,0,2.3.3,1.8,1.8,0,0,0,.936-2.023c-.932-2.868-5.027-7.077-2.845-10.426a2.652,2.652,0,0,1,1.523-1.153,3.074,3.074,0,0,1,2.342.51,6.52,6.52,0,0,1,1.908,2.094c6.845,11.587,6.769,10.87,7.5,11.793a4.169,4.169,0,0,0,2.3,1.461c3.143.545,5.45-2.188,7.951-3.7,2.57-1.551,4.7-.632,4.745.689a4.69,4.69,0,0,1-1.282,2.663,42.216,42.216,0,0,1-6.447,7,.4.4,0,0,0-.107.4,157.976,157.976,0,0,1,7.865,24.453c.1.439.663.349.8,0q1.331-3.294,2.9-6.479c.1.044,16.379,7.528,16.983,7.814a36.843,36.843,0,0,1-3.475,6.074H116.216a3.506,3.506,0,0,0-3.638,3.369c0,.113,0,2.607,0,8.288a27.576,27.576,0,0,1-6.036-1.229c2.775-1.785,2.5-5.991-2.947-6.239-2.453-.112-3.958.187-7.28.2a17.435,17.435,0,0,1-1.863-2.215c5.027-2.842,4.964-2.786,5.56-3.183,2.55-1.7,2.482-4,1.274-5.045a3.153,3.153,0,0,0-2.184-.512,27.932,27.932,0,0,0-7.665,1.985C89.65,92.808,89.149,83.888,83.041,78.966Zm57.552,27.455c-2.039-.023-20.476,0-20.476,0a5.2,5.2,0,0,0-2.753.465,3.545,3.545,0,0,0-1.756,3.035s-.048,10.187,0,11.158a3.528,3.528,0,0,0,3.662,3.334c23.2-.23,21.547.05,22.185-.117a3.611,3.611,0,0,0,4.839,1.212v.8s-32.57-.024-32.89-.02V107.194a2.7,2.7,0,0,1,2.68-2.667c.271,0,27.087,0,27.087,0a4.168,4.168,0,0,1,1.229.113,2.705,2.705,0,0,1,1.894,2.634c0,.429,0,.858,0,1.287-.771,1.522-1.5,3.065-2.2,4.621V110.1A3.522,3.522,0,0,0,140.593,106.421Zm.542,17.1c-.45.095.676.064-20.935.063a4.778,4.778,0,0,1-2.348-.313,2.7,2.7,0,0,1-1.411-2.375c0-.329,0-10.971,0-10.971a2.681,2.681,0,0,1,2.939-2.667s21.026,0,21.208,0a2.683,2.683,0,0,1,2.678,3v4.8c-1.506,3.527-1.927,4.664-2.19,6.125A5.62,5.62,0,0,0,141.135,123.517Zm-5.581-19.823c.9-1.33,3.2-5.151,3.4-6.145.452,2.027.755,4.084,1.023,6.145Zm-40.41,4.366a21.079,21.079,0,0,1-3.805-.438l2.389-1.351A17.433,17.433,0,0,0,95.144,108.06ZM81.67,101.82c7.525.643,10.423-3.269,17.333-3.857a2.2,2.2,0,0,1,1.912.467,2.322,2.322,0,0,1-.8,3.142,13.868,13.868,0,0,1-2.113,1.321s-6.242,3.485-8,4.526a.422.422,0,0,0,.1.762c7.46,2.119,16.263-1.521,17.313,2.778a2.953,2.953,0,0,1-1.848,2.784,18.524,18.524,0,0,1-4.039,1.2c-8.975,2.231-8.154,2.009-8.664,2.179-2.576.864-2.624,3.091-1.174,3.953,2.949,2.082,5.679,2.551,8.687,5.991a2.973,2.973,0,0,1,.883,1.5,3.061,3.061,0,0,1-1.524,2.7,4.519,4.519,0,0,1-2.145.389c-5.6-.011-8.785-3.381-18.475-3.694-3.519-.189-6.29-.151-9.884-.437,1.518-12.038,1.345-18.533,2.924-27.615A34.139,34.139,0,0,0,81.67,101.82ZM49.192,65.844A89.692,89.692,0,0,1,46.8,77.906c-2.864-3.744-4.973-8.219-7.061-12.113Zm11.244,79.491a14.193,14.193,0,0,1,1.76,5.113c.239,3.151-1.436,5.976-3.534,8.192-8.067,8.077-20.853,11.834-31.624,14.894a15.967,15.967,0,0,1-4.087.835,4.608,4.608,0,0,1-.916-.074,4.668,4.668,0,0,1-1.735-1.137,33.063,33.063,0,0,1-5.824-8.675,20.622,20.622,0,0,1-1.908-5.374,4.269,4.269,0,0,1,2.507-4.778,30.811,30.811,0,0,1,4.346-1.886c1.269-.479,5.378-1.955,6.149-2.255.295-.115.457-.594.1-.762a35.121,35.121,0,0,1-6.559-3.886,16.9,16.9,0,0,1-4.85-5.484,10.274,10.274,0,0,1-1.053-3.335c8.658.14,28.881-3.339,36.764-5.029A55.931,55.931,0,0,1,60.436,145.335Zm4.919-18.171c-.51.125-11.324,2.751-13.338,3.221-9.1,2.125-29.841,5.615-38.869,5.481V73.842a8.027,8.027,0,0,1,8.081-8.148,27.139,27.139,0,0,1,13.133,5.238c7.672,6.091,12.509,15.626,29.222,24.559.473.253.894-.466.421-.72a76.5,76.5,0,0,1-8.937-5.6C40.54,78.592,38.84,69.527,25.649,65.717l13.082.07c2.557,4.726,4.478,9,7.681,13,.168.209.3.441.6.426a.429.429,0,0,0,.4-.305A84.094,84.094,0,0,0,50.09,65.849l7.059.038a8.033,8.033,0,0,1,8.09,7.976V95.825a.321.321,0,0,0,.138.38,26.921,26.921,0,0,0,5.938,3.377c-1.534,8.839-1.5,16.182-2.962,27.867C66.121,127.234,65.844,127.015,65.355,127.164Zm46.314,17.394H90.231c-.931-4.771-2.6-8.867-6.8-11.272-2.973-1.621-4.617-1.969-16.188-5.121,6.134.75,12.217.027,18.127,1.345,4.869,1.086,6.187,2.363,11.307,2.937a8.022,8.022,0,0,0,2.653-.149,3.865,3.865,0,0,0,2.789-3.473c-.005-1.267-.959-2.191-1.786-3.037-2.4-2.475-4.332-3.022-7.424-4.929-.454-.28-1.209-.606-1.318-1.192a1.438,1.438,0,0,1,.7-1.359c.818-.476.55-.345,8.558-2.335a32.573,32.573,0,0,0,4.716-1.311,27.988,27.988,0,0,0,7.02,1.523v10.322c-.411.377-6.839,6.936-9.108,9.126a1.987,1.987,0,0,0,.772,3.393,5.133,5.133,0,0,0,1.333.072l6.362.013C111.765,141,111.7,142.682,111.669,144.558Zm-6.849-6.293a1.162,1.162,0,0,1-1.176-1.134c-.012-.664.456-.953,1.115-1.613l8.363-8.377c4.319,0,30.463.041,32.588.042-9.545,9.488-9.168,9.382-10.828,10.276a7.466,7.466,0,0,1-2.681.773C131.517,138.294,109.753,138.248,104.82,138.265Zm30.433,13.778c-.149.932-.395,2.786-.471,3.845a12.479,12.479,0,0,0,.411,5.122,14.187,14.187,0,0,1-6.232,3.875c-7.684,2.573-13.644-.91-15.345-6.2a16.073,16.073,0,0,1-.386-2.371,86.422,86.422,0,0,1-.743-10.92h21.731a.417.417,0,0,0,0-.833H112.493q.042-2.728.289-5.445c7.547.012,18.416.021,19.229-.033a8.5,8.5,0,0,0,3.458-.989,16.379,16.379,0,0,0,3.548-3.046,43.635,43.635,0,0,0-1.271,4.243C137.146,141.7,135.269,151.943,135.253,152.043Zm45-22.968c.106,7.761-5.931,10.954-8.5,13.888-3.439,3.936-5.139,13.558-8.034,18.686a12.16,12.16,0,0,1-6.659,5.046,21.662,21.662,0,0,1-9.179.675,29.483,29.483,0,0,1-5.928-1.317c-2.72-.99-5.935-3.627-6.339-6.8-.379-3.557.712-8.665,1.429-12.394.868-4.5,1.607-9.059,3.449-13.293,1.185-1.188,5.526-5.524,6.512-6.5.165-.251.121.036.121-1.966A20.354,20.354,0,0,0,153.158,119a8.977,8.977,0,0,0,1.3,4.628,4.221,4.221,0,0,0,2.647,1.912,5.345,5.345,0,0,0,5.938-2.65,4.746,4.746,0,0,0,2.146,3.248,4.922,4.922,0,0,0,6.088-1.071,5.182,5.182,0,0,0,.836-3.842,43.18,43.18,0,0,0,7.263,1.856A23.28,23.28,0,0,1,180.254,129.075ZM194.12,103a57.527,57.527,0,0,1-1.212,10.506,12.706,12.706,0,0,1-5.295,7.543c-4.751,2.754-10.633.9-15.867-.816a.418.418,0,0,0-.512.3c-.1.374.472,2.283-.373,3.687a3.8,3.8,0,0,1-2.316,1.553,3.548,3.548,0,0,1-4.319-1.869,7.864,7.864,0,0,1-.559-3.3.417.417,0,0,0-.833,0,4.668,4.668,0,0,1-1.571,3.237,4.782,4.782,0,0,1-2.038.861c-4.06.928-5.606-3.43-5.173-7.5a.42.42,0,0,0-.776-.21,16.668,16.668,0,0,1-3.87,5.222c-1.356,1.3-3.014,2.826-5.013,2.874a2.414,2.414,0,0,1-2.115-1.037,3.69,3.69,0,0,1-.436-2.355,10.916,10.916,0,0,1,.668-2.6c1.009-2.676,2.6-6.363,4.392-9.915.891-1.77,1.744-3.807,3.646-4.691a12.681,12.681,0,0,1,5.375-.919c7.048.33,10.447,1.085,17.265,1.946a.418.418,0,0,0,.416-.417,62.575,62.575,0,0,1,.2-12.511c6.345-.137,13.433-.494,19.738-.936A63.814,63.814,0,0,1,194.12,103ZM173.442,91.774a.421.421,0,0,0-.4.3,61.479,61.479,0,0,0-.3,12.554c-6.384-.826-8.744-1.414-16.171-1.849a14.148,14.148,0,0,0-5.892.762,6.49,6.49,0,0,0-3.571,3.442,3.457,3.457,0,0,0-3.552-3.294c-.358,0-2.723,0-2.723,0a68.411,68.411,0,0,0-1.376-7.621.42.42,0,0,0-.8,0c-.085.253-.193.5-.292.745q-1.869-.892-3.769-1.7s-13.086-6.006-13.178-6.046a74.448,74.448,0,0,1,5.369-9.011A53.91,53.91,0,0,1,134.6,70.93a20.71,20.71,0,0,1,6.553-4.532,41.583,41.583,0,0,1,13.157-3,8.4,8.4,0,0,0,.589,3.272,3.006,3.006,0,0,0,2.185,1.836c2.05.226,2.933-3.241,3.19-5.282,10.618.187,20.353,4.123,26.929,12.242,2.855,3.686,5.09,8.37,6.209,15.366C186.533,91.326,178.962,91.662,173.442,91.774Z" fill="#000000"></path><path d="M63.905,126.715c-10.937-2.011-20.844-7.5-26.381-13.008C31.48,107.658,27.5,99.688,18.857,99.2c-.536-.029-.535.8,0,.834,6.5.472,10.089,5.09,14.293,10.059a45.515,45.515,0,0,0,6.911,6.951,55.693,55.693,0,0,0,23.623,10.474C64.208,127.616,64.432,126.812,63.905,126.715Z" fill="#000000"></path><path d="M45.238,50.337c-2.3-1.127-4.581-.3-5.712,2.544a5.4,5.4,0,0,0-.507,3.01,2.711,2.711,0,0,0,1.248,1.7,4.138,4.138,0,0,0,6.342-1.992,6.554,6.554,0,0,0,.314-2.973A3.022,3.022,0,0,0,45.238,50.337Zm.749,4.379a3.3,3.3,0,0,1-4.876,2.4A2.276,2.276,0,0,1,39.9,55.939a4.265,4.265,0,0,1,.434-2.837,4.02,4.02,0,0,1,1.908-2.208,2.992,2.992,0,0,1,3.719,1.284A4.536,4.536,0,0,1,45.987,54.716Z" fill="#000000"></path><path d="M50.53,47.963c.722-1.494-.958-3.454-3.209-3.082l.755-.576c.647-.492,1.377-1.018,1.207-1.939a1.865,1.865,0,0,0-1.69-1.417,4.164,4.164,0,0,0-2.372.505c-.48.26-.459.338-.4.182.429-1.138.157-2.525-1.048-2.813-1.221-.183-2.031.841-2.346,2.025a37.543,37.543,0,0,0-1.076,3.976,6.126,6.126,0,0,0-.261,1.85,2.393,2.393,0,0,0,2.3,2.118c2.063.051,4.134.079,6.2,0C49.317,48.769,50.165,48.716,50.53,47.963Zm-8.139,0a1.551,1.551,0,0,1-1.471-1.317,4.267,4.267,0,0,1,.188-1.375,27.8,27.8,0,0,1,1.285-4.646,1.58,1.58,0,0,1,.827-.941.663.663,0,0,1,.872.4,2.047,2.047,0,0,1-.129,1.5c-.218.6-.46,1.2-.69,1.8-.173.449.528.717.761.321,1-1.687,3.037-2.274,3.994-1.753a.829.829,0,0,1,.441.807c-.077.357-.5.6-.767.8l-2.465,1.877a.418.418,0,0,0,.321.762,4.7,4.7,0,0,1,3.209-.355,1.927,1.927,0,0,1,.948.82.743.743,0,0,1-.5,1.268A53.119,53.119,0,0,1,42.391,47.959Z" fill="#000000"></path><path d="M29.955,181.159a34.11,34.11,0,0,1-10.134-4.373,14.73,14.73,0,0,1-5-5.328,65.35,65.35,0,0,1-4.915-10.976.417.417,0,0,0-.806.128c0,4.313-.536,8.875.958,13.019A12.271,12.271,0,0,0,20.35,181.6a40.83,40.83,0,0,0,9.494.381C30.289,181.943,30.439,181.275,29.955,181.159Zm-8.286-.209a13.844,13.844,0,0,1-6.663-2.188,10.864,10.864,0,0,1-3.957-4.869c-1.375-3.651-1.24-6.666-1.146-11.028,1.353,3.5,3.346,8.195,5.783,11.339,2.8,3.43,7.508,5.662,11.668,7.047A40.3,40.3,0,0,1,21.669,180.95Z" fill="#000000"></path><path d="M101.075,148.539a.419.419,0,0,0-.4.4v36.776c-5.266,1.149-16.71,2.9-22.031,3.68a.421.421,0,0,0-.291.513.428.428,0,0,0,.513.291c3.722-.543,17.1-2.592,22.234-3.723,5.734.878,16.376,2.888,22.1,4,.524.1.748-.7.221-.8-1.836-.357-20.134-3.7-21.909-3.973V148.942A.418.418,0,0,0,101.075,148.539Z" fill="#000000"></path><path d="M103.876,30.67a.425.425,0,0,0-.416.417v11.3a.422.422,0,0,0,.416.417h5.554a.423.423,0,0,0,.417-.417v-11.3a.423.423,0,0,0-.417-.417Zm5.138,11.3h-4.721V31.5h4.721Z" fill="#000000"></path><path d="M113.2,27.3a.424.424,0,0,0-.416.417V42.389a.422.422,0,0,0,.416.417h5.753a.423.423,0,0,0,.417-.417V27.715a.424.424,0,0,0-.417-.417Zm5.336,14.675h-4.919V28.131h4.919Z" fill="#000000"></path><path d="M124.507,19.76a.426.426,0,0,0-.417.417V42.389a.423.423,0,0,0,.417.417h7.141a.423.423,0,0,0,.417-.417V20.177a.424.424,0,0,0-.417-.417Zm6.724,22.213h-6.308V20.593h6.308Z" fill="#000000"></path><path d="M133.485,9.546a62.831,62.831,0,0,1-10.158,3.57.417.417,0,0,0,.222.8q3.22-.846,6.346-2.01A217.93,217.93,0,0,1,94.623,27.943c-.5.176-.286.981.221.8a220.888,220.888,0,0,0,28.561-12.361c3.263-1.7,5.262-2.856,6.817-3.7-1.45,1.407-2.922,2.79-4.491,4.058-.417.337.176.924.59.589,2.77-2.239,5.335-4.912,7.569-7.061C134.06,10.112,134.141,9.265,133.485,9.546Z" fill="#000000"></path><path d="M174.2,29.209c-.583,1.076-4.955,9.142-5.169,9.538-.256.472.463.893.719.421l5.17-9.539C175.176,29.158,174.456,28.737,174.2,29.209Z" fill="#000000"></path><path d="M172.709,41.185l7.78-5.593c.432-.31.016-1.033-.42-.72l-7.78,5.594C171.858,40.776,172.273,41.5,172.709,41.185Z" fill="#000000"></path><path d="M21.248,46.021c.947-3.8,3.951-9.025,7.4-10.995.469-.26.044-.989-.421-.719a13.2,13.2,0,0,0-4.143,3.943,23.36,23.36,0,0,0-3.638,7.55C20.327,46.322,21.13,46.544,21.248,46.021Z" fill="#000000"></path><path d="M24.347,31.57a43.6,43.6,0,0,0-8.382,13.639c-.172.51.632.728.8.222a42.907,42.907,0,0,1,8.168-13.272C25.313,31.777,24.724,31.187,24.347,31.57Z" fill="#000000"></path><path d="M35.55,127.04a26.1,26.1,0,0,1-10.371-8.991c-.3-.444-1.019-.027-.72.42a26.924,26.924,0,0,0,10.67,9.291C35.61,127.992,36.033,127.273,35.55,127.04Z" fill="#000000"></path><path d="M34.017,129.876A24.172,24.172,0,0,1,23.868,120.6c-.285-.453-1.006-.035-.719.421A25.259,25.259,0,0,0,33.6,130.6C34.08,130.82,34.5,130.1,34.017,129.876Z" fill="#000000"></path><path d="M156.183,72.537c-.092-.429-.678-.36-.8,0-.375,1.076-5.945,17.023-6.1,17.5-.136.432.3.844.528,1.18,3.852,5.64,3.614,5.319,3.708,5.386a.375.375,0,0,0,.564,0c1.213-1.411,4.961-5.5,5.572-6.177.156-.174.29-.312.242-.578C159.9,89.833,156.186,72.551,156.183,72.537Zm-2.348,23.1c-1.1-1.613-3.582-5.246-3.721-5.451l5.572-16,3.363,15.668Z" fill="#000000"></path><path d="M44.328,54.53a.412.412,0,0,0-.55.144c-.227.382-.574.733-.84.377a1.264,1.264,0,0,1-.185-.562c-.088-.528-.89-.3-.8.221a1.406,1.406,0,0,0,1.138,1.312A1.571,1.571,0,0,0,44.5,55.1.417.417,0,0,0,44.328,54.53Z" fill="#000000"></path><path d="M94.73,182.748A42.815,42.815,0,0,0,79.3,178.912a33.326,33.326,0,0,0-16.519,3.836.42.42,0,0,0,.21.777c29.261.377,31.416,0,31.534,0C94.905,183.525,95.125,182.922,94.73,182.748Zm-29.943-.056A33.511,33.511,0,0,1,75.729,179.8a38.663,38.663,0,0,1,16.729,2.888Z" fill="#000000"></path><path d="M128.257,176.516h31.534c.385,0,.6-.6.211-.775-6.379-2.909-14.4-4.639-21.242-3.519A41.014,41.014,0,0,0,130,169.913a31.144,31.144,0,0,0-17.045,1.924,32.548,32.548,0,0,0-3.37,1.521.42.42,0,0,0,.211.776h21.858a31.285,31.285,0,0,0-3.6,1.607A.419.419,0,0,0,128.257,176.516ZM111.594,173.3a32.167,32.167,0,0,1,14.508-2.947,41.9,41.9,0,0,1,11.055,2.161q-1.551.324-3.063.786Zm32.973-.564a41.319,41.319,0,0,1,13.162,2.946h-27.67A32.032,32.032,0,0,1,144.567,172.737Z" fill="#000000"></path><path d="M185.307,130.482a.42.42,0,0,0-.417-.417.426.426,0,0,0-.416.417,22.077,22.077,0,0,1-7.186,13.9c-2.859,2.57-3.769,2.4-3.806,2.912a.385.385,0,0,0-.138.411q3.117,12.681,5.478,25.359c.1.527.9.3.8-.221-1.534-8.22-3.357-16.736-5.436-25.185A22.824,22.824,0,0,0,185.307,130.482Z" fill="#000000"></path><path d="M12.367,147.121a.427.427,0,0,0,.59,0,.417.417,0,0,0,0-.589,19.474,19.474,0,0,1-6.792-18.666c.106-.524-.7-.747-.8-.222A20.29,20.29,0,0,0,12.367,147.121Z" fill="#000000"></path><path d="M145.7,134.017a.416.416,0,0,0-.55.145l-1.779,3.065a.417.417,0,0,0,.72.421l1.778-3.066A.417.417,0,0,0,145.7,134.017Z" fill="#000000"></path><path d="M84.939,139.555q-.781-1.543-1.561-3.087c-.242-.479-.961-.058-.72.42q.782,1.543,1.561,3.087C84.461,140.454,85.18,140.033,84.939,139.555Z" fill="#000000"></path><path d="M28.288,149.958a.419.419,0,0,0-.512.291.426.426,0,0,0,.291.513A9.533,9.533,0,0,1,31.326,153c.372.388.961-.2.59-.588A10.511,10.511,0,0,0,28.288,149.958Z" fill="#000000"></path><path d="M59.3,151.518a.42.42,0,0,0,.57.15.428.428,0,0,0,.15-.57l-1.357-3.187a.42.42,0,0,0-.571-.15.428.428,0,0,0-.149.57Q58.626,149.924,59.3,151.518Z" fill="#000000"></path><path d="M130.448,114.306q-.035-1.546-.021-3.092c.743.035,1.489.12,2.227.177.535.042.532-.792,0-.833-.738-.057-1.478-.126-2.217-.165,0-.317,0-.634.011-.951a.417.417,0,0,0-.834,0c-.007.31,0,.62-.01.93-2.9.019-3.783,2.5-2.565,3.706.585.579,1.4.588,2.589.862.038,1.3.108,2.593.2,3.888a4.86,4.86,0,0,1-2.4-.94c-.434-.316-.85.406-.421.719a5.663,5.663,0,0,0,2.875,1.062c.012.161.02.324.033.486.043.53.876.535.833,0-.013-.164-.021-.329-.033-.493C134.044,119.307,134.113,115.488,130.448,114.306Zm-2.613-.671a1.073,1.073,0,0,1-.273-1.559,2.415,2.415,0,0,1,2.032-.872q-.011,1.443.018,2.887A5.884,5.884,0,0,1,127.835,113.635Zm2.821,5.195c-.082-1.213-.146-2.427-.185-3.642a2.654,2.654,0,0,1,1.824,1.713C132.6,117.815,131.944,118.743,130.656,118.83Z" fill="#000000"></path><path d="M112.794,130.81h24.5a.417.417,0,0,0,0-.833h-24.5a.417.417,0,0,0,0,.833Z" fill="#000000"></path><path d="M133.926,134.248a.417.417,0,0,0-.4-.4h-24.2a.417.417,0,0,0,0,.833h24.2A.418.418,0,0,0,133.926,134.248Z" fill="#000000"></path><path d="M95.637,73.817a10.863,10.863,0,0,0,7.081-7.711c.122-.522-.681-.744-.8-.222a10.01,10.01,0,0,1-6.5,7.129C94.909,73.181,95.126,73.985,95.637,73.817Z" fill="#000000"></path><path d="M83.7,108.382l3.413-.5a.419.419,0,0,0,.291-.512.426.426,0,0,0-.512-.291l-3.414.5a.42.42,0,0,0-.291.512A.428.428,0,0,0,83.7,108.382Z" fill="#000000"></path><path d="M83.881,119.141a.417.417,0,0,0,0,.833H87.3a.417.417,0,0,0,0-.833Z" fill="#000000"></path><path d="M45.751,115.121c.473.251.9-.468.42-.719a9.6,9.6,0,0,1-3.144-2.64.428.428,0,0,0-.571-.149.416.416,0,0,0-.149.57A10.534,10.534,0,0,0,45.751,115.121Z" fill="#000000"></path><path d="M154.991,110.917q-.607,1.681-1.213,3.364c-.183.506.622.723.8.221q.607-1.681,1.213-3.363C155.976,110.633,155.172,110.415,154.991,110.917Z" fill="#000000"></path><path d="M164.559,114.3a12.254,12.254,0,0,1-1.113,3.255c-.244.476.475.9.719.42a13.053,13.053,0,0,0,1.2-3.453C165.464,114,164.661,113.771,164.559,114.3Z" fill="#000000"></path><path d="M174.036,105.633a51.254,51.254,0,0,1,6.923,1.088c.522.119.745-.684.221-.8a52.568,52.568,0,0,0-7.144-1.118C173.5,104.753,173.505,105.586,174.036,105.633Z" fill="#000000"></path><path d="M187.36,119.944a11.816,11.816,0,0,0,2.355-2.069c.35-.4-.237-1-.589-.589a10.936,10.936,0,0,1-2.187,1.938C186.5,119.521,186.912,120.244,187.36,119.944Z" fill="#000000"></path><path d="M118.242,101.109q-.066-1.388-.13-2.776c-.025-.533-.858-.536-.833,0q.065,1.389.13,2.776C117.434,101.643,118.267,101.646,118.242,101.109Z" fill="#000000"></path><path d="M138.477,87.915a.427.427,0,0,0-.417-.417.416.416,0,0,0-.416.417q.394,3.442.945,6.864a.421.421,0,0,0,.513.291.427.427,0,0,0,.291-.512Q138.861,91.246,138.477,87.915Z" fill="#000000"></path></g></svg>