<svg xmlns="http://www.w3.org/2000/svg" viewBox="0 0 200 200" height="400" width="400"><g><path d="M111.128,65.429c-.274.847-.538,1.7-.784,2.553-1.979,6.885-.982,6.09-1.994,6.762-5.791,3.842-12.113,7.581-18.052,11.334,4.11,1.711,14.236,6.648,15.839,7.367a27.7,27.7,0,0,0,.516-8.469,3.9,3.9,0,0,1,.81-2.994,2.046,2.046,0,0,1,2.565-.475,7.536,7.536,0,0,1,2.523,3.351c0-.557.009-1.114.038-1.672.053-1.04,0-2.286.934-2.965a2.179,2.179,0,0,1,3.206.826,6.624,6.624,0,0,1,.932,2.1,6.245,6.245,0,0,1,.508-2.073,2.314,2.314,0,0,1,4.285,1.078c.287,3.406.482,6.832.625,10.247a18.653,18.653,0,0,1,2.63-.177,8.542,8.542,0,0,1,2.471.144,2.175,2.175,0,0,1,1.649,2.9c1.971.025,4.381.062,6.337.243.011-.307.067-3.737.067-3.737a.361.361,0,0,1,.373-.348.357.357,0,0,1,.348.348c.01,1.077-.062,3.618-.069,3.813a17.359,17.359,0,0,1,2.889.6,41.512,41.512,0,0,1,3.074-20.019C132.384,72.24,122.222,69.133,111.128,65.429Zm22.866,25.129a1.98,1.98,0,0,1-1.83,1.11,9.648,9.648,0,0,1-2.1.045,1.584,1.584,0,0,1-1.541-1.178,12.475,12.475,0,0,1-.1-1.874,16.072,16.072,0,0,1,.595-5.173,2.515,2.515,0,0,1,2.073-1.7,2.242,2.242,0,0,1,2.035,1.476c.292.783.325,1.018.944,5.563A3.49,3.49,0,0,1,133.994,90.558Zm-.265-10.184c2.519,1.144,3.011,3.936,3.048,6.424a1.951,1.951,0,1,1-.723.01A9.916,9.916,0,0,0,135.6,83.5a4.128,4.128,0,0,0-2.67-2.662,5.216,5.216,0,0,0-4.655.547,5.665,5.665,0,0,0-1.871,3.285,9.764,9.764,0,0,0-.259,2.433,1.952,1.952,0,1,1-.718,0,10.88,10.88,0,0,1,.449-3.245,5.833,5.833,0,0,1,2.548-3.427A6.264,6.264,0,0,1,133.729,80.374Z" fill="#ffffff"></path><path d="M147.116,66.011c8.511-6.426,20.872-4.112,28.854,3.217a34.151,34.151,0,0,1,10.232,17.1c-.658-5.979-2.152-14.575-4.657-20.3a45.2,45.2,0,0,0-8.969-12.8c-8.068-8.138-18.263-11.8-29.861-11.066a37.063,37.063,0,0,0-22.14,9.012C130.9,57.4,139.339,62.07,147.116,66.011Zm3.671-5.718a3.443,3.443,0,1,1,2.776-3.377A3.436,3.436,0,0,1,150.787,60.293Zm6.189-2.842c0,2.257-1.785,2.665-2.372,1.017a3.045,3.045,0,0,1,.116-2.307,1.048,1.048,0,0,1,1.332-.652C156.715,55.736,156.976,56.689,156.976,57.451ZM143.889,47.8a3.016,3.016,0,0,1,3.135-2.874c1.73.231,1.507,1.072,3.228.659a2.916,2.916,0,0,1,1.553.2c1.42.6,2.492,1.931,2.625,4.367a.242.242,0,0,1,.094.038c1.1.85,1.275,2.356,1.435,3.646.057.46-.665.454-.721,0a5.746,5.746,0,0,0-.748-2.68,14.873,14.873,0,0,1-.028,2.43.287.287,0,0,1-.333.253c-1.358-.167-2.462-1.167-4.032-1.83-1.593-.473-2.1.088-3.784-.568a3,3,0,0,0-1.1,2.395c.016.464-.706.461-.721,0a3.682,3.682,0,0,1,1.137-2.744A3.608,3.608,0,0,1,143.889,47.8Zm-.328,8.362a1.048,1.048,0,0,1,1.461-.6c1.153.707,1.037,3.531-.241,3.882C143.7,59.742,142.784,57.823,143.561,56.161Z" fill="#ffffff"></path><path d="M90.3,86.078c5.953-3.762,12.214-7.461,18.052-11.334.723-.48.414-.192.92-2.548.387-1.8.981-4.055,1.858-6.767-.231-.077-.461-.156-.691-.234a62.079,62.079,0,0,0-2.225,8.774c-6.188,4.116-12.592,7.89-18.873,11.86a.366.366,0,0,0,.086.659c5.652,2.266,10.987,5.2,16.574,7.681.05-.241.092-.483.138-.724C102.93,92.009,94.571,87.862,90.3,86.078Z" fill="#b6dbff"></path><path d="M182.187,65.707a45.781,45.781,0,0,0-13.408-16.743c-7.922-6.088-17.839-8.424-27.911-7.367a37.963,37.963,0,0,0-20.958,9.179c.221.134.444.266.665.4a40.483,40.483,0,0,1,6.018-4.241c9.892-5.674,22.3-6.157,32.146-2.653,7.9,2.812,14.29,8.363,19.174,15.379,4.438,6.375,5.934,11.933,7.39,20.35.362,2.091.666,4.2.9,6.313a70.1,70.1,0,0,1,.991,14.367,73.909,73.909,0,0,0-.349-14.981C186.128,79.653,184.588,71.273,182.187,65.707Z" fill="#b6dbff"></path><path d="M186.2,86.323c-1.388-6.5-5.548-12.795-10.232-17.095-7.98-7.328-20.342-9.644-28.854-3.217-8.4-4.254-13.8-7.433-14.246-7.637.211.183.28-.86.147,13.779a.362.362,0,0,1-.435.349c.484.219,3.663,1.185,10.266,3.66a41.512,41.512,0,0,0-3.074,20.019,10.4,10.4,0,0,1,3.937,2.114,10.219,10.219,0,0,1,5.1-4.649,8.293,8.293,0,0,1,7.787,1.391,15.928,15.928,0,0,1,3.9,5.916c.175.43-.523.616-.695.192A18.387,18.387,0,0,0,157.474,97,7.207,7.207,0,0,0,153,94.11a6.583,6.583,0,0,0-4.386.407,9.572,9.572,0,0,0-4.369,4.294c.588.6,1.153,1.271,1.687,1.911a4.558,4.558,0,0,1,.92-1.89,6.175,6.175,0,0,1,7.344-1.047,10.253,10.253,0,0,1,3.247,3.337,8.88,8.88,0,0,1,.65,1c.569-.13,2.658-.472,3.342-.539a4.593,4.593,0,0,1,2.233.2,1.5,1.5,0,0,1,1,1.5,1.729,1.729,0,0,1-1.277,1.31,21.823,21.823,0,0,1-3.768.606,46.728,46.728,0,0,1,3.822,10.088,20.406,20.406,0,0,1,6.473,1.176s1.3-17.749,1.777-24.176c.034-.461.755-.463.721,0-.135,1.836-1.334,18.154-1.8,24.477,4.475,2.1,7.245,6.726,8.105,11.523a31.08,31.08,0,0,1,.332,8.1c.095.341-.438,5.539-.559,6.561,3.386-3.339,5.349-8.075,6.5-12.6,1.662-6.557,1.553-13.388,1.855-20.1C187.139,103.642,187.726,93.455,186.2,86.323Z" fill="#ffc431"></path><path d="M133.009,58.617a.31.31,0,0,0-.128-.233c-.541-.4-8.042-4.393-22.836-13.685,1.447-6.442,1.37-6,1.48-6.66.6-2.629-1.5-4.157-2.981-3.114a7.166,7.166,0,0,0-2.13,3.386c-.576,1.505-1.055,3.053-1.527,4.595-2.747-.068-5.514.046-8.254.237A7.6,7.6,0,0,0,93,44.085a2.471,2.471,0,0,0-1.245,2.765,3.165,3.165,0,0,0,1.607,1.859,2.651,2.651,0,0,0-2.246,1.559,3.046,3.046,0,0,0,1.856,3.558,2.715,2.715,0,0,0-2.333,1.69c-.479,1.426.756,2.667,1.93,3.23.493.237,8.841,3.33,9.4,3.529,1.507.539,30.5,10.221,30.616,10.227a.363.363,0,0,0,.428-.283C133.029,72.122,133.018,58.653,133.009,58.617Zm-26.945-9.382c-.763,1.582-3.545,1.513-5.281,1.319-.238-.026-.128-.061,1.388.618,1.113.5,2.5,1.078,2.885,2.361a2.347,2.347,0,0,1-2,2.881,4.926,4.926,0,0,1-1.312.013,2.993,2.993,0,0,1,1.23,2.133,2.279,2.279,0,0,1-2.174,2.359,9.474,9.474,0,0,1-2.772-.383.361.361,0,0,1,.192-.7,8.172,8.172,0,0,0,2.631.354,1.539,1.539,0,0,0,1.354-1.907,2.939,2.939,0,0,0-1.837-1.832c-2.488-1.08-2.679-.657-6.253-2.362a.321.321,0,0,1-.154-.425.389.389,0,0,1,.518-.2,24.557,24.557,0,0,0,2.978,1.221c.17-.005.636.227,1.454.452q1,.275,2.016.449a5.905,5.905,0,0,0,2.04.108,1.571,1.571,0,0,0,1.106-2.507,3.683,3.683,0,0,0-1.226-.913,40.461,40.461,0,0,0-7.981-2.875.361.361,0,0,1,.192-.7,41.02,41.02,0,0,0,6.115,1.157,9.011,9.011,0,0,0,2.806-.075c.648-.136,1.594-.51,1.52-1.333C105.136,46.386,98.934,46,96.83,45.9c-.463-.021-.464-.741,0-.721,1.454.063,2.9.223,4.343.418a11.114,11.114,0,0,1,3.68,1.086A2,2,0,0,1,106.064,49.235Z" fill="#ffaaaa"></path><path d="M172.411,92.294c.034-.463-.687-.461-.721,0-.472,6.427-1.777,24.176-1.777,24.176q.357.141.7.3C171.445,105.435,172.267,94.26,172.411,92.294Z" fill="#ffaaaa"></path><path d="M145.932,100.722c-.53-.636-1.1-1.306-1.687-1.911a15.357,15.357,0,0,0-1.252,3.459c-.108.451-.8.259-.695-.192a15.635,15.635,0,0,1,1.413-3.783,12.472,12.472,0,0,0-6.826-2.714c-.06,1.553-.39,2.856-1.736,3.681a4.222,4.222,0,0,1-2.08.5c-.465.023-.462-.7,0-.722a2.741,2.741,0,0,0,2.936-2.145,7.208,7.208,0,0,0,.161-1.386c-1.958-.181-4.373-.218-6.337-.243a3.4,3.4,0,0,1-2.765,1.836c-.355.049-3.46.369-3.563.379-.3,3.362-1.126,14.094-1.258,16.1-.03.461-.751.463-.721,0q.186-2.823.4-5.644H103.57a.328.328,0,0,1-.36-.345c-.026.156-.1.885-.115,1.043a50.5,50.5,0,0,0-.161,7.765c.272,4.754,1.52,8.853,5.526,11.415a16.4,16.4,0,0,0,3.09,8.9c3.811,5.295,8.583,7.859,14.912,9.331a130.765,130.765,0,0,0,15.366,2.588,42.82,42.82,0,0,1-4.372-4.245,30.944,30.944,0,0,1-4.531.678,7.268,7.268,0,0,1-4.715-.847,2.421,2.421,0,0,1-1.11-2.965,4.19,4.19,0,0,1,2.232-1.716,20.472,20.472,0,0,1,3.632-1.134c-1.912-.135-4.382.05-5.885-1.17a1.994,1.994,0,0,1-.28-2.835,6.918,6.918,0,0,1,3.964-2.153c-1.914-.454-4.348-1.667-4.515-3.613-.112-1.3,1.028-2.057,2.161-2.258.753-.133.5-.1,8.852-.476-.168-3.711-.8-8.113-.313-10.154a2.91,2.91,0,0,1,2.772-2.065c1.795.015,3.022,2.321,3.643,4.006q1.966-.522,3.959-.934C145.831,102.455,145.5,102.378,145.932,100.722Zm-21.948,23.391a11.294,11.294,0,0,1-8.283,5.416,11.026,11.026,0,0,1-7.083-1.611c-.395-.243-.033-.866.364-.623a10.32,10.32,0,0,0,14.38-3.546.361.361,0,0,1,.622.364Zm7.8-22.051a1.772,1.772,0,0,1-.917,1.034c-.941.346-1.537-.737-1.754-1.473a5.4,5.4,0,0,1,.141-3.529c.292-.731,1.04-1.511,1.86-.947.866.6,1.028,1.954,1.039,2.91A5.267,5.267,0,0,1,131.789,102.062Zm13.559,3.162a1.729,1.729,0,0,1-1.278,1.31,26.59,26.59,0,0,1-4.675.679,3.593,3.593,0,0,1-2.13-.251,1.471,1.471,0,0,1,.079-2.387,7.145,7.145,0,0,1,2.3-.683c2.035-.266,3.176-.715,4.711-.172A1.5,1.5,0,0,1,145.348,105.224Z" fill="#b6dbff"></path><path d="M159.618,105.206c-.259.024-.518.046-.778.063a3.828,3.828,0,0,1-2.26-.24,1.471,1.471,0,0,1,.079-2.387,5.9,5.9,0,0,1,1.434-.519,8.88,8.88,0,0,0-.65-1,10.253,10.253,0,0,0-3.247-3.337,6.175,6.175,0,0,0-7.344,1.047,5.409,5.409,0,0,0-1.1,3.363c.046,1.086,1.088,9.941,1.57,14.554a62.946,62.946,0,0,1,16.118-1.455A46.774,46.774,0,0,0,159.618,105.206Zm-7.17.75a3.171,3.171,0,0,1-4-.136,3.28,3.28,0,0,1,1.149-5.4,3.119,3.119,0,0,1,3.763,1.648A3.2,3.2,0,0,1,152.448,105.956Z" fill="#000000"></path><path d="M178.717,128.294c-.916-5.111-3.972-9.923-8.8-11.824a18.712,18.712,0,0,0-5.263-1.1,66.184,66.184,0,0,0-21.287,2.315c1.627,4.361.638,7.011,5.983,11.877a67.288,67.288,0,0,0,12.643,9.414q.166-1.224.284-2.452a.369.369,0,0,1,.36-.361c3.472-.064,15.951-.074,16.065-.073a.365.365,0,0,1,.351.311A31.08,31.08,0,0,0,178.717,128.294Zm-15.267,6.523c-.041.46-.762.463-.721,0q.252-2.858.5-5.717c.04-.46.762-.462.721,0Q163.7,131.959,163.45,134.817Z" fill="#c0c195"></path><path d="M122.243,113.573q.2-3,.422-6a.368.368,0,0,1-.36.36h-.386q-.21,2.822-.4,5.644C121.491,114.036,122.213,114.034,122.243,113.573Z" fill="#b6dbff"></path><path d="M128.18,92.363a8.542,8.542,0,0,0-2.471-.144,18.653,18.653,0,0,0-2.63.177c-.143-3.415-.338-6.841-.625-10.247a2.314,2.314,0,0,0-4.285-1.078,6.245,6.245,0,0,0-.508,2.073c-.037-.133-.065-.268-.107-.4a7.164,7.164,0,0,0-.825-1.7,2.18,2.18,0,0,0-3.206-.826c-.933.679-.881,1.925-.934,2.965-.029.558-.037,1.115-.038,1.672a7.536,7.536,0,0,0-2.523-3.351,2.046,2.046,0,0,0-2.565.475,3.9,3.9,0,0,0-.81,2.994A28.61,28.61,0,0,1,106,94.169c-1,4.881-2.027,7.532-2.79,13.4v.015a.279.279,0,0,0,.2.309c.115.056-1.191.259,18.9.036a.366.366,0,0,0,.36-.36q.379-5.049.836-10.092c.1-.01,3.206-.33,3.563-.379a3.41,3.41,0,0,0,2.765-1.836A2.181,2.181,0,0,0,128.18,92.363Zm-19.314,1.556a8.723,8.723,0,0,1,5.12,2.9,7.2,7.2,0,0,1,7.364-3.443c.458.076.263.769-.192.695a6.422,6.422,0,0,0-6.79,3.567c-.131.272-.475.192-.623,0a8.057,8.057,0,0,0-5.071-3.024C108.216,94.538,108.412,93.841,108.866,93.919Z" fill="#ae877c"></path><path d="M155.959,53.833c-.16-1.29-.331-2.8-1.435-3.646a.273.273,0,0,0-.094-.038,7.043,7.043,0,0,0-.461-2.172,3.679,3.679,0,0,0-3.717-2.393,4.974,4.974,0,0,1-.849.128,2.081,2.081,0,0,1-.861-.269,3,3,0,0,0-3-.2,3.362,3.362,0,0,0,.087,5.849,3.721,3.721,0,0,0-1.137,2.744c.015.461.737.464.721,0a2.989,2.989,0,0,1,1.1-2.395c1.678.639,2.189.094,3.784.568,1.554.657,2.665,1.68,4.032,1.83a.285.285,0,0,0,.33-.232,14.8,14.8,0,0,0,.031-2.451,5.818,5.818,0,0,1,.748,2.68C155.294,54.287,156.016,54.293,155.959,53.833Z" fill="#000000"></path><path d="M103.863,50.549c2.785-.425,3.1-2.769.99-3.869a11.138,11.138,0,0,0-3.68-1.086c-1.442-.2-2.889-.355-4.343-.418-.464-.02-.463.7,0,.721,2.1.1,8.308.487,8.668,2.562.074.823-.872,1.2-1.52,1.333a9.011,9.011,0,0,1-2.806.075,41,41,0,0,1-6.115-1.157.361.361,0,0,0-.192.7,34.9,34.9,0,0,1,4.008,1.208,40.486,40.486,0,0,1,3.973,1.667,3.673,3.673,0,0,1,1.226.913,1.572,1.572,0,0,1-1.106,2.507,5.931,5.931,0,0,1-2.04-.108,24.561,24.561,0,0,1-6.448-2.122c-.343-.169-.716.265-.467.546a27.255,27.255,0,0,0,4.636,1.8,14.932,14.932,0,0,1,1.72.64,2.937,2.937,0,0,1,1.837,1.832,1.539,1.539,0,0,1-1.354,1.907,8.172,8.172,0,0,1-2.631-.354.361.361,0,0,0-.192.7,9.532,9.532,0,0,0,2.772.383,2.279,2.279,0,0,0,2.174-2.359,2.949,2.949,0,0,0-1.23-2.133,4.926,4.926,0,0,0,1.312-.013,2.347,2.347,0,0,0,2-2.881c-.386-1.282-1.772-1.862-2.885-2.361-.473-.212-.968-.422-1.48-.629A11.977,11.977,0,0,0,103.863,50.549Z" fill="#ffaaaa"></path><path d="M133.124,83.267a2.242,2.242,0,0,0-2.035-1.476,2.515,2.515,0,0,0-2.073,1.7,10.433,10.433,0,0,0-.544,3.147.367.367,0,0,1,.361-.36c4.343-.046,4.51-.019,4.61.008a.281.281,0,0,1,.3.254A14.443,14.443,0,0,0,133.124,83.267Z" fill="#000000"></path><path d="M134.068,88.83c-.1-.764-.215-1.53-.323-2.293a.28.28,0,0,0-.3-.254,43.285,43.285,0,0,0-4.61-.008.37.37,0,0,0-.361.36,25.005,25.005,0,0,0,.05,3.9,1.584,1.584,0,0,0,1.541,1.178,9.648,9.648,0,0,0,2.1-.045,1.98,1.98,0,0,0,1.83-1.11A3.49,3.49,0,0,0,134.068,88.83Z" fill="#ae877c"></path><path d="M128.42,80.428a5.833,5.833,0,0,0-2.548,3.427,10.88,10.88,0,0,0-.449,3.245,1.947,1.947,0,0,1,.718,0,9.764,9.764,0,0,1,.259-2.433,5.665,5.665,0,0,1,1.871-3.285,5.216,5.216,0,0,1,4.655-.547A4.128,4.128,0,0,1,135.6,83.5a9.916,9.916,0,0,1,.458,3.313,1.932,1.932,0,0,1,.723-.01c-.037-2.488-.529-5.28-3.048-6.424A6.264,6.264,0,0,0,128.42,80.428Z" fill="#000000"></path><path d="M136.116,96.22a3,3,0,0,1-1.233,2.355,3.366,3.366,0,0,1-1.814.461c-.462.023-.465.745,0,.722a3.454,3.454,0,0,0,3.536-2.336,6.9,6.9,0,0,0,.28-1.841c.007-.2.079-2.736.069-3.813a.361.361,0,0,0-.721,0C136.149,95.037,136.181,95.613,136.116,96.22Z" fill="#000000"></path><path d="M153.356,102.066a3.119,3.119,0,0,0-3.763-1.648,3.28,3.28,0,0,0-1.149,5.4,3.151,3.151,0,0,0,4.912-3.754Z" fill="#ffaaaa"></path><path d="M163.668,101.786c-1.419-.5-2.5-.162-4.712.173a7.209,7.209,0,0,0-2.3.683,1.47,1.47,0,0,0-.405,2.039c.517.773,1.526.652,2.456.6a25.853,25.853,0,0,0,4.676-.679,1.729,1.729,0,0,0,1.277-1.31A1.5,1.5,0,0,0,163.668,101.786Z" fill="#6596e1"></path><path d="M142.993,102.27c.817-3.387,2.438-6.226,5.621-7.753A6.583,6.583,0,0,1,153,94.11,7.206,7.206,0,0,1,157.474,97a18.387,18.387,0,0,1,2.331,4.144c.172.424.87.238.695-.192a15.9,15.9,0,0,0-3.9-5.916,8.3,8.3,0,0,0-7.787-1.391c-2.836,1.11-5.38,3.723-6.514,8.432C142.189,102.529,142.885,102.721,142.993,102.27Z" fill="#000000"></path><path d="M115.7,129.529a11.3,11.3,0,0,0,8.283-5.416.361.361,0,0,0-.622-.364,10.319,10.319,0,0,1-14.38,3.546c-.4-.243-.759.38-.364.623A11.019,11.019,0,0,0,115.7,129.529Z" fill="#b6dbff"></path><path d="M61.431,80.724a1.776,1.776,0,0,0-.312,1.808,6.384,6.384,0,0,0,.657.871.954.954,0,0,0-.4.807c.023.693.813.968,1.342,1.217,1.012.476,2.349,1.164,2.237,2.476a4.211,4.211,0,0,1,.34-1.426c1.252-2.884,5.725-2.6,6.377.517C71.633,81.46,63.426,78.367,61.431,80.724Z" fill="#000000"></path><path d="M179.049,136.4a.365.365,0,0,0-.351-.311c-.114,0-12.594.011-16.065.073a.369.369,0,0,0-.36.361q-.115,1.229-.284,2.452a67.934,67.934,0,0,1-12.643-9.414c-5-4.554-4.437-7.118-5.749-11.2-.605-1.88-1.891-4.667-3.877-4.684a2.91,2.91,0,0,0-2.772,2.065c-.5,2.071.139,6.308.313,10.154-8.16.365-8.068.337-8.852.476-2.838.5-3.085,3.518.43,5.2,2.134,1.019,2.562.4.939.958A6.055,6.055,0,0,0,126.8,134.4a1.982,1.982,0,0,0,.241,2.8c1.488,1.253,4.008,1.067,5.924,1.2a20.472,20.472,0,0,0-3.632,1.134,4.19,4.19,0,0,0-2.232,1.716,2.421,2.421,0,0,0,1.11,2.965,7.268,7.268,0,0,0,4.715.847,30.944,30.944,0,0,0,4.531-.678,44.326,44.326,0,0,0,10.345,8.488c5.457,3.44,12.62,6.718,19.131,7.256a7.913,7.913,0,0,0,5.907-1.732,15.17,15.17,0,0,0,4.545-8.53A92.972,92.972,0,0,0,179.049,136.4Zm-8.231,19.233-2.28,1.053c-.419.193-.785-.429-.364-.623l2.28-1.053C170.873,154.816,171.239,155.438,170.818,155.632Zm-33.524-17.774h2a.361.361,0,0,1,0,.721h-2a.361.361,0,0,1,0-.721Zm2.4-5.389h-2.4a.361.361,0,0,1,0-.721h2.4a.361.361,0,1,1,0,.721Z" fill="#ffaaaa"></path><path d="M71.677,86.994c-.662-3.131-5.132-3.384-6.377-.517a3.143,3.143,0,0,0,.984,4.041C69.1,92.728,72.3,89.93,71.677,86.994Z" fill="#ffd7d7"></path><path d="M51.4,133.137c-3.652-.209-5.083,1.923-7.5,4.69-1.609,1.844-17.08,19.706-17.09,19.718a.367.367,0,0,0,.015.516c.164.154-1.285.1,21.935.1.994-5.449,2.012-10.416,3.176-15.871A12.544,12.544,0,0,1,54.65,136.3a12,12,0,0,1,4.084-3.159Zm-2.664,3.044a11.325,11.325,0,0,0-1.889,1.434c-.337.32-.847-.189-.51-.51a10.551,10.551,0,0,1,2.035-1.547.361.361,0,0,1,.364.623Z" fill="#c0c195"></path><path d="M63.251,110.106a35.868,35.868,0,0,1-6.955-3.062.364.364,0,0,1-.166-.407c.072-.184.149-.366.222-.55a.42.42,0,0,0-.233.24c-1.2,3.122-2.413,6.241-3.609,9.365a40.581,40.581,0,0,0-6.275-10.36c-1.27-1.53-2.709-3.282-4.7-3.838-2.112-.589-3.784.573-5.377,2.075a98.408,98.408,0,0,0-13.647,15.185,6.311,6.311,0,0,0-1.125,2.94c-.079,1.774,1.261,3.544,3.092,3.2a6.04,6.04,0,0,0,2.654-1.716c1.583-1.407,3.1-2.891,4.552-4.429q-.765,1.579-1.528,3.161c-.711,1.477-1.393,3.093-.981,4.759.334,1.35,1.76,2.92,3.239,2a6.077,6.077,0,0,0,1.586-1.811,43.377,43.377,0,0,0,3.467-6.3c-.043,2.964-.234,5.308.565,7.984.3,1.511,1.765,2.683,3.2,1.962a2.948,2.948,0,0,0,1.259-1.957c.449-1.579.268-1.744.941-7.577,1.191,1.757,2.414,3.493,3.575,5.27,1.491,2.284,3.383,5.354,6.094,5.2,2.275-.128,3.892-2.123,4.926-3.95a36.415,36.415,0,0,0,3.3-8.357c.724-2.638,1.382-5.292,2-7.957q.045-.534.091-1.068A.3.3,0,0,1,63.251,110.106ZM54.9,123.436a33.2,33.2,0,0,0-2.124-5.3c-.209-.414.413-.778.622-.364a34.291,34.291,0,0,1,2.2,5.469C55.734,123.689,55.037,123.878,54.9,123.436Zm-16.726-6.674a33.038,33.038,0,0,1-3.923-5.993c-.215-.412.409-.776.622-.364a30.9,30.9,0,0,0,4.2,6.286c.506.573,1.246,1.439,2.105,1.388.91-.125,1.191-1.2.89-2.05a69.961,69.961,0,0,0-3.56-9.218c-.193-.419.429-.785.623-.364a88.913,88.913,0,0,1,3.418,8.618c.32,1.053.624,2.2-.162,3.135a1.7,1.7,0,0,1-1.745.536A5.393,5.393,0,0,1,38.176,116.762Z" fill="#ffd7d7"></path><path d="M87.647,123.33c-2.41-1.854-10.252-13.455-11.762-15.918a.358.358,0,0,1,.057-.437c5.98-5.273,5.59-4.963,5.752-5a10.214,10.214,0,0,0-5.152-3.925,23.27,23.27,0,0,1-1.244,2.094c-.871,1.264-2.042,2.49-3.686,2.558a2.348,2.348,0,0,1-1.946-.843c-.556-.694-.264-1.487.014-2.241.306-.829.737-1.84,1.077-2.591-.77-.042-1.539-.07-2.388-.076-4.171-.029-8.348,1.383-10.287,5.015-.141.264-.262.539-.382.814a1.378,1.378,0,0,0,.672.258c2.223.24,3.037-3.469,5.459-3.756a2.543,2.543,0,0,1,2.829,2.426,9.284,9.284,0,0,1-.26,1.58c-.1.7-.049,1.886.876,1.9s1.667-.884,2.109-1.588c.246-.393.866-.033.623.364a5.315,5.315,0,0,1-1.078,1.275,2.337,2.337,0,0,1-2.2.573c-.96-.353-1.159-1.529-1.06-2.429a15.724,15.724,0,0,0,.274-1.6,1.827,1.827,0,0,0-2.951-1.406,19.008,19.008,0,0,0-2.212,2.332,2.848,2.848,0,0,1-3.363.744c-.579,1.4-1.2,2.97-1.284,3.178a.364.364,0,0,0,.166.407,35.916,35.916,0,0,0,6.955,3.062.3.3,0,0,0,.159.005c-.485,5.43-1.2,16.509-1.04,21.992,2.362-.286,13.219-.365,26.634-.318a.361.361,0,0,1,.347.265C89.442,132.389,89.275,131.825,87.647,123.33Z" fill="#ffaaaa"></path><path d="M101.169,112.159c-.444-4.428-2.467-8.411-4.448-12.407A51.741,51.741,0,0,0,87.08,85.726a20,20,0,0,0-8.605-5.657c-.955-.27-2.281-.509-3.034.343a2.237,2.237,0,0,0-.346,2.059A3.787,3.787,0,0,1,77.421,83.8a2.189,2.189,0,0,1,1.9-.536,5.345,5.345,0,0,1,2.254,1.211A26.118,26.118,0,0,1,87.1,90.21c.269.38-.356.74-.622.364a25.361,25.361,0,0,0-6.454-6.291,1.717,1.717,0,0,0-2.172.111c.994,1.572,1.043,3.725.891,5.588a11.875,11.875,0,0,1,4.127,3.032,1.431,1.431,0,0,1,.536,1.076c-.094.885-1.075,1.016-1.937.77-.436-.091-.868-.2-1.312-.25a1.845,1.845,0,0,0-2.084,1.157,2.424,2.424,0,0,0,.9,2.566,10.632,10.632,0,0,0,3.036,1.285,4.385,4.385,0,0,1,2.508,2.448,26.764,26.764,0,0,1,2.086,5.346c-.515-.629-1.044-1.248-1.592-1.851-3.189-3.5-2.943-3.71-3.32-3.583-.161.033.252-.3-5.752,5a.358.358,0,0,0-.057.437c1.7,2.784,8.11,12.117,10.863,15.059a4.9,4.9,0,0,0,2.185,1.549C95.849,127.154,102.045,120.905,101.169,112.159Zm-11.088,6.122c-.681-2.291-1.338-4.589-1.938-6.9a.361.361,0,0,1,.695-.192c.681,2.29,1.338,4.588,1.938,6.9a.361.361,0,0,1-.695.192Z" fill="#ffd7d7"></path><path d="M39.129,106.447c-.194-.421-.816-.055-.623.364a70.409,70.409,0,0,1,3.56,9.218c.3.853.024,1.924-.89,2.05-.859.051-1.6-.815-2.105-1.388a30.9,30.9,0,0,1-4.2-6.286c-.213-.412-.837-.048-.622.364a33.038,33.038,0,0,0,3.923,5.993,5.393,5.393,0,0,0,2.464,1.974,1.7,1.7,0,0,0,1.745-.536c.786-.934.482-2.082.162-3.135A89.018,89.018,0,0,0,39.129,106.447Z" fill="#ffd7d7"></path><path d="M88.727,132.507c-2.454.006-20.873.156-23.448.162a12.939,12.939,0,0,0-6.459,1.217,11.315,11.315,0,0,0-4.472,4.04c-1.335,2.1-1.727,4.553-2.247,6.948-1.219,5.615-2.25,11.268-3.27,16.922h19.3c-.186-1.393-2.018-16.479-2.2-18.02a.363.363,0,0,1,.361-.361c.108,0,17.769-.11,20.75-.123a3.288,3.288,0,0,0,3.174-2.433,7.262,7.262,0,0,0-.236-3.081A49.649,49.649,0,0,0,88.727,132.507Zm-32.37,5.333a22.708,22.708,0,0,0,2.278-1.959c.332-.325.842.185.51.51a24.158,24.158,0,0,1-2.424,2.072C56.349,138.741,55.99,138.115,56.357,137.84Z" fill="#c0c195"></path><path d="M89,131.785c-17.054-.041-25.377.173-26.634.318a11.84,11.84,0,0,0-7.72,4.193,12.535,12.535,0,0,0-2.712,5.993c-1.869,8.758-2.655,12.937-3.885,19.772-.028.3.148.463.348.456H68.533a.366.366,0,0,0,.359-.375c0-.048-1.237-9.746-2.2-18.008,1.135-.007,19.731-.122,20.285-.121a3.972,3.972,0,0,0,4.012-4.571,53.653,53.653,0,0,0-1.638-7.392A.361.361,0,0,0,89,131.785Zm1.21,9.074a3.288,3.288,0,0,1-3.174,2.433l-20.75.123a.363.363,0,0,0-.361.361c.179,1.541,2.013,16.627,2.2,18.02h-19.3c1.02-5.654,2.051-11.307,3.27-16.922.52-2.395.912-4.846,2.247-6.948a11.315,11.315,0,0,1,4.472-4.04,12.936,12.936,0,0,1,6.459-1.217c2.574-.006,20.994-.156,23.448-.162a49.761,49.761,0,0,1,1.251,5.271A7.263,7.263,0,0,1,90.214,140.859Z" fill="#ffffff"></path><path d="M5.342,130.756a.365.365,0,0,0,.36.361h9.8a.361.361,0,0,0,0-.721H6.058c-.015-4.614-.2-9.224-.277-13.838a.361.361,0,0,0-.721,0C4.979,121.292,5.307,126.022,5.342,130.756Z" fill="#000000"></path><path d="M15.751,90.245c-4.5,11.45-9.14,21.612-10.574,24.431-.229.449-.288-.175,8.354,9.843.78.9,1.563,1.807,2.313,2.736a.361.361,0,0,0,.615-.255V90.341A.363.363,0,0,0,15.751,90.245Z" fill="#6596e1"></path><path d="M80.025,84.283a25.211,25.211,0,0,1,6.454,6.291c.266.376.891.016.622-.364a26.14,26.14,0,0,0-5.527-5.735,5.345,5.345,0,0,0-2.254-1.211,2.189,2.189,0,0,0-1.9.536,4.918,4.918,0,0,1,.432.594A1.717,1.717,0,0,1,80.025,84.283Z" fill="#ffd7d7"></path><path d="M19.808,96.754a66.55,66.55,0,0,0,5.279-5.088c.316-.34-.193-.851-.51-.51A66.379,66.379,0,0,1,19.3,96.244C18.946,96.548,19.458,97.056,19.808,96.754Z" fill="#000000"></path><path d="M20.55,99.848a71.493,71.493,0,0,0,6.859-2.864c.418-.2.053-.823-.364-.623a69.655,69.655,0,0,1-6.687,2.792C19.924,99.308,20.111,100.005,20.55,99.848Z" fill="#000000"></path><path d="M6.093,164.41V133.821h37.8a.361.361,0,0,0,0-.721H5.732a.365.365,0,0,0-.36.36v30.95a.361.361,0,0,0,.721,0Z" fill="#000000"></path><path d="M49.753,163.887a38.849,38.849,0,0,0-34.423-.007.31.31,0,0,0-.164.42.326.326,0,0,0,.332.259H49.571A.364.364,0,0,0,49.753,163.887Z" fill="#000000"></path><path d="M72.35,169.385a38.9,38.9,0,0,0-34.423-.006.306.306,0,0,0-.163.419.325.325,0,0,0,.331.259H72.168A.364.364,0,0,0,72.35,169.385Z" fill="#000000"></path><path d="M115.546,146.947l-3.294,4.514c-.274.375.351.736.622.364.961-1.316,3.157-4.325,3.294-4.514C116.442,146.936,115.817,146.576,115.546,146.947Z" fill="#000000"></path><path d="M181.853,145.309a.361.361,0,0,0-.364.623c1.453.9,5.016,3.018,5.016,3.018a.361.361,0,0,0,.364-.622C185.837,147.692,181.917,145.346,181.853,145.309Z" fill="#000000"></path><path d="M194.6,97.616l-4.228.363c-.459.039-.463.761,0,.721l4.228-.363C195.056,98.3,195.06,97.576,194.6,97.616Z" fill="#000000"></path><path d="M180.455,48.271l3.876-3.341c.352-.3-.16-.811-.51-.51l-3.876,3.341C179.593,48.065,180.105,48.573,180.455,48.271Z" fill="#000000"></path><path d="M153.472,30.107q-1.085,2.231-2.168,4.462c-.2.416.419.782.622.364q1.085-2.23,2.168-4.462C154.3,30.055,153.675,29.689,153.472,30.107Z" fill="#000000"></path><path d="M118.473,34.933l3.425,5.082c.258.383.883.022.623-.364L119.1,34.569C118.838,34.186,118.213,34.547,118.473,34.933Z" fill="#000000"></path><path d="M144.352,103.72c-1.536-.544-2.7-.091-4.711.172a7.145,7.145,0,0,0-2.3.683,1.47,1.47,0,0,0-.405,2.039c.517.773,1.526.652,2.456.6a26.59,26.59,0,0,0,4.675-.679,1.729,1.729,0,0,0,1.278-1.31A1.5,1.5,0,0,0,144.352,103.72Z" fill="#6596e1"></path><path d="M126.423,87.177a1.97,1.97,0,0,0-2.142.572,1.948,1.948,0,1,0,2.142-.572Z" fill="#ffc431"></path><path d="M137.078,86.879a1.974,1.974,0,0,0-2.142.573,1.948,1.948,0,1,0,2.142-.573Z" fill="#ffc431"></path><path d="M131.119,97.147c-.82-.564-1.568.216-1.86.947a5.4,5.4,0,0,0-.141,3.529c.217.736.813,1.819,1.754,1.473a1.772,1.772,0,0,0,.917-1.034,5.267,5.267,0,0,0,.369-2C132.147,99.1,131.985,97.743,131.119,97.147Z" fill="#ffc431"></path><path d="M145.022,55.563a1.048,1.048,0,0,0-1.461.6,3.041,3.041,0,0,0-.116,2.307c.2.552.672,1.159,1.336.977C146.058,59.094,146.176,56.271,145.022,55.563Z" fill="#000000"></path><path d="M156.182,55.563a1.05,1.05,0,0,0-1.462.6,3.045,3.045,0,0,0-.116,2.307c.2.552.673,1.159,1.336.977C157.218,59.094,157.335,56.271,156.182,55.563Z" fill="#000000"></path><path d="M77.421,83.8a3.837,3.837,0,0,0-2.759-1.385,1.4,1.4,0,0,0-1.378,1.127,21.4,21.4,0,0,0-.01,2.59c.014,1.945-.193,2.9.5,3.434.148.113.283.145.286.351a43.833,43.833,0,0,1-1.152,4.536c-.326.891-.979.678-1.626,1.565a27.8,27.8,0,0,0-1.6,3.6c-.278.754-.57,1.547-.014,2.241a2.348,2.348,0,0,0,1.946.843c2.138-.088,3.531-2.139,4.58-4.014a20.519,20.519,0,0,0,2.461-7.759C78.927,88.476,79.028,85.688,77.421,83.8Z" fill="#000000"></path><path d="M151.287,53.676a3.443,3.443,0,1,0,2.276,3.24A3.441,3.441,0,0,0,151.287,53.676Z" fill="#ffaaaa"></path><path d="M58.066,103.721c2.645.333,3.3-2.24,4.923-3.338a1.827,1.827,0,0,1,2.951,1.406,15.724,15.724,0,0,1-.274,1.6c-.1.9.1,2.076,1.06,2.429a2.337,2.337,0,0,0,2.2-.573,5.315,5.315,0,0,0,1.078-1.275c.243-.4-.377-.757-.623-.364-.442.7-1.182,1.605-2.109,1.588s-.976-1.2-.876-1.9a9.284,9.284,0,0,0,.26-1.58,2.544,2.544,0,0,0-2.829-2.426,4.278,4.278,0,0,0-2.579,1.805c-.647.778-1.376,1.78-2.451,1.944a1.375,1.375,0,0,1-1.41-.6,2.56,2.56,0,0,1-.065-1.579c.656-4.362.829-4.727.5-5.605-.567-1.222-2.352-1.776-4.256,0-.822.764-1.507,1.8-2.614,2.173a1.617,1.617,0,0,1-1.553-.185,2.213,2.213,0,0,1-.724-1.249c-.255-1.255.394-2.533.811-3.675a2.259,2.259,0,0,0-.894-3c-1.284-.569-3.381.868-4.293,1.959-.828.991-1.081,1.681-2.021,2.044a1.4,1.4,0,0,1-1.358-.359c-1.839-1.8.871-5.319-1.043-7.027a3.739,3.739,0,0,0-2.631-.74,10.43,10.43,0,0,0-1.421.155c-.456.081-.263.774.192.7a5.138,5.138,0,0,1,2.825.087,1.556,1.556,0,0,1,.89.8,3.537,3.537,0,0,1,.042,2.018,6.177,6.177,0,0,0,.168,3.909,2.206,2.206,0,0,0,2.635,1.126c1.79-.6,1.862-3.078,4.939-3.986a1,1,0,0,1,1.25.4,1.9,1.9,0,0,1,.024,1.733,8.189,8.189,0,0,0-.867,3.713,2.684,2.684,0,0,0,1.782,2.348,3.471,3.471,0,0,0,3.2-1.224,6.673,6.673,0,0,1,2.54-2.043A1.483,1.483,0,0,1,57,95.276a1.714,1.714,0,0,1,.233,1.4c-.576,4.292-.895,4.684-.6,5.813A1.929,1.929,0,0,0,58.066,103.721Z" fill="#000000"></path><path d="M108.674,94.614a8.057,8.057,0,0,1,5.071,3.024c.148.192.492.272.623,0a6.422,6.422,0,0,1,6.79-3.567c.455.074.65-.619.192-.695a7.2,7.2,0,0,0-7.364,3.443,8.723,8.723,0,0,0-5.12-2.9C108.412,93.841,108.216,94.538,108.674,94.614Z" fill="#000000"></path><path d="M170.454,155.009l-2.28,1.053c-.421.194-.055.816.364.623l2.28-1.053C171.239,155.438,170.873,154.816,170.454,155.009Z" fill="#ffaaaa"></path><path d="M139.3,137.858h-2a.361.361,0,0,0,0,.721h2a.361.361,0,0,0,0-.721Z" fill="#ffaaaa"></path><path d="M139.7,131.748h-2.4a.361.361,0,0,0,0,.721h2.4a.361.361,0,0,0,0-.721Z" fill="#ffaaaa"></path><path d="M56.721,138.463a24.158,24.158,0,0,0,2.424-2.072c.332-.325-.178-.835-.51-.51a22.708,22.708,0,0,1-2.278,1.959C55.99,138.115,56.349,138.741,56.721,138.463Z" fill="#c0c195"></path><path d="M48.372,135.558a10.551,10.551,0,0,0-2.035,1.547c-.337.321.173.83.51.51a11.325,11.325,0,0,1,1.889-1.434.361.361,0,0,0-.364-.623Z" fill="#c0c195"></path><path d="M163.234,129.1q-.254,2.859-.5,5.717c-.041.463.68.46.721,0q.252-2.858.505-5.717C164,128.638,163.274,128.64,163.234,129.1Z" fill="#c0c195"></path><path d="M90.081,118.281a.361.361,0,0,0,.695-.192c-.6-2.313-1.257-4.611-1.938-6.9a.361.361,0,0,0-.695.192C88.743,113.692,89.4,115.99,90.081,118.281Z" fill="#ffd7d7"></path><path d="M52.778,118.139a33.2,33.2,0,0,1,2.124,5.3c.135.442.832.253.7-.192a34.291,34.291,0,0,0-2.2-5.469C53.191,117.361,52.569,117.725,52.778,118.139Z" fill="#ffd7d7"></path></g><g><path d="M184.139,71.2a35.722,35.722,0,0,0-5.1-11.263c-5.575-8.516-13.842-15.081-23.659-17.461C142.857,39.516,130.1,41.984,119.9,50.7c-1.708-1.033-8.235-5.055-9.791-6.032,1.536-6.843,1.346-5.878,1.47-6.616.6-2.647-1.524-4.266-3.069-3.181a7.215,7.215,0,0,0-2.158,3.421c-.57,1.491-1.045,3.023-1.513,4.55-2.733-.065-5.485.048-8.21.238a7.657,7.657,0,0,0-3.664.95A2.555,2.555,0,0,0,91.7,46.866a3.211,3.211,0,0,0,1.51,1.816A2.432,2.432,0,0,0,91.589,52.8a4.267,4.267,0,0,0,1.206,1,2.7,2.7,0,0,0-2.215,1.7c-.486,1.452.758,2.722,1.958,3.3.7.336,1.441.565,2.167.836,5.335,1.991,7.193,2.763,15.657,5.6a61.834,61.834,0,0,0-2.2,8.7c-6.181,4.11-12.586,7.866-18.85,11.844a.427.427,0,0,0,.1.768c5.822,2.335,11.779,5.594,16.521,7.659-1.049,5.091-1.994,7.305-2.781,13.365l0,.014c-.029.17-.1.9-.116,1.044a50.669,50.669,0,0,0-.162,7.765c.278,4.773,1.547,8.889,5.529,11.448a16.378,16.378,0,0,0,3.1,8.9c3.643,5.1,8.755,8.018,14.949,9.359,3.069.764,6.19,1.317,9.317,1.788,7.036,1.061,5.658.511,6.452,1.15,6.619,5.24,16.267,10.46,24.716,11.151a8.025,8.025,0,0,0,5.95-1.75,12.5,12.5,0,0,0,3.3-4.6,18.973,18.973,0,0,0,1.259-3.953c.479-2.273.831-4.579,1.1-6.894,3.385-3.346,5.349-8.085,6.5-12.613,1.663-6.563,1.555-13.4,1.857-20.115.325-7.2.354-9.118.346-9.553a.416.416,0,0,0,.025-.082A89.292,89.292,0,0,0,184.139,71.2ZM126.623,46.985a39.495,39.495,0,0,1,32.1-2.646A39.966,39.966,0,0,1,177.862,59.69c4.343,6.133,5.963,12.127,7.384,20.336q.446,2.582.762,5.191a29.927,29.927,0,0,0-3.3-7.743c-9.468-16.073-26.117-18.656-35.6-11.533-8.83-4.476-17.995-9.669-26.43-14.772A41.444,41.444,0,0,1,126.623,46.985Zm-34.2,5.494a1.913,1.913,0,0,1-.584-1.934c.416-1.114,2.015-1.22,3.007-1.082.587.168,1.178.317,1.771.455a47.639,47.639,0,0,1,6.195,2.414,3.6,3.6,0,0,1,1.215.9,1.513,1.513,0,0,1-1.08,2.407,5.846,5.846,0,0,1-2.008-.108,25.638,25.638,0,0,1-6.433-2.116.419.419,0,0,0-.485.075A5.323,5.323,0,0,1,92.426,52.479Zm5.809,7.3a.393.393,0,0,0-.408.135c-.1-.038-4.452-1.658-4.674-1.757a3.2,3.2,0,0,1-1.667-1.373,1.354,1.354,0,0,1,.462-1.77,3.773,3.773,0,0,1,2.348-.523.4.4,0,0,0,.276-.124c3.02,1.411,3.572,1.185,5.764,2.137a2.887,2.887,0,0,1,1.81,1.8,1.457,1.457,0,0,1-.476,1.482c-.028.027-.057.052-.086.078C100.955,60.422,99.043,60.022,98.235,59.782Zm2.445,1.2c.039,0,.079,0,.118,0,2.136-.112,3.176-2.764,1.134-4.474-.184-.154-.144-.124,0,0a4.825,4.825,0,0,0,1.139-.035,2.411,2.411,0,0,0,2.043-2.953c-.391-1.3-1.783-1.891-2.913-2.4-.371-.166-.745-.325-1.121-.481,1.663.2,4.3.143,5.036-1.373a2.059,2.059,0,0,0-1.233-2.638,11.147,11.147,0,0,0-3.694-1.092c-1.447-.2-2.9-.362-4.359-.42-.541-.025-.54.817,0,.842a24.73,24.73,0,0,1,6.955,1.086c2.791.984,2.144,3.28-2.613,2.763a34.872,34.872,0,0,1-6.1-1.156c-.972-.38-2.158-.845-2.537-1.919-.344-.975.385-1.752,1.2-2.169a8.291,8.291,0,0,1,3.331-.666c4.078-.226,5.322-.229,8.085-.207a.422.422,0,0,0,.406-.309c.4-1.313.853-2.609,1.27-3.918.389-1.222,1.54-4.212,2.826-4.1a1.34,1.34,0,0,1,1.031.869c.356,1.04.237,1-1.453,8.53a.435.435,0,0,0,.193.475c9.3,5.838,16.594,10.157,22.811,13.669V71.569C126.2,69.522,105.113,62.591,100.68,60.979ZM90.428,86.068c5.949-3.757,12.127-7.408,17.953-11.273.753-.5.442-.234.948-2.583.38-1.772.965-4,1.837-6.707,17.061,5.7,22.219,7.178,31.6,10.692a42.011,42.011,0,0,0-3.063,19.9,17.439,17.439,0,0,0-2.761-.571c.006-.178.051-2.686.069-3.762a.421.421,0,0,0-.842,0s-.056,3.387-.065,3.672c-1.917-.174-4.263-.212-6.192-.237a2.266,2.266,0,0,0-1.72-2.9,8.622,8.622,0,0,0-2.488-.146,19.077,19.077,0,0,0-2.572.167c-.142-3.392-.3-6.8-.621-10.177a2.372,2.372,0,0,0-4.4-1.108,5.664,5.664,0,0,0-.476,1.8,6.7,6.7,0,0,0-.861-1.822,2.237,2.237,0,0,0-3.288-.848c-.956.692-.91,1.952-.964,3.018-.024.463-.033.927-.036,1.391a7.272,7.272,0,0,0-2.435-3.123,2.105,2.105,0,0,0-2.638.484,3.957,3.957,0,0,0-.827,3.037,27.476,27.476,0,0,1-.5,8.384C101.676,91.359,94.773,87.886,90.428,86.068Zm17.129,1.239c-.01-1.1-.216-2.217-.117-3.312.072-.806.524-1.848,1.439-1.97,1.054-.139,1.83,1.144,2.3,1.9a11.236,11.236,0,0,1,1.36,3.267.423.423,0,0,0,.827-.112,42.906,42.906,0,0,1,.051-4.627,2.572,2.572,0,0,1,.314-1.328,1.287,1.287,0,0,1,1.819-.253,4.675,4.675,0,0,1,1.195,1.909,14.52,14.52,0,0,1,.65,3.908.421.421,0,0,0,.841,0A27.327,27.327,0,0,1,118.7,81.9c.352-1.85,3.117-1.465,3.008.717.119,1.584.534,8.384.608,10.2a.427.427,0,0,0,.435.419,14.223,14.223,0,0,1,2.3-.219,20.394,20.394,0,0,1,2.71.046c1.964.389,2.162,2.757-.808,3.262-.291.05-3.688.395-3.788.4a.437.437,0,0,0-.421.421q-.453,4.993-.831,10H104.049C104.961,100.15,107.515,94.271,107.557,87.307Zm20.458,58.3a33.521,33.521,0,0,1-7.67-2.436c-5.493-2.562-10.673-8.373-11.076-14.821a11.123,11.123,0,0,0,14.768-4.208.421.421,0,0,0-.727-.425c-4.543,7.638-16.347,6.177-18.836-2.537-1.128-3.769-.942-9.333-.522-13.193h17.9q-.206,2.791-.392,5.584c-.036.54.806.538.841,0,.722-10.958.786-10.881,1.254-16.041.514-.052,1.027-.108,1.541-.163,1.737-.189,3.075-.128,4.3-1.326,1.9.026,4.67.056,6.65.23a5.121,5.121,0,0,1-.1.6,2.684,2.684,0,0,1-2.878,2.1c-.539.026-.542.867,0,.841a3.542,3.542,0,0,0,3.813-3.442c2.432.378,4.636.959,6.413,2.609a16.785,16.785,0,0,0-1.055,3.077c-.129.526.682.75.811.224a16.879,16.879,0,0,1,.876-2.676c.628.648,1.216,1.336,1.78,2.046-.094.99.6,5.992,1.549,15.045q-1.94.4-3.856.91c-.632-1.7-1.872-3.979-3.68-3.994a2.97,2.97,0,0,0-2.83,2.109c-.49,2.045.131,6.336.308,10.113-8.065.361-7.888.328-8.805.475-1.156.224-2.317.99-2.2,2.316.16,1.909,2.47,3.13,4.335,3.616a6.828,6.828,0,0,0-3.771,2.113,2.048,2.048,0,0,0,.284,2.914c1.41,1.164,3.707,1.07,5.528,1.162a20.387,20.387,0,0,0-3.262,1.048,4.276,4.276,0,0,0-2.254,1.738,2.481,2.481,0,0,0,1.131,3.047,7.33,7.33,0,0,0,4.746.855,31.356,31.356,0,0,0,4.51-.672c1.03,1.135,2.108,2.232,3.245,3.263C136.483,147.193,132.125,146.544,128.015,145.609Zm28.614-43.019a1.531,1.531,0,0,0-.08,2.491,3.817,3.817,0,0,0,2.256.251l.009.019a43.148,43.148,0,0,1,3.782,9.832,64.225,64.225,0,0,0-14.515,1.35c-1.362-12.928-1.542-13.282-1.552-14.768a3.749,3.749,0,0,1,2.39-3.449,5.357,5.357,0,0,1,4.136-.216,7.89,7.89,0,0,1,3.351,2.91,14.054,14.054,0,0,1,.893,1.283A4.552,4.552,0,0,0,156.629,102.59Zm3.641-.047a11.661,11.661,0,0,1,1.786-.216,2.353,2.353,0,0,1,1.612.367c.4.366.189.822-.232,1.046a5.581,5.581,0,0,1-1.623.4,25.791,25.791,0,0,1-3.781.388c-.43.012-1.019.032-1.182-.366a.667.667,0,0,1,.2-.846A10.01,10.01,0,0,1,160.27,102.543Zm16.618,45.809a16.267,16.267,0,0,1-3.568,8.5c-2.941,3.456-7.235,2.731-11.626,1.534a54.867,54.867,0,0,1-17.78-9.1,40.12,40.12,0,0,1-6.035-5.593c-.339-.338-.426.118-4.1.511a9.372,9.372,0,0,1-4.362-.235c-1.188-.359-2.272-1.7-1.435-2.643,1.226-1.377,5.246-2.287,7.058-2.575a.424.424,0,0,0,0-.811c-2.479-.216-4.078.013-6.75-.892-1.777-.723-1.76-2.507,1.544-3.714a9.776,9.776,0,0,1,3.781-.579c.549.023.529-.789,0-.841-2.176-.154-5.914-.957-6.532-3.049-.335-1.133.78-1.637,1.694-1.768.745-.107,8.691-.432,8.862-.437a.429.429,0,0,0,.421-.42c-.126-3.092-.633-6.2-.493-9.3-.077-2.256,2.22-3.187,3.372-1.872a7.941,7.941,0,0,1,1.287,1.92c2.061,4.543.779,7.707,6.194,12.765a69.482,69.482,0,0,0,13.64,10.169.424.424,0,0,0,.578-.158c.095-.169.352-2.635.371-2.828,3.347-.038,13.506-.073,15.239-.07A91.159,91.159,0,0,1,176.888,148.352Zm1.413-12.324c-1.751,0-12.2.035-15.668.074a.431.431,0,0,0-.421.42c-.073.787-.165,1.571-.27,2.354a67.725,67.725,0,0,1-12.553-9.358c-4.955-4.51-4.421-7.024-5.718-11.116A70.308,70.308,0,0,1,159,116.03a33.562,33.562,0,0,1,8.691.573,12.408,12.408,0,0,1,3.957,1.595c3.436,2.226,5.633,6.337,6.319,10.3A30.8,30.8,0,0,1,178.3,136.028Zm7.882-28.475c-.484,10.794-.337,13.771-1.36,19.874-.909,4.987-2.689,10.294-6.116,14.163.525-5.237.786-9.048.068-13.312-.912-4.792-3.633-9.43-8.1-11.543.464-6.311,1.8-24.441,1.8-24.441.04-.54-.8-.537-.841,0-.472,6.427-1.653,22.488-1.771,24.092a20.28,20.28,0,0,0-6.372-1.149,46.1,46.1,0,0,0-3.774-9.978,21.922,21.922,0,0,0,3.689-.6,1.79,1.79,0,0,0,1.322-1.367,1.57,1.57,0,0,0-1.033-1.56c-1.453-.507-2.523-.167-4.751.17-.275.041-.547.094-.817.154a9.58,9.58,0,0,0-.628-.963,10.319,10.319,0,0,0-3.269-3.359,6.237,6.237,0,0,0-7.417,1.056,4.467,4.467,0,0,0-.907,1.807c-.542-.647-1-1.19-1.585-1.8a9.614,9.614,0,0,1,4.327-4.232,6.587,6.587,0,0,1,4.34-.4,7.147,7.147,0,0,1,4.448,2.875,18.136,18.136,0,0,1,2.315,4.118.431.431,0,0,0,.517.294.42.42,0,0,0,.294-.518,19.784,19.784,0,0,0-2.127-3.952,8.154,8.154,0,0,0-4.437-3.4c-3.386-1.137-6.433-.073-8.837,2.567a10.573,10.573,0,0,0-1.464,2.049,9.948,9.948,0,0,0-3.127-1.8,41.416,41.416,0,0,1,3.113-20.23.432.432,0,0,0-.171-.585c-.54-.29-9.078-3.262-10.371-3.7V59.409c4.548,2.555,9.141,5.03,13.8,7.385a.442.442,0,0,0,.509-.066c5.293-4.215,12.612-4.485,18.83-2.407,6.435,2.151,11.564,7,15.147,12.661a28.421,28.421,0,0,1,4.175,10.265C186.715,93.955,186.487,100.788,186.183,107.553Z" fill="#000000"></path><path d="M150.081,52.064c1.527.647,2.694,1.684,4.048,1.833a.388.388,0,0,0,.367-.234,13.1,13.1,0,0,0,.062-2.284,7.424,7.424,0,0,1,.62,2.454.43.43,0,0,0,.42.42.42.42,0,0,0,.421-.42c-.163-1.316-.34-2.832-1.464-3.7a.284.284,0,0,0-.068-.027c-.2-3.379-2.436-4.848-4.251-4.582a4.886,4.886,0,0,1-.833.126c-.849-.078-1.085-.615-2.379-.787a3.073,3.073,0,0,0-3.195,2.934,3.664,3.664,0,0,0,1.709,3.3,3.725,3.725,0,0,0-1.1,2.732c.018.539.86.542.841,0a2.906,2.906,0,0,1,1.051-2.326c.16-.132.21-.166,0,0C148.025,52.155,148.5,51.593,150.081,52.064Zm-4.587-5.873a2.132,2.132,0,0,1,2.479-.16,3.274,3.274,0,0,0,1.483.462,8.7,8.7,0,0,1,1.519-.142,3.051,3.051,0,0,1,2.138,1.643,6.173,6.173,0,0,1,.575,2.644,22.556,22.556,0,0,1,.032,2.326c-1.65-.627-1.938-1.225-3.74-1.816-1.094-.273-2.232.023-3.3-.389C144.5,49.917,144.045,47.4,145.494,46.191Z" fill="#000000"></path><path d="M133.8,86.523a12.85,12.85,0,0,0-.627-3.287,2.278,2.278,0,0,0-2.087-1.505,2.574,2.574,0,0,0-2.131,1.741,11.347,11.347,0,0,0-.546,3.162,24.337,24.337,0,0,0,.052,3.917,1.644,1.644,0,0,0,1.6,1.222,9.775,9.775,0,0,0,2.1-.044,2.043,2.043,0,0,0,1.888-1.155,3.559,3.559,0,0,0,.074-1.76C134.022,88.05,133.911,87.287,133.8,86.523Zm-4.154-2.494c.58-1.846,2.341-2.021,2.9-.067a14.811,14.811,0,0,1,.379,2.252h-3.638A9.939,9.939,0,0,1,129.649,84.029Zm3.7,5.869c-.014.253-.142.672-.408.774a7.133,7.133,0,0,1-3.031.244.755.755,0,0,1-.63-.562,24.744,24.744,0,0,1-.047-3.3h3.8A14.974,14.974,0,0,1,133.35,89.9Z" fill="#000000"></path><path d="M149.577,100.36a3.341,3.341,0,0,0-1.176,5.5,3.232,3.232,0,0,0,4.083.141,3.27,3.27,0,0,0,.924-3.967A3.209,3.209,0,0,0,149.577,100.36Zm2.775,4.6a2.383,2.383,0,0,1-3.354.31,2.644,2.644,0,0,1-.718-1.692,2.289,2.289,0,0,1,4-1.727A2.427,2.427,0,0,1,152.352,104.959Z" fill="#000000"></path><path d="M61.321,84.209c.018.723.82,1.01,1.371,1.27,2.7,1.271,2.084,2.025,2.248,3.082a3.71,3.71,0,0,0,3.627,2.811A3.627,3.627,0,0,0,71.737,87c-.046-5.62-8.34-8.679-10.349-6.314a1.838,1.838,0,0,0-.321,1.881,5.765,5.765,0,0,0,.627.832A1.008,1.008,0,0,0,61.321,84.209Zm5.947,6.006a2.708,2.708,0,0,1-1.437-1.52,2.859,2.859,0,0,1,.229-2.034,2.736,2.736,0,0,1,4.185-.743C72.306,88.059,69.758,91.616,67.268,90.215Zm-5.289-8.928c.622-.868,2.091-.6,2.977-.4a8,8,0,0,1,5.507,4.138,3.614,3.614,0,0,0-5.176,1.324,6.411,6.411,0,0,0-2.706-1.858c-.889-.451-.136-.513-.036-.571a.393.393,0,0,0,.169-.573c-.238-.317-.48-.635-.736-.939A.87.87,0,0,1,61.979,81.287Z" fill="#000000"></path><path d="M101.229,112.159c-.442-4.405-2.476-8.521-4.456-12.437-3.562-7.331-10.45-17.44-18.281-19.711-.981-.271-2.323-.51-3.094.358a2.256,2.256,0,0,0-.379,2.032,3,3,0,0,0-.357-.046,1.447,1.447,0,0,0-1.436,1.171,6.8,6.8,0,0,0-.021,1.26c.026,3.432-.191,4.266.542,4.832.139.1.245.12.256.3a41.069,41.069,0,0,1-1.15,4.52,1.415,1.415,0,0,1-.714.78,2.979,2.979,0,0,0-1.419,1.751c-.73-.039-1.472-.067-2.351-.074-4.551-.027-8.833,1.553-10.693,5.8a1.02,1.02,0,0,1-.234-.285,2.51,2.51,0,0,1-.058-1.533c.21-1.394.448-2.787.627-4.185.425-2.3-2.014-3.78-4.483-1.483-.812.755-1.492,1.783-2.587,2.157a1.562,1.562,0,0,1-1.494-.169,2.156,2.156,0,0,1-.709-1.223c-.251-1.242.4-2.514.81-3.643a2.312,2.312,0,0,0-.935-3.076c-.967-.423-2.236.255-3.032.793-1.825,1.22-2,2.7-3.314,3.21a1.334,1.334,0,0,1-1.3-.343c-1.844-1.769.921-5.274-1.044-7.028a3.793,3.793,0,0,0-2.673-.757,10.2,10.2,0,0,0-1.437.157c-.533.091-.307.9.224.812a5.277,5.277,0,0,1,2.793.088,1.545,1.545,0,0,1,.855.767,3.5,3.5,0,0,1,.035,1.972c-.21,1.31-.493,2.722.174,3.956a2.25,2.25,0,0,0,2.7,1.153c1.808-.606,1.879-3.082,4.939-3.986a.945.945,0,0,1,1.182.372,1.847,1.847,0,0,1,.018,1.686,8.235,8.235,0,0,0-.869,3.73,2.748,2.748,0,0,0,1.826,2.406A3.53,3.53,0,0,0,52.95,97a6.621,6.621,0,0,1,2.513-2.028,1.418,1.418,0,0,1,1.493.344,1.656,1.656,0,0,1,.218,1.34c-.555,4.185-.9,4.694-.6,5.845a1.913,1.913,0,0,0,.766.982c-.4.946-.479,1.152-1.031,2.553a.494.494,0,0,0-.246.272q-1.787,4.6-3.552,9.219a40.411,40.411,0,0,0-6.231-10.241C45,103.747,43.551,102,41.546,101.436c-2.145-.589-3.823.569-5.436,2.09a98.285,98.285,0,0,0-13.656,15.2,6.36,6.36,0,0,0-1.133,2.97c-.08,1.837,1.315,3.609,3.168,3.257a6.1,6.1,0,0,0,2.681-1.732c1.491-1.325,2.915-2.723,4.294-4.165L30.1,121.879c-.718,1.493-1.4,3.122-.987,4.8.344,1.388,1.814,2.978,3.327,2.04a6.141,6.141,0,0,0,1.608-1.833,42,42,0,0,0,3.35-6.056c-.053,2.855-.2,5.118.572,7.725.309,1.526,1.788,2.741,3.288,2a3.084,3.084,0,0,0,1.285-1.993c.458-1.717.285-1.851.925-7.425,1.161,1.711,2.351,3.4,3.482,5.132,1.5,2.3,3.4,5.386,6.146,5.231,2.3-.129,3.9-2.148,4.978-3.98a36.6,36.6,0,0,0,3.309-8.371c.568-1.957,1.78-6.829,1.81-7.2-.408,5.363-1.038,14.673-.885,20.1a11.029,11.029,0,0,0-3.585,1.028H51.4a7.194,7.194,0,0,0-3.044.491,7.95,7.95,0,0,0-2.234,1.676c-1.582,1.668-18.74,21.582-19.353,22.258a.427.427,0,0,0,.3.718H48.69c-.1.549-.564,3.1-.7,3.825-.032.35.175.54.406.532H68.533a.429.429,0,0,0,.419-.437c0-.034-.914-7.077-2.193-17.947l20.218-.12a4.038,4.038,0,0,0,4.07-4.647,56.65,56.65,0,0,0-1.638-7.392c.122.45-.176-.751-1.675-8.569a7.11,7.11,0,0,0,1.168.607C96.467,127.273,102.055,120.408,101.229,112.159ZM71.291,97.731a3.334,3.334,0,0,1,1.184-1.739,2.327,2.327,0,0,0,1.28-1.595c.349-1.1.729-2.655.962-3.748a1.857,1.857,0,0,0,.032-1.216c-.153-.306-.563-.4-.649-.719a33.772,33.772,0,0,1-.053-3.817c0-.556-.238-1.687.615-1.7a3.435,3.435,0,0,1,2.954,2.478,11.034,11.034,0,0,1,.34,4.331,19.854,19.854,0,0,1-2.536,8.481,7.408,7.408,0,0,1-2.82,3.2c-.853.4-2.144.31-2.457-.572a1.888,1.888,0,0,1,.213-1.076Q70.779,98.868,71.291,97.731Zm7.642.645c1.488,1.132,3.268.93,4.519,2.224a19.672,19.672,0,0,1,3,6.537c-.455-.549-.919-1.09-1.4-1.618-2.975-3.271-2.908-3.708-3.334-3.607a10.233,10.233,0,0,0-5.095-3.892A21.2,21.2,0,0,0,78.8,90.062a11.843,11.843,0,0,1,4.031,3c.266.3.568.6.518,1.033a.888.888,0,0,1-.706.78,9.183,9.183,0,0,1-2.483-.32,1.9,1.9,0,0,0-2.142,1.2A2.48,2.48,0,0,0,78.933,98.376ZM53.728,130.554a3.423,3.423,0,0,1-3.4-1.161c-1.635-1.728-1.847-2.163-6.792-9.64a.425.425,0,0,0-.783.213c-.1.86-.535,5.415-.709,6.823a6.27,6.27,0,0,1-.8,2.681c-.705.993-2.154.292-2.4-.921-1.045-3.212-.512-6.192-.613-9.6-.011-.386-.6-.613-.784-.212a43.735,43.735,0,0,1-4.73,8.554c-.38.491-.913,1.068-1.593.79a2.275,2.275,0,0,1-1.158-1.451,6.286,6.286,0,0,1,.855-4.328q1.287-2.681,2.587-5.354c.2-.4-.323-.89-.661-.51a72.884,72.884,0,0,1-7.027,6.922,2.269,2.269,0,0,1-2.374.647c-1.561-.909-1.432-2.907-.472-4.378a61.454,61.454,0,0,1,3.821-5.067,92.769,92.769,0,0,1,11.114-11.387,4.4,4.4,0,0,1,2.576-1.06c1.91-.011,3.426,1.595,4.583,2.928a39.44,39.44,0,0,1,7.14,11.735.425.425,0,0,0,.811,0q1.828-4.751,3.661-9.5a35.543,35.543,0,0,0,6.2,2.728C61.586,115.2,58.8,129.163,53.728,130.554ZM27.985,157.379c.378-.438,17.048-19.662,17.677-20.38,1.133-1.293,2.367-2.723,4.16-3,.811-.1.693-.076,7.4-.076a12.321,12.321,0,0,0-5.347,8.355c-1.141,5.008-2.11,10.054-3.036,15.106ZM89.92,137.794a7.274,7.274,0,0,1,.237,3.049,3.226,3.226,0,0,1-3.117,2.388c-.478,0-20.729.124-20.75.124a.423.423,0,0,0-.421.42c.179,1.541,2.008,16.588,2.19,17.961H48.9c1.015-5.629,2.042-11.256,3.256-16.846.519-2.389.91-4.835,2.241-6.933a11.284,11.284,0,0,1,4.451-4.019,12.845,12.845,0,0,1,6.428-1.208c2.574-.006,20.964-.156,23.4-.163A48.693,48.693,0,0,1,89.92,137.794Zm-1.428-6.067s-24.183.149-25.337.237c-.188-5.918.7-18.986,1.342-25,.052-.489-.689-.544-.827-.112-.246.773-.437,1.564-.624,2.355A34.574,34.574,0,0,1,57,106.548c.358-.92.713-1.846,1.1-2.755,2.647.28,3.333-2.285,4.919-3.358a1.767,1.767,0,0,1,2.86,1.354,15.724,15.724,0,0,1-.274,1.6,2.244,2.244,0,0,0,1.1,2.487,2.4,2.4,0,0,0,2.263-.589A5.2,5.2,0,0,0,70.06,104c.288-.46-.439-.883-.727-.425-.436.7-1.156,1.548-2.057,1.559a.734.734,0,0,1-.567-.249,2.162,2.162,0,0,1-.252-1.578,9.56,9.56,0,0,0,.264-1.6,2.606,2.606,0,0,0-2.89-2.485c-2.443.305-3.28,3.92-5.368,3.759.074-.158.143-.319.22-.476a8.579,8.579,0,0,1,5.123-4.14,17.721,17.721,0,0,1,6.554-.584c-.261.6-.511,1.2-.737,1.82-.285.77-.573,1.578-.009,2.287a2.374,2.374,0,0,0,2,.873c2.138-.055,3.557-2.132,4.608-4a9.139,9.139,0,0,1,4.821,3.635L75.9,106.933a.418.418,0,0,0-.066.509c1.8,2.933,8.141,12.144,10.859,15.057C87.308,125.72,87.868,128.653,88.492,131.727ZM76.747,107.305l4.973-4.385c1.8,2.229,3.806,4.275,5.534,6.564a.422.422,0,0,0,.769-.324c-.956-2.565-2.165-7.88-4.511-9.632a15.179,15.179,0,0,0-3.226-1.323c-.838-.37-1.806-1.152-1.47-2.194.285-.881,1.36-.637,2.037-.487a3.269,3.269,0,0,0,2.576-.09,1.733,1.733,0,0,0,.3-2.609,12.651,12.651,0,0,0-4.874-3.642,8.4,8.4,0,0,0-.928-4.782A1.682,1.682,0,0,1,80,84.335a25.174,25.174,0,0,1,6.432,6.27c.311.438,1.041.018.726-.425A26.173,26.173,0,0,0,81.6,84.423a5.384,5.384,0,0,0-2.268-1.216,2.261,2.261,0,0,0-1.913.511,4.126,4.126,0,0,0-1.448-1.064,2.077,2.077,0,0,1-.113-1.466l.007-.02a.809.809,0,0,1,.34-.389,1.3,1.3,0,0,1,.475-.16,4.438,4.438,0,0,1,1.675.23,15.947,15.947,0,0,1,4.352,2.131c5.356,3.8,10,10.464,12.918,16.348,1.913,3.711,3.886,7.574,4.6,11.7a13.138,13.138,0,0,1-1.777,9.75,7.763,7.763,0,0,1-3.672,2.895,7.583,7.583,0,0,1-5.122-.2C86.374,122.405,78.614,110.191,76.747,107.305Z" fill="#000000"></path><path d="M39.181,106.417c-.226-.492-.952-.065-.726.424a78.8,78.8,0,0,1,3.41,8.678c.754,2.635-.638,3.467-2.751,1.13a30.806,30.806,0,0,1-4.187-6.274c-.254-.478-.981-.054-.726.424a33.075,33.075,0,0,0,3.932,6.006,5.43,5.43,0,0,0,2.491,1.989,1.746,1.746,0,0,0,1.8-.551c.8-.955.505-2.118.177-3.194A89.113,89.113,0,0,0,39.181,106.417Z" fill="#000000"></path><path d="M5.7,131.177h9.8a.421.421,0,0,0,0-.842H6.118c-.018-4.593-.2-9.183-.277-13.777a.421.421,0,0,0-.841,0c-.083,4.734.279,9.464.282,14.2A.427.427,0,0,0,5.7,131.177Z" fill="#000000"></path><path d="M15.805,127.3a.35.35,0,0,0,.482.063.379.379,0,0,0,.232-.363V90.341a.423.423,0,0,0-.826-.111C11.182,101.7,6.572,111.8,5.124,114.645a.454.454,0,0,0,.066.51C8.6,118.936,12.582,123.338,15.805,127.3Zm-.127-34.784v33.335c-3.177-3.786-6.342-7.224-9.694-11.065C9.587,107.269,12.631,100.165,15.678,92.516Z" fill="#000000"></path><path d="M25.13,91.709c.368-.4-.225-.993-.595-.6a66.576,66.576,0,0,1-5.28,5.089c-.41.354.187.946.6.594A66.2,66.2,0,0,0,25.13,91.709Z" fill="#000000"></path><path d="M20.566,99.906a71.679,71.679,0,0,0,6.873-2.87c.488-.235.062-.96-.424-.727A69.469,69.469,0,0,1,20.342,99.1C19.836,99.276,20.054,100.089,20.566,99.906Z" fill="#000000"></path><path d="M5.311,133.46v30.95a.421.421,0,0,0,.842,0V133.881H43.894a.421.421,0,0,0,0-.841H5.732A.427.427,0,0,0,5.311,133.46Z" fill="#000000"></path><path d="M49.784,163.835a38.867,38.867,0,0,0-34.444-.025.36.36,0,0,0-.229.507.389.389,0,0,0,.387.3c15.957.1,34.021,0,34.073,0A.424.424,0,0,0,49.784,163.835Zm-32.328-.076a38.137,38.137,0,0,1,30.254.018C44.428,163.777,20.7,163.782,17.456,163.759Z" fill="#000000"></path><path d="M45.212,166.591a39,39,0,0,0-7.313,2.735.355.355,0,0,0-.191.489.381.381,0,0,0,.387.3H72.168a.424.424,0,0,0,.213-.784A38.663,38.663,0,0,0,45.212,166.591Zm-5.158,2.666a38.133,38.133,0,0,1,30.254.019C34.93,169.276,43.6,169.282,40.054,169.257Z" fill="#000000"></path><path d="M112.926,151.855c.961-1.315,3.294-4.513,3.294-4.513.32-.438-.41-.859-.726-.425-.96,1.316-3.157,4.325-3.294,4.514C111.88,151.869,112.61,152.289,112.926,151.855Z" fill="#000000"></path><path d="M181.883,145.257a.421.421,0,0,0-.425.727L186.475,149a.421.421,0,0,0,.424-.726C185.436,147.4,182.1,145.378,181.883,145.257Z" fill="#000000"></path><path d="M194.6,97.556l-4.227.362c-.536.046-.541.888,0,.842L194.6,98.4C195.132,98.351,195.137,97.509,194.6,97.556Z" fill="#000000"></path><path d="M180.5,48.313l3.875-3.34c.411-.354-.186-.947-.595-.595L179.9,47.719C179.492,48.073,180.089,48.666,180.5,48.313Z" fill="#000000"></path><path d="M151.978,34.963q1.084-2.23,2.168-4.462c.236-.485-.489-.912-.726-.425q-1.084,2.23-2.168,4.463C151.016,35.024,151.742,35.451,151.978,34.963Z" fill="#000000"></path><path d="M122.573,39.621l-3.426-5.082c-.3-.447-1.03-.026-.726.424l3.425,5.082C122.147,40.492,122.876,40.071,122.573,39.621Z" fill="#000000"></path><path d="M137.234,107.014a3.641,3.641,0,0,0,2.161.258,26.6,26.6,0,0,0,4.691-.68,1.792,1.792,0,0,0,1.323-1.368,1.568,1.568,0,0,0-1.034-1.559c-1.583-.553-2.763-.091-4.75.169a7.152,7.152,0,0,0-2.311.689A1.531,1.531,0,0,0,137.234,107.014Zm.5-1.764a10.01,10.01,0,0,1,3.216-.773,11.417,11.417,0,0,1,1.786-.216,2.347,2.347,0,0,1,1.612.367c.4.365.188.822-.232,1.046a5.579,5.579,0,0,1-1.623.4,25.93,25.93,0,0,1-3.781.389c-.43.011-1.019.032-1.182-.367A.665.665,0,0,1,137.739,105.25Z" fill="#000000"></path><path d="M124.462,90.537a2.006,2.006,0,1,0,1.738-3.484,9.557,9.557,0,0,1,.257-2.372,5.608,5.608,0,0,1,1.856-3.259,5.18,5.18,0,0,1,4.6-.531,4.112,4.112,0,0,1,2.629,2.621A9.837,9.837,0,0,1,136,86.758a2,2,0,1,0,.839-.008c-.043-2.5-.551-5.288-3.076-6.428a6.315,6.315,0,0,0-5.37.054,5.9,5.9,0,0,0-2.577,3.463,11,11,0,0,0-.451,3.212A2,2,0,0,0,124.462,90.537Zm13.125-1.824a1.168,1.168,0,1,1-1.168-1.168A1.168,1.168,0,0,1,137.587,88.713Zm-11.822-.871a1.18,1.18,0,0,1,1.167,1.168,1.168,1.168,0,1,1-1.167-1.168Z" fill="#000000"></path><path d="M130.888,103.154c1.118-.408,1.321-2.1,1.33-3.1-.009-.982-.183-2.35-1.069-2.962-1.417-.979-2.908,1.761-2.089,4.544C129.287,102.409,129.912,103.51,130.888,103.154Zm-1.064-4.281c.087-.389.423-1.255.787-1.122a1.3,1.3,0,0,1,.532.782,4.808,4.808,0,0,1,.234,1.524,3.151,3.151,0,0,1-.628,2.209c-.147.132-.24.151-.385.042a1.517,1.517,0,0,1-.44-.727A5.092,5.092,0,0,1,129.824,98.873Z" fill="#000000"></path><path d="M145.052,55.511a1.106,1.106,0,0,0-1.543.62c-.813,1.731.156,3.682,1.288,3.371C146.126,59.138,146.251,56.248,145.052,55.511Zm-.19,2.836c-.215.483-.418.447-.627,0a2.42,2.42,0,0,1-.017-1.756c.2-.474.411-.522.627-.071A2.382,2.382,0,0,1,144.862,58.347Z" fill="#000000"></path><path d="M154.725,56a3.174,3.174,0,0,0-.179,2.485c.63,1.738,2.49,1.268,2.49-1.033a2.248,2.248,0,0,0-.824-1.94A1.106,1.106,0,0,0,154.725,56ZM156,56.52a2.377,2.377,0,0,1,.017,1.827c-.214.482-.418.448-.627,0a2.43,2.43,0,0,1-.017-1.756C155.582,56.115,155.789,56.07,156,56.52Z" fill="#000000"></path><path d="M148.937,60.213a3.5,3.5,0,1,0-2.114-4.48A3.505,3.505,0,0,0,148.937,60.213Zm.255-5.8a2.667,2.667,0,0,1,3.59,2.5,2.7,2.7,0,0,1-1.74,2.5,2.665,2.665,0,0,1-1.85-5Z" fill="#000000"></path><path d="M121.366,93.317a7.3,7.3,0,0,0-7.39,3.4,8.814,8.814,0,0,0-5.095-2.853c-.529-.089-.757.722-.223.811a8.023,8.023,0,0,1,5.035,3c.172.225.576.318.727,0a6.424,6.424,0,0,1,6.723-3.539C121.672,94.221,121.9,93.41,121.366,93.317Z" fill="#000000"></path><path d="M170.424,154.958l-2.28,1.052c-.492.226-.065.952.424.726l2.28-1.052C171.339,155.457,170.913,154.732,170.424,154.958Z" fill="#000000"></path><path d="M139.3,137.8h-2a.421.421,0,0,0,0,.842h2a.421.421,0,0,0,0-.842Z" fill="#000000"></path><path d="M139.7,131.688h-2.4a.421.421,0,0,0,0,.841h2.4a.421.421,0,0,0,0-.841Z" fill="#000000"></path><path d="M58.592,135.839a22.59,22.59,0,0,1-2.265,1.949.431.431,0,0,0-.151.576.42.42,0,0,0,.575.151,24.144,24.144,0,0,0,2.436-2.081C59.575,136.055,58.98,135.459,58.592,135.839Z" fill="#000000"></path><path d="M48.342,135.506a10.575,10.575,0,0,0-2.048,1.557c-.393.374.2.968.6.595a10.636,10.636,0,0,1,1.878-1.426.421.421,0,0,0-.425-.726Z" fill="#000000"></path><path d="M163.174,129.1q-.254,2.859-.506,5.717c-.047.539.794.537.842,0q.252-2.858.5-5.717C164.062,128.561,163.221,128.563,163.174,129.1Z" fill="#000000"></path><path d="M90.55,118.573a.417.417,0,0,0,.284-.5c-.6-2.313-1.292-4.6-1.938-6.9a.421.421,0,0,0-.811.224c.6,2.312,1.292,4.6,1.938,6.9A.421.421,0,0,0,90.55,118.573Z" fill="#000000"></path><path d="M53.452,117.745c-.244-.484-.97-.058-.726.424a33.121,33.121,0,0,1,2.118,5.283c.158.516.97.3.812-.224A34.43,34.43,0,0,0,53.452,117.745Z" fill="#000000"></path></g></svg>