<svg xmlns="http://www.w3.org/2000/svg" fill="none" viewBox="0 0 110 110"><path fill="#FFF0B3" d="M90.1417 87.0419H80.1592C80.0893 87.3134 79.9556 87.5644 79.7691 87.7738C79.5827 87.9832 79.3489 88.145 79.0872 88.2458C79.1285 88.3052 80.4512 90.2154 81.0672 91.113C81.2093 91.2682 81.3019 91.4621 81.3334 91.6701C81.3332 91.7963 81.2949 91.9195 81.2236 92.0236C81.1522 92.1277 81.0512 92.2079 80.9336 92.2537C80.816 92.2994 80.6873 92.3087 80.5644 92.2803C80.4414 92.2518 80.3299 92.187 80.2444 92.0942C79.9755 91.806 78.8111 90.613 78.601 90.398C78.4684 90.563 78.31 90.7055 78.1319 90.8198C77.5194 91.1656 76.8228 91.3342 76.12 91.3066C76.2663 91.4932 76.3734 91.7075 76.4348 91.9366C76.4963 92.1656 76.5108 92.4047 76.4775 92.6395C76.4442 92.8744 76.3638 93.1 76.2411 93.303C76.1185 93.5059 75.956 93.682 75.7636 93.8206C75.2769 94.1875 74.7396 94.4821 74.1686 94.6951C73.4536 94.9701 72.7468 95.2677 72.0324 95.5465C65.8174 97.9665 59.516 99.9861 52.96 100.853C52.96 101.076 52.9705 101.314 52.9705 101.314C52.9712 101.368 52.9927 101.419 53.0304 101.456C53.0681 101.494 53.119 101.516 53.1723 101.516H90.14C90.1933 101.516 90.2443 101.494 90.282 101.456C90.3197 101.419 90.3412 101.368 90.3419 101.314V87.2437C90.3412 87.1907 90.3199 87.14 90.2826 87.1023C90.2452 87.0647 90.1947 87.043 90.1417 87.0419V87.0419Z"></path><path fill="#1B2F63" d="M81.07 91.113C80.4529 90.2154 79.1302 88.308 79.09 88.2458C79.0159 88.271 78.9397 88.2894 78.8623 88.3008C79.0289 88.6371 79.0933 89.0147 79.0476 89.3872C79.0019 89.7596 78.8479 90.1104 78.6049 90.3963C79.1399 90.9463 79.6752 91.4963 80.2109 92.0463C80.2907 92.1503 80.401 92.2267 80.5263 92.2649C80.6517 92.303 80.7859 92.301 80.91 92.2591C81.0342 92.2172 81.1421 92.1375 81.2188 92.0312C81.2954 91.9249 81.3368 91.7973 81.3373 91.6663C81.3048 91.4595 81.2118 91.267 81.07 91.113V91.113Z"></path><path fill="#1B2F63" d="M62.9167 66.0259C62.8928 65.9915 62.8563 65.9679 62.8152 65.9601C62.7741 65.9523 62.7315 65.9609 62.6967 65.9841C62.5751 66.0671 61.5862 66.8899 58.7691 69.2153C58.7325 69.2537 58.712 69.3047 58.712 69.3578C58.712 69.4108 58.7325 69.4618 58.7691 69.5002C61.111 72.0302 61.3354 72.4823 67.2941 78.7237C69.3203 78.5827 71.348 78.9744 73.1758 79.86C69.5612 74.811 62.9629 66.0858 62.9167 66.0259Z"></path><path fill="#DCEFFF" d="M64.7416 8.71808C64.4281 7.76104 63.8766 6.89931 63.139 6.21369C62.4013 5.52807 61.5016 5.04103 60.5242 4.79823C59.3995 4.51828 62.0362 4.60298 24.2341 4.60298C23.8436 4.60298 23.4504 4.59308 23.061 4.62938C21.5539 4.76869 20.1533 5.46587 19.1336 6.58424C18.1139 7.70262 17.5487 9.16153 17.5489 10.675V22.6215C21.3912 20.8472 25.2208 22.9427 25.8764 26.0865C29.1527 23.6306 32.6183 21.4379 36.2406 19.5289C37.1965 19.0559 38.3482 18.7374 39.259 19.4634C39.6145 19.7537 39.8926 20.1275 40.0686 20.5514C40.2446 20.9752 40.313 21.4361 40.2677 21.8928C40.0433 24.4283 37.2845 26.5452 35.2996 28.1188H64.8626C64.9158 28.1179 64.9666 28.0964 65.0042 28.0587C65.0418 28.021 65.0632 27.9701 65.0639 27.9169V20.8885H63.3534C63.3182 20.8878 63.2838 20.8781 63.2535 20.8602C63.2232 20.8423 63.1981 20.8168 63.1806 20.7863C63.163 20.7557 63.1537 20.7212 63.1536 20.686C63.1534 20.6508 63.1624 20.6161 63.1796 20.5854C63.3067 20.3654 64.0525 19.0878 65.0639 17.3509V12.958C64.2015 13.2385 63.3479 12.6726 63.2561 11.4983C63.1961 10.7316 63.5146 9.45398 62.6186 9.03928C62.4321 8.97453 62.2276 8.98536 62.049 9.06944C61.8703 9.15352 61.7317 9.30418 61.6627 9.48918C61.4982 9.87662 61.4313 10.2985 61.468 10.7179C61.4796 11.4494 61.5725 12.6071 60.6381 12.8139C60.2709 12.897 59.8862 12.8465 59.5529 12.6715C59.2115 12.4557 58.9614 12.1219 58.85 11.7337C58.6816 10.8382 58.6846 9.91885 58.8588 9.02443C58.8902 8.77033 59.2988 8.76813 59.2614 9.02443C59.1878 9.56011 59.1426 10.0993 59.1261 10.6398C59.0894 11.0951 59.182 11.5515 59.3934 11.9565C59.466 12.0829 59.5657 12.1916 59.6855 12.2747C59.8052 12.3578 59.9419 12.4133 60.0858 12.4371C60.2296 12.4609 60.3769 12.4524 60.517 12.4123C60.6571 12.3722 60.7866 12.3014 60.896 12.2051C61.3558 11.3548 60.7112 9.96603 61.5142 8.99583C61.6424 8.83781 61.8114 8.71796 62.0029 8.64931C62.1944 8.58065 62.4011 8.56582 62.6005 8.60643C62.7883 8.66403 62.9617 8.7609 63.1093 8.89061C63.2568 9.02033 63.3751 9.17993 63.4563 9.35883C63.8501 10.2108 63.4431 11.1738 63.7907 12.0313C63.8366 12.1518 63.9073 12.2612 63.9982 12.3527C64.0891 12.4441 64.1982 12.5155 64.3184 12.5621C64.4386 12.6088 64.5673 12.6297 64.6961 12.6235C64.8249 12.6173 64.9509 12.5842 65.0661 12.5263V11.3427C65.115 10.4555 65.0051 9.56667 64.7416 8.71808V8.71808ZM36.6641 10.945L33.797 14.41C33.8756 14.4947 35.722 16.5039 36.5668 17.4235C36.7422 17.6143 36.4568 17.9003 36.2819 17.7084C36.1625 17.5786 34.2397 15.4732 33.3878 14.5596C33.3516 14.521 33.3315 14.4701 33.3315 14.4172C33.3315 14.3643 33.3516 14.3134 33.3878 14.2747C33.511 14.1268 35.5047 11.7183 36.3792 10.6623C36.5448 10.4588 36.8286 10.7454 36.6641 10.945ZM45.166 11.1881C45.166 11.1881 40.353 16.06 38.6265 17.7265C38.5881 17.7616 38.5377 17.7805 38.4857 17.7792C38.4338 17.778 38.3843 17.7568 38.3476 17.72C38.3108 17.6833 38.2897 17.6337 38.2886 17.5818C38.2875 17.5298 38.3065 17.4794 38.3416 17.4411C38.8152 16.9516 43.1547 12.5714 44.8806 10.9021C44.9189 10.867 44.9693 10.848 45.0212 10.8491C45.0732 10.8503 45.1227 10.8714 45.1595 10.9081C45.1963 10.9448 45.2175 10.9943 45.2187 11.0463C45.2199 11.0982 45.2011 11.1486 45.166 11.187V11.1881ZM49.9048 14.5574C49.7849 14.6867 47.8566 16.7866 47.0113 17.7062C46.8353 17.8981 46.5509 17.6121 46.7264 17.4213L49.4956 14.4078C49.4148 14.3094 47.5035 12.001 46.629 10.9428C46.464 10.7443 46.7484 10.4577 46.9139 10.6579L49.9048 14.2703C49.9415 14.3089 49.962 14.3601 49.962 14.4133C49.962 14.4666 49.9415 14.5178 49.9048 14.5563V14.5574Z"></path><path fill="#1B2F63" d="M36.3792 10.659L33.3878 14.2714C33.3516 14.31 33.3315 14.361 33.3315 14.4139C33.3315 14.4668 33.3516 14.5177 33.3878 14.5563C34.2397 15.4699 36.1625 17.5753 36.2819 17.7051C36.4579 17.8965 36.7422 17.611 36.5667 17.4202L33.797 14.4067L36.6641 10.9417C36.8286 10.7454 36.5447 10.4588 36.3792 10.659Z"></path><path fill="#2755A0" d="M64.1096 34.2512C64.1613 34.2485 64.2099 34.2261 64.2455 34.1886C64.2811 34.1511 64.301 34.1014 64.301 34.0497C64.301 33.9979 64.2811 33.9482 64.2455 33.9107C64.2099 33.8732 64.1613 33.8508 64.1096 33.8481H63.5596L63.2098 34.2512H64.1096Z"></path><path fill="#1B2F63" d="M49.4956 14.4067L46.7263 17.4201C46.5509 17.611 46.8363 17.897 47.0112 17.705C47.8566 16.7854 49.7849 14.6855 49.9048 14.5563C49.9412 14.5178 49.9615 14.4668 49.9615 14.4138C49.9615 14.3609 49.9412 14.3099 49.9048 14.2714L46.915 10.659C46.75 10.4588 46.4656 10.7453 46.6301 10.9439C49.9752 14.9853 49.071 13.8935 49.4956 14.4067Z"></path><path fill="#1B2F63" d="M45.166 11.187C45.201 11.1486 45.2199 11.0982 45.2187 11.0462C45.2175 10.9943 45.1963 10.9448 45.1595 10.908C45.1227 10.8713 45.0732 10.8502 45.0212 10.8491C44.9693 10.848 44.9189 10.867 44.8806 10.9021C43.1541 12.5713 38.8152 16.9521 38.3416 17.441C38.3065 17.4794 38.2875 17.5297 38.2886 17.5817C38.2897 17.6337 38.3108 17.6832 38.3476 17.72C38.3843 17.7568 38.4338 17.778 38.4857 17.7792C38.5377 17.7804 38.5881 17.7615 38.6265 17.7265C40.353 16.06 45.166 11.187 45.166 11.187Z"></path><path fill="#B6DBFF" d="M64.9154 31.6872C64.9154 29.3876 64.9303 29.5191 64.8819 29.447C64.9026 29.4858 64.9113 29.5298 64.9068 29.5735C64.9023 29.6173 64.8848 29.6586 64.8566 29.6923C64.8566 29.6923 51.711 44.8487 51.0576 45.595C50.1775 46.611 49.0816 47.4176 47.8499 47.9558C46.6182 48.4941 45.2819 48.7505 43.9384 48.7064H28.2431C28.1237 48.9627 28.0055 49.2195 27.8845 49.4764C30.2885 48.9852 31.5464 49.7888 32.8845 49.0083C32.9079 48.9951 32.9338 48.9867 32.9605 48.9836C32.9872 48.9805 33.0142 48.9827 33.0401 48.9901C33.0659 48.9975 33.09 49.01 33.111 49.0268C33.132 49.0436 33.1494 49.0645 33.1623 49.0881C33.2688 49.7186 33.2109 50.3659 32.994 50.9674C32.9472 51.1038 32.895 51.238 32.8356 51.37C32.8356 51.37 43.2405 51.37 44.2206 51.37C45.5798 51.3741 46.9225 51.0713 48.1484 50.4843C49.3744 49.8973 50.4521 49.0412 51.3013 47.9798C52.3644 46.733 64.4061 32.8752 64.7499 32.4792C64.834 32.4064 64.892 32.3081 64.9149 32.1992C64.9244 32.0287 64.9246 31.8577 64.9154 31.6872V31.6872Z"></path><path fill="#78B5FF" d="M64.7141 29.348H33.8096C32.4032 30.58 31.1542 31.9908 30.8737 33.8481H39.534C39.5856 33.8508 39.6343 33.8732 39.6699 33.9107C39.7055 33.9482 39.7253 33.998 39.7253 34.0497C39.7253 34.1014 39.7055 34.1511 39.6699 34.1887C39.6343 34.2262 39.5856 34.2486 39.534 34.2513H30.8324C30.7421 34.8907 30.8908 35.5409 31.2502 36.0774C31.6096 36.6139 32.1543 36.9989 32.78 37.1586C33.9302 37.4118 35.0926 37.606 36.2626 37.7405C39.1853 38.1805 40.0823 38.2426 41.0932 38.6348H45.8194C45.871 38.6375 45.9197 38.6599 45.9553 38.6974C45.9909 38.7349 46.0107 38.7846 46.0107 38.8363C46.0107 38.8881 45.9909 38.9378 45.9553 38.9753C45.9197 39.0128 45.871 39.0352 45.8194 39.0379H41.8165C43.45 40.2105 42.845 42.6036 41.113 43.5892H51.4167C51.4684 43.5919 51.517 43.6143 51.5526 43.6518C51.5882 43.6893 51.6081 43.739 51.6081 43.7907C51.6081 43.8425 51.5882 43.8922 51.5526 43.9297C51.517 43.9672 51.4684 43.9896 51.4167 43.9923H40.2462C39.3412 44.2815 38.4066 44.4685 37.4599 44.55C34.9784 44.7982 32.4817 44.8595 29.9909 44.7332C29.4508 46.0603 28.8453 47.4205 28.243 48.7086H43.9384C45.282 48.7524 46.6184 48.4956 47.8501 47.9569C49.0818 47.4183 50.1776 46.6113 51.0576 45.595C51.711 44.8476 64.8565 29.6912 64.8565 29.6912C64.8826 29.6623 64.8999 29.6266 64.9065 29.5883C64.9131 29.55 64.9087 29.5105 64.8938 29.4746C64.8789 29.4387 64.8541 29.4077 64.8223 29.3853C64.7905 29.3629 64.7529 29.35 64.7141 29.348V29.348ZM60.1491 34.2513H52.3127C52.2611 34.2486 52.2124 34.2262 52.1768 34.1887C52.1412 34.1511 52.1214 34.1014 52.1214 34.0497C52.1214 33.998 52.1412 33.9482 52.1768 33.9107C52.2124 33.8732 52.2611 33.8508 52.3127 33.8481H60.1502C60.1918 33.8629 60.2278 33.8903 60.2533 33.9263C60.2788 33.9624 60.2924 34.0055 60.2924 34.0497C60.2924 34.0939 60.2788 34.137 60.2533 34.1731C60.2278 34.2091 60.1918 34.2365 60.1502 34.2513H60.1491ZM42.0942 34.2513C42.0426 34.2486 41.994 34.2262 41.9584 34.1887C41.9228 34.1511 41.9029 34.1014 41.9029 34.0497C41.9029 33.998 41.9228 33.9482 41.9584 33.9107C41.994 33.8732 42.0426 33.8508 42.0942 33.8481H49.7612C49.8129 33.8508 49.8615 33.8732 49.8971 33.9107C49.9327 33.9482 49.9526 33.998 49.9526 34.0497C49.9526 34.1014 49.9327 34.1511 49.8971 34.1887C49.8615 34.2262 49.8129 34.2486 49.7612 34.2513H42.0942ZM48.2658 39.0363C48.2141 39.0336 48.1655 39.0112 48.1299 38.9737C48.0943 38.9361 48.0745 38.8864 48.0745 38.8347C48.0745 38.783 48.0943 38.7332 48.1299 38.6957C48.1655 38.6582 48.2141 38.6358 48.2658 38.6331H55.8662C55.9179 38.6358 55.9665 38.6582 56.0021 38.6957C56.0377 38.7332 56.0576 38.783 56.0576 38.8347C56.0576 38.8864 56.0377 38.9361 56.0021 38.9737C55.9665 39.0112 55.9179 39.0336 55.8662 39.0363H48.2658Z"></path><path fill="#2755A0" d="M52.3127 34.2512H60.1502C60.2019 34.2485 60.2505 34.2261 60.2861 34.1886C60.3217 34.1511 60.3415 34.1014 60.3415 34.0497C60.3415 33.9979 60.3217 33.9482 60.2861 33.9107C60.2505 33.8732 60.2019 33.8508 60.1502 33.8481H52.3127C52.2611 33.8508 52.2124 33.8732 52.1768 33.9107C52.1412 33.9482 52.1214 33.9979 52.1214 34.0497C52.1214 34.1014 52.1412 34.1511 52.1768 34.1886C52.2124 34.2261 52.2611 34.2485 52.3127 34.2512V34.2512Z"></path><path fill="#2755A0" d="M49.7623 33.8481H42.0953C42.0437 33.8508 41.9951 33.8732 41.9595 33.9107C41.9239 33.9482 41.904 33.9979 41.904 34.0497C41.904 34.1014 41.9239 34.1511 41.9595 34.1886C41.9951 34.2261 42.0437 34.2485 42.0953 34.2512H49.7623C49.814 34.2485 49.8626 34.2261 49.8982 34.1886C49.9338 34.1511 49.9537 34.1014 49.9537 34.0497C49.9537 33.9979 49.9338 33.9482 49.8982 33.9107C49.8626 33.8732 49.814 33.8508 49.7623 33.8481V33.8481Z"></path><path fill="#2755A0" d="M42.0953 51.997C42.042 51.997 41.9908 52.0182 41.953 52.056C41.9153 52.0937 41.894 52.1449 41.894 52.1983C41.894 52.2517 41.9153 52.3029 41.953 52.3407C41.9908 52.3784 42.042 52.3996 42.0953 52.3996H47.135C47.1884 52.3996 47.2396 52.3784 47.2773 52.3407C47.3151 52.3029 47.3363 52.2517 47.3363 52.1983C47.3363 52.1449 47.3151 52.0937 47.2773 52.056C47.2396 52.0182 47.1884 51.997 47.135 51.997H42.0953Z"></path><path fill="#2755A0" d="M39.534 34.2512C39.5856 34.2485 39.6343 34.2261 39.6699 34.1886C39.7055 34.1511 39.7253 34.1014 39.7253 34.0497C39.7253 33.9979 39.7055 33.9482 39.6699 33.9107C39.6343 33.8732 39.5856 33.8508 39.534 33.8481H30.8737C30.8539 33.9817 30.8402 34.1165 30.8325 34.2512H39.534Z"></path><path fill="#2755A0" d="M55.8674 38.6348H48.2669C48.2153 38.6375 48.1666 38.6599 48.131 38.6974C48.0954 38.7349 48.0756 38.7846 48.0756 38.8363C48.0756 38.8881 48.0954 38.9378 48.131 38.9753C48.1666 39.0128 48.2153 39.0352 48.2669 39.0379H55.8674C55.919 39.0352 55.9676 39.0128 56.0032 38.9753C56.0388 38.9378 56.0587 38.8881 56.0587 38.8363C56.0587 38.7846 56.0388 38.7349 56.0032 38.6974C55.9676 38.6599 55.919 38.6375 55.8674 38.6348V38.6348Z"></path><path fill="#2755A0" d="M45.8183 38.6348H41.0922C41.3494 38.7386 41.5927 38.874 41.8165 39.0379H45.8183C45.8664 39.0304 45.9101 39.0059 45.9417 38.9689C45.9733 38.932 45.9907 38.885 45.9907 38.8363C45.9907 38.7877 45.9733 38.7407 45.9417 38.7037C45.9101 38.6668 45.8664 38.6423 45.8183 38.6348V38.6348Z"></path><path fill="#2755A0" d="M51.4167 43.9923C51.4684 43.9896 51.517 43.9672 51.5526 43.9297C51.5882 43.8922 51.6081 43.8425 51.6081 43.7907C51.6081 43.739 51.5882 43.6893 51.5526 43.6518C51.517 43.6143 51.4684 43.5919 51.4167 43.5892H41.113C40.8374 43.7505 40.5472 43.8855 40.2462 43.9923H51.4167Z"></path><path fill="#FFD2D2" d="M41.0921 38.6348C40.0961 38.2404 39.0417 38.1568 36.2615 37.7405C33.9735 37.3978 33.561 37.3555 32.7789 37.1586C31.5689 36.8555 30.7384 35.8105 30.8324 34.2513C30.954 32.2388 32.2938 30.673 33.8096 29.348C36.1295 27.3207 39.9971 24.9519 40.2677 21.8928C40.313 21.436 40.2446 20.9752 40.0686 20.5513C39.8926 20.1275 39.6145 19.7537 39.259 19.4634C38.3482 18.7374 37.1965 19.0559 36.2406 19.5289C32.6167 21.4355 29.151 23.6285 25.8764 26.0871C25.6852 25.2879 25.3097 24.5445 24.7798 23.9164C24.25 23.2883 23.5805 22.7929 22.825 22.4697C20.0645 21.2482 16.9328 22.3597 14.9253 24.5471C14.0178 22.913 11.9768 22.3102 10.1986 22.5599C7.92549 22.8795 6.24579 24.6571 5.24369 26.6145C4.0869 29.0826 3.37029 31.7339 3.12619 34.4487C2.92764 36.5563 3.00959 36.7906 2.95184 50.8514C2.95256 50.7982 2.97399 50.7474 3.01159 50.7098C3.04919 50.6722 3.09998 50.6508 3.15314 50.6501C5.20959 50.6352 -3.39846 50.6501 25.0112 50.6501C25.8842 50.0784 26.8589 49.68 27.8822 49.4764C28.8271 47.4826 29.508 45.9129 29.9887 44.7321C32.4802 44.8588 34.9776 44.798 37.4599 44.55C38.4074 44.4746 39.3426 44.2878 40.2462 43.9934C43.1277 43.01 43.7316 39.6787 41.0921 38.6348ZM21.571 31.9748C21.4742 32.2124 21.0848 32.1085 21.1821 31.8681C21.9174 30.0472 23.08 28.43 24.5718 27.153C24.7681 26.988 25.0547 27.2696 24.8567 27.4379C23.4135 28.6648 22.2865 30.2209 21.571 31.9748V31.9748ZM11.0792 29.8056C11.7344 28.32 12.6426 26.9595 13.7632 25.7846C13.9425 25.5959 14.2268 25.8814 14.0481 26.0695C12.9532 27.221 12.0664 28.5538 11.4273 30.0086C11.3234 30.2462 10.9758 30.0405 11.0792 29.8056Z"></path><path fill="#FFD2D2" d="M79.3523 84.794C77.8455 83.0873 76.1017 81.6056 74.1741 80.394C71.0325 78.5163 68.217 78.4932 64.6448 78.9739C62.3821 79.2781 58.7955 79.9513 58.6415 80.0189C58.6704 80.0133 58.7002 80.0141 58.7287 80.0212C58.7572 80.0283 58.7839 80.0416 58.8067 80.0601C58.8296 80.0786 58.8481 80.1019 58.861 80.1283C58.8739 80.1547 58.8808 80.1837 58.8813 80.2131C58.8813 80.5117 58.9655 90.9991 58.8813 99.6039C58.8808 99.6451 58.8677 99.6852 58.8438 99.7188C58.82 99.7524 58.7864 99.7779 58.7477 99.792C61.7754 99.0794 64.7615 98.2005 67.6923 97.1591C71.5473 95.8001 72.8546 95.1973 74.1702 94.6951C74.7414 94.4823 75.2787 94.1877 75.7652 93.8206C75.9577 93.682 76.1201 93.506 76.2428 93.303C76.3655 93.1 76.4459 92.8744 76.4792 92.6396C76.5125 92.4048 76.498 92.1656 76.4365 91.9366C76.3751 91.7075 76.268 91.4932 76.1216 91.3066C76.8244 91.3342 77.5211 91.1657 78.1335 90.8198C78.5425 90.5625 78.8425 90.1638 78.9765 89.6996C79.1105 89.2354 79.069 88.7381 78.8601 88.3025C79.2205 88.2248 79.5461 88.0325 79.7882 87.7544C80.0303 87.4764 80.1759 87.1274 80.2032 86.7597C80.1743 86.0214 79.8708 85.3205 79.3523 84.794V84.794ZM68.5036 90.2797C70.4103 90.4128 72.3105 90.6145 74.2043 90.8847C74.2559 90.899 74.2997 90.9331 74.326 90.9796C74.3524 91.0261 74.3593 91.0812 74.3451 91.1328C74.3297 91.1835 74.2953 91.2264 74.2492 91.2526C74.203 91.2788 74.1486 91.2863 74.0971 91.2736C72.2403 91.0081 70.3758 90.8105 68.5036 90.6807C68.2462 90.6647 68.2451 90.2616 68.5036 90.2797V90.2797ZM70.4 84.282C70.1684 84.1643 70.373 83.8167 70.6035 83.9338L77.3223 87.34C77.5538 87.4571 77.3498 87.8047 77.1188 87.6876L70.4 84.282Z"></path><path fill="#C0C195" d="M58.8814 80.2131C58.881 80.1866 58.8754 80.1605 58.8649 80.1362C58.8544 80.1119 58.8392 80.0899 58.8202 80.0715C58.8012 80.0531 58.7787 80.0387 58.7541 80.029C58.7295 80.0193 58.7032 80.0146 58.6767 80.0151C57.9865 80.0266 47.7647 82.6232 42.6899 83.6693C42.2213 81.5663 41.5522 79.5131 40.6918 77.5379C39.8669 75.59 38.7409 73.7839 37.3549 72.1858C32.7349 66.9339 25.0707 65.8647 18.1836 68.0812C19.3756 65.9222 20.5546 63.756 21.7206 61.5824C21.4084 60.8111 21.2558 59.9845 21.2722 59.1526C21.2885 58.3207 21.4735 57.5008 21.8158 56.7424C22.0475 56.253 22.4089 55.8364 22.8607 55.5379C22.9131 55.3776 22.9785 55.222 23.0566 55.0726C22.4862 54.4428 22.7761 53.3472 23.1803 52.5855C23.6212 51.7976 24.2524 51.1326 25.0162 50.6511H3.15535C3.10214 50.6517 3.05127 50.6731 3.01364 50.7107C2.97601 50.7483 2.95462 50.7992 2.95405 50.8524C2.9205 54.3686 2.75 101.235 2.75 101.481C2.75057 101.534 2.77196 101.585 2.80959 101.623C2.84722 101.66 2.89809 101.682 2.9513 101.682H43.285C43.3383 101.682 43.3892 101.66 43.4269 101.623C43.4646 101.585 43.4861 101.534 43.4869 101.481C43.4869 101.394 43.4869 101.307 43.4869 101.219C48.6105 101.484 53.7454 101.006 58.7318 99.798L58.746 99.792C58.7848 99.7779 58.8183 99.7524 58.8422 99.7188C58.8661 99.6852 58.8792 99.6451 58.8797 99.6039C58.8819 99.55 58.8836 80.476 58.8814 80.2131ZM45.7155 99H48.4897C48.5413 99.0027 48.5899 99.0251 48.6255 99.0626C48.6611 99.1001 48.681 99.1498 48.681 99.2015C48.681 99.2533 48.6611 99.303 48.6255 99.3405C48.5899 99.378 48.5413 99.4004 48.4897 99.4031H45.7155C45.6638 99.4004 45.6152 99.378 45.5796 99.3405C45.544 99.303 45.5241 99.2533 45.5241 99.2015C45.5241 99.1498 45.544 99.1001 45.5796 99.0626C45.6152 99.0251 45.6638 99.0027 45.7155 99V99ZM42.4825 83.71C42.7361 83.6588 42.8439 84.0477 42.5926 84.0988C37.1173 85.1988 34.6605 85.4738 29.4256 83.5846C23.6082 81.4852 19.0361 79.1015 13.6791 77.0946C13.4382 77.0038 13.5432 76.6144 13.789 76.7057C19.5849 78.8788 28.2486 83.2155 33.0391 84.244C36.206 84.92 39.2986 84.3529 42.4825 83.71ZM12.7787 56.4608C12.8337 56.7138 12.4487 56.8205 12.3899 56.568C12.2523 55.9732 12.305 55.3502 12.5404 54.787C12.7759 54.2237 13.1822 53.7486 13.7022 53.4286C14.1337 53.2235 14.6075 53.1227 15.0852 53.1344C15.5629 53.1462 16.0312 53.2701 16.4522 53.4963C17.0647 53.8874 17.5721 54.4225 17.93 55.055C18.6065 56.0521 20.1372 58.795 20.7207 59.8515C20.7477 59.8976 20.7553 59.9525 20.7417 60.0042C20.7282 60.0559 20.6947 60.1001 20.6486 60.1271C20.6258 60.1404 20.6006 60.1492 20.5744 60.1528C20.5482 60.1564 20.5215 60.1548 20.496 60.1481C20.4443 60.1346 20.4001 60.1011 20.3731 60.055C18.9657 57.7021 17.4939 54.5231 16.2839 53.867C15.9114 53.6522 15.4906 53.5356 15.0608 53.528C14.6309 53.5204 14.2062 53.6221 13.8265 53.8235C13.4034 54.1036 13.0763 54.5064 12.889 54.9778C12.7017 55.4493 12.6632 55.9668 12.7787 56.4608V56.4608ZM4.59415 53.2295C4.59685 53.1779 4.61926 53.1292 4.65677 53.0936C4.69428 53.0581 4.74401 53.0382 4.79572 53.0382C4.84744 53.0382 4.89717 53.0581 4.93468 53.0936C4.97219 53.1292 4.9946 53.1779 4.9973 53.2295V56.4993C4.9946 56.5509 4.97219 56.5995 4.93468 56.6351C4.89717 56.6707 4.84744 56.6906 4.79572 56.6906C4.74401 56.6906 4.69428 56.6707 4.65677 56.6351C4.61926 56.5995 4.59685 56.5509 4.59415 56.4993V53.2295ZM43.2894 101.206C34.0384 100.58 28.2425 97.4809 20.7757 92.4258C15.1074 88.5885 13.2116 86.9429 9.3192 84.2726C9.1069 84.1269 9.30875 83.7776 9.5227 83.925C13.8946 86.9242 14.7917 87.896 21.6964 92.56C28.6891 97.2845 34.6374 100.254 43.2894 100.802C43.5402 100.819 43.5518 101.224 43.2894 101.206V101.206Z"></path><path fill="#C0C195" d="M22.7375 56.1407C21.5864 57.3072 21.4692 59.5837 21.9725 61.1061C22.5185 60.0831 23.0602 59.0579 23.5977 58.0305C23.3091 57.8113 23.0794 57.5239 22.9293 57.1941C22.7791 56.8643 22.7132 56.5023 22.7375 56.1407V56.1407Z"></path><path fill="#FF9494" d="M13.7632 25.7845C12.6426 26.9595 11.7344 28.32 11.0792 29.8056C10.9758 30.0404 11.3234 30.2456 11.4274 30.0085C12.0665 28.554 12.9533 27.2213 14.0481 26.07C14.2269 25.8813 13.9425 25.5959 13.7632 25.7845Z"></path><path fill="#FF9494" d="M24.5718 27.153C23.08 28.43 21.9174 30.0472 21.1822 31.8681C21.0848 32.1085 21.4742 32.2124 21.571 31.9748C22.2865 30.2209 23.4135 28.6648 24.8567 27.4379C25.0547 27.2696 24.7681 26.9852 24.5718 27.153Z"></path><path fill="#000001" d="M33.1876 49.1821C33.1868 49.147 33.1769 49.1127 33.159 49.0825C33.141 49.0523 33.1156 49.0272 33.0851 49.0097C33.0546 48.9922 33.0201 48.9829 32.985 48.9827C32.9498 48.9824 32.9152 48.9913 32.8845 49.0083C31.7449 49.6733 30.5921 49.1827 28.7452 49.3383C26.6552 49.516 24.1802 50.6935 23.1776 52.5833C22.775 53.3412 22.4846 54.4412 23.0538 55.0704C24.1109 53.042 26.7762 52.8578 28.4724 54.1228C28.6056 54.2118 28.7268 54.3176 28.8332 54.4374C29.9788 54.1557 31.031 53.5801 31.8863 52.7676C32.3545 52.3032 32.7141 51.7408 32.9391 51.1208C33.1641 50.5009 33.249 49.8388 33.1876 49.1821V49.1821Z"></path><path fill="#FFD2D2" d="M25.0993 55.5528C24.6873 55.4538 24.2576 55.4556 23.8465 55.558C23.4354 55.6603 23.055 55.8602 22.7376 56.1407C22.5687 58.1642 25.4601 59.592 27.8141 58.4661C27.4329 57.0933 26.482 55.847 25.0993 55.5528Z"></path><path fill="#FFD2D2" d="M29.4454 55.5808C28.9146 53.0002 23.9498 52.2098 22.858 55.5368C23.025 55.4256 23.2056 55.3364 23.3954 55.2711C25.2362 54.6205 27.3983 55.6561 28.1727 58.2521C28.6142 57.9713 28.9678 57.5718 29.1929 57.0994C29.418 56.6269 29.5055 56.1007 29.4454 55.5808V55.5808Z"></path><path fill="#000001" d="M17.93 55.055C17.5708 54.4229 17.0623 53.8885 16.4488 53.4985C16.0279 53.2724 15.5596 53.1484 15.0819 53.1367C14.6042 53.1249 14.1304 53.2257 13.6988 53.4308C13.1789 53.7508 12.7726 54.2259 12.5371 54.7892C12.3016 55.3525 12.249 55.9754 12.3865 56.5702C12.4448 56.8227 12.8331 56.716 12.7754 56.463C12.6595 55.9684 12.698 55.4501 12.8857 54.9781C13.0735 54.506 13.4014 54.1029 13.8253 53.823C14.2051 53.6215 14.6298 53.5198 15.0597 53.5274C15.4895 53.535 15.9103 53.6517 16.2827 53.8664C17.4927 54.5231 18.9354 57.6526 20.372 60.0545C20.399 60.1006 20.4432 60.1341 20.4949 60.1476C20.5204 60.1543 20.5471 60.1559 20.5733 60.1522C20.5995 60.1486 20.6247 60.1399 20.6475 60.1265C20.6704 60.1132 20.6903 60.0954 20.7063 60.0744C20.7223 60.0533 20.734 60.0293 20.7406 60.0037C20.7473 59.9781 20.7489 59.9514 20.7453 59.9252C20.7417 59.899 20.733 59.8738 20.7196 59.851C20.1399 58.795 18.6087 56.0499 17.93 55.055Z"></path><path fill="#000001" d="M37.5133 58.8604C36.7279 54.5396 32.2751 54.043 31.0101 56.7413C30.6214 57.5689 30.438 58.4781 30.4755 59.3917C30.4133 59.3587 30.5624 59.3692 28.3855 59.3692C28.2386 57.6642 27.2745 55.9014 25.6718 55.2992C24.9669 54.999 24.1736 54.9813 23.4561 55.2497C22.7385 55.5182 22.1516 56.0522 21.8168 56.7413C21.1775 58.1563 21.0962 59.7607 21.5891 61.2331C21.8536 62.0516 22.3755 62.7626 23.0769 63.2604C25.3869 64.9071 28.4548 63.3523 28.4064 59.7718C30.5514 59.7718 30.4249 59.7877 30.4964 59.7355C30.5333 60.2443 30.63 60.747 30.7846 61.2331C31.3527 63.0217 33.2046 64.2785 35.0322 63.8181C36.7141 63.3908 37.9681 61.3607 37.5133 58.8604ZM26.8834 62.7654C25.3511 64.2537 22.8899 63.3297 22.0984 61.4537C21.401 59.8037 21.5264 56.8634 23.0802 55.8646C23.6892 55.5076 24.411 55.3951 25.0998 55.55C27.8663 56.1418 29.0653 60.649 26.8834 62.7682V62.7654ZM36.0778 62.7654C34.5378 64.2603 32.0628 63.3226 31.2928 61.4537C30.7971 60.154 30.7541 58.7251 31.1707 57.398C31.3592 56.779 31.7474 56.2398 32.2745 55.8646C32.8846 55.5106 33.6053 55.3983 34.2941 55.55C37.0782 56.155 38.2492 60.6595 36.08 62.7682L36.0778 62.7654Z"></path><path fill="#FF9494" d="M70.4 84.282L77.1188 87.6876C77.3498 87.8047 77.5538 87.4571 77.3223 87.34L70.6035 83.9338C70.3736 83.8167 70.169 84.1643 70.4 84.282Z"></path><path fill="#FF9494" d="M68.5036 90.6829C70.3736 90.8134 72.2381 91.011 74.0971 91.2758C74.1486 91.2885 74.203 91.281 74.2492 91.2548C74.2953 91.2286 74.3297 91.1857 74.3451 91.135C74.3593 91.0834 74.3524 91.0283 74.326 90.9818C74.2996 90.9353 74.2559 90.9012 74.2043 90.8869C72.3116 90.6163 70.4113 90.4147 68.5036 90.2819C68.2451 90.2616 68.2462 90.6647 68.5036 90.6829Z"></path><path fill="#1B2F63" d="M61.8139 65.3631L58.064 68.5531C57.8666 68.7214 58.1526 69.0052 58.3495 68.838L62.0988 65.648C62.2968 65.4803 62.0103 65.1959 61.8139 65.3631Z"></path><path fill="#1B2F63" d="M57.8325 68.2159C59.1159 67.1926 60.3744 66.1404 61.6083 65.0595C61.8035 64.8884 61.5175 64.6041 61.3234 64.7746C60.0884 65.8548 58.8299 66.9069 57.5476 67.931C57.3447 68.0927 57.6318 68.3765 57.8325 68.2159Z"></path><path fill="#A5A538" d="M45.7155 99.4037H48.4897C48.5413 99.401 48.5899 99.3786 48.6255 99.3411C48.6611 99.3036 48.681 99.2538 48.681 99.2021C48.681 99.1504 48.6611 99.1007 48.6255 99.0632C48.5899 99.0257 48.5413 99.0032 48.4897 99.0005H45.7155C45.6638 99.0032 45.6152 99.0257 45.5796 99.0632C45.544 99.1007 45.5241 99.1504 45.5241 99.2021C45.5241 99.2538 45.544 99.3036 45.5796 99.3411C45.6152 99.3786 45.6638 99.401 45.7155 99.4037V99.4037Z"></path><path fill="#A5A538" d="M4.59415 53.2295V56.4993C4.59685 56.5509 4.61926 56.5996 4.65677 56.6351C4.69427 56.6707 4.74401 56.6906 4.79572 56.6906C4.84743 56.6906 4.89717 56.6707 4.93468 56.6351C4.97218 56.5996 4.9946 56.5509 4.9973 56.4993V53.2295C4.9946 53.1779 4.97218 53.1293 4.93468 53.0937C4.89717 53.0581 4.84743 53.0382 4.79572 53.0382C4.74401 53.0382 4.69427 53.0581 4.65677 53.0937C4.61926 53.1293 4.59685 53.1779 4.59415 53.2295V53.2295Z"></path><path fill="#A5A538" d="M28.2524 96.5597C21.3163 92.8285 14.1064 87.07 9.5227 83.9251C9.30875 83.7777 9.1069 84.1269 9.3192 84.2727C13.0185 86.8104 15.2773 88.7018 20.7757 92.4259C28.2975 97.5205 34.089 100.583 43.2894 101.206C43.5518 101.224 43.5408 100.821 43.2894 100.803C38.0273 100.504 32.8946 99.0554 28.2524 96.5597V96.5597Z"></path><path fill="#A5A538" d="M33.0324 84.2396C28.2062 83.2029 19.6636 78.9046 13.7824 76.7013C13.5393 76.61 13.4343 76.9994 13.6724 77.0902C19.0542 79.1081 23.6016 81.4825 29.4189 83.5802C34.6615 85.4727 37.119 85.1928 42.586 84.0944C42.8401 84.0433 42.7322 83.6544 42.4759 83.7056C39.2766 84.3573 36.19 84.92 33.0324 84.2396Z"></path><path fill="#FFC431" d="M95.1527 101.286V84.2688C95.1766 83.3685 95.5501 82.5129 96.1941 81.8832C96.838 81.2536 97.7018 80.8994 98.6025 80.8958C99.5031 80.8921 100.37 81.2393 101.019 81.8637C101.668 82.4881 102.048 83.3407 102.079 84.2407C102.079 84.4277 102.076 84.6142 102.079 84.8006C102.082 84.8523 102.105 84.9009 102.142 84.9365C102.18 84.9721 102.229 84.992 102.281 84.992C102.333 84.992 102.382 84.9721 102.42 84.9365C102.457 84.9009 102.48 84.8523 102.483 84.8006C102.519 84.1977 102.449 83.593 102.276 83.0142C101.979 82.146 101.383 81.4117 100.595 80.9423C99.8066 80.4729 98.877 80.2991 97.9723 80.4519C97.0676 80.6048 96.2468 81.0743 95.6564 81.7767C95.066 82.479 94.7446 83.3683 94.7496 84.2858C94.7496 84.6483 94.7496 101.268 94.7496 101.286C94.7523 101.337 94.7747 101.386 94.8122 101.422C94.8497 101.457 94.8994 101.477 94.9511 101.477C95.0029 101.477 95.0526 101.457 95.0901 101.422C95.1276 101.386 95.15 101.337 95.1527 101.286V101.286Z"></path><path fill="#FFC431" d="M101.82 79.86C100.986 79.3256 100.033 79.0061 99.0455 78.93C98.0581 78.8539 97.0672 79.0235 96.1614 79.4239C95.2687 79.847 94.5149 80.5154 93.9879 81.351C93.4609 82.1866 93.1826 83.155 93.1854 84.1429C93.1821 84.7374 93.1722 98.8455 93.1854 100.965C93.1936 101.829 92.9228 102.672 92.4131 103.369C91.9034 104.066 91.1821 104.58 90.3567 104.834C89.4294 105.062 87.5814 104.944 53.0579 104.994C53.0314 104.995 53.0052 105 52.981 105.011C52.9567 105.022 52.9349 105.038 52.9168 105.057C52.8987 105.077 52.8846 105.099 52.8754 105.124C52.8662 105.149 52.8621 105.176 52.8632 105.202C52.865 105.253 52.8861 105.302 52.9222 105.338C52.9584 105.374 53.0069 105.395 53.0579 105.397H89.1231C89.6943 105.412 90.2629 105.315 90.7964 105.11C91.3299 104.905 91.8178 104.598 92.2324 104.204C92.6469 103.811 92.9799 103.34 93.2123 102.818C93.4447 102.296 93.572 101.733 93.5869 101.162C93.5869 101.124 93.5869 85.1329 93.5869 85.1329C93.5359 84.3306 93.6043 83.5253 93.7898 82.7431C95.3925 77.5962 104.005 78.2194 103.643 84.7968C103.645 84.8484 103.668 84.8971 103.705 84.9327C103.743 84.9683 103.792 84.9881 103.844 84.9881C103.896 84.9881 103.946 84.9683 103.983 84.9327C104.021 84.8971 104.043 84.8484 104.046 84.7968C104.138 82.7503 103.487 81.0299 101.82 79.86Z"></path><path fill="#FFC431" d="M103.624 79.4128C102.869 78.6658 101.955 78.098 100.951 77.7511C99.9462 77.4042 98.8768 77.2872 97.8212 77.4086C96.7655 77.53 95.7506 77.8867 94.8512 78.4525C93.9518 79.0183 93.1908 79.7788 92.6244 80.6778C91.8791 81.8894 91.5012 83.2912 91.5365 84.7132C91.5365 84.7132 91.5321 100.603 91.5365 100.878C91.5452 101.184 91.4863 101.488 91.3641 101.769C91.2418 102.049 91.0592 102.3 90.8292 102.502C90.3095 102.881 89.665 103.047 89.0268 102.967H53.1157C53.0641 102.97 53.0154 102.992 52.9798 103.03C52.9442 103.067 52.9244 103.117 52.9244 103.169C52.9244 103.22 52.9442 103.27 52.9798 103.308C53.0154 103.345 53.0641 103.368 53.1157 103.37C53.1157 103.37 89.0065 103.365 89.447 103.37C90.0906 103.383 90.7133 103.142 91.1795 102.698C91.6458 102.254 91.9178 101.644 91.9363 101C91.9363 100.992 91.9363 85.113 91.9363 84.4728C91.9353 83.5761 92.1142 82.6884 92.4625 81.8621C92.8109 81.0358 93.3215 80.2879 93.9643 79.6626C94.607 79.0374 95.3687 78.5475 96.2042 78.222C97.0398 77.8966 97.9322 77.7421 98.8285 77.7679C99.7248 77.7937 100.607 77.9991 101.422 78.3721C102.238 78.745 102.97 79.2779 103.576 79.939C104.181 80.6002 104.648 81.3762 104.949 82.2212C105.249 83.0661 105.377 83.9627 105.324 84.8578C105.327 84.9095 105.349 84.9581 105.387 84.9937C105.424 85.0293 105.474 85.0491 105.525 85.0491C105.577 85.0491 105.627 85.0293 105.664 84.9937C105.702 84.9581 105.724 84.9095 105.727 84.8578C105.78 83.8534 105.62 82.8491 105.257 81.9108C104.895 80.9725 104.338 80.1213 103.624 79.4128V79.4128Z"></path><path fill="#FFC431" d="M105.66 79.282C104.601 77.784 103.092 76.6626 101.353 76.0803C99.6131 75.498 97.7333 75.4853 95.986 76.044C94.2387 76.6026 92.7149 77.7035 91.6358 79.187C90.5567 80.6704 89.9784 82.4592 89.9849 84.2936C89.9849 84.914 89.9849 86.3363 89.9849 86.3363C89.9876 86.3879 90.01 86.4365 90.0475 86.4721C90.085 86.5077 90.1348 86.5276 90.1865 86.5276C90.2382 86.5276 90.2879 86.5077 90.3255 86.4721C90.363 86.4365 90.3854 86.3879 90.3881 86.3363C90.3169 84.9935 90.3946 83.647 90.6196 82.3213C91.0958 80.3569 92.2782 78.6366 93.9415 77.4883C95.6048 76.3399 97.6326 75.8439 99.6382 76.0948C101.644 76.3458 103.487 77.3261 104.816 78.8488C106.145 80.3716 106.867 82.3302 106.845 84.3513V84.7693C106.847 84.821 106.87 84.8696 106.907 84.9052C106.945 84.9408 106.994 84.9606 107.046 84.9606C107.098 84.9606 107.148 84.9408 107.185 84.9052C107.223 84.8696 107.245 84.821 107.248 84.7693C107.352 82.8136 106.792 80.8801 105.66 79.282Z"></path><path fill="#FFC431" d="M83.1429 62.035C82.6149 61.0714 78.4509 53.9737 78.2479 53.6294C78.2297 53.5996 78.2041 53.5749 78.1737 53.5579C78.1432 53.5408 78.1088 53.5318 78.0739 53.5318C78.0389 53.5318 78.0046 53.5408 77.9741 53.5579C77.9436 53.5749 77.918 53.5996 77.8998 53.6294C77.3388 54.5743 73.2022 61.6874 73.0048 62.035C72.9876 62.0657 72.9786 62.1004 72.9788 62.1356C72.9789 62.1708 72.9882 62.2053 73.0057 62.2359C73.0232 62.2664 73.0484 62.2919 73.0787 62.3098C73.109 62.3277 73.1434 62.3375 73.1786 62.3381H77.0242V60.6606C77.0269 60.6089 77.0493 60.5603 77.0868 60.5247C77.1243 60.4891 77.1741 60.4693 77.2258 60.4693C77.2775 60.4693 77.3272 60.4891 77.3647 60.5247C77.4022 60.5603 77.4246 60.6089 77.4273 60.6606V62.3381H82.9724C83.0068 62.3356 83.04 62.3247 83.0691 62.3062C83.0982 62.2878 83.1223 62.2624 83.1391 62.2324C83.156 62.2024 83.1652 62.1686 83.1659 62.1342C83.1665 62.0997 83.1587 62.0657 83.1429 62.035Z"></path><path fill="#D5E04F" d="M73.0884 46.5432H69.5657C69.5125 46.5438 69.4616 46.5652 69.424 46.6028C69.3863 46.6404 69.365 46.6913 69.3644 46.7445V50.27C69.3648 50.3233 69.3861 50.3743 69.4238 50.4121C69.4614 50.4498 69.5124 50.4713 69.5657 50.4719C71.9675 50.4889 72.765 50.4944 73.0455 50.4757C73.1764 50.4675 73.282 50.4526 73.2969 50.2266C73.315 49.9565 73.3073 49.1772 73.2903 46.7473C73.2904 46.6935 73.2693 46.6418 73.2315 46.6036C73.1936 46.5654 73.1422 46.5436 73.0884 46.5432Z"></path><path fill="#FFE780" d="M87.082 42.8835C86.2668 42.5847 85.3792 42.545 84.5406 42.7699C83.7019 42.9947 82.9532 43.4732 82.3969 44.1398C81.8405 44.8064 81.5037 45.6286 81.4325 46.4939C81.3612 47.3593 81.5591 48.2255 81.9989 48.9741C82.4388 49.7227 83.0991 50.3172 83.8897 50.6762C84.6803 51.0352 85.5624 51.1412 86.4155 50.9797C87.2687 50.8182 88.051 50.3971 88.6557 49.774C89.2604 49.1508 89.6578 48.3562 89.7935 47.4986C89.9473 46.5342 89.7608 45.5464 89.2661 44.7044C88.7714 43.8624 87.9993 43.2187 87.082 42.8835V42.8835Z"></path><path fill="#D5E04F" d="M82.5698 74.7334C83.6363 74.2758 84.8529 74.7972 85.9199 74.3099C86.1421 74.2107 86.34 74.0641 86.4996 73.8804C86.6592 73.6966 86.7767 73.4802 86.8439 73.2462C86.8866 72.9967 86.8589 72.7402 86.7641 72.5054C86.6693 72.2706 86.5111 72.0668 86.3071 71.9169C84.9167 70.8675 82.3691 72.0676 82.0688 70.7102C82.0179 70.4884 82.0222 70.2576 82.0814 70.0379C82.1406 69.8182 82.2528 69.6163 82.4081 69.4501C82.7829 69.1257 83.257 68.9386 83.7523 68.9199C84.6256 68.8817 85.5006 68.9304 86.3643 69.0651C86.6211 69.097 86.6189 68.6939 86.3643 68.6625C85.7631 68.5883 85.1598 68.525 84.5542 68.4975C84.0352 68.4653 83.5144 68.5152 83.0109 68.6455C82.5329 68.7797 82.1215 69.0862 81.8559 69.5057C81.6365 69.9209 81.5777 70.4024 81.6909 70.8581C81.9775 72.0263 83.5125 71.8256 84.4189 71.8217C84.9311 71.7879 85.443 71.8919 85.9012 72.1231C86.124 72.2273 86.2982 72.413 86.3879 72.642C86.4776 72.871 86.4758 73.1257 86.383 73.3535C85.8225 74.4628 84.2968 74.0866 83.3107 74.1532C82.7997 74.1808 82.3103 74.3682 81.9115 74.6889C81.7585 74.8377 81.6363 75.0152 81.5519 75.2112C81.4676 75.4073 81.4227 75.618 81.4198 75.8315C81.417 76.0449 81.4562 76.2567 81.5353 76.455C81.6144 76.6532 81.7317 76.8339 81.8807 76.9868C82.315 77.3648 82.8741 77.5684 83.4498 77.5582C83.9312 77.5547 84.4124 77.5793 84.8908 77.6319C85.3112 77.6786 85.7012 77.8736 85.9908 78.1819C86.4858 78.8837 85.8726 79.7665 84.953 79.8726C83.848 80.0098 82.7312 80.023 81.6233 79.9122C81.3659 79.8847 81.3675 80.2884 81.6233 80.3154C82.8928 80.4509 84.175 80.4048 85.4315 80.1784C86.3351 79.8721 86.9066 78.8271 86.3549 78.001C86.092 77.66 85.7214 77.418 85.3033 77.3146C84.8513 77.1986 84.3847 77.1497 83.9184 77.1694C83.4162 77.1996 82.9139 77.1126 82.451 76.9153C82.2502 76.8059 82.0845 76.6419 81.973 76.4421C81.8616 76.2424 81.8091 76.0152 81.8215 75.7868C81.8339 75.5585 81.9108 75.3383 82.0433 75.1519C82.1757 74.9654 82.3583 74.8204 82.5698 74.7334V74.7334Z"></path><path fill="#DDDDBF" d="M71.3405 33.8338C71.3233 33.8646 71.3144 33.8993 71.3146 33.9346C71.3148 33.9698 71.3241 34.0044 71.3417 34.035C71.3592 34.0656 71.3844 34.0911 71.4148 34.109C71.4451 34.127 71.4796 34.1368 71.5149 34.1374H76.2091C76.2365 34.136 76.2634 34.1292 76.2881 34.1173C76.3128 34.1055 76.335 34.0889 76.3532 34.0684C76.3715 34.0479 76.3855 34.0241 76.3945 33.9981C76.4034 33.9722 76.4072 33.9448 76.4055 33.9174C76.3978 33.7623 74.0784 29.876 74.0361 29.8045C74.0179 29.7746 73.9924 29.7498 73.9619 29.7326C73.9314 29.7154 73.897 29.7064 73.862 29.7064C73.827 29.7064 73.7926 29.7154 73.7621 29.7326C73.7316 29.7498 73.7061 29.7746 73.6879 29.8045C72.9922 30.976 71.4368 33.6666 71.3405 33.8338Z"></path><path fill="#DCEFFF" d="M80.9529 16.5649C80.6844 15.7114 80.151 14.9656 79.4301 14.4358C78.7091 13.906 77.8381 13.6198 76.9434 13.6185H75.9622C75.9089 13.6192 75.8581 13.6407 75.8204 13.6782C75.7827 13.7158 75.7612 13.7666 75.7603 13.8198V17.38C75.7607 17.4334 75.7821 17.4845 75.8199 17.5222C75.8577 17.56 75.9088 17.5814 75.9622 17.5818C76.1238 17.5779 76.2845 17.6071 76.4345 17.6675C76.5844 17.7279 76.7205 17.8182 76.8343 17.9331C76.9481 18.0479 77.0373 18.1848 77.0963 18.3353C77.1553 18.4858 77.183 18.6467 77.1777 18.8083V20.9423C77.1784 20.9955 77.1998 21.0463 77.2374 21.0839C77.275 21.1215 77.3258 21.1429 77.379 21.1436H80.9413C80.9946 21.1431 81.0455 21.1217 81.0832 21.0841C81.1209 21.0465 81.1425 20.9956 81.1432 20.9423C81.1668 17.6313 81.1883 17.3591 80.9529 16.5649Z"></path><path fill="#78B5FF" d="M70.6062 20.5854C70.2256 19.8907 67.2149 14.7592 67.067 14.5101C67.0489 14.4801 67.0233 14.4554 66.9928 14.4382C66.9623 14.421 66.9279 14.412 66.8929 14.412C66.8579 14.412 66.8235 14.421 66.793 14.4382C66.7625 14.4554 66.737 14.4801 66.7188 14.5101C66.3146 15.1904 63.3237 20.334 63.1796 20.5854C63.1624 20.6161 63.1534 20.6507 63.1536 20.6859C63.1537 20.7211 63.163 20.7557 63.1805 20.7862C63.198 20.8167 63.2232 20.8422 63.2535 20.8601C63.2838 20.878 63.3182 20.8878 63.3534 20.8884H70.4324C70.4671 20.8865 70.5007 20.8759 70.5302 20.8577C70.5597 20.8394 70.5842 20.8141 70.6015 20.784C70.6187 20.7539 70.6282 20.72 70.6291 20.6853C70.6299 20.6506 70.622 20.6163 70.6062 20.5854V20.5854Z"></path><path fill="#2755A0" d="M63.7884 12.0312C63.4408 11.176 63.8478 10.2107 63.454 9.35879C63.3729 9.17989 63.2546 9.02029 63.107 8.89057C62.9595 8.76086 62.7861 8.66399 62.5982 8.60639C62.3989 8.56597 62.1923 8.58089 62.0008 8.64953C61.8093 8.71817 61.6403 8.83792 61.512 8.99579C60.7145 9.95939 61.3431 11.3745 60.8938 12.205C60.7843 12.3013 60.6549 12.3719 60.5147 12.412C60.3746 12.4521 60.2274 12.4605 60.0836 12.4368C59.9398 12.413 59.8031 12.3575 59.6834 12.2745C59.5636 12.1914 59.4638 12.0828 59.3912 11.9564C59.1798 11.5515 59.0872 11.0951 59.1239 10.6397C59.1404 10.0993 59.1855 9.56007 59.2592 9.02439C59.2938 8.76809 58.8879 8.76974 58.8566 9.02439C58.7961 9.51499 58.7466 10.0078 58.7229 10.5017C58.685 11.374 58.8225 12.2067 59.5529 12.6714C59.8862 12.8464 60.2709 12.8969 60.638 12.8139C61.573 12.6071 61.4795 11.4493 61.468 10.7178C61.4313 10.2985 61.4981 9.87658 61.6627 9.48914C61.7317 9.30414 61.8703 9.15348 62.049 9.0694C62.2276 8.98532 62.4321 8.97449 62.6186 9.03924C63.5145 9.45394 63.1961 10.7316 63.256 11.4983C63.3407 12.5801 64.1041 13.2511 65.0639 12.958C65.2838 12.8934 65.4822 12.7707 65.6381 12.6027C66.4818 11.5412 65.6694 10.1788 66.4988 9.40004C66.5742 9.3381 66.6612 9.29166 66.7546 9.26341C66.848 9.23515 66.9461 9.22563 67.0432 9.23539C67.1403 9.24516 67.2345 9.27401 67.3204 9.32029C67.4063 9.36657 67.4823 9.42938 67.5438 9.50509C67.7453 9.74657 67.8589 10.0492 67.8661 10.3636C67.9561 11.1815 67.9572 12.0068 67.8694 12.8249C67.8419 13.0828 68.2456 13.0806 68.2726 12.8249C68.383 11.798 68.3435 10.7605 68.1554 9.74489C68.1051 9.56694 68.0157 9.40248 67.8937 9.26351C67.7717 9.12453 67.6202 9.01456 67.4503 8.94161C67.2804 8.86866 67.0963 8.83459 66.9115 8.84187C66.7267 8.84915 66.5459 8.8976 66.3822 8.98369C66.1006 9.18785 65.8971 9.48199 65.8053 9.81749C65.5182 10.8625 65.8465 11.2233 65.489 12.1137C65.4069 12.2734 65.2806 12.4061 65.1251 12.4959C64.9696 12.5857 64.7915 12.6289 64.6122 12.6202C64.4328 12.6115 64.2597 12.5513 64.1137 12.4469C63.9676 12.3424 63.8547 12.1981 63.7884 12.0312V12.0312Z"></path><path fill="#000001" d="M77.0209 70.5683C77.0236 70.62 77.046 70.6686 77.0835 70.7042C77.121 70.7398 77.1707 70.7596 77.2224 70.7596C77.2742 70.7596 77.3239 70.7398 77.3614 70.7042C77.3989 70.6686 77.4213 70.62 77.424 70.5683V60.6606C77.4213 60.609 77.3989 60.5603 77.3614 60.5247C77.3239 60.4891 77.2742 60.4693 77.2224 60.4693C77.1707 60.4693 77.121 60.4891 77.0835 60.5247C77.046 60.5603 77.0236 60.609 77.0209 60.6606V70.5683Z"></path><path fill="#000001" d="M74.5443 42.1328V50.8514C74.5443 50.9047 74.5655 50.9559 74.6032 50.9937C74.641 51.0314 74.6922 51.0527 74.7455 51.0527C74.7989 51.0527 74.8501 51.0314 74.8879 50.9937C74.9256 50.9559 74.9468 50.9047 74.9468 50.8514V42.1328C74.9468 42.0794 74.9256 42.0282 74.8879 41.9904C74.8501 41.9527 74.7989 41.9315 74.7455 41.9315C74.6922 41.9315 74.641 41.9527 74.6032 41.9904C74.5655 42.0282 74.5443 42.0794 74.5443 42.1328V42.1328Z"></path><path fill="#000001" d="M77.715 29.4503V41.9353C77.7177 41.9869 77.7401 42.0356 77.7776 42.0712C77.8151 42.1068 77.8649 42.1266 77.9166 42.1266C77.9683 42.1266 78.018 42.1068 78.0556 42.0712C78.0931 42.0356 78.1155 41.9869 78.1182 41.9353V29.4503C78.1155 29.3987 78.0931 29.35 78.0556 29.3144C78.018 29.2788 77.9683 29.259 77.9166 29.259C77.8649 29.259 77.8151 29.2788 77.7776 29.3144C77.7401 29.35 77.7177 29.3987 77.715 29.4503V29.4503Z"></path><path fill="#000001" d="M79.8941 26.3791V35.8908C79.8968 35.9425 79.9192 35.9911 79.9567 36.0267C79.9942 36.0623 80.044 36.0821 80.0957 36.0821C80.1474 36.0821 80.1971 36.0623 80.2346 36.0267C80.2721 35.9911 80.2946 35.9425 80.2973 35.8908V26.3791C80.2946 26.3275 80.2721 26.2788 80.2346 26.2432C80.1971 26.2077 80.1474 26.1878 80.0957 26.1878C80.044 26.1878 79.9942 26.2077 79.9567 26.2432C79.9192 26.2788 79.8968 26.3275 79.8941 26.3791Z"></path><path fill="#000001" d="M50.9443 79.7087C50.7034 79.7989 50.8079 80.1889 51.0516 80.097C53.7962 79.0667 56.6544 78.3685 59.565 78.0175C59.8197 77.9867 59.8224 77.5835 59.565 77.6143C56.6178 77.9638 53.7233 78.6669 50.9443 79.7087V79.7087Z"></path><path fill="#000001" d="M59.0892 75.845C56.1067 76.3242 53.1879 77.1395 50.3888 78.2754C50.1512 78.3717 50.2551 78.7616 50.4988 78.6643C53.2979 77.5283 56.2167 76.713 59.1992 76.2338C59.4517 76.1937 59.345 75.8054 59.0892 75.845Z"></path><path fill="#000001" d="M4.90491 15.4666C5.85421 16.8416 8.14991 20.1735 8.14991 20.1735C8.29621 20.3858 8.64491 20.1839 8.49751 19.97L5.25251 15.2631C5.10676 15.0508 4.75751 15.2521 4.90491 15.4666Z"></path><path fill="#000001" d="M10.7893 19.8028C10.8443 20.0563 11.2343 19.9491 11.1776 19.6961C11.0044 18.914 9.63764 12.7485 9.63764 12.7485C9.58264 12.4949 9.19269 12.6022 9.24879 12.8585C9.51499 14.0718 10.4637 18.3398 10.7893 19.8028Z"></path><path fill="#000001" d="M90.145 87.0419H80.1576C80.3506 86.2521 79.9056 85.4579 79.3523 84.794C77.6094 82.7877 75.5157 81.1156 73.1737 79.8594C70.0425 75.3929 63.2296 66.429 62.9167 66.0258C62.8927 65.9916 62.8563 65.9681 62.8152 65.9603C62.7741 65.9525 62.7316 65.961 62.6967 65.984C62.5812 66.0632 58.8324 69.163 58.7697 69.2153C58.7331 69.2537 58.7126 69.3047 58.7126 69.3577C58.7126 69.4108 58.7331 69.4618 58.7697 69.5002C61.3415 72.2782 61.0109 72.1314 67.2947 78.7237C61.1396 78.9701 50.5681 82.0462 42.6921 83.6693C42.231 81.5644 41.5619 79.5105 40.6945 77.5379C39.8695 75.5901 38.7435 73.784 37.3576 72.1858C32.6243 66.8778 24.9315 65.9103 18.1863 68.0812C19.3783 65.9223 20.5574 63.756 21.7234 61.5824C22.5434 63.525 24.8034 64.4974 26.5304 63.5349C27.8669 62.7863 28.4279 61.2463 28.4081 59.7723C30.5531 59.7723 30.4266 59.7877 30.4981 59.7355C30.5347 60.2443 30.6314 60.7471 30.7862 61.2331C31.0419 62.1177 31.6202 62.8741 32.4067 63.3527C33.1933 63.8314 34.1308 63.9975 35.0339 63.8181C37.0513 63.2714 37.8988 60.9581 37.5171 58.8626C36.735 54.5583 32.2806 54.0331 31.014 56.7429C30.6252 57.5706 30.4418 58.4798 30.4794 59.3934C30.4178 59.3609 30.5663 59.3708 28.3894 59.3708C28.3595 58.9919 28.2885 58.6174 28.1776 58.2538C29.4882 57.3864 29.9783 55.5901 28.8376 54.4401C30.5976 53.928 32.0887 53.059 32.84 51.3716C32.84 51.3716 43.2448 51.3749 44.2249 51.3716C45.5833 51.3704 46.9242 51.0652 48.1493 50.4786C49.3745 49.892 50.4529 49.0388 51.3056 47.9814L63.2165 34.2529H64.1152C64.1668 34.2502 64.2154 34.2278 64.251 34.1903C64.2866 34.1528 64.3065 34.103 64.3065 34.0513C64.3065 33.9996 64.2866 33.9499 64.251 33.9124C64.2154 33.8749 64.1668 33.8524 64.1152 33.8497H63.5652C64.9611 32.241 64.8852 32.3565 64.9198 32.1997C64.9292 32.0292 64.9292 31.8582 64.9198 31.6877C64.9198 30.5123 64.9281 29.9634 64.9198 29.6945C64.9094 29.3276 64.8384 29.3645 64.6289 29.359C63.6653 29.3326 58.7059 29.3485 33.8146 29.3485C34.298 28.9256 34.826 28.4977 35.304 28.1193H64.867C64.9202 28.1184 64.971 28.0969 65.0086 28.0592C65.0462 28.0215 65.0676 27.9707 65.0683 27.9174V20.8884H70.4369C70.4643 20.887 70.4911 20.8802 70.5159 20.8684C70.5407 20.8565 70.5628 20.8399 70.5811 20.8195C70.5994 20.799 70.6135 20.7751 70.6225 20.7492C70.6316 20.7233 70.6354 20.6958 70.6338 20.6684C70.6294 20.5936 70.862 21.0182 67.0714 14.5084C67.0533 14.4785 67.0277 14.4537 66.9972 14.4366C66.9667 14.4194 66.9323 14.4103 66.8973 14.4103C66.8623 14.4103 66.8279 14.4194 66.7974 14.4366C66.7669 14.4537 66.7414 14.4785 66.7233 14.5084C66.3251 15.1926 65.0683 17.3492 65.0683 17.3492V12.958C65.2891 12.8951 65.4881 12.7721 65.6431 12.6027C66.4862 11.5412 65.6739 10.1788 66.5027 9.40059C66.5781 9.33862 66.665 9.29215 66.7584 9.26385C66.8518 9.23555 66.9498 9.22598 67.0469 9.23569C67.144 9.2454 67.2382 9.2742 67.3242 9.32043C67.4101 9.36666 67.4861 9.42942 67.5477 9.50509C67.7524 9.74492 67.8664 10.0489 67.87 10.3642C67.9602 11.1819 67.9613 12.007 67.8733 12.8249C67.8458 13.0828 68.249 13.0806 68.2765 12.8249C68.3866 11.798 68.3472 10.7605 68.1593 9.7449C68.109 9.56695 68.0196 9.40248 67.8976 9.26351C67.7756 9.12454 67.6241 9.01456 67.4541 8.94162C67.2842 8.86867 67.1001 8.83459 66.9154 8.84187C66.7306 8.84915 66.5498 8.89761 66.3861 8.98369C66.1042 9.18754 65.9005 9.4818 65.8092 9.8175C65.5177 10.879 65.8581 11.2029 65.4929 12.1137C65.401 12.2929 65.2525 12.4368 65.0705 12.5229V11.3426C65.1201 10.4556 65.0109 9.56677 64.7482 8.71804C64.4284 7.76453 63.8748 6.90628 63.1382 6.22159C62.4015 5.5369 61.5051 5.04755 60.5308 4.79819C59.8866 4.66603 59.2304 4.6006 58.5728 4.60295C55.7475 4.5419 24.0966 4.52924 23.0676 4.62934C21.5603 4.76952 20.1595 5.46675 19.1389 6.58476C18.1183 7.70276 17.5514 9.16118 17.5489 10.6749V22.6215C16.5572 23.0849 15.6665 23.739 14.9276 24.5465C14.0201 22.9124 11.979 22.3096 10.2009 22.5593C7.9277 22.8789 6.26175 24.6636 5.2459 26.6139C4.08885 29.082 3.37222 31.7333 3.1284 34.4481C2.93315 36.7081 2.75495 99.77 2.75 101.481C2.75071 101.534 2.77215 101.585 2.80975 101.623C2.84734 101.66 2.89813 101.682 2.9513 101.682H43.285C43.3382 101.682 43.3891 101.66 43.4268 101.623C43.4644 101.585 43.486 101.534 43.4869 101.481C43.4869 101.394 43.4869 101.307 43.4869 101.219C46.649 101.402 49.8215 101.28 52.9601 100.853C52.9601 101.073 52.9705 101.314 52.9705 101.314C52.9713 101.368 52.9929 101.419 53.0306 101.456C53.0682 101.494 53.1191 101.515 53.1724 101.516H90.145C90.1982 101.515 90.2489 101.494 90.2864 101.456C90.324 101.418 90.3455 101.368 90.3463 101.314V87.2437C90.3455 87.1906 90.324 87.1398 90.2864 87.1021C90.2489 87.0645 90.1982 87.0429 90.145 87.0419V87.0419ZM31.1702 57.4007C31.3555 56.7802 31.7443 56.24 32.274 55.8673C32.8831 55.5105 33.6049 55.3981 34.2936 55.5527C37.0486 56.1247 38.2674 60.649 36.0778 62.7682C34.5719 64.2367 32.0931 63.3534 31.2928 61.4564C30.7914 60.1579 30.7481 58.7272 31.1702 57.4007V57.4007ZM59.1987 69.3797L62.7418 66.4548C66.6132 71.7541 69.4144 75.3054 72.4537 79.5448C70.9887 78.948 69.4149 78.6645 67.8337 78.7127C64.9831 75.7267 61.9669 72.5142 59.1987 69.3797ZM58.9111 80.993C58.9111 80.7906 58.9281 80.5761 58.9193 80.3704C60.5869 80.0294 62.2622 79.7225 63.9463 79.4761C65.629 79.1648 67.3426 79.054 69.0514 79.1461C72.8706 79.3859 76.0606 81.8763 78.7012 84.6675C79.2435 85.2423 79.8215 85.9254 79.8012 86.7575C79.7852 87.3658 79.123 88.0643 78.4768 87.879C78.2942 87.8267 78.1198 88.0841 78.2809 88.2156C78.865 88.693 78.7237 89.6835 78.2617 90.1956C77.5874 90.9458 76.3851 90.9293 75.4639 90.8869C75.4161 90.8886 75.3705 90.9071 75.3351 90.9391C75.2996 90.9711 75.2766 91.0146 75.27 91.0618C75.2635 91.1091 75.2738 91.1572 75.2992 91.1977C75.3246 91.2381 75.3634 91.2683 75.4088 91.2829C75.618 91.3681 75.7963 91.5149 75.92 91.7038C76.0437 91.8927 76.1069 92.1148 76.1013 92.3406C76.0922 92.5978 76.0206 92.849 75.8927 93.0724C75.7647 93.2958 75.5843 93.4846 75.3671 93.6226C74.8705 93.9488 74.3377 94.2159 73.7792 94.4185C70.6029 95.6136 65.763 97.7124 58.9111 99.3388V80.993ZM79.0454 88.8921C79.2022 89.1181 80.7048 91.2884 80.8456 91.498C80.9254 91.6168 80.9793 91.7449 80.8456 91.8516C80.7208 91.9512 80.6097 91.8835 80.5156 91.7867C80.3347 91.603 78.8331 90.052 78.8331 90.052C79.0217 89.6965 79.0959 89.2914 79.0454 88.8921V88.8921ZM22.7376 56.1401C22.7161 56.4313 22.7548 56.7237 22.8512 56.9992C22.9476 57.2748 23.0997 57.5275 23.298 57.7417C22.81 58.6756 22.3174 59.6072 21.8202 60.5363C21.5276 59.0793 21.6821 57.2104 22.7376 56.1401ZM23.1908 55.8057C24.7726 54.9851 26.835 55.7397 27.6886 58.0767C25.603 59.1156 22.6545 57.8633 23.1908 55.8057V55.8057ZM26.8835 62.7682C25.3831 64.229 22.7293 63.4172 21.9725 61.1061C22.5185 60.0831 23.0602 59.0579 23.5977 58.0305C24.191 58.4872 24.8996 58.7698 25.6444 58.8467C26.3891 58.9237 27.1405 58.7919 27.8146 58.4661C28.2227 59.9362 28.0231 61.6649 26.8835 62.7682ZM28.9504 55.3234C29.0901 55.788 29.0769 56.2851 28.9127 56.7416C28.7485 57.1981 28.4421 57.5898 28.0385 57.8589C27.1469 55.5153 25.129 54.6733 23.3948 55.2739C23.6821 54.7254 24.1379 54.2835 24.695 54.0133C26.2224 53.3736 28.2948 53.9088 28.9504 55.3234ZM31.8753 52.1812C30.9828 53.1821 29.788 53.8642 28.4724 54.1238C26.7861 52.8819 24.3854 53.108 23.276 54.6942C23.1602 54.4615 23.1189 54.1988 23.1578 53.9418C23.4091 52.1521 24.9618 50.9102 26.6525 50.2535C27.9975 49.7342 29.4522 49.5639 30.8809 49.7585C31.5344 49.8239 32.1943 49.7354 32.8075 49.5C32.835 50.4777 32.5034 51.4315 31.8753 52.1812V52.1812ZM64.515 32.1376C63.8952 32.8526 51.8502 46.7351 50.9256 47.8005C50.1079 48.7924 49.0806 49.5909 47.9176 50.1385C46.7545 50.686 45.4846 50.9691 44.1991 50.9674C43.2394 50.9674 33.0154 50.9674 32.9967 50.9674C33.1954 50.3946 33.2618 49.7842 33.1909 49.1821C33.1902 49.1553 33.1843 49.1289 33.1734 49.1044C33.1626 49.0799 33.147 49.0577 33.1276 49.0392C33.1082 49.0208 33.0853 49.0063 33.0603 48.9966C33.0353 48.987 33.0086 48.9823 32.9819 48.983C32.3371 49.3191 31.6049 49.45 30.8836 49.3581C29.8845 49.249 28.8746 49.2888 27.8872 49.4763C28.0082 49.2206 28.1265 48.9637 28.2458 48.7063H43.9384C45.2812 48.7461 46.6162 48.4877 47.8472 47.9497C49.0782 47.4117 50.1747 46.6075 51.0576 45.595C51.711 44.847 63.6779 31.0491 64.5123 30.0877L64.515 32.1376ZM64.2609 29.7682L50.9228 45.1379C50.1051 46.1298 49.0778 46.9282 47.9148 47.4757C46.7517 48.0231 45.4818 48.3061 44.1964 48.3043C43.2355 48.3043 28.4306 48.3043 28.4306 48.3043C28.9751 47.1245 29.5009 45.9354 29.9915 44.732C32.482 44.8761 34.98 44.8152 37.4605 44.55C38.4078 44.4751 39.3429 44.2882 40.2463 43.9934H51.4168C51.4684 43.9907 51.517 43.9683 51.5526 43.9308C51.5882 43.8933 51.6081 43.8435 51.6081 43.7918C51.6081 43.7401 51.5882 43.6904 51.5526 43.6529C51.517 43.6154 51.4684 43.5929 51.4168 43.5902H41.1131C42.8406 42.6063 43.4583 40.2165 41.8165 39.039H45.8183C45.8663 39.0314 45.9101 39.007 45.9417 38.97C45.9733 38.9331 45.9907 38.886 45.9907 38.8374C45.9907 38.7888 45.9733 38.7418 45.9417 38.7048C45.9101 38.6679 45.8663 38.6434 45.8183 38.6358H41.0921C39.0896 37.8592 34.7859 37.6799 32.7789 37.1596C31.5986 36.8742 30.7406 35.8396 30.8319 34.2523H39.534C39.5856 34.2496 39.6343 34.2272 39.6699 34.1897C39.7055 34.1522 39.7253 34.1025 39.7253 34.0508C39.7253 33.9991 39.7055 33.9493 39.6699 33.9118C39.6343 33.8743 39.5856 33.8519 39.534 33.8492H30.8742C31.1278 32.2036 32.1464 30.8885 33.363 29.7522C33.363 29.7511 63.7764 29.7797 64.2582 29.7682H64.2609ZM66.8932 15.015L70.0832 20.488H63.7032C63.7593 20.3912 66.8377 15.1068 66.8932 15.015ZM17.952 10.6749C17.954 9.91312 18.109 9.15946 18.4078 8.45869C18.7067 7.75791 19.1432 7.12431 19.6916 6.59548C20.24 6.06664 20.889 5.65336 21.6002 5.38014C22.3113 5.10693 23.0701 4.97936 23.8315 5.005H58.9363C60.4403 4.99048 61.8885 5.57402 62.9622 6.62723C64.036 7.68045 64.6473 9.11706 64.6619 10.621C64.6619 10.6403 64.6619 11.1793 64.6619 12.6175C64.6476 12.6175 64.6344 12.6225 64.6195 12.6219C64.4387 12.6142 64.2641 12.5541 64.1168 12.4491C63.9695 12.344 63.8558 12.1985 63.7896 12.0301C63.442 11.1749 63.86 10.2047 63.4552 9.3577C63.3749 9.17818 63.2569 9.01805 63.1093 8.88822C62.9616 8.75838 62.7877 8.66189 62.5994 8.60529C62.4 8.56475 62.1933 8.57961 62.0018 8.64826C61.8103 8.71691 61.6413 8.83673 61.5131 8.9947C60.7156 9.95885 61.3443 11.3734 60.8955 12.2039C60.786 12.3002 60.6565 12.3709 60.5164 12.4109C60.3763 12.451 60.229 12.4594 60.0853 12.4357C59.9415 12.4119 59.8048 12.3564 59.685 12.2734C59.5653 12.1903 59.4655 12.0817 59.3929 11.9553C59.1811 11.5505 59.0882 11.094 59.125 10.6386C59.1387 10.098 59.1839 9.55866 59.2603 9.0233C59.2922 8.76645 58.8891 8.7692 58.8572 9.0233C58.6846 9.91829 58.6821 10.8378 58.85 11.7337C58.9636 12.1214 59.2142 12.4546 59.5551 12.6714C59.888 12.8477 60.2732 12.8982 60.6402 12.8139C61.5752 12.6148 61.4818 11.4493 61.4702 10.7178C61.4335 10.2985 61.5004 9.87659 61.6649 9.48915C61.7339 9.30414 61.8725 9.15348 62.0512 9.0694C62.2298 8.98532 62.4343 8.9745 62.6208 9.03924C63.5168 9.45394 63.1983 10.7316 63.2583 11.4983C63.3237 12.3365 63.8215 13.0383 64.663 13.0262V18.0427C64.3154 18.6395 63.3276 20.3346 63.1818 20.5854C63.1646 20.6161 63.1556 20.6507 63.1558 20.6859C63.1559 20.7211 63.1652 20.7557 63.1827 20.7862C63.2003 20.8168 63.2254 20.8422 63.2557 20.8601C63.286 20.8781 63.3204 20.8878 63.3556 20.8884H64.663V27.7156H35.8078C36.9816 26.8625 38.0443 25.8663 38.9714 24.75C39.6816 23.9507 40.1335 22.9552 40.2677 21.8944C40.3145 21.4375 40.2468 20.9762 40.0707 20.5521C39.8946 20.128 39.6156 19.7544 39.259 19.465C38.3482 18.739 37.1965 19.0575 36.2406 19.5305C32.6171 21.4371 29.1514 23.6296 25.8764 26.087C25.6817 25.2894 25.3049 24.5476 24.7755 23.92C24.2461 23.2924 23.5785 22.796 22.825 22.4697C22.0556 22.1385 21.2272 21.966 20.3895 21.9624C19.5519 21.9588 18.7221 22.1242 17.9498 22.4488L17.952 10.6749ZM3.41385 36.1234C3.54475 31.7174 5.1062 24.6224 9.32195 23.1819C11.3102 22.5032 13.8193 23.0279 14.7081 24.9969C14.7238 25.0234 14.7454 25.0459 14.7711 25.0628C14.7969 25.0796 14.8261 25.0905 14.8566 25.0944C14.8871 25.0983 14.9181 25.0952 14.9473 25.0854C14.9764 25.0756 15.003 25.0592 15.0249 25.0376C17.7051 21.9505 21.8642 21.3972 24.3749 24.0691C25.0046 24.7378 25.4123 25.5847 25.542 26.494C25.5566 26.5456 25.591 26.5892 25.6377 26.6155C25.6844 26.6418 25.7395 26.6485 25.7912 26.6343C29.0845 24.165 32.5608 21.9496 36.19 20.0073C36.6891 19.7072 37.2445 19.5127 37.8218 19.4359C38.2847 19.4218 38.7375 19.5727 39.0994 19.8617C39.4613 20.1506 39.7087 20.5588 39.7975 21.0133C39.8854 21.5281 39.865 22.0556 39.7376 22.5621C39.6101 23.0686 39.3784 23.5429 39.0572 23.9547C37.0376 26.9857 33.1754 28.4757 31.2411 31.6992C30.421 33.066 29.9877 35.0806 31.0145 36.4644C31.6422 37.1933 32.531 37.6466 33.4895 37.7267C39.0539 38.6716 41.679 38.4593 42.2813 40.2875C42.3897 40.7152 42.3838 41.1639 42.2642 41.5886C42.1446 42.0134 41.9155 42.3992 41.5998 42.7075C40.8484 43.3978 39.8984 43.8336 38.885 43.9527C35.8996 44.392 32.8763 44.5159 29.865 44.3223C29.5691 44.3278 29.865 44.3927 27.3856 49.5946C26.5438 49.8152 25.7437 50.1717 25.0168 50.65C25.0168 50.65 3.6146 50.6275 3.36105 50.639C3.3792 45.3051 3.3957 36.5898 3.41385 36.1234ZM42.8093 100.764C37.7142 100.407 32.7527 98.9741 28.2519 96.5596C21.3015 92.8031 13.101 86.3846 9.52325 83.925C9.30875 83.7776 9.1069 84.1269 9.31975 84.2726C13.0427 86.8268 15.2317 88.6693 20.7757 92.4258C28.1814 97.4396 33.9713 100.533 43.0859 101.19V101.279C43.0859 101.279 3.29065 101.272 3.1559 101.275C3.1559 98.9615 3.35665 51.4052 3.3583 51.0532H24.4712C23.9418 51.4718 23.5019 51.9925 23.1775 52.5844C22.7859 53.3472 22.4796 54.4351 23.0516 55.0687C22.9753 55.2196 22.9105 55.3761 22.858 55.5368C22.4084 55.8379 22.0476 56.2538 21.813 56.7413C21.2002 58.1011 21.1025 59.6373 21.538 61.0637C20.9072 62.2435 18.2754 67.0802 17.5901 68.3188C17.5712 68.3535 17.5627 68.393 17.5658 68.4325C17.5689 68.4719 17.5834 68.5096 17.6075 68.541C17.6316 68.5723 17.6644 68.596 17.7017 68.6091C17.739 68.6222 17.7794 68.6241 17.8178 68.6147C26.9165 65.6238 35.9068 68.0487 40.0208 77.0412C41.0295 79.1829 41.7925 81.4318 42.295 83.7452C39.1309 84.3826 36.2197 84.9057 33.0336 84.2402C27.9642 83.122 19.954 79.0218 13.7836 76.7019C13.5405 76.6106 13.4354 77 13.6736 77.0907C21.5419 80.0404 29.9261 84.7357 35.4343 84.942C40.4987 85.1323 49.7046 82.302 58.4755 80.4628V98.813C58.4755 99 58.4403 99.2414 58.459 99.4455C53.3396 100.677 48.0625 101.122 42.8093 100.764V100.764ZM89.9404 101.113H53.3753V100.797C59.7393 99.9075 66.0594 97.895 72.034 95.546C72.749 95.2677 73.4541 94.9685 74.1702 94.6951C74.7421 94.4839 75.2796 94.1892 75.7653 93.8206C75.9578 93.682 76.1203 93.5059 76.243 93.3029C76.3657 93.0999 76.4462 92.8742 76.4795 92.6393C76.5128 92.4044 76.4982 92.1653 76.4367 91.9361C76.3752 91.707 76.2681 91.4927 76.1217 91.306C76.8244 91.3341 77.5211 91.1657 78.1336 90.8198C78.3117 90.7055 78.4701 90.563 78.6027 90.398C79.1377 90.948 79.673 91.498 80.2087 92.048C80.2885 92.152 80.3988 92.2284 80.5241 92.2665C80.6495 92.3047 80.7836 92.3027 80.9078 92.2608C81.032 92.2189 81.1399 92.1392 81.2165 92.0329C81.2932 91.9266 81.3346 91.799 81.3351 91.6679C81.3034 91.46 81.2107 91.2661 81.0689 91.1108C80.4518 90.2132 79.1291 88.3058 79.0889 88.2436C79.4786 88.0935 79.8022 87.8096 80.0019 87.4428H89.9421L89.9404 101.113Z"></path><path fill="#000001" d="M36.2819 17.705C36.4579 17.897 36.7422 17.611 36.5667 17.4201C36.5667 17.4201 33.8756 14.4914 33.797 14.4067L36.6641 10.9417C36.8291 10.7431 36.5447 10.4566 36.3792 10.6568L33.3878 14.2692C33.3516 14.3078 33.3315 14.3587 33.3315 14.4116C33.3315 14.4645 33.3516 14.5155 33.3878 14.5541C37.257 18.7093 36.0465 17.4493 36.2819 17.705Z"></path><path fill="#000001" d="M49.4956 14.4067L46.7263 17.4201C46.5509 17.611 46.8363 17.897 47.0112 17.705L49.9053 14.5563C49.9416 14.5177 49.9618 14.4668 49.9618 14.4138C49.9618 14.3609 49.9416 14.3099 49.9053 14.2714L46.915 10.659C46.75 10.4588 46.4656 10.7453 46.6301 10.9439L49.4956 14.4067Z"></path><path fill="#000001" d="M38.6265 17.7265C40.3541 16.06 45.166 11.187 45.166 11.187C45.201 11.1486 45.2199 11.0982 45.2187 11.0462C45.2175 10.9943 45.1963 10.9448 45.1595 10.908C45.1227 10.8713 45.0732 10.8502 45.0212 10.8491C44.9693 10.848 44.9189 10.867 44.8806 10.9021C43.1541 12.5708 38.8152 16.9521 38.3416 17.441C38.3065 17.4794 38.2875 17.5297 38.2886 17.5817C38.2897 17.6337 38.3108 17.6832 38.3476 17.72C38.3843 17.7568 38.4338 17.778 38.4857 17.7792C38.5377 17.7804 38.5881 17.7615 38.6265 17.7265V17.7265Z"></path><path fill="#000001" d="M52.3127 34.2512H60.1502C60.2019 34.2485 60.2505 34.2261 60.2861 34.1886C60.3217 34.1511 60.3415 34.1014 60.3415 34.0497C60.3415 33.9979 60.3217 33.9482 60.2861 33.9107C60.2505 33.8732 60.2019 33.8508 60.1502 33.8481H52.3127C52.2611 33.8508 52.2124 33.8732 52.1768 33.9107C52.1412 33.9482 52.1214 33.9979 52.1214 34.0497C52.1214 34.1014 52.1412 34.1511 52.1768 34.1886C52.2124 34.2261 52.2611 34.2485 52.3127 34.2512V34.2512Z"></path><path fill="#000001" d="M42.0953 34.2512H49.7623C49.814 34.2485 49.8626 34.2261 49.8982 34.1886C49.9338 34.1511 49.9537 34.1014 49.9537 34.0497C49.9537 33.9979 49.9338 33.9482 49.8982 33.9107C49.8626 33.8732 49.814 33.8508 49.7623 33.8481H42.0953C42.0437 33.8508 41.9951 33.8732 41.9595 33.9107C41.9239 33.9482 41.904 33.9979 41.904 34.0497C41.904 34.1014 41.9239 34.1511 41.9595 34.1886C41.9951 34.2261 42.0437 34.2485 42.0953 34.2512V34.2512Z"></path><path fill="#000001" d="M42.0953 51.997C42.042 51.997 41.9908 52.0182 41.953 52.056C41.9153 52.0937 41.894 52.1449 41.894 52.1983C41.894 52.2517 41.9153 52.3029 41.953 52.3407C41.9908 52.3784 42.042 52.3996 42.0953 52.3996H47.135C47.1884 52.3996 47.2396 52.3784 47.2773 52.3407C47.3151 52.3029 47.3363 52.2517 47.3363 52.1983C47.3363 52.1449 47.3151 52.0937 47.2773 52.056C47.2396 52.0182 47.1884 51.997 47.135 51.997H42.0953Z"></path><path fill="#000001" d="M55.8674 38.6348H48.2669C48.2153 38.6375 48.1666 38.6599 48.131 38.6974C48.0954 38.7349 48.0756 38.7846 48.0756 38.8363C48.0756 38.8881 48.0954 38.9378 48.131 38.9753C48.1666 39.0128 48.2153 39.0352 48.2669 39.0379H55.8674C55.919 39.0352 55.9676 39.0128 56.0032 38.9753C56.0388 38.9378 56.0587 38.8881 56.0587 38.8363C56.0587 38.7846 56.0388 38.7349 56.0032 38.6974C55.9676 38.6599 55.919 38.6375 55.8674 38.6348V38.6348Z"></path><path fill="#000001" d="M11.4274 30.0085C12.0701 28.5559 12.9565 27.2239 14.0481 26.07C14.2269 25.8819 13.9425 25.5964 13.7632 25.7851C12.6428 26.9602 11.7346 28.3207 11.0792 29.8061C10.9758 30.0404 11.3234 30.2461 11.4274 30.0085Z"></path><path fill="#000001" d="M21.571 31.9748C22.2954 30.2249 23.4222 28.6705 24.86 27.4378C25.0575 27.2695 24.7709 26.9857 24.5746 27.1529C23.0828 28.43 21.9202 30.0472 21.1849 31.8681C21.0848 32.1079 21.4748 32.2124 21.571 31.9748Z"></path><path fill="#000001" d="M13.8287 53.8213C14.2085 53.62 14.6332 53.5184 15.063 53.526C15.4928 53.5336 15.9136 53.6502 16.2861 53.8648C16.8274 54.2204 17.2751 54.7013 17.5912 55.2667C18.4503 56.5361 19.9485 59.3367 20.3753 60.0517C20.3892 60.0743 20.4075 60.0939 20.4291 60.1093C20.4506 60.1247 20.4751 60.1357 20.5009 60.1416C20.5268 60.1475 20.5535 60.1482 20.5797 60.1436C20.6058 60.139 20.6307 60.1293 20.6531 60.115C20.6965 60.0878 20.7278 60.045 20.7408 59.9954C20.7538 59.9459 20.7474 59.8932 20.7229 59.8482C18.7215 56.3073 17.6072 54.0974 16.4505 53.4952C16.0301 53.2674 15.5617 53.1424 15.0836 53.1307C14.6056 53.1189 14.1316 53.2206 13.7005 53.4275C13.1807 53.7476 12.7744 54.2227 12.5391 54.786C12.3037 55.3493 12.2511 55.9722 12.3888 56.5669C12.3959 56.592 12.4079 56.6154 12.4241 56.6358C12.4403 56.6561 12.4604 56.6731 12.4832 56.6858C12.506 56.6984 12.5311 56.7064 12.5569 56.7093C12.5828 56.7122 12.609 56.71 12.6341 56.7028C12.684 56.6874 12.7264 56.654 12.7529 56.609C12.7795 56.5641 12.7883 56.5108 12.7776 56.4597C12.663 55.9652 12.7022 55.4475 12.8901 54.976C13.0779 54.5044 13.4054 54.1015 13.8287 53.8213V53.8213Z"></path><path fill="#000001" d="M70.4 84.282L77.1188 87.6876C77.3498 87.8047 77.5538 87.4571 77.3223 87.34L70.6035 83.9338C70.373 83.8167 70.169 84.1643 70.4 84.282Z"></path><path fill="#000001" d="M74.3451 91.135C74.3593 91.0835 74.3524 91.0284 74.326 90.9819C74.2996 90.9354 74.2559 90.9012 74.2043 90.887C72.3116 90.6164 70.4113 90.4147 68.5036 90.282C68.2451 90.2638 68.2462 90.667 68.5036 90.6851C70.3736 90.8157 72.2381 91.0133 74.0971 91.278C74.1489 91.2906 74.2036 91.2828 74.2497 91.2562C74.2959 91.2296 74.3301 91.1862 74.3451 91.135V91.135Z"></path><path fill="#000001" d="M61.8139 65.3637L58.0646 68.5536C57.8666 68.7219 58.1526 69.0058 58.3495 68.8386L62.0988 65.6485C62.2968 65.4802 62.0103 65.1959 61.8139 65.3637Z"></path><path fill="#000001" d="M57.8325 68.2159C59.1158 67.1926 60.3744 66.1404 61.6082 65.0595C61.8035 64.8884 61.5175 64.6041 61.3228 64.7746C60.0886 65.8552 58.8302 66.9073 57.5476 67.931C57.3446 68.0927 57.6312 68.3765 57.8325 68.2159Z"></path><path fill="#000001" d="M48.4897 99H45.7155C45.6638 99.0027 45.6152 99.0251 45.5796 99.0626C45.544 99.1001 45.5241 99.1499 45.5241 99.2016C45.5241 99.2533 45.544 99.303 45.5796 99.3405C45.6152 99.378 45.6638 99.4005 45.7155 99.4032H48.4897C48.5413 99.4005 48.5899 99.378 48.6255 99.3405C48.6611 99.303 48.681 99.2533 48.681 99.2016C48.681 99.1499 48.6611 99.1001 48.6255 99.0626C48.5899 99.0251 48.5413 99.0027 48.4897 99V99Z"></path><path fill="#000001" d="M4.78885 53.0348C4.73778 53.0366 4.68928 53.0577 4.65314 53.0938C4.61701 53.13 4.59593 53.1785 4.59415 53.2295V56.4993C4.59685 56.5509 4.61926 56.5996 4.65677 56.6352C4.69427 56.6708 4.74401 56.6906 4.79572 56.6906C4.84743 56.6906 4.89717 56.6708 4.93468 56.6352C4.97218 56.5996 4.9946 56.5509 4.9973 56.4993V53.2295C4.99543 53.1761 4.97243 53.1256 4.93335 53.0891C4.89427 53.0526 4.8423 53.0331 4.78885 53.0348V53.0348Z"></path><path fill="#000001" d="M97.3665 80.6053C96.5996 80.8671 95.9344 81.3634 95.4648 82.0238C94.9952 82.6842 94.7451 83.4755 94.7496 84.2859C94.7496 84.6483 94.7496 101.268 94.7496 101.286C94.7523 101.337 94.7747 101.386 94.8122 101.422C94.8497 101.457 94.8994 101.477 94.9511 101.477C95.0029 101.477 95.0526 101.457 95.0901 101.422C95.1276 101.386 95.15 101.337 95.1527 101.286C95.1527 101.286 95.1527 84.3585 95.1527 84.2688C95.1767 83.3685 95.5503 82.5129 96.1943 81.8834C96.8383 81.2538 97.7021 80.8997 98.6027 80.8961C99.5033 80.8925 100.37 81.2398 101.019 81.8642C101.668 82.4887 102.048 83.3412 102.079 84.2413C102.079 84.4278 102.076 84.6142 102.079 84.8007C102.082 84.8523 102.105 84.9009 102.142 84.9365C102.18 84.9721 102.229 84.992 102.281 84.992C102.333 84.992 102.382 84.9721 102.42 84.9365C102.457 84.9009 102.48 84.8523 102.483 84.8007C102.522 84.1976 102.451 83.5924 102.275 83.0143C102.114 82.5315 101.859 82.0854 101.525 81.7022C101.19 81.319 100.782 81.0061 100.325 80.782C99.8684 80.5578 99.3716 80.4267 98.8636 80.3963C98.3556 80.366 97.8467 80.437 97.3665 80.6053Z"></path><path fill="#000001" d="M101.82 79.86C100.986 79.326 100.033 79.0067 99.0457 78.9306C98.0585 78.8545 97.0678 79.0239 96.162 79.4238C95.269 79.8467 94.5149 80.515 93.9878 81.3507C93.4606 82.1863 93.1823 83.1548 93.1854 84.1428C93.1821 84.7374 93.1854 100.965 93.1854 100.965C93.2079 102.84 91.9715 104.915 89.1407 104.996C86.741 105.063 79.4002 104.949 53.0579 104.996C53.0314 104.996 53.0052 105.002 52.981 105.013C52.9567 105.024 52.9349 105.039 52.9168 105.059C52.8987 105.078 52.8846 105.101 52.8754 105.126C52.8662 105.151 52.8621 105.177 52.8632 105.204C52.8651 105.255 52.8863 105.303 52.9224 105.34C52.9585 105.376 53.0069 105.397 53.0579 105.399H89.1231C89.6943 105.414 90.2629 105.316 90.7964 105.112C91.3299 104.907 91.8178 104.599 92.2324 104.206C92.6469 103.813 92.9799 103.342 93.2123 102.82C93.4447 102.298 93.572 101.735 93.5869 101.164C93.5869 101.126 93.5869 85.1345 93.5869 85.1345C93.5367 84.3322 93.6052 83.5269 93.7904 82.7447C95.3903 77.6072 104.006 78.2182 103.643 84.7984C103.643 84.8518 103.664 84.903 103.702 84.9408C103.74 84.9785 103.791 84.9997 103.844 84.9997C103.898 84.9997 103.949 84.9785 103.987 84.9408C104.024 84.903 104.046 84.8518 104.046 84.7984C104.148 83.8516 103.996 82.8946 103.605 82.0264C103.213 81.1582 102.597 80.4103 101.82 79.86V79.86Z"></path><path fill="#000001" d="M92.62 80.6779C91.8789 81.8913 91.5014 83.2917 91.5321 84.7132C91.5321 84.7132 91.5277 100.603 91.5321 100.878C91.5398 101.184 91.4805 101.488 91.3583 101.768C91.2361 102.049 91.054 102.299 90.8248 102.502C90.3043 102.879 89.6604 103.045 89.0224 102.967H53.1157C53.0641 102.97 53.0154 102.992 52.9798 103.03C52.9442 103.067 52.9244 103.117 52.9244 103.169C52.9244 103.22 52.9442 103.27 52.9798 103.308C53.0154 103.345 53.0641 103.368 53.1157 103.37C53.1157 103.37 89.0065 103.37 89.447 103.37C89.7661 103.378 90.0836 103.323 90.3814 103.208C90.6792 103.093 90.9515 102.921 91.1827 102.701C91.4138 102.481 91.5994 102.217 91.7287 101.926C91.858 101.634 91.9286 101.319 91.9363 101C91.9363 100.992 91.9363 85.1131 91.9363 84.4729C91.9353 83.5762 92.1142 82.6884 92.4625 81.8621C92.8109 81.0359 93.3215 80.2879 93.9643 79.6627C94.607 79.0374 95.3687 78.5475 96.2042 78.222C97.0398 77.8966 97.9322 77.7422 98.8285 77.7679C99.7248 77.7937 100.607 77.9992 101.422 78.3721C102.238 78.745 102.97 79.2779 103.576 79.9391C104.181 80.6002 104.648 81.3763 104.949 82.2212C105.249 83.0661 105.377 83.9627 105.324 84.8579C105.327 84.9095 105.349 84.9581 105.387 84.9937C105.424 85.0293 105.474 85.0492 105.525 85.0492C105.577 85.0492 105.627 85.0293 105.664 84.9937C105.702 84.9581 105.724 84.9095 105.727 84.8579C105.776 83.8537 105.615 82.8504 105.252 81.9125C104.89 80.9747 104.335 80.1231 103.624 79.4129C102.868 78.6652 101.954 78.0967 100.949 77.7494C99.9446 77.4021 98.8747 77.2848 97.8185 77.4062C96.7624 77.5276 95.747 77.8846 94.8472 78.4509C93.9475 79.0171 93.1863 79.7782 92.62 80.6779V80.6779Z"></path><path fill="#000001" d="M93.6331 77.22C92.5016 78.0198 91.5795 79.0804 90.9447 80.3121C90.3099 81.5437 89.981 82.9101 89.986 84.2957C89.986 84.9161 89.986 86.3384 89.986 86.3384C89.986 86.3918 90.0072 86.443 90.045 86.4808C90.0827 86.5185 90.1339 86.5397 90.1873 86.5397C90.2407 86.5397 90.2919 86.5185 90.3297 86.4808C90.3674 86.443 90.3886 86.3918 90.3886 86.3384C90.3169 84.9956 90.3945 83.6491 90.6202 82.3234C91.0963 80.3591 92.2788 78.6388 93.9421 77.4904C95.6054 76.3421 97.6331 75.8461 99.6387 76.097C101.644 76.3479 103.487 77.3282 104.816 78.851C106.146 80.3737 106.868 82.3324 106.845 84.3535V84.7715C106.848 84.8231 106.87 84.8717 106.908 84.9073C106.945 84.9429 106.995 84.9628 107.047 84.9628C107.098 84.9628 107.148 84.9429 107.186 84.9073C107.223 84.8717 107.246 84.8231 107.248 84.7715C107.34 83.1484 106.972 81.5324 106.187 80.1089C105.402 78.6853 104.232 77.512 102.81 76.7235C101.389 75.935 99.7735 75.5634 98.1502 75.6512C96.5269 75.739 94.9613 76.2827 93.6331 77.22V77.22Z"></path><path fill="#000001" d="M73.2308 50.4092C73.3205 50.2865 73.3188 50.6765 73.2902 46.7445C73.2896 46.6912 73.2682 46.6403 73.2304 46.6026C73.1927 46.565 73.1417 46.5436 73.0884 46.5432H69.5656C69.5124 46.5439 69.4616 46.5653 69.4239 46.6029C69.3862 46.6405 69.3646 46.6913 69.3638 46.7445V50.27C69.3645 50.3233 69.386 50.3743 69.4237 50.412C69.4614 50.4497 69.5123 50.4711 69.5656 50.4719C73.4706 50.4977 73.1313 50.4939 73.2308 50.4092ZM72.8871 50.066H69.7669V46.9458H72.8871V50.066Z"></path><path fill="#000001" d="M85.6213 51.0543C86.4558 51.0553 87.2719 50.8088 87.9664 50.3459C88.6608 49.8831 89.2025 49.2247 89.5227 48.4541C89.843 47.6834 89.9276 46.8351 89.7657 46.0164C89.6039 45.1977 89.2029 44.4453 88.6134 43.8545C88.024 43.2637 87.2726 42.8609 86.4543 42.6972C85.636 42.5334 84.7874 42.616 84.016 42.9344C83.2446 43.2529 82.585 43.7929 82.1205 44.4863C81.656 45.1797 81.4076 45.9952 81.4066 46.8298C81.4058 47.3839 81.5142 47.9328 81.7256 48.4451C81.937 48.9573 82.2473 49.4229 82.6387 49.8152C83.0301 50.2076 83.4949 50.5189 84.0067 50.7315C84.5185 50.9441 85.0671 51.0538 85.6213 51.0543V51.0543ZM84.2787 43.2443C84.9879 42.9798 85.7596 42.9316 86.4962 43.1057C87.2327 43.2798 87.9012 43.6684 88.4169 44.2224C88.9326 44.7763 89.2725 45.4708 89.3936 46.2179C89.5146 46.9651 89.4114 47.7313 89.097 48.4198C88.7825 49.1083 88.271 49.6881 87.6271 50.0858C86.9831 50.4836 86.2357 50.6815 85.4793 50.6544C84.7229 50.6274 83.9915 50.3767 83.3776 49.934C82.7637 49.4913 82.2948 48.8765 82.0303 48.1674C81.6762 47.2163 81.7141 46.1636 82.1357 45.2405C82.5573 44.3174 83.3281 43.5995 84.2787 43.2443V43.2443Z"></path><path fill="#000001" d="M82.5699 74.7335C83.0173 74.5612 83.4975 74.4906 83.9757 74.5267C84.6318 74.6078 85.2978 74.5335 85.9199 74.31C86.1429 74.2119 86.3414 74.0656 86.5012 73.8817C86.6609 73.6978 86.778 73.4808 86.8439 73.2463C86.8888 72.9967 86.8623 72.7395 86.7674 72.5043C86.6725 72.2691 86.5132 72.0655 86.3077 71.9169C85.3644 71.1959 84.2006 71.5154 83.1177 71.4082C82.6397 71.3603 82.1772 71.23 82.0694 70.7102C82.0171 70.4885 82.0208 70.2573 82.08 70.0374C82.1393 69.8174 82.2522 69.6157 82.4087 69.4502C82.7836 69.1256 83.2579 68.9385 83.7535 68.92C84.6266 68.8783 85.5017 68.9269 86.3649 69.0652C86.6217 69.0971 86.6195 68.6934 86.3649 68.6626C85.2573 68.4488 84.1197 68.4427 83.0099 68.6444C82.5329 68.7808 82.1221 69.0867 81.8549 69.5046C81.6343 69.9195 81.5755 70.4014 81.6899 70.8571C81.9704 72.0269 83.5109 71.8245 84.4179 71.8207C84.9298 71.7849 85.4418 71.8891 85.899 72.1221C86.1219 72.2261 86.2963 72.4119 86.3861 72.6409C86.4758 72.8699 86.4742 73.1246 86.3814 73.3524C85.9628 74.1807 85.0064 74.1664 84.1374 74.1444C83.7486 74.0833 83.3515 74.0999 82.9692 74.1931C82.5869 74.2864 82.2268 74.4546 81.9099 74.6878C81.744 74.8495 81.6146 75.0448 81.5303 75.2606C81.4461 75.4763 81.4089 75.7076 81.4212 75.9389C81.4335 76.1702 81.4951 76.3962 81.6019 76.6018C81.7087 76.8074 81.8581 76.9878 82.0402 77.1309C82.4579 77.4074 82.9473 77.5555 83.4482 77.5572C83.9296 77.5523 84.4108 77.5769 84.8892 77.6309C85.3095 77.6778 85.6995 77.8728 85.9892 78.1809C86.4842 78.8827 85.8715 79.7654 84.9514 79.8716C83.8468 80.0139 82.7293 80.0272 81.6217 79.9112C81.3643 79.8837 81.3659 80.2868 81.6217 80.3143C82.8911 80.4493 84.1734 80.4032 85.4299 80.1774C86.3368 79.8699 86.9044 78.8249 86.3533 77.9999C86.0904 77.6589 85.7197 77.417 85.3017 77.3135C84.8491 77.2018 84.3833 77.153 83.9174 77.1683C83.415 77.197 82.9128 77.1101 82.4494 76.9142C82.2489 76.8046 82.0836 76.6404 81.9725 76.4408C81.8615 76.2411 81.8092 76.014 81.8218 75.7859C81.8344 75.5577 81.9113 75.3378 82.0437 75.1516C82.1761 74.9653 82.3585 74.8204 82.5699 74.7335V74.7335Z"></path><path fill="#000001" d="M71.4181 34.111C71.4874 34.1506 71.1981 34.1374 76.2091 34.1374C76.2438 34.1355 76.2775 34.1249 76.3071 34.1067C76.3367 34.0884 76.3612 34.063 76.3785 34.0328C76.3958 34.0027 76.4052 33.9687 76.406 33.9339C76.4068 33.8991 76.3988 33.8647 76.3829 33.8338L74.0361 29.8056C74.008 29.7594 73.9628 29.7262 73.9103 29.7133C73.8578 29.7005 73.8024 29.7089 73.7561 29.7369C73.6824 29.782 73.8496 29.5372 71.3405 33.8338C71.3274 33.8571 71.319 33.8828 71.3158 33.9093C71.3126 33.9358 71.3147 33.9627 71.3219 33.9885C71.3291 34.0142 71.3413 34.0383 71.3578 34.0593C71.3743 34.0803 71.3948 34.0979 71.4181 34.111V34.111ZM73.8617 30.3072L75.8582 33.7343H71.8652C71.9494 33.5907 73.8183 30.3831 73.8617 30.305V30.3072Z"></path><path fill="#000001" d="M75.9622 17.5835C76.1238 17.5796 76.2846 17.6087 76.4346 17.6692C76.5846 17.7296 76.7207 17.82 76.8345 17.9349C76.9483 18.0498 77.0375 18.1867 77.0965 18.3373C77.1555 18.4879 77.1831 18.6489 77.1777 18.8105V20.9445C77.1784 20.9978 77.1998 21.0486 77.2374 21.0863C77.275 21.124 77.3257 21.1455 77.379 21.1464H80.9413C80.9946 21.1457 81.0456 21.1242 81.0833 21.0865C81.121 21.0488 81.1425 20.9978 81.1432 20.9445C81.1668 17.6803 81.1905 17.4146 80.9529 16.5649C80.684 15.7117 80.1505 14.9662 79.4296 14.4365C78.7087 13.9067 77.8379 13.6203 76.9434 13.6185H75.9622C75.9089 13.6192 75.8581 13.6407 75.8204 13.6782C75.7827 13.7158 75.7612 13.7666 75.7603 13.8198V17.38C75.7602 17.4337 75.7813 17.4853 75.8192 17.5235C75.857 17.5616 75.9084 17.5832 75.9622 17.5835V17.5835ZM76.1635 14.0217H76.945C77.4692 14.0201 77.9881 14.1271 78.4689 14.336C78.9497 14.545 79.382 14.8512 79.7386 15.2355C80.0951 15.6198 80.3682 16.0738 80.5405 16.5689C80.7129 17.064 80.7808 17.5894 80.74 18.112V20.7432H77.5808V19.4617C77.6687 18.8825 77.5538 18.2908 77.2558 17.7864C77.1241 17.6178 76.9592 17.478 76.7713 17.3758C76.5834 17.2735 76.3765 17.2109 76.1635 17.1919V14.0217Z"></path><path fill="#000001" d="M77.2294 70.763C77.2804 70.7612 77.3289 70.7401 77.365 70.704C77.4012 70.6679 77.4223 70.6194 77.424 70.5683V62.3381H82.9691C82.9966 62.3367 83.0234 62.3299 83.0482 62.318C83.0729 62.3062 83.0951 62.2896 83.1134 62.2691C83.1317 62.2487 83.1458 62.2248 83.1548 62.1989C83.1639 62.173 83.1677 62.1455 83.166 62.1181C83.16 61.9872 81.5601 59.3104 78.2463 53.6289C78.2282 53.5989 78.2026 53.5742 78.1721 53.557C78.1416 53.5398 78.1072 53.5308 78.0722 53.5308C78.0372 53.5308 78.0028 53.5398 77.9723 53.557C77.9418 53.5742 77.9163 53.5989 77.8981 53.6289L73.0031 62.034C72.9775 62.0808 72.9711 62.1358 72.9855 62.1872C72.9999 62.2386 73.0339 62.2823 73.0801 62.309C73.1522 62.3491 72.9256 62.3348 77.0225 62.3348V70.565C77.023 70.5916 77.0288 70.6179 77.0395 70.6422C77.0502 70.6666 77.0655 70.6886 77.0848 70.707C77.104 70.7254 77.1267 70.7398 77.1515 70.7494C77.1763 70.7591 77.2028 70.7637 77.2294 70.763ZM73.5262 61.935L78.0725 54.1316L82.6182 61.935H77.424V60.6601C77.4213 60.6084 77.3989 60.5598 77.3614 60.5242C77.3239 60.4886 77.2742 60.4687 77.2225 60.4687C77.1708 60.4687 77.121 60.4886 77.0835 60.5242C77.046 60.5598 77.0236 60.6084 77.0209 60.6601V61.935H73.5262Z"></path><path fill="#000001" d="M74.9469 50.8513V42.1327C74.9442 42.0811 74.9217 42.0324 74.8842 41.9969C74.8467 41.9613 74.797 41.9414 74.7453 41.9414C74.6936 41.9414 74.6438 41.9613 74.6063 41.9969C74.5688 42.0324 74.5464 42.0811 74.5437 42.1327V50.8513C74.5464 50.903 74.5688 50.9516 74.6063 50.9872C74.6438 51.0228 74.6936 51.0426 74.7453 51.0426C74.797 51.0426 74.8467 51.0228 74.8842 50.9872C74.9217 50.9516 74.9442 50.903 74.9469 50.8513V50.8513Z"></path><path fill="#000001" d="M78.1176 41.9342V29.4492C78.1149 29.3975 78.0925 29.3489 78.055 29.3133C78.0175 29.2777 77.9678 29.2579 77.9161 29.2579C77.8643 29.2579 77.8146 29.2777 77.7771 29.3133C77.7396 29.3489 77.7172 29.3975 77.7145 29.4492V41.9342C77.7172 41.9858 77.7396 42.0345 77.7771 42.0701C77.8146 42.1057 77.8643 42.1255 77.9161 42.1255C77.9678 42.1255 78.0175 42.1057 78.055 42.0701C78.0925 42.0345 78.1149 41.9858 78.1176 41.9342V41.9342Z"></path><path fill="#000001" d="M80.3 35.8908V26.3791C80.2973 26.3275 80.2749 26.2788 80.2374 26.2432C80.1999 26.2077 80.1501 26.1878 80.0984 26.1878C80.0467 26.1878 79.997 26.2077 79.9595 26.2432C79.922 26.2788 79.8995 26.3275 79.8969 26.3791V35.8908C79.8995 35.9425 79.922 35.9911 79.9595 36.0267C79.997 36.0623 80.0467 36.0821 80.0984 36.0821C80.1501 36.0821 80.1999 36.0623 80.2374 36.0267C80.2749 35.9911 80.2973 35.9425 80.3 35.8908Z"></path><path fill="#000001" d="M51.0516 80.0976C53.7969 79.0691 56.6548 78.3708 59.565 78.0175C59.8191 77.9867 59.8219 77.5835 59.565 77.6143C56.6179 77.9638 53.7237 78.667 50.9449 79.7087C50.7034 79.7989 50.8079 80.19 51.0516 80.0976Z"></path><path fill="#000001" d="M59.0892 75.845C56.1067 76.3243 53.188 77.1396 50.3888 78.2755C50.1512 78.3717 50.2551 78.7617 50.4988 78.6643C53.2984 77.5299 56.217 76.7146 59.1992 76.2339C59.4517 76.1937 59.345 75.8049 59.0892 75.845Z"></path><path fill="#000001" d="M8.1499 20.1735C8.2962 20.3852 8.6449 20.1839 8.4975 19.97L5.2525 15.2631C5.1062 15.0508 4.7575 15.2521 4.90435 15.4666L8.1499 20.1735Z"></path><path fill="#000001" d="M10.7888 19.8028C10.8438 20.0563 11.2343 19.9491 11.1776 19.6961C11.0044 18.914 9.63764 12.7485 9.63764 12.7485C9.58264 12.4955 9.19269 12.6022 9.24879 12.8585C9.41984 13.6367 10.6012 18.958 10.7888 19.8028Z"></path></svg>