<svg xmlns="http://www.w3.org/2000/svg" viewBox="0 0 200 200" height="400" width="400"><g><path d="M130.586,64.98c-.569,1.581-1.045,3.2-1.458,4.827L139.2,66.983C136.565,66.356,130.816,65.033,130.586,64.98Z" fill="#ffaaaa"></path><path d="M129.837,64.81a54.1,54.1,0,0,0-1.555,5.234l.846-.237c.413-1.631.889-3.246,1.458-4.827Z" fill="#ffaaaa"></path><path d="M159.72,88.61l-.03,0c-.012,0-.021.008-.034.009a34.546,34.546,0,0,1-9.49-.634c-.483-.1-.278-.837.2-.738a33.509,33.509,0,0,0,8.965.624c-.052-1.926,0,6.617,0-22.955A23.3,23.3,0,0,1,144.6,62.245a.383.383,0,0,1,.386-.661,22.742,22.742,0,0,0,14.574,2.537.248.248,0,0,1,.038,0,21.836,21.836,0,0,0,9.415-3.891c-.092-10.132.2-11.559.092-16.779a.387.387,0,0,1-.383.382h-20.83a.4.4,0,0,1-.383-.382c.049,1.931.014,3.864-.035,5.795-9.18,1.106-14.056,6.08-17.363,14.841.278.063,10.659,2.454,10.767,2.512a.332.332,0,0,1,.217.231l.012.019c1.166,3.032,12.687,31.72,12.79,31.977l14.8.379a.389.389,0,0,0,.383-.383c.285-2.713.3-9.592.3-12.324A34.8,34.8,0,0,1,159.72,88.61Z" fill="#ffaaaa"></path><path d="M141.09,66.832a.39.39,0,0,1-.459.489c-.267-.061-1.218-.288-1.427-.338l-20.678,5.8c.734.617,37.534,31.593,37.582,31.675C154.377,99.987,141.154,66.933,141.09,66.832Z" fill="#d5e04f"></path><path d="M155.39,105.14v-.379s-3.069-2.527-3.17-2.612l-8.032-2.34a.384.384,0,0,1,.2-.74c.34.09,4.593,1.34,6.382,1.861l-33.135-27.9c-3.375.945-22.111,6.184-28.108,7.85-.143.307-15.081,33.466-16.231,36.184q-1.56,3.7-3.049,7.425c-.18.453-.92.255-.738-.2.227-.572,6.27-14.947,7.5-17.724,1.272-2.886,11.408-25.105,11.551-25.412-4.661,1.3-25.08,6.974-30.631,8.5-.547.413-1.1.822-1.644,1.236-.387.292-.757-.344-.4-.645a.37.37,0,0,0-.162.416C66.65,120.629,68.508,125.905,68.8,126.5c.018-.083.025-.113.049-.223a.362.362,0,0,1,.592-.189c.151.1.073-.026,1.12,3.049,1.211-.364,1.51-.35,3.411-.858a1.18,1.18,0,0,0,.851-.624c.732-1.175,1.745-4.376,3.426-6.341a1.8,1.8,0,0,1,3.1.155,11,11,0,0,1-.178,5.3l.556-.166c1.844-3.82,2.267-6.236,4.661-7.356a1.936,1.936,0,0,1,2.413.609,3.953,3.953,0,0,1,.332,2.475c-.236,2.535-1.1,3.584,1.257-.883a12.582,12.582,0,0,1,1.356-2.087,2.382,2.382,0,0,1,.9-.715,1.707,1.707,0,0,1,2.095,1.346,5.781,5.781,0,0,1-.139,2.765C101.477,120.709,155.041,105.233,155.39,105.14Z" fill="#d5e04f"></path><path d="M89.356,94.31l28.429-7.927a.383.383,0,0,0-.2-.738L89.153,93.572a.383.383,0,0,0,.2.738Z" fill="#000000"></path><path d="M91.231,99.82a.383.383,0,0,0,.2.738L119.761,92.1a.383.383,0,0,0-.2-.738C113.343,93.218,91.328,99.79,91.231,99.82Z" fill="#000000"></path><path d="M93.084,105.914a.383.383,0,0,0,.2.739l27.974-8.436a.383.383,0,0,0-.2-.738Z" fill="#000000"></path><path d="M135.3,76.606l3.338-5.358c.261-.419-.4-.8-.661-.386l-3.338,5.358C134.376,76.639,135.038,77.023,135.3,76.606Z" fill="#000000"></path><path d="M31.966,114.338c-1.087-1.993-2.605-3.944-4.9-4.525a8.109,8.109,0,0,0-6.511,1.246c-6.353,4.3-6.282,12.827-15.274,16.369a.389.389,0,0,0-.229.562,35.91,35.91,0,0,0,9.684,11.322,39,39,0,0,1,6.21-7.3c3.907-3.587,8.608-5.794,13.973-5.474C34.572,123.057,33.648,117.421,31.966,114.338Zm-1.074,5.832c-.272,2.309-2.777,3.417-4.924,3.053a4.23,4.23,0,0,1-3.177-3.584,4.585,4.585,0,0,1,1.236-4.207C26.713,113.163,31.338,116.378,30.892,120.17Z" fill="#000000"></path><path d="M67.244,93.632l-6.614-1.6c-.478-.116-.682.622-.2.738l6.614,1.6C67.52,94.486,67.724,93.748,67.244,93.632Z" fill="#000000"></path><path d="M100.194,58.337l-4.108,8.6,10.639-3.1Z" fill="#ffc431"></path><path d="M83.318,70.656,95.1,67.222c.028-.059,3.459-7.255,3.946-8.267C92.7,63.674,84.212,69.99,83.318,70.656Z" fill="#ffc431"></path><path d="M101.5,58.438l6.1,5.142,7.339-2.138C111.112,60.582,101.716,58.485,101.5,58.438Z" fill="#ffc431"></path><path d="M129.046,56.94l-6.491-19.516a.387.387,0,0,0-.47-.267c-.726.2-19.926,5.6-21.481,6.038,0,.169.074,3.872.074,3.872a.383.383,0,0,1-.765,0c-.093-3.329-.047-1.684-.075-3.656L41.015,59.946a.361.361,0,0,0-.267.471c.8,2.268,6.8,19.342,7.073,20.178a.392.392,0,0,0,.471.267c.722-.2,31.03-9.041,32.934-9.6.586-.437,17.592-13.087,18.57-13.813a.355.355,0,0,1,.422-.082c.394.076,15.878,3.546,16.244,3.628l12.316-3.588A.388.388,0,0,0,129.046,56.94ZM46.714,72.328c.092-.278,1.569-4.713,2.214-6.653.155-.465.894-.264.738.2-.092.278-1.568,4.712-2.214,6.652C47.3,73,46.558,72.8,46.714,72.328Zm3.358-.669c.1-.293,1.634-4.976,2.306-7.025.153-.466.892-.265.738.2-.1.293-1.633,4.976-2.306,7.025C50.657,72.329,49.918,72.128,50.072,71.659Zm3.336-.741s1.847-5.432,2.56-7.689a.387.387,0,0,1,.639-.169c.242.226,4.128,3.86,5.886,5.387a.382.382,0,0,1-.169.64c-.346.088-5.971,1.642-8.445,2.3A.386.386,0,0,1,53.408,70.918Zm10.341-2.83a4.107,4.107,0,0,1-1.381-3.447A3.4,3.4,0,0,1,65.421,61.5a3.284,3.284,0,0,1,3.187,2.262C69.631,66.908,66.021,69.861,63.749,68.088Zm12.9-3.079q-2.406.674-4.824,1.309a.386.386,0,0,1-.47-.267c-.066-.228-1.108-3.8-1.535-5.366a.387.387,0,0,1,.268-.47l4.7-1.392a.389.389,0,0,1,.471.267c.069.225,1.206,3.848,1.66,5.448A.384.384,0,0,1,76.654,65.009ZM77.928,63.8l2.214-6.652c.155-.466.894-.265.738.2-.092.278-1.568,4.713-2.214,6.653C78.511,64.468,77.772,64.267,77.928,63.8Zm6.4-7.49-2.306,7.025c-.153.467-.892.266-.738-.2.1-.293,1.634-4.977,2.306-7.025C83.745,55.638,84.484,55.839,84.33,56.308Zm25.811-8.414c.319-.1,5.482-1.658,7.744-2.342a.383.383,0,0,1,.2.738c-.319.1-5.482,1.658-7.743,2.342a.383.383,0,0,1-.2-.738Zm1.4,3.767a.383.383,0,0,1-.2-.738c.319-.1,5.482-1.658,7.743-2.342a.383.383,0,0,1,.2.738C118.963,49.418,113.8,50.977,111.539,51.661Zm8.808.637c-.319.1-5.482,1.658-7.743,2.342a.383.383,0,0,1-.2-.738c.319-.1,5.482-1.658,7.744-2.342a.383.383,0,0,1,.2.738Z" fill="#ffc431"></path><path d="M49.726,149.681a.4.4,0,0,1,.28-.369,20.2,20.2,0,0,0,5.864-3.127,69.672,69.672,0,0,0-5.491-10.5,22.822,22.822,0,0,0-3.339-4.12,20.588,20.588,0,0,0-12.123-5.036c-5.266-.347-10.039,1.862-13.973,5.474-8.769,8.051-13.175,19.825-14.837,31.574-.034.238-.154.6-.034.821a3.04,3.04,0,0,0,.345.432,32.107,32.107,0,0,0,13.151,9.241c8.134,3.107,18.4,3.7,26.687,2.609,1.219-.16,3.754-.626,3.923-.714a.382.382,0,0,1-.453-.369C49.708,173.582,49.409,177.926,49.726,149.681Zm-.61.709a36.315,36.315,0,0,1-16.864.072,22.566,22.566,0,0,1-7.554-3.028c-.41-.268-.024-.935.387-.661,4.775,3.187,14.4,5.171,23.827,2.879a.383.383,0,0,1,.2.738Z" fill="#ffe660"></path><path d="M24.027,115.432a4.585,4.585,0,0,0-1.236,4.207,4.23,4.23,0,0,0,3.177,3.584c2.152.365,4.651-.74,4.924-3.053C31.34,116.364,26.706,113.169,24.027,115.432Z" fill="#ae877c"></path><path d="M111.335,50.923a.383.383,0,0,0,.2.738c2.261-.684,7.424-2.243,7.743-2.342a.383.383,0,0,0-.2-.738C116.817,49.265,111.654,50.825,111.335,50.923Z" fill="#000000"></path><path d="M62.493,68.447c-1.758-1.527-5.644-5.161-5.886-5.387a.387.387,0,0,0-.639.169c-.713,2.257-2.56,7.689-2.56,7.689a.387.387,0,0,0,.471.471c2.474-.66,8.1-2.214,8.445-2.3A.382.382,0,0,0,62.493,68.447Z" fill="#ffaaaa"></path><path d="M76.922,64.538c-.454-1.6-1.591-5.223-1.66-5.448a.387.387,0,0,0-.471-.267l-4.7,1.392a.387.387,0,0,0-.268.47c.427,1.566,1.469,5.138,1.535,5.366a.386.386,0,0,0,.47.267q2.416-.64,4.824-1.309A.384.384,0,0,0,76.922,64.538Z" fill="#c4aff9"></path><path d="M110.232,190.192l-.112-.112v3.03a.383.383,0,0,0,.765,0v-2.968l-.19.109A.39.39,0,0,1,110.232,190.192Z" fill="#000000"></path><path d="M98.222,177.982c-.011.125-.07.923-.007,4.5a.383.383,0,0,0,.765,0V178.94C98.313,178.272,98.2,178.221,98.222,177.982Z" fill="#000000"></path><path d="M52.378,64.634c-.672,2.049-2.209,6.732-2.306,7.025-.153.469.585.67.738.2l2.306-7.025C53.27,64.369,52.531,64.168,52.378,64.634Z" fill="#000000"></path><path d="M48.928,65.675c-.645,1.94-2.122,6.375-2.214,6.653-.156.468.583.669.738.2.646-1.94,2.122-6.374,2.214-6.652C49.822,65.411,49.083,65.21,48.928,65.675Z" fill="#000000"></path><path d="M161.23,141.162c-.734-2.205-6.491-19.516-6.491-19.516a.388.388,0,0,0-.47-.267c-.726.195-64.6,18.159-65.981,18.548a78.859,78.859,0,0,1-11.436,18,60.441,60.441,0,0,0,2.311,6.917.384.384,0,0,0,.432.176c1.284-.36,81.326-23.374,81.367-23.386A.388.388,0,0,0,161.23,141.162Zm-2.958-.73-4.76-1.679c-.462-.163-.262-.9.2-.738l4.76,1.679C158.937,139.857,158.737,140.6,158.272,140.432Zm-8.212-12.986a27.551,27.551,0,0,0,2.667-2.862c.31-.383.848.162.541.541a27.762,27.762,0,0,1-2.666,2.863C150.241,128.323,149.7,127.783,150.06,127.446Zm-16.094,17.411L130.347,132.6a.383.383,0,0,1,.738-.2c1.24,4.074,2.412,8.168,3.619,12.252a.383.383,0,0,1-.738.2ZM101.8,140.126l3.619,12.252a.383.383,0,0,1-.738.2c-1.24-4.074-2.413-8.168-3.619-12.252a.383.383,0,0,1,.738-.2ZM80.313,162.51a12.332,12.332,0,0,0,2.429-2.548c.283-.4.945-.017.661.386a12.973,12.973,0,0,1-2.549,2.7C80.471,163.354,79.926,162.815,80.313,162.51Z" fill="#b6dbff"></path><path d="M123.842,178.4a.388.388,0,0,1-.381-.394c0-.027,1.41-4.627,1.424-4.671-1.564-1.668-5.581-5.978-6.044-6.449a.385.385,0,0,0-.463-.06c-.7.388-19.922,10.829-20.01,10.9a.382.382,0,0,0-.041.567l11.905,11.905a.39.39,0,0,0,.463.059s17.921-10.319,18.51-10.667v-.4C127.429,178.884,125.588,178.587,123.842,178.4Zm-11.163,1.956c.091-1.524.319-3.036.414-4.559a.372.372,0,0,1,.068-.193.339.339,0,0,1,.416-.176c1.542.5,3.105.936,4.656,1.408a.388.388,0,0,1,.091.7c-.209.13-3.571,2.26-5.069,3.151A.386.386,0,0,1,112.679,180.355Z" fill="#ffe660"></path><path d="M118.233,176.835c-1.551-.472-3.114-.907-4.656-1.408a.339.339,0,0,0-.416.176.372.372,0,0,0-.068.193c-.095,1.523-.323,3.035-.414,4.559a.387.387,0,0,0,.576.331c1.5-.891,4.86-3.021,5.069-3.151A.388.388,0,0,0,118.233,176.835Z" fill="#000000"></path><path d="M129.205,183.218a.383.383,0,0,0,.766,0v-3.9l-.766-.13C129.205,179.948,129.187,182.159,129.205,183.218Z" fill="#000000"></path><path d="M149.752,164.775l-4.648-2.6a.383.383,0,0,0-.386.661l4.8,2.679v-.391A.378.378,0,0,1,149.752,164.775Z" fill="#000000"></path><path d="M144.718,180.991c4.8,2.684,4.916,2.766,5.023,2.788a.358.358,0,0,1-.253-.3c-.02-.1-.009-.555-.009-.705L145.1,180.33C144.674,180.09,144.288,180.751,144.718,180.991Z" fill="#000000"></path><path d="M91.422,132.2c-.156.443-.831.276-.746-.148.01-.186,1.8-5.141,2.826-8.292a8.809,8.809,0,0,0,.594-3.034c-.035-.774-.369-1.331-1.134-1.344-.17.009-.451.3-.6.468-1.066,1.218-1.785,3.034-5.639,10.565-.2.389-.726.132-.7-.236a33.674,33.674,0,0,0,2.007-5.829,13.685,13.685,0,0,0,.386-2.945,1.527,1.527,0,0,0-.619-1.45c-.782-.39-1.742.264-2.24.827-1.867,2.115-2.316,6.135-6.068,10.915-.293.373-.77-.109-.6-.491,1.068-2.423,2.252-6.182,1.891-8.818a2.031,2.031,0,0,0-.166-.7.955.955,0,0,0-1.266-.305,4.6,4.6,0,0,0-1.52,1.857c-1.1,1.908-1.351,2.944-2.287,4.714a2.132,2.132,0,0,1-.863.877,6.022,6.022,0,0,1-1.413.39q-1.437.306-2.837.749c-.471.148-.671-.591-.2-.738.112-.036.225-.063.337-.1-1.046-3.069-.967-2.944-1.12-3.049a.363.363,0,0,0-.592.189,31.234,31.234,0,0,1-5.644,12.361c-3.292,4.415-7.912,8.971-13.2,10.677a.4.4,0,0,0-.28.369s0,25.905,0,25.921a.381.381,0,0,0,.453.369,32.5,32.5,0,0,0,4.658-1.4c6.512-2.513,15.171-8.429,22.445-17.151a79.453,79.453,0,0,0,11.006-17.5,97.41,97.41,0,0,0,3.962-10.055c.614-1.751,2.017-5.675,2.4-7.344C94.328,123.9,92.773,128.344,91.422,132.2Zm-7.108,2.431q.424-1.113.847-2.226c.174-.457.914-.257.738.2l-.847,2.226C84.878,135.288,84.139,135.089,84.314,134.628Zm-5.35-1.318q-.435.959-.869,1.916c-.2.449-.862.059-.661-.386l.869-1.916C78.506,132.475,79.165,132.865,78.964,133.31ZM59.551,167a21.587,21.587,0,0,1-3.48,2.158c-.441.218-.828-.442-.387-.66a21.62,21.62,0,0,0,3.48-2.159C59.557,166.041,59.937,166.706,59.551,167Z" fill="#ae877c"></path><path d="M167.879,156.315a.334.334,0,0,0-.181-.3s-4.745-2.65-4.949-2.765c-.431-.24-.817.421-.387.661l4.324,2.416c.209-.1.419-.2.625-.312A.386.386,0,0,1,167.879,156.315Z" fill="#000000"></path><path d="M142.158,185.138c.074-4.223.025-4.187-.014-4a.39.39,0,0,1-.471.268l-.281-.052v3.788a.383.383,0,0,0,.766,0Z" fill="#000000"></path><path d="M167.879,156.315a.385.385,0,0,0-.568-.3c-.206.108-17.606,8.783-17.606,8.783a.38.38,0,0,0-.19.33c.03,17.6-.059,18.189-.027,18.351a.343.343,0,0,0,.244.295l.03.012a.32.32,0,0,0,.106.015c.192,0,17.73-9.525,17.83-9.581a.38.38,0,0,0,.189-.331C167.877,154.937,167.891,156.444,167.879,156.315Zm-10.087,15.462a2.2,2.2,0,0,1-1.194-2.165,3.368,3.368,0,0,1,2.126-2.472,1.956,1.956,0,0,1,1.724-.106c1.306.708,1.279,2.725.166,3.782C159.919,171.476,158.777,172.162,157.792,171.777Z" fill="#c4aff9"></path><path d="M160.448,167.034a1.956,1.956,0,0,0-1.724.106,3.368,3.368,0,0,0-2.126,2.472,2.2,2.2,0,0,0,1.194,2.165c.985.385,2.127-.3,2.822-.961C161.737,169.75,161.744,167.737,160.448,167.034Z" fill="#000000"></path><path d="M145.278,164.473c-17.327-2.455-16.8-2.429-16.962-2.3a.324.324,0,0,0-.154.2c-.409,1.42-4.327,14.409-4.689,15.533a.387.387,0,0,0,.279.472c.2.052.794.017,4.788.689.222.037,13.04,2.308,13.133,2.326a.39.39,0,0,0,.471-.268l3.4-16.19A.387.387,0,0,0,145.278,164.473Zm-7.667,4.913c-.277,1.339-.587,2.675-.832,4.02a.326.326,0,0,1-.371.265c-.092.012.2.059-5.083-.989a.384.384,0,0,1-.267-.471c.365-1.276.774-2.54,1.162-3.81a.392.392,0,0,1,.47-.267l4.654.781A.387.387,0,0,1,137.611,169.386Z" fill="#ffd7d7"></path><path d="M137.344,168.915l-4.654-.781a.392.392,0,0,0-.47.267c-.388,1.27-.8,2.534-1.162,3.81a.384.384,0,0,0,.267.471c5.283,1.048,4.991,1,5.083.989a.324.324,0,0,0,.371-.265l.832-4.02A.387.387,0,0,0,137.344,168.915Z" fill="#000000"></path><path d="M168.381,31.5c-.633-6.424-1.6-10.813-7.626-13.28a27.872,27.872,0,0,0-6.9-1.8c-7.561-1-13.881-.751-21.468-.236a46.908,46.908,0,0,0-8.013.905c-3.163.773-4.621,1.639-7.333,2.432-1.521.445-3.219.584-4.192,2.19a2.276,2.276,0,0,0-.125,2.151c.859,1.8,3.337,1.268,5.7,1.344a21.377,21.377,0,0,0-.562,2.813,9.43,9.43,0,0,0-.041,3.371c.433,2.462,4.129,2.952,5.658-.469q.03.958.081,1.915a4.157,4.157,0,0,0,.826,2.689,2.083,2.083,0,0,0,2.556.359,4.348,4.348,0,0,0,2.02-2.757,6.032,6.032,0,0,0,.071.817c.333,2.179,2.622,3.917,4.588,2.787a3.566,3.566,0,0,0,1.4-2.264,14.2,14.2,0,0,1,.8-2.868l-.294-.082a.381.381,0,0,1,.117-.744c.138-.006,1.895.485,1.995.513a11.454,11.454,0,0,1,5.056.421,19.758,19.758,0,0,1,2.991-3.341,1.859,1.859,0,0,1,1.881-.569,1.947,1.947,0,0,1,1.2,1.43c.273,1.323-.583,2.342-1.178,3.437a3.887,3.887,0,0,1,1.3-.226,2.57,2.57,0,0,1,2,.765,1.579,1.579,0,0,1,.068,1.807l18.026,5.01Q168.8,35.753,168.381,31.5Zm-43.006-7.915a10.717,10.717,0,0,0-.478,2.859.383.383,0,0,1-.766,0,11.407,11.407,0,0,1,.506-3.062C124.782,22.914,125.522,23.116,125.375,23.587Zm6.36,1.61a4.349,4.349,0,0,0-.664,2.739c.045.491-.723.486-.765,0a5.01,5.01,0,0,1,.768-3.126C131.338,24.4,132,24.78,131.735,25.2Zm30.655-.7a29.521,29.521,0,0,0-3.611-2.616c-.42-.258-.035-.92.386-.661a30.7,30.7,0,0,1,3.766,2.736C163.308,24.28,162.764,24.818,162.39,24.5Z" fill="#ffc431"></path><path d="M169.018,40.822l-17.057-4.74a1.693,1.693,0,0,1-.158,2.74c-1.031.682-2.335.308-3.442.086-.155-.031-1-.194-1.272-.244a34.14,34.14,0,0,1,.415,4.789.394.394,0,0,0,.383.382h20.83a.385.385,0,0,0,.383-.382C169.1,42.576,169.052,41.7,169.018,40.822Z" fill="#ffc431"></path><path d="M142.681,45.511a3.186,3.186,0,1,0-5.7-1.716A3.178,3.178,0,0,0,142.681,45.511Z" fill="#ffc431"></path><path d="M144.981,61.584a.383.383,0,0,0-.386.661,23.31,23.31,0,0,0,14.742,2.666v-.43a.389.389,0,0,1,.256-.358A22.762,22.762,0,0,1,144.981,61.584Z" fill="#000000"></path><path d="M150.369,87.242c-.481-.1-.686.638-.2.738a34.546,34.546,0,0,0,9.49.634c.013,0,.022-.008.034-.009a.386.386,0,0,1-.353-.378c0-.416,0-.3,0-.361A33.509,33.509,0,0,1,150.369,87.242Z" fill="#000000"></path><path d="M102.9,14.176a2.106,2.106,0,0,0-.126-1.146,8.282,8.282,0,0,0-1.322-1.71,6.456,6.456,0,0,1-1.424-3.328c-.058-.483-.82-.489-.765,0a7.34,7.34,0,0,0,1,2.988c1.246,1.817,1.986,2.074,1.884,2.892L99.746,12.9a.385.385,0,0,0-.471.273c-.034.128-.008.363.046,3.156a2.019,2.019,0,0,1-1.345-2.069c.073-.482-.669-.69-.737-.2a2.754,2.754,0,0,0,2.1,3.064c.049,2.532.576,29.93.577,29.949a.383.383,0,0,0,.765,0l-.576-29.9a3.265,3.265,0,0,0,2.6-2.252L115.242,20c.4-.125.809-.223,1.217-.326Zm-2.811,2.236q-.016-.882-.034-1.762c0-.26.007-.534.006-.8l1.919.778A2.468,2.468,0,0,1,100.088,16.412Z" fill="#000000"></path><path d="M177.324,42.336l-26.366-7.328a1.584,1.584,0,0,0-.068-1.807,2.57,2.57,0,0,0-2-.765,3.857,3.857,0,0,0-1.3.226c.595-1.095,1.451-2.114,1.178-3.437a1.947,1.947,0,0,0-1.2-1.43,1.859,1.859,0,0,0-1.881.569,21.361,21.361,0,0,0-3.581,4.181c-6.741-1.873-6.405-1.776-6.461-1.774a.383.383,0,0,0-.207.706c.027.016,2.5.71,6.227,1.752a9.66,9.66,0,0,0-1.778,4.5.363.363,0,0,0,.383.383,31.038,31.038,0,0,1,8.091.794c1.107.222,2.411.6,3.442-.086a1.7,1.7,0,0,0,.188-2.713c11.336,3.157,24.438,6.8,25.087,6.959C177.154,42.821,177.239,42.578,177.324,42.336Z" fill="#000000"></path><path d="M192.234,69.074a2.312,2.312,0,0,1,.235,2.414c-.78,1.089-2.574.745-3.2,2.536-.481,2.459,2.027,3.177,2.74,4.8a1.632,1.632,0,0,1,.075,1.326c-.214.451-.742.693-1.1,1.009s.172.865.541.541a8,8,0,0,0,1.009-.846c.892-1.1.218-2.743-.715-3.576a6.221,6.221,0,0,1-1.764-2.178,1.419,1.419,0,0,1,.811-1.773,9.5,9.5,0,0,0,1.889-1.017,2.31,2.31,0,0,0,.68-2.258,5.849,5.849,0,0,0-1.259-2.4,4.548,4.548,0,0,1-1.183-2.352c-.088-1.771.68-2.71-.654.583C190.631,67.209,191.593,67.954,192.234,69.074Z" fill="#000000"></path><path d="M59.164,166.339a21.62,21.62,0,0,1-3.48,2.159c-.441.218-.054.878.387.66A21.587,21.587,0,0,0,59.551,167C59.937,166.706,59.557,166.041,59.164,166.339Z" fill="#000000"></path><path d="M52.34,90.572q-1.191-3.009-2.381-6.019c-.179-.452-.92-.255-.738.2L51.6,90.776C51.781,91.229,52.522,91.031,52.34,90.572Z" fill="#000000"></path><path d="M192.935,55.069a5.628,5.628,0,0,0,1.072-.881,3.029,3.029,0,0,0,.237-4.227,3.936,3.936,0,0,0-1.83-1.1,2.958,2.958,0,0,0,1.822-3.866,3.712,3.712,0,0,0-2.1-1.644,25.7,25.7,0,0,0-6.959-1.276,5.813,5.813,0,0,0,1.022-3.556c-.077-1.373-1.543-2.1-2.8-2.069-3.285.069-5.341,3.434-6.321,6.621-1.95,6.337-1.3,12.679-8.827,17.691a22.019,22.019,0,0,1-8.658,3.364.393.393,0,0,0-.256.358V88.227a.392.392,0,0,0,.383.383,34.75,34.75,0,0,0,9.65-2.11c10.966-4.028,19.686-14.224,22.275-24.652a3.86,3.86,0,0,0,3.248-2.61A3.662,3.662,0,0,0,192.935,55.069Zm-7.392-6.557a.383.383,0,0,1,0-.765h3.189a.383.383,0,0,1,0,.765Zm2.764,7.643a14.572,14.572,0,0,0-2.654.249c-.482.1-.686-.641-.2-.738a13.25,13.25,0,0,1,2.857-.276.383.383,0,0,1,0,.765ZM164.991,83.566l5.572-2c.465-.167.664.573.2.738l-5.572,2C164.729,84.471,164.53,83.731,164.991,83.566Z" fill="#ffc431"></path><path d="M56.848,103.947l-2.262-6.405c-.162-.461-.9-.263-.737.2q1.13,3.2,2.261,6.405C56.273,104.611,57.013,104.413,56.848,103.947Z" fill="#000000"></path><path d="M156.115,104.471a.337.337,0,0,0-.2-.182c-.915-.828-8.575-7.252-54.414-45.851,7.467,1.72,37.74,8.563,39.129,8.883a.383.383,0,0,0,.2-.738c-3.215-.764-38.77-8.8-40.617-9.212-.343-.077-.351.033-.456.111-1.875,1.4-43.791,32.663-43.877,32.761-.357.3.014.937.4.645.53-.4,39.6-29.577,42.8-31.963-3.355,7.089-17.522,37.441-18.223,38.992-1.3,2.875-11.126,25.794-11.353,26.366-.182.458.558.656.738.2.988-2.486,5.364-12.855,6.549-15.558,1.259-2.872,23.175-50.131,23.395-50.591,30.8,25.936,44.5,37.5,50.551,42.585-5.645-1.645-6.34-1.849-6.354-1.853h0a.384.384,0,0,0-.2.74l8.012,2.334c2.278,1.909,3,2.492,3.19,2.618v4.911a.384.384,0,0,0,.4.37.379.379,0,0,0,.369-.37C156.245,104.3,156.176,104.6,156.115,104.471Z" fill="#000000"></path><path d="M104.685,152.581a.383.383,0,0,0,.738-.2L101.8,140.126a.383.383,0,0,0-.738.2C102.272,144.413,103.445,148.507,104.685,152.581Z" fill="#000000"></path><path d="M133.966,144.857a.383.383,0,0,0,.738-.2c-1.207-4.084-2.379-8.178-3.619-12.252a.383.383,0,0,0-.738.2Z" fill="#000000"></path><path d="M83.592,56.105c-.672,2.048-2.209,6.732-2.306,7.025-.154.469.585.67.738.2l2.306-7.025C84.484,55.839,83.745,55.638,83.592,56.105Z" fill="#000000"></path><path d="M80.142,57.146,77.928,63.8c-.156.469.583.67.738.2.646-1.94,2.122-6.375,2.214-6.653C81.036,56.881,80.3,56.68,80.142,57.146Z" fill="#000000"></path><path d="M110.345,48.632c2.261-.684,7.424-2.243,7.743-2.342a.383.383,0,0,0-.2-.738c-2.262.684-7.425,2.244-7.744,2.342a.383.383,0,0,0,.2.738Z" fill="#000000"></path><path d="M112.4,53.9a.383.383,0,0,0,.2.738c2.261-.684,7.424-2.243,7.743-2.342a.383.383,0,0,0-.2-.738C117.882,52.244,112.719,53.8,112.4,53.9Z" fill="#000000"></path><path d="M48.912,149.652c-9.449,2.3-19.1.278-23.827-2.879-.411-.274-.8.393-.387.661,5.14,3.354,15.125,5.3,24.418,2.956a.383.383,0,0,0-.2-.738Z" fill="#ffaaaa"></path><path d="M78.3,132.924l-.869,1.916c-.2.445.458.835.661.386q.435-.957.869-1.916C79.165,132.865,78.506,132.475,78.3,132.924Z" fill="#000000"></path><path d="M85.161,132.4l-.847,2.226c-.175.461.564.66.738.2L85.9,132.6C86.075,132.145,85.335,131.945,85.161,132.4Z" fill="#000000"></path><path d="M124.637,23.384a11.407,11.407,0,0,0-.506,3.062.383.383,0,0,0,.766,0,10.717,10.717,0,0,1,.478-2.859C125.522,23.116,124.782,22.914,124.637,23.384Z" fill="#ffaaaa"></path><path d="M131.074,24.81a5.01,5.01,0,0,0-.768,3.126c.042.486.81.491.765,0a4.349,4.349,0,0,1,.664-2.739C132,24.78,131.338,24.4,131.074,24.81Z" fill="#ffaaaa"></path><path d="M158.779,21.886A29.521,29.521,0,0,1,162.39,24.5c.374.316.918-.222.541-.541a30.7,30.7,0,0,0-3.766-2.736C158.744,20.966,158.359,21.628,158.779,21.886Z" fill="#ffaaaa"></path><path d="M170.563,81.567l-5.572,2c-.461.165-.262.905.2.738l5.572-2C171.227,82.14,171.028,81.4,170.563,81.567Z" fill="#ffaaaa"></path><path d="M185.543,48.512h3.189a.383.383,0,0,0,0-.765h-3.189a.383.383,0,0,0,0,.765Z" fill="#ffaaaa"></path><path d="M188.307,55.39a13.25,13.25,0,0,0-2.857.276c-.483.1-.279.834.2.738a14.572,14.572,0,0,1,2.654-.249.383.383,0,0,0,0-.765Z" fill="#ffaaaa"></path><path d="M150.6,127.988a27.762,27.762,0,0,0,2.666-2.863c.307-.379-.231-.924-.541-.541a27.551,27.551,0,0,1-2.667,2.862C149.7,127.783,150.241,128.323,150.6,127.988Z" fill="#000000"></path><path d="M153.512,138.753l4.76,1.679c.465.164.665-.575.2-.738l-4.76-1.679C153.25,137.851,153.05,138.59,153.512,138.753Z" fill="#000000"></path><path d="M80.854,163.051a12.973,12.973,0,0,0,2.549-2.7c.284-.4-.378-.785-.661-.386a12.332,12.332,0,0,1-2.429,2.548C79.926,162.815,80.471,163.354,80.854,163.051Z" fill="#000000"></path><path d="M145.578,10.755c-.488.04-.492.8,0,.765a32.668,32.668,0,0,1,21.76,6.077c.4.289.783-.376.387-.661A33.481,33.481,0,0,0,145.578,10.755Z" fill="#000000"></path><path d="M169.7,11.738a44.236,44.236,0,0,0-24.121-5.091c-.488.037-.492.8,0,.765A43.487,43.487,0,0,1,169.316,12.4C169.75,12.631,170.137,11.97,169.7,11.738Z" fill="#000000"></path><path d="M25.358,95.007q-.2,3.505-.409,7.01c-.029.492.737.49.765,0q.206-3.505.409-7.01C26.152,94.515,25.387,94.517,25.358,95.007Z" fill="#000000"></path><path d="M22.206,101.5l-3-5.672c-.231-.436-.892-.049-.661.386l3,5.672C21.775,102.319,22.436,101.932,22.206,101.5Z" fill="#000000"></path><path d="M14.365,99.823c-.413-.27-.8.392-.386.661l5.768,3.783c.413.271.8-.391.386-.661Z" fill="#000000"></path><path d="M94.741,119.993a1.713,1.713,0,0,0-2.095-1.346,2.38,2.38,0,0,0-.9.715c-1,1.276-1.154,1.691-3.024,5.346a18.115,18.115,0,0,0,.411-2.4,3.912,3.912,0,0,0-.332-2.448,1.936,1.936,0,0,0-2.413-.609,4.579,4.579,0,0,0-1.968,1.72c-1.4,2.256-2.315,5.36-3.743,7.617.619-1.983,1.333-5.151.672-7.119a1.8,1.8,0,0,0-3.1-.155,11.387,11.387,0,0,0-1.581,2.471c-1.563,3.245-1.677,3.752-2.053,4.154-.472.5-1.395.35-4.391,1.294-.468.147-.269.886.2.738,3.453-1.088,4.405-.679,5.113-2.016.944-1.784,1.193-2.809,2.287-4.714a4.6,4.6,0,0,1,1.52-1.857.955.955,0,0,1,1.266.305,8.378,8.378,0,0,1,.065,3.671,30.048,30.048,0,0,1-1.82,6c0,.32.38.627.631.308,3.782-4.825,4.159-8.754,6.068-10.915.5-.563,1.458-1.217,2.24-.827.645.322.65,1.264.6,1.985A24.4,24.4,0,0,1,86.063,130c-.208.431.434.831.661.386,3.576-6.988,5.409-11.236,6.379-11.027.678.059.925.605.983,1.229a8.383,8.383,0,0,1-.584,3.171c-1.481,4.547-2.816,8.108-2.826,8.292-.085.424.59.591.746.148C94.6,123.131,95.165,121.56,94.741,119.993Z" fill="#000000"></path></g><g><path d="M118.118,86.259a.51.51,0,0,0-.57-.735L89.117,93.452a.509.509,0,0,0,.152.993c.1,0,28.452-7.914,28.552-7.942A.494.494,0,0,0,118.118,86.259Z" fill="#000000"></path><path d="M119.8,92.219a.508.508,0,0,0-.276-.978L91.2,99.7a.508.508,0,0,0,.275.978Z" fill="#000000"></path><path d="M121.3,98.337a.508.508,0,0,0-.276-.977L93.047,105.8a.508.508,0,0,0,.276.977Z" fill="#000000"></path><path d="M137.868,70.8l-3.337,5.358c-.351.564.528,1.073.874.519l3.336-5.358C139.09,70.754,138.215,70.24,137.868,70.8Z" fill="#000000"></path><path d="M67.274,93.511l-6.615-1.6a.508.508,0,0,0-.262.981l6.615,1.6A.507.507,0,0,0,67.274,93.511Z" fill="#000000"></path><path d="M193.186,55.053a5.673,5.673,0,0,0,.9-.771,3.148,3.148,0,0,0,.247-4.4,3.876,3.876,0,0,0-1.591-1.04,3.018,3.018,0,0,0,1.6-3.909,3.814,3.814,0,0,0-2.166-1.7,25.452,25.452,0,0,0-6.784-1.267,5.941,5.941,0,0,0,.929-3.455c-.08-1.4-1.54-2.216-2.925-2.187-3.633.076-5.489,4.038-6.151,5.862l-8.14-2.262c-.125-2.821-.327-5.657-.6-8.432-.615-6.242-1.527-10.855-7.7-13.384a28.082,28.082,0,0,0-6.935-1.812c-7.82-1.037-14.359-.717-21.492-.237-5.774.388-7.4.386-12.936,2.517a28.394,28.394,0,0,1-2.971.969L103.036,14.1a2.228,2.228,0,0,0-.155-1.129,8.333,8.333,0,0,0-1.334-1.726,6.334,6.334,0,0,1-1.4-3.264c-.078-.644-1.089-.628-1.013.029.4,3.581,2.78,4.6,2.891,5.682l-2.25-.912a.51.51,0,0,0-.624.361,27.832,27.832,0,0,0,.038,3A1.89,1.89,0,0,1,98.1,14.276c.1-.643-.891-.9-.986-.24a2.888,2.888,0,0,0,2.1,3.183c.056,2.92.469,24.476.5,26.1C36.679,61.035,40.8,59.788,40.643,60.1a.429.429,0,0,0-.013.355S47.494,79.991,47.7,80.633a.516.516,0,0,0,.622.35c.592-.162,32.273-9.4,32.273-9.4C76.96,74.3,56.675,89.46,55.819,90.137a.5.5,0,0,0-.213.564c.773,2.121,12.587,34.574,13.049,35.865a31.382,31.382,0,0,1-5.549,12,38.913,38.913,0,0,1-7.184,7.428,69.575,69.575,0,0,0-5.437-10.367,23.054,23.054,0,0,0-3.363-4.147,21.024,21.024,0,0,0-12.091-5.058A48.631,48.631,0,0,0,33.205,117c-.933-3.022-3.029-6.528-6.11-7.308a8.246,8.246,0,0,0-6.611,1.264c-6.412,4.336-6.3,12.832-15.241,16.352a.515.515,0,0,0-.345.641,36.119,36.119,0,0,0,3.87,5.774,38.1,38.1,0,0,0,5.8,5.615c-4.36,6.627-7.248,14.778-8.585,24.227a1.515,1.515,0,0,0-.015.907,3.169,3.169,0,0,0,.354.443,32.109,32.109,0,0,0,13.2,9.278c10.293,3.932,25.826,4.178,35.358.5,5.69-2.2,14.416-7.682,21.918-16.512a66.152,66.152,0,0,0,2.256,6.726.508.508,0,0,0,.573.232c.9-.252,80.745-23.2,81.367-23.386a.516.516,0,0,0,.352-.631l-6.488-19.511a.518.518,0,0,0-.623-.353c-.71.191-61.208,17.206-65.722,18.475.475-1.033.926-2.062,1.343-3.064,1.446-3.484,4.337-11.892,4.847-13.812,7.1-2.112,57.387-16.637,60.561-17.551v4.37a.518.518,0,0,0,.524.491.5.5,0,0,0,.491-.493c.083-5.015.033-5.1-.039-5.226,0,0-1.4-3.566-2.164-5.49l14.614.374a.512.512,0,0,0,.506-.495c.2-1.885.3-6.006.3-12.25a37.459,37.459,0,0,0,20.813-20.326c.387,1.158,1.231,1.851,1.818,2.875.311.543.756,1.562.241,2.28-.746,1.04-2.569.714-3.226,2.584-.5,2.544,2.045,3.274,2.753,4.878a1.5,1.5,0,0,1,.072,1.215c-.3.626-1.341.851-1.23,1.4a.53.53,0,0,0,.853.3,8.018,8.018,0,0,0,1.035-.87c.9-1.11.322-2.81-.723-3.741a6.17,6.17,0,0,1-1.735-2.131,1.3,1.3,0,0,1,.739-1.617,9.626,9.626,0,0,0,1.927-1.041,2.436,2.436,0,0,0,.717-2.381,6.025,6.025,0,0,0-1.281-2.447,4.469,4.469,0,0,1-1.158-2.282,5.948,5.948,0,0,1,.133-1.564c.185-.581.354-1.173.5-1.763a4,4,0,0,0,3.27-2.695A3.792,3.792,0,0,0,193.186,55.053ZM11.747,146.6c3.415-7.715,10.039-16.7,18.388-18.771a18.043,18.043,0,0,1,12.882,2.015c2.74,1.489,4.822,3.192,7.356,7.493a75.308,75.308,0,0,1,4.714,9.262,19.633,19.633,0,0,1-5.119,2.595.524.524,0,0,0-.367.485s-.071,23.8-.074,25.529c-7.918,1.645-20.071,1.695-29.48-1.9a31.32,31.32,0,0,1-13.112-9.248A62.747,62.747,0,0,1,11.747,146.6Zm3.39-8.1a34.3,34.3,0,0,1-9.026-10.461,16.337,16.337,0,0,0,5.216-3.558,30.224,30.224,0,0,0,4.218-6.012c2.548-4.311,5.553-8.256,10.136-7.985,4.806.287,6.677,6.666,7.259,9.4a56.43,56.43,0,0,1,1.066,6.5C24.7,126.091,17.765,134.654,15.137,138.5ZM94.864,119.97a1.834,1.834,0,0,0-2.269-1.437,2.51,2.51,0,0,0-.943.751,21.684,21.684,0,0,0-2.423,4.15l-.116.034c.062-.373.111-.75.148-1.124a4.128,4.128,0,0,0-.354-2.559,2.065,2.065,0,0,0-2.568-.65c-2.017.943-2.584,2.627-4.26,6.435l-.564.169a9.841,9.841,0,0,0-.05-4.328,1.926,1.926,0,0,0-3.31-.181c-1.728,2.02-2.895,5.766-3.609,6.6-.349.105-3.62,1.069-3.906,1.154C70.355,128.187,57.3,92.414,56.766,90.9c10.272-2.832,20.747-5.738,31.141-8.636-1.748,3.805-13.548,30.05-14.636,32.6-1.1,2.583-3.655,8.817-3.875,9.374-.244.608.727.906.97.3.951-2.393,5.333-12.783,6.547-15.554,1.3-2.961,11.708-25.829,12.277-27.073,0,0,19.865-5.546,29.127-8.144l31.922,26.883s-5.584-1.633-5.816-1.694a.49.49,0,0,0-.379.054.51.51,0,0,0,.109.925l8.007,2.332L154.7,104.4c-6.292,1.707-56.362,16.327-59.782,17.329A4.471,4.471,0,0,0,94.864,119.97ZM50.623,150.026a21.253,21.253,0,0,0,5.837-3.17,36.446,36.446,0,0,0,12.851-18.642c.131.381.344.971.527,1.551a.51.51,0,0,0,.624.35c.32-.092,3.248-.752,4.276-1.176a2.246,2.246,0,0,0,.913-.929c.983-1.858,1.17-2.767,2.29-4.719a4.482,4.482,0,0,1,1.478-1.808.835.835,0,0,1,1.08.253,1.877,1.877,0,0,1,.156.663c.368,3.179-1.193,7.181-1.88,8.754-.231.525.432,1.105.813.618,3.571-4.527,4.273-8.909,6.064-10.937.391-.441,1.33-1.176,2.09-.8.559.279.584,1.1.535,1.865a24.493,24.493,0,0,1-2.327,8.042c-.282.585.583,1.087.886.5,3.009-5.881,5.352-11.15,6.257-10.96,1.052.091.976,1.558.754,2.59-.37,1.731-3.852,11.536-4.479,13.116a77.263,77.263,0,0,1-18.258,27.5c-6.589,6.252-13.861,10.6-20.494,12.263C50.617,172.708,50.632,151.618,50.623,150.026Zm68.874-76.6c2.084-.584,15.084-4.226,20.932-5.866,2.515,6.52,13.669,34.211,14.141,35.4Zm22.994-41.658c-.148.205-.3.416-.44.63-.448-.127-2.521-.717-3.762-1.066A11.385,11.385,0,0,1,142.491,31.773Zm4.7,2.06a2.8,2.8,0,0,1,2.889-.184.725.725,0,0,1,.059,1Zm4.453,3.884c-.531.892-1.733.607-2.743.4a32.965,32.965,0,0,0-8.058-.919,7.133,7.133,0,0,1,.611-1.752,20.474,20.474,0,0,1,1.035-1.865l6.439,1.79c-.36.113-.561.125-.689.365a.51.51,0,0,0,.566.734c1.013-.228,2.034-.343,2.644.349A.827.827,0,0,1,151.648,37.717Zm-8.566-5.027a19.424,19.424,0,0,1,3.534-3.927.784.784,0,0,1,1.094.195c.37.53.288,1.231-.252,2.2a11.79,11.79,0,0,0-1.214,2.4ZM85.708,69.032l13.01-9.675c-1.1,2.3-2.175,4.544-3.263,6.835ZM106.7,63.975l10.681,8.995c-3.718,1.041-21.394,5.983-27.618,7.713,1.077-2.3,5.918-12.594,6.416-13.643Zm-4.727-5.3c1.954.435,8.929,1.991,10.928,2.439l-5.967,1.738Zm3.794,4.517-9,2.624c.5-1.05,3.478-7.277,3.478-7.277Zm23.91,1.711c-.578,1.651-1.08,3.346-1.5,5.043l-9.622,2.7-10.692-9,7.083-2.064C116.916,62.012,126.5,64.174,129.673,64.9Zm-.37,4.728c.42-1.636.867-3.111,1.363-4.5.782.18,5.428,1.253,8.038,1.866Q134,68.312,129.3,69.628Zm22.569-30.7a1.821,1.821,0,0,0,.48-2.606L168.126,40.7q.043,1.122.069,2.242H148.378a35.149,35.149,0,0,0-.334-3.97C149.355,39.245,150.774,39.653,151.872,38.926Zm-57,28.494c-1.034,2.187-6.4,13.622-6.4,13.622-4.363,1.216-23.56,6.552-29.942,8.315,7.8-5.879,17.894-13.415,24.846-18.587Zm56.274-32.489a1.717,1.717,0,0,0-.167-1.817,2.676,2.676,0,0,0-2.092-.8,3.978,3.978,0,0,0-1.031.138c.611-1.05,1.293-2.01,1.038-3.249a2.062,2.062,0,0,0-1.281-1.522,1.988,1.988,0,0,0-2.008.591,17.991,17.991,0,0,0-2.474,2.651,15.494,15.494,0,0,0-7.5-.275c-.289-.01-.422.215-.529.391A10.968,10.968,0,0,0,134.22,34c-.22.931-.539,1.833-1.379,2.125a2.4,2.4,0,0,1-2.67-1.445c-.677-1.387-.241-3.084.113-4.572a.509.509,0,0,0-.92-.4c-1.154,1.533-.914,3.731-2.3,5.007a1.45,1.45,0,0,1-1.937.29c-.783-.693-.718-2.21-.8-6.166a.51.51,0,0,0-1-.136c-.56,1.848-1.307,3.811-3.2,3.765-1.862-.048-1.617-2.456-1.4-4.271a21.878,21.878,0,0,1,.668-3.227.511.511,0,0,0-.367-.627c-.257-.066-2.44-.031-2.472-.03a6.4,6.4,0,0,1-2.088-.127,1.378,1.378,0,0,1-1.075-1.213,2.059,2.059,0,0,1,1.131-1.711,8.347,8.347,0,0,1,2.209-.736c2.2-.561,4.72-1.744,6.963-2.352a41.754,41.754,0,0,1,8.164-1.066c9.187-.623,19.627-1.076,27.25,1.441,5.994,1.978,7.457,5.3,8.179,11.115.367,2.967.618,6.14.789,9.972ZM112.608,23.914c.882,1.853,3.382,1.362,5.652,1.41a21.287,21.287,0,0,0-.523,2.669,9.468,9.468,0,0,0-.041,3.416c.437,2.489,3.993,3.02,5.672.006.061,1.682.032,3.241.924,4.194,1.255,1.34,3.595.667,4.585-1.862.307,2.489,2.745,4.274,4.815,3.082a3.675,3.675,0,0,0,1.454-2.343,14.155,14.155,0,0,1,.751-2.739l5.579,1.551a9.62,9.62,0,0,0-1.714,4.432.487.487,0,0,0,.514.509,26.507,26.507,0,0,1,6.7.53,57.144,57.144,0,0,1,.368,10.367c-8.593,1.067-13.781,5.5-17.319,14.807-2.634-.6-10.484-2.379-13.065-2.959,2.241-.654,11.8-3.438,11.851-3.453a.517.517,0,0,0,.35-.63l-6.489-19.513a.516.516,0,0,0-.623-.352c-.621.167-21.326,6-21.326,6l-.5-25.755a3.379,3.379,0,0,0,2.547-2.2l12.108,4.91C112.562,20.858,112,22.645,112.608,23.914ZM99.723,44.368c.016,1.627.038,2.1.054,2.42.013.281-.016.461.17.635a.508.508,0,0,0,.856-.358l-.058-2.984c1.633-.453,19.27-5.345,21.118-5.921.8,2.393,5.669,17.047,6.166,18.541l-13.116,3.822c-1.164-.261-14.119-3.152-14.655-3.271a.478.478,0,0,0-.548.109c-1.04.772-14.632,10.879-16.783,12.482,0,0-33.052,9.619-34.419,10.023L41.774,60.658ZM81.09,127.6c.077-.288.15-.568.19-.731l.214-.064C81.355,127.088,81.221,127.351,81.09,127.6Zm59.795-61.124c-.7-.2-8.7-2.039-9.863-2.307,3.416-8.877,8.613-13.222,16.826-14.081a.519.519,0,0,0,.5-.505c.043-1.67.082-3.637.046-5.622h19.815c.036,2.367-.136,9.181-.089,16.731a22.617,22.617,0,0,1-23.084.783.5.5,0,0,0-.688.2.51.51,0,0,0,.181.674,23.367,23.367,0,0,0,14.678,2.7c0,1.858-.023,20.839,0,22.694a33.364,33.364,0,0,1-8.813-.628c-.644-.135-.9.849-.254.982a35.084,35.084,0,0,0,18.349-1.141c0,2.158-.015,8.467-.261,11.343l-14.555-.372C140.5,65.008,141.164,66.4,140.885,66.476Zm-40.7-52.445,1.641.666a2.4,2.4,0,0,1-1.617,1.566C100.2,15.681,100.19,14.518,100.186,14.031Zm68.963,26.957c2.047.569,7.046,1.983,7.771,2.169-1.851,6.121-1.353,11.913-7.789,16.826C169.037,49.208,169.414,48.044,169.149,40.988ZM160.238,64.9c6.789-1.233,12.435-5.3,14.751-10.634,2.525-5.819,2.019-13.824,6.624-16.422,1.127-.636,2.738-.8,3.554.271a2.554,2.554,0,0,1,.013,1.857,7.781,7.781,0,0,1-1.092,2.174.508.508,0,0,0-.047.389c.232.822.89-.144,6.968,1.362a5.087,5.087,0,0,1,2.159,1.1c.905.988.387,2.882-2.193,3.387-.526.1-.463.808-.021.977a7.93,7.93,0,0,1,2.319.9,2.376,2.376,0,0,1,.784,2.308,2.414,2.414,0,0,1-.493.791,4.032,4.032,0,0,1-2.132,1.365.535.535,0,0,0,.314.912,2.659,2.659,0,0,1,1.719,4.351,2.989,2.989,0,0,1-2.126,1.005.514.514,0,0,0-.487.373c-4.121,14.7-16.133,25.011-30.624,26.311C160.229,85.679,160.239,66.511,160.238,64.9ZM77.575,157.263a79.017,79.017,0,0,0,10.369-16.314c1.714-.482,63.782-17.872,66.1-18.568,0,0,5.825,17.513,6.167,18.54L79.779,164.038C79.505,163.363,78.9,161.629,77.575,157.263Z" fill="#000000"></path><path d="M23.947,115.336a4.718,4.718,0,0,0-1.278,4.329c.472,2.168,1.819,3.753,4.132,3.753a3.979,3.979,0,0,0,4.215-3.233C31.476,116.274,26.707,113,23.947,115.336Zm1.9.247c3.07-.194,5.516,3.958,3.4,5.96a3.613,3.613,0,0,1-4.416.181,4.318,4.318,0,0,1-1.23-2.814C23.587,117.375,24.28,115.679,25.851,115.583Z" fill="#000000"></path><path d="M111.3,50.8a.508.508,0,0,0,.276.978s7.534-2.277,7.745-2.342a.5.5,0,0,0,.3-.248.509.509,0,0,0-.574-.729Z" fill="#000000"></path><path d="M53.78,71.527c.153,0,8.213-2.227,8.575-2.319a.506.506,0,0,0,.22-.855c-1.352-1.175-5.832-5.337-5.882-5.384a.512.512,0,0,0-.844.222c-.7,2.23-2.54,7.633-2.562,7.7A.512.512,0,0,0,53.78,71.527Zm.778-1.246,2.013-6.048L61.2,68.47Z" fill="#000000"></path><path d="M63.673,68.187c2.344,1.828,6.127-1.163,5.054-4.467a3.414,3.414,0,0,0-3.309-2.348,3.524,3.524,0,0,0-3.175,3.258A4.25,4.25,0,0,0,63.673,68.187Zm.733-.717a3.112,3.112,0,0,1-1.148-2.819,2.553,2.553,0,0,1,1.926-2.234,2.3,2.3,0,0,1,2.41,1.245C68.823,66.014,66.071,68.558,64.406,67.47Z" fill="#000000"></path><path d="M71.239,66.085a.518.518,0,0,0,.495.371c.177,0,4.785-1.28,4.954-1.327a.508.508,0,0,0,.354-.625c-.118-.415-1.563-5.329-1.8-5.666a.456.456,0,0,0-.487-.136l-4.7,1.393a.513.513,0,0,0-.353.624C70.066,62.042,70.857,64.768,71.239,66.085Zm-.418-5.157,3.733-1.107,1.36,4.466-3.835,1.041Z" fill="#000000"></path><path d="M50.929,71.9l2.306-7.025c.2-.623-.77-.909-.976-.282l-2.3,7.025C49.747,72.252,50.725,72.523,50.929,71.9Z" fill="#000000"></path><path d="M48.81,65.636,46.6,72.288c-.209.628.768.905.976.283.645-1.94,2.122-6.375,2.214-6.653C49.994,65.29,49.016,65.017,48.81,65.636Z" fill="#000000"></path><path d="M113.319,180.793c1.289-.766,3.887-2.409,5.072-3.152a.513.513,0,0,0-.122-.925c-.556-.169-3.665-1.087-4.654-1.408a.51.51,0,0,0-.647.48c-.095,1.523-.323,3.043-.414,4.569A.511.511,0,0,0,113.319,180.793Zm.329-1.4c.038-.427.237-2.377.282-2.929l2.98.9Z" fill="#000000"></path><path d="M167.759,155.906s-4.745-2.65-4.949-2.765a.508.508,0,0,0-.509.879l4.118,2.3-16.664,8.313-4.59-2.563a.508.508,0,0,0-.508.879l4.732,2.643c0,2.079-.03,15.084-.034,16.97l-4.19-2.341a.508.508,0,0,0-.508.879c5.177,2.894,5.07,2.919,5.362,2.8.137-.03,17.574-9.475,17.74-9.569a.5.5,0,0,0,.253-.439V156.345A.487.487,0,0,0,167.759,155.906ZM167,157.165v16.422l-16.627,8.986c.019-8.769.023,5.619.023-17.131Z" fill="#000000"></path><path d="M145.666,164.975a.516.516,0,0,0-.371-.626l-16.646-2.358a.584.584,0,0,0-.513.176c-.134.146.079-.242-3.308,10.924-.475-.508-5.577-5.967-5.9-6.294a.511.511,0,0,0-.613-.081c-.733.406-19.923,10.829-20.046,10.92-.287.2-.256.571-.181,4.85a.506.506,0,0,0,.525.491.511.511,0,0,0,.491-.494v-3.241l10.888,10.889v2.983a.508.508,0,0,0,1.016,0v-2.9s16.469-9.484,18.07-10.412v3.42a.508.508,0,0,0,1.016,0v-3.751c1.295.229,10.033,1.782,11.172,1.987v3.688a.507.507,0,0,0,1.013,0V181.1Zm-1.1.29-3.189,15.181c-3.11-.576-12.827-2.353-16.873-2.853.746-2.369,4.013-13.291,4.387-14.548ZM99.437,178.138c1.836-1,17.718-9.623,19.038-10.343l6.014,6.419c-.247.81-.83,2.714-1.137,3.67a.513.513,0,0,0,.369.624c.227.059.667,0,4.455.634-.835.48-16.793,9.673-17.6,10.138Z" fill="#000000"></path><path d="M157.736,171.888c.958.417,2.193-.249,2.964-.981,1.173-1.115,1.2-3.229-.2-3.989a2.1,2.1,0,0,0-1.828.11,3.392,3.392,0,0,0-2.195,2.572A2.311,2.311,0,0,0,157.736,171.888Zm1.43-3.976c1.344-.674,1.831,1.207.925,2.169a2.5,2.5,0,0,1-1.821.909c-.511-.064-.792-.758-.79-1.212C157.483,168.862,158.444,168.274,159.166,167.912Z" fill="#000000"></path><path d="M131.3,172.8c4.49.893,5.006,1.006,5.106.993a.447.447,0,0,0,.494-.362l.832-4.018a.516.516,0,0,0-.354-.622l-4.659-.783a.517.517,0,0,0-.62.353c-1.2,3.921-1.276,3.908-1.117,4.192A.507.507,0,0,0,131.3,172.8Zm.775-.879.869-2.85,3.695.621-.624,3.011Z" fill="#000000"></path><path d="M142.78,45.588a3.311,3.311,0,1,0-5.924-1.785A3.3,3.3,0,0,0,142.78,45.588Zm-2.221-4.294a2.3,2.3,0,1,1-2.66,2.739A2.3,2.3,0,0,1,140.559,41.294Z" fill="#000000"></path><path d="M56.126,169.27a21.707,21.707,0,0,0,3.5-2.171c.519-.395-.013-1.257-.537-.859a21.642,21.642,0,0,1-3.46,2.146C55.035,168.68,55.542,169.562,56.126,169.27Z" fill="#000000"></path><path d="M52.456,90.527l-2.381-6.02c-.239-.6-1.215-.321-.97.3l2.381,6.019C51.724,91.427,52.7,91.143,52.456,90.527Z" fill="#000000"></path><path d="M56.966,103.905,54.7,97.5c-.217-.614-1.2-.339-.973.287l2.261,6.4C56.21,104.806,57.187,104.531,56.966,103.905Z" fill="#000000"></path><path d="M104.812,152.915a.508.508,0,0,0,.73-.573l-3.619-12.254a.508.508,0,0,0-.977.277C104.743,153.223,104.492,152.747,104.812,152.915Z" fill="#000000"></path><path d="M133.846,144.894a.508.508,0,0,0,.977-.276c-.365-1.366-2.79-9.532-3.619-12.252a.505.505,0,0,0-.636-.334.511.511,0,0,0-.341.609Z" fill="#000000"></path><path d="M82.143,63.372l2.3-7.025c.208-.629-.771-.9-.975-.281l-2.3,7.025C80.961,63.723,81.939,63.992,82.143,63.372Z" fill="#000000"></path><path d="M78.784,64.041,81,57.389c.208-.622-.765-.909-.974-.283l-2.215,6.653C77.6,64.387,78.577,64.662,78.784,64.041Z" fill="#000000"></path><path d="M110.257,48.767c.113,0,7.768-2.326,7.868-2.358a.506.506,0,0,0,.333-.636.512.512,0,0,0-.61-.34s-7.524,2.274-7.743,2.342A.508.508,0,0,0,110.257,48.767Z" fill="#000000"></path><path d="M112.364,53.782a.508.508,0,0,0,.276.978l7.744-2.342a.5.5,0,0,0,.3-.248.509.509,0,0,0-.574-.729Z" fill="#000000"></path><path d="M24.63,147.538c5.28,3.447,15.379,5.273,24.52,2.973a.508.508,0,0,0-.267-.98c-9.357,2.273-19.02.281-23.729-2.862C24.6,146.3,24.082,147.181,24.63,147.538Z" fill="#000000"></path><path d="M78.209,135.278l.868-1.917c.269-.592-.614-1.092-.888-.489l-.868,1.917C77.05,135.385,77.937,135.877,78.209,135.278Z" fill="#000000"></path><path d="M85.169,134.876l.847-2.226c.234-.613-.737-.907-.971-.292l-.848,2.225C83.961,135.2,84.938,135.483,85.169,134.876Z" fill="#000000"></path><path d="M124.517,23.347a11.546,11.546,0,0,0-.511,3.1.508.508,0,0,0,1.016,0,10.616,10.616,0,0,1,.472-2.826A.508.508,0,0,0,124.517,23.347Z" fill="#000000"></path><path d="M130.968,24.743a5.17,5.17,0,0,0-.787,3.2c.057.651,1.075.636,1.015-.023a4.24,4.24,0,0,1,.644-2.66C132.2,24.705,131.32,24.191,130.968,24.743Z" fill="#000000"></path><path d="M163.012,23.866a30.92,30.92,0,0,0-3.781-2.748.508.508,0,0,0-.518.874,29.461,29.461,0,0,1,3.6,2.605C162.812,25.021,163.514,24.291,163.012,23.866Z" fill="#000000"></path><path d="M165.237,84.422l5.572-2c.612-.22.336-1.2-.288-.974l-5.573,2C164.331,83.67,164.618,84.645,165.237,84.422Z" fill="#000000"></path><path d="M185.539,48.637h3.2a.5.5,0,0,0,.353-.161.509.509,0,0,0-.358-.854h-3.193a.508.508,0,0,0,0,1.015Z" fill="#000000"></path><path d="M185.566,56.538a15.6,15.6,0,0,1,2.743-.258.508.508,0,0,0,0-1.015,13.172,13.172,0,0,0-2.885.279C184.824,55.665,185,56.538,185.566,56.538Z" fill="#000000"></path><path d="M150.687,128.079a27.885,27.885,0,0,0,2.678-2.875c.409-.507-.318-1.213-.735-.7-2.251,2.786-2.926,2.759-2.8,3.3A.521.521,0,0,0,150.687,128.079Z" fill="#000000"></path><path d="M153.47,138.871l4.76,1.679c.622.215.907-.756.287-.974l-4.76-1.678C153.132,137.678,152.855,138.653,153.47,138.871Z" fill="#000000"></path><path d="M80.931,163.149a13.094,13.094,0,0,0,2.574-2.729c.383-.544-.489-1.061-.865-.531a12.2,12.2,0,0,1-2.405,2.523C79.713,162.822,80.423,163.552,80.931,163.149Z" fill="#000000"></path><path d="M145.588,11.645A32.574,32.574,0,0,1,167.265,17.7c.54.387,1.061-.484.533-.864a33.47,33.47,0,0,0-22.23-6.2C144.91,10.683,144.938,11.7,145.588,11.645Z" fill="#000000"></path><path d="M145.59,7.537c14.291-1.078,23.235,5.035,23.911,5.035a.508.508,0,0,0,.26-.945,44.206,44.206,0,0,0-24.189-5.105C144.924,6.571,144.926,7.58,145.59,7.537Z" fill="#000000"></path><path d="M25.839,102.024l.409-7.01c.038-.653-.976-.676-1.015-.014l-.409,7.01C24.785,102.668,25.8,102.679,25.839,102.024Z" fill="#000000"></path><path d="M21.435,101.941c.3.582,1.189.078.882-.5l-3-5.672c-.307-.58-1.189-.079-.882.5Z" fill="#000000"></path><path d="M13.91,100.589c6.118,4.013,5.836,3.868,6.035,3.868a.524.524,0,0,0,.256-.955l-5.767-3.783C13.88,99.356,13.364,100.23,13.91,100.589Z" fill="#000000"></path></g></svg>