<svg xmlns="http://www.w3.org/2000/svg" fill="none" viewBox="0 0 200 197" height="400" width="400"><g id="digital-customer-service-callcenter-1--customer-service-support-digital-customer-callcenter-1"><g id="color"><g id="group"><path id="vector" fill="#000000" d="M45.716 56.3942C45.216 56.0199 44.562 55.9598 44.074 55.5619C43.5823 55.0305 42.9925 54.5959 42.336 54.2814C41.6194 54.0945 40.8576 54.1804 40.2023 54.522C39.547 54.8635 39.0464 55.4356 38.8 56.1243C38.6175 56.8824 38.4783 57.6499 38.383 58.4233C38.305 58.6863 38.616 58.8557 38.893 58.8784C39.633 58.9375 40.493 58.2874 41.164 58.2874C41.7985 58.3873 42.4231 58.5405 43.031 58.7454C45.375 59.1985 47 57.3585 45.716 56.3942Z"></path><path id="vector_2" fill="#000000" d="M51.222 59.3344C50.422 58.4164 49.261 58.7611 48.843 59.9746C48.562 60.7883 48.854 61.6078 49.71 61.7201C49.676 62.0526 49.5644 62.3729 49.3839 62.6559C49.2033 62.9389 48.9588 63.177 48.6693 63.3514C48.3799 63.5259 48.0534 63.632 47.7154 63.6615C47.3774 63.6911 47.0371 63.6432 46.721 63.5216C45.403 62.97 45.053 61.3546 44.895 60.1066C44.843 59.6998 44.188 59.6949 44.24 60.1066C44.2754 61.4155 44.7908 62.6675 45.691 63.631C46.0995 63.9767 46.5975 64.2037 47.1294 64.2868C47.6613 64.3698 48.2062 64.3055 48.7032 64.1012C49.2002 63.8968 49.6298 63.5604 49.9439 63.1295C50.258 62.6986 50.4443 62.1901 50.482 61.661C50.7151 61.5907 50.9273 61.4656 51.1003 61.2964C51.2732 61.1271 51.4017 60.919 51.4746 60.6898C51.5475 60.4607 51.5626 60.2175 51.5186 59.9813C51.4745 59.7451 51.3728 59.5231 51.222 59.3344V59.3344Z"></path><path id="vector_3" fill="#000000" d="M55.15 73.7972L56.46 70.9131C56.631 70.5379 56.067 70.2099 55.895 70.5881L54.585 73.4712C54.414 73.8475 54.978 74.1755 55.15 73.7972Z"></path><path id="vector_4" fill="#000000" d="M57.4361 75.8697C59.0111 73.3845 59.5551 73.3944 59.3751 72.9866C59.3598 72.9356 59.3309 72.8897 59.2914 72.8536C59.2519 72.8174 59.2032 72.7925 59.1505 72.7813C59.0978 72.7701 59.043 72.7731 58.9919 72.79C58.9408 72.8069 58.8952 72.837 58.8601 72.8772C58.1322 73.7179 57.4672 74.6094 56.8701 75.5446C56.6471 75.8973 57.2131 76.2213 57.4361 75.8697Z"></path><path id="vector_5" fill="#000000" d="M145.27 56.5391C144.306 56.4 143.33 56.3532 142.356 56.3992C141.747 56.3733 141.141 56.4983 140.593 56.7625C140.045 57.0268 139.574 57.4221 139.221 57.9122C138.701 58.7436 138.472 59.7201 138.57 60.6918C138.554 61.5429 138.477 65.2849 138.47 66.0197C138.449 66.9119 138.775 67.7783 139.38 68.4425C139.985 69.1066 140.824 69.5185 141.727 69.5943C142.067 69.6287 142.15 69.148 141.893 68.9934C140.752 68.3098 139.293 67.2135 139.893 66.0325C140.831 64.1935 142.842 65.0997 144.599 66.1536C145.186 66.5053 146.862 67.5169 147.108 67.6814C147.152 67.7034 147.201 67.7157 147.25 67.7175C147.3 67.7193 147.349 67.7106 147.395 67.6919C147.44 67.6731 147.481 67.6449 147.515 67.6091C147.548 67.5733 147.574 67.5307 147.589 67.4844C147.936 66.656 147.862 66.1921 147.947 61.7507C147.959 61.1183 147.998 60.48 147.98 59.8467C147.953 59.0806 147.674 58.3439 147.185 57.7474C146.697 57.1509 146.025 56.7268 145.27 56.5391V56.5391Z"></path><path id="vector_6" fill="#000000" d="M194.914 83.1341C194.45 80.908 191.978 79.0394 188.614 79.6432C194.229 75.0738 191.534 69.873 185.521 69.873C183.879 69.873 182.258 70.1833 180.621 70.2493C183.421 67.6154 183.471 61.8226 180.029 60.2023C177.807 59.4124 175.421 59.1755 173.084 59.5128C173.542 60.3402 173.072 61.2198 172.71 62.0738C172.256 63.1795 171.729 64.255 171.134 65.2938C170.756 65.9261 170.799 65.606 170.87 66.2108C171.104 68.1995 171.346 70.9388 171.405 73.0073C171.505 73.0891 174.491 75.7653 174.605 75.8707C177.772 78.8011 180.462 84.058 180.905 90.4152C190.722 92.2759 195.705 86.9322 194.914 83.1341Z"></path><path id="vector_7" fill="#000000" d="M167.517 53.327C166.613 52.3703 165.408 51.7426 164.096 51.5459C162.785 51.3492 161.444 51.595 160.292 52.2435C157.665 53.8845 157.617 57.9358 158.024 60.9647C160.136 61.7478 163.867 63.1041 166.059 63.6488C167.086 62.0649 168.3 60.607 169.677 59.3059C169.352 57.1843 168.955 54.9946 167.517 53.327ZM162.891 59.5975C162.305 59.6558 161.718 59.5034 161.237 59.1685C160.757 58.8336 160.415 58.3387 160.276 57.7752C160.169 57.3238 160.209 56.8504 160.392 56.423C160.575 55.9957 160.89 55.6363 161.293 55.3965C161.63 55.1698 162.022 55.034 162.429 55.0025C162.836 54.971 163.244 55.045 163.613 55.2171C163.982 55.3892 164.299 55.6534 164.533 55.9834C164.766 56.3135 164.907 56.6979 164.943 57.0986C164.975 57.6912 164.783 58.2746 164.404 58.736C164.025 59.1975 163.486 59.5044 162.891 59.5975V59.5975Z"></path><path id="vector_8" fill="#000000" d="M148.985 48.928L145.53 52.5104C145.24 52.8118 145.702 53.2679 145.993 52.9665L149.448 49.384C149.738 49.0836 149.276 48.6266 148.985 48.928Z"></path><path id="vector_9" fill="#000000" d="M137.082 48.9279C136.775 48.6452 136.311 49.1003 136.619 49.3839L140.519 52.9664C140.827 53.2491 141.291 52.795 140.982 52.5103L137.082 48.9279Z"></path><path id="vector_10" fill="#000000" d="M142.888 43.2415V52.735C142.893 52.8174 142.929 52.895 142.99 52.9518C143.051 53.0086 143.132 53.0402 143.216 53.0402C143.299 53.0402 143.38 53.0086 143.441 52.9518C143.502 52.895 143.538 52.8174 143.543 52.735V43.2415C143.538 43.1591 143.502 43.0815 143.441 43.0247C143.38 42.9679 143.299 42.9363 143.216 42.9363C143.132 42.9363 143.051 42.9679 142.99 43.0247C142.929 43.0815 142.893 43.1591 142.888 43.2415Z"></path><path id="vector_11" fill="#000000" d="M107.6 81.298C107.197 81.2311 106.785 81.2433 106.387 81.3339C105.989 81.4245 105.613 81.5918 105.28 81.826C104.948 82.0603 104.666 82.3569 104.451 82.6989C104.235 83.0408 104.091 83.4214 104.025 83.8186C103.964 84.4807 103.951 85.1463 103.987 85.8102C103.987 92.5368 103.978 91.7941 104.01 92.1261C105.956 91.1804 108.013 90.4728 110.134 90.0192C110.134 90.0192 110.142 86.2171 110.134 84.3219C110.138 83.6055 109.886 82.9105 109.423 82.3579C108.96 81.8054 108.315 81.4303 107.6 81.298V81.298Z"></path><path id="vector_12" fill="#000000" d="M88.271 111.448C88.8651 112.61 89.7626 113.596 90.8713 114.304C91.9801 115.012 93.2601 115.416 94.58 115.476C95.8999 115.535 97.2121 115.248 98.3819 114.642C99.5516 114.037 100.537 113.136 101.236 112.032C101.46 111.679 100.894 111.355 100.671 111.707C99.8423 113.016 98.5785 114.002 97.0947 114.497C95.6109 114.992 93.9988 114.965 92.533 114.421C88.933 113.078 88.033 109.89 87.541 106.178C87.2574 103.954 87.1854 101.708 87.326 99.4703C87.354 99.0566 86.699 99.0576 86.671 99.4703C86.442 102.895 86.739 108.449 88.271 111.448Z"></path><path id="vector_13" fill="#000000" d="M103.766 105.153C103.462 104.792 103.084 104.5 102.657 104.295C102.229 104.09 101.762 103.977 101.287 103.963C100.811 103.95 100.339 104.037 99.8999 104.218C99.4613 104.399 99.0669 104.67 98.743 105.013C98.349 105.501 98.0974 106.086 98.0153 106.704C97.9332 107.323 98.0237 107.952 98.277 108.523C99.428 111.271 102.644 111.517 103.991 109.36C104.41 108.725 104.613 107.976 104.573 107.22C104.532 106.464 104.25 105.741 103.766 105.153V105.153Z"></path><path id="vector_14" fill="#000000" d="M99.9881 86.2466C99.9881 86.2368 99.9881 86.2279 99.9881 86.2171C99.3451 84.6785 98.2421 82.417 96.6961 81.7314C95.6441 81.2655 94.9271 81.8141 94.9151 82.6179C94.9011 83.6098 95.8201 84.3338 96.5401 84.8834C97.4737 85.5905 98.4975 86.174 99.5851 86.619C99.632 86.6349 99.6823 86.6381 99.7309 86.6282C99.7795 86.6183 99.8244 86.5957 99.8611 86.5628C99.919 86.5358 99.9643 86.4881 99.9878 86.4294C100.011 86.3707 100.011 86.3054 99.9881 86.2466Z"></path><path id="vector_15" fill="#000000" d="M87.732 81.298C87.3287 81.231 86.9159 81.2433 86.5174 81.3342C86.1189 81.425 85.7426 81.5927 85.4102 81.8274C85.0778 82.0622 84.7958 82.3594 84.5806 82.702C84.3653 83.0446 84.221 83.4258 84.156 83.8235C84.083 84.3091 84.118 83.6009 84.118 91.7804C84.0969 92.4093 84.2708 93.0297 84.6165 93.559C84.9621 94.0883 85.4632 94.5013 86.053 94.7432C86.5196 94.9233 87.0236 94.9887 87.5216 94.934C88.0195 94.8792 88.4965 94.7059 88.9112 94.4289C89.326 94.152 89.6661 93.7798 89.9021 93.3444C90.1381 92.909 90.263 92.4236 90.266 91.9301C90.273 91.2918 90.273 86.2171 90.266 84.3269C90.2706 83.6096 90.0195 82.9135 89.5564 82.36C89.0933 81.8065 88.4476 81.4306 87.732 81.298V81.298Z"></path><path id="vector_16" fill="#000000" d="M106.285 80.3041C106.29 80.3866 106.326 80.4641 106.387 80.5209C106.448 80.5777 106.529 80.6093 106.612 80.6093C106.696 80.6093 106.777 80.5777 106.838 80.5209C106.899 80.4641 106.935 80.3866 106.94 80.3041C106.907 70.3733 88.553 69.1519 88.521 80.3041C88.5256 80.3866 88.5621 80.4641 88.6231 80.5209C88.684 80.5777 88.7646 80.6093 88.8485 80.6093C88.9324 80.6093 89.013 80.5777 89.0739 80.5209C89.1348 80.4641 89.1714 80.3866 89.176 80.3041C89.206 70.0148 106.256 71.2204 106.285 80.3041Z"></path><path id="vector_17" fill="#000000" d="M92.5161 96.1902L94.6461 93.3179C94.8951 92.983 94.3271 92.6609 94.0801 92.9929L91.9501 95.8651C91.7001 96.201 92.2691 96.5231 92.5161 96.1902Z"></path><path id="vector_18" fill="#000000" d="M93.1331 92.2807L91.0461 93.5829C90.6911 93.8045 91.0191 94.362 91.3771 94.1394L93.4631 92.8373C93.8181 92.6156 93.4901 92.0571 93.1331 92.2807Z"></path><path id="vector_19" fill="#000000" d="M94.8521 93.8626L95.2461 96.3478C95.3101 96.7566 95.9461 96.5832 95.8771 96.1764L95.4831 93.6912C95.4191 93.2795 94.7881 93.4558 94.8521 93.8626Z"></path><path id="vector_20" fill="#000000" d="M82.3421 84.642C82.6911 84.4125 82.3631 83.854 82.0121 84.0855C81.1214 84.8342 80.5281 85.869 80.3371 87.007C79.7691 89.2784 80.0751 91.7852 82.0121 93.1692C82.3531 93.4124 82.6801 92.854 82.3421 92.6116C79.5411 90.6101 80.9421 85.565 82.3421 84.642Z"></path><path id="vector_21" fill="#000000" d="M81.9581 81.0931C82.3271 80.8961 81.9971 80.3357 81.6281 80.5356C76.0781 83.5497 76.1521 94.4901 81.4471 97.0413C81.8241 97.2225 82.1561 96.667 81.7771 96.4838C76.9591 94.1661 76.7801 83.9043 81.9581 81.0931Z"></path><path id="vector_22" fill="#000000" d="M177.775 136.127C175.913 136.286 174.128 136.937 172.61 138.011C169.42 140.104 167.671 143.6 164.227 144.037C160.827 144.467 159.052 141.325 161.127 137.611C162.027 135.998 163.334 134.637 164.192 132.996C167.256 127.137 161.592 122.949 155.628 125.578C152.533 126.942 149.941 129.946 146.272 129.579C145.544 129.541 144.846 129.282 144.274 128.838C143.702 128.393 143.284 127.785 143.077 127.097C142.177 123.738 145.555 120.838 146.658 117.714C147.85 114.337 145.905 111.41 142.652 110.249C139.98 109.3 136.91 109.954 134.232 110.923C133.84 111.064 134.009 111.687 134.406 111.544C137.92 110.281 141.913 109.689 144.678 112.173C145.26 112.665 145.714 113.287 146.005 113.986C146.295 114.685 146.412 115.443 146.347 116.196C146.015 119.452 142.698 121.782 142.323 125.562C142.015 128.663 144.463 130.832 148.266 130.118C151.62 129.488 154.259 126.244 157.851 125.542C160.957 124.936 163.371 126.415 164.151 128.342C165.193 130.92 163.171 133.509 161.651 135.618C160.558 136.94 159.851 138.531 159.608 140.219C159.34 143.618 162.172 145.66 165.738 144.315C168.912 143.12 170.251 139.938 174.026 137.922C175.499 137.134 177.591 136.224 179.207 137.134C179.807 137.545 180.278 138.114 180.568 138.775C180.858 139.436 180.954 140.164 180.847 140.877C180.653 142.88 179.622 144.349 177.147 148.807C176.947 149.17 177.51 149.496 177.712 149.132L179.249 146.363C180.518 144.077 182.149 141.462 181.271 138.815C181.056 138.058 180.601 137.389 179.972 136.905C179.343 136.421 178.573 136.149 177.775 136.127V136.127Z"></path></g></g><g id="line"><g id="group_2"><path id="vector_23" fill="#000000" d="M45.7201 56.3962C45.2201 56.0219 44.5661 55.9618 44.0771 55.5648C43.5855 55.0332 42.9957 54.5986 42.3391 54.2843C41.6227 54.0981 40.8614 54.1845 40.2067 54.5262C39.5521 54.8679 39.052 55.4398 38.8061 56.1283C38.6945 56.6462 38.6137 57.1701 38.5641 57.6974C38.4281 58.5691 38.1761 58.7513 38.1101 59.4556C37.9101 61.5625 40.4251 62.7189 42.2101 61.9181C42.7744 61.6386 43.2282 61.1821 43.4998 60.6204C43.7714 60.0587 43.8454 59.424 43.7101 58.8163C45.8431 58.7986 46.8001 57.2058 45.7201 56.3962ZM42.1781 61.1931C40.8831 62.0442 38.1031 61.2325 38.9071 58.8813C39.6411 58.9365 40.5071 58.2903 41.1691 58.2903C41.8076 58.392 42.4365 58.5459 43.0491 58.7503C43.1701 59.1965 43.1517 59.6683 42.9963 60.1041C42.8409 60.5399 42.5558 60.9194 42.1781 61.1931V61.1931ZM45.4501 57.4501C45.2309 57.7037 44.9528 57.9014 44.6394 58.0264C44.3261 58.1514 43.9867 58.2001 43.6501 58.1682C42.9333 58.0511 42.2254 57.8865 41.5311 57.6757C40.6661 57.5526 39.9851 58.0618 39.1181 58.2214C39.3371 57.2364 39.1781 56.0741 40.0461 55.3915C40.5035 55.0193 41.0788 54.8164 41.6721 54.8182C42.8561 54.8556 43.1321 56.0278 44.6931 56.6148C45.0431 56.7419 45.7251 56.9596 45.4501 57.4491V57.4501Z"></path><path id="vector_24" fill="#000000" d="M73.0101 84.3682C72.4331 84.0727 63.8321 79.6175 62.4941 78.929C63.1729 77.3269 64.187 75.8837 65.4701 74.6935C66.1141 74.0572 67.0341 73.4524 67.0271 72.4487C67.0171 71.1121 65.2791 69.7981 62.0601 71.0461C62.8721 70.2009 63.8081 69.4602 63.9861 68.4073C64.0437 68.1404 64.0382 67.8641 63.9701 67.5997C63.9019 67.3352 63.7728 67.0898 63.5929 66.8824C63.413 66.675 63.187 66.5111 62.9325 66.4035C62.6779 66.2959 62.4017 66.2475 62.1251 66.2619C60.4501 66.2078 58.9481 67.5188 57.6711 68.5481C57.9371 68.0812 58.2151 67.6183 58.4521 67.1366C59.0521 65.9251 59.3921 63.9846 57.9611 63.2065C56.7711 62.5603 55.7791 63.2429 54.8841 64.2368C53.8631 65.3715 53.4021 66.2353 49.7531 72.498C49.2821 71.7435 48.8221 70.9968 48.3361 70.3182C47.5361 69.2012 46.6241 68.4979 45.2911 68.8919C44.8503 69.0091 44.4548 69.2529 44.1551 69.5922C5.69411 49.8902 8.59112 51.3658 8.47012 51.3234C7.78112 51.0811 8.02412 49.3879 8.02412 122.645C8.02497 122.702 8.04074 122.757 8.06986 122.806C8.09899 122.854 8.14047 122.895 8.19023 122.923C8.23998 122.951 8.29629 122.965 8.35361 122.966C8.41093 122.966 8.46728 122.951 8.51712 122.923C9.09412 122.583 34.8771 107.414 35.0921 107.272C37.7425 109.406 41.1361 110.431 44.5451 110.129C52.9621 109.787 59.8761 104.53 61.5901 91.6739C62.7311 91.0012 72.9741 84.9454 73.0101 84.9247C73.0588 84.8958 73.099 84.855 73.1269 84.8062C73.1549 84.7575 73.1695 84.7024 73.1695 84.6465C73.1695 84.5905 73.1549 84.5354 73.1269 84.4867C73.099 84.4379 73.0588 84.3971 73.0101 84.3682V84.3682ZM14.1851 97.8883C14.0771 100.464 13.7681 113.204 13.8741 119.016C12.8531 119.617 9.37412 121.618 8.67912 122.055C8.67912 122.055 8.68812 52.93 8.67912 52.1469L43.8441 70.1635C43.747 70.4732 43.6948 70.7949 43.6891 71.119C41.4352 70.0345 38.9707 69.4405 36.4631 69.3773C33.9555 69.3141 31.4634 69.7831 29.1561 70.7525C25.8873 72.2373 22.9732 74.3845 20.6039 77.0537C18.2347 79.723 16.4635 82.8545 15.4061 86.2436C14.5441 89.0056 14.3091 94.954 14.1851 97.8883ZM52.0931 107.443C48.6752 109.253 44.7452 109.898 40.9161 109.277C38.8406 108.852 36.9025 107.933 35.2711 106.6C35.2211 106.57 35.1639 106.555 35.1056 106.555C35.0473 106.555 34.9901 106.57 34.9401 106.6C34.2401 107.009 14.6491 118.546 14.5251 118.617C14.4371 112.966 14.6011 93.4558 15.6611 87.8679C16.299 85.1281 17.4361 82.525 19.0171 80.1849C22.0171 75.6697 26.8341 71.8508 31.6511 70.5595C35.6962 69.5118 39.9914 69.9676 43.7171 71.84C44.0581 75.5327 45.9361 75.5564 43.2251 85.2872C43.2125 85.335 43.2111 85.3849 43.221 85.4333C43.2309 85.4816 43.2518 85.5272 43.2821 85.5664C43.3124 85.6057 43.3514 85.6377 43.3961 85.6599C43.4408 85.6822 43.49 85.6942 43.5401 85.695H61.3401C61.2531 93.969 59.3461 103.319 52.0931 107.447V107.443ZM61.3381 85.0488H43.9651C46.3021 76.4527 45.0411 76.1632 44.4281 72.296C44.3141 71.576 44.1341 70.3122 44.8391 69.805C45.0636 69.6399 45.3224 69.5258 45.597 69.4708C45.8715 69.4158 46.155 69.4212 46.4271 69.4868C47.4411 69.7823 48.1631 71.2283 49.4811 73.2869C49.5107 73.3346 49.5522 73.374 49.6017 73.4014C49.6511 73.4287 49.7069 73.4431 49.7636 73.4431C49.8203 73.4431 49.8761 73.4287 49.9256 73.4014C49.975 73.374 50.0166 73.3346 50.0461 73.2869C50.9331 71.7592 51.8301 70.2335 52.7231 68.7116C53.4661 67.4429 55.5371 63.4911 57.0761 63.5985C57.4097 63.6229 57.7218 63.7697 57.9506 64.01C58.1795 64.2502 58.3085 64.5663 58.3121 64.8957C58.2952 65.5543 58.1506 66.2036 57.8861 66.8086C57.4251 67.7473 56.6051 68.9756 56.3981 69.5962C56.3828 69.6577 56.3859 69.7222 56.4072 69.782C56.4285 69.8417 56.4671 69.8941 56.5181 69.9326C56.5691 69.9712 56.6304 69.9943 56.6945 69.9991C56.7586 70.0039 56.8228 69.9902 56.8791 69.9596C58.2631 68.9963 59.4611 67.6202 61.1041 67.0805C62.6291 66.5791 63.4251 67.2558 63.3621 68.1521C63.3001 69.0219 62.5051 69.6533 61.9341 70.2394C61.3531 70.8829 60.7015 71.461 59.9911 71.9631C59.6151 72.1601 59.9461 72.69 60.3221 72.5196C61.7471 71.8754 63.2931 71.0077 64.9221 71.2234C65.6761 71.3219 66.6111 71.8912 66.3221 72.7679C66.1471 73.2988 65.6221 73.5618 64.4791 74.7792C60.8001 78.7015 61.3051 81.4211 61.3381 85.0528V85.0488ZM61.6921 90.8377C62.3921 84.7011 61.5531 82.2682 62.2921 79.5486C62.3921 79.6028 70.8001 84.0362 72.1521 84.6706C61.6891 90.8436 61.6791 90.9569 61.6921 90.8416V90.8377Z"></path><path id="vector_25" fill="#000000" d="M51.225 59.3373C49.792 57.6924 48.071 60.2426 49.006 61.3586C49.1013 61.4665 49.2173 61.5548 49.3474 61.6184C49.4775 61.682 49.6191 61.7195 49.764 61.7289C49.7221 62.0629 49.6035 62.3832 49.4172 62.6653C49.2308 62.9474 48.9817 63.184 48.6887 63.3571C48.3956 63.5302 48.0664 63.6352 47.726 63.6642C47.3856 63.6933 47.0429 63.6455 46.724 63.5246C45.406 62.973 45.056 61.3576 44.898 60.1086C44.847 59.7028 44.191 59.6979 44.243 60.1086C44.2789 61.4168 44.7943 62.668 45.694 63.631C46.0956 63.9819 46.5897 64.2138 47.1193 64.3C47.649 64.3862 48.1925 64.3231 48.6874 64.1181C49.1822 63.9131 49.608 63.5744 49.9159 63.1412C50.2237 62.708 50.4009 62.198 50.427 61.6698C50.6696 61.612 50.8933 61.4946 51.0773 61.3286C51.2613 61.1626 51.3996 60.9533 51.4793 60.7204C51.5589 60.4875 51.5774 60.2385 51.533 59.9966C51.4885 59.7548 51.3826 59.528 51.225 59.3373ZM49.74 61.0778C48.914 60.8956 49.759 58.6419 50.762 59.7973C51.2 60.2938 50.653 61.2768 49.74 61.0778Z"></path><path id="vector_26" fill="#000000" d="M32.0561 80.8685C31.7501 80.5838 31.2861 81.0389 31.5931 81.3245C34.8551 84.3534 38.4701 88.5298 41.5251 90.7697C41.6002 90.8123 41.6892 90.824 41.7731 90.8025C41.8569 90.7809 41.9287 90.7277 41.9731 90.6545C42.6497 89.41 43.1635 88.0862 43.5021 86.7145C43.5252 86.632 43.5141 86.544 43.4712 86.4696C43.4283 86.3953 43.3573 86.3407 43.2736 86.318C43.1899 86.2953 43.1005 86.3062 43.025 86.3484C42.9495 86.3906 42.8942 86.4606 42.8711 86.5431C42.566 87.7361 42.1329 88.8937 41.5791 89.9965C38.8551 87.925 34.2001 82.8661 32.0561 80.8685Z"></path><path id="vector_27" fill="#000000" d="M19.1311 91.1637C18.9011 90.818 18.3311 91.141 18.5661 91.4897C22.8031 97.8528 27.3551 101.799 33.5591 106.329C33.8981 106.576 34.2251 106.017 33.8901 105.772C27.7661 101.3 23.1801 97.2461 19.1311 91.1637Z"></path><path id="vector_28" fill="#000000" d="M42.4001 108.49H46.7001C46.7868 108.49 46.87 108.456 46.9313 108.396C46.9927 108.335 47.0271 108.253 47.0271 108.168C47.0271 108.082 46.9927 108 46.9313 107.94C46.87 107.88 46.7868 107.846 46.7001 107.846H42.4001C42.3134 107.846 42.2302 107.88 42.1689 107.94C42.1076 108 42.0731 108.082 42.0731 108.168C42.0731 108.253 42.1076 108.335 42.1689 108.396C42.2302 108.456 42.3134 108.49 42.4001 108.49V108.49Z"></path><path id="vector_29" fill="#000000" d="M55.1531 73.7991L56.4641 70.9199C56.6341 70.5446 56.0701 70.2157 55.8981 70.5949L54.5881 73.478C54.4171 73.8493 54.9811 74.1783 55.1531 73.7991Z"></path><path id="vector_30" fill="#000000" d="M57.453 75.8696C58.0168 74.9792 58.6475 74.1317 59.34 73.3342C59.613 73.02 59.152 72.562 58.877 72.8782C58.147 73.7168 57.4818 74.6081 56.887 75.5446C56.664 75.8972 57.23 76.2213 57.453 75.8696Z"></path><path id="vector_31" fill="#000000" d="M192.552 80.1652V51.614C192.551 51.5576 192.536 51.5024 192.507 51.4537C192.478 51.4051 192.436 51.3647 192.387 51.3366C192.337 51.3085 192.281 51.2936 192.224 51.2933C192.166 51.2931 192.11 51.3075 192.06 51.3352C191.483 51.6307 177.086 59.0182 176.322 59.4122C175.244 59.3298 174.161 59.3668 173.091 59.5225C172.585 58.5779 171.179 58.1682 169.697 59.2901C169.118 55.5471 167.997 52.0296 164.119 51.545C162.801 51.3425 161.452 51.5888 160.295 52.2434C157.652 53.8952 157.629 57.918 158.034 60.9665L156.059 60.2317C153.012 59.098 151.347 62.5888 155.208 64.3874C154.193 64.2709 153.165 64.4507 152.253 64.9046C151.953 65.0907 151.731 65.3775 151.628 65.7121C151.525 66.0468 151.548 66.4067 151.693 66.7258C152.14 67.8093 153.342 68.1048 154.393 68.3018C154.844 68.3875 155.303 68.4693 155.764 68.5412C154.747 68.8564 153.03 69.4878 152.456 70.3703C152.353 70.568 152.295 70.7855 152.286 71.0075C152.278 71.2295 152.318 71.4508 152.405 71.6558C152.154 71.7818 151.852 71.9257 151.612 72.0498C151.023 72.3512 150.37 72.7068 149.776 73.0131C149.056 71.1918 148.222 69.4021 147.349 67.7039C147.929 67.5069 147.87 65.5813 147.882 64.9844C147.882 64.8859 147.982 59.953 147.976 59.8466C147.951 59.0811 147.674 58.3444 147.187 57.7472C146.7 57.15 146.029 56.7247 145.276 56.535C144.821 56.4478 144.358 56.4104 143.895 56.4237C142.281 56.3932 140.905 56.2021 139.65 57.4087C138.396 56.0514 136.785 56.4188 136.37 57.5644C136.203 58.5502 136.316 59.5625 136.697 60.4888C134.519 58.2598 133.014 59.8722 133.377 61.7841C133.548 62.5729 133.787 63.3459 134.091 64.0949C133.625 63.5213 132.999 63.093 132.291 62.8617C131.817 62.7994 131.337 62.9245 130.956 63.2097C130.576 63.4948 130.325 63.9169 130.259 64.3835C129.908 65.9398 130.784 66.783 132.683 71.249C133.134 72.7223 133.369 74.2512 133.383 75.7898C133.404 77.7665 133.228 79.7404 132.857 81.6831C132 82.1204 128.503 83.8678 127.679 84.316C127.273 84.5356 127.409 84.8321 127.571 84.9277L131.725 87.3655C130.912 91.5882 130.574 95.344 131.9 99.4741C132.274 100.728 132.803 101.931 133.476 103.057C136.255 107.471 141.595 108.238 146.248 105.706C148.442 104.422 150.289 102.633 151.629 100.494C154.803 109.416 164.485 112.846 171.021 110.528L192.06 122.928C192.11 122.956 192.166 122.97 192.223 122.97C192.281 122.97 192.337 122.955 192.386 122.927C192.436 122.899 192.477 122.859 192.506 122.81C192.535 122.762 192.551 122.707 192.552 122.65V88.4077C195.915 85.7363 195.7 81.8535 192.552 80.1652ZM191.9 52.1656V79.8835C190.848 79.5157 189.715 79.4353 188.62 79.651C194.22 75.0895 191.551 69.8808 185.527 69.8808C183.885 69.8808 182.263 70.1921 180.627 70.2571C183.427 67.6242 183.477 61.8314 180.035 60.2101C179.234 59.8613 178.383 59.6358 177.512 59.5413C193.3 51.4396 191.407 52.4384 191.9 52.1656ZM158.536 57.4107C158.685 54.9127 159.522 52.792 162.014 52.2641C163.259 51.983 164.564 52.1278 165.714 52.6748C168.174 53.9622 168.674 57.1172 169.114 59.8003C168.001 61.008 166.98 62.296 166.062 63.6536C164.034 63.1493 160.687 61.9476 158.729 61.2295C158.532 59.9664 158.467 58.6869 158.534 57.4107H158.536ZM152.723 72.2241C153.691 73.4475 155.723 72.824 157.142 72.1719L156.903 72.7934C154.698 73.9826 152.792 75.6441 151.325 77.6554C150.961 76.2876 150.523 74.9395 150.015 73.6169C150.874 73.1796 151.859 72.6664 152.721 72.2241H152.723ZM150.836 97.2638C147.936 95.9587 146.718 95.5341 145.698 94.5718C144.696 93.6201 144.026 92.3806 143.783 91.0308C143.54 89.6809 143.737 88.29 144.346 87.0572C145.063 85.6388 146.803 84.1603 151.567 78.3892C152.871 76.5798 154.51 75.0287 156.397 73.8169C156.61 73.6868 156.819 73.0111 154.647 78.6631C152.406 84.4864 149.948 90.945 150.834 97.2638H150.836ZM142.207 57.0394C142.961 57.0462 143.717 57.061 144.471 57.0807C145.147 57.0972 145.796 57.3429 146.309 57.7763C146.822 58.2097 147.168 58.8042 147.287 59.4595C147.351 60.0815 147.356 60.7081 147.301 61.331C147.201 66.4225 147.261 66.2924 147.091 66.9051C146.445 66.4934 145.783 66.1082 145.126 65.7133C143.818 64.9253 141.926 63.8093 140.434 64.5795C140.115 64.7485 139.836 64.9809 139.614 65.2621C139.391 65.5433 139.231 65.867 139.142 66.2127C139.116 65.6896 139.242 59.6811 139.27 59.5147C139.372 58.8218 139.725 58.189 140.265 57.7337C140.805 57.2784 141.494 57.0317 142.205 57.0394H142.207ZM137 57.7348C137.3 56.9773 138.312 57.0925 138.846 57.5141C138.986 57.6333 139.115 57.7652 139.23 57.9081C138.478 58.9778 138.593 59.7314 138.53 63.2389C137.909 62.0491 136.575 58.8242 137 57.7348ZM128.407 84.6647C128.407 84.6647 131.718 82.9902 132.707 82.4809C132.441 83.8895 132.133 85.2892 131.853 86.6898C127.859 84.3475 129.188 85.1178 128.405 84.6647H128.407ZM147.354 104.224C144.614 106.292 140.81 107.179 137.764 105.916C136.684 105.451 135.718 104.762 134.933 103.895C134.115 102.95 133.474 101.868 133.04 100.701C129.228 91.3883 134.665 83.7496 133.982 74.7221C133.911 73.5492 133.713 72.3871 133.39 71.2559C132.857 69.9891 132.294 68.7343 131.703 67.4912C131.211 66.4589 130.361 65.01 131.173 63.9176C131.691 63.2192 132.285 63.4005 132.973 63.9403C133.814 64.6602 134.522 65.5172 135.068 66.4737C135.275 66.848 135.794 66.519 135.633 66.1486C135.062 64.8977 134.576 63.6108 134.178 62.2963C133.976 61.8031 133.929 61.2617 134.043 60.742C134.415 59.5964 135.277 60.0012 136.151 60.8552C136.903 61.6796 137.527 62.609 138.002 63.6132C138.026 63.6567 138.059 63.6947 138.099 63.7248C138.139 63.755 138.184 63.7766 138.233 63.7883C138.282 63.7999 138.333 63.8015 138.382 63.7927C138.432 63.7839 138.479 63.7651 138.52 63.7373C138.52 63.762 138.485 65.2789 138.477 66.0137C138.456 66.9059 138.781 67.7725 139.386 68.4367C139.992 69.1009 140.831 69.5128 141.734 69.5883C142.073 69.6227 142.156 69.1411 141.899 68.9874C140.758 68.2979 139.299 67.2006 139.899 66.0265C141.114 63.6438 144.104 65.8453 146.367 67.2085C150.245 74.5625 150.555 77.6643 150.808 78.2897C145.692 84.444 144.363 85.3817 143.615 87.0976C143.238 87.9707 143.041 88.909 143.035 89.858C143.03 90.8069 143.216 91.7473 143.584 92.6244C144.875 95.6829 147.045 96.2473 150.969 98.0213C151.074 98.5834 151.207 99.14 151.369 99.6889C150.315 101.424 148.955 102.96 147.352 104.224H147.354ZM152.832 101.722C150.71 97.2736 151.086 92.2117 152.296 87.5724C153.342 83.5615 154.965 79.6717 158.052 71.6154C158.162 71.3287 157.802 71.1386 157.571 71.2509C156.461 71.7887 153.445 73.2918 152.971 71.2637C152.886 70.8983 152.94 70.7959 153.056 70.6452C153.769 69.7193 156.596 68.8544 157.902 68.7303C158.313 68.6909 158.331 68.0832 157.902 68.0851C156.991 68.066 156.084 67.9671 155.191 67.7896C154.248 67.7629 153.335 67.4536 152.574 66.9031C152.457 66.7896 152.365 66.6539 152.304 66.5041C152.242 66.3544 152.212 66.1939 152.216 66.0324C152.28 65.2789 153.45 65.073 154.216 65.0297C155.372 64.9927 156.528 65.1171 157.648 65.399C157.994 65.4769 158.248 64.9824 157.9 64.808C156.609 64.1619 153.919 63.5738 153.634 61.9909C153.604 61.8084 153.617 61.6214 153.673 61.4449C153.729 61.2684 153.827 61.1074 153.958 60.9748C154.089 60.8422 154.25 60.7417 154.427 60.6814C154.605 60.6211 154.794 60.6027 154.98 60.6277C155.337 60.6621 155.686 60.7533 156.013 60.8976C158.513 61.8333 163.492 63.6999 166.107 64.3224C166.177 64.3391 166.25 64.3338 166.316 64.3073C166.383 64.2808 166.439 64.2344 166.477 64.1747C167.636 62.578 169.608 59.5452 171.197 59.2753C171.368 59.2283 171.548 59.2221 171.722 59.2572C171.896 59.2924 172.06 59.3678 172.198 59.4774C172.337 59.5869 172.447 59.7274 172.519 59.8872C172.592 60.047 172.625 60.2215 172.615 60.3962C172.068 62.0753 171.33 63.6881 170.415 65.204C170.313 65.3278 170.228 65.4651 170.164 65.6118C170.147 65.8101 170.163 66.0099 170.213 66.2028C171.226 76.1585 170.788 86.2058 168.913 96.0394C168.901 96.0872 168.9 96.1371 168.91 96.1853C168.921 96.2335 168.942 96.2788 168.972 96.3179C169.002 96.3571 169.041 96.389 169.086 96.4114C169.13 96.4338 169.179 96.446 169.229 96.4472L179.689 97.775C178.805 101.978 176.547 105.779 173.26 108.597C167.949 112.677 157.01 110.482 152.83 101.722H152.832ZM171.432 73.9449C171.78 74.201 174.054 76.237 174.154 76.3296C179.054 80.8665 180.948 88.6303 180.154 95.2662C180.081 95.9008 179.975 96.5313 179.837 97.1554L169.626 95.8592C170.937 88.6277 171.54 81.2889 171.427 73.9439L171.432 73.9449ZM191.9 119.761C191.9 120.52 191.855 121.3 191.88 122.064L171.78 110.222C176.555 108.1 181.599 100.238 180.913 90.4171C184.669 91.1292 188.693 90.9903 191.899 88.8805L191.9 119.761ZM193.012 87.074C192.051 88.1055 190.85 88.8914 189.512 89.3641C186.723 90.2915 183.724 90.4254 180.861 89.7502C180.278 83.6176 177.605 78.6384 174.613 75.8696C173.597 74.8678 172.525 73.9221 171.402 73.0367C171.027 61.924 169.812 68.8879 172.714 62.0697C173.044 61.4804 173.234 60.825 173.27 60.1529C175.141 59.8823 177.049 59.9868 178.878 60.4603C179.561 60.6113 180.189 60.9451 180.692 61.4249C181.196 61.9047 181.555 62.512 181.73 63.1798C182.503 65.6423 181.742 68.8515 179.522 70.3034C179.462 70.3403 179.415 70.3953 179.389 70.4603C179.363 70.5253 179.359 70.5968 179.378 70.6642C179.396 70.7316 179.437 70.7913 179.492 70.8346C179.548 70.8778 179.616 70.9022 179.687 70.9042C182.541 70.9899 185.504 69.9409 188.276 70.985C191.004 72.0133 191.751 74.4325 190.328 76.8379C189.424 78.15 188.265 79.2717 186.916 80.1376C186.847 80.1769 186.795 80.2398 186.769 80.3143C186.744 80.3888 186.747 80.4699 186.778 80.5424C186.809 80.6149 186.865 80.6739 186.937 80.7081C187.009 80.7424 187.091 80.7497 187.168 80.7286C192.5 78.5971 196.552 83.1093 193.012 87.074Z"></path><path id="vector_32" fill="#000000" d="M168.593 97.8696C168.368 98.7829 167.968 99.6452 167.413 100.41C167.169 100.749 167.736 101.071 167.978 100.735C168.563 99.9232 168.986 99.0089 169.224 98.041C169.323 97.6371 168.692 97.4658 168.593 97.8696Z"></path><path id="vector_33" fill="#000000" d="M163.49 55.1669C163.095 55.0112 162.664 54.9633 162.243 55.028C161.822 55.0928 161.427 55.2679 161.099 55.5349C160.77 55.802 160.521 56.1512 160.377 56.5459C160.233 56.9405 160.199 57.3662 160.279 57.7781C160.406 58.3552 160.751 58.8632 161.244 59.1993C161.737 59.5354 162.341 59.6745 162.934 59.5885C163.527 59.5026 164.064 59.1978 164.438 58.7361C164.812 58.2744 164.993 57.69 164.946 57.1014C164.92 56.6746 164.768 56.2645 164.51 55.921C164.251 55.5775 163.897 55.3155 163.49 55.1669V55.1669ZM163.228 58.8528C162.993 58.9375 162.743 58.9719 162.494 58.9537C162.245 58.9355 162.002 58.865 161.783 58.747C161.563 58.6291 161.372 58.4663 161.222 58.2697C161.072 58.073 160.966 57.847 160.911 57.6067C160.865 57.3374 160.887 57.0612 160.975 56.8021C161.062 56.543 161.213 56.3088 161.413 56.1201C161.613 55.9314 161.857 55.7938 162.124 55.7194C162.391 55.6449 162.672 55.6358 162.943 55.6929C163.299 55.7626 163.622 55.944 163.864 56.2099C164.107 56.4757 164.255 56.8118 164.287 57.1677C164.319 57.5236 164.233 57.8801 164.042 58.1839C163.851 58.4877 163.566 58.7224 163.228 58.8528V58.8528Z"></path><path id="vector_34" fill="#000000" d="M148.989 48.9309L145.533 52.5133C145.243 52.8088 145.706 53.2708 145.996 52.9694L149.452 49.387C149.742 49.0865 149.28 48.6295 148.989 48.9309Z"></path><path id="vector_35" fill="#000000" d="M137.086 48.9308C136.778 48.6481 136.314 49.1032 136.623 49.3869L140.523 52.9693C140.83 53.252 141.294 52.7969 140.986 52.5133L137.086 48.9308Z"></path><path id="vector_36" fill="#000000" d="M142.892 43.2474V52.7408C142.892 52.8262 142.927 52.9082 142.988 52.9686C143.049 53.029 143.132 53.0629 143.219 53.0629C143.306 53.0629 143.389 53.029 143.45 52.9686C143.512 52.9082 143.546 52.8262 143.546 52.7408V43.2474C143.546 43.162 143.512 43.08 143.45 43.0196C143.389 42.9592 143.306 42.9253 143.219 42.9253C143.132 42.9253 143.049 42.9592 142.988 43.0196C142.927 43.08 142.892 43.162 142.892 43.2474V43.2474Z"></path><path id="vector_37" fill="#000000" d="M161.711 65.6177L158.893 65.0366C158.481 64.9519 158.306 65.5734 158.719 65.6581L161.537 66.2393C161.948 66.324 162.124 65.6995 161.711 65.6177Z"></path><path id="vector_38" fill="#000000" d="M161.177 67.4459L158.577 68.3649C158.184 68.5038 158.353 69.1273 158.751 68.9864L161.351 68.0674C161.745 67.9285 161.575 67.305 161.177 67.4459Z"></path><path id="vector_39" fill="#000000" d="M141.124 70.8983C141.165 70.9096 141.209 70.9127 141.251 70.9075C141.294 70.9022 141.335 70.8888 141.373 70.8679C141.41 70.847 141.443 70.819 141.469 70.7856C141.496 70.7523 141.515 70.7141 141.527 70.6732C141.538 70.6324 141.541 70.5898 141.536 70.5478C141.531 70.5058 141.517 70.4652 141.496 70.4284C141.474 70.3916 141.446 70.3592 141.412 70.3332C141.378 70.3072 141.34 70.288 141.298 70.2768C139.219 69.7697 137.029 69.9426 135.059 70.7693C134.984 70.8125 134.93 70.8833 134.908 70.9661C134.886 71.0488 134.898 71.1368 134.942 71.2106C134.986 71.2844 135.058 71.338 135.142 71.3596C135.226 71.3812 135.315 71.369 135.39 71.3258C137.205 70.5783 139.216 70.4284 141.124 70.8983V70.8983Z"></path><path id="vector_40" fill="#000000" d="M141.76 104.688H138.76C138.676 104.692 138.598 104.728 138.54 104.788C138.482 104.848 138.45 104.928 138.45 105.01C138.45 105.093 138.482 105.172 138.54 105.232C138.598 105.292 138.676 105.328 138.76 105.333H141.76C141.844 105.328 141.923 105.292 141.98 105.232C142.038 105.172 142.07 105.093 142.07 105.01C142.07 104.928 142.038 104.848 141.98 104.788C141.923 104.728 141.844 104.692 141.76 104.688V104.688Z"></path><path id="vector_41" fill="#000000" d="M167.673 109.121H164.536C164.452 109.126 164.374 109.162 164.316 109.222C164.258 109.282 164.226 109.361 164.226 109.444C164.226 109.526 164.258 109.606 164.316 109.666C164.374 109.726 164.452 109.762 164.536 109.766H167.673C167.757 109.762 167.836 109.726 167.893 109.666C167.951 109.606 167.983 109.526 167.983 109.444C167.983 109.361 167.951 109.282 167.893 109.222C167.836 109.162 167.757 109.126 167.673 109.121Z"></path><path id="vector_42" fill="#000000" d="M104.643 84.4253C104.618 83.8704 104.787 83.3237 105.121 82.8759C105.454 82.4281 105.933 82.106 106.478 81.9628C106.834 81.8809 107.204 81.8787 107.561 81.9563C107.918 82.034 108.253 82.1896 108.541 82.4116C108.829 82.6336 109.063 82.9164 109.225 83.2392C109.387 83.562 109.473 83.9165 109.478 84.2766C109.497 85.8871 109.478 89.8103 109.478 90.161C109.695 90.1088 109.914 90.0625 110.133 90.0182C110.133 90.0182 110.14 86.2161 110.133 84.3199C110.144 83.5535 109.859 82.8116 109.336 82.2439C108.814 81.6762 108.092 81.325 107.316 81.2612C106.541 81.1975 105.769 81.4259 105.158 81.9003C104.547 82.3748 104.141 83.06 104.023 83.8176C103.944 84.3426 103.975 91.7794 104.009 92.1251C104.219 92.0266 104.428 91.9281 104.64 91.8296C104.641 91.4159 104.643 92.4659 104.643 84.4253Z"></path><path id="vector_43" fill="#000000" d="M121.329 152.354H124.629C124.713 152.349 124.792 152.313 124.849 152.253C124.907 152.193 124.939 152.114 124.939 152.031C124.939 151.949 124.907 151.869 124.849 151.809C124.792 151.749 124.713 151.713 124.629 151.709H121.329C121.245 151.713 121.167 151.749 121.109 151.809C121.051 151.869 121.019 151.949 121.019 152.031C121.019 152.114 121.051 152.193 121.109 152.253C121.167 152.313 121.245 152.349 121.329 152.354V152.354Z"></path><path id="vector_44" fill="#000000" d="M88.274 111.451C88.868 112.613 89.7655 113.599 90.8744 114.308C91.9832 115.016 93.2634 115.42 94.5835 115.48C95.9036 115.539 97.2159 115.251 98.3858 114.646C99.5556 114.041 100.541 113.139 101.24 112.035C101.464 111.682 100.898 111.358 100.674 111.71C99.8452 113.019 98.5812 114.005 97.0975 114.499C95.6137 114.994 94.0017 114.967 92.536 114.422C88.936 113.08 88.036 109.891 87.544 106.18C87.2633 103.956 87.1913 101.71 87.329 99.4731C87.357 99.0584 86.702 99.0604 86.675 99.4731C86.446 102.899 86.742 108.455 88.274 111.451Z"></path><path id="vector_45" fill="#000000" d="M101.457 110.812C103.744 110.781 105.077 108.19 104.394 106.235C104.214 105.725 103.912 105.265 103.514 104.895C103.115 104.524 102.632 104.253 102.105 104.105C101.577 103.958 101.022 103.937 100.485 104.046C99.948 104.154 99.4455 104.389 99.02 104.729C96.678 106.862 98.677 110.853 101.457 110.812ZM99.246 105.43C99.6079 105.059 100.071 104.798 100.579 104.679C101.088 104.561 101.62 104.589 102.113 104.76C102.605 104.932 103.037 105.239 103.357 105.646C103.677 106.054 103.87 106.543 103.915 107.056C104.009 107.741 103.841 108.436 103.445 109.006C103.048 109.576 102.45 109.981 101.768 110.142C99.576 110.511 97.607 107.379 99.246 105.433V105.43Z"></path><path id="vector_46" fill="#000000" d="M99.492 89.7945C100.381 87.0936 97.572 85.823 95.426 87.0365C93.156 88.317 93.397 91.9241 96.342 92.0206C97.0412 92.0366 97.7267 91.828 98.295 91.4264C98.8632 91.0248 99.2834 90.452 99.492 89.7945V89.7945ZM94.67 90.3165C94.5246 89.8609 94.5248 89.3722 94.6706 88.9166C94.8163 88.461 95.1006 88.0605 95.485 87.7693C96.963 86.6711 99.655 87.2089 98.861 89.6231C98.161 91.7517 95.258 91.9004 94.67 90.3165V90.3165Z"></path><path id="vector_47" fill="#000000" d="M99.992 86.2495C99.6392 85.329 99.1905 84.447 98.653 83.6176C98.1833 82.8282 97.5066 82.1777 96.694 81.7343C95.643 81.2674 94.925 81.816 94.913 82.6208C94.899 83.6127 95.819 84.3367 96.538 84.8863C97.4717 85.5933 98.4954 86.1768 99.583 86.6219C99.6368 86.6373 99.6938 86.6387 99.7483 86.6261C99.8029 86.6134 99.8532 86.587 99.8943 86.5496C99.9355 86.5121 99.9661 86.4648 99.9832 86.4122C100 86.3596 100.003 86.3036 99.992 86.2495V86.2495ZM95.721 83.1616C94.921 81.6939 97.114 81.4683 99.037 85.6654C98.072 85.1926 96.23 84.0973 95.721 83.1616Z"></path><path id="vector_48" fill="#000000" d="M84.122 91.7783C84.1041 92.1806 84.1678 92.5823 84.3094 92.96C84.451 93.3377 84.6676 93.6838 84.9465 93.9781C85.2255 94.2724 85.5612 94.5089 85.9341 94.6739C86.3069 94.8389 86.7094 94.929 87.1181 94.939C87.5267 94.9489 87.9333 94.8785 88.3139 94.7319C88.6946 94.5853 89.0418 94.3653 89.3352 94.085C89.6286 93.8047 89.8623 93.4695 90.0226 93.0991C90.183 92.7288 90.2667 92.3307 90.269 91.9281C90.276 91.2888 90.277 86.2151 90.269 84.3239C90.2799 83.5574 89.9952 82.8155 89.4723 82.2478C88.9495 81.6801 88.2274 81.3289 87.452 81.2651C86.6765 81.2014 85.9053 81.4298 85.2941 81.9043C84.683 82.3787 84.2773 83.0639 84.159 83.8215C84.085 84.316 84.122 83.5822 84.122 91.7783ZM84.776 84.4253C84.7514 83.8702 84.9199 83.3235 85.2538 82.8756C85.5877 82.4278 86.0669 82.1057 86.612 81.9628C86.9681 81.8808 87.3382 81.8786 87.6953 81.9563C88.0523 82.0339 88.3871 82.1895 88.675 82.4115C88.9628 82.6336 89.1965 82.9164 89.3587 83.2392C89.5208 83.562 89.6074 83.9165 89.612 84.2766C89.612 84.4243 89.652 91.9596 89.574 92.3595C89.5031 92.7215 89.3491 93.0628 89.1238 93.3573C88.8985 93.6518 88.6078 93.8917 88.274 94.0586C87.9023 94.2391 87.4897 94.3229 87.0758 94.3018C86.6619 94.2808 86.2603 94.1556 85.9094 93.9384C85.5584 93.7211 85.2698 93.4189 85.0711 93.0606C84.8724 92.7023 84.7701 92.2999 84.774 91.8916C84.774 91.4681 84.776 92.2137 84.776 84.4253Z"></path><path id="vector_49" fill="#000000" d="M107.4 97.114C106.034 97.8664 104.818 98.8574 103.811 100.038C103.053 100.992 102.68 102.188 102.763 103.396C102.126 103.558 101.453 103.508 100.848 103.255C100.523 103.126 100.229 102.933 99.9818 102.689C99.7348 102.445 99.5406 102.153 99.4111 101.833C98.8566 100.355 98.8719 98.7277 99.4541 97.2598C99.5871 96.8658 98.9541 96.6954 98.8231 97.0884C98.1471 99.084 98.0881 101.591 99.4651 103.113C99.9132 103.538 100.464 103.844 101.066 104C101.668 104.157 102.3 104.159 102.903 104.007C102.925 104.072 102.949 104.137 102.976 104.204C102.988 104.245 103.007 104.283 103.033 104.316C103.06 104.35 103.093 104.378 103.13 104.399C103.167 104.42 103.209 104.433 103.251 104.438C103.294 104.443 103.337 104.44 103.379 104.429C103.42 104.418 103.459 104.399 103.493 104.373C103.527 104.347 103.555 104.314 103.576 104.278C103.597 104.241 103.611 104.2 103.616 104.158C103.622 104.116 103.619 104.073 103.607 104.033C103.401 103.392 103.369 102.709 103.514 102.053C103.659 101.396 103.976 100.788 104.434 100.29C105.375 99.239 106.491 98.3537 107.734 97.6715C108.086 97.4479 107.758 96.8895 107.4 97.114Z"></path><path id="vector_50" fill="#000000" d="M114.808 110.215C112.563 111.384 109.972 111.738 107.488 111.215C107.075 111.148 106.898 111.77 107.314 111.837C110.934 112.42 112.398 111.915 115.138 110.771C115.213 110.728 115.267 110.657 115.289 110.575C115.312 110.492 115.299 110.404 115.256 110.33C115.212 110.257 115.14 110.203 115.056 110.181C114.972 110.16 114.883 110.172 114.808 110.215V110.215Z"></path><path id="vector_51" fill="#000000" d="M106.289 80.307C106.289 80.3925 106.323 80.4744 106.385 80.5348C106.446 80.5952 106.529 80.6291 106.616 80.6291C106.703 80.6291 106.786 80.5952 106.847 80.5348C106.909 80.4744 106.943 80.3925 106.943 80.307C106.911 70.3881 88.557 69.1519 88.524 80.307C88.5287 80.3895 88.5652 80.4671 88.6261 80.5239C88.687 80.5806 88.7677 80.6123 88.8515 80.6123C88.9354 80.6123 89.0161 80.5806 89.077 80.5239C89.1379 80.4671 89.1744 80.3895 89.179 80.307C89.209 70.0167 106.259 71.2214 106.289 80.307Z"></path><path id="vector_52" fill="#000000" d="M92.5191 96.1931L94.6491 93.3209C94.8981 92.985 94.3301 92.6629 94.0841 92.9958L91.9541 95.8681C91.7051 96.203 92.2731 96.53 92.5191 96.1931Z"></path><path id="vector_53" fill="#000000" d="M93.1361 92.2837L91.0501 93.5848C90.6951 93.8065 91.0231 94.365 91.3801 94.1423L93.4671 92.8402C93.8221 92.6186 93.4941 92.0601 93.1361 92.2837Z"></path><path id="vector_54" fill="#000000" d="M94.855 93.8645L95.249 96.3507C95.314 96.7594 95.949 96.5861 95.88 96.1793L95.487 93.6931C95.422 93.2844 94.791 93.4577 94.855 93.8645Z"></path><path id="vector_55" fill="#000000" d="M82.3461 84.6449C82.6941 84.4154 82.3671 83.8569 82.0151 84.0884C81.1242 84.837 80.5309 85.8719 80.3401 87.0099C79.7731 89.2803 80.0781 91.7872 82.0151 93.1711C82.3571 93.4154 82.6841 92.8559 82.3461 92.6146C79.5441 90.6131 80.9451 85.5689 82.3461 84.6449Z"></path><path id="vector_56" fill="#000000" d="M81.9611 81.0951C82.3301 80.8981 82.0011 80.3376 81.6311 80.5386C76.0821 83.5517 76.1551 94.4931 81.4501 97.0432C81.8271 97.2254 82.1601 96.6689 81.7811 96.4867C76.9631 94.166 76.7831 83.9063 81.9611 81.0951Z"></path><path id="vector_57" fill="#000000" d="M50.9941 129.245C50.6211 129.048 50.2941 129.608 50.6631 129.801C54.7064 131.886 58.3521 134.646 61.4381 137.958C61.7241 138.264 62.1861 137.807 61.9011 137.502C58.7747 134.152 55.0849 131.359 50.9941 129.245V129.245Z"></path><path id="vector_58" fill="#000000" d="M44.8511 138.413C43.3756 136.719 41.626 135.277 39.6731 134.145C39.5982 134.102 39.509 134.09 39.425 134.112C39.3411 134.133 39.2694 134.187 39.2256 134.261C39.1819 134.335 39.1696 134.423 39.1917 134.505C39.2137 134.588 39.2682 134.659 39.3431 134.702C40.9493 135.635 42.4155 136.784 43.6991 138.116C44.8511 139.312 46.0751 140.735 45.5991 142.495C44.7351 145.66 40.5081 146.517 37.2391 144.589C35.4541 143.418 33.843 142.009 32.4521 140.401C32.4057 140.357 32.3476 140.328 32.2846 140.317C32.2217 140.305 32.1567 140.312 32.0976 140.336C32.0384 140.36 31.9876 140.4 31.9513 140.452C31.915 140.504 31.8948 140.565 31.8931 140.628C31.8577 141.881 31.7482 143.131 31.5651 144.371C31.5001 144.777 32.1311 144.953 32.1971 144.543C32.3562 143.501 32.4607 142.451 32.5101 141.399C33.7302 142.739 35.1063 143.934 36.6101 144.958C39.8851 147.053 44.5291 146.646 46.0101 143.277C46.8361 141.389 46.1761 139.942 44.8511 138.413Z"></path><path id="vector_59" fill="#000000" d="M54.317 151.775H51.336C51.2523 151.779 51.1735 151.815 51.1159 151.875C51.0582 151.935 51.0261 152.015 51.0261 152.097C51.0261 152.18 51.0582 152.259 51.1159 152.319C51.1735 152.379 51.2523 152.415 51.336 152.42H54.317C54.4007 152.415 54.4795 152.379 54.5372 152.319C54.5948 152.259 54.6269 152.18 54.6269 152.097C54.6269 152.015 54.5948 151.935 54.5372 151.875C54.4795 151.815 54.4007 151.779 54.317 151.775V151.775Z"></path><path id="vector_60" fill="#000000" d="M77.792 120.011C77.7439 122.598 77.4712 125.177 76.977 127.718C76.898 128.123 77.529 128.297 77.608 127.889C78.1158 125.291 78.3965 122.655 78.447 120.009C78.4422 119.927 78.4054 119.849 78.3443 119.793C78.2832 119.736 78.2025 119.705 78.1186 119.705C78.0347 119.705 77.9542 119.737 77.8934 119.794C77.8327 119.851 77.7964 119.929 77.792 120.011V120.011Z"></path><path id="vector_61" fill="#000000" d="M140.9 126.248C139.615 115.89 135.5 110.003 130.1 106.162C129.884 102.518 129.186 98.9491 127.029 95.9252C125.252 93.4989 122.78 91.6514 119.929 90.62C113.659 88.2786 106.875 90.2388 101.189 93.638C98.4541 95.2731 94.8071 98.7167 93.7301 101.587C93.6301 101.587 78.1461 101.587 77.6691 101.594C73.6644 101.693 69.7449 102.754 66.2509 104.684C62.757 106.614 59.7942 109.355 57.6201 112.669C57.4201 112.965 53.5201 119.559 52.5981 121.394C51.4969 123.745 50.5294 126.155 49.7001 128.611C32.8841 120.201 14.9831 125.918 7.07006 138.948C5.92406 140.836 4.59606 143.049 5.11806 145.337C5.2013 145.83 5.39309 146.3 5.67998 146.713C5.96687 147.126 6.34194 147.472 6.77891 147.727C7.21588 147.982 7.7042 148.14 8.20966 148.19C8.71511 148.24 9.2255 148.18 9.70506 148.015C11.4064 147.355 12.8689 146.209 13.9051 144.725C12.6781 148.972 15.7051 151.864 19.2051 150.411C21.2221 149.575 22.3051 147.689 23.1581 145.736C22.9781 147.607 22.9401 149.716 24.0531 151.159C25.8331 153.468 29.0131 152.471 30.5711 150.008C31.3082 148.704 31.7879 147.274 31.9851 145.795C40.0211 154.531 56.1331 156.419 65.6101 151.124C68.2224 149.639 70.445 147.572 72.0991 145.088H106.06C108.561 148.94 112.389 151.773 116.84 153.067C122.825 154.851 129.465 154.355 134.232 150.013C140.344 144.452 141.918 134.479 140.9 126.248ZM130.178 113.837C130.169 111.618 130.24 109.294 130.146 106.985C133.067 109.167 135.448 111.972 137.112 115.19L130.137 128.69C130.317 123.74 130.2 118.777 130.176 113.832L130.178 113.837ZM66.6411 149.735C57.0471 156.206 39.8301 153.924 32.0131 144.866C31.9724 144.826 31.922 144.798 31.8669 144.784C31.8118 144.769 31.7538 144.769 31.6986 144.784C31.6434 144.798 31.593 144.826 31.5522 144.865C31.5115 144.905 31.4818 144.954 31.4661 145.008C31.0661 147.451 30.4431 150.34 27.9441 151.509C27.4181 151.789 26.8109 151.884 26.2226 151.779C25.6343 151.673 25.1001 151.373 24.7081 150.929C23.9022 149.789 23.5557 148.394 23.7361 147.016C23.7733 145.409 24.0427 143.815 24.5361 142.282C24.6681 141.88 24.0551 141.734 23.9041 142.111C22.6641 145.209 21.7621 148.09 19.7611 149.393C17.1791 151.074 14.5691 149.845 14.3021 147.018C14.1361 145.258 14.9781 143.669 15.6571 142.106C15.8171 141.736 15.2961 141.405 15.0911 141.781C14.0662 143.743 12.6098 145.455 10.8281 146.793C8.69006 148.161 6.48206 147.593 5.82806 145.453C5.17406 143.313 6.49806 141.162 7.56706 139.387C15.4961 126.229 33.3871 120.968 49.7191 129.334C49.7629 129.358 49.8116 129.372 49.8616 129.375C49.9116 129.377 49.9615 129.369 50.0078 129.35C50.054 129.331 50.0953 129.302 50.1286 129.265C50.1619 129.229 50.1863 129.185 50.2001 129.137C52.3141 123.471 52.2821 122.742 56.6251 115.655L75.5551 129.804C75.7551 129.957 75.9691 130.152 76.1911 130.297C75.4141 137.78 72.9871 145.454 66.6411 149.735ZM119.711 153.058C111.588 151.728 106.229 146.435 103.848 138.874C100.956 129.69 103.309 120.315 106.506 111.203C106.525 111.134 106.52 111.061 106.493 110.996C106.466 110.93 106.417 110.875 106.355 110.839C105.895 110.648 105.507 110.32 105.246 109.901C104.984 109.482 104.862 108.993 104.897 108.503C105.131 106.132 107.781 106.077 113.069 104.124C113.454 103.982 113.302 103.374 112.895 103.503C108.464 104.904 107.55 105.201 106.658 105.403C106.206 105.494 105.739 105.476 105.295 105.352C104.852 105.228 104.445 105 104.11 104.688C103.818 104.392 103.358 104.85 103.647 105.143C104.224 105.7 104.981 106.038 105.786 106.098C105.315 106.351 104.922 106.725 104.649 107.18C104.376 107.635 104.232 108.153 104.233 108.682C104.234 109.21 104.38 109.729 104.655 110.182C104.93 110.636 105.324 111.008 105.796 111.26C102.918 119.5 100.734 128.005 102.558 136.544C103.137 139.329 104.185 142 105.658 144.446H72.5291C75.1101 140.327 76.3061 135.361 76.8291 130.527C76.8891 129.975 76.8681 129.988 76.5031 129.716L56.9401 115.093C58.8941 111.321 61.8439 108.136 65.4795 105.875C69.115 103.614 73.302 102.359 77.6001 102.243C78.1841 102.227 76.7401 102.234 93.5141 102.234C93.2411 103.033 93.1672 103.885 93.2985 104.719C93.4299 105.552 93.7626 106.342 94.2687 107.022C94.7749 107.702 95.4395 108.252 96.2067 108.626C96.9739 109 97.8212 109.187 98.6771 109.171C98.5359 108.968 98.4176 108.749 98.3241 108.52C97.242 108.472 96.2119 108.049 95.4149 107.326C94.6179 106.604 94.1049 105.628 93.9661 104.57C93.5901 101.652 95.6931 99.2289 97.7851 97.1318C98.7172 96.169 99.7571 95.3135 100.885 94.5816C111.606 87.8324 121.073 89.631 125.985 95.6267C129.905 100.414 129.503 107.002 129.516 112.786C129.528 118.063 129.445 129.637 129.416 130.145C129.418 130.215 129.443 130.282 129.487 130.337C129.531 130.392 129.591 130.431 129.66 130.45C129.728 130.468 129.801 130.464 129.867 130.438C129.933 130.413 129.989 130.367 130.026 130.308L137.446 115.947C144.648 132.523 139.587 156.311 119.711 153.058V153.058Z"></path><path id="vector_62" fill="#000000" d="M19.537 133.512C18.365 134.918 17.2454 136.362 16.178 137.846C15.934 138.186 16.502 138.508 16.744 138.171C17.778 136.732 18.8634 135.33 20 133.965C20.265 133.649 19.8 133.191 19.537 133.512Z"></path><path id="vector_63" fill="#000000" d="M27.46 135.591C26.1872 136.797 25.1473 138.22 24.391 139.791C24.211 140.164 24.776 140.492 24.956 140.117C25.686 138.595 26.6911 137.216 27.922 136.047C28.227 135.759 27.763 135.303 27.46 135.591Z"></path><path id="vector_64" fill="#000000" d="M118.45 101.542C120.024 100.744 121.727 100.219 123.482 99.9903C123.566 99.9857 123.645 99.9497 123.702 99.8897C123.76 99.8297 123.792 99.7503 123.792 99.6677C123.792 99.5851 123.76 99.5056 123.702 99.4456C123.645 99.3856 123.566 99.3497 123.482 99.3451C121.612 99.5831 119.798 100.138 118.119 100.984C117.745 101.174 118.075 101.731 118.45 101.542Z"></path><path id="vector_65" fill="#000000" d="M112.569 94.887C114.186 94.3149 115.863 93.926 117.569 93.7277C117.982 93.6804 117.987 93.0382 117.569 93.0825C115.803 93.2812 114.065 93.6778 112.39 94.2645C112 94.4034 112.17 95.0269 112.569 94.887Z"></path><path id="vector_66" fill="#000000" d="M177.779 136.127C175.916 136.286 174.131 136.937 172.613 138.012C169.422 140.105 167.675 143.601 164.23 144.038C160.835 144.467 159.055 141.325 161.13 137.612C162.03 135.999 163.336 134.637 164.194 132.996C167.259 127.137 161.594 122.949 155.631 125.579C152.536 126.943 149.943 129.946 146.274 129.579C145.546 129.541 144.848 129.282 144.276 128.838C143.704 128.393 143.286 127.785 143.08 127.097C142.18 123.739 145.557 120.838 146.66 117.715C147.852 114.338 145.907 111.406 142.654 110.25C139.983 109.301 136.894 109.955 134.235 110.924C133.842 111.066 134.012 111.688 134.409 111.545C137.923 110.282 141.915 109.69 144.68 112.173C145.262 112.665 145.716 113.287 146.007 113.987C146.297 114.686 146.414 115.444 146.349 116.197C146.017 119.447 142.701 121.782 142.325 125.563C142.017 128.667 144.465 130.832 148.268 130.119C151.623 129.489 154.261 126.245 157.854 125.543C161.644 124.803 165.128 127.283 164.309 130.879C163.521 134.339 159.909 136.505 159.609 140.22C159.34 143.619 162.173 145.661 165.739 144.316C168.207 143.386 169.785 141.066 171.758 139.438C173.505 137.992 177.064 135.926 179.208 137.14C179.808 137.551 180.28 138.12 180.569 138.781C180.859 139.442 180.955 140.17 180.847 140.883C180.653 142.887 179.622 144.356 177.147 148.813C176.947 149.177 177.51 149.502 177.713 149.139C180.102 144.833 180.242 144.613 180.632 143.781C181.475 142.268 181.703 140.495 181.272 138.822C181.058 138.064 180.604 137.394 179.975 136.909C179.347 136.424 178.577 136.15 177.779 136.127Z"></path><path id="vector_67" fill="#000000" d="M131.04 142.492V132.819C131.035 132.737 130.999 132.659 130.938 132.603C130.877 132.546 130.796 132.514 130.713 132.514C130.629 132.514 130.548 132.546 130.487 132.603C130.426 132.659 130.39 132.737 130.385 132.819V142.492C130.39 142.575 130.426 142.652 130.487 142.709C130.548 142.766 130.629 142.797 130.713 142.797C130.796 142.797 130.877 142.766 130.938 142.709C130.999 142.652 131.035 142.575 131.04 142.492V142.492Z"></path></g></g></g></svg>