<svg xmlns="http://www.w3.org/2000/svg" fill="none" viewBox="0 0 200 197" height="400" width="400"><g id="listening-to-feedback-usability-testing-1--customer-service-support-listening-to-feedback-usability-testing-1"><g id="color"><g id="group"><path id="vector" fill="#ffaaaa" d="M115.528 133.313C112.762 126.418 108.917 118.22 106.313 113.323V125.863C106.313 125.863 98.113 120.039 92.038 115.946C92.2933 112.597 92.1142 109.23 91.505 105.926C91.338 104.643 90.8229 103.429 90.014 102.41C89.6036 101.908 89.0332 101.557 88.3951 101.414C87.757 101.271 87.0886 101.345 86.498 101.622C84.469 102.872 84.155 108.968 84.314 110.647C83.302 109.912 82.024 108.915 80.692 107.866C80.6959 108.54 80.6064 109.21 80.426 109.86C82.805 115.989 85.15 119.919 87.883 125.809C89.0515 128.372 90.0135 131.02 90.76 133.732C90.8324 133.798 90.9272 133.835 91.026 133.837C91.826 133.837 114.036 133.889 114.889 133.837C115.422 133.838 115.571 133.485 115.528 133.313Z"></path><path id="vector_2" fill="#ffc431" d="M118.085 109.598C118.191 109.546 118.511 109.231 118.404 109.178C118.297 109.126 118.031 109.126 117.925 109.074C116.35 108.841 114.823 108.364 113.4 107.661C112.228 109.335 111.27 110.651 111 111.018L115.634 111.071C116.036 110.863 116.427 110.635 116.806 110.388C117.251 110.156 117.679 109.892 118.085 109.598V109.598Z"></path><path id="vector_3" fill="#6596e1" d="M79.361 112.012C76.85 115.31 70.487 115.029 68.069 109.074C67.7143 111.743 66.7667 114.302 65.2936 116.569C63.8204 118.836 61.858 120.755 59.546 122.19C55.131 124.776 50.23 124.881 45.218 123.974C34.81 122.067 27.747 113.449 27.747 102.046C27.7389 101.991 27.7504 101.935 27.7795 101.887C27.8087 101.839 27.8537 101.803 27.907 101.784C28.039 101.653 65.156 99.68 66.258 99.6328C66.2131 99.3375 66.1951 99.0388 66.204 98.7404C66.2021 97.22 66.699 95.7398 67.6205 94.5202C68.5421 93.3007 69.839 92.407 71.318 91.9724C71.544 91.9122 71.7761 91.8772 72.01 91.868C68.745 86.2397 65.277 83.0089 61.623 80.8498C53.678 76.2203 42.032 76.4321 32.434 82.8956C23.753 88.7987 18.293 99.3333 16.348 109.392C14.605 118.837 14.59 135.742 14.59 145.28C22.429 137.558 34.459 130.434 45.644 129.224C58.151 127.684 72.938 131.497 82.716 138.721C82.257 136.004 82.251 125.536 79.361 112.012Z"></path><path id="vector_4" fill="#ffaaaa" d="M45.431 129.168C39.7463 129.929 34.255 131.726 29.238 134.467C29.364 134.467 50.19 147.793 51.61 148.686C55.796 145.85 71.587 134.904 73.448 133.68C73.4551 133.68 73.4622 133.679 73.4688 133.677C73.4754 133.674 73.4814 133.67 73.4865 133.666C73.4915 133.661 73.4955 133.655 73.4982 133.648C73.5009 133.642 73.5022 133.635 73.502 133.628C73.741 133.392 73.79 133.523 73.928 133.523C64.476 130.049 56.633 128.065 45.431 129.168Z"></path><path id="vector_5" fill="#b6dbff" d="M115.528 133.313C115.634 133.523 115.421 133.732 115.208 133.732C115.208 133.732 91.897 133.761 91.082 133.712C90.797 133.695 90.854 133.668 90.813 133.628C90.685 133.502 93.938 145.522 95.287 150.995C89.659 143.745 83.145 137.848 73.821 133.628H73.768C73.7339 133.609 73.6956 133.598 73.6563 133.595C73.617 133.593 73.5778 133.6 73.5416 133.615C73.5054 133.63 73.4734 133.654 73.4479 133.683C73.4225 133.713 73.4044 133.748 73.395 133.786C73.395 133.732 73.395 133.732 73.448 133.732C73.348 133.831 52.755 147.905 51.556 148.79C43.97 143.917 29.456 134.695 29.345 134.625C29.311 134.601 29.2722 134.585 29.2312 134.577C29.1903 134.57 29.1482 134.571 29.1077 134.581C29.0673 134.591 29.0295 134.609 28.997 134.635C28.9644 134.66 28.9378 134.693 28.919 134.729C19.2808 139.988 11.1039 147.502 5.10901 156.608C5.07922 156.658 5.06261 156.715 5.06068 156.773C5.05875 156.832 5.07156 156.889 5.09795 156.941C5.12435 156.994 5.16349 157.038 5.21186 157.072C5.26023 157.105 5.3163 157.126 5.37501 157.133H122.506C122.557 157.131 122.607 157.119 122.652 157.095C122.698 157.072 122.737 157.039 122.768 156.999C122.798 156.958 122.819 156.912 122.829 156.863C122.839 156.813 122.838 156.762 122.825 156.714C121.643 149.3 118.229 140.095 115.528 133.313Z"></path><path id="vector_6" fill="#ffaaaa" d="M80.053 107.29C77.71 105.349 75.259 103.197 73.553 101.833C75.364 100.311 79.039 97.2165 79.199 97.0589C78.8116 95.7423 78.0545 94.5603 77.015 93.6489C75.7399 92.4492 74.0382 91.7897 72.275 91.8118C72.1826 91.8036 72.0899 91.8221 72.008 91.865C71.742 91.9172 71.529 91.9172 71.316 91.9694C69.6901 92.4522 68.2901 93.4862 67.364 94.8883C66.4378 96.2903 66.0453 97.97 66.256 99.6298C61.356 99.8918 30.889 101.676 28.064 101.729C27.98 101.731 27.9001 101.765 27.8407 101.823C27.7813 101.882 27.747 101.96 27.745 102.043C27.745 110.12 31.445 117.791 38.664 121.665C43.1156 123.957 48.1599 124.889 53.152 124.341C61.394 123.356 67.117 116.438 68.067 109.074C70.239 114.423 75.852 115.419 78.826 112.588C79.561 111.89 79.307 111.959 79.412 111.959C80.0782 110.988 80.4982 109.873 80.637 108.709V108.393C80.639 107.535 80.974 107.97 80.053 107.29Z"></path><path id="vector_7" fill="#000000" d="M72.916 97.9504C72.908 97.8654 72.868 97.7863 72.8039 97.7288C72.7398 97.6713 72.6562 97.6394 72.5695 97.6394C72.4828 97.6394 72.3992 97.6713 72.3351 97.7288C72.271 97.7863 72.2311 97.8654 72.223 97.9504C72.2516 100.603 72.5912 103.244 73.235 105.821C73.2562 105.904 73.3102 105.976 73.3852 106.02C73.4601 106.064 73.5498 106.077 73.6345 106.056C73.7193 106.036 73.7921 105.982 73.837 105.909C73.8819 105.835 73.8952 105.746 73.874 105.663C73.238 103.14 72.9162 100.55 72.916 97.9504V97.9504Z"></path><path id="vector_8" fill="#ffc431" d="M73.555 101.833C76.297 104.028 81.405 108.635 84.314 110.595C84.155 108.92 84.469 102.821 86.498 101.571C87.0881 101.291 87.7572 101.217 88.3959 101.36C89.0346 101.503 89.6051 101.855 90.014 102.359C92.214 104.723 92.32 112.785 92.038 115.895C98.11 120.04 106.313 125.811 106.313 125.811V74.6561C96.2 82.7942 86.531 90.9313 73.555 101.833Z"></path><path id="vector_9" fill="#000000" d="M38.453 106.24C38.293 105.874 37.707 106.188 37.867 106.555C38.187 107.29 38.56 107.972 38.879 108.707C39.039 109.074 39.625 108.759 39.465 108.391C39.146 107.661 38.826 106.971 38.453 106.24Z"></path><path id="vector_10" fill="#000000" d="M57.735 106.24C57.575 105.874 56.989 106.188 57.149 106.555C57.469 107.29 57.842 107.972 58.161 108.707C58.321 109.074 58.907 108.759 58.747 108.391C58.428 107.661 58.108 106.971 57.735 106.24Z"></path><path id="vector_11" fill="#000000" d="M53 110.543C51.048 112.044 47.207 111.99 45 110.979C44.467 110.736 44.1 110.969 44.509 111.662C45.653 113.577 46.967 115.027 49.276 114.897C51.331 114.782 52.995 112.785 53.484 110.859C53.634 110.49 53.263 110.336 53 110.543Z"></path><path id="vector_12" fill="#6596e1" d="M48.84 73.0289C48.388 74.138 47.885 75.2767 47.46 76.3779C46.705 75.2944 47.212 76.0529 45.06 72.9797C44.8 72.6083 44.208 72.9796 44.474 73.2948C46.884 76.7758 47.036 77.0113 47.156 77.1413C47.241 77.5077 47.83 77.489 47.83 77.1245C48.362 75.8135 48.948 74.5015 49.481 73.1845C49.639 72.7669 49.009 72.6132 48.84 73.0289Z"></path><path id="vector_13" fill="#000000" d="M55.338 134.1C54.7967 133.207 53.9569 132.527 52.9627 132.177C51.9684 131.827 50.8815 131.828 49.8882 132.181C48.8948 132.533 48.0568 133.215 47.5176 134.109C46.9785 135.004 46.7718 136.055 46.933 137.082C43.776 137.627 40.161 138.539 35.896 135.622C34.9588 134.929 34.0854 134.157 33.286 133.313C29.641 129.605 28.686 124.983 27.96 120.039C27.5519 116.924 27.3205 113.789 27.267 110.648C27.2604 110.562 27.221 110.482 27.1569 110.423C27.0927 110.365 27.0085 110.332 26.921 110.332C26.8335 110.332 26.7493 110.365 26.6851 110.423C26.621 110.482 26.5816 110.562 26.575 110.648C26.706 117.604 27.509 127.919 32.115 133.106C32.906 133.418 35.549 137.798 41.542 138.3C43.4126 138.356 45.2823 138.16 47.099 137.718C47.3199 138.366 47.6801 138.96 48.1552 139.459C48.6303 139.958 49.2091 140.35 49.852 140.609C50.7352 140.923 51.6954 140.962 52.6015 140.719C53.5077 140.476 54.3158 139.964 54.9157 139.252C55.5156 138.54 55.878 137.664 55.9536 136.742C56.0291 135.82 55.8142 134.897 55.338 134.1V134.1Z"></path><path id="vector_14" fill="#000000" d="M177 154.299C172.12 152.617 164.216 151.292 159.369 152.883C159.399 152.999 159.689 154.797 159.689 154.982H176.947C177.316 154.982 177.369 154.457 177 154.299Z"></path><path id="vector_15" fill="#ffc431" d="M170.551 81.3719C170.764 82.6829 169.858 83.6275 169.219 84.6765C171.824 84.3662 174.331 83.5076 176.57 82.1589C177.636 81.5836 178.915 80.5829 180.192 80.9522C180.523 81.0095 180.827 81.1699 181.059 81.4098C181.291 81.6497 181.438 81.9565 181.48 82.2852C181.522 82.6138 181.455 82.947 181.291 83.2358C181.126 83.5245 180.872 83.7537 180.565 83.8895C182.178 83.3606 182.218 83.6797 182.376 83.6797C182.705 83.8703 182.945 84.1804 183.045 84.5434C183.144 84.9064 183.095 85.2934 182.908 85.6212H186.584C183.384 80.4795 178.221 70.0385 178.221 70.0385L170.551 81.3719Z"></path><path id="vector_16" fill="#ffffff" d="M176.889 131.319C176.529 120.856 170.689 117.945 167.537 108.994C167.025 109.361 166.483 109.686 165.917 109.965C162.836 111.275 159.387 111.48 156.169 110.543C156.077 110.954 155.952 111.357 155.796 111.749C156.481 111.434 157.23 111.274 157.986 111.284C158.743 111.293 159.487 111.47 160.164 111.802C165.207 114.782 162.712 121.009 157.448 123.449C157.927 124.551 158.295 125.708 158.726 126.807C161.06 132.76 161.91 132.117 158.566 147.689C159.685 147.899 170.498 149.735 174.812 150.417C175.238 147.112 175.618 143.8 176.091 140.554C176.634 137.505 176.901 134.414 176.889 131.319Z"></path><path id="vector_17" fill="#ffaaaa" d="M175.984 123.397C173.902 118.398 169.952 114.257 168.139 108.479C167.97 108.689 167.771 108.874 167.548 109.029C170.268 117.423 176.858 121.28 176.948 131.319C176.982 135.321 176.487 138.51 174.906 150.578C172.706 150.23 160.525 148.15 158.606 147.834C161.963 132.192 161.18 132.9 158.833 126.912C158.401 125.812 157.98 124.656 157.554 123.554C157.351 123.664 157.137 123.752 156.915 123.816C157.288 124.761 157.62 125.701 157.98 126.597C158.466 127.804 159.894 131.03 160.058 132.631C160.469 136.644 158.938 142.907 158.14 146.64C158.291 147.678 158.46 148.066 158.46 148.476C162.774 149.211 173.8 151.047 175.025 151.257C175.202 151.315 175.425 151.158 175.467 150.913C175.618 149.996 176.667 141.851 176.676 141.76C177.5 135.35 178.491 129.416 175.984 123.397Z"></path><path id="vector_18" fill="#ffaaaa" d="M174.6 128.486V125.81C174.593 125.724 174.554 125.644 174.49 125.585C174.426 125.527 174.341 125.494 174.254 125.494C174.167 125.494 174.082 125.527 174.018 125.585C173.954 125.644 173.915 125.724 173.908 125.81V128.486C173.915 128.572 173.954 128.653 174.018 128.711C174.082 128.77 174.167 128.802 174.254 128.802C174.341 128.802 174.426 128.77 174.49 128.711C174.554 128.653 174.593 128.572 174.6 128.486V128.486Z"></path><path id="vector_19" fill="#ffaaaa" d="M173.587 94.9077H162.242C162.028 96.5872 161.815 98.2656 161.709 99.945C161.706 100.019 161.679 100.09 161.631 100.147C161.583 100.204 161.517 100.244 161.443 100.259C161.283 100.311 161.07 100.207 161.07 100.049C159.479 95.4899 156.856 91.3468 153.399 87.9339C153.335 87.8713 153.3 87.7862 153.3 87.6975C153.3 87.6089 153.335 87.5238 153.399 87.4611C153.463 87.3984 153.549 87.3632 153.639 87.3632C153.729 87.3632 153.815 87.3984 153.879 87.4611C157.088 90.584 159.593 94.3385 161.229 98.4794C161.329 97.2087 161.619 94.7432 161.815 93.3899C158.702 88.4836 156.451 84.3003 150.576 84.9435C149.059 85.1211 147.631 85.7425 146.476 86.7273C144.817 88.3748 143.75 90.5121 143.44 92.8126C143.293 94.4716 143.455 96.1431 143.919 97.7445C145.406 98.112 146.78 98.8327 147.919 99.8436C147.443 96.4537 147.354 93.0219 147.653 89.6124C147.696 89.1918 148.345 89.1928 148.345 89.6124C148.126 93.2727 148.269 96.9453 148.771 100.578C149.991 101.872 150.642 103.588 150.582 105.353C153.035 104.01 156.639 105.564 156.388 109.76C158.694 110.409 161.124 110.499 163.473 110.022C165.358 109.596 167.089 108.671 168.479 107.346C168.751 107.089 169.172 107.451 169.012 107.714C171.926 104.161 173.412 98.897 174.072 94.3345C173.907 94.8033 173.8 94.9077 173.587 94.9077Z"></path><path id="vector_20" fill="#ffaaaa" d="M148.286 89.7138C148.331 89.2932 147.637 89.2932 147.594 89.7138C147.295 93.1233 147.384 96.555 147.86 99.945L148.66 100.733C148.139 97.0833 148.014 93.3895 148.286 89.7138Z"></path><path id="vector_21" fill="#ffaaaa" d="M168.367 107.5C165.694 110.082 162.075 110.849 158.353 110.333C157.659 110.234 156.968 110.071 156.276 109.913C156.263 110.143 156.227 110.372 156.169 110.595C160.683 111.787 165.446 111.216 168.793 108.024C168.847 107.973 168.846 107.972 168.846 107.92C168.891 107.856 168.91 107.778 168.901 107.701C168.891 107.624 168.853 107.553 168.795 107.501C168.736 107.45 168.66 107.421 168.581 107.421C168.502 107.421 168.426 107.449 168.367 107.5V107.5Z"></path><path id="vector_22" fill="#ffaaaa" d="M161.869 94.9599C161.794 94.9578 161.721 94.9308 161.663 94.8833C161.605 94.8358 161.565 94.7705 161.549 94.6979C161.468 95.3391 161.262 97.053 161.132 98.43C159.477 94.3253 156.97 90.6061 153.772 87.5103C153.741 87.4772 153.704 87.4506 153.662 87.432C153.62 87.4135 153.575 87.4035 153.53 87.4025C153.484 87.4016 153.438 87.4098 153.396 87.4266C153.354 87.4434 153.315 87.4684 153.283 87.5003C153.25 87.5321 153.225 87.5701 153.208 87.6118C153.191 87.6536 153.183 87.6983 153.184 87.7434C153.185 87.7884 153.195 87.8327 153.213 87.8738C153.232 87.9148 153.259 87.9517 153.293 87.9822C155.996 90.626 158.181 93.7385 159.738 97.1633C160.465 98.7452 160.762 99.5539 160.882 99.8967C161.126 100.586 161.656 100.291 161.656 99.9952C162.011 94.3975 162.5 94.9599 161.869 94.9599Z"></path><path id="vector_23" fill="#ffaaaa" d="M165.384 107.867C164.59 108.144 163.733 108.339 162.934 108.601C162.508 108.707 162.721 109.389 163.094 109.231C163.894 108.969 164.745 108.759 165.544 108.497C165.97 108.391 165.813 107.718 165.384 107.867Z"></path><path id="vector_24" fill="#ae877c" d="M182.429 83.7329C182.408 83.7127 182.383 83.6974 182.355 83.6882C182.327 83.679 182.298 83.6761 182.269 83.6797C181.894 83.6061 181.505 83.6427 181.151 83.7851C180.99 83.8343 180.778 83.8895 180.618 83.9427C180.725 83.8373 180.884 83.7329 180.991 83.6275C181.215 83.4429 181.38 83.1985 181.466 82.9238C181.553 82.6491 181.557 82.3556 181.478 82.0787C181.399 81.8017 181.241 81.553 181.022 81.3625C180.804 81.1719 180.534 81.0476 180.245 81.0044C178.478 80.4893 177.081 82.4376 173.001 83.8895C171.802 84.3309 170.548 84.6134 169.273 84.7297C169.965 83.6797 170.817 82.7361 170.604 81.424C170.574 81.115 170.459 80.8199 170.271 80.5704C170.083 80.3208 169.83 80.1263 169.539 80.0076C168.239 79.5092 166.928 80.8744 166.239 82.0535C164.898 84.2172 163.808 86.5228 162.99 88.9268C162.329 90.7807 161.864 92.6973 161.605 94.6457C161.621 94.7183 161.661 94.7835 161.719 94.831C161.777 94.8784 161.85 94.9054 161.925 94.9077H173.59C173.632 94.9094 173.675 94.9024 173.714 94.8871C173.754 94.8719 173.79 94.8487 173.82 94.8191C173.85 94.7895 173.874 94.7541 173.889 94.7151C173.905 94.6761 173.912 94.6343 173.91 94.5925C174.129 92.5891 174.183 90.5713 174.069 88.5594C175.56 88.456 177.039 88.228 178.49 87.8778C179.077 87.7211 179.663 87.5133 180.248 87.3005C181.099 86.9913 182.655 86.5874 182.965 85.6733C183.155 85.346 183.205 84.9577 183.105 84.5938C183.004 84.2299 182.761 83.9203 182.429 83.7329V83.7329Z"></path><path id="vector_25" fill="#c0c195" d="M140.669 131.425H138.485C138.398 131.431 138.316 131.47 138.257 131.533C138.197 131.596 138.164 131.679 138.164 131.765C138.164 131.852 138.197 131.935 138.257 131.998C138.316 132.061 138.398 132.1 138.485 132.106H140.669C140.756 132.1 140.838 132.061 140.897 131.998C140.957 131.935 140.99 131.852 140.99 131.765C140.99 131.679 140.957 131.596 140.897 131.533C140.838 131.47 140.756 131.431 140.669 131.425V131.425Z"></path><path id="vector_26" fill="#c0c195" d="M139.5 121.141L139.181 116.577C139.173 116.492 139.133 116.413 139.069 116.355C139.005 116.298 138.921 116.266 138.835 116.266C138.748 116.266 138.664 116.298 138.6 116.355C138.536 116.413 138.496 116.492 138.488 116.577L138.648 118.941C138.275 118.048 137.848 117.157 137.476 116.265C137.506 116.324 137.517 116.391 137.508 116.456C137.499 116.522 137.469 116.583 137.423 116.632C137.31 116.749 137.185 116.855 137.05 116.946C137.713 118.349 138.3 119.785 138.808 121.249C138.965 121.561 139.551 121.561 139.5 121.141Z"></path><path id="vector_27" fill="#c0c195" d="M128.951 129.01C130.077 130.437 131.513 131.597 133.154 132.405C134.794 133.213 136.598 133.649 138.432 133.68C140.58 133.923 142.755 133.578 144.717 132.683C147.246 131.601 149.264 129.613 150.363 127.122C151.929 123.433 150.991 118.299 149.618 114.478C149.466 114.055 148.818 114.268 148.978 114.635C150.184 118.199 151.142 122.18 150.15 125.81C148.986 130.072 144.37 133.353 139.071 133.051C137.202 133.008 135.358 132.616 133.638 131.896C131.57 130.933 129.844 129.38 128.684 127.437C128.247 126.715 128.205 126.607 128.205 126.493C128.019 126.18 127.876 125.845 127.779 125.496L127.619 125.653C127.582 125.699 127.531 125.733 127.474 125.751C127.417 125.769 127.356 125.769 127.298 125.752C127.241 125.735 127.19 125.702 127.152 125.656C127.115 125.61 127.091 125.555 127.086 125.496C127.474 126.774 128.107 127.967 128.951 129.01V129.01Z"></path><path id="vector_28" fill="#000000" d="M161.869 113.166C161.762 113.061 161.709 112.956 161.602 112.851C160.886 112.106 159.949 111.603 158.925 111.414C157.901 111.226 156.843 111.361 155.902 111.801C156.152 111.197 156.313 110.562 156.381 109.913C156.807 106.351 153.434 103.942 150.575 105.506C150.618 104.432 150.417 103.362 149.987 102.374C149.557 101.385 148.909 100.504 148.09 99.7933C143.623 96.3133 138.746 97.1525 132.732 98.9472C133.618 95.2387 128.48 94.1089 126.766 96.2197C126.526 96.4116 126.344 96.6649 126.241 96.9518C126.138 97.2386 126.117 97.548 126.18 97.846C126.525 97.4644 126.976 97.1913 127.478 97.0607C127.979 96.93 128.509 96.9475 129 97.1111C129.405 97.2542 129.766 97.4954 130.052 97.8124C130.337 98.1294 130.536 98.512 130.632 98.9249C130.727 99.3379 130.716 99.7679 130.598 100.175C130.481 100.583 130.261 100.954 129.959 101.256C130.065 101.414 130.122 101.568 130.225 101.729C131.523 103.952 133.374 105.811 135.605 107.133C135.825 106.991 136.056 106.868 136.297 106.765C140.72 104.544 145.697 105.155 149.56 109.756C152.329 113.051 153.801 116.906 154.993 120.985C155.283 121.976 155.425 122.686 155.846 124.342C156.005 124.29 156.165 124.29 156.325 124.237C156.815 124.091 157.295 123.916 157.763 123.713C161.22 122.061 162.954 119.316 163.196 117.05C163.172 115.651 162.709 114.294 161.869 113.166V113.166Z"></path><path id="vector_29" fill="#000000" d="M116.22 88.8746C112.397 91.4848 110.05 95.9577 111.267 100.365C111.278 100.406 111.296 100.445 111.322 100.479C111.348 100.513 111.38 100.542 111.417 100.564C111.454 100.586 111.495 100.6 111.538 100.607C111.581 100.613 111.625 100.611 111.667 100.6C111.708 100.59 111.748 100.572 111.783 100.546C111.817 100.521 111.847 100.489 111.869 100.453C111.891 100.416 111.906 100.376 111.912 100.333C111.919 100.291 111.917 100.248 111.906 100.207C111.558 98.6559 111.594 97.0449 112.012 95.5105C112.43 93.9762 113.216 92.5635 114.306 91.3922C114.975 90.6647 115.726 90.0138 116.543 89.4518C116.911 89.1868 116.6 88.6175 116.22 88.8746Z"></path><path id="vector_30" fill="#000000" d="M117.339 90.9204C115.925 91.9227 114.842 93.3134 114.227 94.9185C113.611 96.5237 113.489 98.2721 113.877 99.945C113.898 100.028 113.952 100.1 114.027 100.144C114.102 100.189 114.192 100.202 114.277 100.181C114.361 100.16 114.434 100.107 114.479 100.033C114.524 99.9592 114.537 99.8709 114.516 99.7874C114.165 98.2543 114.276 96.6537 114.834 95.1815C115.392 93.7093 116.374 92.4292 117.659 91.4976C118.031 91.2878 117.712 90.7106 117.339 90.9204Z"></path><path id="vector_31" fill="#000000" d="M118.351 93.8064C117.61 94.5563 117.075 95.4791 116.795 96.4886C116.515 97.498 116.5 98.5609 116.751 99.5776C116.772 99.661 116.826 99.7328 116.901 99.777C116.976 99.8213 117.066 99.8344 117.15 99.8135C117.235 99.7926 117.308 99.7394 117.353 99.6656C117.398 99.5918 117.411 99.5034 117.39 99.42C117.168 98.5213 117.183 97.5815 117.435 96.6904C117.687 95.7994 118.166 94.9868 118.828 94.3305C119.156 94.0222 118.671 93.5435 118.351 93.8064Z"></path><path id="vector_32" fill="#ffc431" d="M128.312 107.92C127.459 106.661 126.554 105.401 125.702 104.142C125.658 104.077 125.64 104 125.649 103.923C125.659 103.846 125.697 103.775 125.755 103.722C125.855 103.624 126.178 104.209 121.014 96.6915C121.014 96.6915 118.138 100.942 115.421 104.824C119.879 105.015 124.063 106.675 128.312 107.92Z"></path><path id="vector_33" fill="#c0c195" d="M160 156.766C159.982 156.667 156.115 135.391 156.113 135.254H156.591C156.637 135.259 156.683 135.255 156.727 135.241C156.771 135.228 156.812 135.205 156.846 135.176C156.881 135.146 156.91 135.11 156.93 135.069C156.95 135.029 156.962 134.984 156.964 134.939C156.845 131.124 156.346 127.33 155.473 123.612C153.861 117.067 151.096 108.979 144.873 106.193C142.96 105.441 140.865 105.258 138.848 105.669C136.831 106.079 134.981 107.064 133.528 108.502C135.423 111.88 137.112 115.367 138.588 118.943L138.428 116.579C138.428 116.159 139.067 116.159 139.12 116.579L139.44 121.143C139.437 121.218 139.407 121.289 139.357 121.345C139.307 121.401 139.238 121.438 139.163 121.451C139.089 121.463 139.012 121.449 138.946 121.412C138.88 121.375 138.829 121.317 138.801 121.248C138.293 119.784 137.706 118.348 137.043 116.945C132.076 121.252 130.206 123.052 127.615 125.602C127.775 125.918 127.881 126.232 128.041 126.547C129.2 128.905 131.133 130.809 133.528 131.951C136.12 133.007 138.953 133.351 141.728 132.947C146.188 132.032 149.072 129.196 150.038 125.865C151.007 122.364 150.095 118.109 148.866 114.69C148.714 114.267 149.399 114.112 149.505 114.532C150.819 118.416 151.863 123.389 150.251 127.176C149.427 128.975 148.137 130.529 146.51 131.68C144.883 132.831 142.977 133.54 140.983 133.734C140.097 133.814 139.205 133.814 138.319 133.734C136.231 133.648 134.19 133.091 132.354 132.108C130.666 131.137 129.241 129.779 128.2 128.149C128.2 128.362 127.784 134.847 127.778 134.945C127.784 135.027 127.819 135.104 127.878 135.162C127.937 135.22 128.015 135.255 128.098 135.26H129.589C129.589 135.753 128.95 154.535 128.95 156.824C128.95 157.243 129.589 157.243 129.642 156.824C129.642 155.798 130.311 135.745 130.284 135.26H132.945C132.945 135.302 133.584 156.705 133.584 156.824C133.591 156.91 133.63 156.99 133.694 157.049C133.758 157.107 133.843 157.14 133.93 157.14C134.017 157.14 134.102 157.107 134.166 157.049C134.23 156.99 134.269 156.91 134.276 156.824C134.276 155.904 133.64 136.27 133.637 135.26H155.437C155.454 135.359 159.337 156.778 159.361 156.876C159.365 157.354 160.115 157.206 160 156.766ZM140.665 132.106H138.481C138.394 132.1 138.312 132.061 138.253 131.998C138.193 131.935 138.16 131.852 138.16 131.765C138.16 131.679 138.193 131.596 138.253 131.533C138.312 131.47 138.394 131.431 138.481 131.425H140.665C140.752 131.431 140.834 131.469 140.894 131.532C140.954 131.595 140.987 131.677 140.988 131.764C140.988 131.85 140.956 131.933 140.897 131.997C140.837 132.06 140.756 132.099 140.669 132.106H140.665Z"></path><path id="vector_34" fill="#ffd7d7" d="M137.526 116.262C135.974 112.82 133.955 109.17 133.904 109.071C132.925 107.015 131.486 105.203 129.696 103.772C128.35 102.812 127.064 102.655 125.808 103.666C125.408 104.06 125.593 103.9 128.308 107.917C125.218 107.024 122.231 105.947 119.093 105.294C117.417 104.916 115.697 104.757 113.979 104.821C113.625 104.796 113.273 104.896 112.987 105.103C112.701 105.309 112.498 105.609 112.415 105.949C112.332 106.289 112.374 106.647 112.534 106.959C112.693 107.272 112.96 107.518 113.287 107.655C115.222 108.837 118.113 108.998 118.294 109.175C118.586 109.463 115.926 110.834 115.524 111.117C114.942 111.429 114.42 111.837 113.979 112.324C113.801 112.521 113.674 112.757 113.609 113.013C113.544 113.269 113.543 113.537 113.606 113.793C113.682 114.094 113.827 114.373 114.03 114.61C114.233 114.846 114.489 115.033 114.778 115.156C116.307 115.587 119.649 113.782 120.957 112.901C119.919 114.772 118.657 115.276 118.557 116.416C118.546 116.661 118.585 116.905 118.67 117.135C118.755 117.365 118.886 117.577 119.054 117.757C119.222 117.937 119.425 118.083 119.65 118.186C119.876 118.289 120.12 118.348 120.368 118.358C120.906 118.361 121.436 118.235 121.913 117.99C122.399 117.759 122.848 117.459 123.244 117.098C123.96 116.44 124.571 115.68 125.055 114.842C125.138 118.411 125.355 122.197 126.813 125.651C126.831 125.701 126.862 125.746 126.901 125.782C126.94 125.819 126.988 125.846 127.039 125.861C127.091 125.876 127.146 125.879 127.199 125.87C127.253 125.861 127.303 125.839 127.346 125.807C129.266 123.916 135.058 118.708 136.934 117.046C137.371 116.624 137.648 116.624 137.526 116.262Z"></path><path id="vector_35" fill="#000000" d="M111.746 71.4027C110.918 70.196 110.449 68.785 110.392 67.3294C110.336 65.8738 110.694 64.4317 111.426 63.1661C111.641 62.7997 111.054 62.4845 110.841 62.8509C110.054 64.2221 109.668 65.7808 109.724 67.3548C109.78 68.9288 110.277 70.4569 111.16 71.7701C111.426 72.0853 112.012 71.7179 111.746 71.4027Z"></path><path id="vector_36" fill="#000000" d="M113.664 69.8819C113.134 69.1144 112.833 68.2158 112.795 67.2883C112.758 66.3608 112.985 65.4415 113.451 64.6348C113.665 64.2683 113.078 63.9531 112.865 64.3196C112.348 65.2328 112.094 66.2681 112.132 67.3132C112.169 68.3583 112.497 69.3733 113.078 70.2483C113.344 70.5635 113.927 70.2512 113.664 69.8819Z"></path><path id="vector_37" fill="#ffaaaa" d="M142.374 74.2365C142.32 74.3931 142.054 74.5507 141.894 74.4463C141.56 74.1164 130.956 67.7483 130.642 67.6498C130.593 67.6251 130.552 67.5874 130.524 67.5409C130.496 67.4944 130.481 67.441 130.482 67.3868C130.282 69.2272 130.198 71.0779 130.229 72.9285C129.262 70.9131 127.229 67.7434 125.595 68.5216C124.114 69.2249 126.287 71.7218 126.98 72.7186C125.009 73.7155 118.457 77.1255 118.244 77.2309C119.135 84.8332 122.944 89.0933 127.244 90.6624C133.044 92.7772 139.785 89.1652 141.306 82.1628C141.71 80.3108 141.995 78.4356 142.159 76.5483C142.293 75.786 142.364 75.0142 142.372 74.2405L142.374 74.2365Z"></path><path id="vector_38" fill="#ffd7d7" d="M168.367 54.2991C166.975 54.3664 165.589 54.5064 164.212 54.7187C163.999 54.7709 163.893 54.6665 163.786 54.5089C161.054 48.1172 159.41 43.6483 158.46 40.972C158.438 40.8885 158.447 40.7998 158.486 40.7226C158.525 40.6453 158.592 40.5848 158.673 40.5524C158.13 40.5524 153.873 42.091 153.773 42.1284C150.04 43.4313 146.55 45.3279 143.44 47.7429C140.081 50.2445 137.166 53.2758 134.811 56.7143C134.864 56.6621 134.917 56.6621 134.971 56.6089C136.825 56.4401 138.692 56.7288 140.404 57.4491C141.868 58.0785 142.112 59.4634 140.457 59.9668C138.435 60.5834 136.609 58.6035 133.586 59.757C133.318 59.8555 133.106 59.5472 133.16 59.3374C133.002 59.5643 132.877 59.8115 132.787 60.0722C131.58 62.3644 130.804 64.8528 130.496 67.4173C130.496 67.6655 130.996 67.896 131.136 67.9423C132.893 68.9391 141.217 74.0592 141.895 74.4483C142.108 74.6049 142.321 74.4483 142.375 74.2384C143.309 71.9365 146.449 70.1556 147.793 74.3222C148.731 77.2279 149.246 83.8767 149.246 85.0459C155.882 83.4118 158.416 87.9565 161.763 93.2312C162.558 89.2049 164.073 85.3497 166.237 81.8456C166.601 81.2003 167.09 80.6315 167.676 80.1711C169.057 79.1999 170.385 79.8677 170.605 81.1679C170.605 81.2664 170.23 81.7747 174.653 75.2392C174.143 68.0389 172.728 60.743 168.367 54.2991Z"></path><path id="vector_39" fill="#ffaaaa" d="M192.123 55.3481C189.045 50.1191 184.592 45.8051 179.233 42.8613C172.86 39.7585 165.583 38.9601 158.673 40.6056C158.592 40.6379 158.525 40.6983 158.486 40.7756C158.446 40.853 158.437 40.9418 158.46 41.0253C161.36 49.1909 162.594 51.3727 163.786 54.5611C163.839 54.7709 163.999 54.8231 164.212 54.7709C171.036 53.8106 174.953 54.2932 178.381 59.755C180.544 63.2025 179.071 66.3782 180.725 67.311C180.997 67.454 181.302 67.5243 181.611 67.515C181.919 67.5057 182.219 67.417 182.482 67.2578C183.765 66.4343 183.814 64.7697 183.814 63.2705C184.682 65.1952 184.627 66.6195 185.678 67.4154C185.844 67.5688 186.041 67.686 186.256 67.7592C186.471 67.8324 186.699 67.86 186.926 67.8402C187.152 67.8204 187.372 67.7536 187.571 67.6442C187.769 67.5349 187.942 67.3854 188.078 67.2056C188.332 66.7142 188.482 66.1771 188.518 65.627C188.555 65.0768 188.478 64.5251 188.291 64.0053C188.185 63.6901 188.131 63.3759 188.025 63.0607C188.546 63.8112 189.134 64.5137 189.783 65.1597C189.99 65.315 190.234 65.4162 190.492 65.454C190.749 65.4918 191.012 65.465 191.257 65.376C191.501 65.287 191.718 65.1387 191.889 64.945C192.06 64.7512 192.178 64.5181 192.233 64.2673C192.336 63.2577 192.05 62.2469 191.433 61.4345C192.792 63.041 194.433 62.8135 194.948 61.1193C194.946 59.1049 194.031 58.6804 192.123 55.3481Z"></path><path id="vector_40" fill="#ffc431" d="M126.98 72.6092C126.287 71.6124 124.153 69.0327 125.595 68.4121C126.71 67.9324 128.035 69.3646 128.951 70.5112C129.133 70.7223 129.294 70.9506 129.43 71.1928C129.537 71.1406 131.251 70.0847 131.88 69.672L115.954 58.3907V78.2759C118.684 76.9285 124.876 73.7292 126.98 72.6092Z"></path><path id="vector_41" fill="#000000" d="M131.028 58.9159C130.065 56.2564 127.628 53.9909 126.607 53.722C125.702 53.3546 124.367 53.8796 124.476 54.9808C124.595 56.1756 126.338 56.7262 130.495 59.3355C130.523 59.3571 130.554 59.373 130.588 59.3822C130.622 59.3913 130.658 59.3935 130.693 59.3886C130.728 59.3837 130.761 59.3718 130.792 59.3537C130.822 59.3356 130.848 59.3116 130.868 59.2833C130.904 59.2711 130.937 59.2516 130.966 59.226C130.994 59.2004 131.016 59.1693 131.031 59.1347C131.046 59.1 131.054 59.0626 131.053 59.0249C131.053 58.9872 131.044 58.9501 131.028 58.9159V58.9159Z"></path><path id="vector_42" fill="#ffaaaa" d="M141.362 58.2342C140.721 57.5991 139.907 57.1614 139.018 56.9743C137.803 56.7111 136.562 56.5852 135.318 56.5991C134.839 56.6079 134.833 56.7104 134.441 57.2886C133.964 57.9571 133.537 58.6586 133.163 59.3876C133.144 59.446 133.142 59.5084 133.157 59.5679C133.171 59.6274 133.202 59.6819 133.246 59.7252C133.29 59.7685 133.346 59.7991 133.406 59.8136C133.466 59.828 133.53 59.8258 133.589 59.8072C134.743 59.4423 135.975 59.3879 137.158 59.6496C138.202 60.0712 139.345 60.1985 140.458 60.017C141.583 59.6742 141.8 58.8783 141.362 58.2342Z"></path><path id="vector_43" fill="#ffaaaa" d="M129.856 59.3354C129.368 59.1587 128.835 59.1399 128.336 59.2819C127.836 59.4239 127.396 59.7192 127.078 60.1248C126.761 60.5305 126.583 61.0253 126.571 61.5373C126.558 62.0494 126.712 62.5519 127.01 62.9718C127.308 63.3917 127.734 63.7071 128.226 63.8721C128.718 64.0371 129.251 64.043 129.747 63.8891C130.243 63.7352 130.676 63.4294 130.984 63.0163C131.291 62.6032 131.456 62.1042 131.456 61.5921C131.454 61.1003 131.3 60.6208 131.014 60.2176C130.728 59.8144 130.324 59.5067 129.856 59.3354V59.3354Z"></path><path id="vector_44" fill="#ffaaaa" d="M130.176 77.3314V81.0045C130.183 81.0904 130.222 81.1707 130.286 81.2292C130.35 81.2878 130.435 81.3203 130.522 81.3203C130.61 81.3203 130.694 81.2878 130.758 81.2292C130.822 81.1707 130.861 81.0904 130.868 81.0045V77.3314C130.868 77.241 130.832 77.1543 130.767 77.0904C130.702 77.0265 130.614 76.9906 130.522 76.9906C130.43 76.9906 130.342 77.0265 130.277 77.0904C130.212 77.1543 130.176 77.241 130.176 77.3314V77.3314Z"></path><path id="vector_45" fill="#ffaaaa" d="M175.291 43.8581C174.339 43.475 173.376 43.1686 172.415 42.8091C171.99 42.6485 171.83 43.2789 172.255 43.4385C173.216 43.8 174.179 44.1044 175.132 44.4875C175.507 44.6392 175.667 44.0088 175.291 43.8581Z"></path><path id="vector_46" fill="#ffaaaa" d="M185.146 56.9222C184.988 56.5538 184.346 56.7114 184.506 57.0798C184.776 57.7082 185.036 58.3406 185.306 58.968C185.464 59.3364 186.106 59.1788 185.946 58.8114C185.675 58.183 185.415 57.5506 185.146 56.9222Z"></path><path id="vector_47" fill="#ffaaaa" d="M187.383 54.4568C187.221 54.0372 186.583 54.247 186.744 54.6134C187.008 55.3703 187.328 56.1071 187.702 56.8178C187.862 57.1842 188.453 56.868 188.288 56.5026C187.978 55.8161 187.646 55.1394 187.383 54.4568Z"></path><path id="vector_48" fill="#000000" d="M156.382 76.5976C157.089 77.743 157.532 79.0276 157.68 80.3603C157.827 81.6931 157.675 83.0415 157.235 84.3101C157.079 84.7307 157.714 84.8873 157.874 84.4667C158.372 83.117 158.55 81.6726 158.393 80.2447C158.236 78.8168 157.748 77.4434 156.968 76.2301C156.759 75.912 156.163 76.2331 156.382 76.5976Z"></path><path id="vector_49" fill="#000000" d="M153.879 77.6988C154.546 78.4495 154.976 79.3749 155.118 80.3624C155.26 81.3498 155.108 82.3566 154.679 83.2601C154.466 83.6275 155.054 83.9959 155.265 83.5753C155.759 82.5454 155.936 81.3957 155.775 80.2678C155.614 79.1398 155.122 78.0828 154.359 77.227C154.092 76.8596 153.613 77.3314 153.879 77.6988Z"></path><path id="vector_50" fill="#000000" d="M159.312 74.4463C159.043 74.1331 158.565 74.6039 158.833 74.9181C161.899 78.5193 162.133 83.0453 160.484 85.9885C160.276 86.3589 160.858 86.7233 161.07 86.3037C162.001 84.3778 162.331 82.223 162.018 80.1122C161.705 78.0014 160.763 76.0295 159.312 74.4463V74.4463Z"></path><path id="vector_51" fill="#ae877c" d="M150.683 79.4304C150.717 79.4725 150.74 79.5221 150.75 79.5749C150.761 79.6277 150.758 79.6822 150.742 79.7337C150.727 79.7852 150.698 79.8322 150.66 79.8706C150.622 79.9091 150.575 79.9378 150.523 79.9544C150.357 79.9544 147.968 80.9985 147.061 81.4241C146.823 81.5176 146.629 81.4438 146.589 81.2408C146.63 81.5711 146.74 81.8893 146.912 82.1753C147.085 82.4613 147.316 82.7087 147.591 82.9018C147.866 83.0948 148.179 83.2293 148.51 83.2966C148.84 83.3639 149.182 83.3625 149.512 83.2926C149.916 83.1996 150.289 83.003 150.591 82.7226C150.894 82.4423 151.116 82.0881 151.235 81.6961C151.354 81.304 151.365 80.888 151.268 80.4901C151.171 80.0923 150.969 79.7267 150.683 79.4304V79.4304Z"></path><path id="vector_52" fill="#000000" d="M150.715 79.4196C150.338 79.0649 149.859 78.8341 149.343 78.7589C148.827 78.6838 148.3 78.768 147.835 79C146.304 79.7781 146.258 81.8397 147.035 81.4625C147.835 81.0764 150.495 79.9416 150.607 79.9416C150.651 79.916 150.689 79.8817 150.718 79.8408C150.748 79.7999 150.768 79.7534 150.778 79.7042C150.789 79.655 150.788 79.6043 150.777 79.5553C150.766 79.5063 150.745 79.46 150.715 79.4196V79.4196Z"></path><path id="vector_53" fill="#ffd7d7" d="M129.1 96.9742C128.608 96.8104 128.078 96.7926 127.577 96.9231C127.075 97.0536 126.623 97.3266 126.277 97.7081C125.92 98.1181 125.705 98.63 125.664 99.1688C125.623 99.7077 125.758 100.245 126.049 100.703C126.341 101.161 126.773 101.515 127.283 101.714C127.793 101.913 128.355 101.945 128.885 101.807C129.416 101.67 129.887 101.368 130.232 100.947C130.576 100.527 130.774 100.009 130.798 99.4687C130.822 98.9289 130.671 98.3956 130.365 97.9468C130.059 97.4981 129.616 97.1573 129.1 96.9742V96.9742Z"></path></g></g><g id="line"><g id="group_2"><path id="vector_54" fill="#000000" d="M72.223 97.9503C72.2516 100.603 72.5912 103.244 73.235 105.82C73.2562 105.904 73.3102 105.976 73.3851 106.02C73.46 106.064 73.5497 106.077 73.6345 106.056C73.7192 106.035 73.7921 105.982 73.837 105.908C73.8819 105.835 73.8952 105.746 73.874 105.663C73.2378 103.158 72.9161 100.586 72.916 98.0035C72.862 97.5307 72.219 97.5307 72.223 97.9503Z"></path><path id="vector_55" fill="#000000" d="M38.453 106.24C38.293 105.874 37.707 106.188 37.867 106.555C38.187 107.29 38.56 107.972 38.879 108.707C39.039 109.074 39.625 108.759 39.465 108.391C39.146 107.661 38.826 106.971 38.453 106.24Z"></path><path id="vector_56" fill="#000000" d="M57.735 106.24C57.575 105.874 56.989 106.188 57.149 106.555C57.469 107.29 57.842 107.972 58.161 108.707C58.321 109.074 58.907 108.759 58.747 108.391C58.428 107.661 58.108 106.971 57.735 106.24Z"></path><path id="vector_57" fill="#000000" d="M53 110.543C51.037 112.052 47.174 111.974 45.024 110.993C44.465 110.738 44.144 111.211 44.371 111.435C44.9159 112.563 45.7415 113.538 46.771 114.268C49.612 116.034 52.701 113.935 53.482 110.858C53.634 110.49 53.263 110.336 53 110.543ZM45.862 112.379C45.752 112.224 45.649 112.064 45.542 111.907C47.8669 112.663 50.3956 112.532 52.627 111.539C50.874 115.125 47.609 114.857 45.857 112.379H45.862Z"></path><path id="vector_58" fill="#000000" d="M48.787 73.0821C48.344 74.1656 47.852 75.2806 47.434 76.3572C46.748 75.3722 45.167 73.1323 45.058 72.9767C44.798 72.6053 44.206 72.9767 44.472 73.2919L46.872 76.7541C47.292 77.3747 47.544 77.7392 47.887 76.9068C48.387 75.6844 48.932 74.4621 49.429 73.2397C49.586 72.8191 48.956 72.6654 48.787 73.0821Z"></path><path id="vector_59" fill="#000000" d="M50.5439 132.054C49.4094 132.294 48.4077 132.945 47.7368 133.878C47.066 134.811 46.7748 135.957 46.921 137.091C43.757 137.628 40.178 138.55 35.896 135.622C34.6033 134.652 33.4243 133.543 32.381 132.316C29.535 128.688 28.7139 125.147 27.9599 120.039C27.5518 116.924 27.3205 113.789 27.267 110.648C27.2603 110.562 27.221 110.482 27.1568 110.423C27.0927 110.365 27.0084 110.332 26.9209 110.332C26.8335 110.332 26.7492 110.365 26.6851 110.423C26.6209 110.482 26.5816 110.562 26.575 110.648C26.6091 113.49 26.8047 116.327 27.1609 119.148C28.0419 126.212 29.4369 131.424 34.7249 135.516C40.4249 140.069 46.172 137.739 47.076 137.721C47.2968 138.386 47.6653 138.995 48.1546 139.503C48.6439 140.011 49.2418 140.406 49.9049 140.658C50.5655 140.893 51.2725 140.975 51.9704 140.896C52.6683 140.817 53.3383 140.58 53.9277 140.204C54.5171 139.827 55.0099 139.322 55.3676 138.726C55.7253 138.131 55.9382 137.462 55.9894 136.771C56.0407 136.081 55.929 135.389 55.663 134.748C55.3971 134.108 54.9843 133.537 54.4567 133.08C53.9292 132.623 53.3015 132.293 52.6226 132.115C51.9438 131.937 51.2323 131.916 50.5439 132.054V132.054ZM54.7519 138.402C54.3248 139.102 53.6824 139.649 52.9181 139.965C52.1538 140.281 51.3072 140.348 50.5012 140.158C49.6952 139.968 48.9717 139.53 48.4356 138.907C47.8995 138.285 47.5787 137.51 47.5197 136.696C47.4608 135.881 47.6668 135.07 48.1077 134.378C48.5487 133.687 49.2018 133.152 49.9723 132.851C50.7427 132.551 51.5905 132.499 52.3926 132.705C53.1946 132.911 53.9093 133.363 54.4329 133.995C54.9401 134.608 55.2429 135.361 55.3 136.149C55.3571 136.938 55.1657 137.725 54.7519 138.402V138.402Z"></path><path id="vector_60" fill="#000000" d="M148.286 89.7138C148.331 89.2932 147.637 89.2932 147.594 89.7138C147.295 93.1233 147.384 96.555 147.86 99.945L148.66 100.733C148.139 97.0833 148.014 93.3895 148.286 89.7138Z"></path><path id="vector_61" fill="#000000" d="M177 154.349C172.081 152.653 164.183 151.352 159.369 152.932C159.423 153.142 159.423 153.353 159.476 153.615C163.576 152.201 169.233 152.971 173.431 153.982C173.857 154.086 174.231 154.193 174.656 154.298H159.561L159.632 154.979H176.889C176.965 154.977 177.038 154.949 177.096 154.899C177.154 154.85 177.192 154.783 177.205 154.709C177.218 154.635 177.205 154.559 177.168 154.493C177.13 154.428 177.071 154.377 177 154.349V154.349Z"></path><path id="vector_62" fill="#000000" d="M156.382 76.5976C157.089 77.743 157.532 79.0276 157.68 80.3603C157.827 81.6931 157.675 83.0415 157.235 84.3101C157.079 84.7307 157.714 84.8873 157.874 84.4667C158.372 83.117 158.55 81.6726 158.393 80.2447C158.236 78.8168 157.748 77.4434 156.968 76.2301C156.759 75.912 156.163 76.2331 156.382 76.5976Z"></path><path id="vector_63" fill="#000000" d="M153.879 77.6988C154.546 78.4495 154.976 79.3749 155.118 80.3624C155.26 81.3498 155.108 82.3566 154.679 83.2601C154.466 83.6275 155.054 83.9959 155.265 83.5753C155.759 82.5454 155.936 81.3957 155.775 80.2678C155.614 79.1398 155.122 78.0828 154.359 77.227C154.092 76.8596 153.613 77.3314 153.879 77.6988Z"></path><path id="vector_64" fill="#000000" d="M159.312 74.4463C159.043 74.1331 158.565 74.6039 158.833 74.9181C161.899 78.5193 162.133 83.0453 160.484 85.9885C160.276 86.3589 160.858 86.7233 161.07 86.3037C162.001 84.3778 162.331 82.223 162.018 80.1122C161.705 78.0014 160.763 76.0295 159.312 74.4463V74.4463Z"></path><path id="vector_65" fill="#000000" d="M151.117 80.1406C150.992 79.8563 150.809 79.6003 150.579 79.3887C150.35 79.1771 150.078 79.0144 149.782 78.9107C149.485 78.807 149.17 78.7646 148.857 78.7861C148.543 78.8075 148.237 78.8924 147.958 79.0354C147.478 79.2707 147.094 79.6608 146.87 80.1409C146.646 80.621 146.596 81.1621 146.727 81.6742C146.859 82.1864 147.165 82.6387 147.594 82.9559C148.023 83.2731 148.549 83.4361 149.085 83.4177C149.465 83.3912 149.834 83.2755 150.16 83.0802C150.486 82.8849 150.76 82.6157 150.959 82.2951C151.157 81.9744 151.275 81.6115 151.303 81.2368C151.331 80.862 151.267 80.4862 151.117 80.1406V80.1406ZM149.769 79.6126C148.917 79.9791 148.118 80.2943 147.319 80.6617C147.387 80.4183 147.509 80.1929 147.677 80.0022C147.845 79.8115 148.054 79.6603 148.289 79.5596C148.524 79.459 148.779 79.4115 149.035 79.4207C149.291 79.4299 149.542 79.4955 149.769 79.6126ZM149.618 82.5785C149.39 82.672 149.145 82.7149 148.899 82.7041C148.652 82.6934 148.412 82.6293 148.193 82.5165C147.975 82.4036 147.785 82.2447 147.636 82.0511C147.488 81.8575 147.384 81.634 147.333 81.3965C148.333 80.9335 149.379 80.51 150.382 80.0874C150.533 80.2912 150.633 80.5266 150.676 80.7752C150.719 81.0237 150.703 81.2787 150.629 81.52C150.554 81.7613 150.425 81.9825 150.249 82.1661C150.074 82.3498 149.858 82.4909 149.618 82.5785V82.5785Z"></path><path id="vector_66" fill="#000000" d="M174.6 128.486V125.81C174.593 125.724 174.554 125.644 174.49 125.585C174.426 125.527 174.341 125.494 174.254 125.494C174.166 125.494 174.082 125.527 174.018 125.585C173.954 125.644 173.915 125.724 173.908 125.81V128.486C173.915 128.572 173.954 128.653 174.018 128.711C174.082 128.77 174.166 128.802 174.254 128.802C174.341 128.802 174.426 128.77 174.49 128.711C174.554 128.653 174.593 128.572 174.6 128.486V128.486Z"></path><path id="vector_67" fill="#000000" d="M163.094 109.231C163.894 108.969 164.745 108.759 165.544 108.497C165.97 108.391 165.757 107.709 165.384 107.867C164.584 108.129 163.733 108.339 162.934 108.601C162.892 108.612 162.853 108.63 162.818 108.655C162.783 108.681 162.754 108.713 162.732 108.749C162.709 108.786 162.695 108.826 162.688 108.868C162.682 108.91 162.684 108.953 162.695 108.995C162.705 109.036 162.724 109.075 162.749 109.109C162.775 109.143 162.808 109.172 162.845 109.194C162.882 109.216 162.923 109.231 162.966 109.237C163.008 109.243 163.052 109.241 163.094 109.231V109.231Z"></path><path id="vector_68" fill="#000000" d="M186.9 85.5167C183.863 80.4932 178.538 69.9803 178.538 69.8818C178.492 69.8164 178.423 69.7698 178.345 69.7504C178.267 69.731 178.184 69.7402 178.112 69.7764C178.058 69.7764 178.005 69.8286 177.952 69.8818C175.858 73.0229 173.687 76.1562 170.476 80.901C169.956 79.4914 167.896 79.193 166.233 82.0012C164.071 85.5058 162.556 89.3599 161.759 93.3849C158.644 88.4884 156.343 84.3544 150.52 84.9917C149.002 85.1647 147.572 85.7866 146.42 86.7755C145.482 87.6688 144.739 88.7413 144.236 89.9275C143.259 92.0945 142.917 94.1699 143.936 98.0429C144.202 98.0951 144.468 98.2005 144.681 98.2527C144.092 96.3934 143.905 94.4331 144.133 92.4984C144.728 89.4537 146.795 86.217 150.259 85.7304C155.714 84.8341 157.746 88.4992 160.752 93.0756C160.992 93.5011 161.338 93.9384 161.599 94.3659C161.441 95.6011 161.186 97.2283 161.077 98.5187C159.469 94.3793 156.98 90.627 153.777 87.5143C153.746 87.4811 153.709 87.4545 153.667 87.436C153.625 87.4174 153.58 87.4074 153.535 87.4065C153.489 87.4055 153.443 87.4137 153.401 87.4305C153.359 87.4473 153.32 87.4723 153.288 87.5042C153.255 87.536 153.23 87.574 153.213 87.6157C153.196 87.6575 153.188 87.7023 153.189 87.7473C153.19 87.7923 153.2 87.8366 153.218 87.8777C153.237 87.9187 153.264 87.9556 153.298 87.9861C156.748 91.404 159.37 95.5456 160.968 100.102C161.073 100.513 161.607 100.299 161.607 99.9972C161.707 98.4044 161.952 96.4817 162.207 94.8555H173.235C172.909 97.3485 172.285 99.7951 171.378 102.144C169.739 106.294 167.778 109.208 163.368 110.174C161.721 110.515 160.026 110.568 158.361 110.332C157.669 110.227 156.976 110.07 156.284 109.912C156.271 110.142 156.235 110.371 156.177 110.594C161.099 111.893 165.277 110.808 167.603 109.005C168.452 111.525 169.624 113.929 171.092 116.156C178.428 128.007 177.874 127.801 174.917 150.576C174.451 150.529 159.272 147.937 158.617 147.83C159.66 143.57 160.412 139.245 160.866 134.886C161.13 131.754 160.366 130.829 157.476 123.361C157.273 123.471 157.058 123.559 156.836 123.624C157.209 124.568 157.616 125.709 157.989 126.6C158.482 127.874 159.878 130.961 160.067 132.634C160.447 136.75 159.014 142.594 158.149 146.643C158.249 147.348 158.469 148.139 158.469 148.479C162.783 149.214 173.809 151.05 175.034 151.26C175.295 151.345 175.498 151.025 175.534 150.731C176.846 140.151 177.518 136.653 177.591 132.267C177.591 120.683 171.176 117.822 168.208 108.495C169.688 107.013 170.841 105.245 171.592 103.303C173.424 99.0446 174.29 94.4434 174.129 89.8211C174.122 89.4015 174.075 88.9297 174.075 88.5101H174.288C176.33 88.3941 178.343 87.9692 180.254 87.2503C181.161 87.0379 182.007 86.6223 182.725 86.0358H186.646C186.707 86.036 186.767 86.0192 186.819 85.9873C186.871 85.9553 186.913 85.9095 186.939 85.8552C186.966 85.8009 186.976 85.7402 186.969 85.6803C186.962 85.6204 186.938 85.5637 186.9 85.5167ZM182.426 85.0439C182.291 85.9737 180.504 86.4347 179.603 86.7755C175.797 88.1545 173.145 87.5763 173.371 88.2441C173.522 90.2371 173.486 92.2395 173.264 94.226H162.295C163.084 89.8453 164.691 85.6467 167.035 81.8436C168.202 80.107 169.45 80.176 169.805 81.0044C170.417 82.4326 168.9 83.7328 168.314 84.8341C168.207 85.0439 168.314 85.365 168.58 85.3591C173.226 85.2606 177.445 82.3006 178.541 81.7914C180.064 81.0832 181.025 82.146 180.618 82.7882C180.19 83.2816 179.687 83.7063 179.127 84.0471C178.559 84.3952 177.951 84.6769 177.316 84.8863C176.887 85.036 177.103 85.6743 177.475 85.5167C178.221 85.2537 178.967 84.9917 179.766 84.7819C180.709 84.5159 181.566 84.0697 181.95 84.2047C182.122 84.2607 182.266 84.3778 182.354 84.533C182.443 84.6882 182.47 84.8704 182.429 85.0439H182.426ZM183.053 85.3591C183.161 85.0587 183.157 84.7306 183.042 84.4328C182.927 84.1351 182.709 83.8871 182.426 83.7328C182.405 83.7126 182.38 83.6973 182.352 83.6881C182.324 83.6789 182.295 83.676 182.266 83.6796C181.891 83.606 181.502 83.6427 181.148 83.785C180.987 83.8343 180.775 83.8895 180.615 83.9426C180.722 83.8372 180.881 83.7328 180.988 83.6274C181.212 83.4428 181.377 83.1985 181.463 82.9238C181.55 82.649 181.554 82.3556 181.475 82.0786C181.396 81.8017 181.238 81.553 181.019 81.3625C180.801 81.1719 180.531 81.0476 180.242 81.0044C178.496 80.502 177.242 82.3223 172.998 83.8895C171.796 84.3238 170.544 84.6061 169.27 84.7297C169.763 83.9791 170.659 82.8414 170.654 81.8732L178.221 70.723C179.466 73.2978 183.314 80.7985 186.051 85.361L183.053 85.3591Z"></path><path id="vector_69" fill="#000000" d="M138.485 132.106H140.669C140.756 132.1 140.838 132.061 140.897 131.998C140.957 131.935 140.99 131.852 140.99 131.765C140.99 131.679 140.957 131.596 140.897 131.533C140.838 131.47 140.756 131.431 140.669 131.425H138.485C138.393 131.425 138.305 131.46 138.24 131.524C138.175 131.588 138.139 131.675 138.139 131.765C138.139 131.856 138.175 131.942 138.24 132.006C138.305 132.07 138.393 132.106 138.485 132.106Z"></path><path id="vector_70" fill="#000000" d="M116.22 88.8746C112.397 91.4848 110.05 95.9577 111.267 100.365C111.277 100.406 111.296 100.445 111.322 100.479C111.348 100.513 111.38 100.542 111.417 100.564C111.454 100.586 111.495 100.6 111.538 100.607C111.581 100.613 111.625 100.611 111.666 100.6C111.708 100.59 111.748 100.572 111.783 100.546C111.817 100.521 111.847 100.489 111.869 100.453C111.891 100.416 111.906 100.376 111.912 100.333C111.919 100.291 111.916 100.248 111.906 100.207C111.558 98.6559 111.594 97.0449 112.012 95.5105C112.429 93.9762 113.216 92.5635 114.306 91.3922C114.975 90.6647 115.726 90.0138 116.543 89.4518C116.911 89.1868 116.6 88.6175 116.22 88.8746Z"></path><path id="vector_71" fill="#000000" d="M117.339 90.9204C115.925 91.9227 114.842 93.3134 114.226 94.9185C113.611 96.5237 113.489 98.2721 113.877 99.945C113.898 100.028 113.952 100.1 114.027 100.144C114.102 100.189 114.192 100.202 114.276 100.181C114.361 100.16 114.434 100.107 114.479 100.033C114.524 99.9592 114.537 99.8709 114.516 99.7874C114.165 98.2543 114.276 96.6537 114.834 95.1815C115.392 93.7093 116.374 92.4292 117.659 91.4976C118.031 91.2878 117.712 90.7106 117.339 90.9204Z"></path><path id="vector_72" fill="#000000" d="M118.351 93.8064C117.61 94.5563 117.075 95.4791 116.795 96.4886C116.515 97.498 116.5 98.5609 116.751 99.5776C116.772 99.661 116.826 99.7328 116.901 99.777C116.976 99.8213 117.066 99.8344 117.15 99.8135C117.235 99.7926 117.308 99.7394 117.353 99.6656C117.398 99.5918 117.411 99.5034 117.39 99.42C117.168 98.5213 117.183 97.5815 117.435 96.6904C117.687 95.7994 118.166 94.9868 118.828 94.3305C119.156 94.0222 118.671 93.5435 118.351 93.8064Z"></path><path id="vector_73" fill="#000000" d="M161.815 113.219C161.709 113.113 161.656 113.009 161.549 112.904C160.833 112.158 159.896 111.655 158.872 111.466C157.848 111.278 156.79 111.414 155.849 111.855C156.098 111.25 156.259 110.614 156.328 109.965C156.754 106.405 153.38 103.994 150.522 105.558C150.537 104.358 150.248 103.172 149.681 102.11C149.113 101.047 148.286 100.14 147.273 99.4721C143.073 96.4383 137.664 97.512 132.678 99.0003C133.197 96.8274 131.622 95.3332 129.478 95.2228C127.189 95.1037 125.885 96.9752 126.027 97.706C125.681 98.0999 125.467 98.5898 125.416 99.1082C125.364 99.6266 125.477 100.148 125.738 100.601C126 101.053 126.398 101.415 126.877 101.636C127.356 101.856 127.892 101.925 128.413 101.833C128.925 101.726 129.396 101.48 129.773 101.122C131.131 103.545 133.102 105.581 135.495 107.032C134.813 107.434 134.181 107.915 133.614 108.464C132.689 106.641 131.368 105.04 129.745 103.776C129.265 103.329 128.647 103.055 127.99 102.998C127.332 102.941 126.675 103.104 126.123 103.46C124.951 101.73 121.702 97.1121 121.329 96.5349C121.297 96.4875 121.253 96.4487 121.202 96.4219C121.151 96.3951 121.094 96.3811 121.036 96.3811C120.978 96.3811 120.921 96.3951 120.87 96.4219C120.819 96.4487 120.775 96.4875 120.743 96.5349C119.731 98.0045 115.921 103.528 115.028 104.772H114.028C113.698 104.75 113.37 104.837 113.097 105.019C112.823 105.202 112.619 105.469 112.517 105.779C112.415 106.089 112.422 106.423 112.536 106.729C112.649 107.035 112.863 107.294 113.144 107.466C111.857 109.248 110.728 110.804 110.673 110.859C110.513 111.069 110.62 111.436 110.886 111.436H114.999C114.099 112.078 113.578 112.695 113.762 113.692C113.838 113.993 113.983 114.272 114.186 114.509C114.389 114.745 114.645 114.933 114.934 115.056C116.467 115.487 119.845 113.654 121.113 112.8C120.078 114.672 118.797 115.191 118.713 116.315C118.701 116.56 118.738 116.805 118.823 117.035C118.907 117.266 119.038 117.478 119.206 117.658C119.375 117.839 119.578 117.985 119.804 118.087C120.03 118.19 120.275 118.247 120.524 118.256C121.062 118.26 121.592 118.134 122.069 117.889C122.556 117.659 123.004 117.359 123.4 116.997C124.118 116.341 124.729 115.58 125.211 114.741C125.219 117.026 125.415 119.307 125.797 121.562C126.135 123.795 126.983 125.924 128.276 127.788C128.225 128.3 128.093 129.871 127.768 134.993C127.774 135.075 127.809 135.152 127.868 135.21C127.927 135.267 128.005 135.302 128.088 135.307H129.579C129.579 135.337 128.94 154.462 128.94 156.819C128.94 157.238 129.579 157.238 129.632 156.819C129.632 155.74 130.297 135.718 130.277 135.307H132.936C132.936 135.362 133.574 156.65 133.574 156.819C133.581 156.905 133.62 156.985 133.684 157.044C133.748 157.102 133.832 157.135 133.92 157.135C134.007 157.135 134.092 157.102 134.156 157.044C134.22 156.985 134.259 156.905 134.266 156.819C134.266 155.932 133.634 136.297 133.628 135.307H155.45C155.492 135.556 159.365 156.852 159.365 156.924C159.418 157.344 160.111 157.186 160.004 156.767C159.932 156.373 159.525 154.2 159.525 153.828C159.525 153.73 156.125 135.739 156.117 135.287C156.381 135.277 156.491 135.257 156.64 135.257C156.74 135.257 157.021 135.089 157.021 134.888C156.968 133.891 156.915 132.842 156.808 131.845C156.508 128.728 155.721 124.621 155.608 124.178C158.225 123.57 160.494 121.97 161.922 119.726C163.455 117.157 163.194 114.831 161.815 113.219ZM128.684 101.103C128.314 101.235 127.912 101.251 127.532 101.15C127.153 101.048 126.814 100.833 126.564 100.534C126.313 100.235 126.162 99.8678 126.132 99.4814C126.101 99.0951 126.193 98.7089 126.394 98.3758C126.604 98.0234 126.925 97.7489 127.309 97.5946C127.693 97.4404 128.118 97.415 128.518 97.5224C128.918 97.6298 129.271 97.864 129.523 98.1888C129.774 98.5137 129.91 98.911 129.909 99.3195C129.907 99.7022 129.789 100.076 129.571 100.392C129.353 100.709 129.044 100.955 128.684 101.098V101.103ZM121.014 97.2736C122.273 99.1658 128.081 107.508 128.152 107.609C128.205 107.715 128.312 107.819 128.365 107.924C123.819 106.611 120.734 105.287 115.847 104.829C115.762 104.822 120.86 97.4716 121.014 97.2687V97.2736ZM111.64 110.705C112.012 110.233 112.332 109.76 112.652 109.289C112.924 108.886 113.41 108.253 113.745 107.783C115.483 108.747 118.299 108.974 118.457 109.131C118.706 109.376 116.594 110.547 116.274 110.707C116.062 110.819 116.878 110.7 111.64 110.7V110.705ZM125.808 113.486C125.805 113.413 125.778 113.342 125.732 113.286C125.685 113.229 125.621 113.188 125.549 113.171C125.476 113.153 125.401 113.159 125.332 113.187C125.264 113.215 125.206 113.265 125.169 113.328C124.263 115.06 123.038 117.159 120.961 117.631C120.215 117.788 119.203 117.211 119.361 116.372C119.468 115.795 120.107 115.27 120.48 114.85C121.273 114.026 121.873 113.041 122.237 111.964C122.352 111.599 121.918 111.44 121.651 111.65C120.268 112.725 117.126 114.483 115.419 114.483C115.216 114.475 115.019 114.412 114.85 114.301C114.681 114.19 114.546 114.035 114.461 113.853C113.816 112.583 115.882 111.618 117.23 110.915C117.816 110.6 119.521 109.76 119.041 108.869C118.829 108.45 118.428 108.507 117.341 108.292C115.984 108.089 114.681 107.625 113.506 106.928C113.379 106.851 113.275 106.742 113.207 106.611C113.139 106.481 113.108 106.334 113.119 106.187C113.13 106.041 113.182 105.9 113.269 105.781C113.356 105.662 113.475 105.568 113.612 105.511C113.955 105.398 114.319 105.362 114.678 105.406C119.403 105.406 124.237 107.502 129.006 108.764C129.272 108.816 129.534 108.505 129.379 108.292C128.39 106.928 126.468 104.026 126.449 103.989C128.26 102.677 130.497 105.092 131.51 106.403C132.24 107.397 132.881 108.451 133.427 109.555C133.704 110.074 135.927 114.539 136.783 116.323C133.583 119.103 130.444 121.937 127.408 124.875C125.945 121.087 125.808 117.51 125.808 113.481V113.486ZM156.223 134.63H128.471C128.563 133.273 128.852 129.834 128.931 128.741C129.787 130.139 131.008 131.284 132.466 132.059C134.312 133.018 136.348 133.573 138.432 133.685C139.318 133.764 140.209 133.764 141.095 133.685C143.089 133.493 144.997 132.785 146.624 131.634C148.252 130.482 149.542 128.927 150.363 127.127C151.938 123.429 150.963 118.234 149.618 114.483C149.466 114.06 148.818 114.273 148.978 114.64C150.178 118.186 151.148 122.21 150.15 125.815C149.565 127.637 148.479 129.263 147.012 130.514C145.545 131.764 143.755 132.589 141.841 132.898C139.066 133.306 136.232 132.961 133.641 131.901C130.944 130.525 128.876 128.195 127.852 125.379C129.373 123.882 135.488 118.385 137.094 116.957C137.745 118.338 138.321 119.751 138.82 121.192C138.98 121.508 139.566 121.508 139.513 121.087L139.193 116.522C139.185 116.437 139.145 116.358 139.081 116.301C139.017 116.243 138.933 116.212 138.846 116.212C138.76 116.212 138.676 116.243 138.612 116.301C138.548 116.358 138.508 116.437 138.5 116.522L138.66 118.886C137.243 115.496 135.569 112.135 134.12 109.346C134.081 109.268 134.011 109.183 133.943 109.05C135.245 107.812 136.846 106.921 138.595 106.461C140.189 106.015 141.876 106.009 143.472 106.444C145.069 106.878 146.514 107.736 147.65 108.923C153.6 114.565 155.726 126.474 156.223 134.625V134.63ZM161.815 118.418C161.202 119.681 160.314 120.797 159.214 121.685C158.114 122.572 156.829 123.211 155.451 123.554C154.796 120.584 153.842 117.685 152.601 114.902C148.336 105.712 141.817 103.837 136.17 106.67C133.641 105.213 131.573 103.092 130.197 100.545C130.462 100.084 130.572 99.5516 130.51 99.0251C130.449 98.4986 130.219 98.005 129.853 97.6158C129.488 97.2266 129.007 96.9618 128.479 96.8597C127.951 96.7577 127.403 96.8236 126.916 97.0481C127.281 95.8661 129.916 95.1766 131.446 96.6176C131.796 96.9344 132.025 97.3603 132.095 97.8237C132.164 98.2871 132.069 98.7599 131.827 99.1628C131.721 99.4249 131.88 99.7391 132.2 99.6347C135.449 98.6901 138.805 97.7454 142.214 98.1128C146.536 98.6142 150.473 102.207 149.724 106.19C149.708 106.262 149.716 106.338 149.748 106.405C149.779 106.472 149.831 106.528 149.897 106.563C149.963 106.599 150.039 106.612 150.113 106.602C150.188 106.591 150.257 106.557 150.31 106.505C151.883 104.665 155.91 105.878 155.637 109.705C155.566 110.667 155.274 111.6 154.784 112.434C154.625 112.696 154.948 113.123 155.264 112.906C159.1 110.283 163.809 113.951 161.815 118.413V118.418Z"></path><path id="vector_74" fill="#000000" d="M149.784 83.1694C149.578 83.2468 149.364 83.2997 149.145 83.327C149.202 84.0057 149.245 84.6322 149.245 85.3069L149.884 85.1493C149.884 84.5199 149.837 83.7988 149.784 83.1694Z"></path><path id="vector_75" fill="#000000" d="M130.5 59.3355C130.752 59.4941 131.151 59.169 130.98 58.9159C130.343 57.2857 129.321 55.8289 127.997 54.6666C127.598 54.2469 127.106 53.9237 126.559 53.722C125.653 53.3546 124.322 53.8796 124.428 54.9808C124.825 56.2997 126.266 56.6809 130.5 59.3355ZM126.4 54.2992C126.854 54.4815 127.256 54.7695 127.572 55.1384C128.518 55.9855 129.295 56.9999 129.862 58.1288C127.91 56.9055 128.682 57.5221 126.662 56.2406C126.236 56.0052 125.827 55.7419 125.437 55.4526C124.756 54.5612 125.537 54.0381 126.394 54.2992H126.4Z"></path><path id="vector_76" fill="#000000" d="M194.52 58.9158C192.01 55.5668 192.143 55.0546 190.52 52.8827C187.586 48.7334 183.722 45.3045 179.228 42.8613C176.489 41.4839 173.537 40.562 170.493 40.1328C162.799 39.006 158.383 40.5367 153.882 42.1619C146.788 44.747 140.596 49.2808 136.038 55.226C134.214 57.6974 133.524 58.1081 131.769 62.4313C130.979 64.3291 130.532 66.3487 130.45 68.3984C119.717 60.936 116.209 58.2342 116.002 58.2342C115.951 58.2048 115.893 58.1884 115.834 58.1865C115.775 58.1846 115.717 58.1972 115.664 58.2232C115.611 58.2492 115.566 58.2878 115.532 58.3355C115.498 58.3832 115.477 58.4384 115.47 58.4962V78.3814C115.469 78.4427 115.485 78.5032 115.517 78.5558C115.549 78.6083 115.596 78.6508 115.652 78.6783C115.708 78.7057 115.77 78.717 115.832 78.7108C115.894 78.7047 115.953 78.6813 116.002 78.6434C116.733 78.2839 117.462 77.948 118.192 77.5894C119.083 84.7799 122.867 89.0696 127.135 90.6052C132.888 92.7309 139.701 89.1061 141.197 82.1057C141.656 79.8689 141.993 77.6097 142.209 75.3377C142.209 72.9008 145.138 70.8254 146.896 72.5571C147.95 73.9361 148.691 78.0987 148.691 78.9212C148.904 78.9734 149.117 78.9734 149.383 79.0256C149.208 77.238 148.839 75.4739 148.283 73.7637C148.141 73.2564 147.899 72.7819 147.57 72.3677C147.24 71.9534 146.831 71.6077 146.365 71.3504C145.932 71.2193 145.476 71.1795 145.026 71.2338C144.576 71.2882 144.143 71.4353 143.755 71.6656C142.955 72.1283 142.322 72.8252 141.944 73.6593C140.244 72.5049 138.482 71.508 136.724 70.5073C134.86 69.4573 133.049 68.356 131.185 67.307C131.579 64.7109 132.42 62.2 133.671 59.8821C134.684 59.598 135.746 59.5216 136.791 59.6575C138.428 59.9973 137.968 60.1825 139.991 60.1825C140.63 60.0771 141.482 59.7097 141.535 58.9227C141.589 58.1889 140.742 57.7062 140.15 57.4019C138.827 56.8199 137.384 56.5501 135.937 56.6139C136.842 55.3131 137.839 54.0765 138.92 52.9132C144.202 47.2676 151.028 43.246 158.577 41.3326C162.289 51.3047 162.906 52.2011 163.787 54.5562C163.84 54.766 164 54.8182 164.213 54.766C165.336 54.5763 166.469 54.4533 167.607 54.3976C168.82 55.936 169.778 57.6542 170.445 59.4881C172.649 64.6857 173.842 70.245 173.961 75.8765C174.12 75.6667 174.569 75.0422 174.622 74.9378C174.484 72.6584 174.209 70.389 173.801 68.1413C172.677 62.2008 170.182 56.7429 168.401 54.3415C172.861 54.2242 175.924 55.7205 178.378 59.7462C180.018 62.2855 179.404 62.9533 179.869 65.7803C179.883 66.0812 179.968 66.3749 180.115 66.6387C180.263 66.9025 180.47 67.1295 180.721 67.3021C180.993 67.4464 181.299 67.5174 181.607 67.5081C181.916 67.4987 182.217 67.4093 182.479 67.2489C183.761 66.4461 183.811 64.7588 183.811 63.2616C184.686 65.2021 184.62 66.6274 185.675 67.4065C185.84 67.562 186.036 67.681 186.252 67.7555C186.467 67.83 186.696 67.8582 186.923 67.8384C187.151 67.8185 187.371 67.7509 187.57 67.6403C187.768 67.5296 187.941 67.3784 188.075 67.1967C188.333 66.7065 188.484 66.1692 188.521 65.6185C188.558 65.0678 188.478 64.5155 188.288 63.9964C188.182 63.6812 188.128 63.367 188.022 63.0518C188.541 63.8037 189.129 64.5064 189.78 65.1508C189.987 65.3061 190.231 65.4073 190.489 65.4451C190.746 65.4829 191.009 65.4561 191.254 65.3671C191.498 65.2781 191.715 65.1299 191.886 64.9361C192.057 64.7423 192.175 64.5092 192.23 64.2584C192.333 63.2488 192.047 62.238 191.43 61.4256C193.506 63.8871 196.071 61.7516 194.52 58.9158ZM116.274 77.751V59.1256C116.38 59.2005 129.256 68.2024 131.241 69.7242C130.655 70.0916 130.123 70.4058 129.541 70.7732C128.711 69.6493 127.541 68.0852 126.132 67.9926C125.815 67.9514 125.495 68.032 125.237 68.2176C124.979 68.4033 124.803 68.6797 124.747 68.9894C124.569 70.1281 125.82 71.6696 126.447 72.5571C125.7 72.9304 116.41 77.6623 116.274 77.751ZM130.282 71.0352C130.282 71.6124 130.229 72.2429 130.229 72.8191C130.156 72.2925 130.024 71.7755 129.835 71.2776C129.973 71.1782 130.123 71.0968 130.282 71.0352V71.0352ZM141.705 74.3202C141.389 76.767 141.144 79.2935 140.616 81.7392C139.028 88.778 132.756 91.799 127.616 90.0812C123.379 88.6618 119.7 84.5347 118.827 77.227C121.497 75.7652 125.027 74.0129 127.083 72.8723C127.161 72.8235 127.216 72.7463 127.236 72.6577C127.256 72.569 127.239 72.4762 127.19 72.3995C126.413 71.4954 125.801 70.4661 125.379 69.3568C125.156 68.4772 126.333 68.0763 127.563 69.4612C128.261 70.1283 128.836 70.9095 129.263 71.7701C129.639 73.1496 129.924 74.5515 130.116 75.9671C130.14 76.0413 130.19 76.1046 130.257 76.1453C130.324 76.1861 130.404 76.2015 130.482 76.1888C130.559 76.1761 130.63 76.1361 130.68 76.0761C130.73 76.0162 130.757 75.9404 130.755 75.8627C130.861 74.1311 130.915 72.3473 130.968 70.6156C131.287 70.4058 131.66 70.196 131.98 69.9862C132.119 69.9862 132.192 69.4612 131.98 69.4612C131.954 69.4445 131.594 69.1943 131.069 68.8298C131.068 68.5662 131.086 68.3029 131.123 68.0418C137.855 71.9562 139.622 72.8506 141.705 74.3202ZM139.191 57.8254C139.794 57.9716 140.335 58.3023 140.735 58.77C141.055 59.2418 140.203 59.5038 139.83 59.6092C138.092 59.7806 137.137 58.5257 134.13 59.0842L135.249 57.3536C136.582 57.2442 137.923 57.4048 139.191 57.8254ZM193.029 61.8019C192.177 61.6443 191.629 60.7656 191.111 60.1224C190.45 59.2999 189.673 58.5464 189.087 57.6599C188.874 57.2925 188.287 57.6077 188.501 57.9741C189.16 58.9779 190.247 60.9045 190.901 62.119C191.186 62.5312 191.385 62.9949 191.487 63.4832C191.62 64.5293 190.754 65.1026 189.996 64.4801C188.791 63.1209 187.704 61.6642 186.747 60.1254C186.703 60.0517 186.632 59.9977 186.548 59.9749C186.464 59.9521 186.375 59.9622 186.299 60.0032C186.223 60.0442 186.166 60.1127 186.14 60.1944C186.114 60.276 186.122 60.3643 186.161 60.4406C187.067 62.449 188.108 64.7293 187.599 66.3171C187.492 66.6835 187.279 67.0509 186.853 67.0509C185.075 67.0509 185.372 63.9186 183.604 61.3852C183.564 61.3268 183.506 61.282 183.439 61.2568C183.372 61.2316 183.299 61.2272 183.229 61.2443C183.159 61.2613 183.097 61.299 183.05 61.3522C183.002 61.4054 182.973 61.4716 182.965 61.5418C182.997 62.8804 183.47 65.5911 182.112 66.5269C181.919 66.6674 181.686 66.7433 181.446 66.7433C181.207 66.7433 180.974 66.6674 180.781 66.5269C180.096 65.8512 180.581 62.6854 179.716 60.6504C179.424 60.0485 179.086 59.4696 178.704 58.9188C177.598 57.1683 176.058 55.724 174.229 54.7217C170.971 53.061 167.587 53.5722 164.322 53.9869C160.349 44.5673 160.215 43.4365 159.208 41.0282C165.553 39.6259 172.188 40.2885 178.118 42.9164C183.646 45.7161 188.247 50.0119 191.381 55.2989C192.232 56.8355 192.981 57.8333 193.831 59.1286C194.691 60.9715 193.878 61.987 193.029 61.8019Z"></path><path id="vector_77" fill="#000000" d="M111.746 71.4026C110.918 70.1959 110.449 68.7849 110.392 67.3293C110.336 65.8737 110.694 64.4316 111.426 63.166C111.641 62.7996 111.054 62.4844 110.841 62.8508C110.054 64.222 109.668 65.7807 109.724 67.3547C109.78 68.9287 110.277 70.4567 111.16 71.77C111.426 72.0852 112.012 71.7178 111.746 71.4026Z"></path><path id="vector_78" fill="#000000" d="M113.664 69.8819C113.134 69.1144 112.833 68.2158 112.795 67.2883C112.758 66.3608 112.985 65.4415 113.451 64.6348C113.665 64.2683 113.078 63.9531 112.865 64.3196C112.348 65.2328 112.094 66.2681 112.132 67.3132C112.169 68.3583 112.497 69.3733 113.078 70.2483C113.344 70.5635 113.927 70.2512 113.664 69.8819Z"></path><path id="vector_79" fill="#000000" d="M129.856 59.3354C129.368 59.1587 128.835 59.1399 128.336 59.2819C127.836 59.4239 127.396 59.7192 127.078 60.1248C126.761 60.5305 126.583 61.0253 126.571 61.5373C126.558 62.0494 126.712 62.5519 127.01 62.9718C127.308 63.3917 127.734 63.7071 128.226 63.8721C128.718 64.0371 129.251 64.043 129.747 63.8891C130.243 63.7352 130.676 63.4294 130.984 63.0163C131.291 62.6032 131.456 62.1042 131.456 61.5921C131.454 61.1003 131.3 60.6208 131.014 60.2176C130.728 59.8144 130.324 59.5067 129.856 59.3354V59.3354ZM127.672 62.6933C127.449 62.4177 127.316 62.0827 127.289 61.7316C127.262 61.3805 127.343 61.0296 127.521 60.7243C127.699 60.419 127.966 60.1734 128.288 60.0194C128.609 59.8653 128.97 59.81 129.324 59.8604C129.72 59.9402 130.077 60.1487 130.337 60.4524C130.598 60.7561 130.748 61.1374 130.762 61.5349C130.779 61.8955 130.68 62.2522 130.479 62.5541C130.278 62.856 129.985 63.0877 129.643 63.2161C129.3 63.3445 128.925 63.3631 128.571 63.2692C128.217 63.1753 127.903 62.9738 127.672 62.6933V62.6933Z"></path><path id="vector_80" fill="#000000" d="M130.176 77.3314V81.0045C130.183 81.0904 130.222 81.1707 130.286 81.2292C130.35 81.2878 130.434 81.3203 130.522 81.3203C130.609 81.3203 130.694 81.2878 130.758 81.2292C130.822 81.1707 130.861 81.0904 130.868 81.0045V77.3314C130.868 77.241 130.832 77.1543 130.767 77.0904C130.702 77.0265 130.614 76.9906 130.522 76.9906C130.43 76.9906 130.342 77.0265 130.277 77.0904C130.212 77.1543 130.176 77.241 130.176 77.3314V77.3314Z"></path><path id="vector_81" fill="#000000" d="M175.291 43.8581C174.339 43.475 173.376 43.1686 172.415 42.8091C171.99 42.6485 171.83 43.2789 172.255 43.4385C173.216 43.8 174.179 44.1044 175.132 44.4875C175.507 44.6392 175.667 44.0088 175.291 43.8581Z"></path><path id="vector_82" fill="#000000" d="M185.146 56.9222C184.988 56.5538 184.346 56.7114 184.506 57.0798C184.776 57.7082 185.036 58.3406 185.306 58.968C185.464 59.3364 186.106 59.1788 185.946 58.8114C185.675 58.183 185.415 57.5506 185.146 56.9222Z"></path><path id="vector_83" fill="#000000" d="M187.383 54.4568C187.221 54.0372 186.583 54.247 186.744 54.6134C187.008 55.3703 187.328 56.1071 187.702 56.8178C187.862 57.1842 188.453 56.868 188.288 56.5026C187.978 55.8161 187.646 55.1394 187.383 54.4568Z"></path><path id="vector_84" fill="#000000" d="M122.878 156.714C120.67 144.026 112.191 124.635 106.578 114.115V74.6561C106.577 74.5894 106.556 74.5244 106.517 74.4699C106.478 74.4155 106.422 74.3741 106.359 74.3513C106.295 74.3285 106.226 74.3254 106.16 74.3423C106.095 74.3593 106.036 74.3956 105.992 74.4463C101.944 77.6968 80.084 95.8267 79.081 96.6787C78.6065 95.185 77.6422 93.8887 76.3391 92.9931C75.036 92.0975 73.468 91.6532 71.881 91.7301C68.587 86.1008 64.11 81.361 57.948 79.1152C50.469 76.3858 40.591 77.3639 32.381 82.8927C26.362 86.9853 22.047 93.1239 19.281 99.682C17.0315 105.004 15.7164 110.663 15.392 116.419C14.461 126.881 14.592 138.602 14.592 145.293C12.6421 147.151 10.8097 149.125 9.10498 151.203C7.66698 152.987 6.33498 154.823 5.05698 156.713C5.02765 156.759 5.01151 156.813 5.01022 156.868C5.00892 156.923 5.02252 156.977 5.04962 157.025C5.07671 157.073 5.11633 157.113 5.16437 157.141C5.21242 157.169 5.26717 157.184 5.32298 157.184H122.559C122.613 157.176 122.664 157.158 122.709 157.129C122.755 157.101 122.794 157.063 122.824 157.018C122.854 156.974 122.875 156.924 122.884 156.872C122.893 156.819 122.891 156.765 122.878 156.714ZM106.047 126.073C106.098 126.103 106.156 126.119 106.215 126.121C106.274 126.123 106.333 126.11 106.385 126.084C106.438 126.058 106.484 126.019 106.517 125.971C106.551 125.923 106.572 125.868 106.579 125.81V115.566C108.823 119.211 113.988 131.239 114.679 133.047C114.679 133.047 92.201 132.995 91.295 133.047C90.1174 128.926 88.4737 124.949 86.395 121.189C84.872 118.19 81.624 111.403 80.627 108.536C80.637 108.405 80.642 108.272 80.642 108.137C82.076 109.319 83.328 110.27 84.158 110.854C84.2091 110.883 84.2667 110.899 84.3257 110.901C84.3848 110.903 84.4433 110.89 84.496 110.864C84.5488 110.838 84.5942 110.799 84.628 110.751C84.6619 110.704 84.6832 110.649 84.69 110.591C84.49 108.359 84.877 102.021 87.3 101.619C87.7726 101.574 88.2494 101.646 88.6863 101.829C89.1232 102.012 89.5062 102.301 89.8 102.669C90.483 103.539 90.9235 104.57 91.078 105.659C91.7567 109.026 91.954 112.47 91.664 115.89C91.6628 115.944 91.6772 115.998 91.7056 116.044C91.7339 116.09 91.7749 116.128 91.824 116.152C94.328 117.836 105.72 125.819 106.047 126.073ZM95.234 151.099C91.7198 146.384 87.475 142.242 82.655 138.825C82.496 135.428 81.916 127.978 80.955 120.984C79.991 114.223 79.184 111.907 79.41 111.907C79.8605 111.278 80.1922 110.574 80.389 109.828C82.779 115.943 85.509 120.689 87.879 125.81C90.12 130.617 91.26 135.007 95.234 151.099ZM105.887 75.3377V125.128C105.277 124.678 96.387 118.471 92.304 115.684C92.594 112.688 92.479 105.131 90.604 102.568C90.3058 102.135 89.9201 101.767 89.471 101.487C89.022 101.207 88.5191 101.022 87.994 100.942C85.41 100.624 84.58 103.437 84.212 105.978C83.9885 107.279 83.8994 108.599 83.946 109.918C81.151 107.883 75.746 103.097 74.038 101.841C83.06 94.2714 93.605 85.3177 105.887 75.3377ZM78.543 97.1377C77.277 98.2134 75.66 99.5884 73.289 101.57C73.2539 101.599 73.2257 101.635 73.2063 101.676C73.187 101.717 73.1769 101.761 73.1769 101.806C73.1769 101.851 73.187 101.896 73.2063 101.936C73.2257 101.977 73.2539 102.013 73.289 102.042C73.95 102.572 77.641 105.659 79.989 107.604C79.9705 108.676 79.7195 109.731 79.253 110.699C76.913 115.053 69.703 114.198 68.121 107.184C68.0974 107.109 68.0474 107.046 67.9801 107.005C67.9128 106.965 67.8328 106.949 67.7548 106.962C67.6769 106.975 67.6064 107.015 67.5562 107.075C67.506 107.135 67.4797 107.211 67.482 107.289C67.482 114.04 62.524 121.71 54.645 123.345C52.1506 123.816 49.5933 123.87 47.081 123.502C43.8986 123.218 40.8299 122.195 38.1264 120.517C35.4229 118.839 33.1616 116.554 31.528 113.849C29.4463 110.331 28.3609 106.326 28.385 102.254C33.285 101.992 63.805 100.208 66.629 100.156C66.68 100.154 66.73 100.141 66.7752 100.117C66.8205 100.094 66.8598 100.061 66.8905 100.02C66.9211 99.9801 66.9423 99.9336 66.9524 99.8843C66.9625 99.835 66.9613 99.784 66.949 99.7352C66.47 96.7447 68.281 93.3327 71.37 92.5447C74.577 91.7183 77.494 94.297 78.543 97.1377ZM16.668 111.382C18.053 102.169 22.668 91.8059 30.304 85.3069C38.317 78.5193 50.475 75.9593 60.398 80.8468C65.018 83.3093 68.536 87.3646 71.228 91.8562C69.6425 92.4107 68.2913 93.4726 67.3904 94.8722C66.4895 96.2719 66.0908 97.9285 66.258 99.5776C61.358 99.8396 30.891 101.623 28.066 101.676C27.9819 101.678 27.902 101.712 27.8426 101.771C27.7832 101.829 27.749 101.908 27.747 101.991C27.747 110.892 32.162 118.17 38.666 121.613C43.1204 123.897 48.1622 124.828 53.154 124.289C61.306 123.333 67.109 116.465 68.069 109.022C70.205 114.284 75.73 115.358 78.809 112.554C80.1488 118.793 81.045 125.116 81.491 131.478C81.647 133.672 81.853 136.143 81.962 138.352C71.454 131.214 59.406 128.004 45.481 129.375C34.057 130.747 23.411 137.183 15.256 144.679C15.1 137.001 15.343 119.045 16.668 111.382ZM72.932 134.165C72.832 134.239 52.512 148.152 51.503 148.896C49.053 147.32 30.576 135.52 29.834 135.05C38.6 130.733 46.017 128.902 56.667 129.951C62.2749 130.531 67.7599 131.952 72.932 134.165V134.165ZM5.96098 156.503C11.8146 147.715 19.7477 140.459 29.078 135.36C52.328 150.262 51.365 149.766 51.556 149.577C51.669 149.5 70.356 136.658 73.608 134.519C80.3889 137.594 86.4333 142.046 91.345 147.584C92.837 149.263 94.222 150.995 95.607 152.778C95.6503 152.849 95.7181 152.902 95.7979 152.928C95.8777 152.954 95.9643 152.951 96.0418 152.919C96.1193 152.887 96.1825 152.829 96.22 152.754C96.2575 152.68 96.2667 152.596 96.246 152.515C94.646 146.273 93.21 140.029 91.452 133.838H114.984C117.54 140.183 120.962 149.795 122.084 156.503H5.96098Z"></path></g></g></g></svg>