<svg xmlns="http://www.w3.org/2000/svg" fill="none" viewBox="0 0 200 200" height="400" width="400"><g id="go-to-market-strategy-1--business-go-to-market-strategy-1"><g id="color"><g id="group"><path id="vector" fill="#000000" d="M91.232 80.1511L84.322 83.2431C83.879 83.4431 84.263 84.0921 84.703 83.8951L89.732 81.6451C85.24 85.9341 79.039 90.1171 72.932 91.1151C66.511 92.0091 57.809 89.1671 52.032 82.6271C51.711 82.2611 51.178 82.7971 51.498 83.1621C58.227 90.7501 68.685 93.5571 76.055 91.1401C81.3851 89.1927 86.2445 86.143 90.316 82.1901L88.074 87.3271C87.881 87.7681 88.532 88.1541 88.726 87.7091L91.793 80.6841C91.96 80.3001 91.705 79.9401 91.232 80.1511Z"></path><path id="vector_2" fill="#000000" d="M138.257 24.2161L135.208 17.0851C135.017 16.6391 134.366 17.0241 134.555 17.4671L136.839 22.8071C132.239 18.3161 125.727 13.8161 119.425 12.8381C112.771 11.9381 103.852 14.9381 97.98 21.7291C97.664 22.0961 98.196 22.6291 98.514 22.2631C102.538 17.6058 108.104 14.553 114.194 13.6631C116.952 13.1899 119.785 13.4259 122.427 14.3491C127.625 16.3051 132.34 19.3577 136.252 23.2991L131.184 20.9851C130.745 20.7851 130.36 21.4351 130.802 21.6371L137.694 24.7851C138.292 25.0541 138.414 24.5821 138.257 24.2161Z"></path><path id="vector_3" fill="#000000" d="M87.815 125.921C87.073 120.284 78.43 118.113 73.496 126.421C71.796 129.279 71.615 130.521 66.44 143.664C72.207 138.957 77.582 138.976 85.023 138.141L86.029 134.892C85.4082 135.141 84.7299 135.21 84.0717 135.092C83.4134 134.973 82.8017 134.672 82.3063 134.223C81.811 133.774 81.4519 133.194 81.2701 132.55C81.0883 131.907 81.0911 131.225 81.2781 130.583C81.4652 129.941 81.829 129.364 82.3281 128.919C82.8271 128.474 83.4413 128.178 84.1005 128.065C84.7597 127.952 85.4373 128.027 86.0561 128.281C86.6749 128.534 87.2099 128.957 87.6 129.5C87.8916 128.33 87.9645 127.117 87.815 125.921V125.921Z"></path><path id="vector_4" fill="#000000" d="M136.726 146.708C135.726 143.729 135.416 142.692 135.233 142.308C135.207 142.238 135.162 142.178 135.103 142.133C135.044 142.088 134.973 142.062 134.899 142.056C134.826 142.051 134.752 142.067 134.687 142.103C134.622 142.138 134.568 142.192 134.533 142.257C133.524 143.713 132.517 145.171 131.491 146.614C131.458 146.672 131.441 146.737 131.441 146.803C131.441 146.869 131.459 146.934 131.492 146.991C131.525 147.049 131.572 147.097 131.629 147.13C131.686 147.164 131.751 147.182 131.817 147.183H136.358C136.416 147.183 136.473 147.169 136.525 147.143C136.577 147.118 136.622 147.081 136.657 147.035C136.693 146.989 136.717 146.936 136.729 146.879C136.741 146.823 136.74 146.764 136.726 146.708V146.708Z"></path><path id="vector_5" fill="#000000" d="M88.727 147.077C88.156 145.216 86.962 140.935 86.885 140.671C86.8666 140.608 86.8323 140.551 86.7852 140.505C86.7382 140.459 86.6802 140.426 86.6167 140.409C86.5532 140.393 86.4864 140.392 86.4229 140.409C86.3593 140.426 86.3011 140.458 86.254 140.504C86.254 140.504 82.37 144.725 82.201 144.904C82.1555 144.951 82.123 145.01 82.1065 145.073C82.09 145.136 82.0901 145.203 82.1067 145.266C82.1234 145.33 82.1561 145.388 82.2017 145.435C82.2473 145.482 82.3042 145.516 82.367 145.535C88.284 147.425 88.423 147.818 88.658 147.4C88.696 147.357 88.7223 147.304 88.7343 147.248C88.7464 147.191 88.7439 147.132 88.727 147.077Z"></path><path id="vector_6" fill="#000000" d="M80.289 145.594C80.243 145.564 74.209 143.97 74.156 143.956C74.0917 143.94 74.0242 143.94 73.9602 143.958C73.8962 143.975 73.8378 144.009 73.7909 144.056C73.744 144.103 73.7101 144.161 73.6926 144.225C73.675 144.289 73.6745 144.357 73.691 144.421C74.305 146.287 75.71 150.549 75.791 150.821C75.82 150.918 75.8859 150.999 75.9744 151.048C76.0629 151.096 76.167 151.108 76.264 151.08C76.42 151.034 76.116 151.356 80.407 146.207C80.6 145.9 80.48 145.67 80.289 145.594Z"></path><path id="vector_7" fill="#000000" d="M190.565 69.9459C189.642 69.2644 188.552 68.8448 187.41 68.7315C186.268 68.6181 185.116 68.8152 184.077 69.3019C184.748 67.9598 185.084 66.4753 185.056 64.9752C185.029 63.475 184.639 62.0038 183.92 60.6869C181.573 56.6969 176.62 55.6499 173.281 58.3809C174.354 53.9809 173.362 49.2339 168.716 48.2239C167.006 47.8653 165.226 48.0719 163.644 48.8126C162.062 49.5533 160.763 50.7881 159.944 52.3309C158.908 55.0438 158.531 57.9639 158.844 60.8509C159.122 63.9709 160.104 66.4669 163.153 68.0309C164.568 68.766 166.193 68.9893 167.753 68.6629C167.435 71.1949 167.812 73.8569 169.71 75.7149C171.118 77.0427 172.929 77.8637 174.855 78.0482C176.782 78.2327 178.715 77.7703 180.35 76.7339C179.827 79.0879 179.577 81.8089 181.515 83.5579C183.633 85.4699 186.777 85.1409 189.115 83.5919C193.977 80.3669 195.137 73.4659 190.565 69.9459ZM167.228 55.6999C166.128 58.5339 162.669 58.7429 161.878 56.9449C161.876 56.9111 161.863 56.879 161.84 56.8539C161.387 55.6639 162.257 54.3709 163.151 53.6539C165.587 51.6909 168.027 53.6499 167.228 55.6999Z"></path><path id="vector_8" fill="#000000" d="M97.005 36.515L94.574 32.984C94.3 32.584 93.645 32.963 93.922 33.365L96.353 36.9C96.627 37.294 97.282 36.917 97.005 36.515Z"></path><path id="vector_9" fill="#000000" d="M97.84 36.7061C97.84 36.8064 97.8798 36.9025 97.9507 36.9734C98.0216 37.0443 98.1177 37.0841 98.218 37.0841C98.3182 37.0841 98.4144 37.0443 98.4853 36.9734C98.5561 36.9025 98.596 36.8064 98.596 36.7061V29.6431C98.596 29.5429 98.5561 29.4467 98.4853 29.3759C98.4144 29.305 98.3182 29.2651 98.218 29.2651C98.1177 29.2651 98.0216 29.305 97.9507 29.3759C97.8798 29.4467 97.84 29.5429 97.84 29.6431C97.808 31.5191 97.81 34.9731 97.84 36.7061Z"></path><path id="vector_10" fill="#000000" d="M101.592 33.0502L99.405 36.5152C99.145 36.9272 99.799 37.3072 100.058 36.8962L102.244 33.4322C102.505 33.0192 101.851 32.6402 101.592 33.0502Z"></path><path id="vector_11" fill="#000000" d="M96.353 70.3841L93.922 73.9151C93.645 74.3151 94.3 74.6951 94.574 74.2971L97.005 70.7651C97.282 70.3641 96.627 69.9861 96.353 70.3841Z"></path><path id="vector_12" fill="#000000" d="M97.84 70.575V77.637C97.84 77.7373 97.8798 77.8334 97.9507 77.9043C98.0216 77.9752 98.1177 78.015 98.218 78.015C98.3182 78.015 98.4144 77.9752 98.4853 77.9043C98.5561 77.8334 98.596 77.7373 98.596 77.637V70.575C98.596 70.4748 98.5561 70.3786 98.4853 70.3077C98.4144 70.2369 98.3182 70.197 98.218 70.197C98.1177 70.197 98.0216 70.2369 97.9507 70.3077C97.8798 70.3786 97.84 70.4748 97.84 70.575Z"></path><path id="vector_13" fill="#000000" d="M99.405 70.7652L101.592 74.2302C101.851 74.6402 102.505 74.2622 102.244 73.8492L100.058 70.3842C99.8 69.9742 99.145 70.3532 99.405 70.7652Z"></path><path id="vector_14" fill="#000000" d="M70.406 56.2911C70.0541 55.9277 69.6305 55.6415 69.1621 55.4506C68.6936 55.2597 68.1906 55.1682 67.685 55.1821C71.297 52.4071 70.92 47.3681 64.97 47.4531C65.7403 46.567 66.2281 45.4709 66.3706 44.3055C66.5132 43.1401 66.304 41.9587 65.77 40.9131C64.087 37.7131 59.53 36.1961 55.67 39.5571C54.546 40.5258 53.7126 41.7871 53.2622 43.2009C52.8119 44.6148 52.7623 46.1258 53.119 47.5661C58.902 49.6531 62.242 55.3781 61.108 62.2821C63.782 64.2571 66.831 63.7141 69.263 61.4151C70.744 60.1891 71.672 57.8781 70.406 56.2911ZM59.406 45.7141C59.1531 45.7457 58.8965 45.727 58.6509 45.6588C58.4054 45.5907 58.1757 45.4746 57.9753 45.3171C57.7749 45.1597 57.6077 44.9641 57.4834 44.7416C57.3591 44.5192 57.2801 44.2743 57.251 44.0211C57.2408 43.5837 57.3293 43.1497 57.5099 42.7512C57.6905 42.3528 57.9586 42.0001 58.2942 41.7195C58.6298 41.4389 59.0243 41.2374 59.4484 41.1302C59.8725 41.023 60.3154 41.0127 60.744 41.1001C61.2075 41.1991 61.6148 41.4737 61.8804 41.8662C62.146 42.2588 62.2495 42.739 62.169 43.2061C62.0412 43.8663 61.703 44.4674 61.2052 44.9195C60.7073 45.3716 60.0765 45.6503 59.407 45.7141H59.406Z"></path></g></g><g id="line"><g id="group_2"><path id="vector_15" fill="#000000" d="M91.242 80.1468L84.322 83.2468C83.879 83.4468 84.263 84.0958 84.703 83.8988C86.354 83.1608 88.04 82.4578 89.692 81.7218C85.283 85.9218 78.925 90.1398 72.935 91.1218C66.514 92.0158 57.812 89.1738 52.035 82.6338C51.714 82.2678 51.181 82.8038 51.501 83.1688C58.23 90.7568 68.688 93.5638 76.058 91.1468C81.412 89.2043 86.2849 86.1312 90.345 82.1368L88.077 87.3368C87.884 87.7778 88.535 88.1638 88.729 87.7188L91.788 80.6998C91.969 80.2818 91.688 79.9468 91.242 80.1468Z"></path><path id="vector_16" fill="#000000" d="M138.26 24.2221L135.208 17.0851C135.017 16.6391 134.366 17.0241 134.555 17.4671L136.801 22.7191C132.34 18.3801 125.633 13.8011 119.425 12.8381C112.771 11.9381 103.852 14.9381 97.98 21.7291C97.664 22.0961 98.196 22.6291 98.514 22.2631C102.538 17.6058 108.104 14.553 114.194 13.6631C116.952 13.1899 119.785 13.4259 122.427 14.3491C127.621 16.2622 132.323 19.3103 136.189 23.2711L131.189 20.9851C130.75 20.7851 130.365 21.4351 130.807 21.6371L137.678 24.7751C138.2 25.0121 138.447 24.6591 138.26 24.2221Z"></path><path id="vector_17" fill="#000000" d="M131.82 147.187H136.361C136.411 147.186 136.46 147.176 136.506 147.156C136.553 147.137 136.594 147.108 136.629 147.072C136.664 147.037 136.692 146.994 136.711 146.948C136.729 146.902 136.739 146.852 136.738 146.802C136.738 146.702 136.838 147.057 135.269 142.375C135.237 142.125 134.869 141.855 134.498 142.327C134.149 142.772 133.43 143.896 131.498 146.618C131.465 146.675 131.448 146.74 131.448 146.806C131.448 146.872 131.465 146.936 131.498 146.994C131.53 147.051 131.577 147.099 131.633 147.133C131.69 147.167 131.754 147.185 131.82 147.187V147.187ZM132.543 146.431C133.29 145.374 134.031 144.312 134.766 143.247L135.836 146.431H132.543Z"></path><path id="vector_18" fill="#000000" d="M82.2 144.906C82.1546 144.953 82.122 145.011 82.1055 145.075C82.089 145.138 82.0891 145.205 82.1058 145.268C82.1224 145.331 82.1551 145.389 82.2007 145.437C82.2463 145.484 82.3032 145.518 82.366 145.537C88.283 147.427 88.422 147.82 88.657 147.402C88.6953 147.358 88.7218 147.305 88.7339 147.248C88.746 147.192 88.7433 147.132 88.726 147.077C88.155 145.216 86.961 140.935 86.884 140.671C86.8656 140.608 86.8313 140.551 86.7843 140.505C86.7373 140.459 86.6792 140.426 86.6157 140.409C86.5522 140.392 86.4854 140.392 86.4219 140.409C86.3583 140.425 86.3002 140.458 86.253 140.504C86.253 140.504 82.37 144.725 82.2 144.906ZM86.343 141.521L87.798 146.587L83.138 145L86.343 141.521Z"></path><path id="vector_19" fill="#000000" d="M80.409 146.2C80.599 145.9 80.48 145.668 80.289 145.592C80.243 145.562 74.209 143.968 74.156 143.954C74.0917 143.937 74.0242 143.938 73.9602 143.955C73.8962 143.973 73.8378 144.007 73.7909 144.054C73.744 144.101 73.7101 144.159 73.6926 144.223C73.675 144.287 73.6745 144.355 73.691 144.419C74.305 146.286 75.71 150.547 75.791 150.819C75.82 150.916 75.8859 150.997 75.9744 151.045C76.0629 151.094 76.167 151.106 76.264 151.078C76.422 151.029 76.118 151.351 80.409 146.2ZM74.632 144.862L79.474 146.147L76.304 149.947L74.632 144.862Z"></path><path id="vector_20" fill="#000000" d="M98.217 111.666C97.773 111.847 97.967 112.579 98.417 112.395C100.237 111.653 101.724 110.195 103.625 111.055C103.978 111.285 104.241 111.628 104.371 112.029C104.502 112.429 104.491 112.861 104.342 113.255C103.754 114.809 102.937 115.204 99.62 117.692C99.236 117.981 99.612 118.637 100.002 118.345C103.415 115.784 104.395 115.255 105.044 113.545C105.218 113.077 105.259 112.569 105.163 112.079C105.067 111.589 104.837 111.135 104.499 110.767C102.332 108.922 99.8 111.022 98.217 111.666Z"></path><path id="vector_21" fill="#000000" d="M158.634 134.117C158.534 134.09 159.869 134.104 122.083 134.104C121.7 131.175 116.905 113.993 115.546 108.389C115.292 107.22 114.951 106.071 114.527 104.952C113.917 103.52 112.92 102.285 111.649 101.386C110.377 100.487 108.881 99.9597 107.327 99.8619C104.834 99.8149 104.337 100.078 99.768 100.514C99.4029 99.1307 98.9561 97.7703 98.43 96.4399C98.2701 95.8671 98.0016 95.3303 97.639 94.8589C96.014 93.2149 91.583 93.5689 92.646 97.4309C92.771 98.0979 97.534 127.876 99.112 136.559L85.03 138.137C85.095 137.924 85.776 135.717 86.03 134.887C86.5378 134.685 86.9924 134.37 87.3585 133.964C87.7246 133.559 87.9923 133.074 88.1409 132.548C88.2894 132.023 88.3149 131.47 88.2152 130.933C88.1155 130.395 87.8933 129.888 87.566 129.451C87.8391 128.295 87.9222 127.102 87.812 125.92C87.283 122.251 83.666 120.428 80.291 121.08C75.691 121.97 72.952 126.605 71.33 131.024C70.67 132.719 67.394 141.21 66.43 143.669C62.267 147.024 59.33 153.048 58.665 158.138C58.0939 162.615 58.4718 167.162 59.7742 171.484C61.0765 175.805 63.2741 179.804 66.224 183.22C72.5919 189.992 81.2629 194.137 90.532 194.839C105.364 196.166 117.514 189.182 118.548 174.139C118.754 171.825 118.975 171.431 119.963 164.839C133.178 164.839 132.222 164.924 132.724 164.639C138.546 162.039 144.339 159.192 150.103 156.097C150.146 156.071 150.183 156.036 150.212 155.995C150.241 155.955 150.262 155.909 150.273 155.86C150.285 155.811 150.286 155.761 150.278 155.711C150.27 155.662 150.252 155.614 150.226 155.572C150.055 155.298 151.701 155.393 125.261 155.393C125.409 154.883 125.491 154.356 125.505 153.825H150.62C150.702 153.822 150.781 153.794 150.847 153.744C150.912 153.695 150.96 153.626 150.984 153.547C152.999 148.603 158.332 135.984 158.903 134.586C158.916 134.537 158.92 134.487 158.914 134.437C158.908 134.387 158.891 134.339 158.866 134.295C158.841 134.252 158.808 134.213 158.768 134.183C158.728 134.152 158.683 134.13 158.634 134.117V134.117ZM93.4 97.4069C93.252 96.6189 92.991 95.7069 93.725 95.1259C94.958 94.2839 97.116 94.5969 97.564 96.3119C99.289 100.56 98.864 101.295 99.478 101.298C102.301 101.038 104.903 100.663 106.346 100.598C109.277 100.447 112.076 102.148 112.688 103.792C113.3 105.436 114.047 106.859 113.148 108.315C112.868 108.641 112.485 108.861 112.063 108.938C111.641 109.015 111.205 108.944 110.828 108.738C109.407 107.958 109.134 107.178 106.995 103.532C106.941 103.452 106.859 103.395 106.765 103.374C106.671 103.352 106.572 103.367 106.489 103.416C106.406 103.465 106.344 103.543 106.317 103.636C106.29 103.728 106.299 103.828 106.342 103.914C106.387 103.993 107.342 106.624 107.466 107.1C107.57 107.484 107.595 107.885 107.541 108.279C107.486 108.674 107.352 109.053 107.147 109.394C106.867 109.72 106.484 109.94 106.061 110.017C105.639 110.094 105.203 110.023 104.826 109.817C103.406 109.037 103.133 108.259 100.994 104.611C100.94 104.531 100.858 104.474 100.764 104.453C100.67 104.431 100.571 104.446 100.488 104.495C100.405 104.544 100.343 104.622 100.316 104.715C100.289 104.807 100.298 104.907 100.341 104.993C100.956 106.086 101.59 107.171 102.251 108.236C103.281 110.186 105.565 111.645 107.402 110.224C107.788 109.831 108.068 109.346 108.216 108.815C108.364 108.285 108.376 107.725 108.249 107.189C108.771 108.147 109.568 108.927 110.536 109.43C110.992 109.656 111.503 109.75 112.01 109.699C112.517 109.649 113 109.457 113.403 109.145C113.719 108.838 113.964 108.466 114.122 108.054C114.28 107.643 114.347 107.203 114.319 106.763C114.44 107.204 118.17 121.197 118.874 123.913C118.874 123.913 98.509 123.888 97.714 123.913C96.317 115.105 94.8 104.889 93.4 97.4069ZM86.509 133.731C86.0811 134.09 85.5564 134.313 85.0014 134.374C84.4463 134.434 83.8858 134.329 83.3907 134.071C82.8956 133.813 82.4881 133.414 82.2198 132.924C81.9515 132.434 81.8344 131.876 81.8834 131.32C81.9323 130.764 82.1451 130.235 82.4948 129.799C82.8445 129.364 83.3154 129.042 83.848 128.875C84.3806 128.707 84.9509 128.701 85.4868 128.858C86.0228 129.014 86.5003 129.326 86.859 129.754C87.3379 130.328 87.5703 131.069 87.5055 131.814C87.4406 132.559 87.0839 133.248 86.513 133.731H86.509ZM69.309 138.411C71.995 131.468 72.243 130.597 73.086 128.8C74.339 126.127 76.154 123.524 78.939 122.295C81.51 121.161 84.993 121.676 86.483 124.27C87.1258 125.69 87.2894 127.281 86.949 128.803C86.4903 128.428 85.9454 128.173 85.3634 128.06C84.7815 127.948 84.1808 127.983 83.6156 128.161C83.0503 128.339 82.5383 128.655 82.1258 129.081C81.7132 129.506 81.413 130.028 81.2523 130.598C81.0915 131.168 81.0754 131.77 81.2052 132.348C81.335 132.926 81.6067 133.463 81.9958 133.91C82.3849 134.357 82.8792 134.7 83.4341 134.908C83.9889 135.117 84.5869 135.184 85.174 135.103C84.112 138.532 84.393 137.603 84.21 138.231C77.826 138.982 73.128 138.896 67.59 142.786C67.489 142.854 67.646 142.709 69.309 138.411ZM115.514 182.862C112.353 189.326 105.797 192.97 98.58 193.949C89.1704 195.121 79.6616 192.748 71.906 187.292C68.2545 184.693 65.2273 181.313 63.0441 177.399C60.861 173.484 59.5765 169.133 59.284 164.66C58.854 159.136 59.689 155.325 61.16 152.166C62.7734 148.074 65.7227 144.648 69.529 142.444C72.3581 140.876 75.48 139.908 78.7 139.6L99.548 137.265C99.6057 137.263 99.6623 137.249 99.7137 137.222C99.7651 137.196 99.8099 137.159 99.8449 137.113C99.8799 137.067 99.9042 137.014 99.916 136.957C99.9277 136.9 99.9267 136.842 99.913 136.786C99.1796 132.755 98.489 128.716 97.841 124.671H119.071C119.446 126.134 121.117 132.728 121.341 134.211C121.147 134.411 118.013 143.189 116.122 148.325C115.63 148.996 115.251 149.742 114.998 150.535C113.931 145.871 109.935 145.772 107.665 148.871C106.11 151.044 107.114 151.203 106.308 148.264C106.213 147.747 105.982 147.265 105.639 146.867C105.296 146.469 104.853 146.17 104.356 146C102.173 145.459 100.494 147.019 99.492 149.051C95.701 156.74 94.907 160.944 93.461 168.175C93.4356 168.272 93.4491 168.374 93.4984 168.461C93.5477 168.548 93.629 168.612 93.725 168.64C93.725 168.64 116.98 173.096 117.872 173.256C117.729 176.582 116.927 179.847 115.514 182.862V182.862ZM117.97 172.483L94.27 167.954C95.138 162.198 96.809 156.592 99.234 151.3C100.034 149.587 100.934 147.123 103.027 146.693C103.531 146.554 104.069 146.62 104.524 146.877C104.978 147.134 105.313 147.561 105.454 148.064C105.882 149.365 106.078 150.731 106.033 152.1C106.027 152.557 106.624 152.572 106.775 152.2C107.411 150.64 108.21 148.864 109.723 147.96C110.059 147.741 110.439 147.598 110.837 147.541C111.234 147.485 111.639 147.517 112.023 147.634C112.406 147.751 112.76 147.951 113.058 148.22C113.356 148.489 113.591 148.82 113.747 149.19C114.197 150.156 114.463 151.197 114.53 152.26C114.576 152.65 115.167 152.811 115.272 152.36C115.486 151.044 115.999 149.794 116.772 148.707C118.772 145.975 123.799 147.036 124.604 151.285C124.859 152.604 124.828 153.963 124.514 155.269C124.406 155.658 124.161 155.994 123.823 156.215C123.486 156.436 123.079 156.526 122.68 156.469C121.772 156.233 121.424 154.669 121.238 153.682C121.138 153.24 120.538 153.382 120.496 153.782C119.967 160.054 119.124 166.295 117.97 172.483ZM148.375 156.144C136.775 162.302 132.875 163.619 132.146 164.08C132.083 164.08 120.072 164.08 120.072 164.08C120.683 159.894 120.801 158.411 121.053 155.808C121.183 156.199 121.425 156.544 121.749 156.8C122.073 157.055 122.465 157.21 122.876 157.246C123.287 157.282 123.699 157.196 124.062 157.001C124.425 156.805 124.723 156.507 124.919 156.144H148.375ZM150.375 153.065H125.514C125.466 150.927 125.081 149.097 123.407 147.725C122.575 147.02 121.545 146.59 120.459 146.494C119.373 146.398 118.283 146.64 117.34 147.187C118.353 144.427 121.372 136.157 121.862 134.86H157.977C155.436 141.071 152.947 146.755 150.37 153.065H150.375Z"></path><path id="vector_22" fill="#000000" d="M93.09 169.433C92.7937 170.804 92.5952 172.194 92.496 173.593C88.7731 168.642 83.8063 164.764 78.1 162.354C77.662 162.154 77.276 162.804 77.719 163.007C81.8815 164.741 85.6514 167.296 88.803 170.521C92.558 174.372 92.44 175.288 93.028 174.921C93.0812 174.888 93.1255 174.843 93.1567 174.789C93.188 174.734 93.2053 174.673 93.207 174.611C93.2313 172.936 93.4354 171.268 93.816 169.637C93.931 169.161 93.2 168.958 93.09 169.433Z"></path><path id="vector_23" fill="#000000" d="M104.47 156.511C104.818 155.647 105.252 154.819 105.764 154.041C106.032 153.633 105.377 153.254 105.112 153.66C104.568 154.495 104.109 155.383 103.742 156.31C103.562 156.762 104.291 156.958 104.47 156.511Z"></path><path id="vector_24" fill="#000000" d="M112.181 156.31C112.001 156.762 112.73 156.958 112.909 156.51C113.257 155.646 113.691 154.818 114.204 154.04C114.471 153.632 113.816 153.253 113.551 153.659C113.007 154.495 112.548 155.383 112.181 156.31V156.31Z"></path><path id="vector_25" fill="#000000" d="M160.594 31.478L164.789 29.172C165.215 28.937 164.834 28.284 164.407 28.519L160.213 30.826C159.786 31.06 160.167 31.713 160.594 31.478Z"></path><path id="vector_26" fill="#000000" d="M153.586 53.2809L154.921 56.7309C155.095 57.1799 155.826 56.9849 155.65 56.5309L154.315 53.0799C154.141 52.6309 153.41 52.8269 153.586 53.2809Z"></path><path id="vector_27" fill="#000000" d="M127.98 51.258L124.427 53.758C124.027 54.036 124.409 54.691 124.808 54.411L128.362 51.911C128.756 51.633 128.379 50.977 127.98 51.258Z"></path><path id="vector_28" fill="#000000" d="M132.346 31.047L128.362 29C127.93 28.778 127.547 29.43 127.98 29.652L131.964 31.701C132.4 31.922 132.779 31.27 132.346 31.047Z"></path><path id="vector_29" fill="#000000" d="M180.244 40.3869V43.6759C180.249 43.7726 180.291 43.8638 180.361 43.9305C180.431 43.9972 180.525 44.0345 180.622 44.0345C180.718 44.0345 180.812 43.9972 180.882 43.9305C180.952 43.8638 180.994 43.7726 180.999 43.6759V40.3869C180.994 40.2901 180.952 40.199 180.882 40.1322C180.812 40.0655 180.718 40.0283 180.622 40.0283C180.525 40.0283 180.431 40.0655 180.361 40.1322C180.291 40.199 180.249 40.2901 180.244 40.3869V40.3869Z"></path><path id="vector_30" fill="#000000" d="M161.868 56.9C161.87 56.9155 161.874 56.9309 161.878 56.946C162.678 58.762 166.131 58.517 167.228 55.701C167.418 55.2234 167.425 54.6925 167.246 54.2104C167.068 53.7283 166.718 53.3292 166.263 53.09C164.1 51.956 161.09 54.883 161.84 56.855C161.848 56.8707 161.858 56.8857 161.868 56.9V56.9ZM165.5 53.59C165.679 53.621 165.85 53.6877 166.002 53.7863C166.155 53.8849 166.286 54.0133 166.387 54.1637C166.489 54.3141 166.559 54.4835 166.594 54.6618C166.629 54.84 166.627 55.0234 166.589 55.201C166.081 57.325 163.253 58.036 162.557 56.601C162.091 55.221 164.2 53.278 165.5 53.59Z"></path><path id="vector_31" fill="#000000" d="M190.565 69.946C189.715 69.3105 188.717 68.9026 187.665 68.761C187.665 68.761 183.772 13.93 183.708 10.535C183.764 9.23126 183.344 7.95169 182.526 6.93495C181.739 5.96649 180.629 5.31484 179.4 5.09995C178.648 5.01864 177.892 4.99123 177.136 5.01795C176.202 4.98528 175.267 5.05537 174.348 5.22695C170.561 5.92095 167.923 8.64195 167.818 13.285C164.86 13.785 163.66 13.254 162.718 14.168C162.468 14.4221 162.286 14.7345 162.187 15.077C162.089 15.4194 162.077 15.781 162.154 16.129C162.23 16.4771 162.392 16.8005 162.625 17.0701C162.858 17.3397 163.155 17.5469 163.488 17.673C164.939 18.0728 166.46 18.1411 167.941 17.873C167.915 25.734 168.394 35.997 168.713 48.228C167.004 47.8671 165.224 48.0726 163.642 48.8134C162.06 49.5543 160.762 50.7901 159.945 52.334C158.702 55.655 158.415 59.2582 159.118 62.734C159.118 62.734 152.297 62.918 152.178 62.925C153.85 60.144 151.111 58.076 148.705 59.388C147.566 60.0208 146.519 60.8053 145.591 61.72C145.666 58.835 145.868 57.12 144.845 56.065C144.558 55.733 144.166 55.508 143.735 55.4265C143.303 55.345 142.857 55.4118 142.468 55.616C142.082 55.8961 141.779 56.2765 141.593 56.716C141.038 57.905 140.738 59.197 140.712 60.509C139.91 59.1733 139.02 57.8922 138.048 56.674C137.293 55.806 136.2 54.589 134.932 55.186C134.383 55.4202 133.95 55.8622 133.727 56.4153C133.503 56.9684 133.508 57.5874 133.74 58.137C134.353 59.6422 135.08 61.0984 135.915 62.493C131.676 64.8755 127.702 67.7017 124.06 70.924C121.115 73.534 117.491 76.887 117.924 81.224C118.581 87.794 127.207 92.738 137.175 88.831C142.1 86.9 146.175 83.362 150.08 79.869C150.73 84.181 151.438 89.583 152.172 93.422C152.195 93.5013 152.242 93.5712 152.308 93.6212C152.373 93.6711 152.454 93.6984 152.536 93.699H189.636C189.736 93.6987 189.832 93.6589 189.903 93.5883C189.973 93.5177 190.014 93.4219 190.014 93.322C189.66 90.152 189.314 86.836 189.003 83.657C193.8 80.656 195.258 73.665 190.565 69.946ZM170.286 8.25295C171.68 6.7765 173.592 5.89735 175.62 5.79995C176.477 5.73195 177.345 5.78595 178.203 5.76895C179.402 5.73179 180.572 6.14289 181.484 6.92195C181.812 7.23608 182.093 7.59537 182.319 7.98895C182.272 8.04862 182.246 8.12206 182.245 8.19795C182.238 9.02051 182.165 9.84117 182.026 10.652C181.91 11.429 181.551 12.1494 181 12.71C180.3 13.442 179.235 12.878 178.993 11.897C178.759 10.8184 178.596 9.72576 178.505 8.62595C178.445 8.15995 177.738 8.12595 177.749 8.62595C177.771 9.50483 177.633 10.3804 177.342 11.21C177.147 11.763 176.758 12.95 175.989 12.861C175.157 12.761 174.904 11.697 174.733 11.036C174.512 10.1362 174.398 9.21347 174.393 8.28695C174.393 8.1867 174.353 8.09056 174.282 8.01967C174.211 7.94878 174.115 7.90895 174.015 7.90895C173.915 7.90895 173.819 7.94878 173.748 8.01967C173.677 8.09056 173.637 8.1867 173.637 8.28695C173.698 9.24501 173.615 10.2068 173.389 11.14C172.806 13.367 171.044 13.04 170.545 11.055C170.33 10.1373 170.243 9.19442 170.286 8.25295V8.25295ZM168.694 17.442C168.693 17.3841 168.679 17.3273 168.652 17.2758C168.626 17.2242 168.588 17.1793 168.542 17.1443C168.496 17.1093 168.443 17.0851 168.386 17.0736C168.33 17.0622 168.271 17.0636 168.215 17.078C166.716 17.382 165.166 17.3354 163.688 16.942C163.454 16.8436 163.251 16.6815 163.105 16.4739C162.958 16.2663 162.872 16.0217 162.858 15.7679C162.844 15.5141 162.901 15.2613 163.023 15.0384C163.145 14.8154 163.327 14.6313 163.549 14.507C164.494 14.062 165.433 14.535 168.283 13.965C168.363 13.943 168.433 13.8955 168.483 13.8298C168.533 13.764 168.56 13.6836 168.56 13.601C168.541 12.113 168.877 10.6419 169.538 9.30895C169.555 10.1114 169.692 10.9067 169.943 11.669C170.714 13.827 173.143 14.189 174.021 11.669C174.112 11.411 174.038 11.369 174.139 11.699C174.413 12.59 174.949 13.551 175.993 13.617C177.037 13.683 177.568 12.657 177.909 11.837C178.18 11.186 178.042 11.102 178.178 11.744C178.237 12.1702 178.405 12.5742 178.664 12.9174C178.924 13.2607 179.267 13.5318 179.661 13.705C181.393 14.347 182.475 12.205 182.755 10.856C183.064 9.31395 182.747 7.68895 183.431 20.331H168.7C168.694 19.368 168.688 18.405 168.694 17.442ZM168.711 21.088H183.472C183.736 25.829 186.844 67.959 186.907 68.704C185.93 68.6777 184.96 68.8833 184.077 69.304C184.748 67.9618 185.084 66.4773 185.056 64.9772C185.029 63.477 184.639 62.0058 183.92 60.689C181.575 56.701 176.62 55.651 173.281 58.382C174.26 54.374 173.57 49.845 169.474 48.44C169.467 48.148 168.746 23.925 168.711 21.088V21.088ZM136.619 62.965C136.705 62.9137 136.767 62.8308 136.792 62.7341C136.818 62.6374 136.804 62.5346 136.754 62.448C136.078 61.28 135.448 60.098 134.868 58.879C134.509 58.3079 134.322 57.6455 134.329 56.971C134.424 56.5763 134.671 56.2348 135.015 56.02C135.253 55.8522 135.546 55.7823 135.834 55.8245C136.122 55.8667 136.383 56.018 136.563 56.247C138.25 58.0469 139.684 60.0677 140.826 62.254C140.982 62.579 141.578 62.435 141.526 62.063C141.254 60.1983 141.593 58.2956 142.493 56.64C142.591 56.4909 142.724 56.3678 142.88 56.2815C143.036 56.1951 143.21 56.1479 143.389 56.1441C143.567 56.1403 143.744 56.1798 143.903 56.2594C144.063 56.339 144.201 56.4562 144.305 56.601C145.205 57.533 144.805 59.156 144.805 62.581C144.807 62.6548 144.83 62.7265 144.872 62.7874C144.914 62.8483 144.973 62.8957 145.041 62.924C145.109 62.9522 145.184 62.9601 145.257 62.9466C145.329 62.9331 145.396 62.8988 145.45 62.848C146.464 61.8684 147.569 60.9874 148.75 60.217C149.155 59.8936 149.661 59.7243 150.179 59.7389C150.697 59.7535 151.193 59.9513 151.579 60.297C152.237 60.94 151.863 62.049 151.43 62.707C150.411 64.014 150.57 63.707 143.669 70.107C142.517 69.596 134.607 66.024 132.985 65.143C134.182 64.381 135.4 63.671 136.619 62.965ZM189.219 92.949C189.219 92.949 153.245 92.909 152.852 92.93C152.005 88.43 151.452 83.842 150.718 79.03C150.672 78.73 150.275 78.694 150.086 78.863C143.77 84.528 136.952 90.411 128.178 89.338C121.291 88.497 116.708 82.571 119.472 77.315C120.489 75.5527 121.789 73.9696 123.319 72.629C126.086 70.0268 129.078 67.6743 132.26 65.599C133.988 66.572 142.741 70.505 143.075 70.653L134.885 78.263C134.528 78.594 135.063 79.128 135.419 78.797C151.554 63.833 151.105 64.297 151.619 63.697C152.86 63.677 158.074 63.522 159.314 63.486C159.833 65.2391 160.983 66.7379 162.542 67.6935C164.101 68.649 165.958 68.9937 167.756 68.661C167.515 69.9077 167.567 71.1932 167.906 72.4168C168.246 73.6403 168.864 74.7685 169.713 75.713C171.123 77.037 172.933 77.8554 174.859 78.0399C176.785 78.2243 178.717 77.7643 180.353 76.732C179.83 79.086 179.58 81.807 181.518 83.556C182.461 84.3193 183.614 84.7774 184.823 84.8692C186.033 84.961 187.242 84.6822 188.289 84.07C188.56 86.9 188.9 90.1 189.214 92.949H189.219ZM189.535 82.335C187.674 83.924 184.942 84.822 182.69 83.488C180.025 81.909 180.671 78.518 181.302 76.013C181.377 75.713 181.029 75.386 180.747 75.586C176.761 78.571 170.647 77.566 168.847 72.986C168.348 71.4553 168.255 69.8211 168.579 68.244C168.623 67.982 168.412 67.677 168.114 67.779C166.7 68.1862 165.189 68.1008 163.829 67.5366C162.47 66.9724 161.342 65.963 160.632 64.674C159.166 62.019 159.113 56.153 160.604 52.711C163.022 48.131 169.786 47.357 172.079 51.475C172.668 52.8318 172.955 54.3008 172.918 55.7796C172.882 57.2584 172.524 58.7116 171.869 60.038C171.824 60.1241 171.814 60.2242 171.841 60.3176C171.868 60.411 171.929 60.4904 172.013 60.5394C172.097 60.5885 172.197 60.6033 172.291 60.5809C172.386 60.5584 172.468 60.5004 172.521 60.419C173.267 59.2461 174.393 58.3655 175.711 57.925C177.029 57.4845 178.459 57.511 179.76 58C184.16 59.685 185.833 65.592 182.66 70.294C182.416 70.664 182.943 71.028 183.254 70.752C184.097 70.0089 185.153 69.5498 186.271 69.4396C187.39 69.3294 188.515 69.5737 189.487 70.138C193.94 72.742 193.516 79.064 189.53 82.335H189.535Z"></path><path id="vector_32" fill="#000000" d="M148.06 23.23C148.028 23.1722 147.981 23.1244 147.924 23.0922C147.866 23.0599 147.801 23.0446 147.735 23.0478C147.669 23.051 147.605 23.0727 147.551 23.1104C147.497 23.1482 147.455 23.2003 147.429 23.261C146.092 25.361 132.696 47.571 132.64 47.667C132.608 47.7246 132.591 47.7896 132.591 47.8557C132.591 47.9218 132.609 47.9866 132.642 48.044C132.674 48.1013 132.722 48.1491 132.778 48.1828C132.835 48.2165 132.9 48.2348 132.966 48.236H162.5C162.551 48.2345 162.601 48.2229 162.647 48.2019C162.693 48.1808 162.735 48.1509 162.769 48.1136C162.804 48.0764 162.831 48.0327 162.848 47.985C162.865 47.9374 162.873 47.8867 162.871 47.836C162.867 47.684 148.12 23.33 148.06 23.23ZM147.744 24.168C148.121 24.793 161.325 46.678 161.824 47.48C161.824 47.48 133.824 47.47 133.646 47.464C134.018 46.848 147.645 24.318 147.744 24.168Z"></path><path id="vector_33" fill="#000000" d="M138.552 44.0361C138.527 44.0795 138.511 44.1275 138.505 44.1772C138.499 44.2269 138.502 44.2773 138.516 44.3256C138.529 44.3739 138.552 44.419 138.583 44.4584C138.614 44.4978 138.652 44.5306 138.696 44.5551C138.832 44.6321 137.639 44.9551 156.589 44.6051C156.655 44.6027 156.719 44.5837 156.775 44.5498C156.831 44.5159 156.878 44.4682 156.91 44.4112C156.943 44.3542 156.96 44.2899 156.961 44.2243C156.962 44.1586 156.946 44.0939 156.915 44.0361L148.06 29.3821C147.937 29.1821 147.66 29.0501 147.372 29.4961C146.156 31.4001 138.606 43.9431 138.552 44.0361ZM139.552 43.8491L147.734 30.3001L155.919 43.8461L139.552 43.8491Z"></path><path id="vector_34" fill="#000000" d="M150.884 40.306C150.029 38.963 148.178 35.828 148.06 35.633C148.026 35.5771 147.978 35.531 147.921 35.499C147.863 35.467 147.799 35.4502 147.733 35.4502C147.668 35.4502 147.604 35.467 147.546 35.499C147.489 35.531 147.441 35.5771 147.407 35.633L144.584 40.306C144.559 40.3495 144.543 40.3974 144.537 40.4471C144.531 40.4968 144.535 40.5472 144.548 40.5954C144.562 40.6436 144.584 40.6887 144.615 40.7281C144.646 40.7675 144.684 40.8004 144.728 40.825C144.854 40.896 144.428 40.777 150.557 40.874C150.623 40.8731 150.688 40.8551 150.745 40.8216C150.802 40.7881 150.849 40.7404 150.882 40.6831C150.915 40.6258 150.933 40.5609 150.933 40.4948C150.933 40.4286 150.916 40.3636 150.884 40.306V40.306ZM147.734 36.554L149.888 40.119H145.579L147.734 36.554Z"></path><path id="vector_35" fill="#000000" d="M178.1 15.746C177.579 16.1119 177.083 16.5128 176.616 16.946C175.548 15.9137 174.231 15.1748 172.793 14.801C172.698 14.7803 172.599 14.7966 172.517 14.8467C172.434 14.8967 172.373 14.9767 172.347 15.0701C172.322 15.1635 172.333 15.2631 172.379 15.3485C172.424 15.4339 172.501 15.4985 172.593 15.529C173.996 15.9063 175.273 16.6505 176.293 17.685C176.424 17.823 176.726 17.885 177.037 17.585C177.474 17.1423 177.957 16.7468 178.477 16.405C178.88 16.128 178.5 15.472 178.1 15.746Z"></path><path id="vector_36" fill="#000000" d="M88.415 40.0999C88.3153 40.1017 88.2202 40.1421 88.1497 40.2126C88.0792 40.2831 88.0388 40.3782 88.037 40.4779V64.9679C88.038 65.0678 88.0782 65.1634 88.1488 65.234C88.2195 65.3047 88.3151 65.3449 88.415 65.3459H106.309C106.409 65.3443 106.504 65.304 106.574 65.2334C106.645 65.1628 106.685 65.0676 106.686 64.9679V40.4759C106.685 40.3761 106.645 40.2807 106.574 40.2101C106.504 40.1395 106.409 40.0992 106.309 40.0979L88.415 40.0999ZM105.915 64.5909H88.793C88.793 64.5909 88.819 41.7329 88.793 40.8559H105.928C105.931 50.4169 105.92 64.3999 105.919 64.5889L105.915 64.5909Z"></path><path id="vector_37" fill="#000000" d="M97.005 36.515L94.574 32.984C94.3 32.584 93.645 32.963 93.922 33.365L96.353 36.9C96.627 37.294 97.282 36.917 97.005 36.515Z"></path><path id="vector_38" fill="#000000" d="M97.84 36.7059C97.84 36.8061 97.8799 36.9023 97.9507 36.9732C98.0216 37.0441 98.1178 37.0839 98.218 37.0839C98.3183 37.0839 98.4144 37.0441 98.4853 36.9732C98.5562 36.9023 98.596 36.8061 98.596 36.7059V29.6429C98.596 29.5426 98.5562 29.4465 98.4853 29.3756C98.4144 29.3047 98.3183 29.2649 98.218 29.2649C98.1178 29.2649 98.0216 29.3047 97.9507 29.3756C97.8799 29.4465 97.84 29.5426 97.84 29.6429C97.808 31.5189 97.81 34.9729 97.84 36.7059Z"></path><path id="vector_39" fill="#000000" d="M101.592 33.0499L99.405 36.5149C99.145 36.9269 99.799 37.3069 100.058 36.8959L102.244 33.4319C102.505 33.0189 101.851 32.6399 101.592 33.0499Z"></path><path id="vector_40" fill="#000000" d="M96.353 70.3839L93.922 73.9149C93.645 74.3149 94.3 74.6948 94.574 74.2968L97.005 70.7649C97.282 70.3639 96.627 69.9859 96.353 70.3839Z"></path><path id="vector_41" fill="#000000" d="M97.84 70.575V77.637C97.84 77.7373 97.8798 77.8334 97.9507 77.9043C98.0216 77.9752 98.1177 78.015 98.218 78.015C98.3182 78.015 98.4144 77.9752 98.4853 77.9043C98.5561 77.8334 98.596 77.7373 98.596 77.637V70.575C98.596 70.4748 98.5561 70.3786 98.4853 70.3077C98.4144 70.2369 98.3182 70.197 98.218 70.197C98.1177 70.197 98.0216 70.2369 97.9507 70.3077C97.8798 70.3786 97.84 70.4748 97.84 70.575Z"></path><path id="vector_42" fill="#000000" d="M99.405 70.7649L101.592 74.2299C101.851 74.6399 102.505 74.2619 102.244 73.8489L100.058 70.3839C99.8 69.9739 99.145 70.3529 99.405 70.7649Z"></path><path id="vector_43" fill="#000000" d="M108.088 43.7799V66.7289H90.225C90.1247 66.7289 90.0286 66.7687 89.9577 66.8396C89.8868 66.9105 89.847 67.0066 89.847 67.1069C89.847 67.2071 89.8868 67.3032 89.9577 67.3741C90.0286 67.445 90.1247 67.4849 90.225 67.4849H108.466C108.565 67.4823 108.66 67.4417 108.73 67.3713C108.801 67.301 108.841 67.2063 108.844 67.1069V43.7799C108.844 43.6796 108.804 43.5835 108.733 43.5126C108.662 43.4417 108.566 43.4019 108.466 43.4019C108.366 43.4019 108.27 43.4417 108.199 43.5126C108.128 43.5835 108.088 43.6796 108.088 43.7799V43.7799Z"></path><path id="vector_44" fill="#000000" d="M97.688 49.8729C97.6539 49.8168 97.606 49.7705 97.5488 49.7383C97.4916 49.7061 97.4271 49.6892 97.3615 49.6892C97.2959 49.6892 97.2314 49.7061 97.1742 49.7383C97.117 49.7705 97.069 49.8168 97.035 49.8729C96.21 51.2339 94.327 54.3489 94.212 54.5459C94.1796 54.6034 94.1626 54.6684 94.1629 54.7345C94.1632 54.8005 94.1806 54.8653 94.2135 54.9226C94.2463 54.9799 94.2935 55.0276 94.3504 55.0612C94.4073 55.0947 94.4719 55.1129 94.538 55.1139H100.185C100.236 55.1122 100.286 55.1005 100.332 55.0795C100.378 55.0585 100.42 55.0285 100.454 54.9913C100.489 54.9541 100.516 54.9105 100.533 54.8629C100.551 54.8153 100.559 54.7646 100.557 54.7139C100.549 54.4819 100.375 54.3119 97.688 49.8729ZM97.362 50.7939L99.516 54.3589H95.208L97.362 50.7939Z"></path><path id="vector_45" fill="#000000" d="M60.744 41.1C60.3157 41.0128 59.8732 41.0232 59.4494 41.1304C59.0257 41.2375 58.6315 41.4387 58.296 41.719C57.9606 41.9992 57.6926 42.3514 57.5119 42.7494C57.3311 43.1474 57.2423 43.581 57.252 44.018C57.2784 44.2686 57.3541 44.5114 57.4746 44.7326C57.5952 44.9539 57.7583 45.1491 57.9546 45.3071C58.1508 45.465 58.3764 45.5827 58.6183 45.6532C58.8602 45.7237 59.1136 45.7457 59.364 45.718C60.0414 45.6632 60.6823 45.3882 61.1888 44.935C61.6953 44.4817 62.0396 43.8752 62.169 43.208C62.25 42.7406 62.1469 42.2599 61.8812 41.8669C61.6155 41.4739 61.2079 41.199 60.744 41.1V41.1ZM59.407 44.955C59.1183 45.0113 58.8189 44.9596 58.5658 44.8098C58.3127 44.6599 58.1234 44.4222 58.034 44.142C57.9787 43.8528 57.994 43.5545 58.0786 43.2725C58.1632 42.9905 58.3146 42.733 58.52 42.522C59.214 41.803 61.115 41.295 61.4 42.66C61.4277 43.226 61.2359 43.7808 60.8646 44.2089C60.4934 44.637 59.9712 44.9054 59.407 44.958V44.955Z"></path><path id="vector_46" fill="#000000" d="M70.406 56.291C70.0541 55.9276 69.6305 55.6414 69.1621 55.4505C68.6937 55.2596 68.1907 55.1681 67.685 55.182C68.3205 54.7527 68.8552 54.1906 69.2523 53.5346C69.6494 52.8785 69.8994 52.1441 69.985 51.382C70.153 49.231 68.63 47.404 64.966 47.456C65.7363 46.5699 66.2241 45.4738 66.3666 44.3084C66.5092 43.143 66.3 41.9616 65.766 40.916C63.98 37.522 59.294 36.308 55.666 39.56C54.5433 40.5295 53.7107 41.7906 53.2603 43.204C52.8099 44.6173 52.7593 46.1277 53.114 47.568C52.416 47.308 51.6922 47.1229 50.955 47.016C52.055 41.126 50.186 36.257 45.93 31.801C39.668 25.166 29.997 22.242 21.686 26.578C12.631 31.366 9.23202 41.882 11.566 49.22C11.7046 49.6093 11.8686 49.9891 12.057 50.357C10.5719 53.0676 10.0182 56.191 10.481 59.247C10.7956 61.0312 11.4896 62.7271 12.516 64.22C16.249 75.194 27.816 81.407 39.692 80.64C42.868 80.5255 45.9824 79.7306 48.8248 78.3091C51.6672 76.8875 54.1713 74.8725 56.168 72.4C58.6694 69.5197 60.3717 66.0337 61.105 62.29C63.816 64.268 66.85 63.69 69.256 61.415C70.744 60.189 71.672 57.878 70.406 56.291ZM11.88 41.465C13.327 32.017 21.823 24.453 31.701 25.336C41.647 26.487 49.647 34.919 50.401 41.836C50.853 46 50.18 49.436 46.775 55.043C46.4204 55.6429 46.0237 56.217 45.588 56.761C45.614 56.677 45.641 56.593 45.66 56.506C45.7749 56.1243 45.7851 55.7187 45.6896 55.3317C45.594 54.9447 45.3963 54.5904 45.117 54.306C43.117 52.566 40.141 58.743 32.064 59.215C27.4265 59.2583 22.8518 58.1404 18.757 55.963C13.125 52.838 10.773 48.348 11.88 41.465ZM44.28 62.935C45.2288 62.2238 46.1397 61.4634 47.009 60.657C47.9497 59.739 48.5431 58.5233 48.688 57.217C49.183 57.254 49.434 57.894 49.474 58.348C49.644 61.199 47.298 63.168 45.024 64.897C44.642 65.188 45.018 65.844 45.405 65.55C47.1252 64.4212 48.5623 62.9116 49.605 61.138C50.311 62.229 49.082 64.213 48.305 65.248C43.428 71.7 34.193 73.51 26.209 71.857C23.3824 71.2542 20.6848 70.156 18.241 68.613V56.535C21.8591 58.5011 25.8551 59.6726 29.962 59.971C32.3013 60.1301 34.6479 59.7948 36.849 58.987C38.9979 58.0591 41.0258 56.873 42.888 55.455C43.277 55.183 43.943 54.571 44.465 54.777C44.987 54.983 45.035 55.792 44.951 56.246C44.716 57.518 43.573 58.279 42.54 58.895C42.11 59.152 42.487 59.732 42.922 59.548C44.968 58.7018 46.6324 57.1344 47.6 55.143C48.959 58.621 46.267 60.359 43.754 62.4C43.372 62.707 43.9 63.229 44.284 62.935H44.28ZM12.521 51.11C13.7921 53.0788 15.4612 54.7599 17.421 56.045V68.083C11.664 64.261 9.30002 57.7 12.521 51.11ZM28.742 78.54C25.6164 77.6057 22.7147 76.0422 20.2154 73.9456C17.716 71.849 15.6717 69.2635 14.208 66.348C18.1652 70.1478 23.2943 72.4929 28.757 73C28.757 79.048 28.763 77.982 28.742 78.54ZM60.227 62.871C58.7163 68.7881 54.9262 73.8673 49.684 77C43.727 80.44 36.031 80.639 29.576 78.8V73.078C37.33 73.678 44.71 71.401 49.214 65.286C49.8907 64.3917 50.3501 63.3523 50.556 62.25C50.6041 61.9116 50.5742 61.5666 50.4687 61.2415C50.3631 60.9164 50.1847 60.6196 49.947 60.374C50.522 58.882 50.398 56.647 48.672 56.466C48.6151 55.7441 48.408 55.0422 48.064 54.405C49.3361 52.3516 50.2605 50.1024 50.8 47.748C51.7795 47.8945 52.7344 48.1745 53.638 48.58C59.24 51.028 61.548 57.2 60.227 62.871ZM64.555 62.746C63.3334 62.6839 62.1647 62.2278 61.224 61.446C61.878 55.724 59.318 50.3 54 47.918C53.4095 46.0987 53.5504 44.121 54.3928 42.4037C55.2352 40.6865 56.7129 39.3646 58.513 38.718C59.2413 38.4598 60.0166 38.3615 60.7862 38.4296C61.5559 38.4978 62.3018 38.7309 62.9733 39.113C63.6449 39.4952 64.2262 40.0175 64.6779 40.6444C65.1296 41.2712 65.441 41.988 65.591 42.746C65.7393 43.6443 65.6457 44.5659 65.3201 45.4161C64.9945 46.2663 64.4484 47.0145 63.738 47.584C63.476 47.784 63.698 48.242 64.005 48.229C65.405 48.169 67.113 48.11 68.275 49.029C69.948 50.355 69.583 53.444 66.266 55.229C66.1984 55.2729 66.1465 55.3372 66.1178 55.4125C66.089 55.4879 66.0849 55.5704 66.106 55.6482C66.1271 55.726 66.1724 55.7951 66.2353 55.8456C66.2982 55.896 66.3755 55.9252 66.456 55.929C67.626 55.88 69.068 55.823 69.875 56.818C71.49 58.822 67.953 62.718 64.555 62.746V62.746Z"></path><path id="vector_47" fill="#000000" d="M22.931 49.147H39.215C39.3173 49.1431 39.4139 49.0988 39.4836 49.0238C39.5534 48.9489 39.5905 48.8493 39.587 48.747C39.578 48.497 37.921 45.86 31.399 35.105C31.3649 35.0491 31.317 35.003 31.2599 34.971C31.2028 34.9389 31.1385 34.9221 31.073 34.9221C31.0076 34.9221 30.9432 34.9389 30.8861 34.971C30.829 35.003 30.7811 35.0491 30.747 35.105C29.825 36.627 22.931 48.02 22.605 48.579C22.5729 48.6366 22.5562 48.7015 22.5566 48.7674C22.5571 48.8333 22.5745 48.898 22.6073 48.9552C22.6402 49.0124 22.6872 49.0601 22.7439 49.0937C22.8007 49.1273 22.8651 49.1457 22.931 49.147V49.147ZM23.601 48.391L31.073 36.026L38.545 48.391H23.601Z"></path><path id="vector_48" fill="#000000" d="M9.30598 35.049C11.5718 30.769 14.9127 27.1524 19 24.555C19.41 24.296 19.031 23.641 18.619 23.903C14.4208 26.5673 10.9867 30.2764 8.65298 34.667C8.42598 35.1 9.07698 35.479 9.30598 35.049Z"></path><path id="vector_49" fill="#000000" d="M18.334 21.345C18.744 21.086 18.365 20.431 17.953 20.693C13.1156 23.7555 9.19357 28.0658 6.6 33.17C6.381 33.602 7.032 33.985 7.252 33.551C9.77937 28.5586 13.6082 24.3415 18.334 21.345V21.345Z"></path><path id="vector_50" fill="#000000" d="M44.069 77.5291H40.5C40.4032 77.534 40.3121 77.576 40.2453 77.6462C40.1786 77.7165 40.1414 77.8097 40.1414 77.9066C40.1414 78.0034 40.1786 78.0966 40.2453 78.1669C40.3121 78.2371 40.4032 78.2791 40.5 78.284H44.068C44.1572 78.229 44.2224 78.1423 44.2508 78.0414C44.2791 77.9404 44.2685 77.8325 44.221 77.7391C44.1764 77.6649 44.1255 77.5946 44.069 77.5291V77.5291Z"></path></g></g></g></svg>