<svg xmlns="http://www.w3.org/2000/svg" fill="none" viewBox="0 0 200 200" height="400" width="400"><g id="virtual-meeting-team-1--communication-virtual-meeting-team-1"><g id="color"><g id="group"><path id="vector" fill="#b6dbff" d="M101.3 154.754C102.097 152.762 102.999 150.814 104 148.917C108.725 139.425 116.872 130.977 127.1 127.127C126.739 126.334 118.27 107.706 117.975 107.12C117.853 107.71 118.104 107.53 110.086 107.53C110.863 108.674 111.281 110.023 111.286 111.406C111.246 111.684 111.152 111.952 111.009 112.194C110.865 112.436 110.675 112.648 110.45 112.816C110.244 112.951 110.013 113.042 109.77 113.084C109.528 113.125 109.279 113.117 109.04 113.06C107.79 112.81 107.268 111.502 105.712 109.097C105.918 110.833 106.257 113.033 104.972 114.059C104.722 114.226 104.439 114.335 104.142 114.379C103.844 114.423 103.541 114.4 103.254 114.312C102.967 114.224 102.703 114.074 102.481 113.871C102.259 113.669 102.085 113.419 101.972 113.141C101.583 112.222 101.272 111.272 101.042 110.301C100.962 111.976 100.803 114.178 99.264 114.525C98.7476 114.649 98.2032 114.574 97.7398 114.315C97.2763 114.055 96.9278 113.63 96.764 113.125C96.288 111.639 96.422 109.607 96.264 107.532H75.373C75.587 107.992 81.16 120.232 81.602 121.201C81.8636 120.899 82.1828 120.652 82.541 120.474C82.8991 120.297 83.2891 120.193 83.688 120.168C84.417 120.061 85.45 120.031 85.93 120.709C86.739 121.854 85.716 123.251 83.31 123.097C82.985 123.075 82.6658 122.999 82.365 122.874L83.817 126.058C87.4884 126.152 91.0426 127.369 94 129.547C94.013 129.557 94.023 129.569 94.035 129.58L94.053 129.586C95.6454 130.726 96.9228 132.251 97.766 134.019C100.291 139.557 98.376 149.053 96.907 154.95C96.8927 155 96.8673 155.047 96.8327 155.086C96.7981 155.125 96.7551 155.156 96.707 155.176C96.567 155.246 95.43 155.219 101.819 155.219H101.646C101.59 155.217 101.536 155.203 101.486 155.177C101.437 155.151 101.394 155.115 101.361 155.07C101.327 155.025 101.305 154.974 101.294 154.919C101.284 154.864 101.286 154.808 101.3 154.754Z"></path><path id="vector_2" fill="#6596e1" d="M30.469 110.765C30.4363 110.71 30.3899 110.665 30.3343 110.633C30.2787 110.601 30.2159 110.585 30.152 110.585C30.0881 110.585 30.0253 110.601 29.9697 110.633C29.9141 110.665 29.8677 110.71 29.835 110.765C26.687 116.506 6.81901 151.433 5.04701 154.665C5.01547 154.721 4.99903 154.784 4.99927 154.848C4.99951 154.913 5.01644 154.976 5.0484 155.032C5.08036 155.087 5.12624 155.134 5.18157 155.166C5.23689 155.199 5.29976 155.217 5.36401 155.218H46.564C46.6582 155.213 46.7468 155.172 46.8117 155.104C46.8766 155.035 46.9128 154.945 46.9128 154.85C46.9128 154.756 46.8766 154.666 46.8117 154.597C46.7468 154.529 46.6582 154.488 46.564 154.483H5.98901C9.04101 148.93 28.461 114.783 30.123 111.761L50 155.037C50.2 155.467 50.831 155.094 50.634 154.666L30.469 110.765Z"></path><path id="vector_3" fill="#6596e1" d="M69.389 94.424C67.689 98.912 65.927 103.079 63.979 107.224C63.909 107.375 63.737 107.224 64.204 107.524C73.143 107.524 74.757 107.542 74.854 107.512C74.903 107.505 74.95 107.487 74.9917 107.461C75.0334 107.434 75.0689 107.399 75.0958 107.357C75.1227 107.315 75.1404 107.269 75.1477 107.22C75.1549 107.171 75.1517 107.121 75.138 107.073C75.112 106.935 75.574 107.985 69.389 94.424Z"></path><path id="vector_4" fill="#6596e1" d="M17.373 74.9109C18.8229 69.6305 21.2102 64.6537 24.421 60.2179C24.292 60.2179 11.155 60.2079 10.836 60.2179C10.436 60.2319 10.336 60.5249 10.447 60.7709C15.805 72.5179 17.078 75.3709 17.312 75.8169C17.2927 75.5136 17.3132 75.209 17.373 74.9109V74.9109Z"></path><path id="vector_5" fill="#000000" d="M63.884 107.321C63.684 107.473 64.232 107.405 54.379 107.444L69.505 114.544C69.774 114.671 70.151 114.459 70.045 114.129C69.063 111.085 66.594 109.049 63.884 107.321Z"></path><path id="vector_6" fill="#000000" d="M48.142 47.836C48.3526 48.0262 48.6001 48.1709 48.8692 48.2611C49.1383 48.3512 49.4231 48.3847 49.7058 48.3597C49.9884 48.3346 50.2629 48.2515 50.5119 48.1154C50.761 47.9793 50.9792 47.7933 51.153 47.569C51.4619 47.2034 51.664 46.7596 51.7368 46.2866C51.8097 45.8135 51.7506 45.3296 51.566 44.888C51.2089 44.4142 50.6788 44.1011 50.0915 44.0171C49.5042 43.9331 48.9075 44.0852 48.432 44.44C48.6667 44.9862 48.7631 45.5819 48.7125 46.1743C48.6619 46.7667 48.4659 47.3374 48.142 47.836V47.836Z"></path><path id="vector_7" fill="#b6dbff" d="M25.541 93.331C27.7046 89.0367 30.3739 85.0165 33.492 81.356C32.7418 79.1303 32.2715 76.8199 32.092 74.478C31.9257 72.074 31.909 69.6621 32.042 67.256C32.0448 67.1763 32.0723 67.0994 32.1207 67.036C32.169 66.9726 32.2359 66.9258 32.312 66.902C34.2982 66.2078 36.3722 65.7968 38.473 65.681C41.3643 65.4252 44.2728 65.9198 46.917 67.117C47.339 65.617 47.758 64.108 48.184 62.605C48.2066 62.5282 48.2531 62.4606 48.3168 62.412C48.3804 62.3634 48.4579 62.3365 48.538 62.335H56.414C56.3448 61.6117 56.2062 60.8967 56 60.2C54.868 56.595 51.777 54.379 48.258 52.969C48.547 53.16 48.603 53.527 48.713 53.951C49.113 55.494 48.887 57.703 47.363 57.837C46.9623 57.8764 46.561 57.7667 46.236 57.529C44.809 56.542 45.046 54.6 42.561 52.252C42.5136 52.2018 42.4811 52.1394 42.4671 52.0718C42.4532 52.0042 42.4583 51.934 42.482 51.8691C42.5056 51.8042 42.5469 51.7472 42.6011 51.7045C42.6554 51.6617 42.7204 51.6349 42.789 51.627C42.6339 51.6021 42.4771 51.5901 42.32 51.591C39.5482 51.4876 36.7847 51.9535 34.2 52.96C30.2792 54.3318 26.8681 56.863 24.419 60.218C20.105 65.925 16.931 74.788 17.319 75.835C17.357 75.935 16.946 75.017 25.546 93.872C25.4998 93.7895 25.4751 93.6967 25.4743 93.6022C25.4734 93.5076 25.4963 93.4144 25.541 93.331V93.331Z"></path><path id="vector_8" fill="#000000" d="M50.854 107.392C50.833 107.392 50.812 107.511 50.792 107.511H41.525L56.6 114.545C56.869 114.671 57.246 114.459 57.14 114.13C56.175 111.135 53.786 109.14 51.164 107.442C51.0581 107.465 50.9474 107.447 50.854 107.392V107.392Z"></path><path id="vector_9" fill="#000000" d="M42.358 47.907C42.3212 47.8667 42.2938 47.8187 42.2779 47.7665C42.2619 47.7143 42.2578 47.6592 42.2657 47.6053C42.2736 47.5513 42.2935 47.4997 42.3238 47.4544C42.3541 47.409 42.3942 47.3709 42.441 47.343C44.279 46.318 45.28 44.304 46.961 43.076C47.0116 43.0339 47.075 43.0103 47.1408 43.009C47.2066 43.0078 47.2708 43.0289 47.323 43.069C46.6867 42.5814 45.9148 42.3033 45.1137 42.2732C44.3127 42.2431 43.5221 42.4625 42.851 42.901C42.4375 43.1573 42.0887 43.5055 41.8315 43.9184C41.5743 44.3314 41.4158 44.798 41.3681 45.2822C41.3204 45.7663 41.3849 46.255 41.5566 46.7102C41.7283 47.1653 42.0025 47.5749 42.358 47.907V47.907Z"></path><path id="vector_10" fill="#ffaaaa" d="M46.961 43.0759C45.28 44.3039 44.279 46.3179 42.441 47.3429C42.3942 47.3709 42.3541 47.4089 42.3238 47.4543C42.2935 47.4997 42.2736 47.5512 42.2657 47.6052C42.2578 47.6592 42.2619 47.7143 42.2779 47.7664C42.2938 47.8186 42.3212 47.8666 42.358 47.9069C43.0508 48.6916 44.0247 49.1719 45.069 49.2439C45.6601 49.3035 46.2565 49.2045 46.7966 48.957C47.3368 48.7096 47.8012 48.3226 48.142 47.8359C48.6344 47.0986 48.8292 46.2021 48.6872 45.3269C48.5453 44.4518 48.0772 43.6628 47.377 43.1189C47.3527 43.0884 47.3226 43.0631 47.2885 43.0445C47.2543 43.0258 47.2168 43.0141 47.178 43.0101C47.1393 43.0061 47.1002 43.0099 47.0629 43.0211C47.0256 43.0324 46.991 43.0511 46.961 43.0759V43.0759Z"></path><path id="vector_11" fill="#000000" d="M32.194 37.909C36.077 38.223 38.322 36.789 41.194 42.268C41.2293 42.332 41.2832 42.384 41.3485 42.417C41.4137 42.45 41.4875 42.4626 41.56 42.4531C41.6326 42.4436 41.7006 42.4125 41.7551 42.3637C41.8097 42.315 41.8484 42.251 41.866 42.18C42.2105 40.3177 42.1745 38.4049 41.76 36.557C41.146 33.934 39.635 34.38 38.469 34.065C36.126 33.43 35.426 29.942 32.369 28.828C25.98 26.5 20 36.922 32.194 37.909Z"></path><path id="vector_12" fill="#000000" d="M38.28 44.057C36.5 44.399 35.947 47.439 37.729 48.205C38.1543 48.3815 38.6254 48.4149 39.0713 48.3002C39.5172 48.1855 39.9138 47.9288 40.201 47.569C40.5099 47.2034 40.712 46.7597 40.7849 46.2866C40.8577 45.8136 40.7986 45.3296 40.614 44.888C40.3566 44.5274 39.9949 44.2544 39.5775 44.1058C39.1602 43.9572 38.7073 43.9402 38.28 44.057Z"></path><path id="vector_13" fill="#ffffff" d="M42.556 52.249C45.043 54.599 44.796 56.534 46.231 57.526C46.5563 57.7632 46.9573 57.8728 47.358 57.834C48.885 57.7 49.112 55.5 48.708 53.948C48.427 52.864 48.414 53.007 47.456 52.663C45.9617 52.1138 44.4017 51.7634 42.816 51.621C42.7443 51.6233 42.6748 51.6462 42.6158 51.687C42.5568 51.7279 42.5109 51.7848 42.4834 51.8511C42.456 51.9174 42.4482 51.9902 42.4611 52.0607C42.474 52.1313 42.5069 52.1967 42.556 52.249V52.249Z"></path><path id="vector_14" fill="#000000" d="M12.708 65.079C12.376 65.416 12.895 65.936 13.228 65.599C14.5883 64.0562 15.5618 62.2116 16.068 60.218C16.73 58.144 17.709 54.218 19.603 53.234C19.8954 53.0749 20.2262 53.0001 20.5586 53.0177C20.8911 53.0354 21.2121 53.1449 21.486 53.334C22.458 54.107 21.567 56.022 22.619 57.034C22.9085 57.2858 23.2701 57.4398 23.6522 57.4739C24.0344 57.508 24.4175 57.4205 24.747 57.224C25.4315 56.776 25.9263 56.0908 26.136 55.3C26.945 52.886 26.145 49.751 28.012 48C28.812 47.252 30.532 47.044 31.126 48.168C31.533 48.939 31.24 49.899 31.351 50.728C31.597 52.562 33.451 53.221 34.251 51.768C34.7508 50.4589 34.962 49.0573 34.87 47.659C34.853 47.188 34.118 47.185 34.135 47.659C34.155 48.251 34.069 52.659 32.688 51.713C31.431 50.851 32.68 48.788 31.509 47.432C31.0527 46.9953 30.4641 46.7228 29.8359 46.6572C29.2078 46.5917 28.5756 46.7369 28.039 47.07C26.686 47.858 26.18 49.531 25.99 50.986C25.77 52.67 25.903 54.827 24.931 56.101C24.518 56.643 23.568 57.087 23.05 56.413C22.368 55.526 23.265 53.751 21.9 52.724C21.6206 52.5289 21.3037 52.3938 20.9695 52.3274C20.6352 52.2609 20.2908 52.2646 19.958 52.338C17.237 52.865 16.195 57.531 15.326 60.214C14.8489 62.0193 13.9518 63.6863 12.708 65.079Z"></path><path id="vector_15" fill="#ffaaaa" d="M40.544 70.0909C40.079 70.0369 40.075 69.3009 40.544 69.3559C42.3827 69.5679 44.1944 69.9701 45.95 70.5559C46.202 69.6469 46.85 67.3559 46.916 67.1149C45.7686 66.619 44.577 66.2323 43.357 65.9599C39.6549 65.3317 35.8538 65.6552 32.311 66.8999C32.2349 66.9237 32.168 66.9705 32.1196 67.034C32.0713 67.0974 32.0438 67.1742 32.041 67.2539C31.8504 70.3845 31.9508 73.526 32.341 76.6379C32.6004 78.2382 32.987 79.8152 33.497 81.3539C35.9893 78.4465 38.9878 76.0146 42.347 74.1759C41.4581 73.9269 40.5483 73.7595 39.629 73.6759C39.161 73.6349 39.158 72.8999 39.629 72.9409C40.8525 73.0452 42.0603 73.2881 43.229 73.6649C43.2495 73.6743 43.2693 73.6853 43.288 73.6979C43.9547 73.3793 44.6343 73.0909 45.327 72.8329C45.471 72.3089 45.6153 71.7846 45.76 71.2599C44.0665 70.6908 42.3184 70.2991 40.544 70.0909V70.0909Z"></path><path id="vector_16" fill="#ffaaaa" d="M40.544 70.091C42.3163 70.3015 44.062 70.6953 45.753 71.266L45.953 70.558C44.1974 69.9721 42.3857 69.5699 40.547 69.358C40.075 69.3 40.079 70.037 40.544 70.091Z"></path><path id="vector_17" fill="#000000" d="M69.064 62.8C69.0783 62.7454 69.0799 62.6884 69.0689 62.6331C69.0579 62.5778 69.0344 62.5258 69.0003 62.4809C68.9662 62.436 68.9224 62.3995 68.8721 62.374C68.8218 62.3486 68.7664 62.3349 68.71 62.334H48.537C48.4569 62.3354 48.3794 62.3624 48.3158 62.411C48.2521 62.4595 48.2056 62.5271 48.183 62.604C47.757 64.104 45.464 72.314 45.32 72.838C47.0321 72.1317 48.8622 71.7551 50.714 71.728C53.0433 71.7576 55.3005 72.5394 57.149 73.957L65.277 73.85C65.357 73.8484 65.4345 73.8214 65.4981 73.7728C65.5618 73.7243 65.6083 73.6567 65.631 73.58L69.064 62.8Z"></path><path id="vector_18" fill="#ffaaaa" d="M39.624 72.947C39.153 72.906 39.156 73.641 39.624 73.682C40.5433 73.7655 41.4531 73.9329 42.342 74.182C43.277 73.682 43.35 73.717 43.222 73.675C42.0541 73.2969 40.847 73.0527 39.624 72.947Z"></path><path id="vector_19" fill="#c0c195" d="M50.792 107.511C50.812 107.511 50.833 107.395 50.854 107.392C50.7906 107.356 50.7433 107.297 50.7218 107.227C50.7002 107.157 50.706 107.082 50.738 107.016C53.592 99.924 63.054 81.432 57.752 75.716C57.438 75.377 57.952 74.845 58.272 75.196C63.845 81.2 54.852 99 51.651 106.719C51.464 107.17 51.432 107.387 51.163 107.442C51.263 107.507 50.823 107.458 63.663 107.408C63.7258 107.402 63.7866 107.383 63.8412 107.351C63.8959 107.32 63.9432 107.277 63.98 107.226C68.78 97.009 72.226 86.883 72.87 83.948C73.4477 81.815 73.384 79.559 72.687 77.462C72.0997 76.1073 71.1935 74.9148 70.0456 73.986C68.8978 73.0572 67.5424 72.4198 66.095 72.128L65.632 73.581C65.6093 73.6578 65.5628 73.7253 65.4991 73.7738C65.4355 73.8224 65.358 73.8494 65.278 73.851L57.15 73.958C55.3013 72.5409 53.0442 71.7591 50.715 71.729C48.1237 71.8414 45.5876 72.5138 43.281 73.7C35.592 77.392 30.243 84.64 26.194 92.1C25.475 93.427 25.4 93.47 25.515 93.785C25.554 93.891 25.099 92.893 31.692 107.339C31.81 107.6 30.84 107.58 50.792 107.511Z"></path><path id="vector_20" fill="#c0c195" d="M41.674 83.361C41.991 83.012 41.474 82.49 41.155 82.841C36.4724 88.0008 32.2931 93.5958 28.674 99.55C28.425 99.961 29.074 100.312 29.309 99.921C32.893 94.0192 37.0335 88.4739 41.674 83.361V83.361Z"></path><path id="vector_21" fill="#6596e1" d="M29.719 68.135C25.644 69.88 21.566 71.779 18.208 74.735C17.862 75.035 18.372 75.568 18.728 75.255C22.028 72.346 26.08 70.49 30.09 68.773C30.524 68.584 30.15 67.951 29.719 68.135Z"></path><path id="vector_22" fill="#c0c195" d="M51.163 107.442C51.435 107.386 51.457 107.186 51.651 106.719C53.344 102.636 57.464 94.1189 59.271 86.6189C60.163 82.9189 60.871 77.9949 58.271 75.1959C57.946 74.8459 57.437 75.3769 57.751 75.7159C63.051 81.4329 53.56 100.003 50.737 107.016C50.623 107.3 50.893 107.5 51.163 107.442Z"></path><path id="vector_23" fill="#6596e1" d="M53.4 154.907C53.379 154.788 53.364 154.868 53.975 153.407C57.526 144.933 61.133 137.173 68.605 131.359C63.422 131.896 62.605 124.707 58.93 123.444C58.5589 123.289 58.1594 123.213 57.7572 123.222C57.355 123.23 56.9591 123.323 56.595 123.494C55.633 124.052 55.72 125.279 55.75 126.243C55.941 132.278 57.109 134.778 55.74 137.631C55.3679 138.594 54.6435 139.38 53.7135 139.829C52.7836 140.278 51.7178 140.357 50.732 140.049C48.432 139.317 47.197 137.155 46.142 135.149C45.922 134.73 46.556 134.359 46.776 134.778C47.052 135.302 47.329 135.827 47.634 136.336C50.903 141.783 55.854 139.797 55.655 133.962C55.59 132.026 55.115 130.137 55.007 125.943C54.9242 125.426 54.9643 124.896 55.1239 124.397C55.2836 123.898 55.5583 123.443 55.926 123.07C56.2592 122.826 56.6386 122.653 57.0409 122.561C57.4432 122.469 57.8601 122.46 58.266 122.535C62.121 123.06 62.958 127.686 65.666 129.786C66.3714 130.369 67.2611 130.682 68.1762 130.67C69.0913 130.657 69.972 130.319 70.661 129.717C73.232 127.483 71.142 123.559 72.872 120.389C74.69 117.058 78.663 117.394 79.865 119.751C80.08 120.172 79.446 120.543 79.231 120.122C78.259 118.222 75.146 117.928 73.573 120.642C72.061 123.251 73.555 126.328 72.124 129.015C75.6623 126.939 79.7179 125.911 83.818 126.052L82.366 122.868C81.44 122.481 81.253 121.779 81.603 121.195L75.115 106.973L75.139 107.073C75.1526 107.121 75.1559 107.171 75.1487 107.219C75.1414 107.268 75.1237 107.315 75.0968 107.357C75.0699 107.399 75.0344 107.434 74.9927 107.461C74.951 107.487 74.904 107.505 74.855 107.512C74.66 107.571 71.473 107.524 64.205 107.524C66.789 109.208 69.105 111.2 70.046 114.124C70.152 114.454 69.775 114.666 69.506 114.539L54.38 107.439C53.292 107.439 52.274 107.451 51.186 107.451C53.809 109.16 56.176 111.136 57.14 114.125C57.246 114.454 56.869 114.666 56.6 114.54L41.656 107.518C39.862 107.518 32.069 107.506 32.011 107.506C31.9475 107.515 31.8827 107.504 31.8256 107.475C31.7686 107.446 31.7222 107.399 31.693 107.342C54.6 157.56 53.413 155.007 53.4 154.907Z"></path><path id="vector_24" fill="#ffc431" d="M97.024 154.46C98.3103 149.737 98.965 144.865 98.971 139.97C98.812 135.505 97.63 132.2 94.051 129.586C93.937 129.546 94.251 129.666 94.167 129.962C93.102 133.871 93.743 136.025 93.274 136.471C92.994 136.737 92.712 136.487 92.542 136.255C89.328 131.872 84.096 127.839 78.552 127.265C78.185 127.227 78.041 126.695 78.406 126.565C76.1978 127.055 74.0784 127.883 72.123 129.02C71.778 129.674 71.275 130.23 70.6599 130.64C70.0448 131.05 69.3371 131.299 68.601 131.366C60.692 137.519 57.142 145.819 53.409 154.756C53.3922 154.808 53.3887 154.864 53.3988 154.918C53.409 154.972 53.4324 155.022 53.467 155.065C53.645 155.293 53.176 155.221 63.512 155.221C63.4319 155.22 63.3541 155.194 63.2902 155.145C63.2264 155.097 63.18 155.029 63.158 154.952C62.4844 151.068 62.3013 147.114 62.613 143.184C62.7 141.729 63.1553 140.32 63.936 139.09C64.8851 137.643 66.2621 136.528 67.8751 135.9C69.4881 135.273 71.2567 135.164 72.9343 135.589C74.6119 136.015 76.115 136.953 77.2341 138.273C78.3531 139.594 79.0323 141.23 79.177 142.955C79.2224 144.517 79.0033 146.075 78.529 147.564C83.695 147.671 93.659 148.331 94.663 153.427C94.7687 154.019 94.8166 154.62 94.806 155.221C97.068 155.219 96.8 155.379 97.024 154.46Z"></path><path id="vector_25" fill="#ffffff" d="M82.049 126.057C80.822 126.117 79.6029 126.286 78.406 126.563C78.041 126.695 78.185 127.227 78.552 127.263C84.135 127.841 89.367 131.923 92.542 136.253C92.712 136.485 92.994 136.735 93.274 136.469C93.605 136.155 93.434 134.323 93.591 132.938C93.92 130.038 94.455 129.892 93.998 129.545C90.5421 127.028 86.3165 125.794 82.049 126.057V126.057Z"></path><path id="vector_26" fill="#ae877c" d="M94.663 153.425C93.663 148.34 83.737 147.67 78.529 147.562C79.0033 146.073 79.2224 144.515 79.177 142.953C79.0122 140.851 78.0533 138.89 76.4951 137.469C74.9369 136.048 72.8963 135.273 70.7877 135.302C68.679 135.332 66.6606 136.162 65.1423 137.626C63.6239 139.089 62.7196 141.076 62.613 143.182C62.298 147.112 62.4812 151.066 63.158 154.95C63.18 155.027 63.2264 155.095 63.2903 155.143C63.3541 155.192 63.4319 155.218 63.512 155.219C64.212 155.219 84.064 155.231 84.261 155.228C84.4725 156.244 84.7474 157.246 85.084 158.228C85.1698 158.582 85.3774 158.894 85.6703 159.11C85.9632 159.327 86.3229 159.433 86.6863 159.411C87.0497 159.388 87.3937 159.239 87.658 158.988C87.9223 158.738 88.0901 158.403 88.132 158.041C88.797 159.641 90.778 159.664 91.187 157.541C91.387 156.514 91.154 156.383 91.574 157.535C91.6691 157.886 91.8871 158.19 92.1882 158.393C92.4892 158.597 92.8533 158.685 93.214 158.642C94.812 158.4 94.978 155.024 94.663 153.425Z"></path><path id="vector_27" fill="#000000" d="M92.521 117.805C91.338 117.651 88.697 119.618 88.367 119.945C89.0177 119.504 89.7929 119.285 90.578 119.319C91.3166 119.289 92.037 119.553 92.5819 120.052C93.1269 120.552 93.4522 121.247 93.487 121.985C93.9117 121.554 94.2105 121.015 94.351 120.427C94.4072 120.134 94.4041 119.833 94.342 119.542C94.2799 119.25 94.16 118.974 93.9894 118.73C93.8189 118.485 93.601 118.278 93.3488 118.119C93.0966 117.96 92.8151 117.853 92.521 117.805V117.805Z"></path><path id="vector_28" fill="#ae877c" d="M93.3 121.057C92.481 118.992 89.448 118.811 87.984 120.272C87.6739 120.638 87.4473 121.067 87.3199 121.529C87.1926 121.992 87.1676 122.477 87.2467 122.95C87.3258 123.423 87.5071 123.873 87.778 124.269C88.0488 124.665 88.4027 124.997 88.815 125.242C91.169 126.519 94.34 123.69 93.3 121.057Z"></path><path id="vector_29" fill="#000000" d="M82.365 122.871C82.8843 123.062 83.4389 123.138 83.9904 123.093C84.5419 123.049 85.0771 122.885 85.559 122.613C85.7188 122.521 85.8569 122.396 85.9641 122.246C86.0713 122.096 86.1449 121.925 86.1801 121.744C86.2153 121.563 86.2112 121.377 86.168 121.198C86.1249 121.019 86.0437 120.851 85.93 120.706C85.45 120.028 84.417 120.058 83.688 120.165C81.035 120.557 80.911 122.263 82.365 122.871Z"></path><path id="vector_30" fill="#000000" d="M98.15 121.129C97.1859 120.804 96.1422 120.803 95.177 121.124C93.369 121.79 94.431 123.886 96.177 123.676C97.787 123.483 99.5 121.873 98.15 121.129Z"></path><path id="vector_31" fill="#000000" d="M94.736 117.262C95.5099 118.056 96.0486 119.048 96.292 120.13C96.392 120.592 97.104 120.396 97.001 119.935C96.7606 118.85 96.2543 117.842 95.5275 117.002C94.8008 116.162 93.8766 115.515 92.838 115.121C91.7993 114.727 90.6789 114.597 89.5776 114.743C88.4763 114.889 87.4287 115.307 86.529 115.959C85.5 116.695 84.6965 117.703 84.209 118.87C84.027 119.306 84.738 119.496 84.918 119.065C85.303 118.153 85.9088 117.351 86.6808 116.731C87.4528 116.111 88.3668 115.693 89.3405 115.514C90.3142 115.335 91.3172 115.401 92.259 115.707C93.2008 116.012 94.052 116.546 94.736 117.262V117.262Z"></path><path id="vector_32" fill="#000000" d="M76.457 147.607C74.0428 148.173 71.7842 149.268 69.844 150.812C69.474 151.106 69.997 151.623 70.364 151.332C72.212 149.874 74.3597 148.844 76.653 148.315C77.113 148.208 76.918 147.5 76.457 147.607Z"></path><path id="vector_33" fill="#000000" d="M86.979 150.484C86.679 150.148 86.189 150.642 86.486 150.977C87.0381 151.599 87.3779 152.381 87.456 153.209C87.495 153.644 88.194 153.659 88.156 153.209C88.0553 152.201 87.644 151.248 86.979 150.484V150.484Z"></path><path id="vector_34" fill="#000000" d="M89.3 150.476C89.8414 151.241 90.1802 152.131 90.285 153.062C90.328 153.501 91.026 153.501 90.985 153.062C90.8879 152.005 90.5155 150.992 89.905 150.124C89.646 149.761 89.041 150.109 89.3 150.476Z"></path><path id="vector_35" fill="#000000" d="M73.572 120.645C75.156 117.911 78.272 118.245 79.23 120.125C79.445 120.546 80.079 120.175 79.864 119.754C78.664 117.393 74.693 117.054 72.871 120.392C71.141 123.561 73.241 127.477 70.66 129.72C69.9721 130.324 69.0909 130.663 68.1752 130.676C67.2595 130.689 66.3694 130.374 65.665 129.789C62.954 127.689 62.117 123.063 58.265 122.538C57.8591 122.463 57.4422 122.472 57.0399 122.564C56.6376 122.656 56.2582 122.829 55.925 123.073C55.5563 123.446 55.2804 123.9 55.1197 124.399C54.959 124.898 54.918 125.428 55 125.946C55.111 130.268 55.577 131.879 55.648 133.965C55.848 139.823 50.882 141.765 47.627 136.339C47.327 135.83 47.045 135.305 46.769 134.781C46.549 134.362 45.915 134.733 46.135 135.152C47.19 137.16 48.422 139.322 50.725 140.052C51.7107 140.36 52.7769 140.282 53.707 139.833C54.6372 139.384 55.3615 138.598 55.733 137.634C57.1 134.786 55.933 132.401 55.743 126.246C55.713 125.282 55.626 124.055 56.588 123.497C56.9521 123.326 57.3481 123.233 57.7502 123.225C58.1524 123.216 58.5519 123.292 58.923 123.447C61.197 124.229 62.406 127.315 64.155 129.347C66.896 132.528 70.71 131.67 72.12 129.018C73.559 126.321 72.061 123.251 73.572 120.645Z"></path><path id="vector_36" fill="#000000" d="M194.26 162.527C193.953 167.293 193.982 167.934 193.581 168.9C192.825 170.722 190.756 171.1 190.011 169C189.351 167.14 189.985 165.075 189.241 163.222C188.972 162.445 188.412 161.802 187.68 161.428C187.355 161.236 186.986 161.131 186.609 161.124C186.231 161.117 185.859 161.207 185.526 161.387C185.194 161.566 184.914 161.828 184.713 162.147C184.513 162.467 184.398 162.833 184.38 163.21C184.18 165.328 184.588 168.01 183.886 169.446C183 171.264 181.039 171.214 180.144 169.208C179.815 168.265 179.585 167.29 179.458 166.299C179.1 164.63 178.318 162.78 176.677 162.014C175.957 161.615 175.109 161.516 174.317 161.737C173.524 161.958 172.85 162.482 172.441 163.196C172.043 164.06 171.799 164.986 171.72 165.934C171.52 167.523 171.608 169.136 171.98 170.694C172.088 171.155 172.797 170.96 172.689 170.499C172.188 168.452 172.226 166.31 172.797 164.281C172.878 163.871 173.064 163.488 173.336 163.17C173.608 162.852 173.957 162.61 174.35 162.466C174.724 162.37 175.112 162.349 175.494 162.404C175.876 162.459 176.243 162.59 176.574 162.788C179.254 164.333 178.458 168.23 179.855 170.188C181.025 171.823 182.9 171.951 184.099 170.469C185.245 169.051 185.045 166.969 185.078 164.65C185.088 163.882 184.904 162.683 185.629 162.167C185.914 161.996 186.24 161.906 186.572 161.906C186.903 161.906 187.229 161.996 187.514 162.167C187.857 162.405 188.147 162.712 188.365 163.068C188.583 163.424 188.724 163.821 188.78 164.235C189.18 166.094 188.605 168.181 189.623 169.895C189.817 170.265 190.106 170.577 190.459 170.801C190.812 171.024 191.217 171.151 191.635 171.169C192.053 171.186 192.467 171.093 192.838 170.9C193.208 170.707 193.521 170.419 193.746 170.067C194.825 168.719 194.723 166.788 194.997 162.534C195.026 162.055 194.291 162.057 194.26 162.527Z"></path><path id="vector_37" fill="#ffc431" d="M146.686 161.053C146.222 161.2 145.725 161.208 145.257 161.075C144.789 160.942 144.37 160.675 144.052 160.306C143.7 160.373 143.35 160.443 143.001 160.518C142.692 160.653 142.362 160.735 142.025 160.761C140.928 161.043 139.852 161.404 138.806 161.84C138.631 162.382 138.332 162.875 137.935 163.283C137.635 163.551 137.256 163.713 136.855 163.743C136.454 163.774 136.054 163.672 135.717 163.452C133.103 165.145 130.969 167.643 130.954 170.757C130.955 170.854 130.994 170.947 131.063 171.015C131.131 171.084 131.224 171.123 131.321 171.125H168.149C168.246 171.123 168.339 171.084 168.407 171.015C168.476 170.947 168.515 170.854 168.516 170.757C168.443 169.511 168.096 168.297 167.5 167.2C166.905 166.103 166.074 165.152 165.068 164.413C160.747 160.879 154.217 159.637 148.637 159.823C148.024 160.289 147.371 160.701 146.686 161.053V161.053Z"></path><path id="vector_38" fill="#000000" d="M138.222 164.65C136.822 165.299 135.55 166.194 134.467 167.293C134.134 167.63 134.653 168.15 134.986 167.813C136.027 166.761 137.249 165.904 138.593 165.284C139.022 165.086 138.649 164.452 138.222 164.65Z"></path><path id="vector_39" fill="#000000" d="M125.736 165.535H121.285C121.191 165.54 121.102 165.581 121.037 165.649C120.972 165.717 120.936 165.808 120.936 165.902C120.936 165.997 120.972 166.087 121.037 166.156C121.102 166.224 121.191 166.265 121.285 166.27H125.736C125.83 166.265 125.919 166.224 125.984 166.156C126.049 166.087 126.085 165.997 126.085 165.902C126.085 165.808 126.049 165.717 125.984 165.649C125.919 165.581 125.83 165.54 125.736 165.535Z"></path><path id="vector_40" fill="#000000" d="M126.4 164.024L123.567 161.191C123.497 161.127 123.405 161.092 123.31 161.094C123.215 161.096 123.125 161.134 123.057 161.201C122.99 161.268 122.952 161.359 122.95 161.454C122.948 161.549 122.983 161.641 123.047 161.711L125.88 164.544C125.95 164.608 126.042 164.643 126.137 164.641C126.232 164.639 126.322 164.601 126.39 164.534C126.457 164.466 126.495 164.376 126.497 164.281C126.499 164.186 126.464 164.094 126.4 164.024V164.024Z"></path><path id="vector_41" fill="#000000" d="M125.934 167.725L122.844 170.497C122.491 170.814 123.013 171.332 123.364 171.017L126.454 168.245C126.806 167.928 126.285 167.41 125.934 167.725Z"></path><path id="vector_42" fill="#ffaaaa" d="M109.175 154.754C109.607 153.023 110.192 151.171 110.797 149.47H104.315C104.251 149.469 104.188 149.451 104.133 149.418C104.078 149.385 104.032 149.339 104 149.283C103.968 149.227 103.951 149.164 103.951 149.1C103.951 149.036 103.967 148.973 103.998 148.917C102.996 150.814 102.095 152.762 101.298 154.754C101.284 154.808 101.282 154.866 101.293 154.921C101.304 154.976 101.327 155.028 101.361 155.073C101.395 155.118 101.439 155.154 101.49 155.18C101.54 155.205 101.596 155.218 101.652 155.219H109.532C109.475 155.219 109.42 155.205 109.369 155.18C109.318 155.155 109.274 155.119 109.24 155.074C109.205 155.029 109.181 154.977 109.17 154.921C109.159 154.866 109.161 154.809 109.175 154.754V154.754Z"></path><path id="vector_43" fill="#6596e1" d="M152.981 131.647C151.435 130.537 151.081 129.313 151.011 127.447C149.343 126.639 147.596 126.007 145.797 125.561C145.697 125.561 145.927 125.541 145.997 125.772C146.035 125.836 146.048 125.911 146.033 125.984C146.019 126.057 145.978 126.122 145.918 126.166C145.534 126.452 145.114 126.687 144.67 126.866C143.184 127.551 143.637 127.154 142.96 127.927C142.135 128.779 141.53 129.82 141.198 130.959C143.555 138.626 136.453 140.293 133.141 143.48C131.712 144.899 130.633 146.633 129.992 148.543C129.35 150.452 129.164 152.485 129.446 154.48C129.519 154.996 128.813 155.141 128.74 154.696C128.263 151.665 128.831 148.561 130.351 145.896C131.875 143.225 133.591 142.029 135.979 140.47C138.1 139.084 140.373 137.536 140.839 134.854C141.205 132.754 140.37 130.494 139.422 128.583C138.712 128.722 137.993 128.806 137.27 128.833C136.112 128.872 133.979 128.664 133.616 127.583C133.552 127.272 133.58 126.948 133.697 126.653C133.814 126.358 134.015 126.103 134.275 125.92C134.672 125.566 135.127 125.283 135.62 125.085C135.443 125.063 134.064 125.285 133.963 125.297C120.719 127.417 109.863 137.121 103.995 148.918C103.964 148.974 103.948 149.037 103.948 149.101C103.948 149.165 103.965 149.228 103.997 149.284C104.029 149.34 104.075 149.386 104.13 149.419C104.185 149.452 104.248 149.47 104.312 149.471H110.8C110.194 151.171 109.61 153.024 109.178 154.755C109.164 154.809 109.162 154.866 109.173 154.922C109.184 154.977 109.208 155.029 109.242 155.074C109.276 155.118 109.32 155.155 109.37 155.18C109.42 155.206 109.476 155.219 109.532 155.22H136.026C137.669 151.74 140.95 149.566 144.297 147.664C145.033 146.325 145.701 144.949 146.297 143.542C146.802 144.196 147.266 144.882 147.686 145.594C146.075 146.729 144.811 147.339 144.707 147.439C144.775 147.402 144.852 147.389 144.928 147.401C145.004 147.412 145.074 147.449 145.128 147.504L153.828 156.204C153.865 156.243 153.894 156.289 153.911 156.341C153.929 156.392 153.935 156.446 153.929 156.5C153.923 156.553 153.906 156.605 153.878 156.651C153.85 156.697 153.812 156.737 153.767 156.767C155.551 155.731 157.271 154.588 158.917 153.345C161.94 151.008 164.717 148.045 164.672 144.206C164.625 140.449 163.681 137.329 158.648 132.636C156.831 133.292 155.375 133.366 152.981 131.647Z"></path><path id="vector_44" fill="#6596e1" d="M140.175 128.422C140.4 128.887 140.615 129.364 140.808 129.851C141.9 127.328 143.2 127.709 140.175 128.422Z"></path><path id="vector_45" fill="#ffaaaa" d="M134.278 125.919C134.018 126.102 133.817 126.357 133.7 126.652C133.583 126.948 133.555 127.271 133.619 127.582C133.982 128.663 136.119 128.871 137.273 128.832C137.996 128.805 138.715 128.721 139.425 128.582C139.311 128.35 137.616 125.143 137.498 124.901C137.198 124.921 135.919 125.008 135.623 125.084C135.13 125.282 134.674 125.565 134.278 125.919V125.919Z"></path><path id="vector_46" fill="#ffaaaa" d="M145.189 125.429C144.624 126.153 144.027 126.773 143.458 127.385C144.323 127.077 145.15 126.669 145.921 126.169C145.981 126.125 146.022 126.06 146.036 125.987C146.051 125.914 146.038 125.839 146 125.775C145.919 125.518 145.6 125.519 145.189 125.429Z"></path><path id="vector_47" fill="#ffaaaa" d="M140.175 128.422C140.807 128.273 141.428 128.094 142.042 127.893C142.881 126.862 143.669 126.142 144.389 125.269C142.381 124.908 140.339 124.771 138.301 124.86C138.766 125.77 139.572 127.176 140.175 128.422Z"></path><path id="vector_48" fill="#000000" d="M171.488 134.288C171.107 130.495 169.722 129.04 167.133 128.07C162.31 126.261 160.461 128.049 158.985 125.77C158.229 124.6 158.036 123.155 157.236 121.204C155.149 116.117 152.413 116.244 149.163 115.304C147.107 114.704 146.07 113.66 144.504 112.858C141.228 111.179 138.669 112.977 137.862 116.341C137.07 119.641 138.521 121.462 141.74 121.788C144.434 122.06 146.767 120.655 149.14 122.427C152.74 125.118 149.225 128.955 152.985 131.654C157.14 134.637 158.645 131.954 160.948 132.154C161.767 132.238 162.52 132.638 163.048 133.27C164.304 134.77 163.415 136.951 164.03 138.67C165.28 142.171 172.33 142.654 171.488 134.288ZM144.133 118.576C143.033 121.009 139.033 119.818 139.277 117.214C139.783 113 146.043 114.371 144.133 118.576V118.576Z"></path><path id="vector_49" fill="#ffaaaa" d="M153.825 156.207C144.402 146.784 145.1 147.307 144.676 147.446C140.956 149.538 137.803 151.546 136.016 155.234C135.35 156.839 134.855 158.509 134.54 160.218C134.076 163.664 137.04 164.67 138.303 162.851C138.728 162.239 138.784 161.879 139.643 159.324C139.694 159.568 139.799 159.799 139.948 159.999C140.098 160.198 140.29 160.363 140.51 160.481C141.055 160.75 141.67 160.838 142.268 160.734C142.867 160.63 143.416 160.339 143.838 159.902C144.096 160.403 144.525 160.795 145.048 161.007C145.571 161.218 146.152 161.234 146.686 161.053C147.371 160.701 148.024 160.289 148.637 159.823C150.104 158.847 153.603 156.923 153.764 156.77C153.809 156.74 153.847 156.701 153.875 156.654C153.903 156.608 153.92 156.556 153.926 156.503C153.932 156.449 153.926 156.395 153.908 156.344C153.891 156.293 153.862 156.246 153.825 156.207V156.207Z"></path><path id="vector_50" fill="#6596e1" d="M119.362 133.375C115.253 135.082 113.501 138.628 114.097 141.799C113.025 143.529 112.13 145.362 111.424 147.271C111.273 147.72 111.983 147.913 112.133 147.471C112.835 145.585 113.729 143.775 114.8 142.071C114.831 142.028 114.85 141.978 114.855 141.925C114.861 141.873 114.853 141.82 114.833 141.771C114.199 138.946 115.816 135.649 119.557 134.095C119.988 133.905 119.8 133.194 119.362 133.375Z"></path><path id="vector_51" fill="#6596e1" d="M125.554 134.533C123.929 135.056 122.544 136.141 121.646 137.593C120.748 139.045 120.397 140.768 120.654 142.456C120.667 142.502 120.689 142.546 120.719 142.584C120.749 142.622 120.786 142.653 120.828 142.677C120.871 142.701 120.917 142.716 120.965 142.721C121.013 142.727 121.062 142.723 121.108 142.71C121.154 142.697 121.198 142.675 121.236 142.645C121.274 142.615 121.305 142.578 121.329 142.535C121.353 142.493 121.368 142.447 121.373 142.399C121.379 142.351 121.375 142.302 121.362 142.256C121.169 140.759 121.501 139.242 122.3 137.963C123.1 136.683 124.318 135.72 125.748 135.238C126.2 135.093 126.005 134.383 125.554 134.533Z"></path><path id="vector_52" fill="#ffaaaa" d="M141.374 114.713C140.8 114.846 140.286 115.162 139.907 115.613C139.528 116.063 139.306 116.625 139.274 117.213C138.995 119.813 143.025 121.013 144.13 118.575C145.247 116.123 143.491 114.282 141.374 114.713Z"></path><path id="vector_53" fill="#6596e1" d="M162.883 146.653V143.9C162.878 143.806 162.837 143.717 162.769 143.652C162.7 143.587 162.61 143.551 162.516 143.551C162.421 143.551 162.331 143.587 162.262 143.652C162.194 143.717 162.153 143.806 162.148 143.9V146.657C162.153 146.751 162.195 146.84 162.263 146.904C162.332 146.969 162.423 147.004 162.517 147.004C162.612 147.003 162.702 146.967 162.77 146.901C162.838 146.836 162.879 146.747 162.883 146.653V146.653Z"></path><path id="vector_54" fill="#ffaaaa" d="M141.68 152.256C140.732 153.137 140.029 154.248 139.637 155.481C139.457 155.918 140.168 156.108 140.346 155.676C140.703 154.565 141.342 153.566 142.2 152.776C142.571 152.483 142.048 151.966 141.68 152.256Z"></path><path id="vector_55" fill="#ffaaaa" d="M145.719 154.358C144.865 155.114 144.232 156.086 143.887 157.173C143.742 157.624 144.452 157.818 144.596 157.368C144.907 156.404 145.475 155.544 146.238 154.878C146.594 154.565 146.073 154.046 145.719 154.358Z"></path><path id="vector_56" fill="#000000" d="M140.842 134.853C140.151 138.823 135.634 140.196 132.828 142.775C131.225 144.278 130.015 146.151 129.303 148.23C128.591 150.308 128.398 152.53 128.743 154.7C128.814 155.128 129.525 155.016 129.449 154.484C129.067 151.823 129.519 149.108 130.744 146.715C132.16 143.994 133.793 142.775 136.204 141.2C138.268 139.853 140.488 138.4 141.321 135.95C141.813 134.318 141.771 132.571 141.201 130.964C142.04 127.527 146.801 125.493 146.791 121.527C146.785 121.083 146.711 120.643 146.573 120.221C146.416 119.778 145.706 119.969 145.865 120.416C146.476 122.138 145.556 123.855 144.389 125.269C143.175 126.741 141.628 127.961 140.808 129.851C139.196 125.779 135.568 121.751 136.981 117.431C137.128 116.98 136.419 116.787 136.272 117.236C134.205 123.558 141.871 128.943 140.842 134.853Z"></path><path id="vector_57" fill="#ffffff" d="M75.634 107.529C75.5777 107.528 75.5223 107.515 75.472 107.489C75.4217 107.464 75.3778 107.428 75.3437 107.383C75.3096 107.338 75.2861 107.286 75.2751 107.231C75.264 107.176 75.2657 107.118 75.28 107.064C77.619 98.531 80.767 89.364 85.415 81.846C88.9531 76.0444 93.4214 70.8642 98.641 66.513L96.109 60.963C95.609 60.997 56.192 60.953 56.192 60.953C56.2936 61.4088 56.3674 61.8703 56.413 62.335H68.713C68.7694 62.3359 68.8248 62.3496 68.8751 62.375C68.9254 62.4005 68.9692 62.437 69.0033 62.4819C69.0374 62.5268 69.0609 62.5789 69.0719 62.6341C69.0829 62.6894 69.0813 62.7465 69.067 62.801L66.097 72.128C67.5444 72.4198 68.8998 73.0572 70.0476 73.986C71.1955 74.9148 72.1017 76.1073 72.689 77.462C74.169 81.286 72.447 85.829 71.083 89.773C70.543 91.332 69.975 92.881 69.392 94.424C69.392 94.424 75.302 107.371 75.376 107.524L75.634 107.529Z"></path><path id="vector_58" fill="#ffe660" d="M56.192 60.9529C56.733 60.9529 95.611 60.9969 96.109 60.9629L98.641 66.5129C98.841 66.3569 99.031 66.1959 99.23 66.0429L96.656 60.3999C96.6241 60.3442 96.5779 60.2979 96.5222 60.266C96.4665 60.234 96.4032 60.2174 96.339 60.2179C94.918 60.2179 56.939 60.2029 55.995 60.1969C56.072 60.4429 56.135 60.6999 56.192 60.9529Z"></path><path id="vector_59" fill="#ffd7d7" d="M127.43 75.8999C127.267 76.2203 127.176 76.5722 127.164 76.9313C127.151 77.2903 127.217 77.6478 127.356 77.9789C127.664 78.4996 128.062 78.9619 128.53 79.3449C130.437 81.1729 131.413 84.4239 129.758 86.4229C129.667 86.5224 129.569 86.6149 129.464 86.6999C129.367 86.8085 129.256 86.9046 129.135 86.9859C129.107 87.0069 129.084 87.0349 129.056 87.0539C132.516 89.7849 136.138 90.1909 139.004 89.0749C141.566 87.9242 143.798 86.1494 145.496 83.9129C149.623 78.7905 152.664 72.881 154.432 66.5449C154.532 66.5589 158.906 67.1549 159.423 67.1739C162.023 67.2739 163.101 65.2229 161.056 63.7739C159.677 62.9353 158.149 62.3713 156.556 62.1129C157.096 62.0749 157.635 62.0279 158.173 61.9669C159.584 61.8069 160.91 61.7269 161.628 60.9829C161.824 60.8174 161.973 60.6035 162.061 60.3625C162.148 60.1216 162.171 59.8619 162.128 59.6093C162.084 59.3566 161.975 59.1198 161.812 58.9222C161.648 58.7246 161.436 58.5732 161.196 58.4829C160.126 58.0069 155.958 57.8829 154.321 57.8829C155.234 57.3949 156.106 56.8341 156.928 56.2059C158.004 55.3909 159.543 54.1589 158.86 52.6109C158.71 52.311 158.481 52.0578 158.197 51.8789C157.914 51.7 157.586 51.6021 157.251 51.5959C155.478 51.4689 152.51 54.4859 145.621 56.2759C145.027 55.4206 144.355 54.6215 143.615 53.8889C142.824 53.0657 141.904 52.3779 140.89 51.8529C140.667 51.7486 140.425 51.6905 140.179 51.6821C139.932 51.6736 139.687 51.715 139.457 51.8037C139.227 51.8924 139.018 52.0267 138.841 52.1984C138.664 52.3701 138.524 52.5757 138.429 52.8029C138.096 53.7869 138.71 54.8579 139.2 55.6729C139.851 56.7494 140.619 57.751 141.489 58.6599C139.328 63.8095 137.469 69.0804 135.921 74.4459C134.878 73.0553 133.755 71.7261 132.559 70.4649C131.336 72.7589 128.433 73.6159 127.43 75.8999Z"></path><path id="vector_60" fill="#ffd7d7" d="M126.378 65.735C128.386 70.178 125.849 77.076 124.304 81.824C125.512 83.5485 126.905 85.1356 128.458 86.557C130.382 85.326 130.123 82.888 128.932 80.99C127.974 79.464 126.102 78.84 126.452 76.57C126.952 73.32 130.946 72.512 132.009 69.916C129.98 67.8135 127.795 65.8673 125.473 64.094C124.4 63.256 125.638 64.1 126.378 65.735Z"></path><path id="vector_61" fill="#ffaaaa" d="M85.415 81.8459C80.768 89.3669 77.615 98.5289 75.28 107.064C75.2657 107.118 75.264 107.175 75.2751 107.231C75.2861 107.286 75.3096 107.338 75.3437 107.383C75.3778 107.427 75.4217 107.464 75.472 107.489C75.5223 107.515 75.5777 107.528 75.634 107.529C97.813 107.529 96.267 107.59 96.234 107.407C96.214 107.307 96.253 107.434 95.44 106.794C86.74 99.9469 87.426 87.1759 93.24 77.4819C96.1042 72.8175 99.8848 68.7825 104.353 65.6209C105.66 64.7663 107.219 64.3805 108.774 64.5267C110.329 64.6729 111.789 65.3424 112.914 66.4257C114.039 67.509 114.764 68.942 114.969 70.4904C115.174 72.0388 114.847 73.611 114.043 74.9499L105.77 88.6929C106.517 94.2759 108.378 99.9189 109.17 105.537C109.25 106.105 109.113 105.777 110.08 107.53C118.097 107.53 117.714 107.585 117.858 107.403C117.942 107.314 117.939 107.267 117.969 107.12C120.301 95.8589 120.588 95.6359 120.478 95.6509C120.368 95.6659 120.278 95.6719 120.178 95.6709C120.084 95.666 119.995 95.6252 119.93 95.5568C119.865 95.4884 119.829 95.3977 119.829 95.3034C119.829 95.2091 119.865 95.1185 119.93 95.0501C119.995 94.9817 120.084 94.9408 120.178 94.9359C120.344 94.935 120.509 94.9206 120.672 94.8929C121.688 90.6749 122.817 86.4279 124.188 82.1859C127.33 72.4599 130.124 64.4959 120.505 60.9539C120.47 60.9417 120.434 60.9359 120.397 60.9369C121.297 61.3619 122.844 63.4249 123.459 64.4549C124.921 66.9009 123.659 68.8869 122.059 68.4079C119.202 67.5519 121.494 62.1809 111.085 61.0639C110.71 61.0239 110.555 60.4409 110.973 60.3469C110.73 60.3796 110.489 60.4287 110.253 60.4939C100.143 62.7739 90.855 73.0449 85.415 81.8459Z"></path><path id="vector_62" fill="#ffffff" d="M111.086 61.064C113.74 61.349 116.746 62.09 118.659 63.939C120.605 65.821 120.259 67.869 122.059 68.408C123.659 68.887 124.913 66.892 123.459 64.455C122.844 63.425 121.274 61.355 120.397 60.937C119.817 60.7095 119.219 60.5299 118.61 60.4C116.1 59.8624 113.507 59.8426 110.99 60.342L110.976 60.347C110.556 60.441 110.711 61.024 111.086 61.064Z"></path><path id="vector_63" fill="#ffd7d7" d="M122.453 51.8719C122.497 51.9406 122.517 52.022 122.509 52.1032C122.502 52.1844 122.467 52.2607 122.411 52.3199C121.082 53.7529 119.137 52.6959 117.966 52.6109C117.718 52.5929 117.477 52.3049 117.646 52.0619C116.841 53.0999 117.352 55.1139 118.878 56.0039C120.404 56.8939 122.649 56.1249 123.117 54.7119C123.236 54.2196 123.237 53.7063 123.122 53.2132C123.007 52.72 122.778 52.2607 122.453 51.8719V51.8719Z"></path><path id="vector_64" fill="#000000" d="M117.966 52.611C119.229 52.703 121.077 53.759 122.411 52.32C122.475 52.2483 122.51 52.1558 122.51 52.06C122.51 51.9642 122.475 51.8717 122.411 51.8C122.12 51.4352 121.745 51.1453 121.319 50.9546C120.893 50.7638 120.427 50.6776 119.961 50.7033C119.495 50.7289 119.041 50.8656 118.639 51.1019C118.236 51.3383 117.896 51.6674 117.646 52.062C117.475 52.3 117.718 52.593 117.966 52.611Z"></path><path id="vector_65" fill="#000000" d="M123.9 51.6849C123.444 53.6179 125.04 55.6849 126.747 54.5689C127.188 54.2523 127.519 53.8062 127.694 53.2927C127.869 52.7792 127.88 52.2239 127.725 51.7039C127.598 51.2757 127.346 50.8954 127.001 50.6124C126.655 50.3294 126.233 50.1568 125.788 50.1169C125.343 50.1269 124.914 50.2872 124.571 50.5719C124.228 50.8566 123.992 51.2489 123.9 51.6849V51.6849Z"></path><path id="vector_66" fill="#000000" d="M114.91 54.5689C115.35 54.2521 115.681 53.8059 115.856 53.2925C116.031 52.779 116.042 52.2238 115.887 51.7039C115.761 51.2756 115.508 50.8953 115.163 50.6122C114.817 50.3292 114.395 50.1567 113.95 50.1169C113.505 50.127 113.076 50.2874 112.733 50.5721C112.39 50.8567 112.154 51.2489 112.062 51.6849C111.606 53.6179 113.2 55.6889 114.91 54.5689Z"></path><path id="vector_67" fill="#000000" d="M115.73 49.515C116.673 47.864 117.906 45.731 120.04 45.577C122.129 45.426 123.568 47.266 124.011 49.113C124.121 49.573 124.83 49.378 124.72 48.913C123.781 44.998 119.81 43.35 116.902 46.481C116.2 47.295 115.594 48.1868 115.096 49.139C115.046 49.2231 115.032 49.3235 115.056 49.4182C115.08 49.5129 115.141 49.5941 115.225 49.644C115.309 49.6938 115.41 49.7083 115.504 49.6841C115.599 49.6599 115.68 49.5991 115.73 49.515V49.515Z"></path><path id="vector_68" fill="#ffd7d7" d="M109.923 107.243C109.104 105.762 109.242 106.054 109.169 105.537C108.376 99.916 106.516 94.277 105.769 88.693L114.042 74.95C114.846 73.6111 115.173 72.0389 114.968 70.4905C114.763 68.942 114.038 67.509 112.913 66.4257C111.788 65.3424 110.328 64.6729 108.773 64.5268C107.218 64.3806 105.659 64.7663 104.352 65.621C102.837 66.6548 101.412 67.8142 100.091 69.087C94.83 73.987 90.717 80.387 89.364 87.355C88.035 94.198 89.301 101.311 94.564 106.055C96.236 107.564 96.222 107.173 96.251 107.528C96.417 109.521 96.279 111.628 96.751 113.121C96.9148 113.626 97.2633 114.051 97.7268 114.311C98.1902 114.57 98.7346 114.645 99.251 114.521C100.797 114.172 100.951 111.986 101.029 110.297C101.258 111.268 101.569 112.218 101.959 113.137C102.072 113.415 102.246 113.665 102.468 113.867C102.69 114.07 102.954 114.22 103.241 114.308C103.528 114.396 103.831 114.419 104.129 114.375C104.426 114.331 104.709 114.222 104.959 114.055C106.252 113.023 105.906 110.839 105.699 109.093C107.255 111.498 107.778 112.806 109.027 113.056C109.266 113.113 109.515 113.121 109.757 113.079C110 113.038 110.231 112.946 110.437 112.812C110.662 112.644 110.852 112.432 110.996 112.19C111.139 111.948 111.233 111.68 111.273 111.402C111.432 109.964 110.624 108.513 109.923 107.243Z"></path><path id="vector_69" fill="#ffaaaa" d="M134.338 87.6H137.618C137.712 87.5951 137.801 87.5542 137.866 87.4858C137.931 87.4175 137.967 87.3268 137.967 87.2325C137.967 87.1382 137.931 87.0475 137.866 86.9791C137.801 86.9108 137.712 86.8699 137.618 86.865H134.338C134.244 86.8699 134.155 86.9108 134.09 86.9791C134.025 87.0475 133.989 87.1382 133.989 87.2325C133.989 87.3268 134.025 87.4175 134.09 87.4858C134.155 87.5542 134.244 87.5951 134.338 87.6V87.6Z"></path><path id="vector_70" fill="#ffaaaa" d="M91.5 88.051V91.293C91.5049 91.3871 91.5458 91.4758 91.6142 91.5407C91.6825 91.6056 91.7732 91.6418 91.8675 91.6418C91.9618 91.6418 92.0525 91.6056 92.1208 91.5407C92.1892 91.4758 92.2301 91.3871 92.235 91.293V88.051C92.2301 87.9568 92.1892 87.8681 92.1208 87.8032C92.0525 87.7383 91.9618 87.7021 91.8675 87.7021C91.7732 87.7021 91.6825 87.7383 91.6142 87.8032C91.5458 87.8681 91.5049 87.9568 91.5 88.051Z"></path><path id="vector_71" fill="#ffaaaa" d="M100.245 106.269C100.272 106.363 100.334 106.443 100.42 106.49C100.505 106.538 100.605 106.55 100.7 106.523C100.794 106.497 100.873 106.434 100.921 106.349C100.969 106.264 100.981 106.163 100.954 106.069C100.671 105.046 100.215 104.08 99.604 103.213C99.333 102.83 98.696 103.197 98.969 103.584C99.5464 104.398 99.9781 105.307 100.245 106.269V106.269Z"></path><path id="vector_72" fill="#ffaaaa" d="M103.135 102.889C103.725 103.755 104.139 104.729 104.351 105.755C104.451 106.218 105.156 106.022 105.06 105.555C104.833 104.467 104.395 103.433 103.77 102.514C103.506 102.129 102.868 102.5 103.135 102.889Z"></path><path id="vector_73" fill="#ffaaaa" d="M152.486 63.159C151.185 62.1446 149.558 61.6422 147.912 61.747C147.819 60.1795 147.379 58.6522 146.623 57.276C146.394 56.862 145.759 57.232 145.989 57.647C146.752 59.0529 147.17 60.6205 147.207 62.22C147.249 62.42 147.363 62.543 147.563 62.52C149.126 62.3086 150.708 62.7266 151.963 63.682C152.335 63.966 152.859 63.449 152.486 63.159Z"></path><path id="vector_74" fill="#000000" d="M152.507 81.8679C153.885 80.3912 154.852 78.579 155.312 76.6119C155.419 76.1509 154.712 75.9549 154.603 76.4119C154.178 78.2568 153.276 79.9576 151.987 81.3439C151.664 81.6939 152.183 82.2149 152.507 81.8679Z"></path><path id="vector_75" fill="#000000" d="M150.428 87.9C155.258 84.3157 158.522 79.008 159.54 73.08C159.617 72.617 158.908 72.418 158.831 72.88C157.863 78.6224 154.721 83.7715 150.057 87.258C149.68 87.54 150.047 88.179 150.428 87.9Z"></path><path id="vector_76" fill="#000000" d="M150.684 92.952C150.3 93.221 150.667 93.859 151.055 93.587C154.58 91.1017 157.541 87.9 159.744 84.1913C161.946 80.4827 163.341 76.3508 163.836 72.066C163.889 71.597 163.154 71.6 163.101 72.066C162.606 76.2218 161.245 80.2276 159.106 83.8251C156.968 87.4225 154.098 90.5317 150.684 92.952Z"></path><path id="vector_77" fill="#000000" d="M131.763 70.3899C130.763 72.3089 126.926 73.4959 126.452 76.5699C126.102 78.8419 127.974 79.4639 128.932 80.9899C129.38 81.6123 129.671 82.3333 129.781 83.0921C129.891 83.8508 129.817 84.6249 129.565 85.3489C128.916 86.7379 127.254 87.0959 125.999 87.6239C123.949 88.4849 123.636 89.4929 123.848 91.4019C123.954 91.7798 123.955 92.1794 123.851 92.5578C123.747 92.9362 123.542 93.2791 123.258 93.5499C122.443 94.3846 121.342 94.8797 120.176 94.9359C120.082 94.9408 119.993 94.9817 119.928 95.0501C119.863 95.1185 119.827 95.2091 119.827 95.3034C119.827 95.3977 119.863 95.4884 119.928 95.5568C119.993 95.6252 120.082 95.666 120.176 95.6709C120.276 95.6709 120.376 95.6579 120.476 95.6509C121.224 95.5913 121.949 95.3663 122.599 94.9922C123.249 94.6182 123.809 94.1044 124.236 93.4879C125.265 91.8639 123.679 90.0499 125.261 88.8489C126.174 88.1559 127.83 87.8929 129.033 87.0489C131.133 85.5829 130.894 82.6409 129.498 80.5089C129.024 79.834 128.471 79.2177 127.852 78.6729C127.474 78.3047 127.23 77.8195 127.162 77.2958C127.094 76.7722 127.205 76.2409 127.476 75.7879C128.376 73.9359 130.153 73.2389 131.619 71.7139C132.422 70.8842 132.935 69.817 133.082 68.6717C133.229 67.5263 133.001 66.3643 132.433 65.3589C130.782 62.2769 127.414 62.8349 125.726 61.1909C124.894 60.3819 124.363 59.0619 125.138 58.2129C125.457 57.8649 124.938 57.3429 124.619 57.6939C123.459 58.9639 124.21 60.8509 125.357 61.8509C126.82 63.1259 128.943 63.1419 130.511 64.2399C131.423 64.9441 132.052 65.9528 132.281 67.082C132.511 68.2111 132.327 69.3852 131.763 70.3899V70.3899Z"></path></g></g><g id="line"><g id="group_2"><path id="vector_78" fill="#000000" d="M23.889 60.9561C24.065 60.7091 24.242 60.4631 24.425 60.2211C24.325 60.2211 11.025 60.2151 10.84 60.2211C10.44 60.2341 10.34 60.528 10.45 60.774C18.7 78.859 17.216 75.7551 17.269 75.4541C17.328 75.1181 17.407 74.7841 17.493 74.4541C16.998 73.3681 11.87 62.064 11.349 60.954L23.889 60.9561Z"></path><path id="vector_79" fill="#000000" d="M51.569 44.891C51.3933 44.655 51.1726 44.4562 50.9197 44.3059C50.6667 44.1557 50.3865 44.057 50.0952 44.0157C49.804 43.9743 49.5074 43.991 49.2226 44.0649C48.9378 44.1387 48.6705 44.2683 48.436 44.446C48.1741 43.9183 47.7955 43.457 47.3289 43.0973C46.8623 42.7376 46.3199 42.4888 45.7429 42.3698C45.1658 42.2508 44.5693 42.2647 43.9984 42.4104C43.4276 42.5562 42.8974 42.83 42.448 43.211C39.971 45.37 42.155 49.116 45.072 49.247C45.6623 49.3063 46.2577 49.2079 46.7976 48.962C47.3374 48.716 47.8024 48.3313 48.145 47.847C48.3567 48.0356 48.6049 48.1788 48.8741 48.2676C49.1434 48.3564 49.4281 48.389 49.7104 48.3633C49.9928 48.3376 50.2669 48.2542 50.5157 48.1183C50.7646 47.9823 50.9828 47.7967 51.157 47.573C51.466 47.2072 51.6679 46.7633 51.7406 46.29C51.8133 45.8168 51.7539 45.3326 51.569 44.891V44.891ZM46.494 43.415C45.163 44.591 44.178 46.156 42.694 47.147C40.813 44.574 43.834 42.016 46.494 43.415ZM47.263 47.788C46.6972 48.2736 45.9728 48.5348 45.2272 48.5219C44.4816 48.509 43.7667 48.2229 43.218 47.718C44.744 46.684 45.696 45.018 47.132 43.881C47.5924 44.2953 47.8929 44.858 47.981 45.471C48.0315 45.886 47.9936 46.307 47.8699 46.7063C47.7461 47.1056 47.5393 47.4743 47.263 47.788ZM51.039 45.935C50.948 47.626 49.176 48.151 48.506 47.103C48.7276 46.5031 48.7879 45.8555 48.681 45.225C48.9089 44.9782 49.2103 44.8114 49.5405 44.7494C49.8707 44.6874 50.2121 44.7336 50.514 44.881C50.7039 44.9761 50.8578 45.1303 50.9525 45.3204C51.0471 45.5105 51.0775 45.7262 51.039 45.935V45.935Z"></path><path id="vector_80" fill="#000000" d="M38.474 34.068C36.132 33.433 35.423 29.942 32.374 28.831C31.6413 28.5627 30.8596 28.455 30.0817 28.5151C29.3037 28.5752 28.5478 28.8018 27.8651 29.1795C27.1823 29.5572 26.5887 30.0771 26.1244 30.7042C25.6602 31.3313 25.336 32.0508 25.174 32.814C24.643 36.489 29.462 37.689 32.206 37.914C34.039 38.062 36.082 37.626 37.812 38.414C39.329 39.3031 40.5207 40.6553 41.212 42.272C41.2473 42.3361 41.3012 42.388 41.3664 42.421C41.4317 42.4541 41.5055 42.4666 41.578 42.4571C41.6506 42.4476 41.7186 42.4165 41.7731 42.3678C41.8277 42.3191 41.8664 42.255 41.884 42.184C42.2285 40.3217 42.1925 38.409 41.778 36.561C41.151 33.932 39.638 34.383 38.474 34.068ZM41.3 40.95C37.934 35.39 34.858 38.121 29.848 36.762C28.548 36.409 26.979 35.87 26.229 34.662C24.254 31.473 30.348 26.246 34.58 31.398C36.1 33.248 36.745 34.646 39.133 34.916C40.009 35.016 40.51 35.154 40.879 36.148C41.3413 37.704 41.4844 39.3373 41.3 40.95V40.95Z"></path><path id="vector_81" fill="#000000" d="M38.283 44.0601C36.502 44.4031 35.95 47.4421 37.733 48.2091C38.1584 48.3851 38.6295 48.4182 39.0754 48.3034C39.5212 48.1885 39.9177 47.9318 40.205 47.5721C40.5138 47.2064 40.7156 46.7626 40.7883 46.2895C40.861 45.8165 40.8017 45.3326 40.617 44.8911C40.3597 44.5304 39.998 44.2573 39.5806 44.1087C39.1632 43.9601 38.7103 43.9431 38.283 44.0601V44.0601ZM38.653 47.6391C36.553 47.7791 37.165 43.8821 39.562 44.8811C40.571 45.3001 40.055 47.5451 38.653 47.6391Z"></path><path id="vector_82" fill="#000000" d="M12.712 65.082C12.379 65.419 12.899 65.939 13.232 65.602C14.5921 64.059 15.5656 62.2146 16.072 60.221C16.732 58.151 17.713 54.226 19.607 53.238C19.8991 53.0783 20.2298 53.0031 20.5622 53.0208C20.8946 53.0385 21.2155 53.1483 21.489 53.338C22.462 54.111 21.571 56.026 22.623 57.038C22.9125 57.2898 23.2741 57.4438 23.6562 57.4779C24.0384 57.512 24.4215 57.4246 24.751 57.228C25.4361 56.7788 25.9308 56.0921 26.14 55.3C26.949 52.886 26.149 49.751 28.015 48C28.815 47.252 30.536 47.044 31.13 48.168C31.537 48.939 31.244 49.899 31.355 50.728C31.601 52.562 33.455 53.221 34.249 51.768C34.7489 50.4589 34.9601 49.0573 34.868 47.659C34.852 47.188 34.117 47.185 34.133 47.659C34.154 48.251 34.068 52.659 32.687 51.713C31.436 50.855 32.672 48.78 31.508 47.432C31.0517 46.9953 30.4631 46.7228 29.835 46.6572C29.2068 46.5917 28.5746 46.7369 28.038 47.07C26.685 47.858 26.179 49.531 25.989 50.986C25.769 52.668 25.902 54.827 24.93 56.101C24.517 56.643 23.567 57.087 23.048 56.413C22.367 55.526 23.263 53.751 21.899 52.724C21.6194 52.5288 21.3024 52.3938 20.968 52.3273C20.6335 52.2609 20.289 52.2645 19.956 52.338C17.242 52.864 16.205 57.493 15.325 60.214C14.8497 62.0199 13.9543 63.6879 12.712 65.082V65.082Z"></path><path id="vector_83" fill="#000000" d="M72.69 77.465C72.1062 76.1089 71.2012 74.9153 70.0531 73.9871C68.905 73.0588 67.5483 72.4239 66.1 72.137L69.068 62.8C69.082 62.7455 69.0836 62.6885 69.0725 62.6333C69.0613 62.5781 69.0379 62.5261 69.0038 62.4813C68.9698 62.4365 68.926 62.3999 68.8758 62.3744C68.8256 62.3489 68.7703 62.3351 68.714 62.334H56.414C56.372 62.009 56.328 61.64 56.274 61.321C55.9573 59.8261 55.3163 58.4191 54.3962 57.1991C53.476 55.9792 52.2993 54.9762 50.949 54.261C48.4535 52.7522 45.6393 51.8488 42.7318 51.6231C39.8244 51.3973 36.9045 51.8555 34.206 52.961C30.2854 54.3325 26.8745 56.8638 24.426 60.219C20.112 65.926 16.938 74.788 17.326 75.836C17.656 76.736 23.926 90.309 31.7 107.349C31.784 107.532 31.285 107.472 41.433 107.472L56.6 114.548C56.87 114.675 57.247 114.463 57.14 114.133C56.173 111.133 53.823 109.195 51.216 107.472H54.425C54.64 107.566 58.809 109.525 69.506 114.548C69.776 114.674 70.153 114.463 70.046 114.133C69.061 111.076 66.573 109.033 63.887 107.325C66.6388 101.627 69.0412 95.7662 71.081 89.776C72.449 85.831 74.168 81.283 72.69 77.465ZM68.211 63.073L65.374 71.982C62.3658 71.4803 59.277 72.0493 56.645 73.59C54.3247 72.0522 51.5133 71.4376 48.763 71.867C47.8826 72.0163 47.0162 72.239 46.173 72.533C46.973 69.609 48.753 63.308 48.819 63.073H68.211ZM40.548 70.094C42.3202 70.3151 44.0657 70.7141 45.758 71.285C45.526 72.116 45.358 72.702 45.325 72.836C44.675 73.08 44.025 73.351 43.285 73.704C42.1014 73.304 40.8733 73.0507 39.628 72.95C39.157 72.909 39.16 73.644 39.628 73.685C40.5435 73.7671 41.4495 73.9325 42.335 74.179C39.2187 75.8841 36.4148 78.1064 34.043 80.751C32.7937 76.4631 32.3609 71.9787 32.767 67.531C35.9776 66.4402 39.3996 66.1193 42.757 66.594C44.1208 66.8579 45.4505 67.2745 46.721 67.836L45.955 70.577C44.1981 69.9904 42.3867 69.5824 40.548 69.359C40.079 69.3 40.083 70.04 40.548 70.094ZM47.808 53.582C48.584 55.64 48 57.83 46.621 56.911C45.47 56.144 45.821 54.819 43.796 52.487C45.169 52.706 46.5141 53.0732 47.808 53.582V53.582ZM25.844 92.767L18.071 75.718C21.903 72.457 25.487 70.746 30.094 68.773C30.527 68.587 30.153 67.954 29.723 68.138C26.258 69.622 21.214 71.898 18.181 74.764C19.2208 71.0503 20.7417 67.4884 22.705 64.169C25.916 58.669 28.776 56.226 32.889 54.31C35.9114 52.8554 39.25 52.1809 42.6 52.348C45.158 54.874 44.655 56.477 46.234 57.529C47.371 58.287 48.834 57.717 48.887 55.495C48.8988 54.9775 48.8402 54.4607 48.713 53.959C51.3227 54.942 53.4981 56.8204 54.851 59.259C55.3023 60.2307 55.5812 61.2736 55.675 62.341H48.541C48.4609 62.3424 48.3834 62.3694 48.3197 62.418C48.2561 62.4665 48.2096 62.5341 48.187 62.611C48.004 63.257 47.476 65.142 46.922 67.122C45.7726 66.6297 44.5806 66.2435 43.361 65.968C39.6589 65.3389 35.8576 65.6624 32.315 66.908C32.2389 66.9318 32.172 66.9786 32.1236 67.042C32.0753 67.1054 32.0478 67.1823 32.045 67.262C31.5932 72.0183 32.078 76.8171 33.472 81.387C30.4918 84.868 27.9315 88.6876 25.844 92.767V92.767ZM56.112 113.509L43.174 107.472H49.825C52.368 109 54.906 110.8 56.112 113.509ZM69.018 113.509L56.133 107.472H62.71C65.283 109 67.812 110.8 69.018 113.509ZM70.565 89.026C68.5051 95.0408 66.1236 100.941 63.431 106.7H51.66C54.773 99.128 63.886 81.248 58.275 75.2C57.953 74.852 57.434 75.373 57.755 75.72C62.978 81.351 53.838 99.512 50.872 106.702C42.548 106.702 33.294 106.723 32.242 106.789L29.206 100.133C32.8159 94.1563 36.9925 88.5407 41.678 83.364C41.995 83.015 41.478 82.493 41.158 82.844C36.5412 87.932 32.4137 93.4433 28.83 99.305C28.655 98.92 26.079 93.274 26.255 93.659L26.233 93.611L26.247 93.641L26.233 93.611C30.841 84.881 37 76.317 46.418 73.231C48.0383 72.6417 49.7638 72.3971 51.484 72.513C53.2651 72.6776 54.9725 73.3035 56.438 74.329C56.4942 74.3621 56.5583 74.3796 56.6235 74.3796C56.6888 74.3796 56.7528 74.3621 56.809 74.329C63.871 70.5 70.334 73.4 71.981 77.66C73.421 81.379 71.782 85.474 70.565 89.026Z"></path><path id="vector_84" fill="#000000" d="M127.1 127.14C126.737 126.34 118.261 107.687 117.96 107.104C117.843 106.878 117.204 107.135 117.377 107.524L126.417 127.406C126.646 127.315 126.873 127.227 127.1 127.14Z"></path><path id="vector_85" fill="#000000" d="M101.907 154.475H96.528L96.055 155.223H102.083L101.907 154.475Z"></path><path id="vector_86" fill="#000000" d="M194.264 162.53C193.956 167.297 193.986 167.937 193.585 168.903C192.829 170.725 190.76 171.103 190.014 169.003C189.355 167.143 189.988 165.078 189.245 163.225C188.976 162.448 188.416 161.805 187.684 161.431C187.359 161.239 186.99 161.134 186.613 161.127C186.235 161.12 185.863 161.21 185.53 161.39C185.198 161.569 184.918 161.831 184.717 162.151C184.517 162.47 184.402 162.836 184.384 163.213C184.179 165.335 184.594 168.006 183.89 169.449C183.003 171.268 181.043 171.217 180.147 169.211C179.819 168.268 179.589 167.293 179.462 166.302C179.104 164.633 178.322 162.783 176.68 162.017C175.96 161.618 175.113 161.519 174.32 161.74C173.528 161.961 172.854 162.485 172.445 163.199C171.511 165.589 171.349 168.212 171.984 170.699C172.092 171.16 172.801 170.965 172.693 170.499C172.193 168.452 172.229 166.31 172.8 164.281C172.882 163.871 173.067 163.488 173.339 163.171C173.611 162.853 173.96 162.61 174.353 162.466C174.727 162.37 175.116 162.349 175.498 162.404C175.88 162.459 176.247 162.59 176.578 162.788C179.258 164.333 178.462 168.23 179.859 170.188C181.029 171.823 182.904 171.951 184.102 170.469C185.249 169.052 185.049 166.957 185.081 164.65C185.092 163.882 184.908 162.683 185.633 162.168C185.918 161.997 186.244 161.907 186.575 161.907C186.907 161.907 187.233 161.997 187.518 162.168C187.861 162.406 188.151 162.713 188.369 163.069C188.587 163.425 188.728 163.822 188.784 164.236C189.184 166.095 188.609 168.182 189.627 169.896C189.821 170.266 190.109 170.578 190.462 170.802C190.815 171.026 191.221 171.152 191.638 171.17C192.056 171.187 192.471 171.095 192.841 170.901C193.212 170.708 193.525 170.421 193.749 170.068C194.829 168.72 194.727 166.789 195.001 162.535C195.03 162.058 194.294 162.06 194.264 162.53Z"></path><path id="vector_87" fill="#000000" d="M144.86 160.921C144.547 160.786 144.272 160.576 144.06 160.309C142.263 160.637 140.505 161.151 138.814 161.843C138.691 162.2 138.523 162.54 138.314 162.854C140.397 161.913 142.6 161.263 144.86 160.921V160.921Z"></path><path id="vector_88" fill="#000000" d="M166.683 167.25C167.306 168.188 167.68 169.27 167.769 170.393C166.677 170.393 132.093 170.364 131.724 170.373C131.931 167.493 134.144 165.253 136.633 163.745C136.31 163.721 135.998 163.622 135.721 163.455C133.101 165.155 130.972 167.655 130.957 170.755C130.959 170.852 130.998 170.945 131.066 171.013C131.135 171.082 131.228 171.121 131.325 171.123H168.153C168.25 171.121 168.343 171.082 168.411 171.013C168.48 170.945 168.519 170.852 168.52 170.755C168.447 169.509 168.1 168.294 167.504 167.198C166.908 166.101 166.078 165.15 165.072 164.411C160.753 160.878 154.219 159.636 148.64 159.821C148.252 160.079 147.87 160.367 147.472 160.621C154 160.167 163.221 161.9 166.683 167.25Z"></path><path id="vector_89" fill="#000000" d="M134.99 167.816C136.031 166.764 137.253 165.907 138.597 165.287C139.026 165.087 138.653 164.455 138.226 164.652C136.826 165.302 135.554 166.197 134.47 167.296C134.138 167.633 134.657 168.153 134.99 167.816Z"></path><path id="vector_90" fill="#000000" d="M121.288 166.273H125.74C125.834 166.268 125.923 166.227 125.988 166.159C126.053 166.09 126.089 166 126.089 165.905C126.089 165.811 126.053 165.721 125.988 165.652C125.923 165.584 125.834 165.543 125.74 165.538H121.288C121.194 165.543 121.105 165.584 121.04 165.652C120.975 165.721 120.939 165.811 120.939 165.905C120.939 166 120.975 166.09 121.04 166.159C121.105 166.227 121.194 166.268 121.288 166.273V166.273Z"></path><path id="vector_91" fill="#000000" d="M126.4 164.027L123.568 161.194C123.498 161.13 123.406 161.095 123.311 161.097C123.216 161.099 123.126 161.137 123.058 161.204C122.991 161.272 122.953 161.362 122.951 161.457C122.949 161.552 122.984 161.644 123.048 161.714L125.88 164.547C125.95 164.611 126.042 164.646 126.137 164.644C126.232 164.642 126.322 164.604 126.39 164.537C126.457 164.469 126.495 164.379 126.497 164.284C126.499 164.189 126.464 164.097 126.4 164.027V164.027Z"></path><path id="vector_92" fill="#000000" d="M123.368 171.02L126.457 168.248C126.81 167.931 126.289 167.413 125.938 167.728L122.848 170.5C122.5 170.817 123.016 171.335 123.368 171.02Z"></path><path id="vector_93" fill="#000000" d="M143.628 121.024C141.906 121.235 139.64 120.976 138.76 119.558C137.918 118.199 138.583 115.458 139.717 114.126C140.145 113.577 140.743 113.187 141.417 113.015C142.091 112.844 142.803 112.901 143.441 113.179C145.002 113.746 146.251 114.937 147.776 115.586C149.437 116.294 151.297 116.392 152.935 117.155C156.284 118.713 156.883 122.82 157.806 125.055C159.589 129.371 161.959 126.741 167.233 128.893C168.064 129.175 168.805 129.675 169.377 130.341C169.949 131.006 170.333 131.813 170.487 132.677C170.892 134.207 170.952 135.808 170.661 137.364C170.578 138.06 170.282 138.713 169.815 139.236C169.348 139.758 168.731 140.125 168.049 140.285C167.403 140.383 166.743 140.277 166.161 139.981C165.579 139.685 165.104 139.214 164.803 138.634C164.111 137.093 164.933 135.041 163.971 133.32C163.568 132.631 162.961 132.084 162.233 131.755C161.505 131.426 160.694 131.332 159.91 131.486C157.91 131.868 157.149 133.049 154.61 131.756C152.656 130.756 151.895 129.956 151.766 127.784C151.666 126.058 151.845 124.554 150.724 123.006C150.26 122.366 149.661 121.837 148.97 121.454C148.279 121.071 147.512 120.844 146.724 120.79C146.771 121.033 146.795 121.28 146.796 121.528C147.62 121.599 148.41 121.892 149.081 122.376C149.751 122.86 150.278 123.518 150.604 124.278C151.592 126.664 150.004 129.509 152.987 131.648C157.154 134.64 158.638 131.948 160.95 132.148C161.769 132.232 162.522 132.633 163.05 133.264C164.305 134.764 163.417 136.945 164.032 138.664C165.297 142.2 172.332 142.61 171.494 134.286C171.45 132.504 170.769 130.797 169.573 129.475C167.962 128.255 166.049 127.494 164.04 127.275C160.74 126.784 159.428 127.953 158.072 123.589C155.108 114.054 151.461 117.097 146.729 114.198C145.992 113.746 145.28 113.248 144.51 112.853C141.235 111.175 138.675 112.971 137.868 116.336C137.648 116.981 137.577 117.668 137.661 118.345C137.745 119.021 137.981 119.67 138.352 120.242C139.484 121.667 141.824 121.98 143.63 121.758C144.436 121.634 145.248 121.551 146.063 121.509C146.06 121.263 146.03 121.017 145.974 120.777C145.187 120.8 144.406 120.928 143.628 121.024Z"></path><path id="vector_94" fill="#000000" d="M164.672 144.212C164.626 140.463 163.691 137.346 158.647 132.642C158.385 132.742 158.118 132.828 157.847 132.9C158.519 133.5 159.165 134.139 159.774 134.806C162.2 137.462 163.689 139.55 163.913 143.457C164.096 145.19 163.669 146.933 162.706 148.386C160.744 151.529 156.8 154.1 153.665 155.986L145.507 147.828C146.37 147.35 147.208 146.83 148.019 146.268C148.731 145.768 148.904 145.775 146.534 142.643C146.496 142.583 146.441 142.535 146.377 142.505C146.312 142.475 146.241 142.464 146.17 142.473C146.099 142.482 146.033 142.512 145.978 142.557C145.924 142.603 145.883 142.663 145.862 142.731C145.051 144.657 144.133 146.537 143.112 148.361C140.386 149.79 138.078 151.902 136.412 154.49C129.55 154.49 116.59 154.531 110.02 154.471C110.485 152.69 111.048 150.935 111.676 149.206C111.69 149.152 111.692 149.094 111.681 149.039C111.67 148.984 111.647 148.932 111.613 148.887C111.579 148.842 111.535 148.806 111.484 148.78C111.434 148.755 111.378 148.742 111.322 148.741H104.928C110.734 137.455 121.018 128.149 134.168 126.041C133.941 126.223 133.77 126.465 133.674 126.739C133.578 127.014 133.561 127.309 133.625 127.593C134.471 130.106 143.025 128.206 145.753 126.307C147.591 126.79 149.374 127.461 151.075 128.307C151.046 128.026 151.028 127.743 151.018 127.461C136.518 120.579 115.6 127.416 104.731 147.526C103.464 149.878 102.319 152.293 101.302 154.763C101.288 154.818 101.286 154.875 101.297 154.93C101.308 154.985 101.331 155.037 101.365 155.082C101.399 155.127 101.443 155.164 101.494 155.189C101.544 155.214 101.6 155.227 101.656 155.228H136.03C135.368 156.84 134.871 158.516 134.547 160.228C134.118 163.41 136.647 164.456 137.942 163.293C138.701 162.61 138.96 161.383 139.649 159.334C139.701 159.578 139.805 159.808 139.955 160.008C140.105 160.208 140.296 160.373 140.516 160.491C141.061 160.759 141.677 160.847 142.275 160.743C142.873 160.639 143.423 160.348 143.845 159.912C144.103 160.413 144.532 160.805 145.055 161.016C145.577 161.228 146.158 161.244 146.692 161.063C147.401 160.694 148.078 160.266 148.715 159.784C154.02 156.33 164.764 151.671 164.672 144.212ZM134.51 126.739C134.738 126.455 135.02 126.22 135.34 126.046C135.66 125.873 136.012 125.765 136.374 125.728C139.164 125.535 141.967 125.621 144.74 125.985C144.624 126.12 144.395 126.285 144.276 126.42C142.54 127.076 137.81 128.72 135.12 127.852C134.389 127.616 134.036 127.343 134.51 126.739ZM102.194 154.487C102.854 152.792 103.744 151.101 104.559 149.474H110.8C110.213 151.122 109.684 152.792 109.25 154.487H102.194ZM146.294 143.544C146.799 144.199 147.263 144.884 147.683 145.596C146.613 146.328 145.506 147.006 144.368 147.627C144.984 146.463 145.731 144.847 146.295 143.544H146.294ZM148.168 159.256C147.148 159.937 146.568 160.438 146.025 160.449C145.564 160.454 145.115 160.294 144.76 160C144.334 159.629 144.533 159.038 144.639 158.563C144.662 158.47 144.649 158.372 144.601 158.289C144.553 158.206 144.474 158.145 144.382 158.119C144.29 158.093 144.191 158.104 144.107 158.149C144.023 158.195 143.96 158.272 143.931 158.363C143.827 158.699 143.654 159.009 143.423 159.273C143.191 159.538 142.906 159.75 142.587 159.897C142.278 160.019 141.944 160.066 141.613 160.036C141.282 160.006 140.963 159.898 140.681 159.722C140.105 159.271 140.268 157.922 140.312 157.154C140.31 157.066 140.277 156.982 140.219 156.916C140.161 156.851 140.081 156.808 139.994 156.796C139.907 156.784 139.818 156.803 139.744 156.85C139.67 156.898 139.616 156.97 139.59 157.054C139.343 157.928 139.053 158.791 138.761 159.654C138.294 161.028 137.945 162.654 137.075 162.969C136.22 163.277 134.927 162.369 135.275 160.231C135.549 158.968 135.886 157.72 136.287 156.492C137.663 152.492 141.174 150.264 144.799 148.219L152.967 156.387C151.364 157.333 149.717 158.222 148.169 159.256H148.168Z"></path><path id="vector_95" fill="#000000" d="M119.366 133.378C115.233 135.095 113.466 138.612 114.103 141.807C114.126 141.771 114.145 141.732 114.169 141.696C114.208 141.64 114.261 141.594 114.323 141.566C114.386 141.537 114.455 141.525 114.523 141.532C114.591 141.539 114.656 141.564 114.712 141.605C114.767 141.645 114.81 141.7 114.837 141.763C114.202 138.938 115.82 135.641 119.561 134.087C119.992 133.908 119.8 133.2 119.366 133.378Z"></path><path id="vector_96" fill="#000000" d="M114.169 141.7C113.066 143.46 112.148 145.33 111.428 147.278C111.277 147.727 111.986 147.92 112.136 147.473C112.838 145.587 113.732 143.777 114.804 142.073C115.056 141.68 114.429 141.3 114.169 141.7Z"></path><path id="vector_97" fill="#000000" d="M125.558 134.536C123.934 135.06 122.549 136.145 121.651 137.596C120.753 139.048 120.401 140.772 120.658 142.459C120.685 142.553 120.747 142.633 120.833 142.68C120.918 142.728 121.018 142.74 121.113 142.713C121.207 142.687 121.286 142.624 121.334 142.539C121.382 142.454 121.394 142.353 121.367 142.259C121.174 140.763 121.506 139.245 122.306 137.966C123.105 136.686 124.323 135.724 125.753 135.241C126.2 135.1 126.009 134.386 125.558 134.536Z"></path><path id="vector_98" fill="#000000" d="M141.378 114.716C140.804 114.849 140.29 115.165 139.911 115.616C139.532 116.066 139.31 116.628 139.278 117.216C138.998 119.816 143.029 121.016 144.134 118.578C145.251 116.126 143.5 114.285 141.378 114.716ZM143.656 117.764C143.624 117.984 143.549 118.196 143.435 118.386C143.32 118.577 143.169 118.743 142.989 118.874C142.809 119.005 142.605 119.099 142.389 119.15C142.173 119.201 141.948 119.209 141.729 119.172C141.488 119.158 141.251 119.096 141.034 118.99C140.817 118.883 140.623 118.735 140.463 118.553C140.304 118.371 140.182 118.159 140.105 117.93C140.029 117.701 139.998 117.458 140.016 117.217C140.312 114.453 144.436 114.959 143.656 117.764V117.764Z"></path><path id="vector_99" fill="#000000" d="M162.887 146.656V143.9C162.882 143.806 162.841 143.717 162.773 143.652C162.704 143.587 162.614 143.551 162.52 143.551C162.425 143.551 162.335 143.587 162.266 143.652C162.198 143.717 162.157 143.806 162.152 143.9V146.657C162.157 146.751 162.198 146.84 162.266 146.905C162.335 146.969 162.426 147.005 162.52 147.005C162.614 147.005 162.705 146.969 162.773 146.904C162.841 146.839 162.882 146.75 162.887 146.656Z"></path><path id="vector_100" fill="#000000" d="M141.684 152.259C140.737 153.14 140.033 154.251 139.641 155.484C139.461 155.921 140.172 156.111 140.35 155.679C140.706 154.568 141.345 153.569 142.204 152.779C142.575 152.486 142.052 151.969 141.684 152.259Z"></path><path id="vector_101" fill="#000000" d="M145.722 154.361C144.869 155.117 144.236 156.09 143.891 157.176C143.746 157.627 144.455 157.821 144.6 157.376C144.911 156.413 145.479 155.552 146.242 154.886C146.6 154.568 146.076 154.049 145.722 154.361Z"></path><path id="vector_102" fill="#000000" d="M146.577 120.224C146.42 119.781 145.709 119.972 145.868 120.419C146.724 122.837 144.653 125.033 143.038 126.766C142.126 127.661 141.373 128.706 140.812 129.854C139.271 125.936 135.567 121.771 136.985 117.434C137.132 116.983 136.423 116.79 136.276 117.239C134.225 123.513 141.868 128.981 140.846 134.856C140.153 138.841 135.661 140.177 132.832 142.778C131.229 144.281 130.019 146.154 129.307 148.233C128.595 150.311 128.403 152.533 128.747 154.703C128.817 155.131 129.529 155.035 129.454 154.503C129.071 151.836 129.523 149.116 130.748 146.717C132.163 143.996 133.797 142.777 136.208 141.202C138.271 139.855 140.491 138.402 141.324 135.952C141.811 134.319 141.767 132.574 141.2 130.968C141.946 127.897 145.53 126.253 146.575 122.943C146.865 122.06 146.865 121.108 146.577 120.224V120.224Z"></path><path id="vector_103" fill="#000000" d="M57.818 60.956C61.23 60.956 95.618 61 96.118 60.966L98.65 66.516C98.85 66.36 99.04 66.199 99.239 66.046L96.66 60.4C96.6281 60.3443 96.5819 60.2981 96.5262 60.2661C96.4705 60.2341 96.4072 60.2175 96.343 60.218C94.922 60.218 56.943 60.203 55.999 60.197C56.076 60.443 56.139 60.697 56.199 60.953L57.818 60.956Z"></path><path id="vector_104" fill="#000000" d="M120.309 50.693C119.658 50.6431 119.01 50.8222 118.477 51.1993C117.944 51.5764 117.56 52.1278 117.391 52.7583C117.221 53.3887 117.278 54.0586 117.55 54.652C117.822 55.2453 118.293 55.725 118.881 56.008C119.247 56.2072 119.649 56.3314 120.064 56.3733C120.479 56.4152 120.897 56.374 121.296 56.252C124.817 55.257 122.951 50.762 120.309 50.693ZM120.388 51.431C120.86 51.4768 121.299 51.6896 121.628 52.031C120.76 52.644 119.664 52.179 118.722 51.986C119.194 51.6102 119.785 51.4136 120.388 51.431V51.431ZM122.365 54.636C122.112 55.0013 121.762 55.2885 121.355 55.4653C120.947 55.642 120.498 55.7011 120.059 55.636C119.726 55.5917 119.407 55.4753 119.124 55.295C118.841 55.1147 118.601 54.8748 118.42 54.592C118.239 54.3092 118.122 53.9904 118.077 53.6578C118.032 53.3251 118.06 52.9867 118.159 52.666C119.373 52.82 120.733 53.587 122.094 52.639C122.294 52.9268 122.422 53.2578 122.47 53.6049C122.517 53.9521 122.481 54.3054 122.365 54.636V54.636Z"></path><path id="vector_105" fill="#000000" d="M123.9 51.688C123.444 53.62 125.037 55.688 126.747 54.572C127.188 54.2553 127.519 53.8093 127.694 53.2958C127.869 52.7823 127.88 52.227 127.725 51.707C127.598 51.2788 127.346 50.8986 127.001 50.6156C126.655 50.3326 126.233 50.16 125.788 50.12C125.343 50.1299 124.914 50.2902 124.571 50.5749C124.228 50.8596 123.992 51.2519 123.9 51.688V51.688ZM125.52 50.876C125.802 50.8422 126.087 50.8978 126.335 51.035C126.583 51.1721 126.782 51.3837 126.903 51.64C127.096 52.0249 127.149 52.465 127.053 52.8847C126.957 53.3044 126.717 53.6776 126.376 53.94C124.656 55.065 123.764 51.262 125.519 50.876H125.52Z"></path><path id="vector_106" fill="#000000" d="M112.066 51.688C111.609 53.624 113.207 55.688 114.913 54.572C115.354 54.2553 115.685 53.8093 115.86 53.2958C116.035 52.7823 116.046 52.227 115.891 51.707C115.764 51.2788 115.512 50.8985 115.167 50.6155C114.821 50.3325 114.399 50.1598 113.954 50.12C113.509 50.1299 113.08 50.2902 112.737 50.5749C112.394 50.8596 112.158 51.2519 112.066 51.688V51.688ZM115.066 51.64C115.866 53.1 114.182 54.947 113.213 53.788C112.455 52.881 112.567 51.121 113.683 50.876C113.965 50.8416 114.251 50.8969 114.499 51.034C114.748 51.1712 114.948 51.3832 115.069 51.64H115.066Z"></path><path id="vector_107" fill="#000000" d="M116.905 46.489C116.203 47.3031 115.597 48.1949 115.099 49.147C115.054 49.231 115.044 49.329 115.07 49.4205C115.096 49.512 115.156 49.5899 115.238 49.6378C115.32 49.6858 115.418 49.7001 115.51 49.6778C115.603 49.6555 115.683 49.5982 115.734 49.518C116.676 47.867 117.91 45.734 120.044 45.58C122.132 45.429 123.572 47.269 124.015 49.116C124.125 49.576 124.834 49.382 124.724 48.916C123.785 45.006 119.813 43.358 116.905 46.489Z"></path><path id="vector_108" fill="#000000" d="M161.06 63.774C159.681 62.9354 158.153 62.3714 156.56 62.113C157.1 62.075 157.64 62.028 158.178 61.967C159.588 61.807 160.915 61.727 161.633 60.983C161.829 60.8174 161.978 60.6035 162.065 60.3625C162.153 60.1215 162.176 59.8617 162.132 59.6091C162.088 59.3564 161.979 59.1196 161.816 58.9221C161.652 58.7245 161.44 58.5732 161.2 58.483C160.131 58.007 155.963 57.883 154.326 57.883C155.239 57.395 156.11 56.8342 156.933 56.206C158.009 55.391 159.548 54.159 158.865 52.611C158.715 52.311 158.485 52.0579 158.202 51.8789C157.918 51.7 157.59 51.6022 157.255 51.596C155.482 51.469 152.514 54.486 145.626 56.276C145.031 55.4207 144.36 54.6217 143.619 53.889C142.829 53.0657 141.908 52.3779 140.895 51.853C140.672 51.7488 140.43 51.6906 140.184 51.6822C139.937 51.6737 139.692 51.7151 139.462 51.8038C139.232 51.8925 139.023 52.0268 138.846 52.1985C138.669 52.3702 138.529 52.5758 138.434 52.803C138.101 53.787 138.715 54.858 139.205 55.673C139.856 56.7497 140.623 57.7514 141.493 58.66C139.331 63.8089 137.472 69.0799 135.926 74.446C132.851 70.5227 129.273 67.0201 125.286 64.028C122.734 61.093 117.032 58.972 110.258 60.499C102.422 62.266 95.267 68.762 90.258 75.03C82.482 84.762 78.611 94.94 75.285 107.069C75.2707 107.124 75.269 107.181 75.2801 107.236C75.2911 107.291 75.3146 107.343 75.3487 107.388C75.3828 107.433 75.4267 107.469 75.477 107.494C75.5273 107.52 75.5827 107.533 75.639 107.534H96.252C96.413 109.421 96.271 111.611 96.752 113.127C96.916 113.632 97.2645 114.057 97.7279 114.316C98.1913 114.576 98.7356 114.651 99.252 114.527C100.799 114.178 100.952 111.992 101.031 110.303C101.26 111.274 101.571 112.225 101.961 113.143C102.074 113.421 102.248 113.671 102.47 113.873C102.692 114.076 102.956 114.227 103.243 114.314C103.53 114.402 103.833 114.425 104.131 114.381C104.428 114.338 104.711 114.228 104.961 114.061C106.253 113.029 105.908 110.845 105.701 109.099C107.257 111.505 107.779 112.812 109.028 113.062C109.267 113.12 109.516 113.128 109.759 113.086C110.001 113.044 110.233 112.953 110.439 112.818C112.069 111.651 111.045 109.286 110.076 107.532H117.511C117.789 107.506 117.911 107.398 117.936 107.262C119.589 98.6708 121.714 90.1772 124.303 81.82C125.981 84.3464 128.15 86.5088 130.682 88.178C131.91 88.947 133.297 89.4276 134.738 89.5834C136.179 89.7393 137.637 89.5665 139.001 89.078C141.562 87.927 143.794 86.1522 145.493 83.916C149.62 78.7937 152.661 72.8842 154.429 66.548C154.529 66.562 158.901 67.158 159.419 67.177C162.025 67.273 163.106 65.227 161.06 63.774ZM117.435 60.923C118.431 61.0462 119.401 61.3263 120.309 61.753C121.062 62.4281 121.731 63.192 122.3 64.028C122.94 64.7566 123.317 65.6788 123.371 66.647C123.313 67.537 122.857 68.0131 122.049 67.6201C120.835 67.0311 121.202 65.248 119.011 63.261C117.476 61.9832 115.641 61.1179 113.679 60.747C114.934 60.669 116.193 60.728 117.435 60.923V60.923ZM110.558 111.216C110.551 111.463 110.47 111.703 110.325 111.904C110.181 112.105 109.98 112.258 109.748 112.344C108.176 112.744 107.548 110.132 105.423 107.429C105.371 107.379 105.306 107.345 105.235 107.332C105.164 107.319 105.091 107.326 105.024 107.354C104.957 107.381 104.9 107.428 104.86 107.487C104.819 107.547 104.796 107.617 104.795 107.689C104.906 108.522 105.008 109.357 105.088 110.195C105.299 111.154 105.221 112.153 104.865 113.068C104.758 113.296 104.576 113.481 104.35 113.592C104.123 113.703 103.866 113.734 103.62 113.679C102.544 113.379 102.293 111.942 102.081 111.203C101.675 109.784 101.239 108.696 101.072 107.736C101 107.319 100.352 107.429 100.35 107.836C100.427 109.398 100.324 110.964 100.044 112.502C99.881 113.182 99.597 113.847 98.791 113.849C98.4957 113.863 98.2041 113.778 97.9626 113.608C97.7211 113.437 97.5435 113.191 97.458 112.908C97.1576 111.455 97.0188 109.974 97.044 108.491C97.0532 107.983 96.9954 107.475 96.872 106.982C94.9224 105.63 93.2832 103.879 92.0634 101.844C90.8436 99.8097 90.0714 97.5385 89.798 95.182C88.685 86.821 92.442 78.4631 98.077 72.1891C99.79 70.2821 103.434 66.873 105.343 65.898C106.341 65.401 107.456 65.1829 108.568 65.2666C109.68 65.3503 110.749 65.7327 111.662 66.3736C112.575 67.0144 113.298 67.8899 113.754 68.9075C114.211 69.9251 114.384 71.0471 114.256 72.155C114.05 73.855 112.97 75.31 112.107 76.743L105.074 88.43C104.752 89.352 107.385 99.565 108.14 103.74C108.54 105.94 108.44 106.046 108.672 106.477C109.546 108.137 110.57 109.512 110.558 111.216V111.216ZM117.291 106.797H109.68C109.167 105.862 109.256 106.129 109.173 105.54C108.38 99.923 106.519 94.279 105.773 88.696C106.302 87.818 113.893 75.2081 114.045 74.9531C114.849 73.6143 115.175 72.0423 114.97 70.4942C114.765 68.946 114.041 67.5133 112.916 66.4301C111.791 65.347 110.331 64.6774 108.777 64.531C107.222 64.3846 105.663 64.7699 104.356 65.624C102.841 66.6579 101.416 67.8173 100.095 69.09C94.834 73.99 90.721 80.39 89.367 87.358C87.934 94.74 89.556 102.165 95.443 106.797C93.243 106.797 76.524 106.769 76.13 106.775C78.325 98.849 81.137 90.652 85.249 83.566C89.156 76.833 95.287 69.339 102.172 64.866C104.888 63.002 107.957 61.7139 111.19 61.081C121.963 62.604 119.034 67.83 122.181 68.46C123.581 68.742 124.281 67.566 124.159 66.194C123.82 64.7908 123.109 63.5049 122.101 62.472C123.458 63.1429 124.605 64.1742 125.416 65.453C127.8 69.504 125.273 76.496 123.679 81.386C121.081 89.7327 118.949 98.2171 117.291 106.8V106.797ZM160.973 66.1C160.174 66.4906 159.259 66.5739 158.402 66.334C157.027 66.142 155.647 65.982 154.272 65.789C154.178 65.7659 154.079 65.7795 153.995 65.8271C153.911 65.8747 153.848 65.9527 153.82 66.045C152.258 71.6795 149.705 76.9912 146.283 81.732C143.944 84.911 140.633 88.488 136.69 88.9C131.49 89.442 127.627 85.134 124.59 80.959C126.03 76.5 128.3 69.968 126.4 65.748C128.782 67.7886 131.049 69.9586 133.193 72.248C134.1 73.2572 134.953 74.313 135.75 75.4111C135.783 75.4652 135.83 75.51 135.886 75.541C135.941 75.572 136.004 75.5883 136.068 75.5883C136.131 75.5883 136.194 75.572 136.249 75.541C136.305 75.51 136.352 75.4652 136.385 75.4111C138.027 69.7568 139.982 64.1985 142.243 58.762C142.48 58.22 141.843 58.319 140.283 55.987C139.699 55.273 139.291 54.4307 139.095 53.529C139.06 53.3442 139.082 53.1532 139.158 52.9809C139.233 52.8086 139.359 52.663 139.518 52.563C140.61 51.956 142.168 53.493 143.067 54.363C145.167 56.403 145.052 57.176 145.588 57.041C148.471 56.2901 151.254 55.1959 153.876 53.782C155.609 52.866 156.635 52.02 157.661 52.412C157.795 52.4717 157.916 52.5583 158.016 52.6665C158.116 52.7747 158.192 52.9022 158.24 53.0411C158.289 53.18 158.308 53.3273 158.298 53.474C158.287 53.6207 158.246 53.7637 158.178 53.894C157.861 54.4917 157.396 54.9973 156.826 55.362C155.532 56.429 154.079 57.2864 152.52 57.903C152.151 58.037 152.177 58.639 152.62 58.624C155.105 58.5254 157.595 58.6297 160.063 58.936C160.467 58.9545 160.857 59.087 161.189 59.318C161.26 59.392 161.316 59.4795 161.353 59.5753C161.389 59.6712 161.407 59.7735 161.403 59.8761C161.4 59.9787 161.375 60.0796 161.332 60.1727C161.289 60.2658 161.227 60.3492 161.151 60.418C160.67 60.963 159.679 61.053 158.13 61.226C156.82 61.3819 155.502 61.4511 154.183 61.433C153.746 61.424 153.713 62.016 154.083 62.155C156.261 62.966 158.755 63.019 160.695 64.397C161.613 65.065 161.546 65.7 160.973 66.1Z"></path><path id="vector_109" fill="#000000" d="M134.342 87.605H137.622C137.716 87.6001 137.805 87.5592 137.87 87.4908C137.935 87.4225 137.971 87.3318 137.971 87.2375C137.971 87.1432 137.935 87.0525 137.87 86.9841C137.805 86.9158 137.716 86.8749 137.622 86.87H134.342C134.248 86.8749 134.159 86.9158 134.094 86.9841C134.029 87.0525 133.993 87.1432 133.993 87.2375C133.993 87.3318 134.029 87.4225 134.094 87.4908C134.159 87.5592 134.248 87.6001 134.342 87.605V87.605Z"></path><path id="vector_110" fill="#000000" d="M91.5 88.054V91.3C91.5 91.3976 91.5388 91.4912 91.6078 91.5603C91.6768 91.6293 91.7704 91.668 91.868 91.668C91.9656 91.668 92.0592 91.6293 92.1282 91.5603C92.1972 91.4912 92.236 91.3976 92.236 91.3V88.054C92.236 87.9564 92.1972 87.8628 92.1282 87.7938C92.0592 87.7248 91.9656 87.686 91.868 87.686C91.7704 87.686 91.6768 87.7248 91.6078 87.7938C91.5388 87.8628 91.5 87.9564 91.5 88.054V88.054Z"></path><path id="vector_111" fill="#000000" d="M99.608 103.221C99.337 102.838 98.699 103.205 98.973 103.592C99.5494 104.405 99.9811 105.312 100.249 106.272C100.276 106.366 100.338 106.446 100.424 106.493C100.509 106.541 100.609 106.553 100.704 106.526C100.798 106.5 100.877 106.437 100.925 106.352C100.973 106.267 100.985 106.166 100.958 106.072C100.674 105.051 100.218 104.087 99.608 103.221V103.221Z"></path><path id="vector_112" fill="#000000" d="M103.774 102.521C103.509 102.132 102.874 102.499 103.139 102.892C103.729 103.758 104.142 104.732 104.355 105.758C104.455 106.221 105.155 106.025 105.063 105.558C104.836 104.471 104.399 103.439 103.774 102.521V102.521Z"></path><path id="vector_113" fill="#000000" d="M152.49 63.162C151.184 62.1401 149.544 61.641 147.89 61.762C147.807 60.1928 147.374 58.6621 146.623 57.282C146.394 56.868 145.759 57.238 145.988 57.653C146.748 59.0233 147.16 60.5592 147.188 62.126C147.188 62.317 147.307 62.556 147.567 62.526C149.13 62.3146 150.712 62.7326 151.967 63.688C152.339 63.969 152.863 63.452 152.49 63.162Z"></path><path id="vector_114" fill="#000000" d="M152.51 81.871C153.889 80.3946 154.857 78.5822 155.316 76.615C155.423 76.154 154.716 75.958 154.607 76.415C154.182 78.2599 153.28 79.9608 151.99 81.347C151.668 81.7 152.187 82.218 152.51 81.871Z"></path><path id="vector_115" fill="#000000" d="M150.431 87.9C155.261 84.3169 158.525 79.0102 159.543 73.083C159.62 72.62 158.912 72.421 158.834 72.883C157.866 78.6254 154.724 83.7745 150.06 87.261C149.684 87.543 150.05 88.182 150.431 87.9Z"></path><path id="vector_116" fill="#000000" d="M151.059 93.59C154.585 91.105 157.546 87.9033 159.748 84.1946C161.951 80.486 163.345 76.3539 163.84 72.069C163.893 71.6 163.157 71.603 163.105 72.069C162.611 76.225 161.25 80.2312 159.111 83.8287C156.972 87.4263 154.103 90.5353 150.688 92.955C150.3 93.225 150.67 93.862 151.059 93.59Z"></path><path id="vector_117" fill="#000000" d="M129.621 86.5721C131.106 84.9871 130.762 82.4141 129.521 80.5141C129.012 79.8052 128.426 79.1551 127.773 78.576C126.359 77.001 127.724 74.9891 129.044 73.8881C130.184 73.0906 131.228 72.1641 132.155 71.1271C132.968 69.9585 133.292 68.5186 133.059 67.1143C132.825 65.71 132.053 64.4525 130.905 63.6101C129.271 62.4651 126.989 62.4041 125.749 61.1961C124.917 60.3871 124.387 59.0671 125.161 58.2181C125.48 57.8701 124.961 57.3481 124.642 57.6991C123.482 58.9691 124.233 60.8561 125.38 61.8561C126.843 63.1311 128.966 63.1471 130.534 64.2451C131.144 64.7093 131.632 65.3143 131.957 66.0082C132.282 66.7022 132.434 67.4645 132.4 68.2301C132.285 72.4721 127.075 72.6621 126.472 76.5701C126.122 78.8421 127.994 79.464 128.952 80.99C129.4 81.6124 129.691 82.3335 129.801 83.0922C129.911 83.8509 129.837 84.625 129.585 85.3491C128.623 87.4101 125.585 87.1321 124.309 88.7881C123.3 90.0951 124.172 91.6941 123.835 92.6881C123.478 93.3482 122.954 93.903 122.316 94.2972C121.677 94.6913 120.946 94.9109 120.196 94.9341C120.102 94.939 120.013 94.9798 119.948 95.0482C119.883 95.1166 119.847 95.2073 119.847 95.3016C119.847 95.3958 119.883 95.4865 119.948 95.5549C120.013 95.6233 120.102 95.6641 120.196 95.6691C120.997 95.6486 121.781 95.4403 122.486 95.0612C123.192 94.682 123.798 94.1425 124.257 93.4861C124.654 92.7068 124.76 91.8116 124.557 90.9611C124.235 87.7241 127.761 88.5591 129.621 86.5721Z"></path><path id="vector_118" fill="#000000" d="M53.413 154.757L53.753 153.943L32.58 107.474C31.866 107.474 31.762 107.495 31.696 107.351C55.6 159.743 53.344 154.921 53.413 154.757Z"></path><path id="vector_119" fill="#000000" d="M69.393 94.427C69.271 94.749 69.153 95.072 69.029 95.393C69.166 95.693 74.017 106.35 74.229 106.793H64.181L63.889 107.321L64.207 107.528C64.207 107.528 73.16 107.565 74.572 107.528L83.014 126.043C83.283 126.043 83.552 126.043 83.821 126.05C61.931 78.07 72.287 100.772 69.393 94.427Z"></path><path id="vector_120" fill="#000000" d="M50.006 155.04C50.206 155.47 50.837 155.097 50.641 154.669L30.473 110.769C30.4402 110.714 30.3936 110.669 30.338 110.637C30.2823 110.606 30.2195 110.589 30.1555 110.589C30.0915 110.589 30.0287 110.606 29.973 110.637C29.9174 110.669 29.8708 110.714 29.838 110.769C26.69 116.509 6.824 151.437 5.05 154.669C5.01843 154.725 5.00199 154.788 5.00228 154.853C5.00257 154.917 5.01958 154.98 5.05166 155.036C5.08373 155.092 5.12976 155.138 5.18522 155.171C5.24068 155.203 5.30367 155.221 5.368 155.222H46.568C46.6622 155.217 46.7508 155.176 46.8157 155.108C46.8806 155.039 46.9168 154.949 46.9168 154.855C46.9168 154.76 46.8806 154.67 46.8157 154.601C46.7508 154.533 46.6622 154.492 46.568 154.487H5.993C9.044 148.934 28.465 114.787 30.126 111.765L50.006 155.04Z"></path><path id="vector_121" fill="#000000" d="M97.768 134.022C95.79 129.683 89.687 125.688 82.053 126.06C75.682 126.371 70.04 129.566 65.497 134.117C59.591 140.034 56.629 147.061 53.413 154.757C53.319 154.983 53.553 155.222 53.767 155.222C53.767 155.222 84.073 155.234 84.267 155.232C84.4789 156.246 84.7537 157.246 85.09 158.226C85.1758 158.58 85.3834 158.892 85.6763 159.108C85.9692 159.325 86.3289 159.431 86.6923 159.409C87.0557 159.386 87.3997 159.237 87.664 158.986C87.9283 158.736 88.0961 158.401 88.138 158.039C88.8 159.632 90.782 159.67 91.193 157.539C91.393 156.512 91.159 156.381 91.579 157.533C91.6745 157.884 91.8927 158.188 92.1939 158.391C92.4951 158.594 92.8592 158.683 93.22 158.64C94.469 158.451 94.72 156.479 94.812 155.222C95.35 155.222 95.952 155.237 96.484 155.222C96.756 155.214 96.877 155.089 96.911 154.953C98.37 149.092 100.3 139.57 97.768 134.022ZM93.399 130.022C92.9489 131.755 92.7294 133.539 92.746 135.329C89.711 131.486 85.504 128.111 80.752 126.921C85.2085 126.306 89.7317 127.414 93.4 130.018L93.399 130.022ZM93.944 156.39C93.844 156.86 93.656 157.849 93.093 157.925C92.393 158.025 92.227 157.172 92.069 156.673C91.769 155.741 91.507 154.801 91.247 153.858C91.14 153.472 90.49 153.532 90.525 153.958C90.641 155.371 90.817 158.858 89.456 158.43C88.415 158.106 88.735 156.61 88.278 154.193C88.19 153.729 87.478 153.926 87.569 154.393C87.7609 155.429 87.7381 156.493 87.502 157.519C87.4466 157.935 87.2466 158.318 86.937 158.601C86.518 158.866 85.949 158.401 85.763 157.96C85.511 157.36 85.232 155.86 84.9 154.767C84.8772 154.69 84.8306 154.622 84.7667 154.574C84.7029 154.525 84.6252 154.498 84.545 154.497L63.82 154.487C63.22 151.351 62.738 143.568 63.905 140.727C64.544 139.2 65.6647 137.925 67.0963 137.095C68.5278 136.264 70.1916 135.925 71.8339 136.129C73.4762 136.333 75.0068 137.068 76.1923 138.222C77.3778 139.377 78.1531 140.888 78.4 142.524C78.5303 144.319 78.2942 146.123 77.706 147.824C77.6919 147.879 77.6904 147.936 77.7016 147.991C77.7127 148.046 77.7363 148.098 77.7705 148.143C77.8047 148.188 77.8486 148.224 77.8989 148.249C77.9492 148.275 78.0047 148.288 78.061 148.289C82.888 148.364 93.025 148.875 93.961 153.624C94.1412 154.536 94.1355 155.476 93.944 156.386V156.39ZM96.263 154.49H94.793C94.7741 154.135 94.7317 153.781 94.666 153.431C93.666 148.331 83.714 147.676 78.533 147.568C79.0074 146.079 79.2262 144.521 79.18 142.959C79.0133 140.858 78.0537 138.899 76.4959 137.48C74.938 136.061 72.8985 135.287 70.7912 135.316C68.684 135.345 66.6667 136.175 65.1486 137.637C63.6306 139.099 62.7255 141.083 62.617 143.188C62.3149 146.959 62.4693 150.754 63.077 154.488C61.063 154.488 54.693 154.464 54.326 154.467C55.717 151.14 57.126 147.816 58.821 144.629C63.033 136.689 69.89 129.15 78.604 127.274C84.048 127.849 89.304 131.833 92.546 136.259C92.895 136.736 93.373 136.794 93.458 135.817C93.4394 134.029 93.6321 132.246 94.032 130.503C97.175 133.092 98.095 135.925 98.239 139.974C98.2427 144.879 97.5779 149.762 96.263 154.487V154.49Z"></path><path id="vector_122" fill="#000000" d="M92.524 117.808C91.354 117.655 90.482 118.557 89.549 119.108C89.1193 119.364 88.7127 119.658 88.334 119.985C86.464 121.343 87.067 124.302 88.815 125.249C90.835 126.343 93.593 124.403 93.491 121.992C93.9103 121.557 94.2079 121.02 94.354 120.434C94.411 120.141 94.4086 119.839 94.3469 119.547C94.2852 119.255 94.1655 118.979 93.9948 118.734C93.8241 118.489 93.606 118.281 93.3533 118.122C93.1007 117.963 92.8187 117.856 92.524 117.808V117.808ZM90.916 124.658C88.549 125.524 87.186 122.511 88.316 121.008C89.272 119.734 91.755 119.65 92.541 121.148C92.6759 121.484 92.7407 121.844 92.7313 122.207C92.7218 122.569 92.6385 122.925 92.4863 123.254C92.3341 123.583 92.1163 123.877 91.8462 124.118C91.5762 124.36 91.2596 124.543 90.916 124.658V124.658ZM93.646 120.234C93.5855 120.527 93.4665 120.806 93.296 121.052C93.0672 120.529 92.6886 120.086 92.2081 119.778C91.7275 119.471 91.1665 119.312 90.596 119.323C90.9772 119.005 91.4088 118.753 91.873 118.578C92.1067 118.522 92.3506 118.525 92.5829 118.586C92.8152 118.648 93.0286 118.766 93.2042 118.93C93.3798 119.094 93.5121 119.299 93.5891 119.526C93.6662 119.754 93.6858 119.997 93.646 120.234V120.234Z"></path><path id="vector_123" fill="#000000" d="M82.369 122.874C82.8882 123.065 83.4429 123.141 83.9944 123.097C84.5459 123.052 85.0812 122.888 85.563 122.616C85.7228 122.524 85.8609 122.399 85.9681 122.249C86.0752 122.099 86.1489 121.928 86.1841 121.747C86.2193 121.566 86.2152 121.38 86.172 121.201C86.1289 121.022 86.0477 120.854 85.934 120.709C85.454 120.031 84.42 120.061 83.692 120.168C81.029 120.562 80.921 122.269 82.369 122.874ZM82.569 121.302C82.9598 121.073 83.394 120.929 83.8439 120.877C84.2938 120.825 84.7495 120.868 85.182 121.002C85.2615 121.045 85.3294 121.106 85.3799 121.181C85.4303 121.255 85.4619 121.341 85.4717 121.431C85.4816 121.52 85.4694 121.611 85.4364 121.695C85.4033 121.779 85.3503 121.853 85.282 121.912C84.8457 122.213 84.3269 122.371 83.797 122.365C82.533 122.43 81.623 121.869 82.569 121.3V121.302Z"></path><path id="vector_124" fill="#000000" d="M98.153 121.132C97.1895 120.806 96.1456 120.804 95.181 121.127C93.372 121.793 94.435 123.889 96.181 123.679C97.791 123.486 99.5 121.876 98.153 121.132ZM97.853 121.965C97.391 122.633 95.807 123.477 95.153 122.637C94.853 122.249 94.953 122.037 95.283 121.878C95.9647 121.639 96.6932 121.565 97.409 121.662C97.654 121.7 97.993 121.76 97.851 121.965H97.853Z"></path><path id="vector_125" fill="#000000" d="M94.739 117.265C95.5136 118.058 96.0526 119.051 96.296 120.133C96.396 120.595 97.108 120.399 97.005 119.938C96.7647 118.853 96.2583 117.845 95.5316 117.005C94.8048 116.164 93.8804 115.518 92.8416 115.123C91.8028 114.729 90.6823 114.599 89.5809 114.746C88.4794 114.892 87.4317 115.31 86.532 115.962C85.5034 116.698 84.7001 117.706 84.212 118.873C84.031 119.309 84.742 119.499 84.921 119.068C85.306 118.156 85.9118 117.354 86.6838 116.734C87.4558 116.114 88.3698 115.696 89.3435 115.517C90.3172 115.338 91.3202 115.405 92.262 115.71C93.2038 116.015 94.055 116.549 94.739 117.265V117.265Z"></path><path id="vector_126" fill="#000000" d="M76.461 147.61C74.0471 148.175 71.7886 149.267 69.848 150.81C69.477 151.104 70 151.621 70.368 151.33C72.2157 149.873 74.3631 148.842 76.656 148.313C77.117 148.211 76.922 147.5 76.461 147.61Z"></path><path id="vector_127" fill="#000000" d="M73.575 120.648C75.157 117.919 78.275 118.248 79.233 120.128C79.448 120.549 80.083 120.178 79.868 119.757C78.668 117.396 74.697 117.057 72.875 120.395C71.145 123.564 73.245 127.481 70.664 129.723C69.9757 130.329 69.0936 130.669 68.1767 130.681C67.2599 130.694 66.3688 130.379 65.664 129.792C62.952 127.692 62.115 123.066 58.264 122.541C57.8581 122.466 57.4412 122.475 57.0389 122.567C56.6366 122.659 56.2572 122.832 55.924 123.076C55.5564 123.449 55.2816 123.904 55.1218 124.403C54.9621 124.902 54.9217 125.432 55.004 125.949C55.115 130.237 55.583 131.895 55.653 133.968C55.853 139.826 50.887 141.768 47.632 136.342C47.332 135.833 47.05 135.308 46.774 134.784C46.554 134.365 45.919 134.736 46.139 135.155C47.195 137.163 48.427 139.326 50.729 140.055C51.7147 140.364 52.781 140.285 53.7112 139.836C54.6414 139.387 55.3657 138.601 55.737 137.637C57.105 134.789 55.942 132.404 55.748 126.249C55.718 125.285 55.631 124.058 56.593 123.5C56.9571 123.329 57.353 123.236 57.7552 123.228C58.1574 123.219 58.5569 123.295 58.928 123.45C61.201 124.231 62.412 127.319 64.159 129.35C66.426 131.98 69.489 131.922 71.369 130.07C73.977 127.5 71.88 123.573 73.575 120.648Z"></path><path id="vector_128" fill="#000000" d="M86.506 150.977C87.0581 151.599 87.3979 152.381 87.476 153.209C87.516 153.644 88.214 153.658 88.176 153.209C88.0757 152.201 87.6648 151.249 87 150.484C86.7 150.148 86.21 150.642 86.506 150.977Z"></path><path id="vector_129" fill="#000000" d="M91 153.062C90.9029 152.005 90.5305 150.992 89.92 150.124C89.663 149.761 89.058 150.109 89.32 150.476C89.8614 151.241 90.2002 152.131 90.305 153.062C90.349 153.5 91.047 153.5 91 153.062Z"></path></g></g></g></svg>