<svg xmlns="http://www.w3.org/2000/svg" viewBox="0 0 200 200" height="400" width="400"><g><path d="M194.914,14.456a.389.389,0,0,0-.386-.386c-53.381-.382-181.864-.054-188.764-.034-.3,0-.669.005-.675.42V65.492a.386.386,0,0,0,.772,0S5.9,15.4,5.876,14.841c0,0,31.008.041,32.255.006,0,0,0,42.513,0,42.537a.386.386,0,0,0,.771,0s.036-42.089.019-42.543c0,0,60.171.038,60.877.011V57.384a.386.386,0,0,0,.772,0s.045-40.922.005-42.543c0,0,40.256.047,41.889.005,0,0,0,53.383,0,53.413a.386.386,0,0,0,.771,0s.035-52.82.013-53.418c0,0,50.325.035,50.9.014,0,0,0,53.374,0,53.4a.386.386,0,0,0,.771,0C194.946,66.455,194.93,16.721,194.914,14.456Z" fill="#000000"></path><path d="M188.726,90.867c.333,2.109-1.022,4.142-3.691,4.683-3.1.82-7.225,1-10.195-.368a5.213,5.213,0,0,1-2.45-2.341,9.4,9.4,0,0,1-.7-3.859q-.142-4.543-.2-9.09c-.289.008-3.471.116-3.471.116-.5.017-.5-.754,0-.772,0,0,3.261-.11,3.461-.114q-.043-3.283-.062-6.568H143.242c.032,1.235-.007,2.478-.007,3.712v28.673c.57-.021,1.152.013,1.717.013h49.169c-.006-.32.022-.651.022-.963V72.568c-.4.015,1.39-.014-8.434-.014C185.738,72.726,188.422,88.943,188.726,90.867Zm-23.518-8.509c-2.208.56-3.858-2.187-2.666-4.335a2.3,2.3,0,0,1,3.046-.944,3.235,3.235,0,0,1,1.324,2.96A2.282,2.282,0,0,1,165.208,82.358Z" fill="#e6deff"></path><path d="M25.1,65.459a4.434,4.434,0,0,1-3.081,2.5.372.372,0,0,1,.062.187c.345,5.939.979,9.664-1.1,12.311a6.494,6.494,0,0,1-4.31,2.423c-2,.25-3.967-.324-5.963-.345a5.132,5.132,0,0,0-4.274,1.707.334.334,0,0,1-.574-.082v20.768c.322-.007.656.021.968.021H38.045s.016,1.326.069-31.684A22.1,22.1,0,0,0,25.1,65.459ZM9.569,100.823,7.8,103.4c-.28.407-.949.02-.666-.389q.885-1.287,1.772-2.573C9.183,100.026,9.852,100.413,9.569,100.823Zm25.793,2.65L32.4,100.112c-.327-.372.217-.919.546-.546l2.96,3.361C36.235,103.3,35.691,103.847,35.362,103.473Z" fill="#c0c195"></path><path d="M10.611,81.765c1.95,0,3.868.567,5.824.374A5.717,5.717,0,0,0,20.6,79.682a8.6,8.6,0,0,0,1.054-5.321c-.115-2.791-.371-6.176-.327-6.319a4.185,4.185,0,0,1-3.9-2.281,38.821,38.821,0,0,0-11.556,4.96c.026.4-.01.817-.01,1.21,0,12.854-.033,11.869.029,11.769A5.828,5.828,0,0,1,10.611,81.765Z" fill="#c0c195"></path><path d="M18.217,65.593a3.435,3.435,0,0,0,6.082-.252A19.382,19.382,0,0,0,18.217,65.593Z" fill="#c0c195"></path><path d="M22.455,53.787a.386.386,0,0,1,.27-.474.408.408,0,0,1,.474.269,5.5,5.5,0,0,0,.472.866,12.6,12.6,0,0,0-.132-1.979,7.723,7.723,0,0,1-2.944.161.386.386,0,0,1-.269-.475.4.4,0,0,1,.475-.269,6.657,6.657,0,0,0,2.58-.17A3,3,0,0,0,22.206,49.9c-1.553-.947-3.346.521-3.332,2.373.011,1.38.037,2.764.129,4.14a5.125,5.125,0,0,0,.224,1.506,2.117,2.117,0,0,0,1.9,1.482,2.4,2.4,0,0,0,2.058-1.483,6.318,6.318,0,0,0,.463-2.355.319.319,0,0,1-.211-.122A7.021,7.021,0,0,1,22.455,53.787Z" fill="#ffe660"></path><path d="M99.926,62.442c-1.7-1.234-17.533-12.749-23.756-17.274a7.628,7.628,0,0,0-3.9-1.854c-1.554-.072-2.988.87-4.3,1.581C58.305,50.125,48.5,56.76,38.91,62.462c.006.087,0-1.394-.072,42.48.706-.028,60.943.01,60.943.01C99.738,103.684,99.926,62.442,99.926,62.442Z" fill="#ffd7d7"></path><path d="M75.766,34.074a11.076,11.076,0,0,1-1.494,1.1c-.426.26-.812-.407-.39-.666a13.8,13.8,0,0,0,1.409-1.033.374.374,0,0,1,.247-.094,3.135,3.135,0,0,0-4.178-1.268c-1.827.877-1.846,3.292-.661,4.711a2.99,2.99,0,0,0,5.067-2.746Zm-4.94-.365a.334.334,0,0,1,.322.032c.493.333,1,.644,1.5.966.416.269.029.936-.39.667-.5-.322-1.008-.632-1.5-.966A.407.407,0,0,1,70.826,33.709Z" fill="#ffaaaa"></path><path d="M116.049,99.315c.01,0,.02,0,.03,0l.022,0c6.148.167,12,1.766,16.691,5.636h9.6c0-.1.121-19.345.076-20.047a21.333,21.333,0,0,0-1.7-6.061c-2.705-6.1-8.347-12.264-14.922-13.258a22.144,22.144,0,0,0-21.422,9.829,28.7,28.7,0,0,0-3.5,8.581c-.327.988-.221-.381-.353,20.554A23.162,23.162,0,0,1,116.049,99.315Zm1.154-5.567c-.361,2.97-3.809,4.252-6.275,2.776a3.891,3.891,0,0,1-1.605-3.96,4.306,4.306,0,0,1,4.32-3.618A4.254,4.254,0,0,1,117.2,93.748Zm-11.8,2.243a2.084,2.084,0,0,1-.933.946.418.418,0,0,1-.468-.06c-2.213-1.984-1.86-5.415-.071-7.5,1.327-6.923,7.341-10.327,12.193-8.32,5.146,2.129,6.276,8.136,6.48,8.436,1.516,2.224,1.924,4.242.723,6.718a2.084,2.084,0,0,1-.933.946.418.418,0,0,1-.468-.06c-2.183-1.957-1.883-5.357-.1-7.457-1.715-6.928-7.1-9.848-11.665-7.7a10.392,10.392,0,0,0-5.431,7.407C106.2,91.535,106.6,93.533,105.4,95.991Z" fill="#b6dbff"></path><g><path d="M194.914,72.169a.39.39,0,0,0-.386-.386h-8.945l.126.771s7.864.035,8.434.014c0,0-.028,32.064-.022,32.384,0,0-50.316-.034-50.886-.013,0,0,.042-31,.007-32.385H153a.386.386,0,0,1,0-.771c-7.026,0-9.255-.02-9.988,0-.391.013-.509.012-.536.494-.039.69-.011,2.72-.011,9.015-2.219-7.171-8.018-14.206-14.853-16.117-4.527-1.266-11.078-.564-16.62,2.805-5.623,3.42-8.562,8.182-10.352,14.168.044-14.756.069-19.8.059-19.9-.036-.367,1.316.8-24.139-17.752a10.426,10.426,0,0,0-3.233-1.789,5.311,5.311,0,0,0-3.678.447c-1.182.535-2.315,1.2-3.45,1.828C57.06,50.046,47.517,56.44,38.471,61.827a.572.572,0,0,0-.341.52c-.023,2.314-.153,6.953-.222,9.51A22.956,22.956,0,0,0,25.452,64.75q-.159.362-.35.709a22.082,22.082,0,0,1,12.8,7.574c0,5.853.135,31.71.138,31.919,0,0-31.862-.027-32.184-.021V84.163a.4.4,0,0,1,0-.406s.035-12.638.01-13.036a38.821,38.821,0,0,1,11.556-4.96,7.127,7.127,0,0,1-.361-.714,39.123,39.123,0,0,0-11.3,4.832c-.264.157-.644.286-.68.63-.011.111,0,34.714,0,34.829a.391.391,0,0,0,.386.386l93.7,0c.4-.359.878-.766,1.405-1.179.095-15.173.169-19.761.169-19.761a29.531,29.531,0,0,1,3.68-9.374,22.129,22.129,0,0,1,21.422-9.829c6.6.992,12.239,7.2,14.922,13.258a21.244,21.244,0,0,1,1.7,6.061s-.094,19.528-.076,20.047h-9.6q.456.375.894.772c44.061,0,59.86,0,60.842,0a.391.391,0,0,0,.386-.386S194.915,72.188,194.914,72.169ZM99.781,104.952s-60.236-.038-60.943-.01c0-1.3.106-41.976.072-42.48,9.617-5.72,19.372-12.325,29.062-17.567,1.315-.711,2.748-1.653,4.3-1.581a7.628,7.628,0,0,1,3.9,1.854c6.22,4.529,22.061,16.04,23.756,17.274C99.923,62.542,99.777,104.852,99.781,104.952Z" fill="#ffffff"></path><path d="M24.3,65.341a7.032,7.032,0,0,0,.385-.722,19.9,19.9,0,0,0-6.854.271,5.645,5.645,0,0,0,.387.7A19.3,19.3,0,0,1,24.3,65.341Z" fill="#ffffff"></path></g><path d="M141.94,121.1c-2.675-13.341-11.713-21.4-25.839-21.786l-.022,0c.294.034.5.436.243.653-3.529,2.941-4.867,4.967-7.75,6.941-.977.67-2.464,1.317-3.324.1-1.021-1.441.179-3.858,1.151-5.309a2.97,2.97,0,0,1,.708-.918l-.017,0c-8.516,3.369-14.191,10.752-16.944,19.488.316-.11,23.572-8.075,26.742-9.1a.389.389,0,0,1,.488.372c.009.682.221,16.564.221,16.564a.389.389,0,0,1-.283.372l-29.387,6.5c-.044.352-.084.705-.125,1.058,6.923-.922,14.025.805,21.433,2.463,32.135,7.192,31.428,6.983,31.243,6.958.226.03.46.227.367.486A55.468,55.468,0,0,0,141.94,121.1ZM118.916,110.58l8.967-3.625c.461-.186.66.561.2.744l-8.967,3.625C118.66,111.51,118.462,110.764,118.916,110.58Zm11.051,15.378-10.207,2.334c-.484.111-.689-.633-.2-.744l10.207-2.334C130.247,125.1,130.451,125.847,129.967,125.958Z" fill="#6596e1"></path><path d="M96.238,163.385a.389.389,0,0,0-.717-.148,57.536,57.536,0,0,1-13.439,14.745c-.3.235-.014.623.273.658.982.122,1.977.157,2.965.208a15.014,15.014,0,0,0,4.8-.414c3.622-1.007,6.251-4.778,6.807-8.408A18.9,18.9,0,0,0,96.238,163.385Z" fill="#6596e1"></path><path d="M116.049,99.315a23.382,23.382,0,0,0-8.167,1.187,3.1,3.1,0,0,0-.89.363,4.312,4.312,0,0,0-.593.843c-.976,1.457-2.17,3.869-1.151,5.309.86,1.214,2.347.567,3.324-.1,2.85-1.951,4.236-4.012,7.75-6.941C116.593,99.747,116.353,99.324,116.049,99.315Z" fill="#ffaaaa"></path><path d="M117.376,111.556a.39.39,0,0,0-.394-.385c-.268,0-52.1,17.709-52.5,17.839-2.11-3.836-7.764-3.992-10.572.628-1.181,1.944-1.784,4.673-.656,6.775.523.977,1.612,1.974,2.8,1.537a3.929,3.929,0,0,0,1.979-2.522c.287-.78.99-2.539,2.129-2.145a3.879,3.879,0,0,1,1.63,1.5c-.1.472-.181.95-.238,1.429a3.464,3.464,0,0,0,5.409,3.569,1.926,1.926,0,0,0,2.17,1.747,6.5,6.5,0,0,0,4.5-3.386c4.5-.994,40.485-8.947,43.685-9.654a.387.387,0,0,0,.283-.372C117.573,119.761,117.386,112.317,117.376,111.556Zm-21.56,18.105,3.415-.7c.567-.116.807.752.24.868l-3.416.7C95.489,130.644,95.249,129.776,95.816,129.661Zm-25.07,4.451a6.022,6.022,0,0,0-1.9,1.794c-.319.481-1.1.03-.777-.455a6.585,6.585,0,0,1,2.219-2.116.45.45,0,0,1,.455.777Zm-3.574-2.971a2.8,2.8,0,0,0-1.875.579.458.458,0,0,1-.637,0,.451.451,0,0,1,0-.636,3.691,3.691,0,0,1,2.512-.843C67.749,130.267,67.75,131.173,67.172,131.141Z" fill="#ffaaaa"></path><path d="M54.164,121.751c.42-1.88,1.438-6.442,1.438-6.442.108-.484-.635-.691-.744-.206-.419,1.88-1.438,6.442-1.438,6.442C53.312,122.029,54.056,122.236,54.164,121.751Z" fill="#000000"></path><path d="M57.162,123.433l4.323-4.994c.323-.374-.22-.922-.546-.546l-4.323,5C56.293,123.262,56.836,123.81,57.162,123.433Z" fill="#000000"></path><path d="M113.643,88.946a4.306,4.306,0,0,0-4.32,3.618,3.891,3.891,0,0,0,1.605,3.96c2.466,1.477,5.915.193,6.275-2.776A4.254,4.254,0,0,0,113.643,88.946Zm.27,5.248c-.407,1.322-2.83,1.3-3-.158-.057-.493.715-.488.772,0,.065.558,1.342.416,1.485-.048S114.059,93.718,113.913,94.194Z" fill="#ffaaaa"></path><path d="M122.6,89.494a.367.367,0,0,0-.032-.028c-3.556-12.88-16.565-10.889-18.641-.088-1.823,2.359-2.11,5.544.071,7.5a.418.418,0,0,0,.468.06,2.084,2.084,0,0,0,.933-.946c1.193-2.459.794-4.459-.677-6.648,1.919-8.5,10.411-10.765,14.839-4.608a14.292,14.292,0,0,1,2.257,4.906c-1.776,2.334-2.078,5.5.1,7.457a.416.416,0,0,0,.468.06,2.084,2.084,0,0,0,.933-.946C124.526,93.741,124.123,91.723,122.6,89.494Z" fill="#000000"></path><path d="M168.016,79.236c-.5.017-.5.789,0,.772,3.313-.114,4.544-.119,5.423-.271a5,5,0,0,0,3.747-3.178,17.985,17.985,0,0,0,.795-5.874c.163-4.337.207-9.416.074-13.789a.386.386,0,0,0-.772,0c.084,3.152.2,15.241-.459,18.254a4.661,4.661,0,0,1-2.875,3.675C172.952,79.129,172.456,79.085,168.016,79.236Z" fill="#ffc431"></path><path d="M175.584,54.431c.131-2.134.322-4.873-1.472-5.8a7.2,7.2,0,0,0-6.028-.13A3.805,3.805,0,0,0,166.5,51.56c-.106.755-.212,1.512-.3,2.269a2.334,2.334,0,0,1,1.535-.171,5.2,5.2,0,0,1,1.633.962c.4.289.013.959-.389.666-.612-.445-1.276-1.042-2.073-.887a1.993,1.993,0,0,0-.816.379,57.879,57.879,0,0,0-.345,6.167c-.024,1.8.405,3.625,2.075,4.347a7.333,7.333,0,0,0,2.705.566,3.829,3.829,0,0,0,4.3-2.638c.44-1.373.516-4.809.7-7.77-.736-1.009-2.355-.9-3.339-.1-.382.31-.928-.228-.546-.546A3.239,3.239,0,0,1,175.584,54.431Zm-4.038,3.6a.386.386,0,0,1,.546.546,2.255,2.255,0,0,1-2.1.607c-.485-.1-.279-.845.206-.744A1.493,1.493,0,0,0,171.546,58.027Z" fill="#ffaaaa"></path><path d="M165.588,77.079a2.3,2.3,0,0,0-3.046.944c-1.195,2.154.462,4.894,2.666,4.335a2.282,2.282,0,0,0,1.7-2.319A3.235,3.235,0,0,0,165.588,77.079Z" fill="#ffc431"></path><path d="M146.247,18.9l2.895,2.408c.379.315.928-.228.545-.546l-2.9-2.407C146.413,18.042,145.864,18.585,146.247,18.9Z" fill="#000000"></path><path d="M190.556,18.65q-1.547,1.016-3.094,2.03c-.413.272-.027.94.39.667l3.094-2.031C191.359,19.045,190.973,18.377,190.556,18.65Z" fill="#000000"></path><path d="M108.5,18.248h-4.354a.4.4,0,0,0-.386.39c-.023,1.552-.047,3.108,0,4.66a.386.386,0,0,0,.772,0c-.038-1.424-.023-2.85,0-4.275,1.324,0,2.648.008,3.972-.007a.384.384,0,0,0,0-.768Z" fill="#000000"></path><path d="M140.253,18.334c-1.4-.025-2.792-.055-4.188-.082a.386.386,0,0,0,0,.772c1.267.034,2.535.049,3.8.074v4.2a.386.386,0,0,0,.772,0V18.72A.394.394,0,0,0,140.253,18.334Z" fill="#000000"></path><path d="M40.464,17.781l3.073,2.971c.357.345.9-.2.545-.546l-3.073-2.971C40.652,16.89,40.106,17.435,40.464,17.781Z" fill="#000000"></path><path d="M96.97,17.823l-3.545,2.723a.4.4,0,0,0-.139.528.386.386,0,0,0,.528.138l3.545-2.722a.4.4,0,0,0,.138-.528A.385.385,0,0,0,96.97,17.823Z" fill="#000000"></path><path d="M7.971,18.967,9.832,22.38c.238.436.9.047.667-.389L8.637,18.578C8.4,18.142,7.733,18.531,7.971,18.967Z" fill="#000000"></path><path d="M35.4,18.911,33.579,22.4c-.229.44.436.831.666.39q.909-1.743,1.816-3.487C36.291,18.86,35.625,18.47,35.4,18.911Z" fill="#000000"></path><path d="M8.9,100.433q-.887,1.287-1.772,2.573c-.283.409.386.8.666.389l1.772-2.572C9.852,100.413,9.183,100.026,8.9,100.433Z" fill="#000000"></path><path d="M32.947,99.566c-.329-.373-.873.174-.546.546l2.961,3.361c.329.374.873-.174.545-.546Z" fill="#000000"></path><path d="M42.91,99.861q-1.191,1.572-2.38,3.145c-.3.4.37.78.666.389l2.38-3.144C43.876,99.855,43.206,99.47,42.91,99.861Z" fill="#000000"></path><path d="M95.177,99.07c-.333-.37-.878.178-.546.546l3.476,3.857c.333.37.878-.177.546-.546Q96.915,101,95.177,99.07Z" fill="#000000"></path><path d="M82.221,35.335l-1.911.107c-.392-2.882-1.886-5.994-4.436-7.508-4.352-2.584-10.163,1.178-10.821,7.441l-1.691-.04a.386.386,0,0,0,0,.771l4.069.1a.386.386,0,0,0,0-.772l-1.609-.038c.912-7.266,8.55-10.431,12.236-4.069a11.54,11.54,0,0,1,1.476,4.161l-1.822.1c-.493.028-.5.8,0,.772l4.509-.253C82.715,36.079,82.718,35.307,82.221,35.335Z" fill="#000000"></path><path d="M26.072,55.937a22.423,22.423,0,0,1-1.388,8.682c-1.59,3.529-4.965,3.315-6.467.974A9.6,9.6,0,0,1,17,61.779a33.44,33.44,0,0,1-.188-5.842c.026-.5-.747-.5-.772,0a35.63,35.63,0,0,0,.148,5.543c.355,3.366,1.773,6.7,5.145,6.562a.356.356,0,0,0-.016.107c.352,6.283.846,9.247-.711,11.533a5.717,5.717,0,0,1-4.166,2.457c-1.956.193-3.874-.373-5.824-.374A5.828,5.828,0,0,0,5.89,83.7c-.233.376.084.778.4.651a5.1,5.1,0,0,1,4.415-1.813c2,.021,3.959.595,5.963.345a6.494,6.494,0,0,0,4.31-2.423,8.16,8.16,0,0,0,1.467-5.235c-.017-2.357-.229-4.723-.366-7.076a.372.372,0,0,0-.062-.187,4.433,4.433,0,0,0,3.081-2.5c1.4-2.54,1.839-6.6,1.742-9.522a.386.386,0,0,0-.772,0Z" fill="#6596e1"></path><path d="M25.114,46.793l-.011,0a1.2,1.2,0,0,0,.613-1.073,1.62,1.62,0,0,0-1.331-1.328,3.143,3.143,0,0,0-.854-.081,2.412,2.412,0,0,0,.533-1.216,1.61,1.61,0,0,0-1.34-1.827c-1.886-.289-2.944,1.915-3.419,3.77a31.756,31.756,0,0,0-.58,3.186.358.358,0,0,0,.369.4,20.906,20.906,0,0,1,3.4.166c.913.112,2.154.583,2.954-.081A1.086,1.086,0,0,0,25.114,46.793Z" fill="#000000"></path><path d="M52.56,141.1c1.957-.19,7.448-1.03,10.217-1.4a3.487,3.487,0,0,1-.672-.69c-.621.088-8.858,1.241-9.768,1.341-3.108-18.175-3.2-18.857-3.274-18.958-.13-.17,1.365.132-23.491-3.983a.392.392,0,0,0-.475.475c.481,2.042,3.844,17.411,4.024,18.15a.364.364,0,0,0,.269.27c1.725.413,20.239,4.351,22.334,4.8C52.043,141.167,51.887,141.16,52.56,141.1Z" fill="#ffc431"></path><path d="M122.929,48.1a6.11,6.11,0,0,0-4.891,3.451,3.014,3.014,0,0,1,2.426.743c.37.333-.178.878-.545.545a2.094,2.094,0,0,0-2.255-.353,5.717,5.717,0,0,0,1.256,5.9,6.413,6.413,0,0,0,9.2-.091A12,12,0,0,1,122.929,48.1Zm-1.706,7.593c-.216.448-.88.057-.666-.389a6.328,6.328,0,0,0,.613-2.479c.019-.5.791-.5.771,0A7.287,7.287,0,0,1,121.223,55.692Z" fill="#ae877c"></path><path d="M96.055,130.529l3.416-.7c.567-.116.327-.984-.24-.868l-3.415.7C95.249,129.776,95.489,130.644,96.055,130.529Z" fill="#ffaaaa"></path><path d="M140.478,145.466c.373.05-2.368-.469-31.243-6.958-17.429-3.917-27.591-5.584-38.071,8.943a77.407,77.407,0,0,0-9.49,17.066c-1.148,2.862-2.316,6.01-1.363,9.1,1.538,4.99,7.168,7.722,12.121,7.177,11.973-1.319,18.439-16.052,24.282-20.517a7.539,7.539,0,0,1,4.447-1.514c4.045-.073,8.28,1.905,9.357,2.18a.4.4,0,0,1-.2-.209.362.362,0,0,1,.321-.534c.151-.037,24.255-4.942,25.669-5.265a.391.391,0,0,1,.434.571c1.211-1.826,3.36-7.478,4.1-9.553C140.938,145.693,140.7,145.5,140.478,145.466Zm-56-4.473-3.527,1.945c-.436.241-.825-.426-.39-.666l3.528-1.946C84.521,140.086,84.91,140.753,84.475,140.993Z" fill="#6596e1"></path><path d="M74.4,184.046a41.638,41.638,0,0,1-10.586-1.316A107.324,107.324,0,0,1,51.9,178.96a9.218,9.218,0,0,1-1.622-.791c-.4-.252-.728.289-.468.606,2.27,2.765,5.756,4.416,9.077,5.55a30.421,30.421,0,0,0,11.017,1.6,11.753,11.753,0,0,0,4.642-1.133A.388.388,0,0,0,74.4,184.046Z" fill="#000000"></path><path d="M136.309,154.934c-.1.023-25.617,5.266-25.717,5.258a.374.374,0,0,0-.273.541.471.471,0,0,0,.231.229c3.927,1.5,6.321,3.063,11.3,3.694a14.614,14.614,0,0,0,6.464-.608,12.441,12.441,0,0,0,4.429-3.078,26.479,26.479,0,0,0,4-5.465A.392.392,0,0,0,136.309,154.934Z" fill="#ffc431"></path><path d="M101.09,175.9a.391.391,0,0,0-.7-.092c-2.875,4.783-6.262,6.548-11.724,7.7a57.6,57.6,0,0,1-7.489,1.052c-.506-.036-.495.834,0,.772,4.474.172,11.426-.278,15.71-1.747a5.257,5.257,0,0,0,3.573-3A7.842,7.842,0,0,0,101.09,175.9Z" fill="#000000"></path><path d="M107.967,184.627l8.415-17.673c.212-.446-.453-.838-.666-.39L107.3,184.237C107.088,184.683,107.753,185.075,107.967,184.627Z" fill="#ffc431"></path><path d="M136.735,161.3c-.2-.454-.865-.061-.666.389.336.762,10.126,22.929,10.131,22.942.2.453.866.061.667-.39Z" fill="#ffc431"></path><path d="M141.585,153.5c-.273.647-.555,1.293-.874,1.918-.226.442.443.834.666.39a59.785,59.785,0,0,0,5.41-20.367,44.824,44.824,0,0,0-.348-10.024c-.072-.49-.813-.282-.744.2C147.038,135,145.194,144.955,141.585,153.5Z" fill="#ffc431"></path><path d="M51.633,146.164V175.6a.386.386,0,0,0,.772,0V145.85a.387.387,0,0,0-.284-.372c-.411-.11-46.518-11.29-46.543-11.3-.483-.117-.689.627-.206.744C15.313,137.339,51.433,146.127,51.633,146.164Z" fill="#000000"></path><path d="M82.736,74.66C82.282,70.154,79.392,65,74.62,64.116a18.685,18.685,0,0,0-5.557-.14c-8.653,1-19.08,5.158-29.748,14.248-.378.323.169.866.545.546l2.026-1.726c3.73,6.589,9.485,12.505,15,17.836a97.547,97.547,0,0,0-2.745,9.449c-.089.486.65.693.744.205,1.449-7.461,4.358-13.209,7.61-20.7.083,3.7-.323,3.9.018,5.6.575,2.867,3.438,2.574,4.975.14,2.275-3.6,1.759-6.346,1.827-2.256a5.466,5.466,0,0,0,.329,2.138,2.458,2.458,0,0,0,3.595.878c1.326-.816,1.968-2.458,2.431-3.89a4.222,4.222,0,0,0,1.024,3.306A2.849,2.849,0,0,0,81.3,88.592a14.167,14.167,0,0,0,.9-2.964A40.7,40.7,0,0,0,82.736,74.66ZM69.289,78.5q-.058-1.769-.117-3.537c-.019-.58.881-.577.9,0l.117,3.537C70.208,79.075,69.308,79.072,69.289,78.5Zm6.5-1.285a20.928,20.928,0,0,0-.125-3.106.45.45,0,0,1,.45-.45.462.462,0,0,1,.451.45,21.064,21.064,0,0,1,.124,3.106C76.669,77.788,75.769,77.789,75.789,77.21Z" fill="#ffaaaa"></path><path d="M124.866,184.432V166.759a.386.386,0,0,0-.772,0v17.673a.386.386,0,0,0,.772,0Z" fill="#ffc431"></path><path d="M188.726,90.867s-5.991-36.366-6.215-37.729c-.575-3.49-1.184-7.129-3.468-9.967a8.4,8.4,0,0,0-7.214-3.181q.529-.693,1.058-1.389c.3-.395-.369-.779-.666-.389l-1.082,1.42-1.09-1.3c-.319-.381-.862.167-.546.546q.509.608,1.015,1.215a10.348,10.348,0,0,0-4.954,1.905c-3.172,2.32-3.781,6.342-4.452,9.934-3.064,16.41-2.929,16.114-3.565,17.439a4.482,4.482,0,0,1-1.682,1.908,5.971,5.971,0,0,1-2.866.509.386.386,0,0,0,0,.771h18.416q.018,3.283.062,6.568a8.9,8.9,0,0,0,2.472-.3,4.663,4.663,0,0,0,2.875-3.675c.654-3,.545-15.051.459-18.254a.386.386,0,0,1,.772,0c.118,3.9.109,8.909-.074,13.789a17.985,17.985,0,0,1-.795,5.874,4.991,4.991,0,0,1-3.747,3.178,15.36,15.36,0,0,1-1.952.155q.066,4.547.2,9.09a9.4,9.4,0,0,0,.7,3.859,5.209,5.209,0,0,0,2.45,2.341c2.983,1.376,7.111,1.183,10.195.368C187.7,95.01,189.046,92.979,188.726,90.867Zm-13.9-27.647a3.829,3.829,0,0,1-4.3,2.638,7.333,7.333,0,0,1-2.705-.566c-1.67-.723-2.1-2.55-2.075-4.347a58.264,58.264,0,0,1,.345-6.167,2.428,2.428,0,0,1,.681-.354c.892-.209,1.468.324,2.208.862.4.292.788-.377.389-.666a5.211,5.211,0,0,0-1.633-.962,2.263,2.263,0,0,0-1.535.171,31,31,0,0,1,.541-3.449,3.037,3.037,0,0,1,1.344-1.876,7.186,7.186,0,0,1,6.028.13c1.785.919,1.606,3.633,1.472,5.8a3.223,3.223,0,0,0-3.949.377c-.382.318.164.856.546.546a2.408,2.408,0,0,1,3.341.084C175.311,58.935,175.249,61.893,174.824,63.22Z" fill="#000000"></path><path d="M171.546,58.027a1.493,1.493,0,0,1-1.346.409c-.485-.1-.691.639-.206.744a2.255,2.255,0,0,0,2.1-.607.386.386,0,0,0-.546-.546Z" fill="#000000"></path><path d="M134.764,52.323c-5.9-11.8-19.289-8.256-21.683,1.809a15.339,15.339,0,0,0-.4,5.008c.018.186.163.415.386.386,1.138-.152,1.662-.284,5.856-1.145a5.764,5.764,0,0,1-1.256-5.9,2.083,2.083,0,0,1,2.255.353c.367.333.915-.212.545-.545a2.9,2.9,0,0,0-2.426-.743,6.266,6.266,0,0,1,4.908-3.442c.154,3.907,1.052,6.78,4.567,9.7a29.981,29.981,0,0,0,7.283,4.229.44.44,0,0,0,.566-.23A11.6,11.6,0,0,0,134.764,52.323Z" fill="#000000"></path><path d="M121.223,55.692a7.287,7.287,0,0,0,.718-2.868c.02-.5-.752-.5-.771,0a6.328,6.328,0,0,1-.613,2.479C120.343,55.749,121.007,56.14,121.223,55.692Z" fill="#000000"></path><path d="M72.258,35.374c.419.27.806-.4.39-.667-.5-.322-1.007-.633-1.5-.966-.308-.208-.678.159-.523.5C70.708,34.426,70.779,34.42,72.258,35.374Z" fill="#000000"></path><path d="M75.291,33.471A13.064,13.064,0,0,1,73.882,34.5c-.422.259-.036.926.39.666a11.538,11.538,0,0,0,1.564-1.153C76.217,33.683,75.645,33.16,75.291,33.471Z" fill="#000000"></path><path d="M23.937,51.553a6.927,6.927,0,0,1-3.136.333.4.4,0,0,0-.475.269.386.386,0,0,0,.269.475,7.881,7.881,0,0,0,3.548-.333C24.607,52.132,24.407,51.387,23.937,51.553Z" fill="#000000"></path><path d="M23.2,53.582a.408.408,0,0,0-.474-.269.386.386,0,0,0-.27.474,6.994,6.994,0,0,0,.981,1.655c.28.359.865-.143.546-.545A6.868,6.868,0,0,1,23.2,53.582Z" fill="#000000"></path><path d="M127.883,106.955l-8.967,3.625c-.454.184-.256.93.2.744l8.967-3.625C128.543,107.516,128.344,106.769,127.883,106.955Z" fill="#6596e1"></path><path d="M129.762,125.214l-10.207,2.334c-.484.111-.279.855.2.744l10.207-2.334C130.451,125.847,130.247,125.1,129.762,125.214Z" fill="#6596e1"></path><path d="M84.086,140.326l-3.528,1.946c-.435.24-.046.907.39.666l3.527-1.945C84.91,140.753,84.521,140.086,84.086,140.326Z" fill="#6596e1"></path><path d="M67.172,130.241a3.691,3.691,0,0,0-2.512.843.451.451,0,0,0,0,.636.458.458,0,0,0,.637,0,2.8,2.8,0,0,1,1.875-.579C67.75,131.173,67.749,130.267,67.172,130.241Z" fill="#ffaaaa"></path><path d="M70.291,133.335a6.585,6.585,0,0,0-2.219,2.116c-.321.485.458.936.777.455a6.022,6.022,0,0,1,1.9-1.794.45.45,0,0,0-.455-.777Z" fill="#ffaaaa"></path><path d="M113.169,93.988c-.143.464-1.42.606-1.485.048-.057-.488-.829-.493-.772,0,.171,1.459,2.594,1.48,3,.158C114.059,93.718,113.315,93.514,113.169,93.988Z" fill="#000000"></path><path d="M37.636,128.179c-.8.793-1.543,1.631-2.336,2.426-.252.253.071.7.188.744l2.365.857c.278.119.48-.173.488-.372a28.278,28.278,0,0,0-.025-3.234C38.246,128.214,37.937,127.879,37.636,128.179Zm-.049,1.163c.021.651.015,1.328,0,1.948l-1.387-.5C36.643,130.326,37.143,129.8,37.587,129.342Z" fill="#000000"></path><path d="M69.172,74.958l.117,3.537c.019.578.92.58.9,0l-.117-3.537C70.053,74.381,69.153,74.378,69.172,74.958Z" fill="#ffaaaa"></path><path d="M76.114,73.654a.45.45,0,0,0-.45.45,21.065,21.065,0,0,1,.125,3.106c-.02.579.88.578.9,0a21.064,21.064,0,0,0-.124-3.106A.462.462,0,0,0,76.114,73.654Z" fill="#ffaaaa"></path></g><g><path d="M5.49,65.927a.452.452,0,0,0,.435-.435s.031-50.047.016-50.586c0,0,30.9.038,32.125.006V57.385a.451.451,0,0,0,.9,0S39,15.34,38.986,14.906c0,0,60.061.025,60.748,0,0,0,0,42.449,0,42.474a.45.45,0,0,0,.9,0s.043-40.88.007-42.479c0,0,40.147.044,41.758,0V68.259a.451.451,0,0,0,.9,0s.021-52.776.006-53.353c0,0,50.222.021,50.772.006V68.259a.451.451,0,0,0,.9,0v-53.8a.456.456,0,0,0-.451-.449c-65.748-.455-118.11,0-189.053,0a.455.455,0,0,0-.45.449s0,51.008,0,51.037A.448.448,0,0,0,5.49,65.927Z" fill="#000000"></path><path d="M194.528,71.719h-8.891c-1.484-9-2.955-17.936-3.064-18.6-.577-3.5-1.179-7.158-3.484-10a8.455,8.455,0,0,0-7.131-3.2l.984-1.292a.453.453,0,0,0-.161-.616.461.461,0,0,0-.616.161l-1.028,1.35q-.521-.623-1.042-1.248c-.372-.444-1.006.2-.637.637l.927,1.11a9.658,9.658,0,0,0-8.559,8.092c-.335,1.309-.3,1.225-3.283,17.216-.424,2.269-.737,4.675-2.71,5.883a5.293,5.293,0,0,1-2.377.5c-6.651-.111-9.186-.116-10.185-.063-.353.019-.881.036-.872.513v8.653c-2.372-7.284-8.859-14.9-16.331-16.042a22.891,22.891,0,0,0-25.107,16.127c-.089.268-.173.539-.257.809,0,0,.055-18.419.058-19.306,0-.616,1.151.483-24.17-17.964a10.451,10.451,0,0,0-3.249-1.8,5.381,5.381,0,0,0-3.727.454c-5.636,2.548-23.7,14.215-31.178,18.667a.636.636,0,0,0-.372.576c-.012.559-.009.38-.009,9.56A23.135,23.135,0,0,0,25.544,64.7a21.9,21.9,0,0,0,1.364-8.764.45.45,0,0,0-.9,0,22.87,22.87,0,0,1-1.362,8.611,20.024,20.024,0,0,0-6.781.27,11.469,11.469,0,0,1-.808-3.056,31.073,31.073,0,0,1-.186-5.825c.025-.579-.875-.578-.9,0a33.111,33.111,0,0,0,.147,5.543A13.185,13.185,0,0,0,16.977,65,39.614,39.614,0,0,0,5.736,69.823c-.288.173-.675.31-.711.686-.009.1,0,15.8,0,34.829a.455.455,0,0,0,.45.45S96.718,105.8,99,105.8A32.408,32.408,0,0,0,90.1,120.231c-1.468.509-25.331,8.621-25.582,8.7a5.6,5.6,0,0,0-4.963-2.85c-4.974-.012-8.418,6.513-6.353,10.364.538,1,1.656,2.01,2.871,1.566a3.989,3.989,0,0,0,2.024-2.567c.277-.753.955-2.471,2.05-2.1a3.028,3.028,0,0,1,1.14.919,6.707,6.707,0,0,1,.438.543c-.1.465-.178.936-.233,1.409a3.725,3.725,0,0,0,.5,2.744c-.6.085-8.957,1.256-9.6,1.319l-3.2-18.718a.386.386,0,0,0-.371-.37l-23.228-3.845a.458.458,0,0,0-.554.554c.454,2.048,3.844,17.411,4.024,18.151a.427.427,0,0,0,.314.314C31.2,136.8,51.9,141.2,51.9,141.2c1.176-.027,2.065-.2,10.86-1.438a3.535,3.535,0,0,0,4.158.134,1.98,1.98,0,0,0,2.222,1.7A6.554,6.554,0,0,0,73.67,138.2l13.393-2.96c-.036.291-.072.582-.106.873a20.5,20.5,0,0,0-9.8,4.6,37.873,37.873,0,0,0-6.052,6.7,77.367,77.367,0,0,0-9.5,17.081c-1.153,2.873-2.32,6.032-1.363,9.133,1.546,5.016,7.2,7.773,12.183,7.224,12.032-1.325,18.382-15.988,24.314-20.526,3.724-2.848,9.351-1.088,13.787.693,3.84,1.463,6.47,3.124,11.314,3.7a14.406,14.406,0,0,0,6.481-.61,12.513,12.513,0,0,0,4.457-3.1,26.078,26.078,0,0,0,4.008-5.47c1.3-1.965,4.083-9.342,4.133-9.649,3.529-13.482,3.163-30.67-7.075-40.108h60.677a.455.455,0,0,0,.451-.45c.235-30.778,0-33.066,0-33.169A.457.457,0,0,0,194.528,71.719ZM24.193,65.391a3.364,3.364,0,0,1-5.874.245A19.735,19.735,0,0,1,24.193,65.391ZM5.925,71.93c0-.382.024-.782,0-1.169a39.075,39.075,0,0,1,11.464-4.932,4.262,4.262,0,0,0,3.859,2.281c-.012.351.212,3.223.337,6.251a8.577,8.577,0,0,1-1.045,5.289,5.655,5.655,0,0,1-4.11,2.424c-1.956.2-3.874-.372-5.824-.373a5.942,5.942,0,0,0-4.686,1.866Zm32.067,32.958s-31.764-.012-32.067-.01V84.344a.435.435,0,0,0,.556-.053A5.083,5.083,0,0,1,10.709,82.6c2,.021,3.96.6,5.963.346a6.554,6.554,0,0,0,4.355-2.442,8.241,8.241,0,0,0,1.486-5.281c-.011-1.524-.264-6.9-.4-7.215a4.49,4.49,0,0,0,3.024-2.479,21.922,21.922,0,0,1,12.915,7.76C38.05,73.391,37.992,104.739,37.992,104.888Zm-8.123,30.664c-.434-1.961-3.817-17.222-3.817-17.222.536.089,21.436,3.555,22.306,3.693.354,2.07,3.014,17.618,3.107,18.166ZM54.6,104.876a.367.367,0,0,0,.345-.324,42.576,42.576,0,0,1,1.173-4.474c.428-1.433,1.539-4.875,1.638-5.172.6-1.389,3.722-8.574,4.679-10.777.052,3.492-.32,3.645.014,5.321.608,2.949,3.541,2.615,5.093.156a13.806,13.806,0,0,0,1.708-3.859,9.513,9.513,0,0,0,.336,3.74,2.523,2.523,0,0,0,3.684.9,6.428,6.428,0,0,0,2.34-3.562A3.931,3.931,0,0,0,76.647,89.8a2.914,2.914,0,0,0,4.708-1.171C82.928,85.063,83.164,78.54,82.8,74.66c-.487-4.53-3.372-9.657-8.163-10.606a19.042,19.042,0,0,0-5.574-.143c-7.619.819-17.336,4.418-27.134,12.027-.091.037-.506.406-2.659,2.24-.442.377.2,1.011.636.637l1.956-1.666c3.685,6.529,9.545,12.525,14.949,17.749a97.563,97.563,0,0,0-2.734,9.414.483.483,0,0,0,.461.564c-8.793,0-15.41,0-15.635.007,0-1.285.1-41.89.072-42.385,9.632-5.731,19.336-12.3,29.03-17.547,1.3-.706,2.726-1.645,4.269-1.573a7.583,7.583,0,0,1,3.863,1.845c6.219,4.531,22.041,16.025,23.724,17.252-.117,40.979-.145,42.413-.145,42.413S72.618,104.877,54.6,104.876ZM76.555,80.209a.45.45,0,0,0-.9,0,15.7,15.7,0,0,1-1.215,7.143,6.161,6.161,0,0,1-1.1,1.825c-.863.96-2.494,1.087-2.967-.123a5.211,5.211,0,0,1-.229-1.9c-.007-.611.058-4.812.041-6.3a.451.451,0,0,0-.9,0,21.883,21.883,0,0,1-1.959,7.364A5.812,5.812,0,0,1,65.6,90.341a1.481,1.481,0,0,1-1.787.007,2.529,2.529,0,0,1-.5-1.156c-.326-1.271.235-2.57-.05-7.056a.533.533,0,0,0-.223-.389.459.459,0,0,0-.659.261C61.778,83.4,57.174,94,57.174,94c-5.2-5.034-11.132-11.073-14.61-17.425,7.849-6.181,20.355-12.424,30.319-11.849,4.96.149,9.763,4.867,9.153,14.348a34.16,34.16,0,0,1-.814,7.118c-.353,1.464-1,3.788-2.927,3.457a2.075,2.075,0,0,1-1.662-1.594,7.691,7.691,0,0,1-.128-2.286C76.532,80.647,76.614,81.414,76.555,80.209Zm-3.4,57.209c-.177.109-.245.333-.345.5a5.942,5.942,0,0,1-3.109,2.6,1.807,1.807,0,0,1-1.245.141,1.478,1.478,0,0,1-.661-1.627,3.659,3.659,0,0,0,.689-1.83.454.454,0,0,0-.838-.228,7.063,7.063,0,0,0-.684,1.677,2.6,2.6,0,0,1-4.63-1.742c.144-2.022.473-2.115.192-2.532-.562-.833-1.5-1.938-2.58-1.974-1.553-.051-2.3,1.672-2.747,2.881a3.646,3.646,0,0,1-1.125,1.719c-.653.463-1.313.046-1.757-.5-2.395-2.934.744-10.28,6.092-9.453a4.5,4.5,0,0,1,3.457,2.542c.14.318.358.383.554.315,3.145-1.1,51.957-17.681,52.133-17.738l.209,15.588C69.489,138.2,73.337,137.342,73.152,137.418Zm59.535,22.388a13.251,13.251,0,0,1-4.108,3.246,12.822,12.822,0,0,1-6.159.826c-4.163-.381-6.646-1.66-10.214-3.147.357-.073,22.159-4.539,23.313-4.78A26.607,26.607,0,0,1,132.687,159.806Zm-6.4-2.872q3.114-.636,6.227-1.278Q129.4,156.3,126.291,156.934Zm9.822-2.025c-3.479.719-24.508,4.988-25.476,5.225l-.019,0c-.1-.078-.048-.056-1.066-.417-4.03-1.43-8.905-2.884-12.536-.64-5.621,3.475-10.552,15.1-19.784,19.472a13.569,13.569,0,0,1-8.091,1.331c-3.516-.617-7.076-3.083-8.1-6.741a8.785,8.785,0,0,1,.05-4.34c1.692-6.372,7.488-17.65,14.083-24.935C83.9,134.1,94.5,136.1,107.287,138.929c4.166.923,29.942,6.8,32.582,7.271A63.363,63.363,0,0,1,136.113,154.909Zm4.026-9.579c-1.292-.313-14.118-3.1-30.887-6.884-7.164-1.6-14.36-3.389-21.377-2.475.036-.311.11-.931.11-.931s24.218-5.354,29.347-6.486a.455.455,0,0,0,.33-.434l-.222-16.564a.453.453,0,0,0-.459-.449c-.3,0-25.022,8.477-25.783,8.741,2.614-7.786,7.5-14.232,14.765-17.663a8.773,8.773,0,0,0-1.1,2.468c-.271,1.1-.127,2.711,1.182,3.072,2.467.681,5.873-3.89,10.22-7.565a28.369,28.369,0,0,1,12.055,2.85C142.632,110.349,144.084,129.781,140.139,145.33Zm-33.726-42a17.241,17.241,0,0,1,1.14-1.817,20.249,20.249,0,0,1,7.323-1.369c-3.413,3.023-4.319,4.4-6.726,6.051-.471.324-1.189.826-1.8.659-.578-.158-.68-.9-.649-1.4A5.827,5.827,0,0,1,106.413,103.328ZM142.4,86.43s-.077,17.919-.065,18.458h-9.516c-6.76-5.57-17.5-6.961-24.949-4.448a25.508,25.508,0,0,0-7.225,3.976c.133-20.73.025-19.432.35-20.4a29.613,29.613,0,0,1,3.49-8.565,22.036,22.036,0,0,1,21.349-9.8c7.5,1.155,14.045,9.122,16.032,16.47A11.393,11.393,0,0,1,142.4,86.43Zm15.458-15.936a10.161,10.161,0,0,0,1.335-3.721c.239-1.476,1.93-10.337,2.483-13.3.711-3.807,1.059-7.88,3.934-10.448,2.82-2.384,7.6-2.945,10.585-1.234,3.946,2.261,4.8,7.212,5.471,11.3.174,1.06,6.259,38,6.259,38a3.129,3.129,0,0,1-1.467,3.031,5.579,5.579,0,0,1-1.756.655c-2.858.746-6.65.89-9.31-.255a4.549,4.549,0,0,1-2.276-2.1,8.944,8.944,0,0,1-.593-3.65c-.077-2.592-.254-13.66-.27-16.6a.456.456,0,0,0-.45-.45H156.707A5,5,0,0,0,157.853,70.494Zm36.215,34.394s-50.218-.021-50.768-.006c0,0,.031-31.049,0-32.263h28.048c.031,5.454.1,10.911.273,16.363a9.466,9.466,0,0,0,.71,3.891,5.266,5.266,0,0,0,2.473,2.365c2.967,1.372,7.082,1.21,10.245.374,2.737-.557,4.057-2.663,3.736-4.762,0,0-1.484-9.011-3-18.231,1.087,0,7.788.019,8.293.006C194.078,72.625,194.066,104.587,194.068,104.888Z" fill="#000000"></path><path d="M85.32,178.912a15.032,15.032,0,0,0,4.818-.416c3.642-1.012,6.292-4.8,6.852-8.453a18.947,18.947,0,0,0-.688-6.666.455.455,0,0,0-.837-.173,58.483,58.483,0,0,1-13.428,14.732c-.346.275-.017.727.318.769C83.337,178.826,84.333,178.862,85.32,178.912Zm10.317-14.338a18.381,18.381,0,0,1,.536,4.671,9.96,9.96,0,0,1-6.057,8.311,12.775,12.775,0,0,1-4.439.464c-.73-.013-1.461-.054-2.191-.112A58.932,58.932,0,0,0,95.637,164.574Z" fill="#000000"></path><path d="M54.226,121.768c.42-1.88,1.438-6.443,1.438-6.443.127-.564-.741-.805-.868-.239-.42,1.88-1.378,6.175-1.438,6.443C53.232,122.093,54.1,122.334,54.226,121.768Z" fill="#000000"></path><path d="M57.208,123.479l4.322-4.994c.378-.436-.256-1.076-.636-.637-1.264,1.459-4.323,5-4.323,5C56.193,123.279,56.828,123.918,57.208,123.479Z" fill="#000000"></path><path d="M113.643,88.881a4.4,4.4,0,0,0-4.382,3.666,3.955,3.955,0,0,0,1.635,4.032c2.539,1.521,6.015.167,6.371-2.831A4.336,4.336,0,0,0,113.643,88.881Zm1.076,7.075c-2.05.977-4.588-.12-4.625-2.518a3.528,3.528,0,0,1,3.549-3.657C116.415,90.072,117.631,94.573,114.719,95.956Z" fill="#000000"></path><path d="M116.141,81c-4.849-2-10.93,1.4-12.271,8.359-1.8,2.108-2.165,5.595.087,7.567a.476.476,0,0,0,.545.07,2.057,2.057,0,0,0,.957-.968,6.874,6.874,0,0,0,.674-2.276,6.545,6.545,0,0,0-1.339-4.418c2.355-10.342,14.121-11.069,16.958.3-1.77,2.108-2.1,5.558.129,7.513a.476.476,0,0,0,.545.071,2.057,2.057,0,0,0,.956-.969,6.852,6.852,0,0,0,.675-2.276,6.626,6.626,0,0,0-1.4-4.507C122.48,89.206,121.313,83.134,116.141,81ZM105.254,93.544a5.749,5.749,0,0,1-.524,1.926,1.661,1.661,0,0,1-.4.566,4.615,4.615,0,0,1-.013-5.786A5.217,5.217,0,0,1,105.254,93.544Zm17.924.221a5.725,5.725,0,0,1-.524,1.926,1.661,1.661,0,0,1-.4.566,4.615,4.615,0,0,1-.013-5.786A5.223,5.223,0,0,1,123.178,93.765Z" fill="#000000"></path><path d="M174.886,63.237c.422-1.263.517-4.573.688-7.6a1.326,1.326,0,0,1,.078.113c.264.516,1.041.061.778-.454a2.537,2.537,0,0,0-.781-.9c.131-2.146.318-4.883-1.5-5.823a7.259,7.259,0,0,0-6.093-.13,3.1,3.1,0,0,0-1.374,1.915,28.967,28.967,0,0,0-.537,3.421,4.85,4.85,0,0,0-1.469,1.146c-.37.4-.763.989-.177,1.4.385.27.745-.189.62-.549a6.943,6.943,0,0,1,.895-.865,57.427,57.427,0,0,0-.33,6.029c-.024,1.814.43,3.674,2.106,4.4a7.383,7.383,0,0,0,2.738.575,4.338,4.338,0,0,0,2.84-.615A4.392,4.392,0,0,0,174.886,63.237Zm-3.019,1.736a6.974,6.974,0,0,1-2.607-.108,3.1,3.1,0,0,1-2.026-1.079c-.709-1.149-.749-2.1-.588-5.5.062-1.282.173-2.56.317-3.835.759-.119,1.4.463,1.982.888.47.341.919-.44.454-.778a5.259,5.259,0,0,0-1.648-.969,2.116,2.116,0,0,0-.682-.055q.111-.88.241-1.758c.085-1.493.707-2.7,2.189-2.906a6.942,6.942,0,0,1,3.718.269,2.081,2.081,0,0,1,1.073.717,3.972,3.972,0,0,1,.509,1.9,22.072,22.072,0,0,1-.032,2.213,3.526,3.526,0,0,0-3.177.792.454.454,0,0,0,0,.637.462.462,0,0,0,.637,0,2.661,2.661,0,0,1,2.482-.491c-.1,1.747-.222,5.278-.51,7.385A3.172,3.172,0,0,1,171.867,64.973Z" fill="#000000"></path><path d="M165.62,77.023a2.364,2.364,0,0,0-3.134.967c-1.215,2.173.431,4.99,2.739,4.431a2.362,2.362,0,0,0,1.752-2.382A3.3,3.3,0,0,0,165.62,77.023Zm-.374,4.447c-1.363.623-2.633-1.016-2.183-2.548a1.57,1.57,0,0,1,1.954-1.2c.878.347,1.08,1.486,1.059,2.313A1.475,1.475,0,0,1,165.246,81.47Z" fill="#000000"></path><path d="M146.838,18.312c-.442-.368-1.083.266-.637.636l2.9,2.408c.443.368,1.083-.265.637-.637Z" fill="#000000"></path><path d="M190.524,18.594l-3.094,2.031c-.483.317-.032,1.1.454.777l3.1-2.03C191.461,19.055,191.01,18.276,190.524,18.594Z" fill="#000000"></path><path d="M108.5,19.08a.45.45,0,0,0,0-.9c-1.451-.023-2.9,0-4.354.008a.458.458,0,0,0-.451.45c-.021,1.552-.041,3.107,0,4.66a.451.451,0,0,0,.9,0c-.037-1.4-.023-2.808,0-4.21Z" fill="#000000"></path><path d="M140.269,23.732a.45.45,0,0,0,.434-.434V18.719a.459.459,0,0,0-.45-.45l-4.188-.081a.45.45,0,0,0,0,.9l3.738.073V23.3A.45.45,0,0,0,140.269,23.732Z" fill="#000000"></path><path d="M40.418,17.826,43.491,20.8c.417.4,1.054-.233.637-.637L41.055,17.19C40.638,16.787,40,17.423,40.418,17.826Z" fill="#000000"></path><path d="M96.937,17.768,93.393,20.49a.462.462,0,0,0-.162.616.45.45,0,0,0,.616.162l3.545-2.723a.463.463,0,0,0,.161-.616A.45.45,0,0,0,96.937,17.768Z" fill="#000000"></path><path d="M7.916,19l1.861,3.413c.277.509,1.055.055.777-.455L8.693,18.546C8.416,18.037,7.638,18.49,7.916,19Z" fill="#000000"></path><path d="M35.34,18.878l-1.817,3.487c-.267.513.51.969.778.455q.907-1.745,1.816-3.487C36.384,18.82,35.608,18.364,35.34,18.878Z" fill="#000000"></path><path d="M8.848,100.4l-1.773,2.572c-.329.478.45.929.778.454l1.772-2.572C9.955,100.377,9.174,99.926,8.848,100.4Z" fill="#000000"></path><path d="M32.992,99.521c-.384-.436-1.018.2-.637.636l2.961,3.362c.384.435,1.019-.2.637-.637Z" fill="#000000"></path><path d="M40.636,103.589a.46.46,0,0,0,.616-.162l2.379-3.144a.452.452,0,0,0-.161-.615.459.459,0,0,0-.615.161l-2.38,3.144A.453.453,0,0,0,40.636,103.589Z" fill="#000000"></path><path d="M95.222,99.025c-.388-.431-1.023.207-.636.636l3.476,3.858c.388.431,1.023-.207.636-.637Z" fill="#000000"></path><path d="M77.712,36.423l4.509-.252c.576-.033.58-.933,0-.9l-1.856.1c-.407-2.885-1.917-5.965-4.459-7.5C71.451,25.273,65.681,29.094,65,35.309l-1.635-.039a.451.451,0,0,0,0,.9l4.069.1a.451.451,0,0,0,0-.9c-.512-.012-1.025-.023-1.537-.036.77-5.828,5.609-8.558,9.191-6.878A7.472,7.472,0,0,1,78,31.356a11.025,11.025,0,0,1,1.457,4.069l-1.747.1C77.136,35.555,77.133,36.455,77.712,36.423Z" fill="#000000"></path><path d="M25.257,46.793c1.029-.7.556-2.554-1.6-2.554a1.81,1.81,0,0,0-.935-3.038c-1.927-.286-3,1.932-3.482,3.817-.262,1.018-.408,2.059-.583,3.094-.037.39.192.58.434.569a21.134,21.134,0,0,1,3.4.166c.939.117,2.169.572,3-.1A1.119,1.119,0,0,0,25.257,46.793Zm-.2,1.061c-.062.315-.49.359-.737.351a29.087,29.087,0,0,0-4.7-.421c.3-1.824.75-5.009,2.5-5.661a.85.85,0,0,1,1.058.39c.379.926-.687,1.716-1.3,2.193-.423.326.115.925.545.707a2.552,2.552,0,0,1,1.635-.242c.285.057.907.271.817.667-.15.656-2.187.614-2.862.652a.45.45,0,0,0,0,.9,10.481,10.481,0,0,1,2.5.1C24.691,47.528,25.114,47.589,25.062,47.854Z" fill="#000000"></path><path d="M99.231,128.965l-3.415.7c-.567.115-.327.983.24.868l3.415-.7C100.038,129.717,99.8,128.849,99.231,128.965Z" fill="#000000"></path><path d="M74.4,183.982c-6.73.11-13.454-1.9-20.149-4.219a23.24,23.24,0,0,1-3.938-1.649c-.456-.3-.849.337-.545.707,2.277,2.773,5.767,4.452,9.1,5.565a29.229,29.229,0,0,0,11.034,1.6,11.571,11.571,0,0,0,4.667-1.138A.453.453,0,0,0,74.4,183.982ZM52.282,180c5.692,2.191,13.505,4.466,19.665,4.806C66.335,185.991,57.3,183.95,52.282,180Z" fill="#000000"></path><path d="M80.744,184.957a.384.384,0,0,0,.428.434c4.656.179,11.349-.255,15.727-1.749a8.132,8.132,0,0,0,2.513-1.405,4.659,4.659,0,0,0,1.1-1.628,7.9,7.9,0,0,0,.642-4.731.457.457,0,0,0-.823-.108c-2.894,4.8-6.2,6.487-11.685,7.671a59.7,59.7,0,0,1-7.472,1.05A.4.4,0,0,0,80.744,184.957Zm19.663-7.667a7.512,7.512,0,0,1-1.465,4.157,6.178,6.178,0,0,1-2.232,1.309,29.432,29.432,0,0,1-7.265,1.438C94.214,183.1,97.7,181.32,100.407,177.29Z" fill="#000000"></path><path d="M115.66,166.532l-8.415,17.673c-.248.52.528.978.777.454.954-2,8.071-16.95,8.416-17.673C116.685,166.466,115.909,166.009,115.66,166.532Z" fill="#000000"></path><path d="M136.791,161.263c-.234-.528-1.01-.071-.778.455.337.761,10.126,22.929,10.132,22.941.233.529,1.009.072.777-.454C135.293,157.875,136.949,161.639,136.791,161.263Z" fill="#000000"></path><path d="M140.655,155.383c-.263.515.514.971.778.454a44.714,44.714,0,0,0,2.409-5.941,52.677,52.677,0,0,0,2.659-24.5.453.453,0,0,0-.553-.315.462.462,0,0,0-.315.554,47.948,47.948,0,0,1-.7,16.875A58.318,58.318,0,0,1,140.655,155.383Z" fill="#000000"></path><path d="M52.139,145.416c-.411-.109-46.519-11.289-46.544-11.3-.563-.136-.8.731-.24.869.414.1,45.688,11.122,46.214,11.227V175.6a.45.45,0,0,0,.9,0V145.85A.451.451,0,0,0,52.139,145.416Z" fill="#000000"></path><path d="M123.317,44.926a11.57,11.57,0,0,0-10.3,9.189,15.5,15.5,0,0,0-.405,5.025c.021.217.19.485.45.45,1.18-.157,1.8-.312,5.835-1.139a6.485,6.485,0,0,0,9.226-.074,21.764,21.764,0,0,0,2.071,1.4A43.865,43.865,0,0,0,134.8,62.1a.442.442,0,0,0,.622-.278,11.672,11.672,0,0,0-.6-9.53C132.49,47.531,128.653,44.4,123.317,44.926Zm-9.835,13.7a14.123,14.123,0,0,1,1.628-7.463,10.325,10.325,0,0,1,7.746-5.257c-.014.713-.016,1.427.007,2.138A6.205,6.205,0,0,0,118,51.488a2.978,2.978,0,0,0-2.339,2.185.45.45,0,0,0,.868.239,2.128,2.128,0,0,1,1.032-1.3,5.844,5.844,0,0,0,.687,5.054C117.045,57.913,114.605,58.431,113.482,58.621Zm11.7.566c-4.17,1.292-8.389-2.419-6.586-6.822a1.988,1.988,0,0,1,1.282.519c.429.387,1.068-.248.637-.637a3.115,3.115,0,0,0-1.5-.74,5.138,5.138,0,0,1,3.9-2.554,11.689,11.689,0,0,0,4.512,8.857A5.455,5.455,0,0,1,125.177,59.187Zm9.56,1.905c-5.091-2.34-9.88-5.135-10.789-10.722a21.174,21.174,0,0,1-.191-4.571c4.59-.3,7.785,2.278,9.994,6.374A10.953,10.953,0,0,1,134.737,61.092Z" fill="#000000"></path><path d="M124.93,184.432V166.759a.45.45,0,0,0-.9,0v17.673a.45.45,0,0,0,.9,0Z" fill="#000000"></path><path d="M171.5,57.982a1.434,1.434,0,0,1-1.284.392c-.566-.118-.807.749-.239.868a2.306,2.306,0,0,0,2.159-.624.45.45,0,0,0-.636-.636Z" fill="#000000"></path><path d="M121.105,52.824a6.213,6.213,0,0,1-.6,2.446c-.25.52.526.977.777.455a7.329,7.329,0,0,0,.727-2.9C122.029,52.244,121.129,52.246,121.105,52.824Z" fill="#000000"></path><path d="M75.575,33.312c-1.3-2.568-5.62-1.946-5.74,1.049a3.644,3.644,0,0,0,.819,2.5,3.051,3.051,0,0,0,5.18-2.765A.435.435,0,0,0,75.575,33.312Zm-.891,2.551a2.163,2.163,0,0,1-3.55.153,2.932,2.932,0,0,1-.4-1.545l1.488.958c.488.315.94-.464.454-.777-1.623-1.047-1.569-1.046-1.753-1.03a2.264,2.264,0,0,1,3.872.161,10.556,10.556,0,0,1-.949.665c-.494.3-.042,1.081.454.777.238-.145.467-.3.692-.465A2.184,2.184,0,0,1,74.684,35.863Z" fill="#000000"></path><path d="M23.92,51.491c-.163.058-.33.1-.5.145a3.02,3.02,0,0,0-1.184-1.79c-1.605-.978-3.452.549-3.429,2.428,0,1.38.036,2.763.129,4.14a5.275,5.275,0,0,0,.226,1.523,2.186,2.186,0,0,0,1.961,1.529,2.466,2.466,0,0,0,2.114-1.515,6.392,6.392,0,0,0,.469-2.333.451.451,0,0,0,.318-.767c-.106-.132-.2-.278-.292-.422a12.787,12.787,0,0,0-.122-1.915c.183-.048.367-.091.547-.155C24.7,52.167,24.468,51.3,23.92,51.491Zm-1.387,5.816c-.211.622-.765,1.329-1.5,1.256a1.414,1.414,0,0,1-1.1-1.2c-.152-.8-.22-3.924-.223-5.086-.029-1.165,1.041-2.244,2.04-1.673a2.009,2.009,0,0,1,.8,1.218,6.205,6.205,0,0,1-1.727,0,.463.463,0,0,0-.554.314.451.451,0,0,0,.314.554,7.749,7.749,0,0,0,2.151,0q.039.275.061.553a.436.436,0,0,0-.4.558,7.033,7.033,0,0,0,.441.881A8.406,8.406,0,0,1,22.533,57.307Z" fill="#000000"></path><path d="M127.866,106.893l-8.967,3.625a.463.463,0,0,0-.315.554.451.451,0,0,0,.554.314l8.967-3.625a.461.461,0,0,0,.315-.553A.451.451,0,0,0,127.866,106.893Z" fill="#000000"></path><path d="M119.777,128.354l10.207-2.334c.565-.13.326-1-.239-.868l-10.207,2.334C118.973,127.615,119.212,128.484,119.777,128.354Z" fill="#000000"></path><path d="M84.053,140.271l-3.527,1.946c-.507.279-.054,1.057.454.777l3.528-1.946C85.015,140.768,84.562,139.991,84.053,140.271Z" fill="#000000"></path><path d="M67.171,130.241a3.7,3.7,0,0,0-2.511.843.45.45,0,0,0,0,.636.457.457,0,0,0,.637,0,2.761,2.761,0,0,1,1.874-.579C67.751,131.169,67.749,130.268,67.171,130.241Z" fill="#000000"></path><path d="M70.291,133.335a6.557,6.557,0,0,0-2.219,2.116c-.321.484.458.935.778.455a5.818,5.818,0,0,1,1.9-1.794.45.45,0,0,0-.455-.777Z" fill="#000000"></path><path d="M113.107,93.971c-.073.237-.37.314-.59.337-.2.02-.734.02-.768-.272a.462.462,0,0,0-.451-.45.449.449,0,0,0-.45.45c.179,1.531,2.7,1.57,3.127.175C114.146,93.656,113.277,93.418,113.107,93.971Z" fill="#000000"></path><path d="M37.59,128.134c-.8.793-1.543,1.63-2.335,2.425a.558.558,0,0,0,.217.852l2.363.857c.292.124.56-.164.57-.434a30.607,30.607,0,0,0-.02-3.22C38.311,127.978,37.843,127.883,37.59,128.134Zm-.068,3.065-1.211-.438,1.216-1.264C37.542,130.064,37.537,130.633,37.522,131.2Z" fill="#000000"></path><path d="M69.172,74.958l.117,3.537c.019.578.92.58.9,0l-.117-3.537C70.053,74.381,69.153,74.378,69.172,74.958Z" fill="#000000"></path><path d="M76.564,74.1a.461.461,0,0,0-.45-.45.45.45,0,0,0-.45.45,20.928,20.928,0,0,1,.125,3.106c-.02.579.88.578.9,0A20.928,20.928,0,0,0,76.564,74.1Z" fill="#000000"></path></g></svg>