<svg xmlns="http://www.w3.org/2000/svg" fill="none" viewBox="0 0 200 200" height="400" width="400"><path fill="#000000" d="M139.068 28.7818C139.105 28.7841 139.141 28.7915 139.176 28.8038C140.518 28.8722 141.855 29.0305 143.176 29.2778C145.226 29.6389 147.231 30.2237 149.154 31.0218C153.34 32.8215 156.973 35.6992 159.683 39.3613C162.394 43.0235 164.084 47.3391 164.582 51.8678C167.407 52.1808 168.474 52.2198 170.569 52.3078C173.659 52.4388 176.858 51.8078 178.369 49.1078C178.897 48.2152 179.082 47.1608 178.889 46.1416C178.697 45.1225 178.139 44.2086 177.321 43.5708C176.397 43.0888 175.39 42.7836 174.354 42.6708C172.395 42.4538 170.821 41.0658 172.182 39.2168C172.782 38.5667 173.248 37.8045 173.552 36.9738C173.767 36.1471 173.705 35.2724 173.373 34.4849C173.042 33.6974 172.461 33.0409 171.719 32.6168C168.971 31.0778 166.06 33.1488 163.236 31.6428C162.884 31.4327 162.587 31.1417 162.37 30.7938C162.153 30.446 162.022 30.0514 161.988 29.6428C161.855 27.7758 162.535 27.0168 162.815 24.4108C162.906 23.5289 162.743 22.6394 162.344 21.8477C161.944 21.0561 161.326 20.3956 160.563 19.9448C159.327 19.184 157.934 18.7163 156.489 18.5778C150.503 17.5278 147.908 15.0128 144.996 10.4168C143.651 8.27735 141.661 6.62039 139.313 5.68482C135.228 4.17882 128.864 5.22682 126.479 9.63282C125.964 10.6362 125.618 11.7172 125.454 12.8328C125.015 14.1128 121.673 14.0978 119.612 15.4778C118.685 16.0723 118.012 16.9901 117.723 18.053C117.434 19.1158 117.551 20.248 118.05 21.2298C118.813 22.5628 120.074 23.5168 120.926 24.7858C121.737 25.9928 122.373 27.6118 121.456 28.9378C120.223 30.7198 117.298 30.9758 116.621 33.2168C116.509 33.5881 116.484 33.9805 116.55 34.3628C123.348 30.3394 131.178 28.399 139.068 28.7818V28.7818Z"></path><path fill="#000000" d="M32.632 140.9C32.5174 140.753 32.3739 140.631 32.2102 140.541C32.0465 140.452 31.8663 140.397 31.6805 140.38C31.4948 140.363 31.3076 140.385 31.1305 140.443C30.9534 140.502 30.7902 140.596 30.651 140.72C30.7108 140.33 30.6927 139.932 30.5978 139.549C30.5029 139.167 30.333 138.807 30.098 138.49C29.8557 138.223 29.5271 138.05 29.1699 138.001C28.8127 137.953 28.4499 138.031 28.145 138.224C27.5756 138.532 27.0732 138.95 26.667 139.454C26.2608 139.958 25.9589 140.538 25.779 141.16C25.4778 140.673 24.9964 140.324 24.4395 140.191C23.8827 140.057 23.2955 140.149 22.806 140.446C21.055 141.532 20.988 145.746 21.152 147.807C21.2612 149.253 21.6234 150.668 22.222 151.989C22.4182 152.427 22.7112 152.816 23.0791 153.125C23.4469 153.434 23.8801 153.656 24.346 153.774C23.575 152.851 23.1527 151.686 23.1527 150.484C23.1527 149.281 23.575 148.117 24.346 147.194C24.8292 146.656 25.4254 146.231 26.0918 145.951C26.7582 145.67 27.4785 145.54 28.201 145.57C29.1956 145.692 30.139 146.079 30.933 146.691C31.463 145.739 31.948 144.755 32.402 143.776C32.826 142.87 33.339 141.812 32.632 140.9Z"></path><path fill="#000000" d="M53.567 97.053C53.923 97.344 54.436 96.837 54.076 96.543L47.463 91.132C47.107 90.841 46.594 91.348 46.954 91.642L53.567 97.053Z"></path><path fill="#000000" d="M40.3 101.315L53.821 101.847C54.285 101.866 54.285 101.147 53.821 101.126L40.3 100.594C39.836 100.576 39.837 101.3 40.3 101.315Z"></path><path fill="#000000" d="M53.64 106.232L47.027 111.043C46.655 111.314 47.014 111.943 47.39 111.666L54 106.855C54.375 106.585 54.016 105.959 53.64 106.232Z"></path><path fill="#000000" d="M156.831 97.0526L163.444 91.6416C163.803 91.3476 163.291 90.8416 162.934 91.1316L156.321 96.5426C155.962 96.8366 156.475 97.3436 156.831 97.0526Z"></path><path fill="#000000" d="M170.1 101.315C170.562 101.297 170.565 100.576 170.1 100.594L156.578 101.126C156.116 101.145 156.114 101.866 156.578 101.847L170.1 101.315Z"></path><path fill="#000000" d="M163.007 111.666C163.383 111.939 163.743 111.314 163.371 111.043L156.758 106.232C156.383 105.959 156.022 106.584 156.394 106.855L163.007 111.666Z"></path><path fill="#000000" d="M100.057 85.3342C100.052 85.2419 100.012 85.1549 99.945 85.0913C99.8779 85.0277 99.789 84.9922 99.6965 84.9922C99.6041 84.9922 99.5151 85.0277 99.448 85.0913C99.381 85.1549 99.3409 85.2419 99.336 85.3342V106.161C99.3409 106.254 99.381 106.34 99.448 106.404C99.5151 106.468 99.6041 106.503 99.6965 106.503C99.789 106.503 99.8779 106.468 99.945 106.404C100.012 106.34 100.052 106.254 100.057 106.161V85.3342Z"></path><path fill="#000000" d="M104.543 74.1197C104.548 74.212 104.588 74.299 104.655 74.3626C104.722 74.4262 104.811 74.4617 104.904 74.4617C104.996 74.4617 105.085 74.4262 105.152 74.3626C105.219 74.299 105.259 74.212 105.264 74.1197V62.1047C105.259 62.0124 105.219 61.9254 105.152 61.8618C105.085 61.7982 104.996 61.7627 104.904 61.7627C104.811 61.7627 104.722 61.7982 104.655 61.8618C104.588 61.9254 104.548 62.0124 104.543 62.1047V74.1197Z"></path><path fill="#000000" d="M93.248 57.2995V48.4865C93.2431 48.3942 93.203 48.3073 93.136 48.2436C93.0689 48.18 92.9799 48.1445 92.8875 48.1445C92.795 48.1445 92.7061 48.18 92.639 48.2436C92.572 48.3073 92.5319 48.3942 92.527 48.4865V57.2995C92.5319 57.3919 92.572 57.4788 92.639 57.5424C92.7061 57.6061 92.795 57.6415 92.8875 57.6415C92.9799 57.6415 93.0689 57.6061 93.136 57.5424C93.203 57.4788 93.2431 57.3919 93.248 57.2995V57.2995Z"></path><g><path fill="#000000" d="M92.873 48.0814C92.7665 48.0851 92.6654 48.1291 92.5901 48.2045C92.5147 48.2798 92.4707 48.3809 92.467 48.4874V55.6694C84.732 64.0194 80.717 67.1834 72.911 77.8954C71.9158 79.0537 71.2332 80.4471 70.928 81.9434C69.676 88.0004 73.576 95.8234 78.581 98.9004C80.678 100.189 83.0563 100.951 85.512 101.119C87.9677 101.288 90.4277 100.858 92.681 99.8674C94.7852 100.676 97.0218 101.086 99.276 101.074V106.166C99.2813 106.274 99.3279 106.376 99.4062 106.451C99.4844 106.525 99.5884 106.567 99.6965 106.567C99.8046 106.567 99.9086 106.525 99.9869 106.451C100.065 106.376 100.112 106.274 100.117 106.166V101.066C101.349 101.069 102.574 100.883 103.75 100.516C104.873 103.195 106.615 105.57 108.832 107.447C111.049 109.324 113.678 110.65 116.506 111.316C121.847 112.416 126.68 109.875 130.731 106.3C133.887 103.404 136.79 100.245 139.411 96.8564C142.311 93.2614 157.703 73.1654 158.459 72.1394C162.914 66.1614 165.359 59.3154 164.659 51.9394C167.34 52.2394 168.329 52.2784 170.577 52.3734C171.969 52.4453 173.365 52.3029 174.714 51.9514C179.432 50.7154 180.169 45.4054 177.357 43.5264C176.43 43.0394 175.419 42.7317 174.377 42.6194C173.485 42.5195 172.655 42.1114 172.031 41.4654C171.795 41.133 171.686 40.7266 171.724 40.3205C171.762 39.9145 171.946 39.5357 172.24 39.2534C172.843 38.5991 173.31 37.832 173.616 36.9964C173.828 36.1568 173.761 35.2709 173.426 34.4726C173.09 33.6743 172.503 33.007 171.755 32.5714C168.985 31.0784 166.022 33.0614 163.273 31.5974C162.93 31.3929 162.641 31.11 162.429 30.7718C162.217 30.4337 162.089 30.05 162.054 29.6524C161.919 27.8064 162.572 27.1304 162.881 24.4204C163.17 21.4974 160.881 19.4784 158.094 18.8274C156.183 18.5485 154.306 18.0712 152.494 17.4034C150.44 16.5626 148.634 15.2134 147.245 13.4824C144.9 10.5614 144.814 9.43741 142.5 7.50041C140.912 6.12485 138.935 5.27858 136.844 5.07941C132.128 4.54641 127.191 6.47041 125.744 11.2284C125.579 11.7694 125.468 12.6404 125.364 12.8904C124.739 14.0904 121.602 14.0724 119.574 15.4304C118.633 16.0343 117.951 16.9667 117.66 18.0461C117.369 19.1255 117.49 20.2745 118 21.2694C118.764 22.6014 120.024 23.5564 120.876 24.8244C121.676 26.0144 122.311 27.6074 121.406 28.9164C120.167 30.7084 117.246 30.9484 116.565 33.2094C116.454 33.5757 116.427 33.9622 116.485 34.3404C111.984 37.0264 107.777 40.177 103.933 43.7404C100.197 47.214 96.6506 50.8859 93.309 54.7404V48.4874C93.3071 48.4321 93.2943 48.3777 93.2713 48.3274C93.2483 48.2771 93.2157 48.2317 93.1752 48.194C93.1347 48.1563 93.0871 48.127 93.0353 48.1076C92.9835 48.0883 92.9283 48.0794 92.873 48.0814V48.0814ZM74.9 94.1804C72.181 90.2754 70.453 84.6894 72.248 80.5134C72.7622 79.5006 73.3859 78.5472 74.108 77.6704C78.1098 72.2 82.5333 67.051 87.338 62.2704C90.293 64.3414 93.164 66.5294 96.143 68.5704C92.4779 69.5005 89.1715 71.4979 86.643 74.3094C86.6508 73.9043 86.5583 73.5035 86.3738 73.1427C86.1893 72.7819 85.9185 72.4723 85.5855 72.2414C85.2525 72.0105 84.8676 71.8655 84.465 71.8193C84.0624 71.7731 83.6547 71.827 83.278 71.9764C80.06 73.2564 78.684 76.8764 76.119 79.3534C75.728 79.7304 76.319 80.3194 76.713 79.9484C78.0247 78.5312 79.2347 77.0231 80.334 75.4354C81.38 74.0614 83.762 71.8354 85.11 72.9144C85.3017 73.0719 85.4594 73.2668 85.5734 73.4872C85.6874 73.7076 85.7553 73.9489 85.773 74.1964C85.8692 74.7184 85.7827 75.2577 85.528 75.7234C84.5263 77.1646 83.7851 78.7702 83.338 80.4674C83.3156 80.5571 83.3223 80.6515 83.3572 80.7371C83.3921 80.8227 83.4533 80.895 83.532 80.9434C86.202 82.5704 87.945 81.6744 89.714 82.1554C91.867 82.7424 91.85 84.7144 89.93 85.7134C88.8201 86.1393 87.6782 86.4767 86.515 86.7224C86.4287 86.7495 86.3532 86.8034 86.2997 86.8764C86.2461 86.9493 86.2173 87.0374 86.2173 87.1279C86.2173 87.2184 86.2461 87.3065 86.2997 87.3794C86.3532 87.4524 86.4287 87.5063 86.515 87.5334C87.5862 87.807 88.6995 87.8749 89.796 87.7334C91.507 87.4874 93.122 86.5154 94.615 87.3014C94.8575 87.394 95.0572 87.573 95.1757 87.8039C95.2942 88.0348 95.3232 88.3014 95.257 88.5524C95.1243 89.2389 94.8576 89.8924 94.4722 90.4758C94.0869 91.0592 93.5903 91.561 93.011 91.9524C91.6569 93.0136 90.0366 93.6814 88.328 93.8824C88.22 93.8877 88.1182 93.9343 88.0437 94.0126C87.9691 94.0908 87.9275 94.1948 87.9275 94.3029C87.9275 94.411 87.9691 94.515 88.0437 94.5933C88.1182 94.6715 88.22 94.7181 88.328 94.7234C89.3289 94.7426 90.318 94.504 91.2 94.0304C92.756 93.2754 94.355 92.0014 95.612 91.3074C98.286 89.8294 98.856 92.8964 97.601 94.7804C96.4792 96.3975 94.987 97.723 93.249 98.6464C90.1778 100.295 86.6062 100.75 83.2196 99.9259C79.833 99.1016 76.8702 97.0555 74.9 94.1804V94.1804ZM100.113 100.225V85.3344C100.108 85.2264 100.061 85.1246 99.9829 85.0501C99.9046 84.9755 99.8006 84.9339 99.6925 84.9339C99.5844 84.9339 99.4804 84.9755 99.4022 85.0501C99.3239 85.1246 99.2773 85.2264 99.272 85.3344V100.219C97.3759 100.208 95.4918 99.9187 93.68 99.3594C95.594 98.3034 98.08 96.2264 98.804 94.2674L98.798 94.2814C99.544 92.3444 98.777 90.6624 97.634 90.1544C97.2764 90.0255 96.8933 89.9835 96.5163 90.032C96.1393 90.0805 95.7793 90.2181 95.466 90.4334C95.9659 89.6273 96.1774 88.6754 96.066 87.7334C95.9031 87.3341 95.6375 86.985 95.2961 86.7215C94.9546 86.4581 94.5496 86.2897 94.122 86.2334C92.402 85.8674 91.048 86.8564 88.902 86.9514C90.464 86.5654 91.678 85.8694 92.129 84.3234C92.2186 83.8435 92.1607 83.3478 91.9629 82.9015C91.7651 82.4552 91.4367 82.0793 91.021 81.8234C88.921 80.4854 86.949 81.8674 84.239 80.3714C84.6434 78.9319 85.2805 77.5683 86.125 76.3344C86.1308 76.3228 86.1359 76.3107 86.14 76.2984C88.1671 73.4564 90.9894 71.2773 94.2518 70.0352C97.5142 68.793 101.071 68.5433 104.475 69.3174V74.1174C104.48 74.2254 104.527 74.3272 104.605 74.4017C104.683 74.4763 104.787 74.5179 104.896 74.5179C105.004 74.5179 105.108 74.4763 105.186 74.4017C105.264 74.3272 105.311 74.2254 105.316 74.1174V69.5694C106.947 70.1006 108.44 70.9888 109.685 72.1694C111.175 73.7116 112.329 75.5462 113.073 77.5571C113.818 79.5681 114.137 81.7117 114.011 83.8524C111.665 83.8811 109.325 84.0901 107.011 84.4774C106.22 84.6481 105.526 85.1199 105.077 85.7929C104.628 86.466 104.458 87.2874 104.604 88.0834C104.604 88.0955 104.607 88.1074 104.612 88.1184C104.811 88.7106 105.144 89.2488 105.585 89.6908C106.026 90.1329 106.564 90.4668 107.156 90.6664C107.034 90.6084 106.913 90.5484 106.793 90.4864C108.746 91.3992 110.77 92.15 112.846 92.7314C112.298 94.0236 111.456 95.1698 110.386 96.0784C109.623 95.0087 108.752 94.0208 107.786 93.1304C106.321 91.9084 104.854 91.8504 103.826 92.5794C101.7 94.0874 102.445 97.3184 103.41 99.7324C102.344 100.066 101.234 100.232 100.117 100.225H100.113ZM109.204 70.6824C109.583 70.1674 111.381 67.7284 111.704 67.2914C115.253 69.2514 119.872 71.4074 123.922 73.2744C121.414 75.8314 117.407 80.2894 114.9 83.0864C114.93 80.7261 114.436 78.3887 113.451 76.2433C112.467 74.098 111.017 72.1984 109.208 70.6824H109.204ZM113.654 92.9824C114.28 93.1914 115.304 93.5444 116.112 93.8674C119.086 95.0544 118.012 97.4744 117.052 98.1364C116.388 98.5173 115.633 98.7092 114.868 98.6914C114.11 98.6532 113.369 98.4572 112.691 98.1159C112.014 97.7746 111.415 97.2955 110.933 96.7094C112.122 95.7006 113.055 94.4253 113.658 92.9874L113.654 92.9824ZM131.835 104.109C128.028 107.831 123.587 111.238 118.273 110.72C115.627 110.451 113.095 109.511 110.915 107.987C110.744 107.871 110.778 107.91 110.885 107.92C114.198 108.185 117.531 107.765 120.674 106.684C121.183 106.51 120.965 105.698 120.451 105.873C117.64 106.84 114.672 107.267 111.702 107.132C110.679 107.184 109.669 106.894 108.83 106.306C106.026 103.67 104.113 100.226 103.359 96.4514C102.933 93.4924 104.993 91.8464 107.246 93.7624C108.316 94.8041 109.297 95.9327 110.181 97.1364C110.683 97.7191 111.266 98.2269 111.912 98.6444C114.418 100.181 117.165 99.5544 118.212 98.1844C118.526 97.8106 118.748 97.3678 118.858 96.8921C118.969 96.4165 118.966 95.9214 118.849 95.4473C118.732 94.9732 118.504 94.5334 118.185 94.1638C117.866 93.7942 117.464 93.5052 117.012 93.3204C115.634 92.6614 110.776 91.2534 108.699 90.4204C107.671 90.124 106.726 89.5919 105.939 88.8664C105.641 88.5547 105.454 88.1532 105.408 87.7244C105.372 87.4128 105.407 87.0972 105.51 86.8008C105.612 86.5043 105.78 86.2346 106 86.0114C106.758 85.4013 107.695 85.057 108.667 85.0314C109.314 84.9654 111.918 84.7674 113.835 84.6974C114.642 84.6684 114.535 84.7654 115.107 84.1424C115.632 83.5684 116.601 82.4514 118.372 80.4964C123.321 83.5864 139.678 93.3184 140.672 93.9034C137.959 97.5005 135.008 100.912 131.839 104.114L131.835 104.109ZM122.647 28.0444C122.697 27.2463 122.583 26.4464 122.31 25.6944C122.038 24.9425 121.614 24.2546 121.065 23.6734C120.178 22.5614 118.858 21.5734 118.423 20.1734C118.297 19.657 118.282 19.1198 118.38 18.5973C118.478 18.0749 118.686 17.5793 118.99 17.1434C119.951 15.7274 121.782 15.3094 123.333 14.8714C124.057 14.7197 124.75 14.4494 125.386 14.0714C125.694 13.859 125.946 13.5741 126.118 13.2417C126.29 12.9094 126.378 12.5397 126.374 12.1654C126.585 11.1371 127.008 10.1642 127.618 9.30945C128.227 8.45469 129.009 7.73695 129.912 7.20241C131.513 6.32013 133.307 5.84657 135.135 5.82372C136.962 5.80086 138.768 6.22943 140.39 7.07141C143.39 8.77941 144.343 10.9644 145.624 12.7714C150.578 19.7494 156.356 18.8534 159.092 20.0384C159.912 20.318 160.631 20.8345 161.158 21.5226C161.685 22.2107 161.996 23.0396 162.052 23.9044C162.068 26.4734 160.161 29.3494 161.952 31.5494C163.859 33.8924 167.522 32.6014 170.003 32.8854C170.431 32.9153 170.848 33.0335 171.229 33.2325C171.609 33.4315 171.944 33.7071 172.212 34.0418C172.481 34.3766 172.677 34.7633 172.789 35.1776C172.901 35.592 172.926 36.025 172.862 36.4494C172.621 38.1794 170.425 39.1734 170.902 41.0774C171.037 41.4931 171.26 41.8749 171.556 42.197C171.851 42.5191 172.212 42.774 172.615 42.9444C174.943 43.8394 175.706 43.4644 176.925 44.2444C177.43 44.6351 177.807 45.1666 178.01 45.7718C178.213 46.3769 178.231 47.0286 178.064 47.6444C177.894 48.3533 177.557 49.0112 177.081 49.5633C176.605 50.1155 176.004 50.5458 175.328 50.8184C173.978 51.3566 172.53 51.6014 171.078 51.5364C169.111 51.4694 167.878 51.4574 164.543 51.0844C163.77 45.6454 161.284 40.594 157.446 36.6628C153.609 32.7315 148.619 30.1248 143.2 29.2204C134.291 27.7653 125.152 29.4113 117.31 33.8834C117.442 31.3904 122.139 31.2304 122.651 28.0494L122.647 28.0444ZM148.358 31.5384C144.989 36.0814 142.474 40.5664 137.492 40.9054C133.672 41.0684 131.946 37.5144 134.124 34.3424C135.399 32.6185 136.96 31.1265 138.74 29.9314C138.89 29.7935 139.055 29.6722 139.231 29.5694C142.358 29.7562 145.437 30.4219 148.362 31.5434L148.358 31.5384ZM112.709 37.7384C119.956 32.3183 128.782 29.4289 137.831 29.5144C134.75 31.8024 130.742 35.3704 132.808 39.3384C133.256 40.1582 133.939 40.8253 134.769 41.2542C135.599 41.683 136.538 41.8541 137.466 41.7454H137.492C143.192 41.4104 145.692 36.4704 149.199 31.8764C154.891 34.4266 159.417 39.0207 161.883 44.7493C164.349 50.4779 164.575 56.9235 162.515 62.8104C160.23 69.2924 156.893 72.6964 153.063 77.6234C149.409 82.3234 141.563 92.7574 141.21 93.2094C135.289 89.7154 120.473 80.7754 118.968 79.8314C126.731 71.2754 116.128 82.9434 133.957 63.6934C134.325 63.2934 133.731 62.7014 133.363 63.0994L124.535 72.6294C120.548 70.7884 116.035 68.7044 112.235 66.6154L118.745 58.7794C119.088 58.3664 118.496 57.7684 118.15 58.1844C109.941 68.0634 112.087 65.3524 108.523 70.1844C107.529 69.5401 106.453 69.0338 105.323 68.6794V62.1054C105.318 61.9974 105.271 61.8956 105.193 61.8211C105.115 61.7465 105.011 61.7049 104.902 61.7049C104.794 61.7049 104.69 61.7465 104.612 61.8211C104.534 61.8956 104.487 61.9974 104.482 62.1054V68.4534C102.131 67.8795 99.6826 67.8313 97.311 68.3124C93.891 66.0204 89.634 62.8214 87.955 61.6344C89.4717 60.0744 90.9753 58.5024 92.466 56.9184V57.2984C92.466 57.4101 92.5104 57.5171 92.5893 57.5961C92.6683 57.6751 92.7753 57.7194 92.887 57.7194C92.9987 57.7194 93.1057 57.6751 93.1847 57.5961C93.2636 57.5171 93.308 57.4101 93.308 57.2984V56.0174C98.864 50.0294 103.59 44.1894 112.713 37.7444L112.709 37.7384Z"></path><path fill="#000000" d="M140.392 15.859C140.826 13.407 138.018 10.405 134.663 11.064C133.803 11.2333 133.009 11.6424 132.372 12.244C131.735 12.8457 131.281 13.6153 131.063 14.464C130.855 15.341 130.936 16.2619 131.295 17.0886C131.655 17.9154 132.272 18.6036 133.055 19.05C133.732 19.4242 134.485 19.6378 135.258 19.6745C136.03 19.7112 136.8 19.5699 137.509 19.2615C138.218 18.9531 138.847 18.4859 139.347 17.896C139.847 17.306 140.204 16.6091 140.392 15.859V15.859ZM133.985 18.588C133.289 18.3183 132.699 17.8309 132.302 17.1983C131.906 16.5658 131.724 15.822 131.785 15.078C131.916 14.293 132.283 13.5665 132.836 12.9949C133.39 12.4233 134.105 12.0338 134.885 11.878C135.924 11.7094 136.989 11.9425 137.863 12.5298C138.737 13.1172 139.355 14.0149 139.591 15.041C139.72 17.653 136.525 19.593 133.985 18.588V18.588Z"></path><path fill="#000000" d="M30.145 138.452C29.893 138.175 29.5518 137.995 29.1809 137.944C28.81 137.892 28.4328 137.973 28.115 138.171C27.5528 138.467 27.0553 138.873 26.6515 139.363C26.2477 139.854 25.9457 140.42 25.763 141.029C25.4385 140.564 24.9493 140.239 24.3945 140.121C23.8398 140.003 23.2608 140.1 22.775 140.393C21.004 141.51 20.926 145.719 21.091 147.806C21.1914 149.264 21.5571 150.692 22.17 152.019C22.3666 152.464 22.6621 152.858 23.0339 153.172C23.4058 153.486 23.8442 153.71 24.316 153.829C24.8087 154.46 25.4493 154.959 26.1811 155.283C26.9129 155.607 27.7133 155.745 28.5114 155.686C29.3094 155.627 30.0806 155.371 30.7564 154.943C31.4323 154.514 31.992 153.926 32.386 153.229C32.9893 152.205 33.2061 151 32.9971 149.83C32.7882 148.66 32.1673 147.604 31.247 146.853C31.171 146.792 31.093 146.734 31.015 146.676C31.535 145.739 32.015 144.771 32.458 143.807C32.888 142.882 33.398 141.807 32.684 140.87C32.4582 140.574 32.1245 140.381 31.756 140.331C31.3874 140.281 31.0142 140.379 30.718 140.604C30.8045 139.84 30.5999 139.072 30.145 138.452V138.452ZM31.924 149.031C32.2056 149.714 32.3028 150.459 32.2061 151.191C32.1093 151.923 31.8219 152.617 31.3726 153.204C30.9233 153.79 30.3279 154.248 29.646 154.532C28.9641 154.816 28.2196 154.915 27.487 154.821C26.7436 154.675 26.0503 154.34 25.4743 153.848C24.8983 153.356 24.4591 152.724 24.1992 152.012C23.9393 151.301 23.8676 150.534 23.9909 149.787C24.1142 149.039 24.4283 148.336 24.903 147.746C25.2786 147.316 25.739 146.969 26.2553 146.726C26.7715 146.482 27.3325 146.348 27.903 146.332C28.7502 146.393 29.5667 146.674 30.2719 147.148C30.9771 147.621 31.5466 148.27 31.924 149.031V149.031ZM30.876 141.57C30.9652 141.441 31.0838 141.335 31.2221 141.261C31.3603 141.187 31.5142 141.148 31.671 141.145C32.257 141.298 32.322 142.108 32.049 142.645C31.749 143.445 30.714 145.46 30.306 146.209C29.5884 145.786 28.7733 145.558 27.9406 145.546C27.108 145.533 26.2865 145.738 25.5568 146.14C24.8272 146.541 24.2146 147.125 23.7791 147.835C23.3436 148.545 23.1003 149.356 23.073 150.188C23.0938 150.956 23.2286 151.717 23.473 152.445C22.6308 151.254 22.1222 149.86 22 148.406C21.8339 147.053 21.8241 145.685 21.971 144.329C22.0129 143.209 22.3929 142.129 23.061 141.229C23.888 140.429 25.375 141.153 25.461 142.507C25.455 142.607 25.438 142.707 25.436 142.807C25.427 143.27 26.174 143.394 26.262 142.919C26.271 141.972 26.5484 141.047 27.062 140.252C27.2572 139.891 27.5249 139.575 27.8483 139.322C28.1716 139.07 28.5436 138.887 28.941 138.785C29.778 138.679 29.923 139.939 29.887 140.535C29.77 141.45 29.4752 142.333 29.019 143.135C28.782 143.619 29.505 144.046 29.745 143.56C30.0477 142.857 30.427 142.19 30.876 141.57V141.57Z"></path><path fill="#000000" d="M32.583 174.842C33.8898 178.559 35.9788 181.952 38.709 184.792C42.7227 189.062 47.7477 192.252 53.32 194.068C55.2479 194.731 57.283 195.027 59.32 194.941C63.974 194.914 102.966 194.89 104.17 194.896C104.281 194.895 104.388 194.85 104.467 194.771C104.546 194.693 104.59 194.586 104.591 194.475C104.548 188.01 101.264 181.54 97.518 176.342C122.729 149.279 120.831 150.889 122.086 150.381C123.828 149.414 125.703 148.711 127.651 148.294C129.882 147.843 131.928 147.81 133.783 146.046C134.167 145.664 134.447 145.191 134.596 144.67C134.744 144.15 134.756 143.6 134.631 143.074C134.464 142.545 134.179 142.062 133.795 141.662C133.412 141.262 132.942 140.956 132.421 140.767C131.036 140.275 129.527 140.255 128.129 140.708C130.098 138.154 133.511 133.047 134.073 129.868C134.17 129.539 134.186 129.192 134.12 128.855C134.055 128.518 133.909 128.202 133.697 127.932C133.484 127.663 133.209 127.449 132.896 127.308C132.584 127.167 132.242 127.102 131.899 127.121C131.03 127.124 130.177 127.351 129.422 127.781C128.65 128.198 127.92 128.686 127.24 129.241C127.965 127.856 128.398 126.337 128.512 124.779C128.585 123.607 128.197 122.086 126.969 121.616C125.683 121.125 124.248 122.297 123.343 123.064C122.531 123.764 121.764 124.515 121.048 125.312C121.589 123.832 121.834 122.259 121.768 120.685C121.714 119.933 121.655 118.985 120.913 118.585C120.247 118.345 119.526 118.302 118.836 118.462C118.147 118.621 117.518 118.976 117.025 119.485C114.169 122.049 111.787 125.861 110.525 127.307C109.425 128.572 83.453 156.574 80.805 159.523C77.7584 157.093 74.4638 154.991 70.976 153.254C76.035 149.113 102.652 124.338 102.833 124.147C104.117 122.87 105.102 121.325 105.718 119.623C106.154 118.256 105.84 116.451 104.434 116.067C103.804 116.005 103.169 116.08 102.57 116.286C100.888 116.843 99.2667 117.567 97.729 118.447C99.989 116.196 100.636 115.82 101.302 114.46C101.518 114.015 101.626 113.526 101.618 113.032C101.609 112.537 101.484 112.052 101.252 111.616C100.205 109.987 97.886 110.68 96.424 111.271C94.501 112.047 92.764 112.995 90.336 114.25C90.97 113.443 92.06 111.942 92.797 111.072C93.5109 110.378 93.9745 109.468 94.115 108.483C94.1232 108.01 93.9917 107.545 93.7369 107.147C93.4822 106.749 93.1155 106.435 92.683 106.245C88.639 104.608 84.944 111.108 82.61 111.711C82.2556 111.794 81.8882 111.805 81.5293 111.744C81.1704 111.683 80.8273 111.552 80.52 111.357C79.247 110.583 79.103 109.12 76.964 107.166C76.5392 106.723 76.0219 106.381 75.4492 106.162C74.8764 105.943 74.2624 105.853 73.651 105.9C73.1573 106.013 72.7008 106.251 72.3249 106.59C71.9489 106.93 71.666 107.36 71.503 107.84C71.0533 109.1 70.9728 110.463 71.271 111.769C71.6477 113.735 72.4648 115.591 73.661 117.197C59.905 130.169 48.38 140.557 39.87 151.217C34.057 158.5 29.44 166.022 32.583 174.842ZM110.283 128.849C113.163 125.62 116.543 119.928 119.101 119.26C121.088 118.742 121.215 120.136 120.833 122.703C120.546 124.654 119.798 126.51 118.65 128.115C118.369 128.496 119.006 128.991 119.31 128.624C120.498 127.141 121.772 125.727 123.124 124.392C123.685 123.848 124.29 123.352 124.933 122.91C126.8 121.588 127.733 122.985 127.673 124.527C127.615 125.859 127.289 127.166 126.714 128.37C126.216 129.6 125.545 130.754 124.723 131.797C124.39 132.212 124.971 132.815 125.318 132.392C126.618 130.772 128.218 129.42 130.032 128.41C131.89 127.521 133.832 127.799 133.077 130.465C132.33 132.571 131.323 134.575 130.077 136.43C129.078 138.081 127.953 139.652 126.712 141.13C126.1 141.903 126.841 142.148 127.088 141.958C128.469 141.27 130.04 141.062 131.552 141.367C133.77 141.839 134.607 144.089 133.18 145.45C131.518 147.01 129.719 147.014 127.42 147.48C125.558 147.885 123.76 148.542 122.076 149.433C121.57 149.669 121.079 149.936 120.605 150.232C120.358 150.445 118.557 152.423 107.376 164.489C107.376 164.489 91.892 148.988 91.766 148.861C94.549 145.877 109.4 129.833 110.284 128.849H110.283ZM91.162 149.517L106.781 165.135C102.281 169.993 97.961 174.636 97.014 175.652C92.4982 169.822 87.2721 164.579 81.457 160.045C83.534 157.714 86.1 154.96 91.162 149.517ZM74.529 117.533C74.6066 117.453 74.6501 117.346 74.6501 117.235C74.6501 117.124 74.6066 117.017 74.529 116.938C73.6463 115.846 72.977 114.598 72.556 113.259C72.1437 112.16 71.9402 110.995 71.956 109.822C71.9409 108.96 72.2019 108.115 72.701 107.413C72.8884 107.159 73.1401 106.96 73.4301 106.835C73.7202 106.711 74.038 106.667 74.351 106.707C75.834 106.86 77.358 108.635 78.185 109.875C78.5567 110.539 79.0195 111.149 79.56 111.686C80.0336 112.108 80.6095 112.4 81.2305 112.532C81.8516 112.664 82.4964 112.631 83.101 112.438C85.546 111.378 87.769 107.622 90.727 106.876C91.0923 106.778 91.476 106.77 91.845 106.853C92.214 106.936 92.5572 107.108 92.845 107.354C93.0861 107.616 93.2346 107.951 93.2678 108.306C93.301 108.661 93.2172 109.017 93.029 109.32C92.7113 109.855 92.3412 110.357 91.924 110.82C90.904 112.088 89.859 113.557 88.856 114.708C88.723 114.859 88.485 115.04 88.431 115.236C88.4068 115.33 88.4143 115.431 88.4524 115.521C88.4905 115.611 88.5571 115.687 88.642 115.736C88.7405 115.777 88.8471 115.796 88.9538 115.79C89.0605 115.784 89.1645 115.754 89.258 115.703C90.578 115.14 93.589 113.403 96.653 112.074C97.4593 111.713 98.3249 111.502 99.207 111.454C99.4972 111.425 99.7892 111.484 100.045 111.623C100.302 111.763 100.51 111.975 100.644 112.235C100.828 112.772 100.822 113.356 100.626 113.889C100.105 115.372 98.479 116.308 96.206 118.812C95.898 119.134 95.6221 119.486 95.382 119.862C95.3281 119.96 95.3154 120.076 95.3467 120.184C95.378 120.291 95.4507 120.382 95.549 120.437C95.965 120.666 95.882 120.285 99.418 118.507C100.758 117.775 102.192 117.23 103.68 116.888C103.928 116.833 104.186 116.844 104.428 116.919C104.708 117.17 104.912 117.495 105.016 117.857C105.121 118.219 105.122 118.602 105.019 118.965C104.426 121.625 101.729 124.227 99.614 125.965C98.442 126.987 76.584 147.203 76.325 147.437C76.325 147.437 60.669 131.751 60.068 131.174C66.142 125.411 68.607 123.401 74.529 117.533ZM59.42 131.793L75.62 147.993C71.815 151.417 65.69 156.493 65.027 157.027C64.9487 157.106 64.9047 157.213 64.9047 157.324C64.9047 157.435 64.9487 157.542 65.027 157.622C65.1068 157.699 65.2135 157.742 65.3245 157.742C65.4355 157.742 65.5422 157.699 65.622 157.622C67.175 156.374 68.703 155.092 70.222 153.796C72.717 155.069 75.1324 156.492 77.455 158.058C82.0967 161.447 86.4499 165.214 90.47 169.322C94.9607 173.747 98.6518 178.916 101.38 184.601C102.77 187.569 103.572 190.778 103.742 194.051C99.226 193.959 58.842 194.08 58.256 194.083C57.6879 194.099 57.1194 194.07 56.556 193.995C52.407 193.344 46.508 190.776 41.575 186.395C37.264 182.702 33.617 177.367 32.583 171.428C31.607 165.001 34.839 159.244 38.742 154.038C44.9 145.93 52.015 138.827 59.42 131.793Z"></path><path fill="#000000" d="M53.524 97.1006C53.94 97.4406 54.538 96.8496 54.119 96.5066C54.119 96.5066 47.778 91.3186 47.506 91.0946C47.09 90.7556 46.492 91.3466 46.911 91.6896L53.524 97.1006Z"></path><path fill="#000000" d="M40.3 101.376L53.821 101.908C54.363 101.93 54.362 101.088 53.821 101.067L40.3 100.535C39.758 100.514 39.759 101.355 40.3 101.376Z"></path><path fill="#000000" d="M53.609 106.181L47 110.991C46.566 111.307 46.985 112.037 47.424 111.718L54.037 106.907C54.467 106.591 54.048 105.861 53.609 106.181Z"></path><path fill="#000000" d="M156.873 97.1L163.487 91.689C163.906 91.346 163.308 90.754 162.892 91.094C160.96 92.675 156.551 96.282 156.279 96.506C155.86 96.843 156.458 97.436 156.873 97.1Z"></path><path fill="#000000" d="M170.1 100.535L156.578 101.067C156.039 101.088 156.036 101.93 156.578 101.908L170.1 101.376C170.638 101.355 170.64 100.514 170.1 100.535Z"></path><path fill="#000000" d="M156.789 106.182C156.351 105.863 155.93 106.592 156.364 106.908L162.977 111.719C163.415 112.037 163.835 111.308 163.401 110.992L156.789 106.182Z"></path><path fill="#000000" d="M144.775 82.7329C144.872 82.7864 144.986 82.8006 145.093 82.7725C145.2 82.7444 145.293 82.6761 145.351 82.5819C146.053 81.6305 146.755 80.6802 147.458 79.7309C147.513 79.6344 147.528 79.52 147.5 79.4125C147.472 79.3049 147.403 79.2128 147.307 79.1559C147.21 79.1019 147.096 79.0875 146.989 79.1156C146.882 79.1438 146.79 79.2123 146.732 79.3069L144.624 82.1569C144.569 82.2536 144.554 82.368 144.582 82.4756C144.61 82.5833 144.68 82.6756 144.775 82.7329V82.7329Z"></path><path fill="#000000" d="M82.525 87.9059C82.6365 87.902 82.7419 87.854 82.818 87.7724C82.8941 87.6908 82.9348 87.5824 82.931 87.4709C82.9285 87.364 82.8849 87.2622 82.8093 87.1866C82.7337 87.111 82.6319 87.0674 82.525 87.0649C81.7875 87.0686 81.056 86.9329 80.369 86.6649C80.2615 86.636 80.1469 86.6506 80.0501 86.7057C79.9533 86.7607 79.8821 86.8517 79.852 86.9589C79.8246 87.0662 79.8399 87.18 79.8945 87.2763C79.9491 87.3727 80.0389 87.4442 80.145 87.4759C80.9018 87.7763 81.7109 87.9225 82.525 87.9059V87.9059Z"></path><path fill="#000000" d="M83.651 93.9085L81.1 94.0005C80.56 94.0195 80.558 94.8605 81.1 94.8405C81.9507 94.8119 82.8013 94.7819 83.652 94.7505C84.191 94.7305 84.194 93.8895 83.651 93.9085Z"></path><path fill="#000000" d="M124.342 105.07L126.161 104.308C126.267 104.275 126.356 104.204 126.411 104.107C126.465 104.011 126.481 103.897 126.454 103.79C126.439 103.737 126.414 103.687 126.381 103.643C126.347 103.6 126.304 103.563 126.256 103.536C126.208 103.509 126.155 103.491 126.101 103.485C126.046 103.478 125.99 103.482 125.937 103.497L124.119 104.259C124.013 104.291 123.924 104.363 123.869 104.459C123.814 104.555 123.798 104.668 123.825 104.776C123.839 104.829 123.864 104.879 123.898 104.923C123.932 104.967 123.974 105.003 124.022 105.031C124.07 105.058 124.123 105.075 124.178 105.082C124.233 105.089 124.289 105.085 124.342 105.07V105.07Z"></path><path fill="#000000" d="M84.111 118.673C84.9063 118.121 85.673 117.53 86.411 116.902C86.824 116.55 86.227 115.958 85.811 116.307C85.1299 116.888 84.42 117.435 83.684 117.946C83.245 118.253 83.665 118.983 84.111 118.673Z"></path><path fill="#000000" d="M90.784 123.757C91.642 123.068 92.4673 122.341 93.26 121.576C93.65 121.2 93.06 120.606 92.665 120.982C91.873 121.746 91.0477 122.473 90.189 123.162C90.1102 123.241 90.0659 123.348 90.0659 123.46C90.0659 123.571 90.1102 123.678 90.189 123.757C90.2688 123.834 90.3755 123.878 90.4865 123.878C90.5975 123.878 90.7042 123.834 90.784 123.757V123.757Z"></path><path fill="#000000" d="M73.691 141.643C73.791 141.657 73.591 141.482 74.934 143.432C75.234 143.875 75.967 143.455 75.66 143.007C74.367 141.127 74.31 140.889 73.915 140.832C73.8091 140.808 73.6976 140.825 73.604 140.88C73.5104 140.936 73.4419 141.025 73.4129 141.13C73.384 141.235 73.3967 141.347 73.4486 141.443C73.5004 141.539 73.5873 141.61 73.691 141.643Z"></path><path fill="#000000" d="M116.7 133.127C116.794 133.178 116.903 133.191 117.006 133.164C117.109 133.137 117.198 133.071 117.255 132.981C117.67 132.299 118.101 131.627 118.498 130.935C118.525 130.887 118.542 130.833 118.548 130.778C118.553 130.723 118.548 130.668 118.533 130.615C118.517 130.561 118.49 130.512 118.455 130.469C118.42 130.426 118.377 130.391 118.328 130.365C118.234 130.314 118.125 130.301 118.021 130.328C117.918 130.355 117.829 130.42 117.772 130.51C117.358 131.192 116.926 131.864 116.529 132.557C116.502 132.606 116.485 132.659 116.479 132.714C116.473 132.769 116.479 132.825 116.495 132.878C116.51 132.931 116.537 132.981 116.572 133.023C116.607 133.066 116.651 133.101 116.7 133.127V133.127Z"></path><path fill="#000000" d="M123.088 135.466C123.136 135.494 123.188 135.512 123.243 135.52C123.298 135.528 123.354 135.524 123.407 135.51C123.461 135.496 123.511 135.472 123.555 135.438C123.599 135.405 123.636 135.363 123.664 135.315C123.908 134.744 124.223 134.207 124.601 133.715C124.656 133.618 124.671 133.504 124.643 133.397C124.615 133.289 124.546 133.197 124.45 133.14C124.353 133.086 124.239 133.072 124.132 133.1C124.024 133.128 123.932 133.197 123.874 133.291C123.496 133.783 123.182 134.321 122.938 134.891C122.884 134.988 122.87 135.101 122.898 135.208C122.926 135.316 122.994 135.408 123.088 135.466V135.466Z"></path><path fill="#000000" d="M107.844 161.301L106.344 159.201C106.032 158.765 105.302 159.184 105.618 159.626C106.119 160.326 106.619 161.026 107.118 161.726C107.43 162.163 108.16 161.744 107.844 161.301Z"></path></g></svg>