<svg xmlns="http://www.w3.org/2000/svg" fill="none" viewBox="0 0 200 200" height="400" width="400"><g id="coding-a-website-1--development-coding-a-website-1"><g id="color"><g id="group"><path id="vector" fill="#ffc431" d="M28.436 144.673L28.958 170.335C28.9629 170.598 29.0702 170.848 29.2569 171.033C29.4436 171.218 29.6951 171.323 29.958 171.326C157.619 171.341 149.293 171.482 149.731 171.045C149.919 170.857 150.024 170.603 150.024 170.338V144.673H28.436Z"></path><path id="vector_2" fill="#ffe660" d="M28.512 35.072C28.335 37.604 28.436 52.897 28.436 144.672H150.024C150.024 27.493 150.118 34.936 149.871 34.689C149.69 34.4824 149.437 34.3526 149.164 34.326C49.899 34.268 32.335 34.226 29.323 34.369C28.629 34.4 28.556 34.445 28.512 35.072Z"></path><path id="vector_3" fill="#ffffff" d="M148.225 46.086H30.218V97.659H148.225V46.086Z"></path><path id="vector_4" fill="#000000" d="M13.019 120.62C12.919 120.608 6.16901 119.85 5.35901 119.715C4.88001 119.662 4.88001 120.354 5.35901 120.46C5.45901 120.472 12.451 121.27 13.019 121.365C13.5 121.418 13.5 120.675 13.019 120.62Z"></path><path id="vector_5" fill="#000000" d="M7.43401 113.492C7.06101 113.226 6.68901 113.864 7.06101 114.13C9.08101 115.569 13.661 118.918 13.923 119.13C14.296 119.396 14.669 118.758 14.296 118.492C14.093 118.347 9.00601 114.75 7.43401 113.492Z"></path><path id="vector_6" fill="#000000" d="M154.625 77.159C155.105 72.4427 154.689 67.6781 153.4 63.116C153.368 63.0288 153.304 62.9571 153.221 62.9158C153.138 62.8744 153.042 62.8666 152.953 62.894C152.865 62.9213 152.79 62.9818 152.744 63.0627C152.699 63.1437 152.686 63.239 152.709 63.329C154.012 67.8343 154.41 72.5532 153.879 77.213C153.829 77.638 154.571 77.638 154.625 77.159Z"></path><path id="vector_7" fill="#000000" d="M157.87 77.159C158.35 72.4427 157.935 67.6782 156.646 63.116C156.614 63.0288 156.55 62.9571 156.467 62.9158C156.384 62.8744 156.288 62.8666 156.199 62.894C156.11 62.9213 156.036 62.9818 155.99 63.0627C155.945 63.1437 155.932 63.239 155.955 63.329C157.258 67.8343 157.656 72.5532 157.125 77.213C157.074 77.638 157.816 77.638 157.87 77.159Z"></path><path id="vector_8" fill="#ffc431" d="M71 110.46C71.0013 110.378 70.976 110.299 70.9281 110.233C70.8801 110.166 70.812 110.118 70.734 110.094C70.6559 110.07 70.5722 110.072 70.4954 110.099C70.4186 110.127 70.3528 110.179 70.308 110.247C69.381 111.453 62.648 120.407 62.329 120.833C62.3092 120.854 62.2942 120.879 62.285 120.907C62.2759 120.934 62.2728 120.963 62.276 120.992V121.099C62.276 121.241 70.231 132.01 70.308 132.11C70.517 132.379 71 132.323 71 131.95C71 131.259 71.055 111.311 71 110.46Z"></path><path id="vector_9" fill="#ffc431" d="M113.186 120.833C112.281 119.609 105.153 110.194 105.153 110.194C105.122 110.145 105.078 110.104 105.027 110.076C104.976 110.048 104.919 110.034 104.86 110.034C104.802 110.034 104.745 110.048 104.694 110.076C104.643 110.104 104.599 110.145 104.568 110.194C104.468 110.294 104.515 108.994 104.515 131.894C104.518 131.974 104.548 132.051 104.6 132.113C104.651 132.175 104.721 132.219 104.8 132.237C104.878 132.255 104.96 132.247 105.034 132.214C105.107 132.181 105.168 132.125 105.206 132.054C106.081 130.809 112.867 121.628 113.186 121.202C113.212 121.144 113.225 121.081 113.225 121.018C113.225 120.954 113.212 120.891 113.186 120.833V120.833Z"></path><path id="vector_10" fill="#ffc431" d="M79.726 133.28C80.598 131.827 94.089 110.066 94.089 109.874C94.355 109.502 93.716 109.13 93.45 109.502C92.578 110.956 79.088 132.716 79.088 132.908C78.875 133.333 79.513 133.706 79.726 133.28Z"></path><path id="vector_11" fill="#ffc431" d="M101.376 111.9V110.517C101.376 110.418 101.337 110.324 101.267 110.254C101.197 110.184 101.103 110.145 101.004 110.145C100.905 110.145 100.811 110.184 100.741 110.254C100.671 110.324 100.632 110.418 100.632 110.517V111.9C100.632 111.999 100.671 112.093 100.741 112.163C100.811 112.233 100.905 112.272 101.004 112.272C101.103 112.272 101.197 112.233 101.267 112.163C101.337 112.093 101.376 111.999 101.376 111.9V111.9Z"></path><path id="vector_12" fill="#ffc431" d="M97.919 135.993C98.4283 135.978 98.928 135.851 99.3829 135.622C99.8378 135.392 100.237 135.066 100.551 134.665C100.866 134.264 101.089 133.799 101.205 133.303C101.32 132.807 101.325 132.291 101.219 131.793C101.191 131.701 101.127 131.624 101.042 131.58C100.957 131.535 100.858 131.525 100.767 131.553C100.675 131.582 100.598 131.645 100.553 131.73C100.508 131.815 100.499 131.914 100.527 132.006C100.608 132.398 100.603 132.804 100.511 133.194C100.419 133.584 100.242 133.949 99.9937 134.264C99.7453 134.578 99.431 134.835 99.0729 135.015C98.7148 135.195 98.3216 135.294 97.921 135.306C97.8724 135.3 97.8231 135.304 97.7764 135.319C97.7296 135.333 97.6865 135.357 97.6497 135.39C97.613 135.422 97.5836 135.462 97.5634 135.506C97.5432 135.551 97.5326 135.599 97.5325 135.648C97.5324 135.697 97.5426 135.746 97.5626 135.79C97.5825 135.835 97.6117 135.875 97.6482 135.908C97.6848 135.94 97.7278 135.965 97.7745 135.979C97.8211 135.994 97.8704 135.999 97.919 135.993Z"></path><path id="vector_13" fill="#ffc431" d="M143.347 103.385C144.465 102.427 145.582 101.523 146.699 100.565C147.071 100.246 146.539 99.765 146.167 100.033C145.05 100.991 143.933 101.895 142.815 102.853C142.443 103.172 142.975 103.7 143.347 103.385Z"></path><path id="vector_14" fill="#ffc431" d="M32.382 101.47C32.063 101.15 31.582 101.629 31.85 102.001C32.914 103.172 34.004 104.421 35.095 105.566C35.407 105.892 35.895 105.406 35.627 105.034C34.563 103.863 33.446 102.693 32.382 101.47Z"></path><path id="vector_15" fill="#000000" d="M101.642 153.548H133.613C133.708 153.543 133.798 153.502 133.864 153.432C133.93 153.363 133.967 153.271 133.967 153.175C133.967 153.08 133.93 152.988 133.864 152.919C133.798 152.849 133.708 152.808 133.613 152.803H101.642C101.547 152.808 101.457 152.849 101.391 152.919C101.325 152.988 101.288 153.08 101.288 153.175C101.288 153.271 101.325 153.363 101.391 153.432C101.457 153.502 101.547 153.543 101.642 153.548V153.548Z"></path><path id="vector_16" fill="#000000" d="M133.56 157.537H101.8C101.705 157.542 101.615 157.583 101.549 157.653C101.483 157.722 101.446 157.814 101.446 157.909C101.446 158.005 101.483 158.097 101.549 158.166C101.615 158.236 101.705 158.277 101.8 158.282H133.56C133.655 158.277 133.745 158.236 133.811 158.166C133.877 158.097 133.914 158.005 133.914 157.909C133.914 157.814 133.877 157.722 133.811 157.653C133.745 157.583 133.655 157.542 133.56 157.537Z"></path><path id="vector_17" fill="#000000" d="M133.347 162.218H101.855C101.76 162.223 101.67 162.264 101.604 162.334C101.538 162.403 101.501 162.495 101.501 162.591C101.501 162.686 101.538 162.778 101.604 162.847C101.67 162.917 101.76 162.958 101.855 162.963H133.347C133.442 162.958 133.532 162.917 133.598 162.847C133.664 162.778 133.701 162.686 133.701 162.591C133.701 162.495 133.664 162.403 133.598 162.334C133.532 162.264 133.442 162.223 133.347 162.218Z"></path><path id="vector_18" fill="#ffaaaa" d="M31.212 169.24C32.223 168.389 33.226 167.529 34.191 166.687C34.56 166.364 34.031 165.887 33.659 166.155C32.648 167.006 31.638 167.855 30.68 168.708C30.361 169.027 30.893 169.559 31.212 169.24Z"></path><path id="vector_19" fill="#ffe660" d="M16.424 171C16.424 171.099 16.4632 171.193 16.533 171.263C16.6027 171.333 16.6974 171.372 16.796 171.372C16.8947 171.372 16.9893 171.333 17.0591 171.263C17.1288 171.193 17.168 171.099 17.168 171V149.079C16.902 148.179 16.636 147.217 16.424 146.313V171Z"></path><path id="vector_20" fill="#ffe660" d="M22.594 158.974V171C22.5989 171.095 22.6403 171.185 22.7097 171.251C22.779 171.317 22.8709 171.354 22.9665 171.354C23.0621 171.354 23.154 171.317 23.2233 171.251C23.2926 171.185 23.334 171.095 23.339 171V159.771C22.836 159.268 23.082 159.461 22.594 158.974Z"></path><path id="vector_21" fill="#ffe660" d="M17.168 131.472V24.124H135.794C135.889 24.1191 135.979 24.0777 136.045 24.0084C136.111 23.939 136.148 23.8471 136.148 23.7515C136.148 23.6559 136.111 23.564 136.045 23.4947C135.979 23.4254 135.889 23.384 135.794 23.379H16.956C16.9033 23.3605 16.8471 23.3544 16.7917 23.3614C16.7363 23.3683 16.6833 23.388 16.6369 23.4189C16.5904 23.4499 16.5518 23.4912 16.524 23.5396C16.4963 23.5881 16.4802 23.6423 16.477 23.698V134.185C16.6435 133.266 16.8744 132.359 17.168 131.472Z"></path><path id="vector_22" fill="#ffe660" d="M141.539 29.284H22.754C22.6621 29.3021 22.5776 29.3471 22.5114 29.4134C22.4451 29.4796 22.4001 29.5641 22.382 29.656V123.705C22.621 123.515 22.8693 123.338 23.126 123.173V30.028H141.539C141.638 30.028 141.732 29.9888 141.802 29.919C141.872 29.8493 141.911 29.7547 141.911 29.656C141.911 29.5573 141.872 29.4627 141.802 29.393C141.732 29.3232 141.638 29.284 141.539 29.284Z"></path><path id="vector_23" fill="#ffe660" d="M35.148 51.785C35.471 52.101 36.003 51.569 35.68 51.253C34.523 50.123 33.327 49.033 32.223 47.953C31.9 47.638 31.368 48.17 31.691 48.485C32.8 49.565 33.991 50.655 35.148 51.785Z"></path><path id="vector_24" fill="#ffe660" d="M144.145 51.626C145.223 50.526 146.313 49.378 147.39 48.274C147.453 48.202 147.486 48.1088 147.483 48.0131C147.48 47.9175 147.441 47.8266 147.373 47.759C147.305 47.6913 147.215 47.6519 147.119 47.6488C147.023 47.6456 146.93 47.6789 146.858 47.742C145.794 48.859 144.677 49.977 143.613 51.094C143.347 51.466 143.83 51.949 144.145 51.626Z"></path><path id="vector_25" fill="#ffc431" d="M137.549 38.008H145.741C145.836 38.0031 145.926 37.9616 145.992 37.8923C146.058 37.823 146.095 37.7311 146.095 37.6355C146.095 37.5399 146.058 37.448 145.992 37.3787C145.926 37.3094 145.836 37.2679 145.741 37.263H137.549C137.124 37.263 137.07 38.008 137.549 38.008Z"></path><path id="vector_26" fill="#ffc431" d="M137.549 40.614H145.741C145.836 40.6091 145.926 40.5677 145.992 40.4984C146.058 40.429 146.095 40.3371 146.095 40.2415C146.095 40.1459 146.058 40.054 145.992 39.9847C145.926 39.9154 145.836 39.874 145.741 39.869H137.549C137.124 39.923 137.07 40.614 137.549 40.614Z"></path><path id="vector_27" fill="#ffc431" d="M137.549 43.221H145.741C145.836 43.2161 145.926 43.1747 145.992 43.1053C146.058 43.036 146.095 42.9441 146.095 42.8485C146.095 42.7529 146.058 42.661 145.992 42.5917C145.926 42.5224 145.836 42.481 145.741 42.476H137.549C137.124 42.529 137.07 43.221 137.549 43.221Z"></path><path id="vector_28" fill="#ffc431" d="M44.67 42.05C44.008 41.076 41.699 37.544 41.638 37.422C41.6007 37.3727 41.5525 37.3328 41.4971 37.3052C41.4418 37.2777 41.3808 37.2634 41.319 37.2634C41.2572 37.2634 41.1962 37.2777 41.1408 37.3052C41.0855 37.3328 41.0373 37.3727 41 37.422C37.947 42.193 37.751 42.1 38.074 42.422C38.187 42.648 37.849 42.581 44.351 42.581C44.4115 42.5766 44.4701 42.5577 44.5218 42.5259C44.5736 42.494 44.6169 42.4503 44.6481 42.3982C44.6794 42.3462 44.6977 42.2874 44.7015 42.2268C44.7053 42.1662 44.6945 42.1056 44.67 42.05V42.05Z"></path><path id="vector_29" fill="#ffc431" d="M49.352 37.2631C48.798 37.0547 48.1926 37.0252 47.6209 37.1787C47.0492 37.3322 46.54 37.661 46.1648 38.1188C45.7896 38.5767 45.5673 39.1405 45.5291 39.7312C45.491 40.3219 45.6389 40.9097 45.952 41.4121C46.2718 41.9468 46.7589 42.3612 47.338 42.5912C47.917 42.8213 48.5558 42.854 49.1553 42.6845C49.7549 42.515 50.2819 42.1526 50.6547 41.6534C51.0276 41.1542 51.2256 40.5461 51.218 39.9231C51.2125 39.343 51.0312 38.7782 50.698 38.3033C50.3649 37.8284 49.8956 37.4657 49.352 37.2631V37.2631Z"></path><path id="vector_30" fill="#ffc431" d="M58.288 37.2631H53.288C53.2388 37.2618 53.1899 37.2706 53.1442 37.2888C53.0985 37.3071 53.057 37.3345 53.0222 37.3693C52.9874 37.404 52.9601 37.4456 52.9418 37.4912C52.9235 37.5369 52.9148 37.5859 52.916 37.635V42.635C52.9148 42.6842 52.9235 42.7332 52.9418 42.7789C52.9601 42.8246 52.9874 42.8661 53.0222 42.9008C53.057 42.9356 53.0985 42.963 53.1442 42.9813C53.1899 42.9995 53.2388 43.0083 53.288 43.0071C58.824 43.0071 58.349 43.0521 58.501 42.9011C58.653 42.7501 58.607 43.2071 58.607 37.6871C58.6238 37.6375 58.6283 37.5846 58.6201 37.533C58.6118 37.4813 58.5911 37.4325 58.5596 37.3907C58.5282 37.3489 58.487 37.3154 58.4396 37.2932C58.3923 37.2709 58.3403 37.2606 58.288 37.2631V37.2631Z"></path><path id="vector_31" fill="#c0c195" d="M92.652 98.225C87.11 95.453 81.227 88.046 73.609 84.766C63.609 80.46 48.715 83.445 37.276 85.566C37.2065 85.5827 37.1337 85.5793 37.0662 85.5561C36.9986 85.5329 36.939 85.4909 36.8944 85.4351C36.8498 85.3793 36.822 85.3119 36.8144 85.2409C36.8067 85.1698 36.8194 85.0981 36.851 85.034C36.904 84.981 36.904 84.928 36.957 84.875C35.148 85.247 33.393 85.619 31.638 85.992C31.561 86.0194 31.4942 86.0697 31.4466 86.1363C31.399 86.2028 31.373 86.2823 31.372 86.364V98.064C31.3708 98.1132 31.3795 98.1621 31.3978 98.2078C31.4161 98.2535 31.4434 98.295 31.4782 98.3298C31.513 98.3646 31.5545 98.392 31.6002 98.4102C31.6459 98.4285 31.6948 98.4372 31.744 98.436C97.421 98.437 93.3 98.549 92.652 98.225Z"></path><path id="vector_32" fill="#c0c195" d="M59.884 85.724H64.459C64.5545 85.7191 64.6444 85.6777 64.7102 85.6083C64.776 85.539 64.8127 85.4471 64.8127 85.3515C64.8127 85.2559 64.776 85.164 64.7102 85.0947C64.6444 85.0254 64.5545 84.984 64.459 84.979H59.884C59.459 84.979 59.459 85.724 59.884 85.724Z"></path><path id="vector_33" fill="#6596e1" d="M88.184 51.572C88.184 51.413 87.971 51.306 87.812 51.306H81.428C81.162 51.306 81.056 51.519 81.056 51.785C81.269 53.385 83.024 65.403 83.13 65.985C83.13 66.145 83.343 66.251 83.503 66.251H89.886C89.9632 66.2564 90.0395 66.2317 90.099 66.1822C90.1584 66.1326 90.1964 66.062 90.205 65.985C90.205 64.986 88.2 51.673 88.184 51.572Z"></path><path id="vector_34" fill="#c0c195" d="M101.217 78.064C101.164 78.01 100.525 77.425 100.259 77.213C100.249 77.2799 100.218 77.3417 100.17 77.3895C100.122 77.4372 100.06 77.4682 99.993 77.478H95.1C93.39 77.478 93.61 77.69 92.866 76.947C91.802 75.883 86.057 70.031 85.738 69.659C78.713 67.459 70.718 67.024 68.662 67.318C58.645 67.711 48.062 73.204 41.054 79.979C39.4743 81.4392 38.0956 83.1027 36.954 84.926C36.9227 84.9902 36.9103 85.0619 36.9182 85.1329C36.9261 85.2039 36.954 85.2711 36.9986 85.3269C37.0432 85.3826 37.1028 85.4245 37.1703 85.4477C37.2378 85.4709 37.3106 85.4745 37.38 85.458C47.869 83.565 63.529 80.276 73.712 84.658C81.383 87.958 86.912 95.192 93.075 98.276C95.6057 99.5836 98.2605 100.636 101 101.416C101.057 101.429 101.115 101.429 101.172 101.417C101.229 101.404 101.282 101.379 101.328 101.344C101.374 101.308 101.411 101.263 101.437 101.211C101.463 101.159 101.478 101.102 101.479 101.044C101.483 79.32 101.707 78.554 101.217 78.064Z"></path><path id="vector_35" fill="#c0c195" d="M59.618 71.733C61.207 71.233 62.818 70.805 64.406 70.244C64.834 70.092 64.674 69.4 64.193 69.552C62.605 70.052 61.001 70.51 59.405 71.042C58.98 71.148 59.137 71.886 59.618 71.733Z"></path><path id="vector_36" fill="#000000" d="M29.35 79.394C28.8472 77.3268 28.0597 75.3395 27.01 73.489C26.9674 73.4246 26.9062 73.3747 26.8345 73.346C26.7628 73.3173 26.6841 73.3112 26.6088 73.3285C26.5336 73.3458 26.4654 73.3856 26.4134 73.4427C26.3614 73.4999 26.3281 73.5715 26.318 73.648V99.182C26.3226 99.2619 26.3529 99.3382 26.4045 99.3993C26.4561 99.4605 26.5261 99.5033 26.604 99.5214C26.682 99.5394 26.7637 99.5316 26.8369 99.4993C26.9101 99.467 26.9708 99.4118 27.01 99.342C27.9987 97.1175 28.7657 94.801 29.3 92.426C30.2348 88.1341 30.2518 83.693 29.35 79.394V79.394Z"></path><path id="vector_37" fill="#ffc431" d="M145.422 65.137C144.711 63.7136 143.693 62.4651 142.442 61.481C141.192 60.497 139.739 59.8017 138.188 59.445C137.12 59.2319 136.027 59.1783 134.943 59.286C134.868 59.289 134.796 59.3167 134.738 59.3648C134.68 59.4129 134.64 59.4787 134.623 59.552C134.34 60.2297 133.923 60.8429 133.396 61.3544C132.869 61.866 132.244 62.2653 131.558 62.528C130.131 63.0054 128.597 63.0627 127.138 62.693C126.539 63.2333 125.982 63.8194 125.474 64.446C123.305 67.029 121.574 70.575 121.218 70.935C121.308 71.16 122.967 74.348 123.186 74.766C123.224 74.8311 123.247 74.9036 123.254 74.9785C123.261 75.0535 123.251 75.129 123.226 75.1998C123.2 75.2707 123.16 75.3351 123.107 75.3887C123.054 75.4423 122.99 75.4837 122.92 75.51L108.664 82.745C108.605 82.7733 108.541 82.7872 108.476 82.7856C108.411 82.784 108.347 82.7669 108.29 82.7357C108.232 82.7045 108.184 82.6602 108.147 82.6063C108.11 82.5525 108.087 82.4907 108.079 82.426C107.987 81.6848 107.952 80.9377 107.973 80.191C105.613 79.8432 103.318 79.1441 101.164 78.117C101.44 78.393 101.323 76.677 101.323 101.363C101.32 101.421 101.305 101.477 101.279 101.528C101.252 101.579 101.215 101.624 101.169 101.66C101.124 101.695 101.071 101.72 101.015 101.733C100.959 101.747 100.901 101.747 100.844 101.736C106.688 102.773 112.641 103.059 118.558 102.587C123.525 102.141 128.372 100.808 132.868 98.65C135.412 97.3099 137.773 95.6461 139.89 93.7C147.941 86.071 149.68 73.9 145.422 65.137Z"></path><path id="vector_38" fill="#000000" d="M132.442 53.381C131.859 51.495 131.196 48.533 129.304 47.902C128.901 47.7752 128.465 47.803 128.082 47.9799C127.698 48.1568 127.394 48.4702 127.229 48.859C126.873 49.876 128.029 50.725 128.666 51.306C129.68 52.2072 130.765 53.0255 131.91 53.753C131.937 53.7765 131.969 53.7939 132.003 53.804C132.037 53.8142 132.073 53.8168 132.109 53.8118C132.144 53.8068 132.178 53.7942 132.208 53.7749C132.238 53.7556 132.264 53.7301 132.283 53.7C132.389 53.7 132.492 53.542 132.442 53.381Z"></path><path id="vector_39" fill="#ffaaaa" d="M123.559 98.331C134.259 97.989 145.008 86.785 145.103 71.731C145.103 71.199 145.103 70.667 145.103 70.189C145.098 70.0936 145.057 70.0037 144.987 69.9378C144.918 69.872 144.826 69.8353 144.73 69.8353C144.635 69.8353 144.543 69.872 144.474 69.9378C144.404 70.0037 144.363 70.0936 144.358 70.189C144.446 74.2265 143.797 78.2462 142.443 82.051C139.233 90.819 131.969 96.442 125.208 97.478C123.243 97.7774 121.236 97.6579 119.32 97.1275C117.404 96.597 115.622 95.6675 114.09 94.4C111.35 91.9303 109.61 88.5432 109.196 84.878C109.135 84.453 109.087 84.027 109.037 83.601C109.032 83.5056 108.991 83.4157 108.921 83.3498C108.852 83.284 108.76 83.2473 108.664 83.2473C108.569 83.2473 108.477 83.284 108.408 83.3498C108.338 83.4157 108.297 83.5056 108.292 83.601C108.717 87.325 109.857 91.076 112.441 93.868C113.877 95.3504 115.609 96.5139 117.525 97.2828C119.44 98.0518 121.496 98.4089 123.559 98.331V98.331Z"></path><path id="vector_40" fill="#ffaaaa" d="M119.569 94.554C120.163 94.912 120.793 95.354 121.378 95.724C121.75 95.99 122.123 95.352 121.75 95.086C121.165 94.714 120.535 94.274 119.942 93.916C119.574 93.694 119.2 94.333 119.569 94.554Z"></path><path id="vector_41" fill="#ffaaaa" d="M131.509 62.563C132.935 61.982 134.073 60.8614 134.677 59.445C134.758 59.3802 134.848 59.3267 134.943 59.286C132.093 59.735 129.405 60.9081 127.138 62.693C128.579 63.0512 130.091 63.0063 131.509 62.563V62.563Z"></path><path id="vector_42" fill="#ffaaaa" d="M108.079 80.83C108.088 81.3455 108.123 81.8602 108.185 82.372C108.188 82.439 108.209 82.504 108.244 82.5609C108.28 82.6177 108.329 82.6644 108.388 82.6966C108.447 82.7287 108.513 82.7452 108.58 82.7444C108.647 82.7436 108.713 82.7256 108.771 82.692L123.027 75.457C123.152 75.3843 123.248 75.2696 123.296 75.1332C123.345 74.9968 123.344 74.8476 123.293 74.712C120.525 69.454 118.275 64.003 114.622 60.669C111.868 58.155 107.922 56.855 104.355 58.009C102.161 58.7719 100.012 59.66 97.919 60.669C97.2657 60.9889 96.6866 61.4419 96.219 61.999C95.9936 62.2889 95.8381 62.6267 95.7644 62.9864C95.6906 63.3461 95.7008 63.7179 95.794 64.073C95.995 64.5126 96.3293 64.8776 96.7496 65.1164C97.1698 65.3551 97.6546 65.4554 98.135 65.403C99.092 65.35 103.826 62.584 104.678 62.211C102.698 63.3883 100.78 64.667 98.932 66.042C98.6538 66.3368 98.4468 66.6915 98.327 67.0788C98.2072 67.4661 98.1778 67.8756 98.241 68.276C98.507 69.606 100.103 70.297 101.433 70.084C102.763 69.871 107.124 67.371 108.188 66.573C107.763 67.318 104.309 69.873 103.72 70.51C103.372 70.7812 103.143 71.178 103.083 71.6155C103.024 72.053 103.138 72.4965 103.401 72.851C103.677 73.27 104.571 73.489 105.101 73.595C106.203 73.5121 107.282 73.2416 108.293 72.795C108.24 74.285 107.974 77.0501 108.027 80.1891C108.029 80.3511 108.079 80.564 108.079 80.83Z"></path><path id="vector_43" fill="#ffaaaa" d="M126.91 54.605C126.508 55.1011 126.266 55.7083 126.219 56.3454C126.171 56.9824 126.32 57.6187 126.644 58.169C126.982 58.7319 127.491 59.1725 128.096 59.4271C128.702 59.6817 129.372 59.737 130.011 59.5852C130.65 59.4333 131.224 59.0821 131.65 58.5823C132.076 58.0826 132.332 57.4602 132.381 56.8053C132.43 56.1504 132.269 55.4969 131.922 54.9395C131.575 54.382 131.06 53.9495 130.45 53.7045C129.841 53.4594 129.169 53.4146 128.533 53.5765C127.897 53.7384 127.328 54.0986 126.91 54.605V54.605Z"></path><path id="vector_44" fill="#c0c195" d="M64.619 141.206C63.251 139.768 52.934 128.943 51.373 127.695C51.02 128.048 50.723 128.465 50.522 128.595C50.2395 132.419 50.2218 136.258 50.469 140.085C50.4776 140.174 50.4674 140.263 50.4391 140.347C50.4107 140.431 50.3649 140.509 50.3046 140.574C50.2442 140.64 50.1707 140.691 50.089 140.726C50.0072 140.761 49.9189 140.779 49.83 140.777L34.457 141.415C34.3626 141.419 34.2683 141.404 34.1797 141.372C34.091 141.339 34.0097 141.289 33.9404 141.225C33.8711 141.161 33.8153 141.083 33.7761 140.997C33.7369 140.911 33.7151 140.818 33.712 140.724C33.499 137.479 33.34 134.234 33.18 130.824C30.98 129.812 25.794 127.262 27.222 125.292C27.4224 125.047 27.6736 124.849 27.9584 124.71C28.2432 124.572 28.5546 124.498 28.871 124.492C30.5362 124.462 32.1643 124.986 33.499 125.982C33.8348 126.202 34.2216 126.332 34.6222 126.36C35.0229 126.388 35.4239 126.313 35.787 126.141C38.603 124.688 40.969 120.905 41.213 120.662C39.1388 119.962 36.965 119.603 34.776 119.598C27.076 119.818 19.588 123.606 17.009 131.514C15.2739 137.239 15.2923 143.353 17.062 149.068C19.879 157.646 25.582 163.058 30.895 164.525C38.727 166.687 49.661 164.17 51.542 151.118L52.118 151.834C52.1376 151.876 52.1671 151.913 52.2041 151.94C52.241 151.968 52.2843 151.987 52.33 151.994C52.437 152.047 52.543 151.994 52.65 151.888C53.91 150.778 63.582 142.548 64.633 141.647C64.734 141.572 64.794 141.557 64.619 141.206Z"></path><path id="vector_45" fill="#6596e1" d="M33.819 150.569C33.819 150.668 33.8582 150.762 33.928 150.832C33.9977 150.902 34.0923 150.941 34.191 150.941C34.2897 150.941 34.3843 150.902 34.454 150.832C34.5238 150.762 34.563 150.668 34.563 150.569C34.51 147.961 34.363 145.298 34.138 142.696C34.1331 142.601 34.0917 142.511 34.0223 142.445C33.953 142.379 33.8611 142.342 33.7655 142.342C33.6699 142.342 33.578 142.379 33.5087 142.445C33.4394 142.511 33.398 142.601 33.393 142.696C33.553 145.3 33.765 147.907 33.819 150.569Z"></path><path id="vector_46" fill="#6596e1" d="M36.159 162.218H32.382C32.2866 162.223 32.1966 162.264 32.1308 162.334C32.065 162.403 32.0283 162.495 32.0283 162.591C32.0283 162.686 32.065 162.778 32.1308 162.847C32.1966 162.917 32.2866 162.958 32.382 162.963H36.159C36.2545 162.958 36.3444 162.917 36.4102 162.847C36.476 162.778 36.5127 162.686 36.5127 162.591C36.5127 162.495 36.476 162.403 36.4102 162.334C36.3444 162.264 36.2545 162.223 36.159 162.218Z"></path><path id="vector_47" fill="#6596e1" d="M56.586 138.015C56.853 138.386 57.486 138.015 57.224 137.642C56.524 136.642 55.841 135.674 55.203 134.663C54.937 134.291 54.303 134.663 54.565 135.036C55.266 136.039 55.9 137.055 56.586 138.015Z"></path><path id="vector_48" fill="#6596e1" d="M94.621 158.442C83.854 158.442 84.734 158.373 84.621 158.601C84.504 158.718 77.435 169.083 76.321 170.623C76.2561 170.67 76.2075 170.736 76.182 170.811C76.1565 170.887 76.1554 170.969 76.1789 171.046C76.2025 171.122 76.2494 171.189 76.3131 171.237C76.3768 171.286 76.4541 171.313 76.534 171.315C87.282 171.315 85.401 171.545 86.163 170.783C86.216 170.73 86.269 170.676 86.269 170.623C87.009 169.636 86.792 169.801 89.569 166.208C91.403 163.834 93.24 161.474 94.942 158.974C94.9609 158.918 94.9674 158.859 94.961 158.8C94.9546 158.741 94.9354 158.684 94.9049 158.634C94.8743 158.583 94.8331 158.54 94.7841 158.507C94.7351 158.473 94.6794 158.451 94.621 158.442V158.442Z"></path><path id="vector_49" fill="#6596e1" d="M74.566 170.623H61.693C61.5975 170.628 61.5076 170.669 61.4418 170.739C61.376 170.808 61.3393 170.9 61.3393 170.996C61.3393 171.091 61.376 171.183 61.4418 171.252C61.5076 171.322 61.5975 171.363 61.693 171.368H74.566C74.6614 171.363 74.7514 171.322 74.8172 171.252C74.883 171.183 74.9197 171.091 74.9197 170.996C74.9197 170.9 74.883 170.808 74.8172 170.739C74.7514 170.669 74.6614 170.628 74.566 170.623Z"></path><path id="vector_50" fill="#ffaaaa" d="M29.35 119.237C31.372 118.652 32.905 116.055 30.84 114.237C30.5422 113.963 30.1871 113.759 29.8005 113.639C29.4139 113.52 29.0055 113.488 28.605 113.546C26.478 113.918 24.748 116.71 26.637 118.546C26.9905 118.886 27.4265 119.129 27.9021 119.25C28.3777 119.371 28.8767 119.367 29.35 119.237V119.237Z"></path><path id="vector_51" fill="#000000" d="M30.68 107.853C30.371 106.409 28.753 105.653 27.01 107.481C25.638 108.922 25.133 111.297 24.456 113.917C24.4326 113.999 24.4401 114.087 24.4771 114.164C24.5141 114.24 24.5781 114.301 24.6567 114.334C24.7354 114.367 24.8234 114.369 24.904 114.342C24.9846 114.314 25.0522 114.257 25.094 114.183C26.136 112.816 28.079 112.741 29.244 111.577C29.7903 111.138 30.2108 110.562 30.463 109.908C30.7152 109.254 30.79 108.545 30.68 107.853V107.853Z"></path><path id="vector_52" fill="#ffaaaa" d="M35.84 126.152C35.4798 126.334 35.0772 126.415 34.6746 126.387C34.2721 126.359 33.8846 126.223 33.553 125.993C29.243 123.146 26.193 124.872 27.222 126.737C28.131 128.384 31.265 129.929 33.233 130.837C33.393 134.242 33.685 137.484 33.765 140.737C33.7805 140.924 33.8655 141.099 34.0034 141.227C34.1412 141.355 34.322 141.427 34.51 141.428C51.189 141.081 49.839 140.838 50.149 140.683C50.263 140.624 50.3554 140.531 50.4129 140.416C50.4704 140.301 50.49 140.172 50.469 140.045C50.2391 136.218 50.2568 132.38 50.522 128.555C50.6321 128.418 50.7568 128.293 50.894 128.183C51.054 128.023 51.213 127.81 51.373 127.651C53.757 125.267 56.373 123.651 55.682 121.64C55.582 121.311 55.3962 121.014 55.1437 120.78C54.8912 120.547 54.581 120.384 54.245 120.31C53.345 120.166 52.228 121.477 49.032 124.033C49.763 121.841 52.911 120.051 52.332 117.384C52.2543 116.948 52.0349 116.551 51.708 116.252C51.3811 115.954 50.9649 115.772 50.524 115.735C48.618 115.735 47.324 119.478 45.524 121.959C46.6703 120.198 47.3819 118.19 47.6 116.1C47.6391 115.844 47.6213 115.583 47.5478 115.335C47.4744 115.086 47.3471 114.857 47.175 114.664C46.9105 114.441 46.5805 114.309 46.2347 114.29C45.889 114.271 45.5465 114.365 45.259 114.558C43.822 115.472 42.35 119.468 39.993 122.218C38.9316 123.833 37.51 125.18 35.84 126.152V126.152Z"></path><path id="vector_53" fill="#ffaaaa" d="M45.043 123.652C45.259 123.228 44.624 122.858 44.404 123.28C43.7297 124.569 42.8695 125.752 41.851 126.79C41.536 127.114 42.068 127.645 42.383 127.322C43.4493 126.239 44.346 125.002 45.043 123.652V123.652Z"></path><path id="vector_54" fill="#ffaaaa" d="M45.787 127.8C45.468 128.119 46.005 128.656 46.319 128.332C47.1213 127.505 47.7539 126.53 48.181 125.46C48.394 125.034 47.756 124.66 47.543 125.087C47.1036 126.078 46.511 126.993 45.787 127.8V127.8Z"></path><path id="vector_55" fill="#ffaaaa" d="M67.385 144.451C63.964 140.83 64.874 141.685 64.565 141.685C63.355 142.761 53.765 150.875 52.596 151.899C52.5541 151.939 52.5037 151.97 52.4485 151.988C52.3933 152.006 52.3347 152.012 52.277 152.005C53.767 154.133 54.618 155.356 55.841 157.005C54.941 158.229 54.07 159.441 53.182 160.676C52.3551 161.653 51.788 162.822 51.533 164.076C51.4167 164.708 51.5366 165.36 51.87 165.91C52.2033 166.459 52.7268 166.867 53.341 167.055C54.561 167.288 55.668 166.298 56.533 165.406C57.79 164.106 59.086 162.8 60.363 161.523C61.64 161.683 62.626 163.073 63.023 164.289C63.423 165.521 63.484 166.796 63.923 168.013C64.89 170.666 68.711 170.902 68.764 167.108C68.7869 165.08 68.6623 163.054 68.391 161.044C69.349 162.8 70.3 164.559 71.264 166.311C71.792 167.27 72.594 168.391 73.658 168.279C74.616 168.179 75.198 167.214 75.413 166.257C75.939 163.915 75.041 161.629 74.03 159.448C74.9845 160.61 76.1152 161.615 77.381 162.427C77.6857 162.685 78.0468 162.867 78.4351 162.96C78.8233 163.052 79.2278 163.052 79.616 162.959C80.41 162.63 81.431 161.359 81.211 160.512C81.005 159.712 80.267 158.692 78.658 156.789C77.587 155.52 68.5 145.842 67.385 144.451Z"></path><path id="vector_56" fill="#ffaaaa" d="M65.363 155.25C64.991 154.984 64.619 155.622 64.991 155.888C65.8544 156.407 66.5691 157.14 67.066 158.016C67.289 158.436 67.917 158.069 67.704 157.644C67.138 156.661 66.3327 155.838 65.363 155.25Z"></path><path id="vector_57" fill="#ffaaaa" d="M72.279 156.473C72.3329 156.548 72.4127 156.6 72.5029 156.619C72.5931 156.638 72.6872 156.623 72.7668 156.577C72.8465 156.53 72.906 156.456 72.9337 156.368C72.9615 156.28 72.9555 156.185 72.917 156.101C72.2348 154.974 71.3511 153.982 70.31 153.175C69.945 152.9 69.563 153.498 69.938 153.814C70.8652 154.559 71.6571 155.459 72.279 156.473V156.473Z"></path><path id="vector_58" fill="#000000" d="M177.264 175.754C172.597 172.792 166.155 173.089 161.487 175.89C161.422 175.932 161.372 175.994 161.344 176.065C161.315 176.137 161.309 176.216 161.326 176.291C161.344 176.367 161.384 176.435 161.441 176.487C161.498 176.538 161.57 176.571 161.647 176.581C173.908 176.581 176.547 176.608 177.147 176.581C177.633 176.555 177.756 176.066 177.264 175.754Z"></path><path id="vector_59" fill="#000000" d="M194.638 175.741C189.973 172.793 183.543 173.093 178.882 175.89C178.817 175.932 178.767 175.993 178.739 176.065C178.71 176.137 178.704 176.216 178.721 176.291C178.738 176.366 178.778 176.434 178.835 176.486C178.893 176.538 178.964 176.571 179.041 176.581C191.049 176.581 193.829 176.607 194.499 176.581C195.116 176.556 195.137 176.056 194.638 175.741Z"></path><path id="vector_60" fill="#ffd7d7" d="M166.434 130.461H166.381C166.649 130.55 166.651 130.803 167.073 131.361C167.558 132.332 168.653 133.661 168.243 134.979C168.108 135.306 167.889 135.592 167.608 135.807C167.327 136.021 166.994 136.158 166.643 136.202C166.121 136.221 165.605 136.092 165.153 135.83C163.337 134.619 162.497 131.901 159.994 130.297C159.928 130.261 159.876 130.204 159.846 130.135C159.816 130.066 159.81 129.99 159.828 129.917C159.846 129.844 159.888 129.779 159.946 129.732C160.005 129.686 160.078 129.66 160.153 129.659C156.246 129.884 152.484 131.212 149.301 133.489C149.248 133.489 149.248 133.542 149.195 133.595C145.771 136.48 143.273 140.31 142.014 144.607C141.773 145.807 139.414 152.17 143.024 156.682C142.459 161.482 144.594 168.552 148.344 171.364C149.664 172.331 151.232 172.903 152.865 173.013H153.876C153.663 173.013 153.557 172.854 153.504 172.641C153.087 168.977 153.158 165.274 153.716 161.629C155.174 153.129 160.768 144.686 169.409 144.341H170.26C170.308 144.241 174.569 135.79 174.569 135.67C174.669 135.47 174.979 135.51 175.369 135.51C172.8 133.188 169.749 131.463 166.434 130.461V130.461Z"></path><path id="vector_61" fill="#ffaaaa" d="M151.008 145.356C150.636 145.623 151.008 146.256 151.38 145.994C157.08 142.016 165.015 140.651 171.754 141.1L172.073 140.462C172.048 140.429 172.016 140.403 171.979 140.384C171.942 140.366 171.901 140.356 171.86 140.355C162.941 139.777 154.992 142.483 151.008 145.356Z"></path><path id="vector_62" fill="#ffaaaa" d="M150.954 159.293C151.87 159.066 152.748 158.708 153.561 158.229C153.637 158.176 153.691 158.096 153.711 158.005C153.73 157.914 153.716 157.819 153.669 157.739C153.622 157.658 153.547 157.598 153.458 157.571C153.369 157.543 153.273 157.55 153.189 157.59C149.583 159.754 145.352 158.855 143.667 156.207C143.401 155.835 142.812 156.207 143.028 156.58C144.17 158.529 147.47 160.129 150.954 159.293Z"></path><path id="vector_63" fill="#ffaaaa" d="M167.711 132.589C167.521 132.208 166.592 130.408 166.168 130.408C164.185 129.811 162.122 129.524 160.051 129.557C159.981 129.566 159.915 129.597 159.862 129.644C159.809 129.691 159.772 129.753 159.755 129.822C159.737 129.89 159.741 129.963 159.766 130.029C159.79 130.096 159.834 130.154 159.891 130.195C162.375 131.704 163.318 134.687 165.051 135.727C165.494 136.009 166.017 136.14 166.541 136.1C166.891 136.055 167.223 135.918 167.503 135.703C167.784 135.488 168.002 135.203 168.136 134.876C168.509 134.131 168.083 133.333 167.711 132.589Z"></path><path id="vector_64" fill="#ffaaaa" d="M166.009 120.939C165.473 120.668 164.865 120.574 164.273 120.67C163.68 120.765 163.133 121.046 162.709 121.471C162.344 121.878 162.113 122.386 162.047 122.928C161.98 123.471 162.081 124.02 162.336 124.503C162.594 125.049 163.026 125.493 163.565 125.765C164.103 126.037 164.717 126.122 165.309 126.006C165.902 125.89 166.438 125.58 166.834 125.124C167.23 124.669 167.463 124.095 167.496 123.492C167.495 122.973 167.357 122.464 167.096 122.015C166.835 121.567 166.46 121.196 166.009 120.939V120.939Z"></path><path id="vector_65" fill="#000000" d="M169.626 115.513C169.373 115.361 169.091 115.264 168.798 115.227C168.506 115.19 168.209 115.215 167.926 115.3C167.346 115.432 166.8 115.686 166.326 116.045C165.206 116.92 164.267 118.004 163.56 119.237C163.527 119.287 163.508 119.345 163.504 119.406C163.501 119.466 163.513 119.526 163.54 119.58C163.567 119.633 163.607 119.679 163.658 119.712C163.708 119.746 163.766 119.765 163.826 119.769C165.84 119.544 167.753 118.771 169.358 117.534C170 117.056 170.471 116.159 169.626 115.513Z"></path><path id="vector_66" fill="#6596e1" d="M188.3 135.3C174.356 135.3 174.7 135.211 174.576 135.459C174.576 135.559 171.132 142.359 170.267 144.183C171.207 144.138 172.144 144.323 172.997 144.721C173.85 145.12 174.593 145.721 175.161 146.471C177.449 144.928 180.121 143.488 182.928 144.13C183.402 144.248 183.865 144.408 184.311 144.609C184.411 144.509 187.817 137.596 188.673 135.885C188.723 135.568 188.617 135.3 188.3 135.3Z"></path><path id="vector_67" fill="#000000" d="M180.424 141.047C180.147 139.752 177.605 140.414 177.605 141.847C177.605 142.647 178.456 142.747 179.041 142.647C179.733 142.43 180.584 141.792 180.424 141.047Z"></path><path id="vector_68" fill="#6596e1" d="M188.191 147.962C187.26 146.457 185.911 145.255 184.308 144.504C183.857 144.317 183.395 144.157 182.925 144.026C180.103 143.451 177.446 144.826 175.158 146.366C173.566 144.339 171.741 144.033 169.413 144.079C160.985 144.244 155.152 152.899 153.721 161.367C153.168 165.012 153.096 168.715 153.508 172.379C153.507 172.428 153.516 172.477 153.534 172.523C153.552 172.569 153.579 172.61 153.614 172.645C153.649 172.68 153.69 172.707 153.736 172.725C153.782 172.743 153.831 172.752 153.88 172.751H189.521C189.603 172.75 189.682 172.724 189.749 172.676C189.815 172.629 189.866 172.562 189.893 172.485C191.009 165.531 191.843 153.575 188.191 147.962Z"></path><path id="vector_69" fill="#6596e1" d="M173.988 149.292C174.254 149.664 174.894 149.292 174.626 148.92C174.203 148.333 173.826 147.751 173.403 147.164C173.135 146.793 172.497 147.164 172.764 147.537C173.187 148.124 173.616 148.707 173.988 149.292Z"></path><path id="vector_70" fill="#6596e1" d="M185.478 149.079C185.691 149.505 186.338 149.128 186.116 148.707C185.861 148.222 185.584 147.749 185.316 147.324C185.104 146.898 184.456 147.275 184.678 147.696C184.936 148.181 185.212 148.654 185.478 149.079Z"></path><path id="vector_71" fill="#6596e1" d="M163.508 155.409C163.556 154.93 162.808 154.93 162.764 155.409C162.2 161.153 161.964 166.535 161.964 172.219C161.969 172.315 162.01 172.404 162.08 172.47C162.149 172.536 162.241 172.573 162.336 172.573C162.432 172.573 162.524 172.536 162.593 172.47C162.663 172.404 162.704 172.315 162.709 172.219C162.711 167.169 162.954 161.011 163.508 155.409Z"></path><path id="vector_72" fill="#6596e1" d="M176.967 172.113C178.021 165.388 178.146 158.551 177.339 151.792C177.214 150.204 176.703 148.67 175.85 147.324C175.591 146.946 174.95 147.324 175.211 147.696C175.987 148.856 176.462 150.19 176.594 151.579C177.139 156.543 177.228 161.547 176.86 166.527C176.76 167.696 176.303 172.058 176.169 172.327C176.116 172.805 176.807 172.965 176.86 172.539C176.915 172.403 176.951 172.259 176.967 172.113Z"></path><path id="vector_73" fill="#000000" d="M187.021 118.279C185.478 120.726 181.914 126.312 181.648 126.684C181.382 127.056 182.02 127.429 182.286 127.056C183.829 124.609 187.393 119.024 187.659 118.656C187.709 118.571 187.723 118.47 187.699 118.375C187.674 118.28 187.613 118.199 187.529 118.149C187.444 118.099 187.343 118.084 187.248 118.109C187.153 118.133 187.071 118.194 187.021 118.279V118.279Z"></path><path id="vector_74" fill="#000000" d="M183.882 127.908C183.457 128.12 183.829 128.708 184.255 128.546C191.705 124.904 192.076 124.746 192.447 124.503C192.872 124.29 192.5 123.703 192.074 123.865C181.513 129.028 184.794 127.517 183.882 127.908Z"></path><path id="vector_75" fill="#6596e1" d="M100.206 76.947C89.946 66.618 90.757 67.375 90.471 67.318C90.147 67.282 91.01 67.318 84.088 67.318C84.015 67.3203 83.9443 67.3436 83.8842 67.385C83.824 67.4265 83.7772 67.4844 83.7491 67.5518C83.721 67.6192 83.713 67.6933 83.7259 67.7651C83.7389 67.837 83.7722 67.9036 83.822 67.957C84.41 68.598 89.522 73.814 89.622 73.914C93.516 77.914 93.272 77.638 93.452 77.638C93.767 77.673 92.895 77.638 99.889 77.638C100.184 77.638 100.477 77.152 100.206 76.947Z"></path></g></g><g id="line"><g id="group_2"><path id="vector_76" fill="#000000" d="M13.019 120.62C12.919 120.608 6.16901 119.85 5.35901 119.715C4.88001 119.662 4.88001 120.354 5.35901 120.46C5.45901 120.472 12.451 121.27 13.019 121.365C13.5 121.418 13.5 120.675 13.019 120.62Z"></path><path id="vector_77" fill="#000000" d="M7.43401 113.492C7.06101 113.226 6.68901 113.864 7.06101 114.13C9.08101 115.569 13.661 118.918 13.923 119.13C14.296 119.396 14.669 118.758 14.296 118.492C14.093 118.347 9.00601 114.75 7.43401 113.492Z"></path><path id="vector_78" fill="#000000" d="M154.625 77.159C155.105 72.4426 154.689 67.678 153.4 63.116C153.368 63.0287 153.304 62.957 153.221 62.9157C153.138 62.8744 153.042 62.8666 152.953 62.8939C152.865 62.9213 152.79 62.9817 152.744 63.0627C152.699 63.1436 152.686 63.239 152.709 63.329C154.012 67.8342 154.41 72.5531 153.879 77.213C153.829 77.638 154.571 77.638 154.625 77.159Z"></path><path id="vector_79" fill="#000000" d="M157.87 77.159C158.35 72.4427 157.935 67.6781 156.646 63.116C156.614 63.0287 156.55 62.957 156.467 62.9157C156.384 62.8744 156.288 62.8666 156.199 62.8939C156.11 62.9213 156.036 62.9817 155.99 63.0627C155.945 63.1436 155.932 63.239 155.955 63.329C157.258 67.8342 157.656 72.5531 157.125 77.213C157.074 77.638 157.816 77.638 157.87 77.159Z"></path><path id="vector_80" fill="#000000" d="M29.35 119.314C29.1068 119.379 28.8567 119.414 28.605 119.42V120.673C28.818 120.62 29.084 120.513 29.35 120.46V119.314Z"></path><path id="vector_81" fill="#000000" d="M29.35 113.487V111.272C29.191 111.431 28.712 111.751 28.659 111.804V113.54C28.8759 113.442 29.1206 113.423 29.35 113.487V113.487Z"></path><path id="vector_82" fill="#000000" d="M67.639 144.242C67.852 144.508 68.339 144.93 68.608 145.196H142.165C142.218 144.93 142.365 144.508 142.42 144.242H67.639Z"></path><path id="vector_83" fill="#000000" d="M62.384 121.258C63.289 122.482 70.038 131.689 70.364 132.11C70.572 132.379 71.055 132.323 71.055 131.95V110.46C71.055 110.087 70.571 110.03 70.364 110.3C69.436 111.506 62.704 120.46 62.384 120.886C62.345 120.94 62.3239 121.005 62.3239 121.072C62.3239 121.139 62.345 121.204 62.384 121.258V121.258ZM65.684 117.588C68.111 114.302 70.168 111.688 70.312 111.47V130.78C70.235 130.68 63.195 121.094 63.131 120.992C63.98 119.875 64.823 118.752 65.682 117.588H65.684Z"></path><path id="vector_84" fill="#000000" d="M104.515 131.9C104.518 131.98 104.548 132.057 104.6 132.119C104.651 132.181 104.721 132.225 104.8 132.243C104.878 132.261 104.96 132.253 105.034 132.22C105.107 132.187 105.168 132.131 105.206 132.06C106.081 130.815 112.867 121.634 113.186 121.208C113.212 121.15 113.226 121.086 113.226 121.022C113.226 120.958 113.212 120.895 113.186 120.836C112.281 119.612 105.153 110.197 105.153 110.197C104.967 109.823 104.372 110.176 104.515 110.463V131.9ZM105.206 111.473C105.898 112.378 112.122 120.623 112.388 120.995C112.039 121.474 105.747 129.972 105.206 130.783V111.473Z"></path><path id="vector_85" fill="#000000" d="M79.726 133.28C80.598 131.827 94.089 110.066 94.089 109.874C94.355 109.502 93.716 109.13 93.45 109.502C92.578 110.956 79.088 132.716 79.088 132.908C78.875 133.333 79.513 133.706 79.726 133.28Z"></path><path id="vector_86" fill="#000000" d="M101.376 111.9V110.517C101.376 110.418 101.337 110.324 101.267 110.254C101.197 110.184 101.103 110.145 101.004 110.145C100.905 110.145 100.811 110.184 100.741 110.254C100.671 110.324 100.632 110.418 100.632 110.517V111.9C100.632 111.999 100.671 112.093 100.741 112.163C100.811 112.233 100.905 112.272 101.004 112.272C101.103 112.272 101.197 112.233 101.267 112.163C101.337 112.093 101.376 111.999 101.376 111.9V111.9Z"></path><path id="vector_87" fill="#000000" d="M97.919 135.993C98.4283 135.978 98.928 135.851 99.3829 135.622C99.8378 135.392 100.237 135.066 100.551 134.665C100.866 134.264 101.089 133.799 101.205 133.303C101.32 132.807 101.325 132.291 101.219 131.793C101.191 131.701 101.127 131.624 101.042 131.58C100.957 131.535 100.858 131.525 100.767 131.553C100.675 131.582 100.598 131.645 100.553 131.73C100.508 131.815 100.499 131.914 100.527 132.006C100.608 132.398 100.603 132.804 100.511 133.194C100.419 133.584 100.242 133.949 99.9937 134.264C99.7453 134.578 99.431 134.835 99.0729 135.015C98.7148 135.195 98.3216 135.294 97.921 135.306C97.8724 135.3 97.8231 135.304 97.7764 135.319C97.7296 135.333 97.6865 135.357 97.6497 135.39C97.613 135.422 97.5836 135.462 97.5634 135.506C97.5432 135.551 97.5326 135.599 97.5325 135.648C97.5324 135.697 97.5426 135.746 97.5626 135.79C97.5825 135.835 97.6117 135.875 97.6482 135.908C97.6848 135.94 97.7278 135.965 97.7745 135.979C97.8211 135.994 97.8704 135.999 97.919 135.993Z"></path><path id="vector_88" fill="#000000" d="M143.347 103.385C144.465 102.427 145.582 101.523 146.699 100.565C147.071 100.246 146.539 99.765 146.167 100.033C145.05 100.991 143.933 101.895 142.815 102.853C142.443 103.172 142.975 103.7 143.347 103.385Z"></path><path id="vector_89" fill="#000000" d="M32.382 101.47C32.063 101.15 31.582 101.629 31.85 102.001C32.914 103.172 34.004 104.421 35.095 105.566C35.407 105.892 35.895 105.406 35.627 105.034C34.563 103.863 33.446 102.693 32.382 101.47Z"></path><path id="vector_90" fill="#000000" d="M148.135 171.1C148.004 170.914 147.842 170.752 147.656 170.621H86.216C93.31 161.164 93.623 160.739 94.887 158.972C94.9167 158.917 94.9315 158.855 94.93 158.792C94.9285 158.73 94.9107 158.669 94.8784 158.615C94.8461 158.561 94.8005 158.517 94.7459 158.486C94.6913 158.456 94.6296 158.44 94.567 158.44C83.435 158.44 84.835 158.33 84.514 158.652C82.439 161.685 76.96 169.664 76.268 170.621C76.268 170.621 29.829 170.568 29.35 170.621V163.8C29.19 163.747 28.712 163.534 28.605 163.481V171C28.6045 171.048 28.6141 171.095 28.633 171.139C28.652 171.183 28.6799 171.223 28.7151 171.255C28.7502 171.288 28.7917 171.312 28.837 171.328C28.8823 171.343 28.9303 171.349 28.978 171.345C156.394 171.341 148.856 171.462 148.135 171.1ZM77.173 170.621C79.62 167.11 84.833 159.503 85.045 159.184H93.929C91.165 163.095 86.485 168.941 85.365 170.621H77.173Z"></path><path id="vector_91" fill="#000000" d="M101.642 153.548H133.613C133.708 153.543 133.798 153.502 133.864 153.432C133.93 153.363 133.967 153.271 133.967 153.175C133.967 153.08 133.93 152.988 133.864 152.919C133.798 152.849 133.708 152.808 133.613 152.803H101.642C101.547 152.808 101.457 152.849 101.391 152.919C101.325 152.988 101.288 153.08 101.288 153.175C101.288 153.271 101.325 153.363 101.391 153.432C101.457 153.502 101.547 153.543 101.642 153.548V153.548Z"></path><path id="vector_92" fill="#000000" d="M133.56 157.537H101.8C101.705 157.542 101.615 157.583 101.549 157.653C101.483 157.722 101.446 157.814 101.446 157.909C101.446 158.005 101.483 158.097 101.549 158.166C101.615 158.236 101.705 158.277 101.8 158.282H133.56C133.655 158.277 133.745 158.236 133.811 158.166C133.877 158.097 133.914 158.005 133.914 157.909C133.914 157.814 133.877 157.722 133.811 157.653C133.745 157.583 133.655 157.542 133.56 157.537Z"></path><path id="vector_93" fill="#000000" d="M133.347 162.218H101.855C101.76 162.223 101.67 162.264 101.604 162.334C101.538 162.403 101.501 162.495 101.501 162.591C101.501 162.686 101.538 162.778 101.604 162.847C101.67 162.917 101.76 162.958 101.855 162.963H133.347C133.442 162.958 133.532 162.917 133.598 162.847C133.664 162.778 133.701 162.686 133.701 162.591C133.701 162.495 133.664 162.403 133.598 162.334C133.532 162.264 133.442 162.223 133.347 162.218Z"></path><path id="vector_94" fill="#000000" d="M31.212 169.24C32.223 168.389 33.226 167.529 34.191 166.687C34.56 166.364 34.031 165.887 33.659 166.155C32.648 167.006 31.638 167.855 30.68 168.708C30.361 169.027 30.893 169.559 31.212 169.24Z"></path><path id="vector_95" fill="#000000" d="M17.168 131.472V24.21H135.755C136.234 24.21 136.272 23.379 135.794 23.379H16.956C16.8991 23.3588 16.838 23.3532 16.7783 23.3628C16.7187 23.3724 16.6624 23.3968 16.6147 23.4339C16.567 23.4709 16.5294 23.5194 16.5053 23.5748C16.4813 23.6302 16.4715 23.6908 16.477 23.751V134.185C16.6435 133.266 16.8744 132.359 17.168 131.472Z"></path><path id="vector_96" fill="#000000" d="M16.424 171C16.424 171.099 16.4632 171.193 16.533 171.263C16.6027 171.333 16.6974 171.372 16.796 171.372C16.8947 171.372 16.9893 171.333 17.0591 171.263C17.1288 171.193 17.168 171.099 17.168 171V148.827C16.902 147.922 16.636 146.965 16.424 146.06V171Z"></path><path id="vector_97" fill="#000000" d="M22.594 158.768V171C22.5989 171.095 22.6403 171.185 22.7097 171.251C22.779 171.317 22.8709 171.354 22.9665 171.354C23.0621 171.354 23.154 171.317 23.2233 171.251C23.2926 171.185 23.334 171.095 23.339 171V159.565C23.179 159.406 22.7 158.874 22.594 158.768Z"></path><path id="vector_98" fill="#000000" d="M141.539 29.284H22.754C22.6621 29.3021 22.5776 29.3471 22.5114 29.4134C22.4451 29.4796 22.4001 29.5641 22.382 29.656V123.705C22.621 123.515 22.8693 123.338 23.126 123.173V30.028H141.539C141.638 30.028 141.732 29.9888 141.802 29.919C141.872 29.8493 141.911 29.7547 141.911 29.656C141.911 29.5573 141.872 29.4627 141.802 29.393C141.732 29.3232 141.638 29.284 141.539 29.284Z"></path><path id="vector_99" fill="#000000" d="M31.715 98.491L31.706 97.799C31.706 97.799 29.829 97.746 29.35 97.799V91.671C29.1585 92.6247 28.9097 93.5661 28.605 94.49V106.97C28.8472 106.892 29.1078 106.892 29.35 106.97C29.35 106.97 29.38 100.339 29.372 98.491H31.715Z"></path><path id="vector_100" fill="#000000" d="M35.148 51.785C35.471 52.101 36.003 51.569 35.68 51.253C34.523 50.123 33.327 49.033 32.223 47.953C31.9 47.638 31.368 48.17 31.691 48.485C32.8 49.565 33.991 50.655 35.148 51.785Z"></path><path id="vector_101" fill="#000000" d="M144.145 51.626C145.223 50.526 146.313 49.378 147.39 48.274C147.453 48.202 147.486 48.1088 147.483 48.0131C147.48 47.9175 147.441 47.8266 147.373 47.759C147.305 47.6913 147.215 47.6519 147.119 47.6488C147.023 47.6456 146.93 47.6789 146.858 47.742C145.794 48.859 144.677 49.977 143.613 51.094C143.347 51.466 143.83 51.949 144.145 51.626Z"></path><path id="vector_102" fill="#000000" d="M149.89 34.922C149.891 34.8728 149.882 34.8239 149.864 34.7782C149.846 34.7325 149.819 34.691 149.784 34.6562C149.749 34.6214 149.708 34.594 149.662 34.5758C149.616 34.5575 149.567 34.5487 149.518 34.55H28.978C28.9288 34.5488 28.8798 34.5575 28.8341 34.5758C28.7883 34.594 28.7467 34.6214 28.7119 34.6561C28.677 34.6909 28.6496 34.7324 28.6312 34.7781C28.6128 34.8238 28.6039 34.8727 28.605 34.922V77.447C28.818 78.085 29.297 79.734 29.35 79.893C29.35 79.893 29.383 46.7 29.371 46.093H149.146V97.693H134.2C133.774 97.959 133.349 98.171 132.87 98.437H149.148V133.737C149.407 133.576 149.656 133.398 149.892 133.205L149.89 34.922ZM29.35 45.349V35.188C29.35 35.188 148.667 35.242 149.15 35.188V45.349C149.15 45.349 29.829 45.3 29.35 45.349Z"></path><path id="vector_103" fill="#000000" d="M44.351 42.582C44.4136 42.5825 44.4753 42.5666 44.53 42.5359C44.5846 42.5052 44.6303 42.4609 44.6625 42.4071C44.6947 42.3534 44.7123 42.2922 44.7137 42.2295C44.715 42.1669 44.6999 42.105 44.67 42.05C43.864 40.922 41.664 37.473 41.638 37.422C41.6007 37.3727 41.5525 37.3327 41.4971 37.3052C41.4418 37.2776 41.3808 37.2633 41.319 37.2633C41.2572 37.2633 41.1962 37.2776 41.1408 37.3052C41.0855 37.3327 41.0373 37.3727 41 37.422C37.947 42.193 37.751 42.1 38.074 42.422C38.187 42.649 37.849 42.582 44.351 42.582ZM41.319 38.274C42.119 39.444 42.862 40.614 43.66 41.838C43.66 41.938 44.02 41.891 38.978 41.891C39.289 41.436 41.319 38.369 41.319 38.274Z"></path><path id="vector_104" fill="#000000" d="M137.549 38.008H145.741C145.836 38.0031 145.926 37.9616 145.992 37.8923C146.058 37.823 146.095 37.7311 146.095 37.6355C146.095 37.5399 146.058 37.448 145.992 37.3787C145.926 37.3094 145.836 37.2679 145.741 37.263H137.549C137.124 37.263 137.07 38.008 137.549 38.008Z"></path><path id="vector_105" fill="#000000" d="M137.549 40.614H145.741C145.836 40.609 145.926 40.5676 145.992 40.4983C146.058 40.429 146.095 40.337 146.095 40.2415C146.095 40.1459 146.058 40.0539 145.992 39.9846C145.926 39.9153 145.836 39.8739 145.741 39.869H137.549C137.124 39.923 137.07 40.614 137.549 40.614Z"></path><path id="vector_106" fill="#000000" d="M137.549 43.221H145.741C145.836 43.216 145.926 43.1746 145.992 43.1053C146.058 43.036 146.095 42.944 146.095 42.8484C146.095 42.7529 146.058 42.6609 145.992 42.5916C145.926 42.5223 145.836 42.4809 145.741 42.476H137.549C137.124 42.529 137.07 43.221 137.549 43.221Z"></path><path id="vector_107" fill="#000000" d="M48.926 42.742C49.3738 42.6512 49.7933 42.4543 50.1493 42.1679C50.5053 41.8814 50.7874 41.5138 50.972 41.0959C51.1566 40.678 51.2384 40.2218 51.2104 39.7658C51.1823 39.3097 51.0454 38.8671 50.811 38.4749C50.5766 38.0827 50.2515 37.7524 49.8632 37.5117C49.4748 37.271 49.0343 37.127 48.5788 37.0916C48.1233 37.0563 47.6659 37.1307 47.245 37.3086C46.8242 37.4865 46.4521 37.7627 46.16 38.114C45.7824 38.5691 45.5552 39.1302 45.5098 39.7198C45.4643 40.3094 45.6028 40.8986 45.9062 41.4063C46.2096 41.9139 46.663 42.3149 47.2038 42.5542C47.7446 42.7934 48.3463 42.859 48.926 42.742ZM46.532 38.859C46.7713 38.4583 47.1347 38.1464 47.5672 37.9707C47.9996 37.795 48.4775 37.765 48.9285 37.8853C49.3795 38.0056 49.7791 38.2696 50.0666 38.6372C50.3541 39.0049 50.514 39.4563 50.522 39.923C50.5232 40.2516 50.4488 40.576 50.3043 40.8711C50.1599 41.1662 49.9495 41.4241 49.6893 41.6247C49.4292 41.8254 49.1263 41.9634 48.8042 42.0281C48.482 42.0928 48.1493 42.0824 47.8319 41.9977C47.5144 41.9131 47.2207 41.7564 46.9736 41.5399C46.7265 41.3234 46.5325 41.0529 46.4068 40.7494C46.2811 40.4458 46.227 40.1174 46.2487 39.7896C46.2704 39.4617 46.3674 39.1433 46.532 38.859Z"></path><path id="vector_108" fill="#000000" d="M53.341 43.008C56.613 43.008 57.785 43.024 58.228 43.008C58.671 42.992 58.653 42.822 58.662 42.451C58.674 41.925 58.662 40.691 58.662 37.691C58.6631 37.6417 58.6542 37.5928 58.6358 37.5471C58.6175 37.5014 58.59 37.4599 58.5551 37.4251C58.5203 37.3903 58.4787 37.363 58.433 37.3448C58.3872 37.3265 58.3383 37.3177 58.289 37.319H53.289C53.2398 37.3177 53.1909 37.3265 53.1452 37.3448C53.0995 37.363 53.058 37.3904 53.0232 37.4252C52.9884 37.46 52.9611 37.5015 52.9428 37.5472C52.9246 37.5928 52.9158 37.6418 52.917 37.691V42.691C52.9554 42.7752 53.0144 42.8483 53.0885 42.9037C53.1626 42.9591 53.2494 42.995 53.341 43.008V43.008ZM53.66 38.008H57.916V42.263H53.66V38.008Z"></path><path id="vector_109" fill="#000000" d="M123.559 98.331C134.259 97.989 145.008 86.785 145.103 71.731C145.103 71.199 145.103 70.667 145.103 70.189C145.098 70.0935 145.057 70.0036 144.987 69.9378C144.918 69.872 144.826 69.8353 144.73 69.8353C144.635 69.8353 144.543 69.872 144.474 69.9378C144.404 70.0036 144.363 70.0935 144.358 70.189C144.446 74.2265 143.797 78.2462 142.443 82.051C139.233 90.819 131.969 96.442 125.208 97.478C123.243 97.7773 121.236 97.6578 119.32 97.1274C117.404 96.5969 115.622 95.6675 114.09 94.4C111.35 91.9302 109.61 88.5432 109.196 84.878C109.135 84.453 109.087 84.027 109.037 83.601C109.032 83.5055 108.991 83.4156 108.921 83.3498C108.852 83.284 108.76 83.2473 108.664 83.2473C108.569 83.2473 108.477 83.284 108.408 83.3498C108.338 83.4156 108.297 83.5055 108.292 83.601C108.717 87.325 109.857 91.076 112.441 93.868C113.877 95.3504 115.609 96.5138 117.525 97.2828C119.44 98.0517 121.496 98.4088 123.559 98.331V98.331Z"></path><path id="vector_110" fill="#000000" d="M133.532 67.624C131.52 71.707 128.158 79.174 127.266 81.691C126.321 79.804 125.326 77.916 124.382 76.029C124.17 75.604 123.531 75.976 123.744 76.402C124.861 78.476 125.925 80.602 126.989 82.679C126.996 82.7439 127.023 82.8052 127.065 82.8548C127.108 82.9044 127.164 82.9401 127.227 82.9572C127.291 82.9744 127.357 82.9722 127.419 82.9509C127.481 82.9296 127.535 82.8903 127.574 82.8379C127.739 82.6729 130.214 76.332 134.174 67.997C134.374 67.567 133.745 67.2 133.532 67.624Z"></path><path id="vector_111" fill="#000000" d="M128.666 51.36C129.689 52.2502 130.773 53.0678 131.91 53.807C132.189 53.988 132.482 53.68 132.389 53.381C131.806 51.496 131.143 48.533 129.251 47.902C128.848 47.7699 128.41 47.7952 128.025 47.9727C127.641 48.1503 127.337 48.4669 127.176 48.859C126.841 49.918 127.982 50.765 128.666 51.36ZM129.144 48.647C130.427 49.074 131.154 51.478 131.485 52.636C130.526 51.999 129.619 51.2878 128.772 50.509C128.394 50.2638 128.098 49.9119 127.921 49.498C127.655 48.806 128.666 48.487 129.144 48.647Z"></path><path id="vector_112" fill="#000000" d="M59.884 85.724H64.459C64.5545 85.7191 64.6444 85.6777 64.7102 85.6083C64.776 85.539 64.8127 85.4471 64.8127 85.3515C64.8127 85.2559 64.776 85.164 64.7102 85.0947C64.6444 85.0254 64.5545 84.984 64.459 84.979H59.884C59.459 84.979 59.459 85.724 59.884 85.724Z"></path><path id="vector_113" fill="#000000" d="M83.237 65.988C83.237 66.148 83.45 66.254 83.609 66.254H89.993C90.0702 66.2593 90.1465 66.2347 90.206 66.1851C90.2654 66.1355 90.3034 66.0649 90.312 65.988C90.312 65.621 88.3 52.022 88.237 51.679C88.237 51.519 88.024 51.413 87.865 51.413H81.481C81.215 51.413 81.109 51.626 81.109 51.892C81.433 54.319 83.164 65.588 83.237 65.988ZM87.546 52.051C87.56 52.151 89.526 65.351 89.567 65.51H83.928C83.914 65.41 81.948 52.21 81.907 52.051H87.546Z"></path><path id="vector_114" fill="#000000" d="M145.475 65.137C144.767 63.711 143.751 62.4604 142.499 61.4759C141.248 60.4914 139.794 59.7977 138.241 59.445C135.971 58.9892 133.614 59.2946 131.535 60.314C127.619 61.959 126.571 63.252 125.527 64.446C124.068 66.3321 122.758 68.3295 121.61 70.4199C119.76 66.7399 117.827 62.8999 114.835 60.1899C113.546 58.9726 111.987 58.0778 110.286 57.5786C108.585 57.0794 106.789 56.9901 105.047 57.318C103.877 57.6217 102.738 58.0311 101.642 58.541C100.472 59.02 99.249 59.4989 98.132 60.0299C96.748 60.7219 95.153 61.999 95.472 63.754C95.5758 64.1114 95.7551 64.4423 95.9978 64.7245C96.2404 65.0066 96.5409 65.2334 96.8788 65.3894C97.2166 65.5455 97.5841 65.6272 97.9562 65.629C98.3284 65.6308 98.6966 65.5527 99.036 65.4C98.8848 65.5159 98.758 65.6607 98.663 65.8259C97.217 67.7539 98.085 69.877 100.312 70.294C101.994 70.655 103.531 69.594 105.1 68.805C104.781 69.017 104.515 69.283 104.2 69.496C103.812 69.7412 103.483 70.0682 103.235 70.4541C102.987 70.84 102.826 71.2754 102.764 71.73C102.768 72 102.827 72.2665 102.937 72.5133C103.046 72.7602 103.205 72.9825 103.402 73.167C103.873 73.5019 104.426 73.7039 105.002 73.7519C106.034 73.8022 107.06 73.5822 107.981 73.1139C107.939 74.1489 107.673 77.045 107.708 80.055C106.007 79.7514 104.335 79.2976 102.714 78.6989C101.014 77.9439 102.3 79.057 91.171 67.847C90.612 67.102 90.305 67.315 88.99 67.315H84.088C84.015 67.3172 83.9443 67.3405 83.8841 67.382C83.824 67.4234 83.7771 67.4813 83.7491 67.5487C83.721 67.6161 83.713 67.6902 83.7259 67.7621C83.7388 67.8339 83.7722 67.9006 83.822 67.954C84.322 68.501 84.864 69.0089 85.377 69.5449C78.432 67.4449 70.623 67.035 68.661 67.315C55.977 67.815 42.196 76.7349 37.087 84.7259C35.355 85.0929 33.328 85.5859 31.687 85.9339C31.6092 85.9607 31.5416 86.0107 31.4932 86.0773C31.4449 86.1439 31.4183 86.2237 31.417 86.306V98.132C31.4154 98.1811 31.4238 98.23 31.4417 98.2758C31.4596 98.3216 31.4866 98.3633 31.5211 98.3983C31.5556 98.4333 31.5969 98.4609 31.6425 98.4794C31.688 98.4979 31.7369 98.5069 31.786 98.5059H93.251C100.77 102.557 109.245 103.315 118.505 102.48C133.561 101.011 142.445 93.311 145.848 84.873C148.613 77.858 148.086 70.358 145.475 65.137ZM84.939 68.063H90.312L99.089 76.8399H93.716L84.939 68.063ZM32.116 97.693V86.6279C72.735 77.7429 74.674 84.437 88.024 94.928C89.2883 95.9198 90.6049 96.8431 91.968 97.694L32.116 97.693ZM100.632 100.672C98.4143 100.02 96.2612 99.1646 94.2 98.1179C84.889 93.3179 80.513 84.9859 69.411 82.5849C60.355 80.6669 48.486 82.613 39.303 84.341C38.8888 84.3981 38.4796 84.487 38.079 84.607C43.192 76.93 56.706 68.49 68.661 68.063C74.6971 67.8774 80.7186 68.7575 86.449 70.663C86.534 70.755 91.695 76.045 92.759 77.109C93.452 77.802 93.007 77.6409 94.993 77.6409H99.769C100.069 77.8919 100.395 78.149 100.685 78.441C100.685 85.665 100.632 87.3899 100.632 100.672ZM132.982 61.814C132.315 62.3438 131.54 62.7207 130.711 62.918C129.883 63.1154 129.021 63.1283 128.187 62.956H128.159C130.045 61.6068 132.174 60.6368 134.43 60.0999C134.069 60.7638 133.576 61.347 132.982 61.814V61.814ZM105.419 73.1699C104.94 73.1714 104.466 73.0622 104.036 72.8509C103.845 72.7368 103.689 72.5719 103.586 72.3746C103.482 72.1772 103.436 71.9552 103.451 71.733C103.518 70.794 104.559 70.264 106.909 68.276C107.507 67.7953 108.06 67.2597 108.558 66.676C108.771 66.303 108.297 65.991 107.973 66.25C106.925 66.9894 105.822 67.6476 104.673 68.219C103.602 68.8863 102.437 69.3883 101.216 69.708C99.316 69.866 97.763 68.276 99.088 66.357C99.688 65.481 103.401 63.379 104.888 62.367C104.963 62.313 105.015 62.2332 105.034 62.143C105.053 62.0528 105.038 61.9588 104.992 61.8791C104.945 61.7995 104.871 61.74 104.783 61.7122C104.695 61.6845 104.6 61.6904 104.516 61.729C102.707 62.58 101.005 63.6969 99.196 64.5479C97.002 65.6479 95.248 63.748 96.483 62.101C96.9558 61.4908 97.5792 61.0141 98.292 60.7179C99.857 59.9459 103.197 58.6649 104.41 58.2179C105.997 57.7751 107.668 57.7228 109.279 58.0655C110.891 58.4082 112.396 59.1357 113.665 60.186C116.485 62.367 118.229 65.6459 119.889 68.6969C119.944 68.7969 122.489 73.868 122.655 74.23C122.755 74.445 123.081 74.8149 122.815 75.0299C121.694 75.7029 127.621 72.5639 108.559 82.2649C108.343 80.9289 108.271 79.5734 108.346 78.222C108.346 76.262 108.665 72.946 108.665 72.584C108.662 72.5264 108.647 72.47 108.621 72.4188C108.594 72.3677 108.557 72.3228 108.511 72.2874C108.466 72.252 108.413 72.2268 108.357 72.2136C108.301 72.2004 108.243 72.1995 108.186 72.2109C107.358 72.7563 106.407 73.0859 105.419 73.1699V73.1699ZM132.177 98.065C122.844 102.731 111.436 102.496 101.323 100.946C101.323 93.3929 101.411 85.1249 101.377 78.8899C103.401 79.7798 105.53 80.4079 107.713 80.759C107.745 81.991 107.706 82.8509 108.345 83.0589C108.919 83.2019 108.391 83.169 122.229 76.25C122.869 75.93 123.329 75.7659 123.612 75.3499C123.895 74.9339 123.665 74.5499 123.452 74.1259C123.425 74.0689 122.629 72.457 121.981 71.16C122.375 70.476 122.82 69.7539 123.24 69.0729C124.372 67.0371 125.767 65.159 127.389 63.487C128.896 63.9932 130.538 63.9195 131.994 63.28C133.45 62.6406 134.615 61.4814 135.262 60.029C137.224 59.8756 139.186 60.3162 140.894 61.2936C142.602 62.271 143.976 63.7399 144.837 65.509C149.784 76.455 146.207 91.177 132.177 98.065Z"></path><path id="vector_115" fill="#000000" d="M119.569 94.554C120.163 94.912 120.793 95.354 121.378 95.724C121.75 95.99 122.123 95.352 121.75 95.086C121.165 94.714 120.535 94.274 119.942 93.916C119.574 93.694 119.2 94.333 119.569 94.554Z"></path><path id="vector_116" fill="#000000" d="M64.193 69.552C62.586 69.994 60.993 70.48 59.405 71.042C58.977 71.194 59.137 71.886 59.618 71.733C61.207 71.233 62.81 70.776 64.406 70.244C64.831 70.138 64.616 69.436 64.193 69.552Z"></path><path id="vector_117" fill="#000000" d="M29.776 89.607C30.447 83.922 29.763 78.4 26.956 73.489C26.9137 73.4244 26.8525 73.3743 26.7809 73.3455C26.7092 73.3167 26.6304 73.3105 26.5552 73.3279C26.4799 73.3452 26.4117 73.3851 26.3598 73.4424C26.308 73.4996 26.2749 73.5714 26.265 73.648C26.265 74.5 26.212 98.118 26.265 99.129C26.265 99.639 26.78 99.705 26.956 99.289C27.5482 97.9722 28.0638 96.6223 28.5 95.246C29.0929 93.4082 29.5199 91.521 29.776 89.607ZM27.063 97.48V75.138C30.225 81.726 29.776 90.848 27.063 97.48Z"></path><path id="vector_118" fill="#000000" d="M129.942 59.658C130.585 59.5217 131.168 59.1848 131.606 58.6958C132.045 58.2067 132.317 57.591 132.383 56.9372C132.45 56.2835 132.306 55.6257 131.974 55.0588C131.642 54.4918 131.139 54.045 130.536 53.7828C129.934 53.5206 129.263 53.4567 128.622 53.6001C127.981 53.7436 127.402 54.0871 126.969 54.581C126.536 55.075 126.27 55.6938 126.212 56.3482C126.153 57.0026 126.304 57.6588 126.642 58.222C126.994 58.7551 127.493 59.1745 128.079 59.4294C128.665 59.6843 129.312 59.7637 129.942 59.658V59.658ZM127.282 55.349C127.553 54.9003 127.963 54.5523 128.45 54.3579C128.937 54.1634 129.474 54.1332 129.979 54.2716C130.485 54.4101 130.931 54.7097 131.251 55.1251C131.571 55.5404 131.746 56.0488 131.751 56.573C131.753 57.0623 131.602 57.54 131.321 57.9402C131.039 58.3403 130.64 58.6431 130.179 58.8066C129.718 58.9701 129.217 58.9863 128.746 58.8529C128.276 58.7195 127.858 58.4431 127.551 58.062C127.215 57.7016 127.007 57.241 126.959 56.7509C126.91 56.2608 127.024 55.7682 127.282 55.349V55.349Z"></path><path id="vector_119" fill="#000000" d="M31.584 118.013C32.0489 117.406 32.254 116.639 32.1543 115.881C32.0545 115.123 31.6581 114.436 31.052 113.97C30.557 113.548 29.9444 113.288 29.297 113.226C28.5537 113.134 27.8015 113.303 27.169 113.704C26.5932 114.031 26.1223 114.514 25.8115 115.099C25.5007 115.683 25.3628 116.344 25.414 117.004C25.746 119.877 29.668 120.7 31.584 118.013ZM26.265 117.322C25.622 115.234 28.615 112.775 30.574 114.502C30.9952 114.822 31.2901 115.28 31.4068 115.796C31.5235 116.312 31.4545 116.852 31.212 117.322C30.9792 117.777 30.64 118.169 30.2232 118.465C29.8065 118.761 29.3244 118.952 28.818 119.022C28.2658 119.053 27.7184 118.904 27.258 118.598C26.7977 118.291 26.4492 117.844 26.265 117.322V117.322Z"></path><path id="vector_120" fill="#000000" d="M34.51 150.569C34.404 147.962 34.31 145.298 34.084 142.696C34.084 142.597 34.0448 142.503 33.975 142.433C33.9053 142.363 33.8107 142.324 33.712 142.324C33.6133 142.324 33.5187 142.363 33.449 142.433C33.3792 142.503 33.34 142.597 33.34 142.696C33.499 145.302 33.659 147.962 33.765 150.569C33.819 150.994 34.563 150.994 34.51 150.569Z"></path><path id="vector_121" fill="#000000" d="M81.641 160.3C80.9836 158.875 80.1036 157.565 79.034 156.417C75.813 152.527 54.373 130.043 51.734 127.973C53.862 125.868 56.771 123.967 56.003 121.734C55.8846 121.397 55.695 121.09 55.4473 120.833C55.1995 120.576 54.8993 120.375 54.567 120.244C53.374 119.844 52.067 121.244 50.896 122.159C50.089 122.792 49.785 123.295 51.588 121.042C52.0122 120.53 52.318 119.931 52.4834 119.288C52.6489 118.644 52.6699 117.972 52.545 117.319C52.399 116.784 52.067 116.319 51.6087 116.008C51.1504 115.696 50.5959 115.558 50.045 115.619C48.627 115.813 47.805 117.7 47.492 118.013C47.811 116.79 48.292 114.822 46.747 114.236C45.311 113.704 44.194 114.981 43.555 116.045C42.705 117.48 41.908 118.914 40.955 120.345C38.999 119.694 36.9485 119.372 34.887 119.392C32.7581 119.48 30.649 119.838 28.61 120.456C25.801 121.281 23.2175 122.736 21.057 124.712C12.757 133.012 14.223 153.797 26.157 162.145C29.0099 164.179 32.4553 165.214 35.957 165.087C40.2643 165.115 44.4444 163.628 47.767 160.887C49.4806 159.151 50.6459 156.949 51.118 154.556C51.318 153.645 51.627 152.456 51.794 151.523C53.058 153.262 54.322 155.052 55.586 156.791C54.469 158.28 53.512 159.61 52.607 160.94C51.6955 162.006 51.2038 163.368 51.224 164.77C51.2481 165.339 51.444 165.888 51.7858 166.343C52.1276 166.799 52.5994 167.141 53.139 167.323C54.522 167.696 55.746 166.738 56.65 165.834C57.98 164.557 59.257 163.227 60.534 161.897C61.863 162.27 62.608 163.759 62.927 164.983C63.3 166.472 63.353 168.334 64.576 169.451C65.035 169.919 65.646 170.209 66.2992 170.267C66.9524 170.326 67.6051 170.149 68.14 169.77C68.5427 169.35 68.8471 168.846 69.0312 168.294C69.2152 167.742 69.2742 167.156 69.204 166.579C69.204 165.302 69.151 164.025 69.045 162.748C71.145 166.48 71.492 167.502 72.556 168.174C72.7853 168.318 73.0411 168.414 73.3084 168.458C73.5756 168.501 73.8489 168.49 74.1118 168.425C74.3747 168.361 74.622 168.244 74.839 168.082C75.056 167.92 75.2383 167.717 75.375 167.483C75.9783 166.342 76.1974 165.037 76 163.761C75.8589 162.796 75.6093 161.851 75.256 160.942C76.121 161.663 77.4 162.933 78.656 163.229C80.34 163.649 81.9 161.578 81.641 160.3ZM42.968 118.6C44.468 116.024 44.75 115.526 45.362 115.036C45.4841 114.93 45.6271 114.851 45.7817 114.804C45.9364 114.757 46.0992 114.743 46.2595 114.763C46.4199 114.783 46.5742 114.837 46.7125 114.921C46.8508 115.004 46.9698 115.116 47.062 115.249C47.434 115.887 47.131 116.741 47.009 117.43C46.7341 119.033 46.1171 120.557 45.2 121.9C44.942 122.278 45.573 122.645 45.839 122.273C47.397 120.158 48.687 117.154 49.775 116.473C49.98 116.36 50.2086 116.297 50.4424 116.289C50.6762 116.281 50.9086 116.328 51.1209 116.426C51.3332 116.525 51.5194 116.672 51.6644 116.855C51.8095 117.039 51.9094 117.254 51.956 117.483C52.6 119.845 49.656 121.715 48.711 124.083C48.56 124.459 49.087 124.62 49.296 124.456C52.368 122.049 53.156 120.937 54.137 120.839C54.722 120.785 55.201 121.424 55.361 121.902C55.786 123.073 54.722 124.084 53.977 124.881C52.959 125.981 52.098 126.601 50.786 127.914C50.626 128.126 50.307 128.286 50.201 128.552C50.0868 128.857 50.0501 129.186 50.094 129.509C49.889 132.945 49.8713 136.391 50.041 139.829C50.041 140.148 50.147 140.574 49.722 140.629C49.622 140.629 34.608 141.248 34.508 141.268C34.189 141.268 33.976 141.214 33.923 140.842C33.766 138.958 33.579 133.501 33.391 131.054C33.3927 130.992 33.3789 130.93 33.351 130.874C33.3231 130.819 33.2819 130.771 33.231 130.735C32.114 130.256 31.05 129.671 29.986 129.086C28.986 128.554 28.1147 127.81 27.433 126.905C26.67 125.705 28.094 124.816 29.774 125.096C31.928 125.404 32.599 126.351 33.763 126.796C36.958 128.018 41.143 121.518 42.968 118.6ZM50.575 153.922C49.66 158.038 48.034 160.068 45.468 161.689C40.401 164.889 32.311 165.516 26.797 161.635C21.065 157.635 17.797 150.735 16.849 143.921C16.018 137.067 17.496 131.406 19.403 128.229C20.9672 125.565 23.3307 123.462 26.158 122.218C30.6428 120.071 35.7573 119.637 40.54 120.996C39.7709 122.111 38.9106 123.16 37.968 124.133C37.4895 124.6 36.9735 125.027 36.425 125.409C34.497 126.752 34.081 125.727 32.225 124.931C27.88 122.925 25.197 125.51 27.437 127.75C29.0243 129.177 30.8407 130.327 32.81 131.15C33.055 136.429 33.278 139.666 33.289 139.768C33.2556 140.291 33.3277 140.816 33.501 141.311C33.6156 141.486 33.7745 141.627 33.9613 141.72C34.1482 141.814 34.3565 141.856 34.565 141.843C36.055 141.816 48.502 141.311 49.779 141.204C49.9154 141.2 50.0493 141.166 50.171 141.104C51.011 150.614 51.421 150.027 50.575 153.92V153.922ZM51.799 150.252C51.093 143.978 50.192 135.133 50.894 128.814L51.241 128.467C54.703 131.815 60.603 137.898 63.821 141.421C63.721 141.506 52.537 151.056 52.437 151.156C52.387 151.054 51.8 150.25 51.8 150.25L51.799 150.252ZM80.205 162.008C79.561 162.652 79.117 162.628 78.29 162.274C76.8229 161.395 75.5107 160.28 74.406 158.974C74.14 158.654 73.715 159.08 73.821 159.399C74.3659 160.565 74.8109 161.775 75.151 163.016C75.851 165.952 74.504 168.603 72.864 167.432C71.944 166.742 71.909 166.19 68.821 160.676C68.608 160.303 68.129 160.569 68.183 160.942C68.3988 162.422 68.523 163.914 68.555 165.41C68.7201 166.51 68.5725 167.635 68.129 168.655C67.9785 168.863 67.7865 169.038 67.565 169.168C67.3436 169.298 67.0976 169.38 66.8425 169.41C66.5875 169.44 66.329 169.417 66.0835 169.342C65.8379 169.267 65.6106 169.141 65.416 168.974C63.176 167.374 64.88 163.364 61.374 161.261C59.856 160.654 60.941 160.535 56.905 164.399C56.011 165.255 54.859 166.745 53.554 166.527C53.2926 166.466 53.0477 166.349 52.8363 166.184C52.6249 166.018 52.4521 165.809 52.33 165.57C51.586 164.187 52.277 162.697 53.075 161.527C54.086 159.984 55.203 158.495 56.32 157.005C56.3462 156.946 56.3598 156.883 56.3598 156.819C56.3598 156.755 56.3462 156.691 56.32 156.633C55.102 154.991 53.989 153.349 52.82 151.706C54.12 150.606 64.454 141.792 64.481 141.766C65.515 142.854 78.11 156.19 79.935 158.708C80.987 160.153 81.461 160.75 80.205 162.006V162.008Z"></path><path id="vector_122" fill="#000000" d="M36.159 162.218H32.382C32.2866 162.223 32.1966 162.264 32.1308 162.334C32.065 162.403 32.0283 162.495 32.0283 162.591C32.0283 162.686 32.065 162.778 32.1308 162.847C32.1966 162.917 32.2866 162.958 32.382 162.963H36.159C36.2545 162.958 36.3444 162.917 36.4102 162.847C36.476 162.778 36.5127 162.686 36.5127 162.591C36.5127 162.495 36.476 162.403 36.4102 162.334C36.3444 162.264 36.2545 162.223 36.159 162.218Z"></path><path id="vector_123" fill="#000000" d="M56.586 138.015C56.853 138.386 57.486 138.015 57.224 137.642C56.524 136.642 55.841 135.674 55.203 134.663C54.937 134.291 54.303 134.663 54.565 135.036C55.266 136.039 55.9 137.055 56.586 138.015Z"></path><path id="vector_124" fill="#000000" d="M29.35 111.63C29.8693 111.173 30.2638 110.591 30.4965 109.94C30.7291 109.288 30.7923 108.589 30.68 107.906C30.6319 107.565 30.4775 107.248 30.2387 106.999C29.9999 106.751 29.689 106.584 29.35 106.523C29.275 106.531 29.1996 106.512 29.137 106.47C28.728 106.49 28.3277 106.595 27.9615 106.778C27.5953 106.961 27.2713 107.219 27.01 107.534C25.638 108.976 25.133 111.35 24.456 113.97C24.4326 114.052 24.4401 114.14 24.4771 114.216C24.5141 114.293 24.5781 114.354 24.6567 114.387C24.7354 114.419 24.8234 114.422 24.904 114.394C24.9846 114.367 25.0522 114.31 25.094 114.236C26 113.052 27.107 113.125 29.35 111.63ZM27.967 111.63C27.1025 111.991 26.2667 112.418 25.467 112.906C25.975 110.959 27.213 106.801 29.244 107.055C29.4528 107.096 29.641 107.208 29.7766 107.372C29.9123 107.536 29.9869 107.742 29.988 107.955C30.0847 108.703 29.9409 109.462 29.5776 110.122C29.2143 110.783 28.6502 111.311 27.967 111.63V111.63Z"></path><path id="vector_125" fill="#000000" d="M42.383 127.322C43.4493 126.239 44.346 125.002 45.043 123.652C45.259 123.228 44.624 122.858 44.404 123.28C43.7297 124.569 42.8695 125.752 41.851 126.79C41.536 127.114 42.068 127.645 42.383 127.322Z"></path><path id="vector_126" fill="#000000" d="M46.266 128.28C47.0507 127.439 47.681 126.467 48.128 125.407C48.341 124.982 47.702 124.607 47.49 125.035C47.0703 126.036 46.4757 126.955 45.734 127.748C45.468 128.12 45.939 128.645 46.266 128.28Z"></path><path id="vector_127" fill="#000000" d="M64.991 155.835C65.8605 156.346 66.5771 157.081 67.066 157.963C67.289 158.383 67.917 158.016 67.704 157.59C67.1439 156.603 66.3373 155.779 65.363 155.197C64.994 154.978 64.623 155.615 64.991 155.835Z"></path><path id="vector_128" fill="#000000" d="M72.279 156.473C72.3329 156.548 72.4127 156.6 72.5029 156.619C72.5931 156.638 72.6872 156.623 72.7668 156.577C72.8465 156.53 72.906 156.456 72.9337 156.368C72.9615 156.28 72.9555 156.185 72.917 156.101C72.2348 154.974 71.3511 153.982 70.31 153.175C69.945 152.9 69.563 153.498 69.938 153.814C70.8652 154.559 71.6571 155.459 72.279 156.473V156.473Z"></path><path id="vector_129" fill="#000000" d="M177.233 176.528C177.823 176.528 177.733 175.89 177.446 175.89C172.769 172.84 166.251 173.116 161.54 175.943C161.475 175.985 161.425 176.047 161.397 176.118C161.368 176.19 161.362 176.269 161.379 176.344C161.397 176.42 161.437 176.488 161.494 176.54C161.551 176.591 161.623 176.624 161.7 176.634C178.161 176.634 173.371 176.528 177.233 176.528ZM163.189 175.836C165.186 174.898 167.366 174.412 169.572 174.412C171.779 174.412 173.959 174.898 175.956 175.836H163.189Z"></path><path id="vector_130" fill="#000000" d="M194.787 175.89C190.111 172.84 183.593 173.116 178.887 175.943C178.822 175.985 178.772 176.047 178.744 176.118C178.715 176.19 178.709 176.269 178.726 176.344C178.743 176.419 178.783 176.487 178.84 176.539C178.898 176.591 178.969 176.624 179.046 176.634H194.526C195.129 176.634 195.042 175.89 194.787 175.89ZM180.531 175.836C182.528 174.898 184.708 174.412 186.915 174.412C189.121 174.412 191.301 174.898 193.298 175.836H180.531Z"></path><path id="vector_131" fill="#000000" d="M162.338 124.556C162.596 125.102 163.028 125.546 163.567 125.818C164.105 126.09 164.719 126.175 165.311 126.059C165.903 125.943 166.44 125.633 166.836 125.178C167.232 124.723 167.465 124.148 167.498 123.546C167.508 123.024 167.381 122.508 167.129 122.05C166.877 121.593 166.509 121.21 166.062 120.939C165.553 120.66 164.967 120.551 164.392 120.629C163.816 120.708 163.281 120.968 162.865 121.373C162.448 121.777 162.172 122.305 162.077 122.878C161.983 123.451 162.074 124.039 162.338 124.556V124.556ZM163.083 122.216C163.347 121.864 163.714 121.603 164.134 121.469C164.553 121.336 165.004 121.336 165.423 121.471C165.781 121.619 166.092 121.86 166.326 122.168C166.56 122.477 166.707 122.842 166.753 123.226C166.804 123.662 166.706 124.103 166.474 124.476C166.243 124.849 165.892 125.133 165.479 125.281C165.065 125.429 164.614 125.433 164.198 125.292C163.782 125.15 163.427 124.872 163.189 124.503C162.943 124.177 162.801 123.784 162.782 123.376C162.763 122.968 162.868 122.563 163.083 122.216V122.216Z"></path><path id="vector_132" fill="#000000" d="M163.828 119.822C165.841 119.596 167.754 118.824 169.36 117.588C169.995 117.051 170.424 116.151 169.573 115.566C169.321 115.413 169.039 115.315 168.746 115.278C168.453 115.242 168.155 115.267 167.873 115.353C167.295 115.486 166.751 115.74 166.278 116.098C165.159 116.974 164.219 118.058 163.511 119.29C163.478 119.344 163.461 119.407 163.461 119.47C163.46 119.534 163.477 119.596 163.51 119.651C163.543 119.706 163.589 119.75 163.645 119.781C163.701 119.811 163.764 119.825 163.828 119.822V119.822ZM166.168 117.109C168.445 115.158 170.234 116.055 168.894 117.123C167.61 118.02 166.158 118.648 164.626 118.971C165.078 118.302 165.595 117.678 166.168 117.109V117.109Z"></path><path id="vector_133" fill="#000000" d="M180.425 141.047C180.147 139.752 177.605 140.414 177.605 141.847C177.552 142.591 178.456 142.698 179.042 142.591C179.68 142.43 180.584 141.845 180.425 141.047ZM178.825 141.947C178.27 142.132 178.125 141.874 178.432 141.495C178.717 141.147 179.332 140.972 179.516 141.095C179.786 141.1 179.87 141.535 178.829 141.951L178.825 141.947Z"></path><path id="vector_134" fill="#000000" d="M173.4 147.164C173.132 146.793 172.494 147.164 172.761 147.537C173.184 148.124 173.561 148.705 173.985 149.292C174.252 149.663 174.891 149.292 174.623 148.92C174.2 148.333 173.826 147.751 173.4 147.164Z"></path><path id="vector_135" fill="#000000" d="M185.478 149.079C185.691 149.505 186.338 149.128 186.116 148.707C185.861 148.222 185.584 147.749 185.316 147.324C185.104 146.898 184.456 147.275 184.678 147.696C184.936 148.181 185.212 148.654 185.478 149.079Z"></path><path id="vector_136" fill="#000000" d="M188.351 147.962C187.41 146.431 186.032 145.215 184.396 144.471L188.67 135.887C188.7 135.832 188.716 135.77 188.714 135.707C188.713 135.644 188.696 135.583 188.663 135.529C188.631 135.475 188.585 135.431 188.53 135.4C188.476 135.37 188.414 135.354 188.351 135.355H175.539C171.99 132.487 167.782 130.549 163.296 129.716C160.138 129.315 156.929 129.739 153.983 130.946C150.699 132.087 147.853 134.226 145.844 137.063C142.019 142.291 139.101 151.377 143.185 156.479C142.997 158.275 143.105 160.09 143.504 161.852C144.593 167.296 147.488 172.415 153.026 172.81C163.58 172.81 140.648 172.804 189.574 172.804C189.656 172.803 189.736 172.777 189.802 172.73C189.869 172.682 189.92 172.615 189.947 172.538C191.151 165.753 192.024 153.54 188.351 147.962ZM187.712 136.1C187.074 137.376 184.399 142.825 183.678 144.224C183.365 144.176 183.172 144.124 182.978 144.079C180.171 143.437 177.499 144.879 175.211 146.419C174.638 145.665 173.889 145.062 173.03 144.664C172.413 144.403 171.759 144.24 171.091 144.181C172.198 141.965 174.891 136.525 175.105 136.1H187.712ZM166.062 131.1C166.595 131.892 167.057 132.728 167.445 133.6C167.547 133.797 167.601 134.016 167.601 134.238C167.601 134.461 167.547 134.68 167.445 134.877C167.335 135.048 167.186 135.19 167.01 135.292C166.834 135.393 166.637 135.452 166.434 135.462C166.105 135.433 165.785 135.339 165.493 135.184C165.201 135.03 164.943 134.818 164.734 134.562C163.455 133.222 162.265 131.8 161.17 130.306C162.826 130.381 164.467 130.647 166.062 131.1V131.1ZM153.508 172.06C149.04 172.009 146.346 168.73 144.94 164.512C144.068 162.191 143.675 159.717 143.785 157.24C146.079 159.719 150.269 160.197 153.717 158.128C153.792 158.074 153.844 157.994 153.863 157.904C153.882 157.814 153.867 157.72 153.821 157.64C153.774 157.56 153.7 157.501 153.612 157.473C153.524 157.445 153.429 157.451 153.345 157.49C152.157 158.244 150.784 158.658 149.377 158.686C147.97 158.715 146.582 158.356 145.365 157.65C144.249 156.814 143.355 155.718 142.759 154.458C140.276 149.216 143.713 137.117 152.068 132.541C154.504 131.27 157.16 130.479 159.894 130.209C161.811 132.356 163.512 134.151 164.417 135.085C165.125 135.817 165.307 136.153 166.594 136.153C166.946 136.112 167.281 135.977 167.562 135.761C167.844 135.546 168.062 135.258 168.194 134.929C168.277 134.518 168.277 134.095 168.195 133.684C168.112 133.274 167.949 132.883 167.715 132.536C167.533 132.171 167.35 131.845 167.134 131.492C169.808 132.409 172.312 133.761 174.547 135.492C174.513 135.556 173.264 138.092 172.129 140.4C172.09 140.375 172.044 140.362 171.997 140.363C163.048 139.783 155.045 142.527 151.144 145.363C150.772 145.629 151.144 146.263 151.517 146.001C157.275 142.072 164.935 140.665 171.784 141.101C170.984 142.732 170.313 144.093 170.294 144.133C167.339 144.049 164.443 144.968 162.076 146.74C157.448 150.197 154.735 155.84 153.776 161.422C153.234 164.942 153.144 168.517 153.508 172.06V172.06ZM189.148 172.06H176.919C178.019 165.358 178.16 158.534 177.339 151.792C177.27 150.319 176.818 148.89 176.028 147.645C175.769 147.267 175.123 147.645 175.389 148.018C176.108 149.072 176.524 150.304 176.589 151.579C177.163 156.541 177.252 161.547 176.855 166.527C176.764 167.593 176.391 171.056 176.222 172.06H162.711C162.711 165.407 163.026 160.96 163.511 155.409C163.565 154.931 162.82 154.931 162.767 155.409C162.216 161.867 161.974 167.641 161.967 172.06H154.147C153.615 166.049 153.988 159.718 156.754 154.292C159.041 149.877 162.871 145.675 168.031 144.93C169.393 144.69 170.791 144.744 172.131 145.09C173.228 145.457 174.178 146.165 174.844 147.111C174.95 147.217 175.11 147.324 175.27 147.164C177.238 145.781 179.578 144.398 182.078 144.611C183.152 144.778 184.18 145.166 185.095 145.752C186.011 146.337 186.795 147.106 187.398 148.011C188.724 150.075 189.527 152.43 189.739 154.874C190.407 160.6 190.208 166.394 189.148 172.06V172.06Z"></path><path id="vector_137" fill="#000000" d="M187.021 118.279C185.478 120.726 181.914 126.312 181.648 126.684C181.382 127.056 182.02 127.429 182.286 127.056C183.829 124.609 187.393 119.024 187.659 118.656C187.709 118.571 187.723 118.47 187.699 118.375C187.674 118.28 187.613 118.198 187.529 118.148C187.444 118.098 187.343 118.084 187.248 118.109C187.153 118.133 187.071 118.194 187.021 118.279V118.279Z"></path><path id="vector_138" fill="#000000" d="M183.882 127.908C183.457 128.12 183.829 128.708 184.255 128.546C191.705 124.904 192.076 124.746 192.447 124.503C192.872 124.29 192.5 123.703 192.074 123.865C181.513 129.028 184.794 127.517 183.882 127.908Z"></path></g></g></g></svg>