<svg xmlns="http://www.w3.org/2000/svg" fill="none" viewBox="0 0 200 197" height="400" width="400"><g id="listening-to-feedback-from-users-and-customers-1--customer-service-support-listening-to-feedback-from-users-and-customers-1"><g id="color"><g id="group"><path id="vector" fill="#000000" d="M171.294 143.886C171.344 144.304 172.037 144.357 171.984 143.886C171.931 142.735 171.35 133.952 171.294 133.481C171.244 133.063 170.551 133.011 170.604 133.481C170.632 134.097 171.233 143.38 171.294 143.886Z"></path><path id="vector_2" fill="#000000" d="M173.789 143.99C175.089 140.497 176.363 136.923 177.663 133.429C177.819 133.01 177.132 132.854 176.973 133.22C175.699 136.723 174.373 140.278 173.099 143.782C173.079 143.869 173.093 143.961 173.139 144.039C173.185 144.116 173.259 144.174 173.346 144.2C173.433 144.227 173.527 144.22 173.609 144.181C173.691 144.142 173.756 144.074 173.789 143.99V143.99Z"></path><path id="vector_3" fill="#000000" d="M175.169 143.938C175.11 144.001 175.079 144.084 175.081 144.17C175.082 144.256 175.118 144.337 175.179 144.398C175.241 144.458 175.323 144.493 175.41 144.496C175.497 144.498 175.582 144.467 175.646 144.409C176.483 143.611 182.706 137.612 183.024 137.298C183.087 137.236 183.122 137.151 183.122 137.063C183.122 136.975 183.086 136.891 183.023 136.828C182.96 136.766 182.874 136.731 182.785 136.731C182.695 136.731 182.61 136.765 182.546 136.827C175.211 143.824 175.487 143.676 175.169 143.938Z"></path><path id="vector_4" fill="#000000" d="M181.06 160.564C181.042 160.507 181.01 160.456 180.966 160.415C180.923 160.374 180.869 160.344 180.811 160.329C180.753 160.313 180.692 160.312 180.634 160.326C180.575 160.34 180.521 160.368 180.476 160.407C179.362 161.348 177.898 162.642 176.783 163.583C176.346 164.014 176.304 164.272 176.92 164.272H181.326C181.378 164.276 181.431 164.266 181.479 164.244C181.526 164.223 181.568 164.19 181.599 164.148C181.631 164.107 181.652 164.058 181.659 164.007C181.667 163.956 181.662 163.903 181.644 163.855C181.485 162.759 181.278 161.66 181.06 160.564Z"></path><path id="vector_5" fill="#000000" d="M19.384 61.3321C19.696 61.6532 20.173 61.1823 19.862 60.8622C18.667 59.6329 17.54 58.3396 16.362 57.1498C16.2985 57.0877 16.2127 57.053 16.1233 57.0532C16.0339 57.0534 15.9482 57.0885 15.885 57.1507C15.8218 57.213 15.7862 57.2974 15.786 57.3855C15.7858 57.4735 15.821 57.5581 15.884 57.6206C17.062 58.8105 18.189 60.1028 19.384 61.3321Z"></path><path id="vector_6" fill="#000000" d="M20.764 60.3913C20.864 60.8119 21.557 60.6533 21.454 60.1825C21.124 58.6686 20.346 55.2142 20.287 54.9541C20.187 54.5335 19.494 54.6921 19.596 55.1629C21.025 61.7201 19.309 54.0164 20.764 60.3913Z"></path><path id="vector_7" fill="#000000" d="M23.471 60.025C23.636 59.5906 25.187 55.3058 25.223 55.163C25.382 54.7454 24.683 54.5838 24.533 54.9542C24.12 55.9717 22.8 59.7413 22.781 59.8161C22.622 60.287 23.313 60.4436 23.471 60.025Z"></path><path id="vector_8" fill="#000000" d="M22.463 118.633C20.043 121.017 17.069 124.724 16.146 127.679C16.677 127.051 17.146 126.468 17.686 125.849C20.0384 123.122 22.7939 120.761 25.86 118.842C25.7 118.833 22.618 118.633 22.463 118.633Z"></path><path id="vector_9" fill="#000000" d="M45.233 71.7366C44.203 70.8797 42.056 67.5011 38.917 67.5543C36.176 67.6006 35.053 70.069 36.228 70.9132L38.042 74.1538C38.5234 75.1747 38.8367 76.2647 38.97 77.3827C39.031 77.6046 39.0666 77.8326 39.076 78.0623C39.277 79.3183 39.8285 80.4945 40.669 81.4596C41.3662 82.1529 42.2211 82.6726 43.163 82.9755C45.032 83.6236 47.315 83.9349 49.055 82.8189C49.6445 82.4289 50.1498 81.9277 50.5415 81.3443C50.9331 80.7608 51.2035 80.1067 51.337 79.4196C51.39 79.263 51.39 79.1064 51.443 78.8976C51.851 74.6217 47.079 73.2732 45.233 71.7366Z"></path><path id="vector_10" fill="#000000" d="M94.861 39.2691C95.971 38.7362 97.038 38.224 98.152 37.7532C98.577 37.5444 98.207 36.9731 97.781 37.1779C96.671 37.7118 95.604 38.224 94.49 38.6948C94.065 38.9076 94.435 39.475 94.861 39.2691Z"></path><path id="vector_11" fill="#000000" d="M94.861 40.8903H98.789C98.8343 40.8903 98.8792 40.8816 98.921 40.8645C98.9629 40.8474 99.0009 40.8224 99.033 40.7908C99.065 40.7593 99.0904 40.7218 99.1077 40.6806C99.1251 40.6393 99.134 40.5951 99.134 40.5505C99.134 40.5059 99.1251 40.4617 99.1077 40.4205C99.0904 40.3792 99.065 40.3418 99.033 40.3102C99.0009 40.2787 98.9629 40.2536 98.921 40.2366C98.8792 40.2195 98.8343 40.2107 98.789 40.2107H94.861C94.774 40.2172 94.6928 40.2559 94.6335 40.3189C94.5742 40.3819 94.5413 40.4646 94.5413 40.5505C94.5413 40.6364 94.5742 40.7192 94.6335 40.7822C94.6928 40.8452 94.774 40.8838 94.861 40.8903Z"></path><path id="vector_12" fill="#000000" d="M94.861 41.831C94.441 41.6143 94.114 42.2043 94.49 42.4063C95.59 42.9973 96.661 43.5666 97.781 44.132C98.203 44.3448 98.528 43.7587 98.152 43.5568C97.048 42.9618 95.934 42.3856 94.861 41.831Z"></path><path id="vector_13" fill="#000000" d="M91.942 37.4921C91.6482 36.9514 91.1778 36.5242 90.6068 36.2798C90.0358 36.0353 89.3977 35.9879 88.796 36.1452C88.1942 36.3025 87.664 36.6553 87.2912 37.1465C86.9184 37.6376 86.7249 38.2384 86.742 38.8514C86.8043 39.2345 86.7863 39.626 86.689 40.0019C86.4 40.8559 84.764 40.5929 83.982 41.4656C83.7801 41.71 83.6449 42.0012 83.5892 42.3115C83.5336 42.6217 83.5593 42.9409 83.664 43.2386C84.494 45.5859 88.608 45.6509 90.936 44.6511C91.6788 44.3378 92.3067 43.8085 92.736 43.1342C93.095 42.2037 93.2104 41.1992 93.0717 40.2131C92.9329 39.2271 92.5444 38.2914 91.942 37.4921V37.4921ZM88.442 39.3745C88.7057 39.0726 89.0564 38.857 89.4476 38.7563C89.8387 38.6556 90.2517 38.6745 90.6317 38.8106C91.0116 38.9468 91.3405 39.1936 91.5746 39.5183C91.8086 39.843 91.9368 40.2302 91.942 40.6284C91.938 41.0749 91.7772 41.5063 91.487 41.8494C91.1969 42.1925 90.7951 42.4262 90.35 42.5107C89.9536 42.5803 89.545 42.5297 89.1785 42.3655C88.812 42.2012 88.5047 41.9312 88.2975 41.5911C88.0903 41.251 87.9929 40.857 88.0181 40.4611C88.0434 40.0653 88.1902 39.6863 88.439 39.3745H88.442Z"></path><path id="vector_14" fill="#000000" d="M83.927 138.187C82.7035 136.028 80.9057 134.239 78.727 133.011C75.536 131.191 70.861 131.238 68.854 132.174C68.532 132.325 68.695 132.696 68.96 132.802C71.605 133.855 83.56 138.657 83.61 138.657C83.6716 138.675 83.7373 138.673 83.7976 138.652C83.858 138.63 83.9097 138.59 83.9451 138.537C83.9806 138.485 83.998 138.422 83.9947 138.359C83.9915 138.296 83.9677 138.236 83.927 138.187V138.187Z"></path><path id="vector_15" fill="#000000" d="M99.108 138.187C97.8975 136.018 96.0966 134.226 93.908 133.011C90.717 131.191 86.043 131.238 84.035 132.174C83.714 132.325 83.877 132.696 84.142 132.802C86.786 133.855 98.742 138.657 98.791 138.657C99 138.728 99.276 138.508 99.108 138.187Z"></path><path id="vector_16" fill="#000000" d="M69.755 61.5418C69.6329 61.412 69.4853 61.3079 69.3211 61.236C69.157 61.164 68.9797 61.1256 68.8 61.1232C67.845 61.1232 67.2 62.1082 66.73 62.7445C66.0793 63.617 65.5774 64.5881 65.244 65.6197C65.2209 65.6833 65.2176 65.7523 65.2346 65.8178C65.2516 65.8833 65.2881 65.9423 65.3393 65.9872C65.3906 66.0321 65.4544 66.0608 65.5224 66.0698C65.5904 66.0787 65.6596 66.0674 65.721 66.0373C67.155 65.1508 69.065 64.3126 69.808 62.7445C69.9051 62.5565 69.9512 62.347 69.9419 62.1363C69.9326 61.9256 69.8683 61.7208 69.755 61.5418V61.5418Z"></path><path id="vector_17" fill="#000000" d="M39.129 51.3471V49.3603C39.129 49.3157 39.1201 49.2715 39.1027 49.2303C39.0854 49.1891 39.06 49.1516 39.0279 49.12C38.9959 49.0885 38.9579 49.0635 38.916 49.0464C38.8742 49.0293 38.8293 49.0205 38.784 49.0205C38.7387 49.0205 38.6938 49.0293 38.652 49.0464C38.6101 49.0635 38.5721 49.0885 38.54 49.12C38.508 49.1516 38.4826 49.1891 38.4653 49.2303C38.4479 49.2715 38.439 49.3157 38.439 49.3603V51.3471C38.439 51.3917 38.4479 51.4359 38.4653 51.4771C38.4826 51.5184 38.508 51.5558 38.54 51.5874C38.5721 51.6189 38.6101 51.644 38.652 51.661C38.6938 51.6781 38.7387 51.6869 38.784 51.6869C38.8293 51.6869 38.8742 51.6781 38.916 51.661C38.9579 51.644 38.9959 51.6189 39.0279 51.5874C39.06 51.5558 39.0854 51.5184 39.1027 51.4771C39.1201 51.4359 39.129 51.3917 39.129 51.3471Z"></path><path id="vector_18" fill="#000000" d="M41.146 51.2417V49.3603C41.146 49.3157 41.1371 49.2715 41.1197 49.2303C41.1024 49.1891 41.077 49.1516 41.0449 49.12C41.0129 49.0885 40.9749 49.0635 40.933 49.0464C40.8912 49.0293 40.8463 49.0205 40.801 49.0205C40.7557 49.0205 40.7108 49.0293 40.669 49.0464C40.6271 49.0635 40.5891 49.0885 40.557 49.12C40.525 49.1516 40.4996 49.1891 40.4823 49.2303C40.4649 49.2715 40.456 49.3157 40.456 49.3603V51.2417C40.456 51.2863 40.4649 51.3305 40.4823 51.3717C40.4996 51.413 40.525 51.4504 40.557 51.482C40.5891 51.5135 40.6271 51.5386 40.669 51.5556C40.7108 51.5727 40.7557 51.5815 40.801 51.5815C40.8463 51.5815 40.8912 51.5727 40.933 51.5556C40.9749 51.5386 41.0129 51.5135 41.0449 51.482C41.077 51.4504 41.1024 51.413 41.1197 51.3717C41.1371 51.3305 41.146 51.2863 41.146 51.2417Z"></path><path id="vector_19" fill="#000000" d="M42.367 53.0718C42.4299 53.0093 42.4652 52.9247 42.465 52.8367C42.4648 52.7486 42.4292 52.6642 42.366 52.602C42.3028 52.5397 42.2171 52.5046 42.1277 52.5045C42.0383 52.5043 41.9525 52.539 41.889 52.601C41.5992 52.8583 41.2585 53.0538 40.8884 53.1755C40.5183 53.2971 40.1267 53.3422 39.7381 53.3079C39.3494 53.2736 38.9722 53.1607 38.6299 52.9761C38.2877 52.7916 37.9878 52.5395 37.749 52.2355C37.484 51.8691 36.949 52.3922 37.272 52.7064C37.5749 53.0705 37.9499 53.3701 38.3742 53.5869C38.7985 53.8037 39.2631 53.9331 39.7398 53.9673C40.2165 54.0015 40.6952 53.9397 41.1469 53.7858C41.5986 53.6318 42.0137 53.3889 42.367 53.0718V53.0718Z"></path><path id="vector_20" fill="#000000" d="M86.157 77.6968C85.6627 77.5864 85.1477 77.6055 84.6633 77.7522C84.1788 77.899 83.7419 78.1682 83.396 78.5331C82.9459 78.0764 82.4017 77.72 81.8 77.488C81.4421 77.3533 81.0529 77.321 80.6773 77.3949C80.3016 77.4688 79.9549 77.6459 79.677 77.9056C79.4707 78.1712 79.3464 78.4896 79.3189 78.8229C79.2914 79.1561 79.3619 79.4901 79.522 79.785C79.7859 80.1326 80.109 80.4326 80.477 80.6715C80.851 80.9828 81.213 81.3078 81.592 81.6132C83.128 82.8484 82.907 82.7627 83.025 82.7627C83.131 82.8681 83.29 82.9203 83.396 82.8158C84.6386 82.0088 85.8095 81.0993 86.896 80.0972C87.0326 79.8982 87.1225 79.6715 87.1589 79.4339C87.1954 79.1963 87.1776 78.9537 87.1068 78.7237C87.036 78.4937 86.914 78.2822 86.7497 78.1045C86.5854 77.9269 86.3829 77.7876 86.157 77.6968Z"></path><path id="vector_21" fill="#000000" d="M122.621 91.1333C121.757 91.9935 120.705 92.6475 119.544 93.0452C118.384 93.4428 117.147 93.5734 115.928 93.4271C114.708 93.2807 113.539 92.8613 112.509 92.2009C111.48 91.5405 110.618 90.6568 109.989 89.6173C109.151 88.2423 108.754 86.6496 108.852 85.0486C108.949 83.4475 109.536 81.9129 110.534 80.6462C111.533 79.3795 112.898 78.4399 114.448 77.9508C115.999 77.4617 117.664 77.446 119.224 77.9057C115.763 73.8416 110.124 73.7529 106.224 77.226C105.436 77.9563 104.821 78.8489 104.424 79.8402C104.628 80.0059 104.807 80.1997 104.955 80.4155C107.416 83.6472 106.89 89.901 103.628 91.7085C103.335 91.8768 103.01 91.9835 102.673 92.0217C101.373 94.1552 99.69 94.2429 97.737 95.0023C96.6253 95.3581 95.658 96.0541 94.976 96.9891C93.619 99.3954 95.526 100.084 95.826 101.694C95.9167 102.018 95.9254 102.36 95.8513 102.688C95.7772 103.016 95.6226 103.321 95.401 103.577C103.234 103.577 112.542 103.774 120.242 104.936C120.454 104.988 120.719 104.988 120.932 105.04C120.993 104.819 121.029 104.591 121.038 104.361C121.202 102.254 120.388 101.284 119.87 100.179C119.247 98.4587 120.029 97.5742 121.197 96.1518C122.56 94.6132 123.33 92.6516 123.373 90.6102V90.4536C123.096 90.6497 122.843 90.8778 122.621 91.1333V91.1333Z"></path><path id="vector_22" fill="#000000" d="M138.81 87.7349C138.442 88.1773 138.22 88.7193 138.173 89.289C138.126 89.8587 138.255 90.4291 138.545 90.9244C138.849 91.4266 139.307 91.8209 139.853 92.0501C140.399 92.2793 141.005 92.3317 141.583 92.1996C142.161 92.0676 142.682 91.758 143.07 91.3155C143.458 90.873 143.693 90.3206 143.741 89.7378C143.79 89.1551 143.649 88.5724 143.339 88.0736C143.029 87.5749 142.567 87.186 142.018 86.9632C141.469 86.7403 140.863 86.6949 140.286 86.8336C139.71 86.9724 139.193 87.288 138.81 87.7349V87.7349Z"></path><path id="vector_23" fill="#000000" d="M101.655 83.9703V87.212C101.655 87.3021 101.691 87.3885 101.756 87.4522C101.821 87.516 101.909 87.5518 102 87.5518C102.091 87.5518 102.179 87.516 102.244 87.4522C102.309 87.3885 102.345 87.3021 102.345 87.212V83.9703C102.338 83.8847 102.299 83.8046 102.235 83.7462C102.171 83.6878 102.087 83.6554 102 83.6554C101.913 83.6554 101.829 83.6878 101.765 83.7462C101.701 83.8046 101.662 83.8847 101.655 83.9703Z"></path><path id="vector_24" fill="#000000" d="M127.5 87.212V83.9703C127.5 83.8802 127.464 83.7938 127.399 83.73C127.334 83.6663 127.246 83.6305 127.155 83.6305C127.063 83.6305 126.976 83.6663 126.911 83.73C126.846 83.7938 126.81 83.8802 126.81 83.9703V87.212C126.761 87.6828 127.5 87.6828 127.5 87.212Z"></path><path id="vector_25" fill="#000000" d="M105.53 68.2862C103.641 71.0533 102.625 74.3091 102.611 77.6437C102.611 77.7338 102.647 77.8203 102.712 77.884C102.777 77.9477 102.864 77.9835 102.956 77.9835C103.047 77.9835 103.135 77.9477 103.2 77.884C103.265 77.8203 103.301 77.7338 103.301 77.6437C103.301 72.1799 106.124 66.7053 111.209 64.4683C115.582 62.5446 121.169 63.8251 124.585 68.7038C126.415 71.3569 127.395 74.4895 127.398 77.6969C127.398 77.787 127.434 77.8734 127.499 77.9372C127.564 78.0009 127.651 78.0367 127.743 78.0367C127.834 78.0367 127.922 78.0009 127.987 77.9372C128.052 77.8734 128.088 77.787 128.088 77.6969C128.106 74.7166 127.299 71.7878 125.753 69.2259C120.866 61.3222 110.768 60.9785 105.53 68.2862Z"></path><path id="vector_26" fill="#000000" d="M140.721 93.4864C140.721 96.9004 139.421 101.292 136.421 103.001C132.544 105.212 127.721 101.021 127.721 93.4332C127.721 93.3431 127.685 93.2566 127.62 93.1929C127.555 93.1292 127.468 93.0934 127.376 93.0934C127.285 93.0934 127.197 93.1292 127.132 93.1929C127.067 93.2566 127.031 93.3431 127.031 93.4332C127.031 97.1634 128.431 101.726 131.702 103.579C136.002 106.009 141.415 101.63 141.415 93.4884C141.415 93.4435 141.406 93.399 141.389 93.3575C141.372 93.316 141.346 93.2782 141.314 93.2464C141.282 93.2146 141.244 93.1893 141.202 93.172C141.16 93.1547 141.115 93.1457 141.069 93.1456C141.023 93.1455 140.978 93.1542 140.936 93.1712C140.894 93.1883 140.856 93.2134 140.823 93.245C140.791 93.2766 140.765 93.3143 140.748 93.3557C140.73 93.3971 140.721 93.4415 140.721 93.4864Z"></path><path id="vector_27" fill="#000000" d="M120.233 86.8987C119.967 87.2045 119.638 87.4499 119.266 87.6182C118.895 87.7865 118.492 87.8737 118.083 87.8737C117.674 87.8737 117.271 87.7865 116.9 87.6182C116.528 87.4499 116.199 87.2045 115.933 86.8987C115.666 86.5343 115.033 86.8987 115.349 87.2642C115.669 87.6652 116.076 87.9911 116.54 88.2185C117.004 88.4458 117.513 88.569 118.031 88.5789C118.549 88.5889 119.063 88.4855 119.535 88.2762C120.008 88.0669 120.427 87.7569 120.763 87.3686C121.037 87.0091 120.544 86.5264 120.233 86.8987Z"></path><path id="vector_28" fill="#000000" d="M114.553 35.6098C114.553 35.6999 114.589 35.7863 114.654 35.85C114.719 35.9138 114.807 35.9496 114.898 35.9496C114.99 35.9496 115.077 35.9138 115.142 35.85C115.207 35.7863 115.243 35.6999 115.243 35.6098C115.243 33.623 115.19 29.1265 115.19 28.8655C115.19 28.7753 115.154 28.6889 115.089 28.6252C115.024 28.5614 114.937 28.5256 114.845 28.5256C114.754 28.5256 114.666 28.5614 114.601 28.6252C114.536 28.6889 114.5 28.7753 114.5 28.8655C114.5 30.8522 114.553 35.2965 114.553 35.6098Z"></path><path id="vector_29" fill="#000000" d="M114.872 37.4921C114.967 37.4969 115.057 37.5376 115.122 37.6057C115.188 37.6738 115.225 37.7641 115.225 37.858C115.225 37.9519 115.188 38.0422 115.122 38.1103C115.057 38.1784 114.967 38.2191 114.872 38.2239C114.777 38.2191 114.687 38.1784 114.622 38.1103C114.556 38.0422 114.519 37.9519 114.519 37.858C114.519 37.7641 114.556 37.6738 114.622 37.6057C114.687 37.5376 114.777 37.4969 114.872 37.4921V37.4921Z"></path><path id="vector_30" fill="#000000" d="M16.359 77.1255C16.7481 76.8855 17.0268 76.5055 17.1359 76.0662C17.2449 75.6269 17.1757 75.1631 16.943 74.7733C16.6339 74.2612 16.2102 73.8253 15.7042 73.4989C15.1982 73.1725 14.6231 72.9643 14.023 72.89C13.934 72.8703 13.8408 72.8845 13.762 72.9295C13.6831 72.9746 13.6245 73.0474 13.5977 73.1332C13.5709 73.219 13.578 73.3117 13.6176 73.3926C13.6571 73.4735 13.7262 73.5367 13.811 73.5697C14.295 73.6259 14.7618 73.7804 15.1821 74.0234C15.6025 74.2663 15.9671 74.5924 16.253 74.9812C16.3746 75.1587 16.4449 75.3655 16.4564 75.5793C16.468 75.7932 16.4203 76.0061 16.3186 76.1953C16.2168 76.3846 16.0647 76.5431 15.8787 76.6538C15.6926 76.7645 15.4794 76.8234 15.262 76.8241C13.772 76.9019 11.802 75.8302 10.534 75.0511C10.163 74.7891 9.79099 75.4165 10.163 75.6253C10.308 75.6253 12.848 77.554 15.315 77.485C15.5312 77.5154 15.7385 77.5898 15.9239 77.7035C16.1093 77.8171 16.2686 77.9675 16.3917 78.1452C16.5149 78.3228 16.5991 78.5237 16.6391 78.7351C16.6791 78.9466 16.6739 79.1639 16.624 79.3733C16.144 80.7936 14.224 80.3159 12.734 79.9239C11.9595 79.7335 11.2109 79.4528 10.504 79.0876C10.13 78.8827 9.76099 79.4531 10.133 79.6629C10.186 79.7151 10.239 79.7151 10.292 79.7673C11.8097 80.5061 13.4644 80.9325 15.155 81.0202C15.4646 81.136 15.7256 81.3512 15.8958 81.6311C16.066 81.9109 16.1355 82.2392 16.093 82.5627C15.913 83.6265 14.743 83.7723 13.652 83.661C13.226 83.6176 13.227 84.2884 13.652 84.3406H13.917C16.7 84.645 17.526 82.3332 16.1 80.834C17.357 80.3297 18.021 78.5045 16.359 77.1255Z"></path></g></g><g id="line"><g id="group_2"><path id="vector_31" fill="#000000" d="M19.384 61.3321C19.696 61.6532 20.173 61.1823 19.862 60.8622C18.667 59.6329 17.54 58.3396 16.362 57.1498C16.2985 57.0877 16.2127 57.053 16.1233 57.0532C16.0339 57.0534 15.9482 57.0885 15.885 57.1507C15.8218 57.213 15.7862 57.2974 15.786 57.3855C15.7858 57.4735 15.8211 57.5581 15.884 57.6206C17.062 58.8105 18.189 60.1028 19.384 61.3321Z"></path><path id="vector_32" fill="#000000" d="M20.764 60.3914C20.864 60.812 21.557 60.6535 21.454 60.1826C21.124 58.6687 20.346 55.2143 20.287 54.9542C20.187 54.5336 19.494 54.6922 19.596 55.1631C21.025 61.7202 19.309 54.0165 20.764 60.3914Z"></path><path id="vector_33" fill="#000000" d="M23.471 60.025C23.636 59.5906 25.187 55.3058 25.223 55.163C25.382 54.7454 24.683 54.5838 24.533 54.9542C24.12 55.9717 22.8 59.7413 22.781 59.8161C22.622 60.287 23.313 60.4436 23.471 60.025Z"></path><path id="vector_34" fill="#000000" d="M30.955 103.106C30.796 102.687 30.106 102.897 30.265 103.315C31.751 106.975 33.396 111.088 34.723 114.801L35.466 114.592C34.139 110.88 32.495 106.817 30.955 103.106Z"></path><path id="vector_35" fill="#000000" d="M51.408 79.3753C51.6191 78.4872 51.5698 77.5582 51.2661 76.6965C50.9623 75.8348 50.4165 75.0757 49.692 74.5075C48.392 73.424 46.255 72.3838 45.339 71.6323C44.211 70.6798 42.144 67.3968 39.023 67.4499C37.749 67.4706 35.891 68.2862 35.891 69.8543C35.8846 69.9994 35.8987 70.1446 35.933 70.2858C35.4741 70.6659 35.1692 71.1959 35.0739 71.779C34.9787 72.3622 35.0994 72.9596 35.414 73.4624C35.7233 73.9401 36.1832 74.3048 36.723 74.5005C37.2629 74.6962 37.853 74.7121 38.403 74.5459C38.721 75.3878 38.9427 76.2619 39.064 77.1522C33.5119 79.4077 28.2724 82.3474 23.471 85.901C23.471 81.7108 23.071 71.1457 23.047 70.8965C22.842 68.7639 21.827 66.0857 19.756 66.7664C17.987 67.3997 18.323 70.5931 18.323 71.8371C16.8303 71.4117 15.3029 71.1151 13.758 70.9506C12.067 70.7428 9.77299 71.2205 9.03399 72.6754C8.8313 73.1067 8.76845 73.589 8.85398 74.0568C8.93951 74.5246 9.16926 74.955 9.51199 75.2896C8.91435 75.5317 8.4247 75.977 8.13199 76.5445C7.65399 77.6949 8.44999 78.74 9.35199 79.4197C9.1034 79.5107 8.87567 79.6495 8.68205 79.828C8.48843 80.0065 8.3328 80.2212 8.2242 80.4595C8.1156 80.6979 8.0562 80.9551 8.04947 81.2162C8.04274 81.4774 8.0888 81.7372 8.18499 81.9807C8.85899 83.6049 11.311 84.2245 13.068 84.4905C12.523 87.28 12.568 90.8398 13.811 93.3781C14.6074 94.8103 15.7219 96.0468 17.0713 96.9955C18.4206 97.9441 19.9701 98.5803 21.604 98.8567C18.22 103.821 16.909 111.593 16.571 117.585C16.571 117.742 16.777 117.994 16.936 117.994C17.958 118.138 20.396 118.364 22.461 118.538C20.069 120.914 17.035 124.663 16.093 127.676C16.624 127.048 17.102 126.473 17.633 125.846C19.1696 123.163 21.1092 120.725 23.386 118.614C24.65 118.717 25.63 118.787 25.807 118.787C26.178 118.578 26.55 118.37 26.974 118.16C23.7229 118.095 20.479 117.832 17.261 117.372C17.667 111.374 18.831 104.151 22.197 99.1778C23.1676 97.7301 24.4555 96.5153 25.966 95.6229C30.266 93.0009 34.497 94.8418 38.174 98.2371C43.289 103.132 46.674 109.937 47.038 110.471C47.2748 110.425 47.5061 110.355 47.728 110.262C43.094 101.792 35.335 90.3965 26.5 94.5315C24.7598 95.4296 23.2371 96.6872 22.036 98.2184C18.354 97.6589 14.951 95.0664 14.079 91.9144C13.7765 90.8508 13.599 89.7565 13.55 88.6531C15.321 87.6188 20.55 84.6018 22.785 83.4119C22.837 84.4511 22.837 85.4902 22.837 86.5294C22.837 86.7904 23.156 87.0002 23.368 86.8436C27.3571 83.8559 31.6422 81.2723 36.158 79.1321C35.7365 79.7362 35.5661 80.4765 35.682 81.2005C35.7367 81.396 35.8377 81.5759 35.9768 81.7254C36.1159 81.8749 36.289 81.9898 36.482 82.0605C36.3993 82.0401 36.3189 82.0117 36.242 81.9757C37.41 82.6229 39.025 81.1139 39.896 80.1042C40.238 80.7667 40.7132 81.3538 41.2927 81.8298C41.8722 82.3058 42.5439 82.6607 43.267 82.8731C47.396 84.3831 50.244 82.8475 51.192 80.1062C51.592 80.4588 51.992 80.8519 52.392 81.1996C52.5037 81.0006 52.6276 80.8085 52.763 80.6243C52.365 80.2254 51.868 79.7792 51.408 79.3753ZM8.92799 76.6508C9.06161 76.4197 9.24532 76.2204 9.46604 76.0672C9.68676 75.914 9.93907 75.8106 10.205 75.7643C11.735 76.7395 13.725 77.7117 15.534 77.5531H15.553C15.9015 77.7183 16.1844 77.9927 16.3575 78.3334C16.5305 78.6741 16.5838 79.0617 16.509 79.4354C16.034 80.8371 14.094 80.3219 12.537 79.9417C10.843 79.4679 8.16799 78.2268 8.92799 76.6508ZM9.56498 82.3461C9.34738 82.1992 9.16712 82.0049 9.03825 81.7782C8.90937 81.5515 8.83537 81.2985 8.82198 81.039C8.87198 80.4914 9.54899 79.991 10.071 79.7644C10.7824 80.1428 11.5398 80.4304 12.325 80.6204C13.1166 80.8367 13.924 80.9928 14.74 81.0873C16.167 81.236 16.918 83.7586 14.309 83.863C12.6083 83.8413 10.9543 83.3124 9.56498 82.3461V82.3461ZM13.652 87.9921C13.6561 86.8321 13.7628 85.6746 13.971 84.5328C16.305 84.7219 17.605 82.9696 16.004 80.9395C17.251 80.4263 17.894 78.6139 16.243 77.2379C16.5888 77.0132 16.8499 76.6826 16.986 76.2972C17.1227 75.8244 17.0656 75.3176 16.827 74.8857C16.5147 74.3766 16.0903 73.9431 15.585 73.6173C15.0798 73.2915 14.5066 73.0817 13.908 73.0034C13.8188 72.9831 13.7252 72.9967 13.6459 73.0417C13.5665 73.0866 13.5074 73.1595 13.4804 73.2456C13.4535 73.3317 13.4606 73.4247 13.5004 73.5059C13.5402 73.587 13.6097 73.6503 13.695 73.683C14.1789 73.7394 14.6458 73.8939 15.0661 74.1368C15.4864 74.3798 15.851 74.7059 16.137 75.0945C16.3085 75.3575 16.3833 75.6704 16.349 75.981C16.156 77.2852 14.368 76.9788 13.121 76.4873C11.305 75.7505 8.67799 74.4474 9.82999 72.7227C10.3725 72.0712 11.1549 71.6579 12.006 71.5732C13.4882 71.4454 14.9817 71.5869 16.412 71.9908C17.167 72.1339 17.9117 72.3261 18.641 72.566C18.6903 72.5782 18.7418 72.5794 18.7916 72.5696C18.8415 72.5597 18.8884 72.539 18.9291 72.509C18.9699 72.479 19.0033 72.4405 19.0269 72.3961C19.0506 72.3518 19.0639 72.3028 19.066 72.2528C19.091 71.1171 18.842 68.1227 19.866 67.4953C20.0635 67.3817 20.2918 67.3309 20.5197 67.3495C20.7476 67.3682 20.9642 67.4556 21.14 67.5997C22.6 68.6723 22.447 72.4508 22.52 73.6643C22.52 74.4208 22.788 80.7957 22.838 82.7618C21.783 83.3203 15.691 86.7313 13.652 87.9961V87.9921ZM38.174 73.88C37.8092 74.0196 37.4086 74.0404 37.0309 73.9393C36.6532 73.8382 36.3184 73.6206 36.0754 73.3184C35.8325 73.0161 35.6943 72.6452 35.681 72.2599C35.6678 71.8746 35.7802 71.4953 36.0019 71.1776C36.2235 70.8598 36.5426 70.6204 36.9125 70.4944C37.2824 70.3684 37.6835 70.3624 38.0571 70.4774C38.4306 70.5924 38.7569 70.8222 38.9882 71.1332C39.2194 71.4442 39.3434 71.82 39.342 72.2055C39.3495 72.5699 39.2409 72.9274 39.0314 73.2278C38.8219 73.5282 38.522 73.7563 38.174 73.88ZM36.316 80.9907C36.053 80.386 36.88 79.1301 37.165 78.6376C37.77 78.3903 38.492 78.1224 39.154 77.8722C39.2397 78.3813 39.3791 78.8801 39.57 79.3606C38.684 80.3406 36.826 82.2112 36.316 80.9907V80.9907ZM49.533 81.566C48.859 82.1602 48.0331 82.5619 47.1444 82.7277C46.2557 82.8934 45.3379 82.817 44.49 82.5067C38.841 80.9888 40.513 77.1286 39.025 74.1972C39.3304 73.9545 39.582 73.6528 39.7643 73.3105C39.9466 72.9683 40.0558 72.5929 40.085 72.2075C40.086 71.7966 39.9843 71.3918 39.7889 71.0288C39.5934 70.6658 39.3102 70.3558 38.9642 70.1263C38.6182 69.8967 38.2202 69.7546 37.8052 69.7125C37.3903 69.6704 36.9712 69.7296 36.585 69.8849C36.5659 69.6941 36.6031 69.5019 36.692 69.3313C36.8708 69.0433 37.1101 68.7964 37.3938 68.6071C37.6775 68.4179 37.9992 68.2906 38.337 68.234C41.044 67.711 42.796 70.1685 44.437 71.8411C46.309 73.685 50.291 74.5991 50.806 77.7511C50.8942 78.4402 50.8258 79.1399 50.6056 79.7997C50.3854 80.4595 50.0191 81.0629 49.533 81.566V81.566Z"></path><path id="vector_36" fill="#000000" d="M29.734 62.0117C31.111 61.4798 32.441 60.9666 33.821 60.4436C40.554 65.5282 49.477 59.5758 49.055 51.3993C48.632 43.2041 39.527 39.3656 33.555 44.7073C31.8523 46.2643 30.7015 48.3182 30.2717 50.5672C29.8418 52.8162 30.1557 55.1417 31.167 57.202C30.53 58.6657 29.946 60.1304 29.309 61.5941C29.2899 61.6523 29.2875 61.7146 29.3021 61.7741C29.3167 61.8335 29.3477 61.8879 29.3917 61.9311C29.4357 61.9743 29.4909 62.0047 29.5513 62.0189C29.6117 62.0332 29.6749 62.0307 29.734 62.0117V62.0117ZM31.858 57.3064C31.911 57.202 31.858 57.1498 31.804 57.0454C30.9308 55.28 30.5965 53.303 30.8417 51.3542C31.0868 49.4054 31.9008 47.5686 33.185 46.0666C34.221 44.8009 35.6102 43.8614 37.1814 43.3635C38.7527 42.8657 40.4375 42.8314 42.0283 43.2648C43.6191 43.6982 45.0465 44.5804 46.1347 45.8028C47.223 47.0252 47.9245 48.5343 48.153 50.1445C48.4601 51.8389 48.3239 53.5824 47.7574 55.2106C47.1909 56.8388 46.2127 58.2981 44.915 59.4507C43.6382 60.5891 42.0378 61.3145 40.3296 61.5294C38.6213 61.7443 36.8872 61.4382 35.361 60.6524C34.023 59.829 33.925 59.6349 33.768 59.7118C32.601 60.1304 31.433 60.5983 30.268 61.0189C30.8 59.8162 31.327 58.5613 31.858 57.3064Z"></path><path id="vector_37" fill="#000000" d="M39.129 51.3471V49.3603C39.129 49.3157 39.1201 49.2715 39.1027 49.2303C39.0854 49.1891 39.06 49.1516 39.0279 49.12C38.9959 49.0885 38.9579 49.0635 38.916 49.0464C38.8742 49.0293 38.8293 49.0205 38.784 49.0205C38.7387 49.0205 38.6938 49.0293 38.652 49.0464C38.6101 49.0635 38.5721 49.0885 38.54 49.12C38.508 49.1516 38.4826 49.1891 38.4653 49.2303C38.4479 49.2715 38.439 49.3157 38.439 49.3603V51.3471C38.439 51.3917 38.4479 51.4359 38.4653 51.4771C38.4826 51.5184 38.508 51.5558 38.54 51.5874C38.5721 51.6189 38.6101 51.644 38.652 51.661C38.6938 51.6781 38.7387 51.6869 38.784 51.6869C38.8293 51.6869 38.8742 51.6781 38.916 51.661C38.9579 51.644 38.9959 51.6189 39.0279 51.5874C39.06 51.5558 39.0854 51.5184 39.1027 51.4771C39.1201 51.4359 39.129 51.3917 39.129 51.3471Z"></path><path id="vector_38" fill="#000000" d="M41.146 51.2417V49.3603C41.146 49.3157 41.1371 49.2715 41.1197 49.2303C41.1024 49.1891 41.077 49.1516 41.0449 49.12C41.0129 49.0885 40.9749 49.0635 40.933 49.0464C40.8912 49.0293 40.8463 49.0205 40.801 49.0205C40.7557 49.0205 40.7108 49.0293 40.669 49.0464C40.6271 49.0635 40.5891 49.0885 40.557 49.12C40.525 49.1516 40.4996 49.1891 40.4823 49.2303C40.4649 49.2715 40.456 49.3157 40.456 49.3603V51.2417C40.456 51.2863 40.4649 51.3305 40.4823 51.3717C40.4996 51.413 40.525 51.4504 40.557 51.482C40.5891 51.5135 40.6271 51.5386 40.669 51.5556C40.7108 51.5727 40.7557 51.5815 40.801 51.5815C40.8463 51.5815 40.8912 51.5727 40.933 51.5556C40.9749 51.5386 41.0129 51.5135 41.0449 51.482C41.077 51.4504 41.1024 51.413 41.1197 51.3717C41.1371 51.3305 41.146 51.2863 41.146 51.2417Z"></path><path id="vector_39" fill="#000000" d="M42.367 53.0718C42.4299 53.0093 42.4652 52.9247 42.465 52.8367C42.4648 52.7486 42.4292 52.6642 42.366 52.602C42.3028 52.5397 42.2171 52.5046 42.1277 52.5045C42.0383 52.5043 41.9525 52.539 41.889 52.601C41.5992 52.8583 41.2585 53.0538 40.8884 53.1755C40.5183 53.2971 40.1267 53.3422 39.7381 53.3079C39.3494 53.2736 38.9722 53.1607 38.6299 52.9761C38.2877 52.7916 37.9878 52.5395 37.749 52.2355C37.484 51.8691 36.949 52.3922 37.272 52.7064C37.5749 53.0705 37.9499 53.3701 38.3742 53.5869C38.7985 53.8037 39.2631 53.9331 39.7398 53.9673C40.2165 54.0015 40.6952 53.9397 41.1469 53.7858C41.5986 53.6318 42.0137 53.3889 42.367 53.0718V53.0718Z"></path><path id="vector_40" fill="#000000" d="M78.779 133.064C75.631 131.245 70.919 131.286 68.906 132.226C68.584 132.377 68.747 132.748 69.012 132.854C71.659 133.908 83.612 138.71 83.662 138.71C83.933 138.799 84.162 138.44 84.033 138.187C82.7474 136.071 80.9402 134.308 78.779 133.064V133.064ZM70.079 132.541C72.783 131.978 75.5998 132.309 78.094 133.481C79.9851 134.484 81.6049 135.919 82.818 137.665C82.709 137.622 72.758 133.598 70.074 132.541H70.079Z"></path><path id="vector_41" fill="#000000" d="M84.086 132.174C83.765 132.325 83.928 132.696 84.193 132.802C86.837 133.855 98.793 138.657 98.842 138.657C99.116 138.747 99.342 138.381 99.214 138.134C98.0073 135.963 96.2055 134.17 94.014 132.959C91.31 131.629 86.682 130.961 84.086 132.174ZM97.94 137.665C94.49 136.252 85.997 132.854 85.201 132.543C87.905 131.98 90.7218 132.311 93.216 133.483C95.1068 134.486 96.7266 135.92 97.94 137.665V137.665Z"></path><path id="vector_42" fill="#000000" d="M65.668 66.0374C67.101 65.1509 69.012 64.3126 69.755 62.7445C69.8636 62.5694 69.9166 62.3663 69.9071 62.1613C69.8977 61.9563 69.8263 61.7588 69.702 61.594C69.5793 61.465 69.4315 61.3614 69.2675 61.2895C69.1035 61.2176 68.9265 61.1788 68.747 61.1754C67.791 61.1754 67.147 62.1604 66.677 62.7967C66.0263 63.6692 65.5244 64.6404 65.191 65.6719C65.093 65.9753 65.451 66.1447 65.668 66.0374ZM68.163 62.1171C68.425 61.9033 68.906 61.6985 69.171 62.0117C69.503 62.5042 67.988 63.7571 67.632 63.9984C67.16 64.3205 66.677 64.6259 66.199 64.8849C66.6963 63.8631 67.3597 62.9282 68.163 62.1171V62.1171Z"></path><path id="vector_43" fill="#000000" d="M55.955 101.224C56.0155 95.3479 57.1111 89.5271 59.193 84.0205C59.358 83.6049 58.657 83.4443 58.503 83.8117C56.431 88.7367 55.38 95.8356 55.265 101.274C55.257 101.642 55.953 101.642 55.955 101.224Z"></path><path id="vector_44" fill="#000000" d="M76.019 104.361C75.9882 104.327 75.9509 104.301 75.9094 104.282C75.8678 104.263 75.8228 104.253 75.7771 104.252C75.7315 104.251 75.686 104.259 75.6436 104.276C75.6012 104.292 75.5626 104.317 75.5303 104.349C75.4979 104.381 75.4725 104.419 75.4554 104.461C75.4384 104.502 75.4301 104.547 75.4311 104.592C75.4321 104.637 75.4424 104.682 75.4612 104.722C75.4801 104.763 75.5073 104.8 75.541 104.831C76.231 105.619 76.921 106.348 77.611 107.132C77.6745 107.194 77.7603 107.228 77.8497 107.228C77.9391 107.228 78.0248 107.193 78.088 107.131C78.1512 107.068 78.1868 106.984 78.187 106.896C78.1872 106.808 78.1519 106.723 78.089 106.661C77.385 105.942 76.709 105.145 76.019 104.361Z"></path><path id="vector_45" fill="#000000" d="M89.872 104.361C89.8078 104.303 89.7235 104.272 89.6366 104.274C89.5496 104.276 89.4668 104.31 89.4052 104.371C89.3437 104.431 89.3082 104.513 89.3061 104.598C89.304 104.684 89.3355 104.767 89.394 104.831C90.084 105.619 90.774 106.347 91.464 107.132C91.4953 107.163 91.5326 107.187 91.5737 107.204C91.6147 107.221 91.6588 107.23 91.7033 107.23C91.7478 107.23 91.7919 107.222 91.833 107.205C91.8742 107.188 91.9115 107.164 91.943 107.133C91.9745 107.102 91.9994 107.065 92.0164 107.024C92.0334 106.984 92.0421 106.94 92.042 106.896C92.0419 106.853 92.033 106.809 92.0159 106.769C91.9987 106.728 91.9736 106.692 91.942 106.661C91.238 105.942 90.562 105.145 89.872 104.361Z"></path><path id="vector_46" fill="#000000" d="M67.685 71.0048C68.0759 70.9299 68.4429 70.7636 68.755 70.5199C69.0671 70.2762 69.3152 69.9622 69.4785 69.6044C69.6417 69.2465 69.7154 68.8553 69.6932 68.4636C69.6709 68.0719 69.5535 67.6912 69.3508 67.3535C69.1481 67.0158 68.8661 66.731 68.5284 66.523C68.1906 66.3151 67.8072 66.19 67.4102 66.1585C67.0132 66.1269 66.6143 66.1897 66.2471 66.3416C65.8799 66.4935 65.5551 66.73 65.3 67.0313C64.9718 67.4324 64.7757 67.9224 64.7376 68.4362C64.6995 68.9499 64.8214 69.4628 65.087 69.9065C65.3582 70.3252 65.751 70.6538 66.2143 70.8497C66.6776 71.0455 67.1901 71.0996 67.685 71.0048V71.0048ZM67.473 66.8747C67.8844 66.9497 68.257 67.1623 68.5277 67.4765C68.7984 67.7907 68.9508 68.1874 68.959 68.5994C68.9601 68.9591 68.849 69.3104 68.6406 69.6057C68.4323 69.9011 68.1369 70.1262 67.7943 70.2507C67.4518 70.3751 67.0787 70.3929 66.7255 70.3015C66.3724 70.2101 66.0563 70.0141 65.8201 69.7399C65.5838 69.4657 65.4389 69.1266 65.4048 68.7685C65.3707 68.4105 65.4491 68.0507 65.6295 67.7381C65.8099 67.4254 66.0835 67.1749 66.4132 67.0204C66.743 66.866 67.1129 66.8151 67.473 66.8747V66.8747Z"></path><path id="vector_47" fill="#000000" d="M94.437 104.674C93.549 102.051 90.556 99.3039 85.486 98.5099C85.3028 95.4553 84.9241 92.4152 84.352 89.4076C85.0555 89.3439 85.7497 89.2039 86.422 88.9899C92.251 87.2228 95.322 81.1454 92.207 75.8146C91.4265 74.5625 90.3866 73.4868 89.1551 72.6577C87.9237 71.8286 86.5284 71.2649 85.0606 71.0034C83.5928 70.7419 82.0855 70.7884 80.6372 71.14C79.189 71.4916 77.8323 72.1403 76.656 73.0437C76.602 73.096 76.549 73.096 76.496 73.1482C76.305 73.1009 72.823 72.5079 71.825 72.3119C71.7567 72.2941 71.6845 72.2974 71.6182 72.3214C71.5518 72.3454 71.4946 72.3888 71.4541 72.4458C71.4137 72.5029 71.3919 72.5708 71.3919 72.6404C71.3919 72.7099 71.4136 72.7779 71.454 72.8349C71.571 72.9886 71.66 73.1432 71.762 73.2979C65.19 72.0873 55.34 75.3014 52.4 81.0951C52.367 81.2352 52.293 81.3627 52.187 81.4616C48.148 88.327 46.633 98.3238 47.402 105.725C47.5066 107.271 47.7445 108.805 48.113 110.311C47.356 110.747 46.224 111.426 44.504 112.612C42.215 113.999 43.024 115.961 44.504 115.696C45.1803 115.538 45.8257 115.271 46.415 114.908C47.4705 114.366 48.4664 113.717 49.387 112.974C49.228 113.34 49.069 113.762 48.909 114.124C48.4694 114.871 48.2488 115.724 48.272 116.587C48.511 118.113 50.417 118.83 51.722 116.691C52.337 115.684 52.996 114.652 53.633 113.658C54.493 117.386 54.506 117.998 55.226 118.416C55.4437 118.546 55.6957 118.611 55.9505 118.602C56.2053 118.593 56.4517 118.51 56.659 118.364C57.3739 117.747 57.8284 116.889 57.933 115.959C58.145 115.02 58.944 110.436 58.961 110.338C60.7887 111.048 62.6565 111.653 64.555 112.151C64.555 113.354 64.661 129.98 64.661 129.98C64.6598 130.028 64.6685 130.076 64.6867 130.121C64.7049 130.166 64.7322 130.207 64.7669 130.241C64.8015 130.275 64.8429 130.302 64.8885 130.32C64.9341 130.338 64.9829 130.347 65.032 130.346H95.976C96.0252 130.347 96.074 130.338 96.1196 130.32C96.1653 130.302 96.2067 130.275 96.2415 130.241C96.2762 130.207 96.3036 130.166 96.3219 130.121C96.3402 130.076 96.3491 130.028 96.348 129.98C96.473 124.516 96.863 110.251 94.437 104.674ZM76.656 73.8278C76.709 73.8278 76.762 73.7756 76.815 73.7756C83.029 68.7285 92.8 72.8901 92.685 80.3633C92.576 87.2386 83.738 91.4495 77.399 87.0554C75.712 85.9412 74.492 84.2626 73.9648 82.3304C73.4377 80.3983 73.6392 78.3435 74.532 76.5464C74.697 76.2223 74.522 76.2174 72.462 73.0989C72.6 73.1225 76.372 73.8278 76.656 73.8278ZM68.948 73.7352C69.331 74.9438 70.189 77.621 69.001 77.8653C67.666 78.1401 66.508 75.1507 66.028 73.8918C66.9955 73.763 67.972 73.7107 68.948 73.7352V73.7352ZM54.1 79.7358C56.185 77.2733 60.166 74.9093 65.353 74.0898C65.753 75.2797 66.644 77.3344 67.635 78.1155C68.888 79.0749 70.456 78.5844 70.335 76.6104C70.2666 75.6956 70.0708 74.7944 69.753 73.9322C70.6365 73.9695 71.5159 74.0715 72.384 74.2376C72.556 74.5577 72.833 74.8286 73.849 76.3898C70.855 82.4633 75.821 89.7523 83.669 89.4607C84.2934 92.4092 84.6717 95.4031 84.8 98.4124C79.5 97.7446 72.655 98.4528 67.374 99.1847C64.26 99.5787 59.018 100.519 56.121 101.851C55.876 101.972 55.192 102.27 55.06 102.531C54.8217 103.804 54.9045 105.115 55.301 106.35C52.9373 106.054 50.5533 105.945 48.172 106.025C47.026 94.4261 50.687 83.8147 54.1 79.7358ZM57.457 114.912C57.3507 115.67 57.1363 116.409 56.82 117.108C56.661 117.422 56.342 117.896 55.865 117.896C55.387 117.844 55.228 117.32 55.121 116.954C54.75 115.543 54.397 114.086 54.113 112.615C54.0939 112.552 54.057 112.494 54.0066 112.451C53.9561 112.407 53.8941 112.377 53.8277 112.367C53.7612 112.356 53.693 112.363 53.6308 112.389C53.5686 112.414 53.515 112.457 53.476 112.511C52.852 113.484 50.955 116.514 50.769 116.746C49.89 117.841 48.042 117.68 49.495 114.341C49.8416 113.575 50.1421 112.789 50.395 111.989C50.4138 111.916 50.4076 111.839 50.3772 111.77C50.3469 111.702 50.2941 111.645 50.2273 111.609C50.1605 111.573 50.0834 111.56 50.0082 111.572C49.933 111.583 49.864 111.62 49.812 111.674C48.4311 113.003 46.8112 114.067 45.035 114.812C44.713 114.962 43.867 115.335 43.708 114.759C43.601 114.341 44.026 113.819 44.345 113.505C45.2498 112.79 46.2078 112.143 47.211 111.57C49.776 109.886 48.598 111.818 48.166 106.708C50.6417 106.645 53.1188 106.766 55.576 107.07C56.0998 108.35 57.0767 109.4 58.326 110.025C58.063 111.609 57.766 113.324 57.454 114.912H57.457ZM82.909 129.665H65.4C65.4 126.58 65.294 111.941 65.294 111.941C65.2991 111.866 65.2743 111.791 65.2248 111.732C65.1752 111.674 65.1047 111.637 65.028 111.628C62.7496 111.145 60.5396 110.39 58.447 109.379C57.5718 108.97 56.8748 108.265 56.483 107.393C55.7622 106.046 55.4827 104.512 55.683 103.002C58.459 101.47 63.083 100.707 66.22 100.281C67.8 100.203 69.381 100.226 70.959 100.3C73.987 100.443 78.017 100.91 80.036 103.124C84.353 107.848 82.909 124.872 82.909 129.665ZM95.657 129.665H83.605C83.761 122.975 84.667 108.535 80.998 103.28C78.913 100.38 74.805 99.9313 71.298 99.6407C75.1108 99.0891 78.9704 98.9188 82.818 99.1325C85.2343 99.1138 87.6194 99.6696 89.771 100.753C90.9815 101.388 92.033 102.281 92.849 103.367C96.511 107.882 95.657 125.054 95.657 129.665V129.665Z"></path><path id="vector_48" fill="#000000" d="M80.53 80.6243C80.904 80.9356 81.279 81.2449 81.645 81.5108C82.7 82.285 83.183 82.9755 83.45 82.7125C84.6929 81.9058 85.8638 80.9964 86.95 79.9939C87.0794 79.7965 87.1633 79.5736 87.1956 79.3408C87.2279 79.108 87.2079 78.871 87.1371 78.6467C87.0662 78.4223 86.9461 78.216 86.7854 78.0424C86.6247 77.8687 86.4273 77.732 86.207 77.6417C85.7129 77.5315 85.198 77.5507 84.7138 77.6974C84.2296 77.8442 83.7928 78.1133 83.447 78.478C82.998 78.0214 82.4548 77.6651 81.854 77.4329C81.4961 77.2982 81.1069 77.266 80.7313 77.3399C80.3556 77.4138 80.0089 77.5908 79.731 77.8506C79.5271 78.1177 79.404 78.4361 79.3758 78.7691C79.3477 79.1022 79.4157 79.4363 79.572 79.7329C79.8265 80.0911 80.1525 80.3944 80.53 80.6243ZM80.212 78.4288C80.3361 78.2875 80.4916 78.1764 80.6665 78.1042C80.8413 78.0319 81.0307 78.0004 81.22 78.0121C81.9849 78.1733 82.675 78.5775 83.184 79.1626C83.2474 79.225 83.3333 79.2601 83.423 79.2601C83.5126 79.2601 83.5986 79.225 83.662 79.1626C83.924 78.8376 84.2671 78.585 84.6577 78.4297C85.0484 78.2743 85.4733 78.2214 85.891 78.2761C86.511 78.4583 86.61 79.1626 86.316 79.7398C85.3885 80.5672 84.3942 81.3189 83.343 81.9876C83.025 81.7265 81.49 80.4667 81.061 80.1062C80.746 79.8403 80.318 79.6354 80.161 79.269C80.102 79.1348 80.0758 78.9888 80.0847 78.8429C80.0936 78.6969 80.1372 78.555 80.212 78.4288V78.4288Z"></path><path id="vector_49" fill="#000000" d="M171.294 143.886C171.344 144.305 172.037 144.357 171.984 143.886C171.931 142.735 171.35 133.952 171.294 133.481C171.244 133.063 170.551 133.012 170.604 133.481C170.632 134.097 171.233 143.38 171.294 143.886Z"></path><path id="vector_50" fill="#000000" d="M173.789 143.99C175.089 140.497 176.363 136.923 177.663 133.429C177.819 133.01 177.132 132.854 176.973 133.22C175.699 136.723 174.373 140.278 173.099 143.782C173.079 143.869 173.093 143.961 173.139 144.039C173.185 144.116 173.259 144.174 173.346 144.2C173.433 144.227 173.527 144.22 173.609 144.181C173.691 144.142 173.756 144.074 173.789 143.99V143.99Z"></path><path id="vector_51" fill="#000000" d="M175.169 143.938C175.11 144.001 175.079 144.084 175.081 144.17C175.082 144.256 175.118 144.337 175.179 144.398C175.241 144.458 175.323 144.493 175.41 144.496C175.497 144.498 175.582 144.467 175.646 144.409C176.483 143.611 182.706 137.612 183.024 137.298C183.087 137.236 183.122 137.151 183.122 137.063C183.122 136.975 183.086 136.891 183.023 136.828C182.96 136.766 182.874 136.731 182.785 136.731C182.695 136.731 182.61 136.765 182.546 136.827C175.211 143.824 175.487 143.676 175.169 143.938Z"></path><path id="vector_52" fill="#000000" d="M161.156 172.327H141.676C141.584 172.327 141.497 172.363 141.432 172.426C141.367 172.49 141.331 172.576 141.331 172.667C141.331 172.757 141.367 172.843 141.432 172.907C141.497 172.971 141.584 173.006 141.676 173.006H161.156C161.243 173 161.324 172.961 161.383 172.898C161.443 172.835 161.476 172.753 161.476 172.667C161.476 172.581 161.443 172.498 161.383 172.435C161.324 172.372 161.243 172.333 161.156 172.327Z"></path><path id="vector_53" fill="#000000" d="M175.806 151.571C175.485 151.571 175.546 151.625 174.266 153.767C174.086 154.063 163.385 172.352 163.385 172.482C163.36 172.537 163.35 172.597 163.353 172.656C163.357 172.716 163.376 172.774 163.407 172.825C163.438 172.876 163.481 172.919 163.533 172.95C163.585 172.982 163.643 173 163.704 173.004H182.704C183.133 172.582 194.965 152.179 194.965 152.092C194.989 152.037 195 151.977 194.997 151.918C194.993 151.858 194.974 151.8 194.943 151.749C194.912 151.698 194.869 151.655 194.817 151.623C194.765 151.592 194.707 151.573 194.646 151.569L175.806 151.571ZM193.958 152.303C193.695 152.736 182.637 171.669 182.281 172.327H164.288C164.594 171.824 173.823 155.993 174.588 154.656C175.75 152.613 175.848 152.643 176.021 152.303H193.958Z"></path><path id="vector_54" fill="#000000" d="M176.92 164.328H181.326C181.378 164.331 181.431 164.321 181.479 164.299C181.526 164.278 181.568 164.245 181.599 164.203C181.631 164.162 181.652 164.113 181.659 164.062C181.667 164.011 181.662 163.959 181.644 163.91C181.432 162.812 181.278 161.713 181.06 160.616C181.042 160.56 181.01 160.508 180.966 160.467C180.923 160.426 180.869 160.397 180.811 160.381C180.753 160.365 180.692 160.364 180.633 160.378C180.575 160.392 180.521 160.42 180.476 160.46C179.362 161.4 176.655 163.753 176.655 163.753C176.612 163.804 176.584 163.865 176.575 163.931C176.566 163.996 176.576 164.063 176.604 164.123C176.632 164.183 176.676 164.234 176.732 164.27C176.788 164.306 176.853 164.326 176.92 164.328V164.328ZM180.476 161.296C180.636 162.084 180.742 162.812 180.901 163.596H177.876C178.725 162.864 179.627 162.08 180.476 161.296Z"></path><path id="vector_55" fill="#000000" d="M101.655 83.9703V87.212C101.655 87.3021 101.691 87.3885 101.756 87.4522C101.821 87.516 101.909 87.5518 102 87.5518C102.091 87.5518 102.179 87.516 102.244 87.4522C102.309 87.3885 102.345 87.3021 102.345 87.212V83.9703C102.338 83.8847 102.299 83.8046 102.235 83.7462C102.171 83.6878 102.087 83.6554 102 83.6554C101.913 83.6554 101.829 83.6878 101.765 83.7462C101.701 83.8046 101.662 83.8847 101.655 83.9703Z"></path><path id="vector_56" fill="#000000" d="M127.5 87.212V83.9703C127.5 83.8802 127.464 83.7938 127.399 83.73C127.334 83.6663 127.247 83.6305 127.155 83.6305C127.064 83.6305 126.976 83.6663 126.911 83.73C126.846 83.7938 126.81 83.8802 126.81 83.9703V87.212C126.761 87.6828 127.5 87.6828 127.5 87.212Z"></path><path id="vector_57" fill="#000000" d="M102.611 77.6447C102.611 77.7348 102.647 77.8212 102.712 77.885C102.777 77.9487 102.864 77.9845 102.956 77.9845C103.047 77.9845 103.135 77.9487 103.2 77.885C103.265 77.8212 103.301 77.7348 103.301 77.6447C103.301 68.4842 110.801 61.6877 118.64 64.2083C124.14 65.9754 127.398 72.0883 127.398 77.7491C127.398 77.8392 127.434 77.9257 127.499 77.9894C127.564 78.0531 127.651 78.0889 127.743 78.0889C127.834 78.0889 127.922 78.0531 127.987 77.9894C128.052 77.9257 128.088 77.8392 128.088 77.7491C128.088 71.7682 124.877 66.1261 119.755 63.9985C117.66 63.1099 115.34 62.8696 113.103 63.3093C110.866 63.7491 108.817 64.8482 107.229 66.461C105.121 68.0134 102.611 72.6606 102.611 77.6447Z"></path><path id="vector_58" fill="#000000" d="M140.721 93.4864C140.721 96.9004 139.421 101.292 136.421 103.001C132.544 105.212 127.721 101.021 127.721 93.4332C127.721 93.3431 127.685 93.2566 127.62 93.1929C127.555 93.1292 127.468 93.0934 127.376 93.0934C127.285 93.0934 127.197 93.1292 127.132 93.1929C127.067 93.2566 127.031 93.3431 127.031 93.4332C127.031 97.1634 128.431 101.726 131.702 103.579C136.002 106.009 141.415 101.63 141.415 93.4884C141.415 93.4435 141.406 93.399 141.389 93.3575C141.372 93.316 141.346 93.2782 141.314 93.2464C141.282 93.2146 141.244 93.1893 141.202 93.172C141.16 93.1547 141.115 93.1457 141.069 93.1456C141.023 93.1455 140.978 93.1542 140.936 93.1712C140.894 93.1883 140.856 93.2134 140.823 93.245C140.791 93.2766 140.765 93.3143 140.748 93.3557C140.73 93.3971 140.721 93.4415 140.721 93.4864Z"></path><path id="vector_59" fill="#000000" d="M143.852 89.5129C143.854 88.9407 143.676 88.382 143.342 87.9133C143.009 87.4445 142.537 87.0886 141.991 86.8941C141.445 86.6997 140.851 86.6762 140.29 86.827C139.73 86.9777 139.231 87.2953 138.86 87.7362C138.49 88.1772 138.267 88.72 138.222 89.2905C138.177 89.861 138.312 90.4312 138.609 90.9232C138.906 91.4152 139.349 91.8049 139.879 92.0391C140.409 92.2733 141 92.3405 141.57 92.2315C142.205 92.0963 142.775 91.7547 143.189 91.2616C143.603 90.7685 143.837 90.1525 143.852 89.5129V89.5129ZM139.341 90.817C139.056 90.473 138.888 90.0488 138.862 89.6053C138.836 89.1618 138.954 88.7216 139.197 88.3476C139.441 87.9737 139.798 87.6852 140.218 87.5234C140.638 87.3616 141.099 87.3348 141.536 87.4468C141.972 87.5588 142.362 87.8039 142.648 88.147C142.935 88.4902 143.104 88.9137 143.131 89.3572C143.158 89.8006 143.042 90.2412 142.8 90.6159C142.558 90.9906 142.201 91.2803 141.782 91.4435C141.36 91.605 140.897 91.6315 140.459 91.519C140.02 91.4065 139.629 91.1609 139.341 90.817V90.817Z"></path><path id="vector_60" fill="#000000" d="M115.933 86.8987C115.662 86.5362 115.033 86.8987 115.349 87.2642C115.669 87.6652 116.076 87.9911 116.54 88.2185C117.004 88.4458 117.513 88.5689 118.031 88.5789C118.549 88.5889 119.063 88.4855 119.535 88.2762C120.008 88.0669 120.427 87.7569 120.763 87.3686C121.037 87.009 120.551 86.5323 120.286 86.8987C120.013 87.2025 119.678 87.4457 119.303 87.6123C118.928 87.7788 118.521 87.865 118.109 87.865C117.698 87.865 117.291 87.7788 116.916 87.6123C116.541 87.4457 116.206 87.2025 115.933 86.8987V86.8987Z"></path><path id="vector_61" fill="#000000" d="M170.6 153.66C170.249 153.122 169.776 152.671 169.218 152.342C168.513 148.136 167.472 143.991 166.106 139.946C162.506 129.012 156.197 115.574 145.512 111.085C141.481 109.487 137.343 108.165 133.127 107.129C129.083 106.127 124.981 105.374 120.842 104.875C120.929 104.64 120.991 104.396 121.025 104.148C121.104 102.666 120.694 101.199 119.857 99.9658C119.713 99.6264 119.638 99.2621 119.638 98.8941C119.638 98.5261 119.713 98.1618 119.857 97.8224C120.857 95.6918 122.951 95.2161 123.377 90.299C123.625 89.9742 123.843 89.6288 124.03 89.2667C125.773 92.8255 128.93 92.8629 130.738 89.6666C131.333 88.4296 131.66 87.0837 131.696 85.7152C131.733 84.3467 131.478 82.9858 130.95 81.7196C130.082 79.7959 128.358 78.3598 126.386 79.2098C125.334 79.8155 124.519 80.7522 124.072 81.8693C123.127 80.1027 121.549 78.7453 119.645 78.0613C119.518 78.0072 119.383 77.9723 119.245 77.9579C118.302 76.8166 117.079 75.9309 115.692 75.3846C114.305 74.8382 112.799 74.6491 111.317 74.8353C109.835 75.0214 108.426 75.5766 107.222 76.4483C106.018 77.3201 105.06 78.4797 104.438 79.8176L103.831 79.3684C103.424 79.159 102.975 79.0411 102.516 79.023C102.057 79.0049 101.6 79.0873 101.177 79.264C98.836 80.3475 97.142 84.8785 98.788 88.9367C99.507 90.7097 100.972 92.3054 102.751 92.0237C100.66 95.3658 96.87 94.1011 95.02 96.9881C93.656 99.4063 95.601 100.111 95.869 101.693C95.9528 101.994 95.9673 102.309 95.9112 102.616C95.8551 102.923 95.73 103.214 95.545 103.466C94.9801 103.455 94.415 103.473 93.852 103.52C93.958 103.728 94.117 103.989 94.223 104.199C101.504 104.008 108.791 104.271 116.038 104.987C121.195 105.517 126.316 106.337 131.378 107.444C135.628 108.392 139.801 109.646 143.865 111.195C147.805 119.826 149.656 136.662 149.814 146.012C149.814 146.323 149.83 146.792 149.868 147.15C123.938 141.905 107.204 143.337 82.777 154.433C80.868 154.389 50.843 154.408 50.734 154.421C50.734 153.062 51.071 120.346 51.124 117.366C50.9218 117.522 50.6856 117.629 50.434 117.68C50.381 120.032 50.062 145.61 50.009 149.374C50.009 152.934 49.909 153.878 49.902 154.488C3.182 154.488 6.696 154.462 5.795 154.551C5.895 145.445 10.075 136.519 15.615 129.35C20.099 123.498 23.751 120.75 27.239 118.737C32.574 115.782 41.044 112.925 46.976 111.116C47.4109 110.836 47.8598 110.578 48.321 110.343L48.258 110.058C48.158 110.093 33.164 114.451 26.973 118.109C25.5857 118.821 24.2707 119.661 23.046 120.619C16.9533 125.65 12.076 131.955 8.769 139.076C6.41021 144.023 5.12646 149.401 5 154.865C5.053 155.127 5.212 155.309 5.372 155.309H81.007C73.275 158.884 61.675 164.743 51.734 170.662C50.934 171.133 50.169 171.699 49.373 172.17C49.3144 172.21 49.2696 172.267 49.2446 172.333C49.2195 172.399 49.2154 172.47 49.2328 172.538C49.2501 172.607 49.2882 172.668 49.3418 172.714C49.3955 172.76 49.4621 172.79 49.533 172.798C94.1 172.798 103.091 172.844 104.991 172.766C105.625 172.741 105.47 172.701 105.583 172.641C108.549 170.81 111.386 168.784 114.076 166.576C116.581 164.619 124.276 158.349 124.376 158.263C137.891 167.416 140.076 169.455 143.112 170.083C143.682 170.23 144.276 170.264 144.86 170.183C145.444 170.102 146.005 169.908 146.512 169.612C148.476 168.201 147.149 165.377 146.459 163.652C145.651 161.32 144.564 159.091 143.222 157.012C150.594 160.43 155.558 162.865 159.782 163.757C161.958 164.227 166.311 164.644 166.364 161.352C166.364 158.936 164.164 157.988 162.864 156.96C164.549 157.376 167.764 157.945 169.446 157.222C169.784 157.091 170.088 156.887 170.336 156.625C170.584 156.364 170.77 156.052 170.881 155.711C170.991 155.37 171.024 155.009 170.975 154.654C170.926 154.3 170.798 153.96 170.6 153.66V153.66ZM124.45 82.677C124.604 81.8152 126.15 79.136 128.19 79.7861C129.081 80.1732 129.785 80.8853 130.154 81.7728C132.434 86.5668 129.533 92.6354 126.598 91.0791C125.581 90.4509 124.817 89.4951 124.435 88.3743C125.187 86.5494 125.194 84.5087 124.454 82.679L124.45 82.677ZM124.156 84.387C124.348 85.5402 124.255 86.7221 123.885 87.8322C123.514 88.9424 122.876 89.9479 122.027 90.7634C121.177 91.5789 120.14 92.1802 119.003 92.5162C117.867 92.8522 116.665 92.913 115.5 92.6934C114.334 92.4737 113.24 91.9802 112.31 91.2547C111.38 90.5292 110.641 89.5932 110.157 88.5263C109.673 87.4594 109.457 86.2931 109.529 85.1265C109.601 83.96 109.957 82.8278 110.568 81.826C111.363 80.5574 112.528 79.5545 113.91 78.9483C115.293 78.342 116.829 78.1606 118.318 78.4278C119.795 78.7117 121.147 79.4359 122.192 80.5022C123.237 81.5684 123.924 82.9253 124.16 84.389L124.156 84.387ZM101.439 91.0791C99.667 90.2645 97.969 86.49 99.369 82.4525C99.9 80.9888 101.227 79.1586 103.031 79.7339C103.913 80.1614 104.611 80.8852 105 81.7748C105.499 82.8916 105.771 84.0944 105.798 85.3145C105.826 86.5345 105.609 87.748 105.16 88.8855C104.479 90.5216 102.986 91.9006 101.443 91.0811L101.439 91.0791ZM120.148 104.771C113.392 103.999 106.601 103.565 99.8 103.471H96.4C96.7008 102.679 96.7008 101.807 96.4 101.015C95.981 99.8811 95.022 99.2772 95.285 97.982C95.856 96.1105 98.165 95.55 99.425 95.1068C101.359 94.4271 102.611 93.845 103.725 91.6908C106.725 90.0892 107.625 83.7517 104.97 80.3771C105.412 79.3453 106.068 78.4156 106.894 77.647C107.721 76.8784 108.702 76.2877 109.773 75.9127C110.844 75.5376 111.983 75.3863 113.117 75.4685C114.251 75.5506 115.355 75.8644 116.359 76.3898C116.976 76.7543 117.545 77.1931 118.053 77.6959C116.686 77.4971 115.29 77.6476 113.999 78.133C112.708 78.6183 111.565 79.4223 110.68 80.4677C109.633 81.7421 109.006 83.3011 108.882 84.9362C108.759 86.5713 109.145 88.2045 109.99 89.6174C110.621 90.6481 111.481 91.5246 112.505 92.1808C113.529 92.8369 114.691 93.2558 115.903 93.4058C117.116 93.5558 118.347 93.433 119.504 93.0468C120.661 92.6605 121.714 92.0207 122.584 91.1756C122.331 94.8201 119.903 95.6574 119.172 97.8254C118.463 99.9264 120.157 101.149 120.34 102.947C120.37 103.563 120.307 104.179 120.152 104.777L120.148 104.771ZM144.769 111.5C157.588 116.511 164.889 135.648 167.805 148.777C168.01 149.787 168.215 150.913 168.42 151.929C165.735 150.632 153.706 148.017 150.575 147.3C150.212 136.688 148.82 121.368 144.773 111.502L144.769 111.5ZM169.963 155.957C169.163 157.055 167.256 156.898 166.088 156.793C164.345 156.654 162.632 156.268 161 155.649C160.628 155.492 160.416 156.067 160.734 156.276C162.183 157.168 163.551 158.183 164.821 159.309C165.985 160.456 166.008 162.363 164.556 163.074C160.349 164.997 148.167 158.384 142.369 155.806C142.298 155.763 142.213 155.748 142.131 155.762C142.049 155.776 141.975 155.819 141.923 155.883C141.871 155.947 141.844 156.028 141.848 156.11C141.853 156.192 141.887 156.27 141.945 156.328C143.429 158.271 144.608 160.421 145.445 162.707C145.869 163.806 146.345 164.903 146.666 166.001C147.528 169.061 145.648 170.017 142.526 169.138C141.37 168.738 140.279 168.174 139.288 167.464C137.005 165.948 127.239 159.308 124.638 157.478C124.58 157.452 124.516 157.439 124.452 157.439C124.389 157.439 124.325 157.452 124.267 157.478L105.158 172.013H51.158C64.4156 164.083 78.2662 157.157 92.59 151.296C105.134 146.245 118.716 144.194 132.22 145.312C143.203 146.408 154.072 148.424 164.707 151.339C167.385 152.059 171.56 153.721 169.967 155.963L169.963 155.957Z"></path><path id="vector_62" fill="#000000" d="M157.334 153.453C156.06 152.982 146.397 149.436 145.923 149.271C145.495 149.122 145.335 149.802 145.71 149.951C146.973 150.45 156.647 153.967 157.122 154.133C157.55 154.283 157.759 153.61 157.334 153.453Z"></path><path id="vector_63" fill="#000000" d="M134.3 150.003C133.929 149.742 133.61 150.316 133.929 150.578C134.029 150.651 139.158 154.312 140.192 155.127C140.564 155.388 140.892 154.806 140.564 154.551C139.231 153.505 134.831 150.422 134.3 150.003Z"></path><path id="vector_64" fill="#000000" d="M94.861 39.2691C95.971 38.7362 97.038 38.224 98.152 37.7532C98.577 37.5444 98.207 36.9731 97.781 37.1779C96.671 37.7118 95.604 38.224 94.49 38.6948C94.065 38.9076 94.435 39.475 94.861 39.2691Z"></path><path id="vector_65" fill="#000000" d="M98.789 40.2629H94.861C94.8157 40.2629 94.7708 40.2717 94.729 40.2888C94.6871 40.3059 94.6491 40.3309 94.617 40.3625C94.585 40.394 94.5596 40.4315 94.5423 40.4727C94.5249 40.5139 94.516 40.5581 94.516 40.6028C94.516 40.6474 94.5249 40.6916 94.5423 40.7328C94.5596 40.774 94.585 40.8115 94.617 40.8431C94.6491 40.8746 94.6871 40.8996 94.729 40.9167C94.7708 40.9338 94.8157 40.9426 94.861 40.9426H98.789C98.8343 40.9426 98.8792 40.9338 98.921 40.9167C98.9629 40.8996 99.0009 40.8746 99.0329 40.8431C99.065 40.8115 99.0904 40.774 99.1077 40.7328C99.1251 40.6916 99.134 40.6474 99.134 40.6028C99.134 40.5581 99.1251 40.5139 99.1077 40.4727C99.0904 40.4315 99.065 40.394 99.0329 40.3625C99.0009 40.3309 98.9629 40.3059 98.921 40.2888C98.8792 40.2717 98.8343 40.2629 98.789 40.2629Z"></path><path id="vector_66" fill="#000000" d="M98.152 43.5046C97.052 42.9136 95.981 42.3442 94.861 41.7788C94.439 41.5661 94.114 42.1522 94.49 42.3541C95.59 42.9451 96.666 43.5046 97.781 44.0798C97.8194 44.1048 97.8624 44.122 97.9075 44.1305C97.9527 44.1389 97.9992 44.1384 98.0441 44.1289C98.0891 44.1195 98.1317 44.1013 98.1695 44.0754C98.2072 44.0496 98.2394 44.0166 98.264 43.9783C98.2887 43.9401 98.3053 43.8974 98.3131 43.8528C98.3208 43.8081 98.3194 43.7624 98.3089 43.7183C98.2985 43.6742 98.2793 43.6326 98.2523 43.5959C98.2254 43.5592 98.1913 43.5281 98.152 43.5046V43.5046Z"></path><path id="vector_67" fill="#000000" d="M92.738 43.0337C93.722 41.439 93.038 39.0306 91.995 37.4921C91.726 36.994 91.3063 36.5908 90.794 36.3384C90.2818 36.086 89.7026 35.997 89.1366 36.0836C88.5707 36.1702 88.0462 36.4283 87.6359 36.8219C87.2256 37.2155 86.9499 37.7251 86.847 38.2801C86.693 38.8839 86.947 39.533 86.74 40.0058C86.451 40.8598 84.815 40.5968 84.033 41.4695C83.8321 41.7144 83.6975 42.0055 83.6419 42.3156C83.5863 42.6257 83.6114 42.9446 83.715 43.2425C84.586 45.769 90.938 45.9522 92.738 43.0337ZM84.405 41.9886C84.782 41.2449 86.424 41.3365 87.059 40.6815C87.603 40.1191 87.438 39.3744 87.483 38.6947C87.497 38.245 87.6604 37.8122 87.9482 37.4628C88.2359 37.1133 88.6321 36.8665 89.076 36.7602C90.976 36.2677 91.93 38.5923 92.314 40.054C92.589 40.7393 92.6005 41.4999 92.3464 42.1929C92.0923 42.8859 91.59 43.4637 90.934 43.8177C88.96 45.0106 85.777 44.6471 84.723 43.6089C84.4997 43.4087 84.3481 43.1428 84.2907 42.8508C84.2334 42.5588 84.2735 42.2563 84.405 41.9886Z"></path><path id="vector_68" fill="#000000" d="M90.35 42.5106C90.775 42.433 91.1618 42.2186 91.4497 41.901C91.7376 41.5834 91.9103 41.1806 91.9406 40.7559C91.971 40.3312 91.8572 39.9085 91.6173 39.5544C91.3774 39.2002 91.0248 38.9346 90.615 38.7991C90.3293 38.697 90.0235 38.6616 89.7215 38.6957C89.4196 38.7298 89.1298 38.8324 88.8749 38.9955C88.6201 39.1586 88.4071 39.3778 88.2529 39.6357C88.0986 39.8936 88.0072 40.1833 87.9859 40.4819C87.9646 40.7806 88.0139 41.08 88.13 41.3566C88.2461 41.6333 88.4258 41.8796 88.6549 42.0763C88.8841 42.2729 89.1565 42.4145 89.4506 42.4899C89.7447 42.5652 90.0526 42.5723 90.35 42.5106ZM89.978 39.3222C90.2298 39.323 90.4758 39.3972 90.6848 39.5356C90.8938 39.674 91.0565 39.8704 91.1523 40.0998C91.248 40.3292 91.2726 40.5815 91.223 40.8246C91.1733 41.0678 91.0515 41.2911 90.8731 41.4661C90.6947 41.6412 90.4676 41.7602 90.2205 41.8082C89.9734 41.8562 89.7174 41.831 89.4849 41.7358C89.2523 41.6405 89.0536 41.4795 88.914 41.2731C88.7743 41.0667 88.6998 40.8241 88.7 40.5761C88.7047 40.2441 88.841 39.9271 89.0798 39.6928C89.3186 39.4585 89.641 39.3255 89.978 39.3222V39.3222Z"></path><path id="vector_69" fill="#000000" d="M139.116 55.0064C138.574 53.7615 137.56 52.7745 136.289 52.2563C136.733 51.956 137.106 51.5653 137.383 51.1108C137.66 50.6562 137.834 50.1483 137.895 49.6214C137.895 49.5313 137.859 49.4449 137.794 49.3811C137.729 49.3174 137.642 49.2816 137.55 49.2816C137.459 49.2816 137.371 49.3174 137.306 49.3811C137.241 49.4449 137.205 49.5313 137.205 49.6214C137.136 50.1042 136.955 50.5649 136.676 50.9676C136.397 51.3702 136.027 51.7041 135.596 51.9431C135.255 51.9785 134.987 52.4356 135.583 52.7124C136.824 53.1534 137.843 54.0509 138.426 55.2162C138.44 55.2609 138.463 55.3023 138.493 55.3383C138.523 55.3743 138.56 55.404 138.602 55.4258C138.644 55.4476 138.69 55.4611 138.737 55.4654C138.785 55.4698 138.832 55.4649 138.878 55.4512C138.923 55.4374 138.965 55.415 139.001 55.3851C139.038 55.3553 139.068 55.3187 139.09 55.2775C139.112 55.2362 139.126 55.191 139.131 55.1445C139.135 55.098 139.13 55.0511 139.116 55.0064V55.0064Z"></path><path id="vector_70" fill="#000000" d="M145.963 51.1895C145.412 51.1511 143.6 51.0004 143.097 50.8763L145.008 49.778C147.016 48.4601 145.861 46.7087 144.108 47.3214C143.249 47.6864 142.361 47.9829 141.454 48.2079C140.685 48.466 139.861 48.52 139.065 48.3645C137.75 47.8464 139.738 45.5681 138.906 44.391C138.738 44.1707 138.505 44.0071 138.239 43.923C137.973 43.8388 137.687 43.8382 137.42 43.9212C136.768 44.1349 136.639 44.4925 135.774 45.8557C135.403 46.43 134.974 46.953 134.554 47.5302C128.285 48.2933 121.947 48.3284 115.67 47.6346C107.988 46.8033 99.831 44.3575 92.15 45.2795C86.75 45.9267 81.155 48.6187 78.356 53.3861C75.999 57.3408 76.456 62.1969 76.339 64.3127C76.286 65.1007 75.919 70.8619 75.755 73.0437C76.0294 73.1413 76.3143 73.2074 76.604 73.2407C76.621 73.0526 77.241 65.3952 77.241 62.7396C77.0802 59.9704 77.5518 57.201 78.621 54.635C80.421 50.9108 84.449 47.4721 90.67 46.2704C91.05 47.8592 91.753 50.4143 93.27 49.7731C94.47 49.2993 93.97 47.0909 93.645 45.8479C104.018 45.0599 109.979 49.0718 128.089 48.6758V57.6679C123.824 57.9791 112.154 58.8183 107.589 58.8183C107.54 58.8172 107.492 58.826 107.447 58.844C107.401 58.8621 107.36 58.889 107.326 58.9233C107.292 58.9575 107.265 58.9983 107.248 59.0431C107.23 59.0879 107.222 59.1358 107.224 59.1838V75.0827C104.929 75.0827 102.679 75.1349 91.732 75.1349C91.8923 75.3494 92.0342 75.5767 92.156 75.8145L107.231 75.7623V76.9867C107.443 76.83 107.702 76.6734 107.914 76.5158V59.5551C115.845 59.4743 134.605 57.8501 143.63 57.1497C144.43 57.0887 145.772 57.1015 145.965 56.1569C145.985 55.8845 145.913 55.6131 145.759 55.3858C145.605 55.1585 145.379 54.9883 145.116 54.902C144.532 54.6932 143.842 54.5365 143.258 54.3267C143.258 54.3267 145.284 53.849 145.488 53.8037C145.919 53.7238 146.344 53.6192 146.762 53.4905C147.956 52.9664 147.824 51.3432 145.963 51.1895ZM93.216 48.7329C93.11 49.0984 92.844 49.3072 92.579 48.9939C91.9836 48.1298 91.5852 47.1489 91.411 46.1187C91.942 46.0143 92.42 45.9611 92.897 45.9089C93.1801 46.8226 93.2883 47.7802 93.216 48.7329ZM146.916 52.3922C146.863 52.8108 146.226 52.9152 145.854 52.9674C144.719 53.2255 143.054 53.6106 142.245 53.6993C141.873 53.7515 141.767 54.1179 142.086 54.3267C143.474 55.2743 145.377 55.162 145.377 55.8426C145.377 56.2898 143.877 56.3588 128.922 57.464C128.806 54.6606 128.816 51.6751 128.816 48.6807C130.87 48.5743 131.359 48.5359 133.381 48.3143C133.514 48.2818 134.628 48.138 134.761 48.1055C134.973 48.0011 135.185 47.5824 135.345 47.4258C135.61 47.1116 135.831 46.7531 136.088 46.432C136.977 45.3248 136.997 44.659 137.68 44.5506C139.88 44.5506 135.396 49.4943 140.28 49.1506C143.461 48.7034 144.046 47.9489 144.898 47.9489C145.429 47.9489 145.535 48.4187 145.216 48.7851C144.804 49.1866 144.318 49.506 143.783 49.7258C143.199 50.04 142.609 50.3936 142.032 50.7197C141.972 50.7546 141.924 50.8067 141.894 50.8691C141.865 50.9315 141.855 51.0013 141.866 51.0692C141.878 51.1371 141.91 51.2001 141.958 51.2497C142.007 51.2993 142.07 51.3332 142.138 51.3471C143.429 51.638 144.743 51.8127 146.066 51.8692C146.388 51.8692 146.972 52.0268 146.919 52.3922H146.916Z"></path><path id="vector_71" fill="#000000" d="M112.488 52.5439H112.7C112.848 52.5485 112.996 52.5229 113.133 52.4689C113.271 52.4148 113.396 52.3334 113.5 52.2297C114.744 51.0043 111.19 47.2259 106.812 47.7341C104.631 48.1173 102.564 48.9743 100.761 50.2429C96.14 53.1605 93.616 56.4208 92.332 59.5827C90.2182 56.1936 87.5397 53.1797 84.409 50.6674C84.037 50.4054 83.56 50.8763 83.931 51.1373C86.4858 53.0717 88.7134 55.3926 90.531 58.0136C91.062 58.8508 91.593 59.6349 92.07 60.5234C92.1094 60.5768 92.1632 60.6183 92.2252 60.6433C92.2872 60.6684 92.3551 60.6759 92.4213 60.665C92.4874 60.6542 92.5491 60.6254 92.5996 60.582C92.6501 60.5385 92.6873 60.4821 92.707 60.4189C93.3651 58.7309 94.2751 57.149 95.407 55.7254C98.446 59.3423 101.256 63.4655 102.122 64.5323C94.131 73.6357 85.776 70.7496 77.886 61.7507C77.8552 61.7174 77.8178 61.6907 77.7762 61.6721C77.7346 61.6535 77.6896 61.6434 77.6439 61.6424C77.5982 61.6414 77.5528 61.6496 77.5104 61.6664C77.468 61.6832 77.4295 61.7083 77.3973 61.7401C77.365 61.772 77.3396 61.8099 77.3227 61.8517C77.3057 61.8935 77.2975 61.9383 77.2986 61.9833C77.2997 62.0283 77.3101 62.0726 77.329 62.1135C77.348 62.1545 77.3752 62.1912 77.409 62.2215C80.478 65.7626 84.767 69.5725 89.409 70.5339C97.609 72.3581 104.309 64.5983 107.46 56.9872C108.929 57.6452 110.034 58.4558 111.016 58.2943C111.328 58.1976 111.591 57.9862 111.749 57.7039C111.907 57.4217 111.949 57.0902 111.866 56.7784C111.672 55.7786 110.833 55.2635 109.902 54.5306C110.679 54.9587 111.559 55.1753 112.449 55.1581C113.531 55.0389 114.175 54.0342 113.086 52.9615C112.9 52.8048 112.7 52.665 112.488 52.5439V52.5439ZM112.806 54.2184C112.647 54.5326 112.116 54.5326 111.798 54.5326C110.573 54.2402 109.396 53.7828 108.298 53.1733C108.033 53.0157 107.598 53.3338 107.821 53.6431C108.752 54.9611 110.25 55.621 110.793 56.4671C110.993 56.7853 111.269 57.5506 110.687 57.6688C110.154 57.6697 109.634 57.5053 109.201 57.199C108.511 56.8848 107.874 56.5193 107.184 56.2051C107.093 56.188 106.998 56.2055 106.919 56.2541C106.841 56.3027 106.783 56.3788 106.759 56.4671C105.729 59.191 104.26 61.7332 102.407 63.9955C100.337 61.1203 98.214 58.1397 95.878 55.3688C98.098 52.801 102.166 49.6982 105.326 48.8334C106.149 48.5336 107.025 48.4022 107.901 48.4473C108.777 48.4923 109.634 48.7128 110.421 49.0954C111.131 49.4391 111.777 49.8987 112.332 50.4547C112.545 50.7157 113.5 51.814 112.704 51.9184C111.868 52.0829 110.078 50.498 108.617 50.4015C108.245 50.3493 108.139 50.8723 108.458 51.0289C110.046 51.9233 110.104 52.0425 111.858 53.1211C112.487 53.5338 112.35 53.3969 112.495 53.5387C112.7 53.6934 112.965 54.0076 112.806 54.2164V54.2184Z"></path><path id="vector_72" fill="#000000" d="M122.25 27.1398C121.078 25.7997 119.536 24.8242 117.811 24.3322C116.086 23.8403 114.254 23.853 112.536 24.3689C110.601 24.9473 108.865 26.0384 107.517 27.523C106.169 29.0075 105.261 30.8284 104.893 32.7868C104.84 33.2566 104.787 33.6733 104.734 34.1461C103.513 35.1389 102.247 36.1417 101.018 37.1257C100.755 37.3375 101.018 37.7009 101.284 37.7009C102.717 37.8575 104.15 38.0673 105.584 38.224C108.948 45.7356 119.829 44.9722 123.365 37.2823C124.145 35.6544 124.453 33.846 124.257 32.0565C124.06 30.2669 123.366 28.5655 122.25 27.1398V27.1398ZM123.205 35.7664C122.679 37.4377 121.723 38.9467 120.431 40.1468C119.138 41.3468 117.552 42.1971 115.827 42.6151C114.159 43.0298 112.401 42.9258 110.795 42.3174C109.189 41.709 107.813 40.6259 106.857 39.2168C105.902 37.7334 106.32 37.8034 105.848 37.6487L102.186 37.1779C103.248 36.3416 104.309 35.4532 105.424 34.6169C105.459 34.5831 105.487 34.5422 105.506 34.4971C105.524 34.4519 105.532 34.4034 105.53 34.3549C105.59 32.4571 106.195 30.6149 107.275 29.042C108.354 27.469 109.865 26.2295 111.63 25.4672C113.133 24.797 114.798 24.5591 116.432 24.7812C118.066 25.0032 119.603 25.6761 120.866 26.7221C122.08 27.8605 122.943 29.3129 123.357 30.9127C123.771 32.5125 123.718 34.1947 123.205 35.7664V35.7664Z"></path><path id="vector_73" fill="#000000" d="M114.553 35.6098C114.553 35.6999 114.589 35.7863 114.654 35.85C114.719 35.9138 114.807 35.9496 114.898 35.9496C114.99 35.9496 115.077 35.9138 115.142 35.85C115.207 35.7863 115.243 35.6999 115.243 35.6098C115.243 33.623 115.19 29.1265 115.19 28.8655C115.19 28.7753 115.154 28.6889 115.089 28.6252C115.024 28.5614 114.937 28.5256 114.845 28.5256C114.754 28.5256 114.666 28.5614 114.601 28.6252C114.536 28.6889 114.5 28.7753 114.5 28.8655C114.5 30.8522 114.553 35.2965 114.553 35.6098Z"></path><path id="vector_74" fill="#000000" d="M114.872 37.4921C114.967 37.4969 115.057 37.5376 115.122 37.6057C115.188 37.6738 115.225 37.7641 115.225 37.858C115.225 37.9519 115.188 38.0422 115.122 38.1103C115.057 38.1784 114.967 38.2191 114.872 38.2239C114.777 38.2191 114.687 38.1784 114.622 38.1103C114.556 38.0422 114.519 37.9519 114.519 37.858C114.519 37.7641 114.556 37.6738 114.622 37.6057C114.687 37.5376 114.777 37.4969 114.872 37.4921V37.4921Z"></path></g></g></g></svg>