<svg xmlns="http://www.w3.org/2000/svg" fill="none" viewBox="0 0 200 197" height="400" width="400"><g id="listening-to-feedback-from-users-and-customers-1--customer-service-support-listening-to-feedback-from-users-and-customers-1"><g id="color"><g id="group"><path id="vector" fill="#c0c195" d="M143.959 111.262C143.959 111.209 143.959 111.209 143.906 111.157C143.88 111.129 143.866 111.091 143.866 111.053C143.866 111.014 143.88 110.977 143.906 110.948C143.906 110.767 144.017 110.634 144.277 110.634C136.757 107.804 128.915 105.89 120.923 104.936C120.856 104.919 119.216 104.667 118.216 104.57C110.638 103.739 103.016 103.372 95.392 103.471C94.8784 103.462 94.3647 103.48 93.853 103.525C94.302 104.411 94.941 105.226 95.604 109.223C96.741 116.068 96.427 123.076 96.347 129.979C96.3481 130.027 96.3393 130.075 96.321 130.12C96.3028 130.165 96.2755 130.206 96.2408 130.24C96.2062 130.274 96.1649 130.301 96.1194 130.319C96.0738 130.337 96.0251 130.346 95.976 130.345H65.031C64.9819 130.346 64.9331 130.337 64.8875 130.319C64.8419 130.301 64.8006 130.274 64.7659 130.24C64.7312 130.206 64.7039 130.165 64.6857 130.12C64.6675 130.075 64.6588 130.027 64.66 129.979C64.66 128.149 64.607 113.353 64.554 112.15C62.6778 111.675 60.8341 111.083 59.034 110.377C58.122 115.767 57.924 117.63 56.751 118.376C56.5402 118.514 56.2948 118.592 56.042 118.601C55.7891 118.61 55.5386 118.551 55.318 118.429C54.546 117.858 54.451 116.813 53.726 113.671C51.688 117.02 51.193 117.83 50.276 118.01C50.223 120.363 49.745 154.921 49.745 154.973C49.7438 155.021 49.7525 155.069 49.7707 155.114C49.7889 155.159 49.8162 155.2 49.8509 155.234C49.8856 155.269 49.9269 155.296 49.9725 155.314C50.0181 155.332 50.0669 155.341 50.116 155.339H81.116C93.25 150.027 103.287 145.338 120.553 144.413C129.925 143.91 141.514 145.491 149.905 147.288C150.316 144.032 148.692 121.286 143.959 111.262Z"></path><path id="vector_2" fill="#6596e1" d="M95.6 109.223C95.077 106.048 94.4 103.342 91.938 101.224C89.028 98.7167 85.359 98.5059 84.879 98.3483C82.4286 98.0952 79.9622 98.0251 77.501 98.1385C72.333 98.4114 60.712 99.5835 56.057 101.799C55.845 101.897 55.13 102.213 54.996 102.478C54.7347 103.919 54.8814 105.402 55.42 106.765C55.42 106.817 55.473 106.871 55.473 106.923C55.991 108.275 57.0176 109.38 58.34 110.007C58.9519 110.324 59.5911 110.588 60.25 110.795C61.368 111.223 63.939 111.965 64.497 112.102C64.497 113.305 64.603 128.1 64.603 129.93C64.6018 129.979 64.6105 130.027 64.6287 130.072C64.6469 130.117 64.6742 130.158 64.7089 130.192C64.7436 130.226 64.7849 130.253 64.8305 130.271C64.8761 130.289 64.9249 130.298 64.974 130.297H95.923C95.972 130.298 96.0207 130.289 96.0662 130.271C96.1116 130.252 96.1529 130.225 96.1875 130.191C96.2221 130.157 96.2494 130.116 96.2677 130.071C96.286 130.027 96.2949 129.979 96.294 129.93C96.4 123.075 96.733 116.062 95.6 109.223Z"></path><path id="vector_3" fill="#000000" d="M171.294 143.886C171.344 144.304 172.037 144.357 171.984 143.886C171.931 142.735 171.35 133.952 171.294 133.481C171.244 133.063 170.551 133.011 170.604 133.481C170.632 134.097 171.233 143.38 171.294 143.886Z"></path><path id="vector_4" fill="#000000" d="M173.789 143.99C175.089 140.496 176.363 136.923 177.663 133.429C177.819 133.009 177.132 132.854 176.973 133.22C175.699 136.723 174.373 140.278 173.099 143.781C173.079 143.869 173.093 143.961 173.139 144.038C173.185 144.116 173.259 144.174 173.346 144.2C173.433 144.227 173.527 144.22 173.609 144.181C173.691 144.142 173.756 144.074 173.789 143.99V143.99Z"></path><path id="vector_5" fill="#000000" d="M175.169 143.938C175.11 144.001 175.079 144.084 175.081 144.17C175.082 144.256 175.118 144.337 175.179 144.398C175.241 144.458 175.323 144.493 175.41 144.496C175.497 144.498 175.582 144.467 175.646 144.409C176.483 143.611 182.706 137.612 183.024 137.298C183.087 137.236 183.122 137.151 183.122 137.063C183.122 136.975 183.086 136.891 183.023 136.828C182.96 136.766 182.874 136.731 182.785 136.731C182.695 136.731 182.61 136.765 182.546 136.827C175.211 143.824 175.487 143.676 175.169 143.938Z"></path><path id="vector_6" fill="#b6dbff" d="M103.46 75.451H107.6V66.98C105.287 69.2612 103.828 72.2474 103.46 75.451V75.451Z"></path><path id="vector_7" fill="#ffc431" d="M161.156 172.327H141.676C141.584 172.327 141.497 172.362 141.432 172.426C141.367 172.49 141.331 172.576 141.331 172.666C141.331 172.757 141.367 172.843 141.432 172.907C141.497 172.97 141.584 173.006 141.676 173.006H161.156C161.243 173 161.324 172.961 161.383 172.898C161.443 172.835 161.476 172.752 161.476 172.666C161.476 172.581 161.443 172.498 161.383 172.435C161.324 172.372 161.243 172.333 161.156 172.327Z"></path><path id="vector_8" fill="#ffc431" d="M194.6 151.571C174.669 151.571 175.557 151.495 175.439 151.728C174.868 152.642 163.339 172.355 163.339 172.484C163.314 172.539 163.304 172.599 163.307 172.658C163.311 172.718 163.33 172.776 163.361 172.827C163.392 172.878 163.435 172.921 163.487 172.952C163.539 172.984 163.598 173.002 163.658 173.006C184.133 173.006 182.581 173.084 182.819 172.85C183.39 171.937 194.919 152.223 194.919 152.094C194.944 152.039 194.954 151.979 194.951 151.92C194.947 151.86 194.928 151.802 194.897 151.751C194.866 151.7 194.823 151.657 194.771 151.625C194.719 151.594 194.661 151.575 194.6 151.571V151.571Z"></path><path id="vector_9" fill="#000000" d="M181.06 160.564C181.042 160.507 181.01 160.456 180.966 160.415C180.923 160.374 180.869 160.344 180.811 160.329C180.753 160.313 180.692 160.312 180.634 160.326C180.575 160.34 180.521 160.368 180.476 160.407C179.362 161.348 177.898 162.642 176.783 163.583C176.346 164.014 176.304 164.272 176.92 164.272H181.326C181.378 164.276 181.431 164.266 181.479 164.244C181.526 164.223 181.568 164.19 181.599 164.148C181.631 164.107 181.652 164.058 181.659 164.007C181.667 163.956 181.662 163.903 181.644 163.855C181.485 162.759 181.278 161.66 181.06 160.564Z"></path><path id="vector_10" fill="#000000" d="M19.384 61.3319C19.696 61.653 20.173 61.1822 19.862 60.8621C18.667 59.6328 17.54 58.3395 16.362 57.1496C16.2985 57.0876 16.2127 57.0529 16.1233 57.0531C16.0339 57.0533 15.9482 57.0883 15.885 57.1506C15.8218 57.2129 15.7862 57.2973 15.786 57.3853C15.7858 57.4734 15.8211 57.5579 15.884 57.6205C17.062 58.8103 18.189 60.1027 19.384 61.3319Z"></path><path id="vector_11" fill="#000000" d="M20.764 60.3913C20.864 60.8119 21.557 60.6533 21.454 60.1825C21.124 58.6686 20.346 55.2142 20.287 54.9541C20.187 54.5335 19.494 54.6921 19.596 55.1629C21.025 61.7201 19.309 54.0164 20.764 60.3913Z"></path><path id="vector_12" fill="#000000" d="M23.471 60.0248C23.636 59.5905 25.187 55.3057 25.223 55.1629C25.382 54.7452 24.683 54.5837 24.533 54.9541C24.12 55.9716 22.8 59.7412 22.781 59.816C22.622 60.2868 23.313 60.4435 23.471 60.0248Z"></path><path id="vector_13" fill="#6596e1" d="M30.955 103.106C30.79 102.69 30.101 102.898 30.265 103.315C34.912 115.129 34.446 114.608 34.671 114.608C34.883 114.555 35.042 114.451 35.255 114.399C35.255 113.828 31.172 103.652 30.955 103.106Z"></path><path id="vector_14" fill="#000000" d="M22.463 118.633C20.043 121.017 17.069 124.724 16.146 127.679C16.677 127.051 17.146 126.468 17.686 125.849C20.0384 123.122 22.7939 120.761 25.86 118.842C25.7 118.833 22.618 118.633 22.463 118.633Z"></path><path id="vector_15" fill="#ffe660" d="M51.337 79.3693C51.2089 80.058 50.9407 80.7141 50.5485 81.2981C50.1563 81.8821 49.6483 82.3819 49.055 82.7675C46.455 84.3908 41.329 83.1812 39.819 80.2065C38.994 81.093 37.719 82.472 36.528 82.1933C36.313 82.1348 36.117 82.0223 35.9593 81.867C35.8015 81.7116 35.6874 81.5186 35.628 81.3068C35.375 80.3631 36.053 79.2678 36.584 78.4838C36.5864 78.443 36.6039 78.4045 36.6332 78.3756C36.6626 78.3468 36.7016 78.3295 36.743 78.3271C36.285 78.3271 29.514 81.5501 23.473 86.0102C23.473 85.0173 23.42 83.9712 23.42 82.9783C23.4207 83.0321 23.4062 83.085 23.3781 83.1311C23.3501 83.1772 23.3095 83.2147 23.261 83.2394C19.961 84.9139 13.398 88.8863 13.282 88.8863C13.2227 88.9181 13.1546 88.9301 13.0877 88.9207C13.0209 88.9113 12.9589 88.881 12.911 88.8341C12.8445 88.7623 12.8065 88.6693 12.804 88.5721C12.898 91.4286 13.383 93.5188 15.246 95.5262C16.8895 97.3076 19.0971 98.4881 21.509 98.8752C21.669 98.6654 21.775 98.4566 21.934 98.2478C23.109 96.7349 24.6145 95.5018 26.339 94.6397C35.029 90.4683 43.088 101.966 47.571 110.377C47.73 110.325 47.889 110.273 48.101 110.22C47.7932 108.948 47.5806 107.655 47.465 106.351C46.447 96.0591 49.123 86.0456 52.719 80.7325C52.3132 80.2272 51.8495 79.7697 51.337 79.3693Z"></path><path id="vector_16" fill="#6596e1" d="M26.39 94.5836C26.0962 94.7208 25.8125 94.8781 25.541 95.0545C24.1705 95.8767 22.9651 96.9401 21.985 98.1917C18.27 102.939 16.801 111.686 16.465 117.641C16.4599 117.716 16.4846 117.791 16.5339 117.849C16.5832 117.908 16.6535 117.945 16.73 117.954C19.738 118.387 22.7686 118.65 25.807 118.742C26.247 118.494 28.315 117.396 28.673 117.226C35.104 114.161 34.949 114.833 34.565 114.455C33.238 110.69 31.765 106.995 30.318 103.319C30.154 102.902 30.854 102.741 31.008 103.11C32.54 106.754 33.928 110.534 35.255 114.246V114.403C39.525 112.6 47.448 110.332 47.675 110.221C43 101.888 35.162 90.4801 26.39 94.5836Z"></path><path id="vector_17" fill="#ae877c" d="M23.047 70.8481C22.931 69.6444 22.472 67.7808 21.507 67.0312C21.2662 66.8368 20.9791 66.7059 20.6728 66.651C20.3665 66.596 20.051 66.6187 19.756 66.717C18.036 67.308 18.323 70.3615 18.323 71.7887C16.8286 71.3706 15.3018 71.0741 13.758 70.9022C10.127 70.4935 7.44202 72.8634 9.51202 75.2412C8.91438 75.4833 8.42473 75.9286 8.13202 76.4961C7.65402 77.6465 8.45002 78.6916 9.35202 79.3713C9.10343 79.4623 8.8757 79.6011 8.68208 79.7796C8.48846 79.9581 8.33283 80.1728 8.22423 80.4111C8.11563 80.6494 8.05623 80.9067 8.0495 81.1678C8.04277 81.429 8.08884 81.6888 8.18502 81.9323C8.85902 83.5565 11.311 84.1761 13.068 84.442C12.8148 85.8039 12.7078 87.1882 12.749 88.5721C12.752 88.6692 12.79 88.7621 12.856 88.8342C12.9039 88.881 12.9659 88.9114 13.0327 88.9208C13.0996 88.9302 13.1677 88.9181 13.227 88.8864C13.358 88.8864 19.968 84.8833 23.206 83.2394C23.2541 83.2142 23.2943 83.1765 23.3223 83.1306C23.3503 83.0846 23.3651 83.032 23.365 82.9783C23.4 79.7909 23.089 71.2903 23.047 70.8481Z"></path><path id="vector_18" fill="#ae877c" d="M39.554 79.4216C39.359 78.9502 39.2165 78.4595 39.129 77.9578C39.0663 77.7363 39.0307 77.5081 39.023 77.2782C38.28 77.5402 37.537 77.8534 36.794 78.1647C36.688 78.2166 36.635 78.2688 36.635 78.3213C36.104 79.1093 35.426 80.1997 35.679 81.1443C35.7384 81.3561 35.8525 81.5491 36.0103 81.7045C36.168 81.8599 36.364 81.9723 36.579 82.0308C37.736 82.3007 39.1 80.9394 39.869 80.0441C39.743 79.8475 39.6375 79.639 39.554 79.4216V79.4216Z"></path><path id="vector_19" fill="#000000" d="M45.233 71.7365C44.203 70.8796 42.056 67.501 38.917 67.5542C36.176 67.6005 35.053 70.0689 36.228 70.9131L38.042 74.1537C38.5234 75.1746 38.8367 76.2646 38.97 77.3825C39.0311 77.6045 39.0666 77.8324 39.076 78.0622C39.277 79.3182 39.8285 80.4944 40.669 81.4595C41.3662 82.1528 42.2212 82.6725 43.163 82.9754C45.032 83.6235 47.315 83.9348 49.055 82.8188C49.6446 82.4288 50.1498 81.9276 50.5415 81.3442C50.9332 80.7607 51.2036 80.1065 51.337 79.4195C51.39 79.2629 51.39 79.1063 51.443 78.8975C51.851 74.6216 47.079 73.2731 45.233 71.7365Z"></path><path id="vector_20" fill="#ae877c" d="M35.838 70.329L35.573 70.59C35.221 71.006 35.0173 71.5242 34.9929 72.0651C34.9686 72.6061 35.125 73.14 35.4383 73.585C35.7515 74.0301 36.2042 74.3616 36.7271 74.5289C37.2499 74.6962 37.8141 74.69 38.333 74.5113C38.5554 74.428 38.7688 74.3231 38.97 74.1981C39.2948 73.9581 39.5628 73.6515 39.7553 73.2994C39.9478 72.9474 40.0603 72.5583 40.085 72.1591C40.068 71.6821 39.9145 71.2196 39.6422 70.8249C39.3699 70.4301 38.99 70.1192 38.5461 69.9279C38.1022 69.7366 37.6124 69.6728 37.1333 69.7437C36.6542 69.8147 36.2052 70.0176 35.838 70.329V70.329Z"></path><path id="vector_21" fill="#000000" d="M94.861 39.269C95.971 38.7361 97.038 38.2239 98.152 37.753C98.577 37.5442 98.207 36.9729 97.781 37.1778C96.671 37.7117 95.604 38.2239 94.49 38.6947C94.065 38.9075 94.435 39.4748 94.861 39.269Z"></path><path id="vector_22" fill="#000000" d="M94.861 40.8903H98.789C98.8343 40.8903 98.8792 40.8815 98.921 40.8644C98.9629 40.8473 99.0009 40.8223 99.033 40.7907C99.065 40.7592 99.0904 40.7217 99.1077 40.6805C99.1251 40.6393 99.134 40.5951 99.134 40.5505C99.134 40.5058 99.1251 40.4616 99.1077 40.4204C99.0904 40.3792 99.065 40.3417 99.033 40.3102C99.0009 40.2786 98.9629 40.2536 98.921 40.2365C98.8792 40.2194 98.8343 40.2106 98.789 40.2106H94.861C94.774 40.2172 94.6928 40.2558 94.6335 40.3188C94.5742 40.3818 94.5413 40.4645 94.5413 40.5505C94.5413 40.6364 94.5742 40.7191 94.6335 40.7821C94.6928 40.8451 94.774 40.8838 94.861 40.8903Z"></path><path id="vector_23" fill="#000000" d="M94.861 41.831C94.441 41.6143 94.114 42.2043 94.49 42.4062C95.59 42.9972 96.661 43.5665 97.781 44.1319C98.203 44.3447 98.528 43.7586 98.152 43.5567C97.048 42.9618 95.934 42.3855 94.861 41.831Z"></path><path id="vector_24" fill="#6596e1" d="M102.611 77.6446C102.607 76.9098 102.66 76.1758 102.77 75.449H92C95.286 80.5966 92.526 87.1705 86.374 88.9898C85.6947 89.1764 85.0031 89.3159 84.304 89.4074C84.8806 92.4121 85.2527 95.4514 85.418 98.5049C88.937 99.0437 92.067 100.573 93.858 103.577C94.3716 103.585 94.8853 103.568 95.397 103.524C95.6241 103.272 95.7823 102.967 95.8566 102.637C95.931 102.308 95.9191 101.966 95.822 101.642C95.379 99.8967 93.672 99.2427 94.972 96.9368C96.815 94.0635 100.943 95.1569 102.672 91.9694C100.814 92.2314 99.366 90.4594 98.744 88.8854C96.521 83.2522 100.284 77.3313 103.733 79.3693L104.37 79.8401C104.987 78.3338 106.087 77.0673 107.502 76.2331V75.4451H103.362C103.256 76.1723 103.203 76.906 103.203 77.6406C103.3 78.1154 102.611 78.0622 102.611 77.6446Z"></path><path id="vector_25" fill="#b6dbff" d="M116.252 47.9478C106.752 47.0071 97.7 43.6503 88.12 46.5363C83.594 47.9005 79.489 51.1441 77.876 55.5294C77.0654 58.1704 76.7244 60.9297 76.868 63.6852C76.868 64.7834 76.602 68.3905 76.231 73.0959C76.3057 73.0881 76.3808 73.1066 76.443 73.1481C80.819 69.4543 88.728 70.3349 91.943 75.449H102.718C103.135 71.8553 104.826 68.522 107.495 66.0373V59.1364C111.954 59.0842 120.658 58.5612 128.514 57.986V48.3142C124.423 48.4462 120.327 48.3239 116.252 47.9478V47.9478Z"></path><path id="vector_26" fill="#ffd7d7" d="M145.232 55.16C144.2 54.9135 143.202 54.545 142.26 54.0627C142.844 54.0105 144.807 53.5347 146.4 53.1762C147.567 52.9122 147.621 51.61 146.029 51.5017C144.742 51.4777 143.461 51.3199 142.207 51.0309C144.595 49.6193 145.192 49.3386 145.498 48.8875C145.622 48.7327 145.693 48.5436 145.703 48.3467C145.712 48.1498 145.659 47.9549 145.551 47.7892C145.179 47.2662 144.335 47.539 143.751 47.7892C142.596 48.2592 141.382 48.5759 140.142 48.7309C139.804 48.8246 139.446 48.8148 139.114 48.7027C138.782 48.5906 138.492 48.3816 138.284 48.1034C138.003 47.5499 138.339 47.0859 138.656 45.2272C138.702 44.9945 138.658 44.7534 138.535 44.5499C138.412 44.3463 138.217 44.1946 137.987 44.1237C137.757 44.0527 137.509 44.0674 137.29 44.1651C137.071 44.2627 136.896 44.4363 136.798 44.653C135.922 46.0802 134.993 47.2662 134.675 47.737C132.64 48.0688 130.581 48.2437 128.518 48.2601V57.8796C136.373 57.3043 143.43 56.7074 144.601 56.5725C146.238 56.3863 145.922 55.4259 145.232 55.16Z"></path><path id="vector_27" fill="#ffd7d7" d="M92.9 49.5169C94.138 49.3426 93.435 46.7343 93.113 45.5435C92.381 45.5966 91.6538 45.7013 90.937 45.8567C91.312 46.886 91.836 49.6657 92.9 49.5169Z"></path><path id="vector_28" fill="#ffd7d7" d="M102.823 64.4692C104.82 62.0485 106.415 59.3309 107.547 56.4178C108.768 56.8887 110.572 58.1908 111.422 57.7771C112.165 57.4117 111.834 56.2238 111.209 55.686C110.257 54.9783 109.386 54.1719 108.609 53.2806C109.581 53.7946 110.592 54.2316 111.634 54.5877C113.541 55.1255 114.166 53.9287 113.173 53.124C112.795 52.8177 109.989 51.0851 109.086 50.563C110.679 50.6674 112.774 52.8285 113.598 51.8701C113.69 51.73 113.739 51.5667 113.739 51.3998C113.739 51.2328 113.69 51.0695 113.598 50.9294C112.738 49.2096 110.148 47.9232 108.184 47.8966C106.223 47.9454 104.313 48.5247 102.664 49.5711C100.06 51.0374 97.7275 52.927 95.764 55.16C97.491 57.1477 96.062 55.3127 102.823 64.4692Z"></path><path id="vector_29" fill="#000000" d="M91.942 37.492C91.6483 36.9513 91.1778 36.5241 90.6068 36.2796C90.0358 36.0352 89.3978 35.9877 88.796 36.145C88.1942 36.3023 87.664 36.6552 87.2912 37.1463C86.9184 37.6375 86.7249 38.2383 86.742 38.8513C86.8043 39.2344 86.7863 39.6259 86.689 40.0018C86.4 40.8558 84.764 40.5928 83.982 41.4655C83.7801 41.7099 83.6449 42.001 83.5892 42.3113C83.5336 42.6216 83.5593 42.9408 83.664 43.2385C84.494 45.5858 88.608 45.6508 90.936 44.651C91.6788 44.3376 92.3068 43.8084 92.736 43.1341C93.095 42.2036 93.2105 41.199 93.0717 40.213C92.9329 39.227 92.5444 38.2913 91.942 37.492V37.492ZM88.442 39.3744C88.7057 39.0725 89.0565 38.8569 89.4476 38.7562C89.8388 38.6554 90.2518 38.6744 90.6317 38.8105C91.0117 38.9466 91.3405 39.1935 91.5746 39.5182C91.8086 39.8429 91.9368 40.2301 91.942 40.6283C91.938 41.0748 91.7772 41.5062 91.4871 41.8493C91.1969 42.1924 90.7952 42.426 90.35 42.5106C89.9536 42.5802 89.5451 42.5296 89.1785 42.3653C88.812 42.2011 88.5048 41.9311 88.2975 41.591C88.0903 41.2509 87.9929 40.8568 88.0182 40.461C88.0434 40.0651 88.1902 39.6862 88.439 39.3744H88.442Z"></path><path id="vector_30" fill="#ffd7d7" d="M88.492 39.3222C88.2978 39.5628 88.1645 39.8456 88.1031 40.147C88.0417 40.4484 88.0539 40.7599 88.1388 41.0558C88.2238 41.3516 88.3789 41.6233 88.5915 41.8485C88.804 42.0736 89.0679 42.2457 89.3613 42.3506C89.6547 42.4555 89.9692 42.4901 90.2789 42.4516C90.5886 42.4131 90.8845 42.3027 91.1423 42.1293C91.4 41.956 91.6123 41.7247 91.7614 41.4546C91.9105 41.1846 91.9923 40.8834 92 40.5761C91.9978 40.1755 91.8709 39.7853 91.6366 39.458C91.4023 39.1306 91.0718 38.8819 90.6895 38.7453C90.3073 38.6086 89.8917 38.5907 89.4988 38.6938C89.1059 38.797 88.7545 39.0163 88.492 39.3222V39.3222Z"></path><path id="vector_31" fill="#6596e1" d="M102.558 64.94C102.824 64.6268 102.345 64.1038 102.08 64.4692C95.806 71.8508 87.622 72.8131 77.88 61.6984C77.8492 61.6652 77.8118 61.6385 77.7702 61.6199C77.7286 61.6013 77.6836 61.5912 77.6379 61.5902C77.5923 61.5892 77.5468 61.5973 77.5045 61.6141C77.4621 61.6309 77.4236 61.656 77.3913 61.6878C77.359 61.7197 77.3336 61.7577 77.3167 61.7995C77.2997 61.8413 77.2915 61.886 77.2926 61.931C77.2937 61.976 77.3041 62.0203 77.323 62.0613C77.342 62.1022 77.3692 62.1389 77.403 62.1692C85.531 71.511 94.522 74.3675 102.558 64.94Z"></path><path id="vector_32" fill="#6596e1" d="M92.26 61.1232C92.2992 61.177 92.3529 61.2188 92.415 61.2441C92.4771 61.2693 92.5452 61.277 92.6115 61.2661C92.6778 61.2552 92.7396 61.2263 92.7901 61.1826C92.8406 61.1389 92.8776 61.0822 92.897 61.0188C93.5811 59.3387 94.4901 57.7562 95.6 56.3135C95.873 55.953 95.388 55.4772 95.123 55.8426C94.0452 57.156 93.1692 58.6183 92.523 60.1825C90.4032 56.5665 87.6543 53.3457 84.402 50.6674C84.03 50.4054 83.553 50.8763 83.924 51.1373C87.3359 53.8999 90.1675 57.292 92.26 61.1232V61.1232Z"></path><path id="vector_33" fill="#ffaaaa" d="M139.288 54.9541C138.8 53.5141 137.308 52.7871 136.388 52.2168C136.836 51.9162 137.212 51.5241 137.492 51.0672C137.773 50.6103 137.949 50.0994 138.011 49.5691C138.011 49.479 137.975 49.3926 137.91 49.3288C137.845 49.2651 137.758 49.2293 137.666 49.2293C137.575 49.2293 137.487 49.2651 137.422 49.3288C137.357 49.3926 137.321 49.479 137.321 49.5691C137.248 50.0638 137.059 50.535 136.769 50.9453C136.479 51.3556 136.097 51.6938 135.651 51.9331C135.262 52.205 135.32 52.4621 135.735 52.6522C136.983 53.0925 138.009 53.9911 138.6 55.16C138.634 55.2422 138.698 55.309 138.779 55.3472C138.86 55.3854 138.953 55.3923 139.039 55.3665C139.126 55.3407 139.199 55.2841 139.245 55.2078C139.291 55.1315 139.306 55.041 139.288 54.9541V54.9541Z"></path><path id="vector_34" fill="#6596e1" d="M82.388 105.824C80.654 100.446 76.84 99.9302 71.135 99.3933C69.4033 99.2898 67.6667 99.2898 65.935 99.3933C65.511 99.4495 65.456 100.114 65.935 100.073C67.6314 99.9607 69.3336 99.9607 71.03 100.073C74.059 100.216 78.088 100.684 80.107 102.897C84.382 107.583 82.973 123.866 82.973 130.031C82.973 130.121 83.0094 130.207 83.0741 130.271C83.1388 130.335 83.2265 130.371 83.318 130.371C83.4095 130.371 83.4973 130.335 83.562 130.271C83.6267 130.207 83.663 130.121 83.663 130.031C83.662 124.286 84.554 112.546 82.388 105.824Z"></path><path id="vector_35" fill="#6596e1" d="M76.019 104.361C75.9882 104.327 75.9509 104.301 75.9094 104.282C75.8678 104.263 75.8228 104.253 75.7771 104.252C75.7315 104.251 75.686 104.259 75.6436 104.276C75.6012 104.292 75.5626 104.317 75.5303 104.349C75.4979 104.381 75.4725 104.419 75.4554 104.461C75.4384 104.502 75.4301 104.547 75.4311 104.592C75.4321 104.637 75.4424 104.682 75.4612 104.722C75.4801 104.763 75.5073 104.8 75.541 104.831C76.231 105.619 76.921 106.348 77.611 107.132C77.6745 107.194 77.7603 107.228 77.8497 107.228C77.9391 107.228 78.0248 107.193 78.088 107.131C78.1512 107.068 78.1868 106.984 78.187 106.896C78.1872 106.808 78.1519 106.723 78.089 106.661C77.385 105.942 76.709 105.145 76.019 104.361Z"></path><path id="vector_36" fill="#6596e1" d="M89.394 104.884C90.082 105.672 90.774 106.4 91.464 107.184C91.5275 107.246 91.6133 107.28 91.7027 107.28C91.7921 107.28 91.8778 107.245 91.941 107.183C92.0042 107.121 92.0398 107.036 92.04 106.948C92.0402 106.86 92.0049 106.775 91.942 106.713C91.252 105.925 90.562 105.197 89.872 104.413C89.607 104.047 89.075 104.518 89.394 104.884Z"></path><path id="vector_37" fill="#000000" d="M83.927 138.187C82.7035 136.028 80.9057 134.239 78.727 133.011C75.536 131.191 70.861 131.238 68.854 132.174C68.532 132.325 68.695 132.696 68.96 132.802C71.605 133.855 83.56 138.657 83.61 138.657C83.6716 138.675 83.7373 138.673 83.7976 138.652C83.858 138.63 83.9097 138.59 83.9451 138.537C83.9806 138.485 83.998 138.422 83.9947 138.359C83.9915 138.296 83.9677 138.236 83.927 138.187V138.187Z"></path><path id="vector_38" fill="#000000" d="M99.108 138.187C97.8975 136.018 96.0966 134.226 93.908 133.011C90.717 131.191 86.043 131.238 84.035 132.174C83.714 132.325 83.877 132.696 84.142 132.802C86.786 133.855 98.742 138.657 98.791 138.657C99 138.728 99.276 138.508 99.108 138.187Z"></path><path id="vector_39" fill="#ffc431" d="M84.352 89.4075C84.14 89.4075 83.874 89.4558 83.662 89.4607C76.069 89.6015 70.856 83.0089 73.842 76.3897C73.551 75.9426 72.069 73.7844 71.878 73.4101C70.4832 73.151 69.0571 73.0966 67.646 73.2486C64.078 73.3461 60.5973 74.3566 57.546 76.1809C55.3479 77.4068 53.5456 79.2187 52.346 81.4083C48.234 88.4018 46.809 98.1848 47.622 106.19C47.622 105.981 47.781 105.877 47.993 105.824C50.4392 105.744 52.8881 105.849 55.318 106.138C54.9295 104.938 54.8565 103.661 55.106 102.426C55.1032 102.398 55.1068 102.37 55.1165 102.343C55.1261 102.317 55.1416 102.292 55.1619 102.272C55.1822 102.253 55.2067 102.237 55.2337 102.228C55.2607 102.218 55.2895 102.215 55.318 102.217C59.95 99.4791 72.218 98.4301 77.611 98.0863C80.0721 97.9637 82.5392 98.0338 84.989 98.2961C85.1702 98.3058 85.349 98.341 85.52 98.4006C85.295 95.3844 84.9051 92.3823 84.352 89.4075V89.4075Z"></path><path id="vector_40" fill="#ffaaaa" d="M55.583 106.971C55.583 106.919 55.53 106.867 55.53 106.813C55.477 106.605 55.371 106.448 55.318 106.239C52.8875 105.957 50.4392 105.852 47.993 105.925C47.8967 105.932 47.8061 105.972 47.7379 106.04C47.6697 106.107 47.6285 106.196 47.622 106.291C47.973 109.173 48.259 109.897 48.259 110.213C47.622 110.578 46.927 110.989 46.295 111.414C44.995 112.29 42.828 113.427 43.216 114.918C43.2999 115.198 43.4897 115.436 43.7465 115.583C44.0032 115.73 44.3073 115.774 44.596 115.706C45.835 115.501 48.348 113.905 49.48 112.987C49.32 113.353 49.167 113.775 49.002 114.137C48.5633 114.884 48.3429 115.736 48.365 116.599C48.3886 116.885 48.4909 117.159 48.6607 117.392C48.8306 117.624 49.0617 117.807 49.3291 117.92C49.5966 118.033 49.8902 118.072 50.1784 118.033C50.4667 117.994 50.7386 117.878 50.965 117.698C51.599 117.205 51.694 116.838 53.725 113.672C54.544 117.224 54.573 117.997 55.317 118.43C55.535 118.559 55.7868 118.624 56.0414 118.614C56.2961 118.605 56.5424 118.523 56.75 118.377C57.4676 117.763 57.9226 116.903 58.024 115.972C58.224 115.133 58.358 114.364 59.033 110.378C58 109.697 56.759 109.548 55.583 106.971Z"></path><path id="vector_41" fill="#000000" d="M69.755 61.5418C69.6329 61.412 69.4853 61.3079 69.3211 61.236C69.157 61.164 68.9797 61.1256 68.8 61.1232C67.845 61.1232 67.2 62.1082 66.73 62.7445C66.0793 63.617 65.5774 64.5881 65.244 65.6197C65.2209 65.6833 65.2176 65.7523 65.2346 65.8178C65.2516 65.8833 65.2881 65.9423 65.3393 65.9872C65.3906 66.0321 65.4544 66.0608 65.5224 66.0698C65.5904 66.0787 65.6596 66.0674 65.721 66.0373C67.155 65.1508 69.065 64.3126 69.808 62.7445C69.9051 62.5565 69.9512 62.347 69.9419 62.1363C69.9326 61.9256 69.8683 61.7208 69.755 61.5418V61.5418Z"></path><path id="vector_42" fill="#ffaaaa" d="M70.445 76.7562C70.3329 75.6273 70.0637 74.519 69.645 73.4623C69.6202 73.3949 69.5777 73.3352 69.5218 73.2892C69.466 73.2432 69.3988 73.2125 69.327 73.2003C69.3094 73.2014 69.2917 73.2014 69.274 73.2003C68.0297 73.1703 66.7853 73.258 65.558 73.4623C65.4776 73.4952 65.4119 73.5555 65.373 73.6322C65.334 73.7089 65.3245 73.7969 65.346 73.88C65.985 75.8135 67.176 79.0295 69.221 78.7419C69.658 78.7419 70.524 78.1362 70.445 76.7562Z"></path><path id="vector_43" fill="#ffaaaa" d="M68 66.2994C67.6366 66.1719 67.2483 66.1286 66.8652 66.1729C66.482 66.2171 66.1144 66.3478 65.7909 66.5547C65.4673 66.7617 65.1966 67.0392 64.9996 67.3659C64.8026 67.6926 64.6847 68.0597 64.6551 68.4385C64.6255 68.8173 64.6849 69.1978 64.8288 69.5504C64.9726 69.9029 65.1971 70.2181 65.4846 70.4714C65.7722 70.7246 66.1152 70.9092 66.4869 71.0108C66.8586 71.1123 67.2491 71.1281 67.628 71.0569C68.166 70.9511 68.6541 70.675 69.018 70.2706C69.3819 69.8662 69.6017 69.3557 69.6438 68.817C69.686 68.2782 69.5481 67.7406 69.2514 67.2861C68.9546 66.8316 68.5152 66.4851 68 66.2994Z"></path><path id="vector_44" fill="#ffaaaa" d="M49.055 51.3993C48.632 43.2041 39.527 39.3655 33.555 44.7072C31.8523 46.2642 30.7015 48.3181 30.2717 50.5671C29.8419 52.8161 30.1557 55.1416 31.167 57.2019C30.53 58.6656 29.928 60.1224 29.309 61.594C29.2896 61.6522 29.287 61.7145 29.3014 61.774C29.3159 61.8335 29.3467 61.888 29.3907 61.9312C29.4346 61.9745 29.4899 62.0049 29.5503 62.0191C29.6107 62.0333 29.674 62.0308 29.733 62.0117C31.113 61.4896 32.44 60.9666 33.82 60.4436C40.581 65.5478 49.474 59.5186 49.055 51.3993Z"></path><path id="vector_45" fill="#000000" d="M39.129 51.3471V49.3603C39.129 49.3157 39.1201 49.2715 39.1028 49.2303C39.0854 49.1891 39.06 49.1516 39.028 49.12C38.9959 49.0885 38.9579 49.0635 38.9161 49.0464C38.8742 49.0293 38.8293 49.0205 38.784 49.0205C38.7387 49.0205 38.6939 49.0293 38.652 49.0464C38.6101 49.0635 38.5721 49.0885 38.5401 49.12C38.508 49.1516 38.4826 49.1891 38.4653 49.2303C38.448 49.2715 38.439 49.3157 38.439 49.3603V51.3471C38.439 51.3917 38.448 51.4359 38.4653 51.4771C38.4826 51.5184 38.508 51.5558 38.5401 51.5874C38.5721 51.6189 38.6101 51.644 38.652 51.661C38.6939 51.6781 38.7387 51.6869 38.784 51.6869C38.8293 51.6869 38.8742 51.6781 38.9161 51.661C38.9579 51.644 38.9959 51.6189 39.028 51.5874C39.06 51.5558 39.0854 51.5184 39.1028 51.4771C39.1201 51.4359 39.129 51.3917 39.129 51.3471Z"></path><path id="vector_46" fill="#000000" d="M41.146 51.2417V49.3603C41.146 49.3157 41.1371 49.2715 41.1198 49.2303C41.1024 49.1891 41.077 49.1516 41.045 49.12C41.0129 49.0885 40.9749 49.0635 40.933 49.0464C40.8912 49.0293 40.8463 49.0205 40.801 49.0205C40.7557 49.0205 40.7109 49.0293 40.669 49.0464C40.6271 49.0635 40.5891 49.0885 40.5571 49.12C40.525 49.1516 40.4996 49.1891 40.4823 49.2303C40.4649 49.2715 40.456 49.3157 40.456 49.3603V51.2417C40.456 51.2863 40.4649 51.3305 40.4823 51.3717C40.4996 51.413 40.525 51.4504 40.5571 51.482C40.5891 51.5135 40.6271 51.5386 40.669 51.5556C40.7109 51.5727 40.7557 51.5815 40.801 51.5815C40.8463 51.5815 40.8912 51.5727 40.933 51.5556C40.9749 51.5386 41.0129 51.5135 41.045 51.482C41.077 51.4504 41.1024 51.413 41.1198 51.3717C41.1371 51.3305 41.146 51.2863 41.146 51.2417Z"></path><path id="vector_47" fill="#000000" d="M42.367 53.0718C42.4299 53.0093 42.4652 52.9247 42.465 52.8367C42.4648 52.7486 42.4292 52.6642 42.366 52.602C42.3028 52.5397 42.2171 52.5046 42.1277 52.5045C42.0383 52.5043 41.9525 52.539 41.889 52.601C41.5992 52.8583 41.2585 53.0538 40.8884 53.1755C40.5183 53.2971 40.1267 53.3422 39.7381 53.3079C39.3494 53.2736 38.9722 53.1607 38.6299 52.9761C38.2877 52.7916 37.9878 52.5395 37.749 52.2355C37.484 51.8691 36.949 52.3922 37.272 52.7064C37.5749 53.0705 37.9499 53.3701 38.3742 53.5869C38.7985 53.8037 39.2631 53.9331 39.7398 53.9673C40.2165 54.0015 40.6952 53.9397 41.1469 53.7858C41.5986 53.6318 42.0137 53.3889 42.367 53.0718V53.0718Z"></path><path id="vector_48" fill="#ffaaaa" d="M91.942 75.451C88.659 70.2659 80.742 69.5213 76.442 73.15C76.3673 73.1577 76.2922 73.1392 76.23 73.0978C74.744 72.8368 73.255 72.5905 71.771 72.3098C71.7027 72.292 71.6305 72.2953 71.5642 72.3193C71.4978 72.3433 71.4406 72.3867 71.4001 72.4437C71.3597 72.5008 71.3379 72.5687 71.3379 72.6383C71.3379 72.7079 71.3596 72.7758 71.4 72.8328C71.475 72.9313 72.247 74.0828 72.355 74.2965C72.833 75.0284 73.311 75.708 73.788 76.4399C72.8882 78.2973 72.6814 80.4075 73.204 82.4001C74.625 87.8541 80.976 90.6741 86.368 89.04C92.409 87.2109 95.358 80.8428 91.942 75.451Z"></path><path id="vector_49" fill="#000000" d="M86.157 77.6968C85.6627 77.5864 85.1477 77.6055 84.6633 77.7522C84.1788 77.899 83.7419 78.1682 83.396 78.5331C82.9459 78.0764 82.4017 77.72 81.8 77.488C81.4422 77.3533 81.053 77.321 80.6773 77.3949C80.3017 77.4688 79.9549 77.6459 79.677 77.9056C79.4707 78.1712 79.3464 78.4896 79.3189 78.8229C79.2915 79.1561 79.362 79.4901 79.522 79.785C79.786 80.1326 80.1091 80.4326 80.477 80.6715C80.851 80.9828 81.213 81.3078 81.592 81.6132C83.128 82.8484 82.907 82.7627 83.025 82.7627C83.131 82.8681 83.29 82.9203 83.396 82.8158C84.6386 82.0088 85.8095 81.0993 86.896 80.0972C87.0327 79.8982 87.1225 79.6715 87.159 79.4339C87.1954 79.1963 87.1776 78.9537 87.1068 78.7237C87.036 78.4937 86.914 78.2822 86.7497 78.1045C86.5854 77.9269 86.3829 77.7876 86.157 77.6968Z"></path><path id="vector_50" fill="#000000" d="M122.621 91.1331C121.757 91.9934 120.705 92.6474 119.544 93.045C118.384 93.4426 117.147 93.5733 115.928 93.4269C114.708 93.2806 113.539 92.8612 112.51 92.2008C111.48 91.5404 110.618 90.6566 109.989 89.6172C109.151 88.2421 108.754 86.6495 108.852 85.0485C108.949 83.4474 109.536 81.9128 110.535 80.6461C111.533 79.3794 112.898 78.4398 114.449 77.9507C115.999 77.4616 117.664 77.4459 119.224 77.9056C115.763 73.8415 110.124 73.7528 106.224 77.2259C105.436 77.9561 104.821 78.8488 104.424 79.8401C104.628 80.0058 104.807 80.1995 104.955 80.4153C107.416 83.6471 106.89 89.9009 103.628 91.7084C103.335 91.8767 103.01 91.9834 102.673 92.0216C101.373 94.1551 99.69 94.2428 97.737 95.0022C96.6254 95.3579 95.6581 96.054 94.976 96.989C93.619 99.3953 95.526 100.084 95.826 101.694C95.9167 102.018 95.9254 102.359 95.8514 102.688C95.7773 103.016 95.6226 103.321 95.401 103.577C103.234 103.577 112.542 103.774 120.242 104.936C120.454 104.988 120.719 104.988 120.932 105.04C120.993 104.818 121.029 104.59 121.038 104.361C121.202 102.254 120.388 101.284 119.87 100.178C119.247 98.4586 120.029 97.574 121.197 96.1517C122.56 94.6131 123.33 92.6515 123.373 90.6101V90.4535C123.096 90.6495 122.843 90.8777 122.621 91.1331V91.1331Z"></path><path id="vector_51" fill="#ffd7d7" d="M49.957 149.375C50.063 145.613 50.329 120.359 50.382 118.006C50.173 118.058 49.9541 118.058 49.745 118.006C49.4007 117.95 49.0863 117.779 48.8544 117.522C48.6225 117.265 48.4872 116.938 48.471 116.594C48.4372 115.73 48.6584 114.875 49.108 114.132C49.267 113.767 49.426 113.344 49.586 112.982C48.1352 114.168 46.4813 115.088 44.702 115.701C44.4129 115.777 44.1051 115.736 43.8463 115.589C43.5875 115.441 43.3989 115.198 43.322 114.913C42.934 113.458 45.053 112.274 46.401 111.409C48.51 110.056 48.365 110.289 48.365 110.155C47.69 110.376 43.216 111.568 36.475 114.076C36.05 114.196 35.126 114.63 34.83 114.703C30.6662 116.146 26.7338 118.17 23.153 120.712C20.5211 122.851 18.1198 125.251 15.987 127.875C8.37501 137.212 5.10601 147.153 5.10601 154.956C5.10477 155.005 5.11355 155.053 5.13181 155.098C5.15007 155.143 5.17742 155.184 5.21222 155.218C5.24701 155.252 5.28851 155.279 5.3342 155.297C5.3799 155.315 5.42882 155.324 5.47801 155.323H50.329C50.2798 155.324 50.2309 155.315 50.1852 155.297C50.1395 155.279 50.098 155.252 50.0632 155.218C50.0284 155.184 50.0011 155.143 49.9828 155.098C49.9646 155.053 49.9558 155.005 49.957 154.956C49.9423 154.329 49.96 153.701 50.01 153.075C49.9223 151.844 49.9047 150.608 49.957 149.375V149.375Z"></path><path id="vector_52" fill="#ffd7d7" d="M170.6 153.66C170.094 152.912 169.373 152.329 168.53 151.985C164.987 150.241 154.001 148.074 150.696 147.332C131.113 142.937 113.074 142.703 94.38 149.685C81.09 154.647 63.651 163.672 51.705 170.755C50.905 171.226 50.166 171.695 49.369 172.166C49.3104 172.206 49.2656 172.263 49.2406 172.329C49.2155 172.394 49.2114 172.466 49.2288 172.534C49.2462 172.602 49.2842 172.664 49.3378 172.71C49.3915 172.756 49.4581 172.786 49.529 172.794C108.969 172.794 105.129 172.876 105.579 172.637C108.545 170.805 111.382 168.779 114.072 166.572C117.145 164.161 123.997 158.573 124.372 158.259C137.925 167.437 140.186 169.501 143.108 170.079C143.678 170.229 144.272 170.265 144.857 170.184C145.441 170.103 146.002 169.907 146.508 169.608C148.476 168.202 147.14 165.373 146.455 163.648C145.643 161.318 144.557 159.089 143.218 157.008C151.167 160.693 155.554 162.851 159.778 163.753C161.955 164.218 166.333 164.64 166.36 161.348C166.374 159.611 165.211 158.555 163.76 157.583C163.443 157.371 163.123 157.166 162.86 156.956C164.574 157.378 167.779 157.941 169.442 157.218C169.773 157.079 170.07 156.871 170.312 156.609C170.554 156.347 170.737 156.037 170.847 155.7C170.956 155.362 170.991 155.005 170.949 154.653C170.906 154.301 170.787 153.963 170.6 153.66V153.66Z"></path><path id="vector_53" fill="#c0c195" d="M104.415 79.8401L103.778 79.3693C100.138 77.218 96.654 83.6274 98.789 88.8853C100.354 92.7377 103.77 93.047 105.583 89.6172C107.135 86.6799 106.836 82.2238 104.415 79.8401Z"></path><path id="vector_54" fill="#c0c195" d="M130.9 81.7224C129.4 78.3616 126.147 77.8563 124.266 81.356C124.163 81.5161 124.091 81.6934 124.053 81.879C124.598 82.8547 124.919 83.9365 124.993 85.0479C125.066 86.1594 124.89 87.2731 124.478 88.3101C124.359 88.6154 124.216 88.9117 124.053 89.1966C125.779 92.9603 129.014 92.7682 130.741 89.6674C131.344 88.4317 131.67 87.0827 131.698 85.712C131.725 84.3412 131.453 82.9806 130.9 81.7224Z"></path><path id="vector_55" fill="#ffaaaa" d="M168.746 149.584C165.779 136.05 158.546 116.629 145.546 111.157C145.174 111.001 144.746 110.843 144.325 110.686C144.275 110.654 144.217 110.634 144.156 110.631C144.096 110.627 144.036 110.639 143.982 110.666C143.928 110.692 143.883 110.732 143.85 110.782C143.816 110.832 143.797 110.889 143.794 110.948C143.794 112.152 145.831 113.411 148.094 127.26C149.05 133.53 149.635 139.849 149.845 146.186C149.84 146.535 149.857 146.885 149.898 147.232C152.998 147.994 165.547 150.29 169.219 152.46C169.115 151.494 168.957 150.534 168.746 149.584V149.584Z"></path><path id="vector_56" fill="#ffaaaa" d="M124 81.8791C123.086 80.095 121.508 78.7275 119.595 78.0622C118.233 77.5788 116.765 77.4645 115.343 77.7312C113.921 77.9979 112.598 78.6358 111.512 79.5783C110.425 80.5208 109.616 81.7333 109.168 83.0891C108.72 84.4449 108.65 85.8943 108.966 87.2859C109.281 88.6775 109.969 89.9602 110.96 91C111.95 92.0398 113.206 92.7985 114.596 93.197C115.986 93.5954 117.458 93.619 118.861 93.2651C120.263 92.9113 121.543 92.193 122.567 91.1854C123.391 90.3916 124.026 89.4274 124.425 88.3624C124.826 87.3141 124.996 86.1936 124.922 85.0756C124.849 83.9576 124.535 82.8679 124 81.8791Z"></path><path id="vector_57" fill="#000000" d="M138.81 87.7349C138.442 88.1773 138.22 88.7193 138.173 89.289C138.126 89.8587 138.255 90.4291 138.545 90.9244C138.849 91.4266 139.307 91.8209 139.853 92.0501C140.399 92.2793 141.005 92.3317 141.583 92.1996C142.161 92.0676 142.682 91.758 143.07 91.3155C143.458 90.873 143.693 90.3206 143.741 89.7378C143.79 89.1551 143.649 88.5724 143.339 88.0736C143.029 87.5749 142.567 87.186 142.018 86.9632C141.469 86.7403 140.863 86.6949 140.286 86.8336C139.71 86.9724 139.193 87.288 138.81 87.7349V87.7349Z"></path><path id="vector_58" fill="#000000" d="M101.655 83.9702V87.2118C101.655 87.302 101.691 87.3884 101.756 87.4521C101.821 87.5159 101.909 87.5517 102 87.5517C102.091 87.5517 102.179 87.5159 102.244 87.4521C102.309 87.3884 102.345 87.302 102.345 87.2118V83.9702C102.338 83.8845 102.299 83.8045 102.235 83.7461C102.171 83.6877 102.087 83.6553 102 83.6553C101.913 83.6553 101.829 83.6877 101.765 83.7461C101.701 83.8045 101.662 83.8845 101.655 83.9702Z"></path><path id="vector_59" fill="#000000" d="M127.5 87.2118V83.9702C127.5 83.8801 127.464 83.7936 127.399 83.7299C127.334 83.6662 127.247 83.6304 127.155 83.6304C127.064 83.6304 126.976 83.6662 126.911 83.7299C126.846 83.7936 126.81 83.8801 126.81 83.9702V87.2118C126.761 87.6827 127.5 87.6827 127.5 87.2118Z"></path><path id="vector_60" fill="#000000" d="M105.53 68.2861C103.641 71.0532 102.625 74.309 102.611 77.6436C102.611 77.7337 102.647 77.8201 102.712 77.8839C102.777 77.9476 102.865 77.9834 102.956 77.9834C103.048 77.9834 103.135 77.9476 103.2 77.8839C103.265 77.8201 103.301 77.7337 103.301 77.6436C103.301 72.1798 106.124 66.7051 111.209 64.4682C115.582 62.5445 121.169 63.825 124.585 68.7037C126.415 71.3567 127.395 74.4894 127.398 77.6968C127.398 77.7869 127.434 77.8733 127.499 77.9371C127.564 78.0008 127.652 78.0366 127.743 78.0366C127.835 78.0366 127.922 78.0008 127.987 77.9371C128.052 77.8733 128.088 77.7869 128.088 77.6968C128.106 74.7165 127.299 71.7877 125.753 69.2258C120.866 61.3221 110.768 60.9784 105.53 68.2861Z"></path><path id="vector_61" fill="#000000" d="M140.721 93.4863C140.721 96.9003 139.421 101.291 136.421 103.001C132.544 105.212 127.721 101.021 127.721 93.4331C127.721 93.343 127.685 93.2565 127.62 93.1928C127.555 93.1291 127.468 93.0933 127.376 93.0933C127.285 93.0933 127.197 93.1291 127.132 93.1928C127.067 93.2565 127.031 93.343 127.031 93.4331C127.031 97.1633 128.431 101.726 131.702 103.579C136.002 106.009 141.415 101.63 141.415 93.4882C141.415 93.4434 141.406 93.3989 141.389 93.3574C141.372 93.3158 141.346 93.2781 141.314 93.2463C141.282 93.2144 141.244 93.1892 141.202 93.1719C141.16 93.1546 141.115 93.1456 141.069 93.1455C141.023 93.1453 140.978 93.1541 140.936 93.1711C140.894 93.1882 140.856 93.2132 140.823 93.2449C140.791 93.2765 140.765 93.3141 140.748 93.3555C140.73 93.397 140.721 93.4414 140.721 93.4863Z"></path><path id="vector_62" fill="#000000" d="M120.233 86.8986C119.967 87.2044 119.638 87.4498 119.266 87.6181C118.895 87.7864 118.492 87.8736 118.083 87.8736C117.674 87.8736 117.271 87.7864 116.9 87.6181C116.528 87.4498 116.199 87.2044 115.933 86.8986C115.666 86.5342 115.033 86.8986 115.349 87.2641C115.669 87.665 116.076 87.991 116.54 88.2184C117.004 88.4457 117.513 88.5688 118.031 88.5788C118.549 88.5888 119.063 88.4854 119.535 88.2761C120.008 88.0668 120.427 87.7568 120.763 87.3685C121.037 87.0089 120.544 86.5263 120.233 86.8986Z"></path><path id="vector_63" fill="#ffaaaa" d="M145.71 149.95C146.973 150.45 156.647 153.967 157.122 154.133C157.549 154.282 157.709 153.602 157.334 153.453C156.072 152.954 146.397 149.436 145.922 149.271C145.5 149.122 145.335 149.802 145.71 149.95Z"></path><path id="vector_64" fill="#ffaaaa" d="M140.562 154.499C140.462 154.427 135.674 151.035 134.298 149.95C133.927 149.689 133.608 150.264 133.927 150.526C134.027 150.6 139.553 154.554 140.19 155.074C140.567 155.382 140.931 154.763 140.562 154.499Z"></path><path id="vector_65" fill="#c0c195" d="M122.25 27.1397C121.078 25.7996 119.536 24.8242 117.811 24.3322C116.086 23.8402 114.254 23.853 112.536 24.3689C110.601 24.9473 108.865 26.0383 107.517 27.5229C106.169 29.0074 105.261 30.8284 104.893 32.7867C104.84 33.2565 104.787 33.6732 104.734 34.146C103.513 35.1389 102.247 36.1416 101.018 37.1256C100.755 37.3374 101.018 37.7009 101.284 37.7009C102.717 37.8575 104.15 38.0673 105.584 38.2239C108.948 45.7355 119.829 44.9721 123.365 37.2822C124.145 35.6543 124.453 33.846 124.257 32.0564C124.06 30.2668 123.366 28.5654 122.25 27.1397V27.1397Z"></path><path id="vector_66" fill="#000000" d="M114.553 35.6097C114.553 35.6998 114.589 35.7863 114.654 35.85C114.719 35.9137 114.807 35.9495 114.898 35.9495C114.99 35.9495 115.077 35.9137 115.142 35.85C115.207 35.7863 115.243 35.6998 115.243 35.6097C115.243 33.6229 115.19 29.1264 115.19 28.8654C115.19 28.7753 115.154 28.6888 115.089 28.6251C115.024 28.5614 114.937 28.5256 114.845 28.5256C114.754 28.5256 114.666 28.5614 114.601 28.6251C114.536 28.6888 114.5 28.7753 114.5 28.8654C114.5 30.8521 114.553 35.2965 114.553 35.6097Z"></path><path id="vector_67" fill="#000000" d="M114.872 37.4921C114.967 37.4969 115.057 37.5376 115.122 37.6057C115.188 37.6738 115.225 37.7641 115.225 37.858C115.225 37.9519 115.188 38.0422 115.122 38.1103C115.057 38.1784 114.967 38.2191 114.872 38.2239C114.777 38.2191 114.687 38.1784 114.622 38.1103C114.556 38.0422 114.519 37.9519 114.519 37.858C114.519 37.7641 114.556 37.6738 114.622 37.6057C114.687 37.5376 114.777 37.4969 114.872 37.4921V37.4921Z"></path><path id="vector_68" fill="#000000" d="M16.359 77.1255C16.7481 76.8855 17.0268 76.5055 17.1359 76.0662C17.245 75.6269 17.1758 75.1631 16.943 74.7733C16.634 74.2612 16.2103 73.8253 15.7042 73.4989C15.1982 73.1725 14.6232 72.9643 14.023 72.89C13.9341 72.8703 13.8409 72.8845 13.762 72.9295C13.6832 72.9746 13.6245 73.0474 13.5977 73.1332C13.571 73.219 13.5781 73.3117 13.6176 73.3926C13.6571 73.4735 13.7262 73.5367 13.811 73.5697C14.295 73.6259 14.7619 73.7804 15.1822 74.0234C15.6025 74.2663 15.9671 74.5924 16.253 74.9812C16.3746 75.1587 16.4449 75.3655 16.4565 75.5793C16.468 75.7932 16.4204 76.0061 16.3186 76.1953C16.2168 76.3846 16.0648 76.5431 15.8787 76.6538C15.6926 76.7645 15.4794 76.8234 15.262 76.8241C13.772 76.9019 11.802 75.8302 10.534 75.0511C10.163 74.7891 9.79102 75.4165 10.163 75.6253C10.308 75.6253 12.848 77.554 15.315 77.485C15.5312 77.5154 15.7386 77.5898 15.9239 77.7035C16.1093 77.8171 16.2686 77.9675 16.3918 78.1452C16.5149 78.3228 16.5991 78.5237 16.6391 78.7351C16.6791 78.9466 16.674 79.1639 16.624 79.3733C16.144 80.7936 14.224 80.3159 12.734 79.9239C11.9595 79.7335 11.2109 79.4528 10.504 79.0876C10.13 78.8827 9.76102 79.4531 10.133 79.6629C10.186 79.7151 10.239 79.7151 10.292 79.7673C11.8097 80.5061 13.4644 80.9325 15.155 81.0202C15.4647 81.136 15.7257 81.3512 15.8958 81.6311C16.066 81.9109 16.1355 82.2392 16.093 82.5627C15.913 83.6265 14.743 83.7723 13.652 83.661C13.226 83.6176 13.227 84.2884 13.652 84.3406H13.917C16.7 84.645 17.526 82.3332 16.1 80.834C17.357 80.3297 18.021 78.5045 16.359 77.1255Z"></path><path id="vector_69" fill="#ffaaaa" d="M55.265 101.276C55.265 101.366 55.3014 101.452 55.3661 101.516C55.4308 101.58 55.5185 101.615 55.61 101.615C55.7015 101.615 55.7893 101.58 55.854 101.516C55.9187 101.452 55.955 101.366 55.955 101.276C56.0157 95.4006 57.1113 89.5806 59.193 84.0746C59.358 83.6589 58.663 83.5004 58.503 83.8658C56.429 88.5918 55.378 95.9537 55.265 101.276Z"></path></g></g><g id="line"><g id="group_2"><path id="vector_70" fill="#000000" d="M19.384 61.3319C19.696 61.653 20.173 61.1822 19.862 60.8621C18.667 59.6328 17.54 58.3395 16.362 57.1496C16.2985 57.0876 16.2127 57.0529 16.1233 57.0531C16.0339 57.0533 15.9482 57.0883 15.885 57.1506C15.8218 57.2129 15.7862 57.2973 15.786 57.3853C15.7858 57.4734 15.8211 57.5579 15.884 57.6205C17.062 58.8103 18.189 60.1027 19.384 61.3319Z"></path><path id="vector_71" fill="#000000" d="M20.764 60.3913C20.864 60.8119 21.557 60.6533 21.454 60.1825C21.124 58.6686 20.346 55.2142 20.287 54.9541C20.187 54.5335 19.494 54.6921 19.596 55.1629C21.025 61.7201 19.309 54.0164 20.764 60.3913Z"></path><path id="vector_72" fill="#000000" d="M23.471 60.0248C23.636 59.5905 25.187 55.3057 25.223 55.1629C25.382 54.7452 24.683 54.5837 24.533 54.9541C24.12 55.9716 22.8 59.7412 22.781 59.816C22.622 60.2868 23.313 60.4435 23.471 60.0248Z"></path><path id="vector_73" fill="#000000" d="M30.955 103.106C30.796 102.687 30.106 102.897 30.265 103.315C31.751 106.975 33.396 111.088 34.723 114.801L35.466 114.592C34.139 110.88 32.495 106.817 30.955 103.106Z"></path><path id="vector_74" fill="#000000" d="M51.408 79.3752C51.6191 78.487 51.5698 77.5581 51.2661 76.6964C50.9623 75.8346 50.4165 75.0756 49.692 74.5074C48.392 73.4239 46.255 72.3837 45.339 71.6321C44.211 70.6796 42.144 67.3966 39.023 67.4498C37.749 67.4705 35.891 68.2861 35.891 69.8542C35.8846 69.9992 35.8987 70.1445 35.933 70.2856C35.4741 70.6658 35.1692 71.1958 35.0739 71.7789C34.9787 72.362 35.0994 72.9595 35.414 73.4623C35.7233 73.94 36.1832 74.3047 36.723 74.5004C37.2629 74.6961 37.853 74.712 38.403 74.5458C38.721 75.3876 38.9427 76.2618 39.064 77.1521C33.5119 79.4076 28.2724 82.3473 23.471 85.9008C23.471 81.7107 23.071 71.1455 23.047 70.8963C22.842 68.7638 21.827 66.0856 19.756 66.7662C17.987 67.3996 18.323 70.593 18.323 71.837C16.8303 71.4116 15.3029 71.115 13.758 70.9505C12.067 70.7427 9.77299 71.2204 9.03399 72.6753C8.8313 73.1066 8.76845 73.5889 8.85398 74.0567C8.93951 74.5244 9.16926 74.9549 9.51199 75.2894C8.91435 75.5316 8.4247 75.9768 8.13199 76.5443C7.65399 77.6948 8.44999 78.7399 9.35199 79.4195C9.1034 79.5106 8.87567 79.6494 8.68205 79.8279C8.48843 80.0064 8.3328 80.2211 8.2242 80.4594C8.1156 80.6977 8.0562 80.955 8.04947 81.2161C8.04274 81.4772 8.0888 81.7371 8.18499 81.9805C8.85899 83.6048 11.311 84.2244 13.068 84.4903C12.523 87.2798 12.568 90.8396 13.811 93.378C14.6074 94.8102 15.7219 96.0467 17.0713 96.9953C18.4206 97.944 19.9701 98.5802 21.604 98.8566C18.22 103.821 16.909 111.593 16.571 117.585C16.571 117.742 16.777 117.994 16.936 117.994C17.958 118.138 20.396 118.363 22.461 118.538C20.069 120.914 17.035 124.663 16.093 127.676C16.624 127.048 17.102 126.473 17.633 125.846C19.1696 123.163 21.1092 120.725 23.386 118.614C24.65 118.717 25.63 118.787 25.807 118.787C26.178 118.578 26.55 118.369 26.974 118.16C23.7229 118.095 20.479 117.832 17.261 117.372C17.667 111.374 18.831 104.151 22.197 99.1777C23.1676 97.7299 24.4555 96.5152 25.966 95.6228C30.266 93.0007 34.497 94.8417 38.174 98.237C43.289 103.131 46.674 109.937 47.038 110.471C47.2748 110.425 47.5061 110.355 47.728 110.262C43.094 101.792 35.335 90.3964 26.5 94.5314C24.7598 95.4294 23.2371 96.6871 22.036 98.2183C18.354 97.6588 14.951 95.0663 14.079 91.9143C13.7765 90.8507 13.599 89.7564 13.55 88.6529C15.321 87.6187 20.55 84.6016 22.785 83.4118C22.837 84.4509 22.837 85.4901 22.837 86.5293C22.837 86.7903 23.156 87.0001 23.368 86.8435C27.3571 83.8558 31.6422 81.2721 36.158 79.1319C35.7365 79.736 35.5661 80.4763 35.682 81.2004C35.7367 81.3959 35.8377 81.5758 35.9768 81.7253C36.1159 81.8748 36.289 81.9896 36.482 82.0603C36.3993 82.04 36.3189 82.0116 36.242 81.9756C37.41 82.6228 39.025 81.1137 39.896 80.1041C40.238 80.7666 40.7132 81.3537 41.2927 81.8297C41.8722 82.3056 42.5439 82.6606 43.267 82.873C47.396 84.383 50.244 82.8473 51.192 80.1061C51.592 80.4587 51.992 80.8517 52.392 81.1994C52.5037 81.0005 52.6276 80.8084 52.763 80.6242C52.365 80.2253 51.868 79.7791 51.408 79.3752ZM8.92799 76.6507C9.06161 76.4196 9.24532 76.2203 9.46604 76.0671C9.68676 75.9139 9.93907 75.8104 10.205 75.7642C11.735 76.7394 13.725 77.7116 15.534 77.553H15.553C15.9015 77.7181 16.1844 77.9926 16.3575 78.3333C16.5305 78.674 16.5838 79.0616 16.509 79.4353C16.034 80.837 14.094 80.3218 12.537 79.9416C10.843 79.4678 8.16799 78.2267 8.92799 76.6507ZM9.56498 82.346C9.34738 82.1991 9.16712 82.0048 9.03825 81.7781C8.90937 81.5513 8.83537 81.2984 8.82198 81.0389C8.87198 80.4912 9.54899 79.9908 10.071 79.7643C10.7824 80.1427 11.5398 80.4303 12.325 80.6203C13.1166 80.8366 13.924 80.9927 14.74 81.0872C16.167 81.2359 16.918 83.7585 14.309 83.8629C12.6083 83.8412 10.9543 83.3123 9.56498 82.346V82.346ZM13.652 87.992C13.6561 86.832 13.7628 85.6745 13.971 84.5327C16.305 84.7218 17.605 82.9695 16.004 80.9394C17.251 80.4262 17.894 78.6138 16.243 77.2378C16.5888 77.0131 16.8499 76.6825 16.986 76.2971C17.1227 75.8242 17.0656 75.3174 16.827 74.8856C16.5147 74.3765 16.0903 73.943 15.585 73.6172C15.0798 73.2913 14.5066 73.0815 13.908 73.0033C13.8188 72.9829 13.7252 72.9966 13.6459 73.0415C13.5665 73.0865 13.5074 73.1593 13.4804 73.2455C13.4535 73.3316 13.4606 73.4246 13.5004 73.5057C13.5402 73.5869 13.6097 73.6502 13.695 73.6829C14.1789 73.7392 14.6458 73.8938 15.0661 74.1367C15.4864 74.3796 15.851 74.7057 16.137 75.0944C16.3085 75.3573 16.3833 75.6702 16.349 75.9809C16.156 77.2851 14.368 76.9787 13.121 76.4872C11.305 75.7504 8.67799 74.4473 9.82999 72.7225C10.3725 72.0711 11.1549 71.6578 12.006 71.573C13.4882 71.4453 14.9817 71.5868 16.412 71.9907C17.167 72.1338 17.9117 72.326 18.641 72.5659C18.6903 72.5781 18.7418 72.5793 18.7916 72.5695C18.8415 72.5596 18.8884 72.5389 18.9291 72.5089C18.9699 72.4789 19.0033 72.4403 19.0269 72.396C19.0506 72.3517 19.0639 72.3027 19.066 72.2527C19.091 71.117 18.842 68.1226 19.866 67.4951C20.0635 67.3816 20.2918 67.3307 20.5197 67.3494C20.7476 67.3681 20.9642 67.4554 21.14 67.5995C22.6 68.6722 22.447 72.4507 22.52 73.6642C22.52 74.4207 22.788 80.7956 22.838 82.7617C21.783 83.3202 15.691 86.7312 13.652 87.9959V87.992ZM38.174 73.8799C37.8092 74.0195 37.4086 74.0403 37.0309 73.9392C36.6532 73.8381 36.3184 73.6205 36.0754 73.3182C35.8325 73.016 35.6943 72.645 35.681 72.2598C35.6678 71.8745 35.7802 71.4952 36.0019 71.1774C36.2235 70.8597 36.5426 70.6203 36.9125 70.4943C37.2824 70.3683 37.6835 70.3623 38.0571 70.4773C38.4306 70.5923 38.7569 70.8221 38.9882 71.1331C39.2194 71.4441 39.3434 71.8199 39.342 72.2054C39.3495 72.5698 39.2409 72.9273 39.0314 73.2277C38.8219 73.5281 38.522 73.7562 38.174 73.8799ZM36.316 80.9906C36.053 80.3858 36.88 79.13 37.165 78.6375C37.77 78.3902 38.492 78.1223 39.154 77.8721C39.2397 78.3811 39.3791 78.8799 39.57 79.3605C38.684 80.3405 36.826 82.211 36.316 80.9906V80.9906ZM49.533 81.5659C48.859 82.1601 48.0331 82.5618 47.1444 82.7275C46.2557 82.8933 45.3379 82.8169 44.49 82.5065C38.841 80.9887 40.513 77.1284 39.025 74.1971C39.3304 73.9544 39.582 73.6526 39.7643 73.3104C39.9466 72.9682 40.0558 72.5928 40.085 72.2074C40.086 71.7965 39.9843 71.3917 39.7889 71.0287C39.5934 70.6657 39.3102 70.3557 38.9642 70.1261C38.6182 69.8966 38.2202 69.7544 37.8052 69.7123C37.3903 69.6702 36.9712 69.7294 36.585 69.8847C36.5659 69.6939 36.6031 69.5017 36.692 69.3312C36.8708 69.0432 37.1101 68.7963 37.3938 68.607C37.6775 68.4177 37.9992 68.2905 38.337 68.2339C41.044 67.7109 42.796 70.1684 44.437 71.841C46.309 73.6849 50.291 74.599 50.806 77.751C50.8942 78.44 50.8258 79.1398 50.6056 79.7996C50.3854 80.4594 50.0191 81.0627 49.533 81.5659V81.5659Z"></path><path id="vector_75" fill="#000000" d="M29.734 62.0117C31.111 61.4798 32.441 60.9666 33.821 60.4436C40.554 65.5281 49.477 59.5758 49.055 51.3993C48.632 43.2041 39.527 39.3655 33.555 44.7072C31.8523 46.2642 30.7015 48.3181 30.2717 50.5671C29.8418 52.8161 30.1557 55.1416 31.167 57.2019C30.53 58.6656 29.946 60.1303 29.309 61.594C29.2899 61.6523 29.2875 61.7145 29.3021 61.774C29.3167 61.8335 29.3477 61.8878 29.3917 61.931C29.4357 61.9742 29.4909 62.0046 29.5513 62.0189C29.6117 62.0331 29.6749 62.0306 29.734 62.0117V62.0117ZM31.858 57.3063C31.911 57.2019 31.858 57.1497 31.804 57.0453C30.9308 55.28 30.5965 53.303 30.8417 51.3542C31.0868 49.4054 31.9008 47.5685 33.185 46.0665C34.221 44.8009 35.6102 43.8613 37.1814 43.3635C38.7527 42.8657 40.4375 42.8314 42.0283 43.2648C43.6191 43.6982 45.0465 44.5804 46.1347 45.8027C47.223 47.0251 47.9245 48.5343 48.153 50.1444C48.4601 51.8388 48.3239 53.5823 47.7574 55.2105C47.1909 56.8387 46.2127 58.298 44.915 59.4507C43.6382 60.589 42.0378 61.3145 40.3296 61.5293C38.6213 61.7442 36.8872 61.4381 35.361 60.6524C34.023 59.8289 33.925 59.6349 33.768 59.7117C32.601 60.1303 31.433 60.5982 30.268 61.0188C30.8 59.8161 31.327 58.5612 31.858 57.3063Z"></path><path id="vector_76" fill="#000000" d="M39.129 51.3471V49.3603C39.129 49.3157 39.1201 49.2715 39.1027 49.2303C39.0854 49.1891 39.06 49.1516 39.0279 49.12C38.9959 49.0885 38.9579 49.0635 38.916 49.0464C38.8742 49.0293 38.8293 49.0205 38.784 49.0205C38.7387 49.0205 38.6938 49.0293 38.652 49.0464C38.6101 49.0635 38.5721 49.0885 38.54 49.12C38.508 49.1516 38.4826 49.1891 38.4653 49.2303C38.4479 49.2715 38.439 49.3157 38.439 49.3603V51.3471C38.439 51.3917 38.4479 51.4359 38.4653 51.4771C38.4826 51.5184 38.508 51.5558 38.54 51.5874C38.5721 51.6189 38.6101 51.644 38.652 51.661C38.6938 51.6781 38.7387 51.6869 38.784 51.6869C38.8293 51.6869 38.8742 51.6781 38.916 51.661C38.9579 51.644 38.9959 51.6189 39.0279 51.5874C39.06 51.5558 39.0854 51.5184 39.1027 51.4771C39.1201 51.4359 39.129 51.3917 39.129 51.3471Z"></path><path id="vector_77" fill="#000000" d="M41.146 51.2417V49.3603C41.146 49.3157 41.1371 49.2715 41.1197 49.2303C41.1024 49.1891 41.077 49.1516 41.0449 49.12C41.0129 49.0885 40.9749 49.0635 40.933 49.0464C40.8912 49.0293 40.8463 49.0205 40.801 49.0205C40.7557 49.0205 40.7108 49.0293 40.669 49.0464C40.6271 49.0635 40.5891 49.0885 40.557 49.12C40.525 49.1516 40.4996 49.1891 40.4823 49.2303C40.4649 49.2715 40.456 49.3157 40.456 49.3603V51.2417C40.456 51.2863 40.4649 51.3305 40.4823 51.3717C40.4996 51.413 40.525 51.4504 40.557 51.482C40.5891 51.5135 40.6271 51.5386 40.669 51.5556C40.7108 51.5727 40.7557 51.5815 40.801 51.5815C40.8463 51.5815 40.8912 51.5727 40.933 51.5556C40.9749 51.5386 41.0129 51.5135 41.0449 51.482C41.077 51.4504 41.1024 51.413 41.1197 51.3717C41.1371 51.3305 41.146 51.2863 41.146 51.2417Z"></path><path id="vector_78" fill="#000000" d="M42.367 53.0718C42.4299 53.0093 42.4652 52.9247 42.465 52.8367C42.4648 52.7486 42.4292 52.6642 42.366 52.602C42.3028 52.5397 42.2171 52.5046 42.1277 52.5045C42.0383 52.5043 41.9525 52.539 41.889 52.601C41.5992 52.8583 41.2585 53.0538 40.8884 53.1755C40.5183 53.2971 40.1267 53.3422 39.7381 53.3079C39.3494 53.2736 38.9722 53.1607 38.6299 52.9761C38.2877 52.7916 37.9878 52.5395 37.749 52.2355C37.484 51.8691 36.949 52.3922 37.272 52.7064C37.5749 53.0705 37.9499 53.3701 38.3742 53.5869C38.7985 53.8037 39.2631 53.9331 39.7398 53.9673C40.2165 54.0015 40.6952 53.9397 41.1469 53.7858C41.5986 53.6318 42.0137 53.3889 42.367 53.0718V53.0718Z"></path><path id="vector_79" fill="#000000" d="M78.779 133.064C75.631 131.245 70.919 131.286 68.906 132.226C68.584 132.377 68.747 132.748 69.012 132.854C71.659 133.908 83.612 138.71 83.662 138.71C83.933 138.799 84.162 138.44 84.033 138.187C82.7474 136.071 80.9402 134.308 78.779 133.064V133.064ZM70.079 132.541C72.783 131.978 75.5998 132.309 78.094 133.481C79.9851 134.484 81.6049 135.919 82.818 137.665C82.709 137.622 72.758 133.598 70.074 132.541H70.079Z"></path><path id="vector_80" fill="#000000" d="M84.086 132.174C83.765 132.325 83.928 132.696 84.193 132.802C86.837 133.855 98.793 138.657 98.842 138.657C99.116 138.747 99.342 138.381 99.214 138.134C98.0073 135.963 96.2055 134.17 94.014 132.959C91.31 131.629 86.682 130.961 84.086 132.174ZM97.94 137.665C94.49 136.252 85.997 132.854 85.201 132.543C87.905 131.98 90.7218 132.311 93.216 133.483C95.1068 134.486 96.7266 135.92 97.94 137.665V137.665Z"></path><path id="vector_81" fill="#000000" d="M65.668 66.0374C67.101 65.1509 69.012 64.3126 69.755 62.7445C69.8636 62.5694 69.9166 62.3663 69.9071 62.1613C69.8977 61.9563 69.8263 61.7588 69.702 61.594C69.5793 61.465 69.4315 61.3614 69.2675 61.2895C69.1035 61.2176 68.9265 61.1788 68.747 61.1754C67.791 61.1754 67.147 62.1604 66.677 62.7967C66.0263 63.6692 65.5244 64.6404 65.191 65.6719C65.093 65.9753 65.451 66.1447 65.668 66.0374ZM68.163 62.1171C68.425 61.9033 68.906 61.6985 69.171 62.0117C69.503 62.5042 67.988 63.7571 67.632 63.9984C67.16 64.3205 66.677 64.6259 66.199 64.8849C66.6963 63.8631 67.3597 62.9282 68.163 62.1171V62.1171Z"></path><path id="vector_82" fill="#000000" d="M55.955 101.224C56.0155 95.3479 57.1111 89.5271 59.193 84.0205C59.358 83.6049 58.657 83.4443 58.503 83.8117C56.431 88.7367 55.38 95.8356 55.265 101.274C55.257 101.642 55.953 101.642 55.955 101.224Z"></path><path id="vector_83" fill="#000000" d="M76.019 104.361C75.9882 104.327 75.9509 104.301 75.9094 104.282C75.8678 104.263 75.8228 104.253 75.7771 104.252C75.7315 104.251 75.686 104.259 75.6436 104.276C75.6012 104.292 75.5626 104.317 75.5303 104.349C75.4979 104.381 75.4725 104.419 75.4554 104.461C75.4384 104.502 75.4301 104.547 75.4311 104.592C75.4321 104.637 75.4424 104.682 75.4612 104.722C75.4801 104.763 75.5073 104.8 75.541 104.831C76.231 105.619 76.921 106.348 77.611 107.132C77.6745 107.194 77.7603 107.228 77.8497 107.228C77.9391 107.228 78.0248 107.193 78.088 107.131C78.1512 107.068 78.1868 106.984 78.187 106.896C78.1872 106.808 78.1519 106.723 78.089 106.661C77.385 105.942 76.709 105.145 76.019 104.361Z"></path><path id="vector_84" fill="#000000" d="M89.872 104.361C89.8078 104.303 89.7235 104.272 89.6366 104.274C89.5496 104.276 89.4668 104.31 89.4052 104.371C89.3437 104.431 89.3082 104.513 89.3061 104.598C89.304 104.684 89.3355 104.767 89.394 104.831C90.084 105.619 90.774 106.347 91.464 107.132C91.4953 107.163 91.5326 107.187 91.5737 107.204C91.6147 107.221 91.6588 107.23 91.7033 107.23C91.7478 107.23 91.7919 107.222 91.833 107.205C91.8742 107.188 91.9115 107.164 91.943 107.133C91.9745 107.102 91.9994 107.065 92.0164 107.024C92.0334 106.984 92.0421 106.94 92.042 106.896C92.0419 106.853 92.033 106.809 92.0159 106.769C91.9987 106.728 91.9736 106.692 91.942 106.661C91.238 105.942 90.562 105.145 89.872 104.361Z"></path><path id="vector_85" fill="#000000" d="M67.685 71.0047C68.0759 70.9298 68.4429 70.7635 68.755 70.5198C69.0671 70.276 69.3152 69.9621 69.4785 69.6042C69.6417 69.2464 69.7154 68.8552 69.6932 68.4635C69.6709 68.0718 69.5535 67.6911 69.3508 67.3534C69.1481 67.0157 68.8661 66.7309 68.5284 66.5229C68.1906 66.3149 67.8072 66.1899 67.4102 66.1583C67.0132 66.1268 66.6143 66.1896 66.2471 66.3415C65.8799 66.4934 65.5551 66.7299 65.3 67.0312C64.9718 67.4323 64.7757 67.9223 64.7376 68.436C64.6995 68.9498 64.8214 69.4627 65.087 69.9064C65.3582 70.3251 65.751 70.6537 66.2143 70.8495C66.6776 71.0454 67.1901 71.0995 67.685 71.0047V71.0047ZM67.473 66.8746C67.8844 66.9496 68.257 67.1622 68.5277 67.4764C68.7984 67.7906 68.9508 68.1873 68.959 68.5993C68.9601 68.959 68.849 69.3102 68.6406 69.6056C68.4323 69.9009 68.1369 70.1261 67.7943 70.2505C67.4518 70.375 67.0787 70.3927 66.7255 70.3014C66.3724 70.21 66.0563 70.014 65.8201 69.7398C65.5838 69.4656 65.4389 69.1265 65.4048 68.7684C65.3707 68.4103 65.4491 68.0506 65.6295 67.7379C65.8099 67.4253 66.0835 67.1748 66.4132 67.0203C66.743 66.8659 67.1129 66.815 67.473 66.8746V66.8746Z"></path><path id="vector_86" fill="#000000" d="M94.437 104.674C93.549 102.051 90.556 99.3037 85.486 98.5098C85.3028 95.4552 84.9241 92.415 84.352 89.4074C85.0555 89.3438 85.7497 89.2037 86.422 88.9898C92.251 87.2227 95.322 81.1453 92.207 75.8144C91.4265 74.5624 90.3866 73.4866 89.1551 72.6576C87.9237 71.8285 86.5284 71.2648 85.0606 71.0033C83.5928 70.7418 82.0855 70.7883 80.6372 71.1399C79.189 71.4915 77.8323 72.1402 76.656 73.0436C76.602 73.0958 76.549 73.0958 76.496 73.148C76.305 73.1008 72.823 72.5078 71.825 72.3118C71.7567 72.294 71.6845 72.2973 71.6182 72.3213C71.5518 72.3452 71.4946 72.3887 71.4541 72.4457C71.4137 72.5027 71.3919 72.5707 71.3919 72.6402C71.3919 72.7098 71.4136 72.7777 71.454 72.8348C71.571 72.9885 71.66 73.1431 71.762 73.2978C65.19 72.0872 55.34 75.3012 52.4 81.095C52.367 81.2351 52.293 81.3625 52.187 81.4614C48.148 88.3269 46.633 98.3237 47.402 105.725C47.5066 107.271 47.7445 108.805 48.113 110.311C47.356 110.746 46.224 111.426 44.504 112.612C42.215 113.999 43.024 115.961 44.504 115.696C45.1803 115.538 45.8257 115.271 46.415 114.908C47.4705 114.365 48.4664 113.717 49.387 112.974C49.228 113.34 49.069 113.762 48.909 114.124C48.4694 114.871 48.2488 115.723 48.272 116.587C48.511 118.113 50.417 118.829 51.722 116.691C52.337 115.684 52.996 114.652 53.633 113.658C54.493 117.386 54.506 117.998 55.226 118.416C55.4437 118.546 55.6957 118.611 55.9505 118.602C56.2053 118.593 56.4517 118.51 56.659 118.363C57.3739 117.747 57.8284 116.889 57.933 115.959C58.145 115.019 58.944 110.436 58.961 110.338C60.7887 111.048 62.6565 111.653 64.555 112.151C64.555 113.354 64.661 129.98 64.661 129.98C64.6598 130.028 64.6685 130.076 64.6867 130.121C64.7049 130.166 64.7322 130.207 64.7669 130.241C64.8015 130.275 64.8429 130.302 64.8885 130.32C64.9341 130.338 64.9829 130.347 65.032 130.346H95.976C96.0252 130.347 96.074 130.338 96.1196 130.32C96.1653 130.302 96.2067 130.275 96.2415 130.241C96.2762 130.207 96.3036 130.166 96.3219 130.121C96.3402 130.076 96.3491 130.028 96.348 129.98C96.473 124.516 96.863 110.251 94.437 104.674ZM76.656 73.8277C76.709 73.8277 76.762 73.7755 76.815 73.7755C83.029 68.7283 92.8 72.89 92.685 80.3632C92.576 87.2385 83.738 91.4493 77.399 87.0552C75.712 85.941 74.492 84.2625 73.9648 82.3303C73.4377 80.3982 73.6392 78.3433 74.532 76.5463C74.697 76.2222 74.522 76.2173 72.462 73.0988C72.6 73.1224 76.372 73.8277 76.656 73.8277ZM68.948 73.7351C69.331 74.9437 70.189 77.6209 69.001 77.8652C67.666 78.14 66.508 75.1505 66.028 73.8917C66.9955 73.7629 67.972 73.7105 68.948 73.7351V73.7351ZM54.1 79.7357C56.185 77.2732 60.166 74.9092 65.353 74.0897C65.753 75.2796 66.644 77.3343 67.635 78.1154C68.888 79.0748 70.456 78.5843 70.335 76.6103C70.2666 75.6955 70.0708 74.7943 69.753 73.9321C70.6365 73.9694 71.5159 74.0714 72.384 74.2374C72.556 74.5576 72.833 74.8284 73.849 76.3897C70.855 82.4632 75.821 89.7522 83.669 89.4606C84.2934 92.4091 84.6717 95.403 84.8 98.4123C79.5 97.7445 72.655 98.4527 67.374 99.1845C64.26 99.5785 59.018 100.519 56.121 101.851C55.876 101.972 55.192 102.27 55.06 102.531C54.8217 103.804 54.9045 105.115 55.301 106.349C52.9373 106.054 50.5533 105.945 48.172 106.024C47.026 94.426 50.687 83.8146 54.1 79.7357ZM57.457 114.912C57.3507 115.67 57.1363 116.409 56.82 117.108C56.661 117.422 56.342 117.896 55.865 117.896C55.387 117.843 55.228 117.32 55.121 116.954C54.75 115.542 54.397 114.086 54.113 112.615C54.0939 112.551 54.057 112.494 54.0066 112.45C53.9561 112.406 53.8941 112.377 53.8277 112.366C53.7612 112.356 53.693 112.363 53.6308 112.389C53.5686 112.414 53.515 112.457 53.476 112.511C52.852 113.484 50.955 116.514 50.769 116.746C49.89 117.84 48.042 117.68 49.495 114.341C49.8416 113.575 50.1421 112.789 50.395 111.989C50.4138 111.916 50.4076 111.839 50.3772 111.77C50.3469 111.701 50.2941 111.645 50.2273 111.609C50.1605 111.573 50.0834 111.559 50.0082 111.571C49.933 111.583 49.864 111.62 49.812 111.674C48.4311 113.003 46.8112 114.067 45.035 114.812C44.713 114.962 43.867 115.335 43.708 114.759C43.601 114.341 44.026 113.819 44.345 113.504C45.2498 112.79 46.2078 112.143 47.211 111.57C49.776 109.886 48.598 111.818 48.166 106.708C50.6417 106.645 53.1188 106.765 55.576 107.069C56.0998 108.35 57.0767 109.399 58.326 110.024C58.063 111.609 57.766 113.324 57.454 114.912H57.457ZM82.909 129.665H65.4C65.4 126.58 65.294 111.941 65.294 111.941C65.2991 111.865 65.2743 111.79 65.2248 111.732C65.1752 111.674 65.1047 111.637 65.028 111.628C62.7496 111.145 60.5396 110.39 58.447 109.379C57.5718 108.97 56.8748 108.265 56.483 107.393C55.7622 106.045 55.4827 104.511 55.683 103.001C58.459 101.47 63.083 100.707 66.22 100.281C67.8 100.203 69.381 100.226 70.959 100.3C73.987 100.442 78.017 100.91 80.036 103.124C84.353 107.848 82.909 124.872 82.909 129.665ZM95.657 129.665H83.605C83.761 122.975 84.667 108.535 80.998 103.28C78.913 100.38 74.805 99.9312 71.298 99.6406C75.1108 99.0889 78.9704 98.9187 82.818 99.1323C85.2343 99.1137 87.6194 99.6695 89.771 100.753C90.9815 101.388 92.033 102.281 92.849 103.367C96.511 107.882 95.657 125.054 95.657 129.665V129.665Z"></path><path id="vector_87" fill="#000000" d="M80.53 80.6242C80.904 80.9355 81.279 81.2448 81.645 81.5107C82.7 82.2849 83.183 82.9754 83.45 82.7124C84.6929 81.9057 85.8638 80.9962 86.95 79.9938C87.0794 79.7964 87.1633 79.5735 87.1956 79.3406C87.2279 79.1078 87.2079 78.8709 87.1371 78.6465C87.0662 78.4222 86.9461 78.2159 86.7854 78.0422C86.6247 77.8686 86.4273 77.7318 86.207 77.6416C85.7129 77.5314 85.198 77.5506 84.7138 77.6973C84.2296 77.844 83.7928 78.1132 83.447 78.4779C82.998 78.0213 82.4548 77.6649 81.854 77.4328C81.4961 77.2981 81.1069 77.2659 80.7313 77.3398C80.3556 77.4137 80.0089 77.5907 79.731 77.8504C79.5271 78.1175 79.404 78.436 79.3758 78.769C79.3477 79.1021 79.4157 79.4362 79.572 79.7328C79.8265 80.091 80.1525 80.3943 80.53 80.6242ZM80.212 78.4286C80.3361 78.2874 80.4916 78.1763 80.6665 78.1041C80.8413 78.0318 81.0307 78.0003 81.22 78.012C81.9849 78.1732 82.675 78.5774 83.184 79.1625C83.2474 79.2249 83.3333 79.26 83.423 79.26C83.5126 79.26 83.5986 79.2249 83.662 79.1625C83.924 78.8374 84.2671 78.5849 84.6577 78.4295C85.0484 78.2742 85.4733 78.2212 85.891 78.276C86.511 78.4582 86.61 79.1625 86.316 79.7397C85.3885 80.5671 84.3942 81.3188 83.343 81.9874C83.025 81.7264 81.49 80.4666 81.061 80.1061C80.746 79.8401 80.318 79.6353 80.161 79.2688C80.102 79.1347 80.0758 78.9887 80.0847 78.8427C80.0936 78.6968 80.1372 78.5549 80.212 78.4286V78.4286Z"></path><path id="vector_88" fill="#000000" d="M171.294 143.886C171.344 144.304 172.037 144.357 171.984 143.886C171.931 142.735 171.35 133.952 171.294 133.481C171.244 133.063 170.551 133.011 170.604 133.481C170.632 134.097 171.233 143.38 171.294 143.886Z"></path><path id="vector_89" fill="#000000" d="M173.789 143.99C175.089 140.496 176.363 136.923 177.663 133.429C177.819 133.009 177.132 132.854 176.973 133.22C175.699 136.723 174.373 140.278 173.099 143.781C173.079 143.869 173.093 143.961 173.139 144.038C173.185 144.116 173.259 144.174 173.346 144.2C173.433 144.227 173.527 144.22 173.609 144.181C173.691 144.142 173.756 144.074 173.789 143.99V143.99Z"></path><path id="vector_90" fill="#000000" d="M175.169 143.938C175.11 144.001 175.079 144.084 175.081 144.17C175.082 144.256 175.118 144.337 175.179 144.398C175.241 144.458 175.323 144.493 175.41 144.496C175.497 144.498 175.582 144.467 175.646 144.409C176.483 143.611 182.706 137.612 183.024 137.298C183.087 137.236 183.122 137.151 183.122 137.063C183.122 136.975 183.086 136.891 183.023 136.828C182.96 136.766 182.874 136.731 182.785 136.731C182.695 136.731 182.61 136.765 182.546 136.827C175.211 143.824 175.487 143.676 175.169 143.938Z"></path><path id="vector_91" fill="#000000" d="M161.156 172.327H141.676C141.584 172.327 141.497 172.362 141.432 172.426C141.367 172.49 141.331 172.576 141.331 172.666C141.331 172.757 141.367 172.843 141.432 172.907C141.497 172.97 141.584 173.006 141.676 173.006H161.156C161.243 173 161.324 172.961 161.383 172.898C161.443 172.835 161.476 172.752 161.476 172.666C161.476 172.581 161.443 172.498 161.383 172.435C161.324 172.372 161.243 172.333 161.156 172.327Z"></path><path id="vector_92" fill="#000000" d="M175.806 151.571C175.485 151.571 175.546 151.625 174.266 153.767C174.086 154.063 163.385 172.352 163.385 172.482C163.36 172.537 163.35 172.597 163.353 172.656C163.357 172.716 163.376 172.774 163.407 172.825C163.438 172.876 163.481 172.919 163.533 172.95C163.585 172.982 163.643 173 163.704 173.004H182.704C183.133 172.582 194.965 152.179 194.965 152.092C194.989 152.037 195 151.977 194.997 151.918C194.993 151.858 194.974 151.8 194.943 151.749C194.912 151.698 194.869 151.655 194.817 151.623C194.765 151.592 194.707 151.573 194.646 151.569L175.806 151.571ZM193.958 152.303C193.695 152.736 182.637 171.669 182.281 172.327H164.288C164.594 171.824 173.823 155.993 174.588 154.656C175.75 152.613 175.848 152.643 176.021 152.303H193.958Z"></path><path id="vector_93" fill="#000000" d="M176.92 164.327H181.326C181.378 164.331 181.431 164.321 181.479 164.299C181.526 164.278 181.568 164.245 181.599 164.203C181.631 164.162 181.652 164.113 181.659 164.062C181.667 164.011 181.662 163.959 181.644 163.91C181.432 162.812 181.278 161.713 181.06 160.616C181.042 160.559 181.01 160.508 180.966 160.467C180.923 160.426 180.869 160.396 180.811 160.381C180.753 160.365 180.692 160.364 180.633 160.378C180.575 160.392 180.521 160.42 180.476 160.459C179.362 161.4 176.655 163.753 176.655 163.753C176.612 163.804 176.584 163.865 176.575 163.931C176.566 163.996 176.576 164.063 176.604 164.123C176.632 164.183 176.676 164.234 176.732 164.27C176.788 164.306 176.853 164.326 176.92 164.327V164.327ZM180.476 161.296C180.636 162.084 180.742 162.812 180.901 163.596H177.876C178.725 162.864 179.627 162.08 180.476 161.296Z"></path><path id="vector_94" fill="#000000" d="M101.655 83.9702V87.2118C101.655 87.302 101.691 87.3884 101.756 87.4521C101.821 87.5159 101.909 87.5517 102 87.5517C102.091 87.5517 102.179 87.5159 102.244 87.4521C102.309 87.3884 102.345 87.302 102.345 87.2118V83.9702C102.338 83.8845 102.299 83.8045 102.235 83.7461C102.171 83.6877 102.087 83.6553 102 83.6553C101.913 83.6553 101.829 83.6877 101.765 83.7461C101.701 83.8045 101.662 83.8845 101.655 83.9702Z"></path><path id="vector_95" fill="#000000" d="M127.5 87.2118V83.9702C127.5 83.8801 127.464 83.7936 127.399 83.7299C127.334 83.6662 127.247 83.6304 127.155 83.6304C127.064 83.6304 126.976 83.6662 126.911 83.7299C126.846 83.7936 126.81 83.8801 126.81 83.9702V87.2118C126.761 87.6827 127.5 87.6827 127.5 87.2118Z"></path><path id="vector_96" fill="#000000" d="M102.611 77.6446C102.611 77.7347 102.647 77.8211 102.712 77.8849C102.777 77.9486 102.864 77.9844 102.956 77.9844C103.047 77.9844 103.135 77.9486 103.2 77.8849C103.265 77.8211 103.301 77.7347 103.301 77.6446C103.301 68.4841 110.801 61.6876 118.64 64.2082C124.14 65.9753 127.398 72.0882 127.398 77.749C127.398 77.8391 127.434 77.9255 127.499 77.9893C127.564 78.053 127.651 78.0888 127.743 78.0888C127.834 78.0888 127.922 78.053 127.987 77.9893C128.052 77.9255 128.088 77.8391 128.088 77.749C128.088 71.768 124.877 66.126 119.755 63.9984C117.66 63.1098 115.34 62.8694 113.103 63.3092C110.866 63.749 108.817 64.8481 107.229 66.4609C105.121 68.0132 102.611 72.6605 102.611 77.6446Z"></path><path id="vector_97" fill="#000000" d="M140.721 93.4863C140.721 96.9003 139.421 101.291 136.421 103.001C132.544 105.212 127.721 101.021 127.721 93.4331C127.721 93.343 127.685 93.2565 127.62 93.1928C127.555 93.1291 127.468 93.0933 127.376 93.0933C127.285 93.0933 127.197 93.1291 127.132 93.1928C127.067 93.2565 127.031 93.343 127.031 93.4331C127.031 97.1633 128.431 101.726 131.702 103.579C136.002 106.009 141.415 101.63 141.415 93.4882C141.415 93.4434 141.406 93.3989 141.389 93.3574C141.372 93.3158 141.346 93.2781 141.314 93.2463C141.282 93.2144 141.244 93.1892 141.202 93.1719C141.16 93.1546 141.115 93.1456 141.069 93.1455C141.023 93.1453 140.978 93.1541 140.936 93.1711C140.894 93.1882 140.856 93.2132 140.823 93.2449C140.791 93.2765 140.765 93.3141 140.748 93.3555C140.73 93.397 140.721 93.4414 140.721 93.4863Z"></path><path id="vector_98" fill="#000000" d="M143.852 89.5129C143.854 88.9407 143.676 88.382 143.342 87.9133C143.009 87.4445 142.537 87.0886 141.991 86.8941C141.445 86.6997 140.851 86.6762 140.29 86.827C139.73 86.9777 139.231 87.2953 138.86 87.7362C138.49 88.1772 138.267 88.72 138.222 89.2905C138.177 89.861 138.312 90.4312 138.609 90.9232C138.906 91.4152 139.349 91.8049 139.879 92.0391C140.409 92.2733 141 92.3405 141.57 92.2315C142.205 92.0963 142.775 91.7547 143.189 91.2616C143.603 90.7685 143.837 90.1525 143.852 89.5129V89.5129ZM139.341 90.817C139.056 90.473 138.888 90.0488 138.862 89.6053C138.836 89.1618 138.954 88.7216 139.197 88.3476C139.441 87.9737 139.798 87.6852 140.218 87.5234C140.638 87.3616 141.099 87.3348 141.536 87.4468C141.972 87.5588 142.362 87.8039 142.648 88.147C142.935 88.4902 143.104 88.9137 143.131 89.3572C143.158 89.8006 143.042 90.2412 142.8 90.6159C142.558 90.9906 142.201 91.2803 141.782 91.4435C141.36 91.605 140.897 91.6315 140.459 91.519C140.02 91.4065 139.629 91.1609 139.341 90.817V90.817Z"></path><path id="vector_99" fill="#000000" d="M115.933 86.8986C115.662 86.5361 115.033 86.8986 115.349 87.264C115.669 87.665 116.076 87.991 116.54 88.2183C117.004 88.4457 117.513 88.5688 118.031 88.5788C118.549 88.5888 119.063 88.4854 119.535 88.2761C120.008 88.0668 120.427 87.7568 120.763 87.3684C121.037 87.0089 120.551 86.5322 120.286 86.8986C120.013 87.2023 119.678 87.4456 119.303 87.6121C118.928 87.7787 118.521 87.8649 118.109 87.8649C117.698 87.8649 117.291 87.7787 116.916 87.6121C116.541 87.4456 116.206 87.2023 115.933 86.8986V86.8986Z"></path><path id="vector_100" fill="#000000" d="M170.6 153.66C170.249 153.122 169.776 152.671 169.218 152.342C168.513 148.136 167.472 143.991 166.106 139.946C162.506 129.012 156.197 115.574 145.512 111.085C141.481 109.487 137.343 108.165 133.127 107.129C129.083 106.127 124.981 105.374 120.842 104.875C120.929 104.64 120.991 104.396 121.025 104.148C121.104 102.666 120.694 101.199 119.857 99.9656C119.713 99.6262 119.638 99.2619 119.638 98.894C119.638 98.526 119.713 98.1617 119.857 97.8223C120.857 95.6917 122.951 95.216 123.377 90.2989C123.625 89.9741 123.843 89.6287 124.03 89.2666C125.773 92.8254 128.93 92.8628 130.738 89.6665C131.333 88.4294 131.66 87.0835 131.696 85.7151C131.733 84.3466 131.478 82.9856 130.95 81.7195C130.082 79.7958 128.358 78.3597 126.386 79.2097C125.334 79.8154 124.519 80.7521 124.072 81.8692C123.127 80.1025 121.549 78.7452 119.645 78.0612C119.518 78.0071 119.383 77.9722 119.245 77.9578C118.302 76.8165 117.079 75.9308 115.692 75.3844C114.305 74.8381 112.799 74.649 111.317 74.8352C109.835 75.0213 108.426 75.5765 107.222 76.4482C106.018 77.32 105.06 78.4796 104.438 79.8175L103.831 79.3683C103.424 79.1589 102.975 79.0409 102.516 79.0229C102.057 79.0048 101.6 79.0871 101.177 79.2639C98.836 80.3474 97.142 84.8784 98.788 88.9366C99.507 90.7096 100.972 92.3053 102.751 92.0236C100.66 95.3657 96.87 94.1009 95.02 96.988C93.656 99.4062 95.601 100.11 95.869 101.693C95.9528 101.994 95.9673 102.309 95.9112 102.616C95.8551 102.923 95.73 103.213 95.545 103.466C94.9801 103.455 94.415 103.473 93.852 103.52C93.958 103.728 94.117 103.989 94.223 104.199C101.504 104.008 108.791 104.271 116.038 104.987C121.195 105.517 126.316 106.337 131.378 107.444C135.628 108.392 139.801 109.646 143.865 111.195C147.805 119.826 149.656 136.662 149.814 146.011C149.814 146.323 149.83 146.792 149.868 147.15C123.938 141.905 107.204 143.337 82.777 154.433C80.868 154.389 50.843 154.408 50.734 154.421C50.734 153.062 51.071 120.346 51.124 117.366C50.9218 117.522 50.6856 117.629 50.434 117.68C50.381 120.032 50.062 145.61 50.009 149.374C50.009 152.934 49.909 153.878 49.902 154.488C3.182 154.488 6.696 154.462 5.795 154.55C5.895 145.445 10.075 136.519 15.615 129.35C20.099 123.498 23.751 120.75 27.239 118.737C32.574 115.782 41.044 112.925 46.976 111.116C47.4109 110.836 47.8598 110.578 48.321 110.343L48.258 110.058C48.158 110.092 33.164 114.451 26.973 118.109C25.5857 118.821 24.2707 119.661 23.046 120.619C16.9533 125.65 12.076 131.955 8.769 139.076C6.41021 144.023 5.12646 149.401 5 154.865C5.053 155.127 5.212 155.309 5.372 155.309H81.007C73.275 158.883 61.675 164.743 51.734 170.662C50.934 171.133 50.169 171.699 49.373 172.17C49.3144 172.21 49.2696 172.267 49.2446 172.333C49.2195 172.398 49.2154 172.47 49.2328 172.538C49.2501 172.606 49.2882 172.668 49.3418 172.714C49.3955 172.76 49.4621 172.789 49.533 172.798C94.1 172.798 103.091 172.844 104.991 172.766C105.625 172.74 105.47 172.701 105.583 172.641C108.549 170.81 111.386 168.783 114.076 166.576C116.581 164.619 124.276 158.349 124.376 158.263C137.891 167.415 140.076 169.454 143.112 170.083C143.682 170.23 144.276 170.264 144.86 170.183C145.444 170.102 146.005 169.908 146.512 169.612C148.476 168.201 147.149 165.377 146.459 163.652C145.651 161.32 144.564 159.091 143.222 157.012C150.594 160.43 155.558 162.865 159.782 163.757C161.958 164.227 166.311 164.644 166.364 161.352C166.364 158.936 164.164 157.988 162.864 156.96C164.549 157.375 167.764 157.945 169.446 157.222C169.784 157.09 170.088 156.887 170.336 156.625C170.584 156.364 170.77 156.051 170.881 155.711C170.991 155.37 171.024 155.009 170.975 154.654C170.926 154.299 170.798 153.96 170.6 153.66V153.66ZM124.45 82.6769C124.604 81.815 126.15 79.1358 128.19 79.7859C129.081 80.1731 129.785 80.8852 130.154 81.7727C132.434 86.5667 129.533 92.6353 126.598 91.079C125.581 90.4508 124.817 89.495 124.435 88.3742C125.187 86.5493 125.194 84.5086 124.454 82.6789L124.45 82.6769ZM124.156 84.3869C124.348 85.5401 124.255 86.722 123.885 87.8321C123.514 88.9423 122.876 89.9478 122.027 90.7633C121.177 91.5788 120.14 92.1801 119.003 92.5161C117.867 92.8521 116.665 92.9129 115.5 92.6932C114.334 92.4736 113.24 91.9801 112.31 91.2546C111.38 90.5291 110.641 89.5931 110.157 88.5262C109.673 87.4593 109.457 86.293 109.529 85.1264C109.601 83.9599 109.957 82.8276 110.568 81.8259C111.363 80.5573 112.528 79.5544 113.91 78.9481C115.293 78.3419 116.829 78.1605 118.318 78.4276C119.795 78.7116 121.147 79.4358 122.192 80.502C123.237 81.5683 123.924 82.9252 124.16 84.3889L124.156 84.3869ZM101.439 91.079C99.667 90.2644 97.969 86.4899 99.369 82.4523C99.9 80.9886 101.227 79.1585 103.031 79.7337C103.913 80.1613 104.611 80.885 105 81.7747C105.499 82.8915 105.771 84.0943 105.798 85.3143C105.826 86.5344 105.609 87.7479 105.16 88.8854C104.479 90.5215 102.986 91.9005 101.443 91.0809L101.439 91.079ZM120.148 104.77C113.392 103.998 106.601 103.565 99.8 103.471H96.4C96.7008 102.679 96.7008 101.807 96.4 101.015C95.981 99.8809 95.022 99.2771 95.285 97.9819C95.856 96.1104 98.165 95.5499 99.425 95.1066C101.359 94.427 102.611 93.8449 103.725 91.6907C106.725 90.089 107.625 83.7516 104.97 80.3769C105.412 79.3452 106.068 78.4155 106.894 77.6469C107.721 76.8782 108.702 76.2876 109.773 75.9126C110.844 75.5375 111.983 75.3862 113.117 75.4684C114.251 75.5505 115.355 75.8643 116.359 76.3897C116.976 76.7542 117.545 77.1929 118.053 77.6958C116.686 77.497 115.29 77.6475 113.999 78.1328C112.708 78.6182 111.565 79.4221 110.68 80.4676C109.633 81.742 109.006 83.301 108.882 84.9361C108.759 86.5712 109.145 88.2044 109.99 89.6172C110.621 90.648 111.481 91.5244 112.505 92.1806C113.529 92.8368 114.691 93.2557 115.903 93.4057C117.116 93.5557 118.347 93.4329 119.504 93.0466C120.661 92.6603 121.714 92.0206 122.584 91.1755C122.331 94.82 119.903 95.6573 119.172 97.8252C118.463 99.9262 120.157 101.149 120.34 102.947C120.37 103.563 120.307 104.179 120.152 104.776L120.148 104.77ZM144.769 111.5C157.588 116.511 164.889 135.648 167.805 148.777C168.01 149.787 168.215 150.913 168.42 151.929C165.735 150.632 153.706 148.017 150.575 147.3C150.212 136.687 148.82 121.368 144.773 111.502L144.769 111.5ZM169.963 155.957C169.163 157.055 167.256 156.898 166.088 156.793C164.345 156.654 162.632 156.268 161 155.649C160.628 155.492 160.416 156.067 160.734 156.276C162.183 157.168 163.551 158.183 164.821 159.309C165.985 160.455 166.008 162.362 164.556 163.074C160.349 164.997 148.167 158.384 142.369 155.806C142.298 155.763 142.213 155.747 142.131 155.762C142.049 155.776 141.975 155.819 141.923 155.883C141.871 155.947 141.844 156.028 141.848 156.11C141.853 156.192 141.887 156.269 141.945 156.328C143.429 158.27 144.608 160.421 145.445 162.707C145.869 163.805 146.345 164.903 146.666 166.001C147.528 169.06 145.648 170.017 142.526 169.138C141.37 168.738 140.279 168.174 139.288 167.464C137.005 165.948 127.239 159.308 124.638 157.478C124.58 157.452 124.516 157.439 124.452 157.439C124.389 157.439 124.325 157.452 124.267 157.478L105.158 172.012H51.158C64.4156 164.083 78.2662 157.157 92.59 151.296C105.134 146.245 118.716 144.194 132.22 145.312C143.203 146.408 154.072 148.424 164.707 151.339C167.385 152.059 171.56 153.721 169.967 155.963L169.963 155.957Z"></path><path id="vector_101" fill="#000000" d="M157.334 153.453C156.06 152.982 146.397 149.436 145.923 149.271C145.495 149.122 145.335 149.802 145.71 149.95C146.973 150.45 156.647 153.967 157.122 154.133C157.55 154.282 157.759 153.61 157.334 153.453Z"></path><path id="vector_102" fill="#000000" d="M134.3 150.003C133.929 149.742 133.61 150.316 133.929 150.578C134.029 150.651 139.158 154.312 140.192 155.127C140.564 155.388 140.892 154.806 140.564 154.551C139.231 153.505 134.831 150.422 134.3 150.003Z"></path><path id="vector_103" fill="#000000" d="M94.861 39.269C95.971 38.7361 97.038 38.2239 98.152 37.753C98.577 37.5442 98.207 36.9729 97.781 37.1778C96.671 37.7117 95.604 38.2239 94.49 38.6947C94.065 38.9075 94.435 39.4748 94.861 39.269Z"></path><path id="vector_104" fill="#000000" d="M98.789 40.2628H94.861C94.8157 40.2628 94.7708 40.2716 94.729 40.2887C94.6871 40.3058 94.6491 40.3308 94.617 40.3623C94.585 40.3939 94.5596 40.4314 94.5423 40.4726C94.5249 40.5138 94.516 40.558 94.516 40.6026C94.516 40.6473 94.5249 40.6915 94.5423 40.7327C94.5596 40.7739 94.585 40.8114 94.617 40.8429C94.6491 40.8745 94.6871 40.8995 94.729 40.9166C94.7708 40.9337 94.8157 40.9425 94.861 40.9425H98.789C98.8343 40.9425 98.8792 40.9337 98.921 40.9166C98.9629 40.8995 99.0009 40.8745 99.0329 40.8429C99.065 40.8114 99.0904 40.7739 99.1077 40.7327C99.1251 40.6915 99.134 40.6473 99.134 40.6026C99.134 40.558 99.1251 40.5138 99.1077 40.4726C99.0904 40.4314 99.065 40.3939 99.0329 40.3623C99.0009 40.3308 98.9629 40.3058 98.921 40.2887C98.8792 40.2716 98.8343 40.2628 98.789 40.2628Z"></path><path id="vector_105" fill="#000000" d="M98.152 43.5045C97.052 42.9135 95.981 42.3442 94.861 41.7788C94.439 41.566 94.114 42.1521 94.49 42.354C95.59 42.945 96.666 43.5045 97.781 44.0797C97.8194 44.1047 97.8624 44.122 97.9075 44.1304C97.9527 44.1388 97.9992 44.1383 98.0441 44.1289C98.0891 44.1194 98.1317 44.1012 98.1695 44.0754C98.2072 44.0495 98.2394 44.0165 98.264 43.9783C98.2887 43.9401 98.3053 43.8974 98.3131 43.8527C98.3208 43.8081 98.3194 43.7624 98.3089 43.7182C98.2985 43.6741 98.2793 43.6325 98.2523 43.5958C98.2254 43.5591 98.1913 43.5281 98.152 43.5045V43.5045Z"></path><path id="vector_106" fill="#000000" d="M92.738 43.0337C93.722 41.439 93.038 39.0306 91.995 37.4921C91.726 36.994 91.3063 36.5908 90.794 36.3384C90.2818 36.086 89.7026 35.997 89.1366 36.0836C88.5707 36.1702 88.0462 36.4283 87.6359 36.8219C87.2256 37.2155 86.9499 37.7251 86.847 38.2801C86.693 38.8839 86.947 39.533 86.74 40.0058C86.451 40.8598 84.815 40.5968 84.033 41.4695C83.8321 41.7144 83.6975 42.0055 83.6419 42.3156C83.5863 42.6257 83.6114 42.9446 83.715 43.2425C84.586 45.769 90.938 45.9522 92.738 43.0337ZM84.405 41.9886C84.782 41.2449 86.424 41.3365 87.059 40.6815C87.603 40.1191 87.438 39.3744 87.483 38.6947C87.497 38.245 87.6604 37.8122 87.9482 37.4628C88.2359 37.1133 88.6321 36.8665 89.076 36.7602C90.976 36.2677 91.93 38.5923 92.314 40.054C92.589 40.7393 92.6005 41.4999 92.3464 42.1929C92.0923 42.8859 91.59 43.4637 90.934 43.8177C88.96 45.0106 85.777 44.6471 84.723 43.6089C84.4997 43.4087 84.3481 43.1428 84.2907 42.8508C84.2334 42.5588 84.2735 42.2563 84.405 41.9886Z"></path><path id="vector_107" fill="#000000" d="M90.35 42.5106C90.775 42.433 91.1618 42.2186 91.4497 41.901C91.7376 41.5834 91.9103 41.1806 91.9406 40.7559C91.971 40.3312 91.8572 39.9085 91.6173 39.5544C91.3774 39.2002 91.0248 38.9346 90.615 38.7991C90.3293 38.697 90.0235 38.6616 89.7215 38.6957C89.4196 38.7298 89.1298 38.8324 88.8749 38.9955C88.6201 39.1586 88.4071 39.3778 88.2529 39.6357C88.0986 39.8936 88.0072 40.1833 87.9859 40.4819C87.9646 40.7806 88.0139 41.08 88.13 41.3566C88.2461 41.6333 88.4258 41.8796 88.6549 42.0763C88.8841 42.2729 89.1565 42.4145 89.4506 42.4899C89.7447 42.5652 90.0526 42.5723 90.35 42.5106ZM89.978 39.3222C90.2298 39.323 90.4758 39.3972 90.6848 39.5356C90.8938 39.674 91.0565 39.8704 91.1523 40.0998C91.248 40.3292 91.2726 40.5815 91.223 40.8246C91.1733 41.0678 91.0515 41.2911 90.8731 41.4661C90.6947 41.6412 90.4676 41.7602 90.2205 41.8082C89.9734 41.8562 89.7174 41.831 89.4849 41.7358C89.2523 41.6405 89.0536 41.4795 88.914 41.2731C88.7743 41.0667 88.6998 40.8241 88.7 40.5761C88.7047 40.2441 88.841 39.9271 89.0798 39.6928C89.3186 39.4585 89.641 39.3255 89.978 39.3222V39.3222Z"></path><path id="vector_108" fill="#000000" d="M139.116 55.0063C138.574 53.7613 137.56 52.7744 136.289 52.2562C136.733 51.9559 137.106 51.5652 137.383 51.1106C137.66 50.6561 137.834 50.1482 137.895 49.6213C137.895 49.5312 137.859 49.4448 137.794 49.381C137.729 49.3173 137.642 49.2815 137.55 49.2815C137.459 49.2815 137.371 49.3173 137.306 49.381C137.241 49.4448 137.205 49.5312 137.205 49.6213C137.136 50.1041 136.955 50.5648 136.676 50.9674C136.397 51.3701 136.027 51.7039 135.596 51.943C135.255 51.9784 134.987 52.4355 135.583 52.7122C136.824 53.1533 137.843 54.0508 138.426 55.2161C138.44 55.2607 138.463 55.3022 138.493 55.3382C138.523 55.3741 138.56 55.4039 138.602 55.4257C138.644 55.4475 138.69 55.461 138.737 55.4653C138.785 55.4697 138.832 55.4648 138.878 55.451C138.923 55.4373 138.965 55.4148 139.001 55.385C139.038 55.3552 139.068 55.3186 139.09 55.2773C139.112 55.236 139.126 55.1908 139.131 55.1443C139.135 55.0978 139.13 55.0509 139.116 55.0063V55.0063Z"></path><path id="vector_109" fill="#000000" d="M145.963 51.1894C145.412 51.151 143.6 51.0003 143.097 50.8762L145.008 49.7779C147.016 48.46 145.861 46.7087 144.108 47.3214C143.249 47.6864 142.361 47.9828 141.454 48.2079C140.685 48.4659 139.861 48.52 139.065 48.3645C137.75 47.8464 139.738 45.5681 138.906 44.391C138.738 44.1706 138.505 44.0071 138.239 43.9229C137.973 43.8387 137.687 43.8381 137.42 43.9211C136.768 44.1349 136.639 44.4924 135.774 45.8557C135.403 46.4299 134.974 46.953 134.554 47.5302C128.285 48.2933 121.947 48.3283 115.67 47.6346C107.988 46.8032 99.831 44.3575 92.15 45.2794C86.75 45.9266 81.155 48.6186 78.356 53.386C75.999 57.3408 76.456 62.1968 76.339 64.3126C76.286 65.1006 75.919 70.8619 75.755 73.0436C76.0294 73.1412 76.3143 73.2073 76.604 73.2406C76.621 73.0525 77.241 65.3951 77.241 62.7396C77.0802 59.9704 77.5518 57.2009 78.621 54.635C80.421 50.9107 84.449 47.4721 90.67 46.2704C91.05 47.8592 91.753 50.4143 93.27 49.773C94.47 49.2992 93.97 47.0909 93.645 45.8478C104.018 45.0598 109.979 49.0717 128.089 48.6757V57.6678C123.824 57.9791 112.154 58.8183 107.589 58.8183C107.54 58.8172 107.492 58.8259 107.447 58.8439C107.401 58.862 107.36 58.889 107.326 58.9232C107.292 58.9574 107.265 58.9982 107.248 59.043C107.23 59.0878 107.222 59.1357 107.224 59.1837V75.0826C104.929 75.0826 102.679 75.1348 91.732 75.1348C91.8923 75.3493 92.0342 75.5766 92.156 75.8145L107.231 75.7622V76.9866C107.443 76.83 107.702 76.6734 107.914 76.5158V59.5551C115.845 59.4743 134.605 57.85 143.63 57.1497C144.43 57.0886 145.772 57.1014 145.965 56.1568C145.985 55.8844 145.913 55.6131 145.759 55.3858C145.605 55.1585 145.379 54.9882 145.116 54.9019C144.532 54.6931 143.842 54.5365 143.258 54.3267C143.258 54.3267 145.284 53.8489 145.488 53.8036C145.919 53.7238 146.344 53.6192 146.762 53.4904C147.956 52.9664 147.824 51.3431 145.963 51.1894ZM93.216 48.7329C93.11 49.0983 92.844 49.3071 92.579 48.9939C91.9836 48.1297 91.5852 47.1489 91.411 46.1187C91.942 46.0143 92.42 45.9611 92.897 45.9089C93.1801 46.8226 93.2883 47.7802 93.216 48.7329ZM146.916 52.3921C146.863 52.8108 146.226 52.9152 145.854 52.9674C144.719 53.2254 143.054 53.6106 142.245 53.6992C141.873 53.7514 141.767 54.1179 142.086 54.3267C143.474 55.2742 145.377 55.162 145.377 55.8426C145.377 56.2898 143.877 56.3587 128.922 57.4639C128.806 54.6606 128.816 51.6751 128.816 48.6807C130.87 48.5743 131.359 48.5359 133.381 48.3142C133.514 48.2817 134.628 48.1379 134.761 48.1054C134.973 48.001 135.185 47.5824 135.345 47.4258C135.61 47.1115 135.831 46.753 136.088 46.4319C136.977 45.3248 136.997 44.6589 137.68 44.5505C139.88 44.5505 135.396 49.4943 140.28 49.1505C143.461 48.7033 144.046 47.9488 144.898 47.9488C145.429 47.9488 145.535 48.4186 145.216 48.7851C144.804 49.1866 144.318 49.506 143.783 49.7257C143.199 50.04 142.609 50.3936 142.032 50.7196C141.972 50.7546 141.924 50.8067 141.894 50.8691C141.865 50.9315 141.855 51.0012 141.866 51.0692C141.878 51.1371 141.91 51.2 141.958 51.2496C142.007 51.2992 142.07 51.3332 142.138 51.347C143.429 51.6379 144.743 51.8127 146.066 51.8691C146.388 51.8691 146.972 52.0267 146.919 52.3921H146.916Z"></path><path id="vector_110" fill="#000000" d="M112.488 52.5438H112.7C112.848 52.5484 112.996 52.5229 113.133 52.4688C113.271 52.4148 113.396 52.3333 113.5 52.2296C114.744 51.0043 111.19 47.2258 106.812 47.7341C104.631 48.1172 102.564 48.9742 100.761 50.2428C96.14 53.1604 93.616 56.4208 92.332 59.5826C90.2182 56.1936 87.5397 53.1796 84.409 50.6674C84.037 50.4054 83.56 50.8762 83.931 51.1372C86.4858 53.0717 88.7134 55.3925 90.531 58.0135C91.062 58.8508 91.593 59.6348 92.07 60.5233C92.1094 60.5767 92.1632 60.6182 92.2252 60.6433C92.2872 60.6683 92.3551 60.6758 92.4213 60.665C92.4874 60.6541 92.5491 60.6254 92.5996 60.5819C92.6501 60.5384 92.6873 60.482 92.707 60.4189C93.3651 58.7309 94.2751 57.149 95.407 55.7254C98.446 59.3423 101.256 63.4655 102.122 64.5322C94.131 73.6356 85.776 70.7496 77.886 61.7506C77.8552 61.7174 77.8178 61.6907 77.7762 61.6721C77.7346 61.6535 77.6896 61.6434 77.6439 61.6424C77.5982 61.6414 77.5528 61.6495 77.5104 61.6663C77.468 61.6831 77.4295 61.7082 77.3973 61.74C77.365 61.7719 77.3396 61.8099 77.3227 61.8517C77.3057 61.8935 77.2975 61.9382 77.2986 61.9832C77.2997 62.0282 77.3101 62.0725 77.329 62.1135C77.348 62.1544 77.3752 62.1911 77.409 62.2214C80.478 65.7625 84.767 69.5725 89.409 70.5338C97.609 72.3581 104.309 64.5982 107.46 56.9871C108.929 57.6451 110.034 58.4558 111.016 58.2942C111.328 58.1975 111.591 57.9861 111.749 57.7038C111.907 57.4216 111.949 57.0902 111.866 56.7783C111.672 55.7785 110.833 55.2634 109.902 54.5306C110.679 54.9586 111.559 55.1752 112.449 55.158C113.531 55.0388 114.175 54.0341 113.086 52.9614C112.9 52.8047 112.7 52.6649 112.488 52.5438V52.5438ZM112.806 54.2183C112.647 54.5325 112.116 54.5325 111.798 54.5325C110.573 54.2401 109.396 53.7827 108.298 53.1732C108.033 53.0156 107.598 53.3338 107.821 53.6431C108.752 54.961 110.25 55.6209 110.793 56.4671C110.993 56.7852 111.269 57.5506 110.687 57.6688C110.154 57.6696 109.634 57.5053 109.201 57.1989C108.511 56.8847 107.874 56.5193 107.184 56.2051C107.093 56.188 106.998 56.2055 106.919 56.254C106.841 56.3026 106.783 56.3787 106.759 56.4671C105.729 59.1909 104.26 61.7331 102.407 63.9954C100.337 61.1202 98.214 58.1396 95.878 55.3688C98.098 52.8009 102.166 49.6981 105.326 48.8333C106.149 48.5335 107.025 48.4021 107.901 48.4472C108.777 48.4922 109.634 48.7128 110.421 49.0953C111.131 49.4391 111.777 49.8987 112.332 50.4546C112.545 50.7156 113.5 51.8139 112.704 51.9183C111.868 52.0828 110.078 50.498 108.617 50.4014C108.245 50.3492 108.139 50.8723 108.458 51.0289C110.046 51.9233 110.104 52.0424 111.858 53.121C112.487 53.5337 112.35 53.3968 112.495 53.5387C112.7 53.6933 112.965 54.0075 112.806 54.2163V54.2183Z"></path><path id="vector_111" fill="#000000" d="M122.25 27.1397C121.078 25.7996 119.536 24.8242 117.811 24.3322C116.086 23.8402 114.254 23.853 112.536 24.3689C110.601 24.9473 108.865 26.0383 107.517 27.5229C106.169 29.0074 105.261 30.8284 104.893 32.7867C104.84 33.2565 104.787 33.6732 104.734 34.146C103.513 35.1389 102.247 36.1416 101.018 37.1256C100.755 37.3374 101.018 37.7009 101.284 37.7009C102.717 37.8575 104.15 38.0673 105.584 38.2239C108.948 45.7355 119.829 44.9721 123.365 37.2822C124.145 35.6543 124.453 33.846 124.257 32.0564C124.06 30.2668 123.366 28.5654 122.25 27.1397V27.1397ZM123.205 35.7663C122.679 37.4377 121.723 38.9466 120.431 40.1467C119.138 41.3467 117.552 42.197 115.827 42.615C114.159 43.0298 112.401 42.9258 110.795 42.3173C109.189 41.7089 107.813 40.6258 106.857 39.2168C105.902 37.7334 106.32 37.8033 105.848 37.6487L102.186 37.1778C103.248 36.3416 104.309 35.4531 105.424 34.6168C105.459 34.583 105.487 34.5422 105.506 34.497C105.524 34.4519 105.532 34.4034 105.53 34.3548C105.59 32.457 106.195 30.6149 107.275 29.0419C108.354 27.4689 109.865 26.2294 111.63 25.4672C113.133 24.7969 114.798 24.5591 116.432 24.7811C118.066 25.0032 119.603 25.676 120.866 26.722C122.08 27.8604 122.943 29.3129 123.357 30.9126C123.771 32.5124 123.718 34.1947 123.205 35.7663V35.7663Z"></path><path id="vector_112" fill="#000000" d="M114.553 35.6097C114.553 35.6998 114.589 35.7863 114.654 35.85C114.719 35.9137 114.807 35.9495 114.898 35.9495C114.99 35.9495 115.077 35.9137 115.142 35.85C115.207 35.7863 115.243 35.6998 115.243 35.6097C115.243 33.6229 115.19 29.1264 115.19 28.8654C115.19 28.7753 115.154 28.6888 115.089 28.6251C115.024 28.5614 114.937 28.5256 114.845 28.5256C114.754 28.5256 114.666 28.5614 114.601 28.6251C114.536 28.6888 114.5 28.7753 114.5 28.8654C114.5 30.8521 114.553 35.2965 114.553 35.6097Z"></path><path id="vector_113" fill="#000000" d="M114.872 37.4921C114.967 37.4969 115.057 37.5376 115.122 37.6057C115.188 37.6738 115.225 37.7641 115.225 37.858C115.225 37.9519 115.188 38.0422 115.122 38.1103C115.057 38.1784 114.967 38.2191 114.872 38.2239C114.777 38.2191 114.687 38.1784 114.622 38.1103C114.556 38.0422 114.519 37.9519 114.519 37.858C114.519 37.7641 114.556 37.6738 114.622 37.6057C114.687 37.5376 114.777 37.4969 114.872 37.4921V37.4921Z"></path></g></g></g></svg>