<svg width="3000" height="3000" viewBox="0 0 3000 3000" fill="none" xmlns="http://www.w3.org/2000/svg">
<g clip-path="url(#clip0_1393_1377)">
<path d="M3257.87 3162.5H-255.733V1136.56C-270.526 1006.56 -212.926 934.171 -82.9328 919.378C-84.5728 802.531 -26.9728 743.288 89.8672 741.648C112.067 648.648 169.667 613.248 262.667 635.448C437.147 694.728 494.747 811.608 435.467 986.088C563.721 999.141 621.321 1069.79 608.267 1198.05C542.674 1017.25 600.274 894.065 781.067 828.478C804.247 736.465 861.847 702.048 953.867 725.228C1061.05 640.415 1157.05 651.601 1241.87 758.788C1298.7 623.621 1394.7 584.455 1529.87 641.288C1650.95 570.375 1746.95 595.458 1817.87 716.538C1957.51 664.185 2053.51 707.835 2105.87 847.488C2283.78 910.201 2341.38 1030.51 2278.67 1208.43C2253.5 1068.06 2311.1 985.295 2451.47 960.128C2466.72 860.175 2524.32 817.825 2624.27 833.078C2688.55 782.158 2746.15 788.838 2797.07 853.118C2934.13 798.178 3030.13 839.235 3085.07 976.288C3117.61 893.628 3175.21 868.568 3257.87 901.108V3162.5Z" fill="#CAF0F8"/>
</g>
<defs>
<clipPath id="clip0_1393_1377">
<rect width="3000" height="3000" fill="white"/>
</clipPath>
</defs>
</svg>
