<svg width="3456" height="2234" viewBox="0 0 3456 2234" fill="none" xmlns="http://www.w3.org/2000/svg">
<g clip-path="url(#clip0_1375_1717)">
<mask id="mask0_1375_1717" style="mask-type:luminance" maskUnits="userSpaceOnUse" x="0" y="0" width="3456" height="2234">
<path d="M3456 0H0V2234H3456V0Z" fill="white"/>
</mask>
<g mask="url(#mask0_1375_1717)">
<path d="M3513.6 2134H0.00013566V873.21C-14.7932 743.217 42.8068 670.823 172.8 656.03C171.16 539.183 228.76 479.94 345.6 478.3C367.8 385.3 425.4 349.9 518.4 372.1C692.88 431.38 750.48 548.26 691.2 722.74C819.453 735.793 877.053 806.447 864 934.7C798.407 753.907 856.007 630.717 1036.8 565.13C1059.98 473.117 1117.58 438.7 1209.6 461.88C1316.79 377.067 1412.79 388.253 1497.6 495.44C1554.43 360.273 1650.43 321.107 1785.6 377.94C1906.68 307.027 2002.68 332.11 2073.6 453.19C2213.25 400.837 2309.25 444.487 2361.6 584.14C2539.51 646.853 2597.11 767.167 2534.4 945.08C2509.23 804.713 2566.83 721.947 2707.2 696.78C2722.45 596.827 2780.05 554.477 2880 569.73C2944.28 518.81 3001.88 525.49 3052.8 589.77C3189.86 534.83 3285.86 575.887 3340.8 712.94C3373.34 630.28 3430.94 605.22 3513.6 637.76V2134Z" fill="#CAF0F8"/>
<path d="M3513.6 2029.57H0V735.835C247.707 868.342 305.307 1058.45 172.8 1306.15C158.6 1176.75 216.2 1104.95 345.6 1090.75C423.347 976.502 519.347 958.248 633.6 1035.99C718.56 1005.75 776.16 1033.11 806.4 1118.07C821.173 1017.65 878.773 974.818 979.2 989.585C1032.67 927.865 1090.27 923.742 1152 977.215C1259.9 969.908 1317.5 1020.2 1324.8 1128.1C1378.02 989.332 1474.02 946.555 1612.8 999.775C1648.57 920.348 1706.17 898.518 1785.6 934.285C1923.84 880.532 2019.84 922.775 2073.6 1061.01C2110.22 905.642 2206.22 846.265 2361.6 882.885C2365.19 771.272 2422.79 717.262 2534.4 720.855C2582.37 653.622 2639.97 643.992 2707.2 691.965C2784.57 654.125 2842.17 673.888 2880 751.255C3113.33 792.582 3209.33 929.908 3168 1163.23C3153.35 1033.38 3210.95 961.132 3340.8 946.485C3347.85 838.325 3405.45 787.768 3513.6 794.815V2029.57Z" fill="#ADE8F4"/>
<path d="M3456 2050.03H0V1441.32C174.413 1423.73 270.413 1502.14 288 1676.55C379.9 1653.25 437.5 1687.55 460.8 1779.44C486.66 1613.3 582.66 1543.16 748.8 1569.03C728.047 1433.08 785.647 1354.72 921.6 1333.96C929.2 1226.36 986.8 1176.36 1094.4 1183.97C1145.22 1119.59 1202.82 1112.81 1267.2 1163.63C1371.29 1152.52 1428.89 1199 1440 1303.09C1688.59 1359.68 1784.59 1512.28 1728 1760.87C1658.44 1499.31 1728 1264.19 2016 1264.19C2268.5 1333.96 2303.31 1550.82 2188.8 1780.53C2122.18 1521.92 2218.18 1359.3 2476.8 1292.68C2495.59 1196.28 2553.19 1157.48 2649.6 1176.27C2712.63 1124.1 2770.23 1129.52 2822.4 1192.55C2939.97 1194.92 2997.57 1254.88 2995.2 1372.44C3057.05 1319.09 3114.65 1323.33 3168 1385.18C3215.65 1240.83 3311.65 1192.47 3456 1240.12V2050.03Z" fill="#90E0EF"/>
<path d="M3513.6 2242H0V1988.31C98.48 1894.79 194.48 1897.27 288 1995.75C334.327 1850.08 430.327 1800.4 576 1846.73C574.733 1730.26 632.333 1671.39 748.8 1670.12C803.78 1533.1 899.78 1492.08 1036.8 1547.07C1178.21 1496.48 1274.21 1541.9 1324.8 1683.31C1471.34 1637.85 1567.34 1688.39 1612.8 1834.93C1635.19 1665.32 1731.19 1591.71 1900.8 1614.1C1972.06 1493.35 2068.06 1468.61 2188.8 1539.87C2269.85 1428.92 2365.85 1413.98 2476.8 1495.03C2583.36 1409.59 2679.36 1420.15 2764.8 1526.71C2961.04 1530.95 3057.04 1631.19 3052.8 1827.42C3162.03 1744.65 3258.03 1757.87 3340.8 1867.09C3439.14 1850.23 3496.74 1890.97 3513.6 1989.31V2242Z" fill="#48CAE4"/>
</g>
</g>
<defs>
<clipPath id="clip0_1375_1717">
<rect width="3456" height="2234" fill="white"/>
</clipPath>
</defs>
</svg>
