<svg width="3000" height="3000" viewBox="0 0 3000 3000" fill="none" xmlns="http://www.w3.org/2000/svg">
<g clip-path="url(#clip0_1393_1361)">
<path d="M3256.6 3000H-257V2746.31C-158.52 2652.79 -62.52 2655.27 31 2753.75C77.3267 2608.08 173.327 2558.4 319 2604.73C317.733 2488.26 375.333 2429.39 491.8 2428.12C546.78 2291.1 642.78 2250.08 779.8 2305.07C921.213 2254.48 1017.21 2299.9 1067.8 2441.31C1214.34 2395.85 1310.34 2446.39 1355.8 2592.93C1378.19 2423.32 1474.19 2349.71 1643.8 2372.1C1715.06 2251.35 1811.06 2226.61 1931.8 2297.87C2012.85 2186.92 2108.85 2171.98 2219.8 2253.03C2326.36 2167.59 2422.36 2178.15 2507.8 2284.71C2704.04 2288.95 2800.04 2389.19 2795.8 2585.42C2905.03 2502.65 3001.03 2515.87 3083.8 2625.09C3182.14 2608.23 3239.74 2648.97 3256.6 2747.31V3000Z" fill="#48CAE4"/>
</g>
<defs>
<clipPath id="clip0_1393_1361">
<rect width="3000" height="3000" fill="white"/>
</clipPath>
</defs>
</svg>
